<?xml version="1.0" encoding="UTF-8"?>
<svg id="Layer_2" xmlns="http://www.w3.org/2000/svg" viewBox="0 0 84.04 83.73">
  <defs>
    <style>
      .cls-1 {
        fill: #190528;
      }

      .cls-2 {
        fill: #14061c;
      }

      .cls-3 {
        fill: #3d2655;
      }

      .cls-4 {
        fill: #65467f;
      }

      .cls-5 {
        fill: #cacadf;
      }

      .cls-6 {
        fill: #7e8db2;
      }

      .cls-7 {
        fill: #64729b;
      }

      .cls-8 {
        fill: #1a2939;
      }

      .cls-9 {
        fill: #1b1825;
      }

      .cls-10 {
        fill: #4c879f;
      }

      .cls-11 {
        fill: #2f6482;
      }

      .cls-12 {
        fill: #afbbd0;
      }

      .cls-13 {
        fill: #8aa3c2;
      }
    </style>
  </defs>
  <g id="Layer_1-2" data-name="Layer_1">
    <g>
      <path class="cls-9" d="M84.04,42.25c.04,22.97-18.62,41.31-42.21,41.47C19.09,83.88.05,65.33,0,42.97-.05,18.96,18.42.04,41.94,0c23.28-.04,42.05,18.8,42.09,42.25ZM78.6,35.97c-.32-.32-.64-.63-.97-.95,1.65-4.13-.15-9.53-3.92-11.76-.1-.54-.2-1.09-.3-1.63,0-.42,0-.85.01-1.27-.37-.43-.73-.86-1.1-1.29-5.47-6-10.95-11.97-19.57-13.36C28.38-2.53,2.72,17.94,4.36,43.6c1.09.12,2.21.24,3.33.36-4.16,2.91-4.17,5.95-.07,13.84h3.91c.01.35.03.71.04,1.06-.96.42-1.93.84-3.2,1.39,8.44,13.26,20.02,20.21,35.23,19.38,15.24-.83,26.75-8.17,33.16-22.5.11-.71.21-1.43.32-2.14-.55.28-1.1.55-1.64.83-.6.24-1.19.49-1.79.73-.82-.73-1.63-1.46-2.84-2.54,1.68-.11,2.77-.18,3.86-.25,5.25-2.39,7.15-10.96,3.94-17.79ZM48.59,81.69c0-.14,0-.28,0-.42h-12.74c0,.14,0,.28,0,.42h12.74ZM81.87,46.76c.16,0,.32-.02.48-.03v-9.73c-.16,0-.32,0-.48,0v9.76ZM2.45,45.12c-.24-.05-.48-.1-.73-.15.06.95.12,1.91.17,2.86.18,0,.37-.02.55-.03v-2.68Z"/>
      <path class="cls-13" d="M73.71,23.26c3.78,2.24,5.58,7.63,3.92,11.76-2.48,1.94-5,3.82-7.42,5.83-3,2.5-5.92,5.11-8.87,7.67-1.22.07-2.44.14-3.65.21-3.1.45-7.19-.18-9.12,1.57-5.03,4.56-9.97,5.05-15.75,2.39-3.95-2.55-7.85-1.99-11.79.09-2.77,1.46-5.63,2.77-8.45,4.14-.5-1.37-.97-2.75-1.5-4.11-1.96-5.02-1.52-5.72,3.73-5.82,2.95-.05,5.9-.09,8.86-.14,2.59.3,5.19.56,7.78.89,6.71.86,13.13.59,18.29-4.65.44-.17.87-.33,1.31-.5-.1-.2-.2-.39-.31-.59-.42.27-.84.53-1.25.8-2.64.87-5.22,2.05-7.93,2.55-4.22.78-8.67,1.89-12-2.31,1.46.2,2.91.56,4.37.58,5.4.06,10.82.05,14.74-4.63,0,0-.04.03-.04.03.51-.35,1.03-.7,1.54-1.05,0,0,.08.02.08.02,3.13-2.3,6.15-4.06,10.39-2.18,4.88,2.17,8,.76,10.25-4.2,1.21-2.67,1.91-5.56,2.83-8.35ZM53.16,40.67l.44,1.31c2.15-.62,4.3-1.23,6.46-1.85-.1-.37-.21-.73-.31-1.1l-6.58,1.64Z"/>
      <path class="cls-7" d="M74.66,53.76c-1.09.07-2.18.14-3.86.25,1.21,1.08,2.02,1.81,2.84,2.54v-.07c-.68.51-1.36,1.02-2.04,1.52l.04-.02c-3.37.71-5.38,2.53-5.03,6.23-.45.65-.79,1.41-1.36,1.92-6.37,5.75-14.15,8.33-22.38,9.91-.71-1.37-1.43-2.74-2.14-4.1-.11-.65-.23-1.29-.34-1.94,4.76-1.67,9.55-3.27,14.26-5.05,3.12-1.18,6.13-2.62,9.19-3.95-.14-.31-.28-.62-.42-.93-.65-.04-1.3-.08-1.95-.12,2.64-3.41,5.27-6.82,7.91-10.23-.19-.18-.37-.35-.56-.53-1.43.61-2.86,1.23-4.3,1.84-.3-.63-.61-1.26-.91-1.89,2.36-4.91,6.94-6.84,11.62-8.63-.19,4.41-.39,8.83-.58,13.24Z"/>
      <path class="cls-6" d="M73.64,56.47v.07c.6-.24,1.2-.49,1.8-.73.44.44.89.88,1.33,1.31-6.42,14.33-17.92,21.67-33.16,22.5-15.21.83-26.79-6.13-35.23-19.38,1.28-.55,2.24-.97,3.2-1.39.63-.03,1.25-.06,1.88-.09,3.61,7.18,8.34,13.13,16.62,15.22.5.35.99.7,1.49,1.05v-.03c.67.35,1.36.69,2.04,1.04l-.06-.05c2.54,0,5.08,0,7.62,0,.57.02,1.15.03,1.72.05,8.22-1.58,16.01-4.16,22.38-9.91.57-.51.91-1.28,1.36-1.92,1.68-2.08,3.36-4.16,5.03-6.23l-.04.02c.68-.51,1.35-1.02,2.03-1.52Z"/>
      <path class="cls-7" d="M73.42,20.36c0,.42,0,.85-.01,1.27-1.39,3.11-2.64,6.28-4.19,9.31-1.6,3.13-3.65,5.68-7.7,3.24-.34-.37-.69-.75-1.03-1.12l-.22.12c-.56-2.48-1.11-4.96-1.67-7.44l3.52-.37c-1.16-1.45-2.48-2.3-3.73-2.21-5.89.44-5.88.53-5.77-5.24l-.05.05c.69-.35,1.37-.69,2.06-1.04,0,0-.06.04-.06.04.52-.35,1.04-.7,1.56-1.05,0,0-.07.05-.07.05,1-.03,1.99-.05,2.99-.08-.14-.33-.29-.67-.43-1,.35-4.42-2.18-6.67-6.01-7.94l.14-1.24c8.61,1.39,14.1,7.36,19.57,13.36.37.43.73.86,1.1,1.29Z"/>
      <path class="cls-6" d="M52.76,5.71l-.14,1.24c-.72.26-1.46.77-2.17.74-4.75-.18-9.65-1.34-14.19-.49-5.21.98-11.14,2.24-12.77,8.92-.97.26-1.94.52-2.91.77-1.68,1.97-3.36,3.93-5.04,5.9,0,.38.02.76.03,1.15l.06-.03c-.83.35-1.65.7-2.48,1.05-2.33,5.34-4.78,10.65-3.6,16.74-.19.26-.3.54-.33.86-.53.49-1.06.98-1.59,1.47,0,0,.07-.07.07-.07-1.12-.12-2.24-.24-3.33-.36C2.72,17.94,28.38-2.53,52.76,5.71Z"/>
      <path class="cls-12" d="M23.67,46.86c-2.95.05-5.9.09-8.86.14-5.25.09-5.69.79-3.73,5.82.53,1.36,1,2.74,1.5,4.11l-1.05.87h-3.91c-4.09-7.89-4.08-10.92.07-13.84,0,0-.07.07-.07.07.64-.03,1.28-.06,1.93-.1,1.23.42,2.45,1.18,3.69,1.21,3.45.06,6.91-.18,10.37-.3.02.67.04,1.35.06,2.02Z"/>
      <path class="cls-6" d="M74.66,53.76c.19-4.41.39-8.83.58-13.24,1.12-1.52,2.24-3.03,3.36-4.55,3.21,6.83,1.31,15.4-3.94,17.79Z"/>
      <path class="cls-8" d="M61.53,34.18c4.04,2.44,6.1-.11,7.7-3.24,1.55-3.03,2.8-6.2,4.19-9.31.1.54.2,1.09.3,1.63-.93,2.79-1.63,5.69-2.83,8.35-2.25,4.96-5.37,6.37-10.25,4.2-4.24-1.88-7.27-.13-10.39,2.18,1.48-5.5,5.82-5.01,10.03-4.81l.22-.12c.34.37.69.75,1.03,1.12Z"/>
      <path class="cls-8" d="M78.6,35.97c-1.12,1.52-2.24,3.03-3.36,4.55-4.68,1.79-9.26,3.72-11.62,8.63-.58,0-1.16-.01-1.74-.02-.25-.14-.43-.34-.53-.6,2.95-2.56,5.86-5.17,8.87-7.67,2.42-2.01,4.94-3.89,7.42-5.83.32.32.64.63.97.95Z"/>
      <path class="cls-8" d="M11.53,57.8c.35-.29.7-.58,1.05-.87,2.82-1.37,5.67-2.68,8.45-4.14,3.94-2.08,7.84-2.64,11.79-.09-.18.23-.35.46-.52.68-4.97-1.37-9.47-.34-13.68,2.53-1.62,1.1-3.44,1.91-5.16,2.86-.63.03-1.25.06-1.88.09-.01-.35-.03-.71-.04-1.06Z"/>
      <path class="cls-8" d="M48.59,81.69h-12.74c0-.14,0-.28,0-.42h12.74c0,.14,0,.28,0,.42Z"/>
      <path class="cls-8" d="M81.87,46.76v-9.76c.16,0,.32,0,.48,0v9.73c-.16,0-.32.02-.48.03Z"/>
      <path class="cls-8" d="M2.45,45.12v2.68c-.18,0-.37.02-.55.03-.06-.95-.12-1.91-.17-2.86.24.05.48.1.73.15Z"/>
      <path class="cls-7" d="M76.77,57.13c-.44-.44-.89-.88-1.33-1.31.55-.28,1.1-.55,1.64-.83-.11.71-.21,1.43-.32,2.14Z"/>
      <path class="cls-8" d="M73.42,20.36c-.37-.43-.73-.86-1.1-1.29.37.43.73.86,1.1,1.29Z"/>
      <path class="cls-10" d="M60.27,33.18c-4.21-.2-8.56-.69-10.03,4.81,0,0-.08-.02-.08-.02-.51.35-1.03.7-1.54,1.05,0,0,.04-.03.04-.03-1.2.42-2.41.82-3.61,1.26-6.63,2.48-13.05,2.85-19.21-1.63,4.66-3.8,5.87-6.7,4.47-10.17-1.11-2.75-3.22-3-5.71-2.41-.95-.01-1.9-.03-2.85-.04-.38-.36-.76-.72-1.15-1.08,0,0,.03.02.03.02-.68-.34-1.36-.68-2.05-1.02,0,0,.05.03.05.03-1.04-.39-2.07-.77-3.11-1.16,1.68-1.97,3.36-3.93,5.04-5.9.97-.26,1.94-.52,2.91-.77,1.64-6.68,7.57-7.94,12.77-8.92,4.54-.85,9.44.31,14.19.49.71.03,1.44-.48,2.17-.74,3.83,1.26,6.36,3.51,6.01,7.94-.85.36-1.71.72-2.56,1.09,0,0,.07-.05.07-.05-.52.35-1.04.7-1.56,1.05,0,0,.06-.04.06-.04-.69.35-1.37.69-2.06,1.04l.05-.05c-.37,2.01-1.65,5.28-.95,5.78,1.85,1.32,4.56,1.44,6.93,2.04.56,2.48,1.11,4.96,1.67,7.44ZM33.97,14.42c.23.53.46,1.06.7,1.59,1.14-.74,2.29-1.49,3.43-2.23-.19-.23-.38-.45-.69-.82-1.12.48-2.28.97-3.44,1.46ZM54.26,12.21c-.11-.26-.15-.63-.34-.75-.18-.1-.52.08-.79.14.14.33.27.67.41,1,.24-.13.48-.26.73-.39Z"/>
      <path class="cls-8" d="M24.61,26.04c2.49-.59,4.6-.34,5.71,2.41,1.4,3.47.18,6.37-4.47,10.17,6.16,4.48,12.58,4.12,19.21,1.63,1.19-.45,2.4-.84,3.61-1.26-3.92,4.69-9.34,4.69-14.74,4.63-1.46-.02-2.91-.38-4.37-.58-.21-.19-.45-.28-.74-.27-3.67-2.54-7.48-4.61-12.19-3.68,1.87-.7,3.69-1.81,5.61-2,3.37-.33,5.57-1.61,6.43-5.01.92-3.61-1.32-4.97-4.07-6.04Z"/>
      <path class="cls-5" d="M28.82,42.77c.28,0,.53.08.74.27,3.33,4.21,7.79,3.09,12,2.31,2.71-.5,5.29-1.68,7.93-2.55,0,0,.25.29.25.29-5.16,5.23-11.58,5.5-18.29,4.65-2.59-.33-5.19-.6-7.78-.89-.02-.67-.04-1.35-.06-2.02,1.74-.69,3.48-1.37,5.21-2.06Z"/>
      <path class="cls-8" d="M32.82,52.69c5.78,2.66,10.72,2.17,15.75-2.39,1.93-1.75,6.02-1.11,9.12-1.57-.02.39-.04.77-.06,1.16-3.97-.4-7.28.65-10.43,3.38-4.73,4.11-8.87,3.9-14.91.1.17-.23.35-.46.52-.68Z"/>
      <path class="cls-5" d="M53.16,40.67l6.58-1.64c.1.37.21.73.31,1.1-2.15.62-4.3,1.23-6.46,1.85l-.44-1.31Z"/>
      <path class="cls-2" d="M57.63,49.89c.02-.39.04-.77.06-1.16,1.22-.07,2.44-.14,3.65-.21.1.27.28.47.53.6-1.42.25-2.83.51-4.25.76Z"/>
      <path class="cls-5" d="M49.49,42.81c.42-.27.84-.53,1.25-.8.1.2.2.39.31.59-.44.17-.87.33-1.31.5,0,0-.25-.29-.25-.29Z"/>
      <path class="cls-8" d="M48.62,39.02c.51-.35,1.03-.7,1.54-1.05-.51.35-1.03.7-1.54,1.05Z"/>
      <path class="cls-10" d="M57.63,49.89c1.42-.25,2.83-.51,4.25-.76.58,0,1.16.01,1.74.02.3.63.61,1.26.91,1.89-3.16,3.11-6.31,6.22-9.47,9.33l.34.76c2.02-.39,4.04-.79,6.06-1.18.65.04,1.3.08,1.95.12.14.31.28.62.42.93-3.06,1.32-6.07,2.77-9.19,3.95-4.72,1.78-9.5,3.38-14.26,5.05-1.34-.01-2.68-.03-4.01-.04-.24-.02-.49-.02-.73,0-.67-.6-1.35-1.19-2.02-1.79-.98,1.61-1.97,3.22-2.95,4.82-.2.33-.41.66-.61.99-8.27-2.09-13-8.04-16.62-15.22,1.73-.94,3.54-1.75,5.16-2.86,4.22-2.87,8.71-3.9,13.68-2.53,6.03,3.8,10.18,4.02,14.91-.1,3.14-2.74,6.45-3.79,10.43-3.38ZM32.64,58.98c-1.52,0-3.05,0-4.57,0l.07-.05c-2.46,1.67-2.69,3.07.49,4.05l-.05-.04c1.69,1.97,3.38,2.58,5.06,0l-.05.06c1.92-1.92,1.81-3.33-1.01-4.06,0,0,.06.04.06.04Z"/>
      <path class="cls-3" d="M30.68,72.99c.98-1.61,1.97-3.22,2.95-4.82.67.6,1.35,1.19,2.02,1.79-.93.24-1.87.48-2.8.71.06.31.12.61.18.92,1.57-.2,3.14-.41,4.71-.61,1,.32,2,.64,3,.96.71,1.37,1.43,2.74,2.14,4.1-.57-.02-1.15-.03-1.72-.05-2.54,0-5.08,0-7.62,0l.06.05c-.69-.35-1.37-.69-2.06-1.04v.03c-.28-.68-.57-1.36-.87-2.04Z"/>
      <path class="cls-11" d="M61.47,59.95c-2.02.39-4.04.79-6.06,1.18l-.34-.76c3.16-3.11,6.31-6.22,9.47-9.33,1.43-.61,2.86-1.23,4.3-1.84.19.18.37.35.56.53-2.64,3.41-5.27,6.82-7.91,10.23Z"/>
      <path class="cls-3" d="M71.65,57.97c-1.68,2.08-3.36,4.16-5.03,6.23-.34-3.71,1.66-5.52,5.03-6.23Z"/>
      <path class="cls-8" d="M40.74,71.94c-1-.32-2-.64-3-.96-.45-.34-.9-.68-1.35-1.02,1.34.01,2.68.03,4.01.04.11.65.23,1.29.34,1.94Z"/>
      <path class="cls-3" d="M73.64,56.47c-.68.51-1.35,1.02-2.03,1.52.68-.51,1.35-1.02,2.03-1.52Z"/>
      <path class="cls-1" d="M33.55,75.99c2.54,0,5.08,0,7.62,0-2.54,0-5.08,0-7.62,0Z"/>
      <path class="cls-1" d="M30.68,72.99c.29.68.59,1.36.88,2.04-.5-.35-.99-.7-1.49-1.05.2-.33.41-.66.61-.99Z"/>
      <path class="cls-1" d="M31.55,75c.69.35,1.37.69,2.06,1.04-.69-.35-1.37-.69-2.06-1.04Z"/>
      <path class="cls-8" d="M58.6,25.74c-2.37-.6-5.08-.72-6.93-2.04-.7-.5.58-3.77.95-5.78-.11,5.77-.11,5.68,5.77,5.24,1.25-.09,2.57.76,3.73,2.21l-3.52.37Z"/>
      <path class="cls-8" d="M56.07,15.98c.85-.36,1.71-.72,2.56-1.09.14.33.29.67.43,1-1,.03-1.99.05-2.99.08Z"/>
      <path class="cls-8" d="M52.58,17.98c.69-.35,1.37-.69,2.06-1.04-.69.35-1.37.69-2.06,1.04Z"/>
      <path class="cls-10" d="M61.53,34.18c-.34-.37-.69-.75-1.03-1.12.34.37.69.75,1.03,1.12Z"/>
      <path class="cls-8" d="M54.58,16.98c.52-.35,1.04-.7,1.56-1.05-.52.35-1.04.7-1.56,1.05Z"/>
      <path class="cls-4" d="M24.61,26.04c2.75,1.08,4.99,2.43,4.07,6.04-.87,3.4-3.06,4.68-6.43,5.01-1.92.19-3.74,1.3-5.61,2,0,0,.03-.1.03-.1-1.34.68-2.69,1.35-4.03,2.03l.03-.02c-.68.34-1.36.68-2.04,1.03l.11-.02c-.4-.1-.79-.2-1.19-.3-1.18-6.09,1.28-11.4,3.6-16.74.83-.35,1.65-.7,2.48-1.05l-.06.03c1.03,0,2.06,0,3.08.01,0,0-.05-.03-.05-.03.68.34,1.36.68,2.05,1.02l-.03-.02c.38.36.76.72,1.15,1.08.95.01,1.9.03,2.85.04Z"/>
      <path class="cls-8" d="M23.49,16.12c-.97.26-1.94.52-2.91.77.97-.26,1.94-.52,2.91-.77Z"/>
      <path class="cls-8" d="M18.64,23.96c-1.03,0-2.06,0-3.08-.01l-.03-1.15c1.04.39,2.07.77,3.11,1.16Z"/>
      <path class="cls-9" d="M9.55,43.93c-.64.03-1.28.06-1.93.1.53-.49,1.06-.98,1.59-1.47.19.23.4.42.65.58-.08.28-.18.54-.31.8Z"/>
      <path class="cls-8" d="M15.62,23.92c-.83.35-1.65.7-2.48,1.05.83-.35,1.65-.7,2.48-1.05Z"/>
      <path class="cls-8" d="M9.54,41.7c.4.1.79.2,1.19.3-.29.38-.58.75-.87,1.13-.25-.16-.46-.35-.65-.58.03-.32.14-.6.33-.86Z"/>
      <path class="cls-13" d="M9.86,43.14c.29-.38.58-.75.87-1.13,0,0-.11.02-.11.02.68-.34,1.36-.68,2.04-1.03l-.03.02c1.34-.68,2.69-1.35,4.03-2.03,0,0-.03.1-.03.1,4.71-.93,8.52,1.14,12.19,3.68-1.74.69-3.48,1.37-5.21,2.06-3.46.12-6.92.37-10.37.3-1.24-.02-2.46-.78-3.69-1.21.13-.25.24-.52.31-.8Z"/>
      <path class="cls-8" d="M33.97,14.42c1.16-.49,2.32-.98,3.44-1.46.31.36.5.59.69.82-1.14.74-2.29,1.49-3.43,2.23-.23-.53-.46-1.06-.7-1.59Z"/>
      <path class="cls-11" d="M54.26,12.21c-.24.13-.48.26-.72.39-.14-.33-.27-.67-.41-1,.27-.06.61-.24.79-.14.19.11.24.49.34.75Z"/>
      <path class="cls-8" d="M20.64,24.95c-.68-.34-1.36-.68-2.05-1.02.68.34,1.36.68,2.05,1.02Z"/>
      <path class="cls-8" d="M21.76,26c-.38-.36-.76-.72-1.15-1.08.38.36.76.72,1.15,1.08Z"/>
      <path class="cls-7" d="M28.13,58.93l-.07.05c1.52,0,3.05,0,4.57,0l-.06-.04c.34,1.35.67,2.71,1.01,4.06l.05-.06c-1.69,0-3.38,0-5.06,0l.05.04c-.16-1.35-.33-2.7-.49-4.05Z"/>
      <path class="cls-9" d="M28.57,62.94c1.69,0,3.38,0,5.06,0-1.69,2.58-3.38,1.97-5.06,0Z"/>
      <path class="cls-7" d="M36.38,69.96c.45.34.9.68,1.35,1.02-1.57.2-3.14.41-4.71.61-.06-.31-.12-.61-.18-.92.93-.24,1.87-.48,2.8-.71.24-.02.49-.02.73,0Z"/>
      <path class="cls-9" d="M33.59,62.99c-.34-1.35-.67-2.71-1.01-4.06,2.82.73,2.93,2.14,1.01,4.06Z"/>
      <path class="cls-8" d="M28.13,58.93c.16,1.35.33,2.7.49,4.05-3.18-.98-2.95-2.38-.49-4.05Z"/>
      <path class="cls-9" d="M32.64,58.98c-1.52,0-3.05,0-4.57,0,1.52,0,3.05,0,4.57,0Z"/>
      <path class="cls-8" d="M16.66,39c-1.34.68-2.69,1.35-4.03,2.03,1.34-.68,2.69-1.35,4.03-2.03Z"/>
      <path class="cls-8" d="M12.66,41c-.68.34-1.36.68-2.04,1.03.68-.34,1.36-.68,2.04-1.03Z"/>
    </g>
  </g>
</svg>