<?xml version="1.0" encoding="UTF-8"?>
<svg id="Layer_2" xmlns="http://www.w3.org/2000/svg" viewBox="0 0 84.99 86.15">
  <defs>
    <style>
      .cls-1 {
        fill: #14061c;
      }

      .cls-2 {
        fill: #3d2655;
      }

      .cls-3 {
        fill: #65467f;
      }

      .cls-4 {
        fill: #cacadf;
      }

      .cls-5 {
        fill: #aa91ba;
      }

      .cls-6 {
        fill: #7e8db2;
      }

      .cls-7 {
        fill: #fbfbfb;
      }

      .cls-8 {
        fill: #64729b;
      }

      .cls-9 {
        fill: #9cc1cc;
      }

      .cls-10 {
        fill: #1a2939;
      }

      .cls-11 {
        fill: #2b1b41;
      }

      .cls-12 {
        fill: #1b1825;
      }

      .cls-13 {
        fill: #9c79a8;
      }

      .cls-14 {
        fill: #afbbd0;
      }

      .cls-15 {
        fill: #8aa3c2;
      }
    </style>
  </defs>
  <g id="Layer_1-2" data-name="Layer_1">
    <g>
      <path class="cls-12" d="M24.65,82.01C10.37,76.12,3.15,64.87.62,50.16-3.52,26.05,13.49,3.19,37.63.31c22.47-2.69,42.35,12.5,46.67,35.65,4,21.48-9.85,43.25-30.97,48.66-1.84-.72-3.68-1.44-5.52-2.16,3.84-1.28,7.67-2.55,11.51-3.83.87-.66,1.75-1.33,2.62-1.99.8-.64,1.58-1.29,2.39-1.91,2.96-2.28,5.93-4.56,8.89-6.84-.25-.3-.5-.59-.74-.89-.73-.09-1.45-.17-2.18-.26,1.87-1.4,3.52-2.64,5.16-3.87l1.01-1.48c-.69-.16-1.38-.31-2.08-.47.09-.27.09-.54.02-.81,5.22-1.67,5.34-6.01,5.79-10.43-1.16.11-1.98.19-2.79.26l-.06-1.12c1.04-.51,2.64-.76,3-1.57.75-1.69,2.45-4.54-1.98-3.83,0-.48,0-.96.01-1.44.83-.43,2.14-.66,2.41-1.32,1.21-2.89-1.78-11.65-4.49-13.8.07-4.73-.65-5.44-5-4.99,2.27-3.75,2.06-4.3-1.89-4.84-.01-.41-.03-.81-.04-1.22-.93-1.26-1.65-2.77-2.82-3.73-6.18-5.1-13.38-7.84-21.35-8.33-8.21-.51-16.12.41-22.75,6.02-.36.23-.72.46-1.08.7-.98,1.09-1.95,2.18-2.93,3.27-.44.04-.88.07-1.32.11-2.52.65-3.41,1.81-1.21,3.91-.47,0-.94,0-1.41-.01-4.17,1.44-8.13,8.7-7.09,13-3.57,1.47-1.79,3.87-1.04,6.08-.66.51-1.8.95-1.9,1.56-.65,4-1.24,8.07,1.94,11.45-1.95.56-2.64,1.57-1.1,3.28.73.81,1.53,1.57,2.3,2.35-.09.36-.19.72-.28,1.07-.18.87-.69,1.83-.48,2.61,1.48,5.69,5.8,8.87,10.54,11.65h-3.24c.94.83,1.57,1.39,2.2,1.94,3.37,2.22,6.74,4.45,10.11,6.67l1.26.7.38-.12c-1.16.67-2.32,1.33-3.48,2ZM47.13,2.11c0,.12,0,.24,0,.37h1.53c0-.12,0-.24,0-.37h-1.53Z"/>
      <path class="cls-1" d="M24.65,82.01c1.16-.67,2.32-1.33,3.48-2,6.56.82,13.12,1.63,19.68,2.45,1.84.72,3.68,1.44,5.52,2.16-9.86,2.45-19.48,2.21-28.68-2.61ZM45.28,84.6c-.03-.15-.06-.31-.09-.46h-6.66c.01.15.02.31.03.46h6.72Z"/>
      <path class="cls-14" d="M15.95,17.79c-2.2-2.11-1.32-3.26,1.21-3.91.73.64,1.45,1.29,2.18,1.93.69.34,1.37.68,2.06,1.03l-.06-.05c1.36.68,2.72,1.35,4.08,2.03,0,0-.07-.04-.07-.04,1.36.69,2.71,1.37,4.07,2.06l-.08-.05c1.03.35,2.07.69,3.1,1.04l-.1-.05c4.03,1.29,8.07,2.58,12.1,3.87,3.7.19,7.4.37,11.1.56-.72,1.5-1.45,3.01-2.17,4.51-1,.11-1.99.22-2.99.33-3.01-.35-6.03-.71-9.04-1.06-.96-.15-1.91-.31-2.87-.46-1.28-.46-2.57-.92-3.85-1.39-1.08-.36-2.15-.73-3.23-1.09-.61-.15-1.21-.3-1.82-.44-.9-.44-1.8-.87-2.7-1.31-.67-.32-1.33-.64-2-.96-.44-.23-.89-.46-1.33-.7-.66-.41-1.31-.83-1.97-1.24-.34-.25-.69-.51-1.03-.76-.69-.36-1.38-.72-2.06-1.08-.12.22-.25.43-.37.65.59.43,1.18.87,1.77,1.3l1.1.51c.65.4,1.31.8,1.96,1.2.44.23.88.47,1.32.7.67.33,1.35.66,2.02.99.88.47,1.76.94,2.64,1.41.8.35,1.59.7,2.39,1.04.84.28,1.68.55,2.53.83,1.53.47,3.06.95,4.59,1.42.96.12,1.93.23,2.89.35,2.02.58,4.04,1.16,6.06,1.74-2.6,1.17-3.35,3.23-3.04,5.95.19,1.64.09,3.3.12,4.96l-4.01-.11c-2.92-.69-5.84-1.37-8.76-2.05-2.01-.67-4.01-1.33-6.02-2-5.53-2.82-11.06-5.64-16.58-8.45,1.11-1.72,2.14-3.5,3.34-5.16,1.24-1.73,2.63-3.35,3.96-5.02.14.09.27.17.41.26-.14-.09-.27-.18-.41-.27-.01-.48-.03-.97-.04-1.45-.13-.52-.26-1.04-.39-1.55ZM34.95,31.92c-1.01,1.3-1.65,2.13-2.29,2.96.92.69,1.79,1.76,2.79,1.9.55.08,1.85-1.42,1.84-2.21,0-.75-1.26-1.49-2.35-2.65ZM14.63,30.59c.64-.24,1.27-.48,1.91-.72-.48-.95-.94-1.92-1.5-2.83-.04-.07-1.2.39-1.18.48.18,1.03.5,2.05.78,3.06Z"/>
      <path class="cls-14" d="M17.42,70.82c-4.74-2.77-9.06-5.96-10.54-11.65-.2-.78.31-1.74.48-2.61.16.29.41.47.74.53.7.33,1.4.66,2.1.98.12-.21.23-.41.35-.62-.54-.41-1.09-.81-1.63-1.22-.43-.25-.85-.5-1.28-.75-.77-.78-1.56-1.54-2.3-2.35-1.54-1.71-.85-2.72,1.1-3.28l-.05-.1c1.83,1.5,3.65,3,5.48,4.5,4.44,1.92,8.89,3.83,13.33,5.75,7.05,1.6,14.11,3.2,21.16,4.81-1.34.89-2.69,1.77-4.03,2.66-5.49-1.07-10.99-2.14-16.48-3.21-.74-.26-1.48-.52-2.22-.78-3.62-1.66-7.25-3.31-10.87-4.97-.18.46-.37.91-.55,1.37,3.57,1.46,7.15,2.93,10.72,4.39.78.21,1.55.43,2.33.64,6.7,1.64,13.41,3.27,20.11,4.91,0,.66,0,1.32,0,1.98-7.93-1.02-15.87-2.03-23.8-3.05-.75.04-1.5.08-2.25.12.02.59.05,1.18.08,1.77-.68.03-1.36.06-2.04.1l.06.08ZM17.66,67.29l.27.17.03-.26-.31.09Z"/>
      <path class="cls-4" d="M47.81,82.46c-6.56-.82-13.12-1.63-19.68-2.45l-.38.12-1.26-.7c-3.37-2.22-6.74-4.45-10.11-6.67.36-.34.71-.69,1.07-1.03.62.04,1.25.08,1.87.13h0c.66.43,1.33.86,1.99,1.29,3.16.91,6.33,1.82,9.49,2.73,2.2.59,4.4,1.18,6.61,1.77,2.32.19,4.64.38,6.96.57,2.34-.04,4.67-.09,7.01-.13,2.26-.18,4.53-.37,6.79-.55.39.37.77.73,1.16,1.1-3.84,1.28-7.67,2.55-11.51,3.83Z"/>
      <path class="cls-4" d="M22.48,9.79c6.63-5.61,14.54-6.53,22.75-6.02,7.97.5,15.17,3.23,21.35,8.33,1.17.96,1.89,2.47,2.82,3.73-1.35.36-2.69.71-4.04,1.07-3.61-7.58-10.26-9.8-17.96-10.16l.03.03c-.29-.26-.58-.52-.87-.78-4.49.82-8.98,1.65-13.47,2.45-3.38.6-4.88,2.37-3.73,5.85-.5.15-1,.3-1.5.45-.48-.13-.95-.26-1.43-.39-.35-.54-.7-1.08-1.05-1.62l.06.04c-.69-.35-1.38-.69-2.07-1.04,0,0,.07.06.07.06-.36-.35-.71-.71-1.07-1.06,0,0,.07.06.07.06.08-.11.23-.22.23-.32-.02-.23-.12-.45-.18-.68Z"/>
      <path class="cls-14" d="M26.42,14.35c.48.13.95.26,1.43.39,5.78,4.45,12.71,5.09,19.58,5.93,2.3.1,4.6.21,6.91.31.21,1.21.41,2.43.62,3.64-3.51-.02-7.01-.05-10.52-.07-4.04-.93-8.07-1.87-12.11-2.8,0,0,.1.05.1.05-1.03-.35-2.07-.69-3.1-1.04,0,0,.08.05.08.05-1.36-.69-2.71-1.37-4.07-2.06,0,0,.07.04.07.04-1.36-.68-2.72-1.35-4.08-2.03l.06.05c-.18-.39-.37-.78-.55-1.16-.79-.63-1.59-1.27-2.38-1.9.98-1.09,1.95-2.18,2.93-3.27.35.1.69.21,1.04.31l-.07-.06c.36.35.71.71,1.07,1.06l-.07-.06,2.07,1.04-.06-.04c.35.54.7,1.08,1.05,1.62Z"/>
      <path class="cls-4" d="M75.46,62.89c-1.64,1.23-3.29,2.47-5.16,3.87.73.09,1.46.17,2.18.26.25.3.5.59.74.89-2.96,2.28-5.93,4.55-8.89,6.84-.81.62-1.59,1.27-2.39,1.91,0,0,0,.16,0,.16-1.22,0-2.43,0-3.65,0,0,0,.1-.07.1-.07-2.34.05-4.69.11-7.03.16l.07-.35c-.05-.25-.07-.5-.08-.76,3.35-1.95,6.71-3.89,10.06-5.84.13-.24.16-.49.08-.76,2.59-.48,5.18-.96,7.76-1.44-.04-.35-.09-.71-.13-1.06h-2.76c.02-.87.04-1.74.06-2.6.32-.09.62-.23.89-.42,2.34-.64,4.69-1.28,7.03-1.92.37.38.73.76,1.1,1.13Z"/>
      <path class="cls-4" d="M16.37,20.8c-1.33,1.67-2.72,3.29-3.96,5.02-1.19,1.66-2.23,3.44-3.34,5.16-.56-.08-1.12-.16-1.68-.24l.05.03c-1.04-4.3,2.92-11.56,7.09-13,.6.52,1.2,1.05,1.8,1.57.01.48.03.97.04,1.45,0,0,0,0,0,0Z"/>
      <path class="cls-4" d="M6.45,49.85c-3.18-3.38-2.59-7.44-1.94-11.45.1-.61,1.24-1.04,1.9-1.56l-.1-.06c.35.36.7.71,1.05,1.07,0,0-.05-.04-.05-.04,1.01.68,2.02,1.35,3.03,2.03h0c.43.47.86.95,1.29,1.43-4.03,1.82-3.14,5.52-3.34,8.8-.62-.11-1.25-.22-1.87-.33l.05.1Z"/>
      <path class="cls-4" d="M76.32,26.88c2.71,2.15,5.69,10.91,4.49,13.8-.28.66-1.58.89-2.41,1.32-.34-.05-.68-.1-1.02-.15.59-4.68-.29-9.02-2.98-12.95,0-.37,0-.74,0-1.11,0,0-.06.04-.06.04.7-.35,1.39-.71,2.09-1.06l-.1.11Z"/>
      <path class="cls-14" d="M6.4,36.85c-.74-2.21-2.53-4.61,1.04-6.08l-.05-.03c3.16,2.26,6.33,4.52,9.49,6.79-1.07.9-2.13,1.81-3.2,2.71-1.12-.13-2.24-.26-3.36-.39h0c-1.01-.67-2.02-1.35-3.03-2.02l.05.04c-.35-.36-.7-.71-1.05-1.07l.1.06Z"/>
      <path class="cls-4" d="M77.42,49.96c.82-.08,1.63-.15,2.79-.26-.45,4.42-.57,8.76-5.79,10.43-.33-.06-.65-.11-.98-.17.31-1.79.63-3.58.94-5.37.3-.56.6-1.13.9-1.69l.22-1.62c.64-.44,1.28-.87,1.92-1.31Z"/>
      <path class="cls-4" d="M71.32,21.89c4.36-.45,5.07.26,5,4.99,0,0,.1-.11.1-.11-.7.35-1.39.71-2.09,1.06,0,0,.06-.04.06-.04-.66-.13-1.31-.26-1.97-.4-.58-1.26-1.17-2.52-1.75-3.78.24-.59.49-1.18.73-1.77l-.09.05Z"/>
      <path class="cls-10" d="M77.37,41.84c.34.05.68.1,1.02.15,0,.48,0,.96-.01,1.44-.31.21-.62.42-.93.63-3.7.54-7.41,1.09-11.11,1.63,0-.36-.01-.73-.02-1.09,3.69-.92,7.37-1.84,11.06-2.76Z"/>
      <path class="cls-14" d="M69.43,17.06c3.94.54,4.16,1.09,1.89,4.84l.09-.05c-.67-.07-1.34-.13-2.01-.2-.72-.96-1.44-1.93-2.16-2.89.73-.57,1.46-1.13,2.19-1.7Z"/>
      <path class="cls-14" d="M77.45,44.06c.31-.21.62-.42.93-.63,4.42-.71,2.72,2.14,1.98,3.83-.36.81-1.96,1.06-3,1.57,0,0,.12-.31.12-.31-.01-1.49-.02-2.97-.03-4.46Z"/>
      <path class="cls-2" d="M73.44,59.95c.33.06.65.11.98.17.07.27.07.54-.02.81.11.28.1.55-.04.82-2.34.64-4.69,1.28-7.03,1.92.02-.53.04-1.06.07-1.58,1.7-.51,3.4-1.03,5.1-1.54.32-.23.63-.47.95-.7,0,0,0,.11,0,.11Z"/>
      <path class="cls-10" d="M69.43,17.06c-.73.57-1.46,1.13-2.19,1.7-1.63.02-3.26.04-4.9.06,1-.64,2-1.27,3.01-1.91,1.35-.36,2.69-.71,4.04-1.07.01.41.03.81.04,1.22Z"/>
      <path class="cls-10" d="M77.42,49.96c-.64.44-1.28.87-1.92,1.31-.85.18-1.69.36-2.54.55,1.51-1.1,3.01-2.2,4.52-3.29,0,0-.12.31-.12.31.02.37.04.75.06,1.12Z"/>
      <path class="cls-13" d="M61.95,76.8s0-.16,0-.16c-.87.66-1.75,1.33-2.62,1.99-.39-.37-.77-.73-1.16-1.1.02-.29.1-.55.24-.8l-.1.07c1.22,0,2.43,0,3.65,0Z"/>
      <path class="cls-1" d="M18.47,13.76c.79.63,1.59,1.27,2.38,1.9-.5.05-1.01.09-1.51.14-.73-.64-1.45-1.29-2.18-1.93.44-.04.88-.07,1.32-.11Z"/>
      <path class="cls-5" d="M17.44,71.73c-.36.34-.71.69-1.07,1.03-.63-.56-1.26-1.11-2.2-1.94h3.24l-.06-.08c.03.33.05.66.08,1Z"/>
      <path class="cls-5" d="M74.36,61.75c.14-.27.15-.54.04-.82.69.16,1.38.31,2.08.47l-1.01,1.48c-.37-.38-.73-.76-1.1-1.13Z"/>
      <path class="cls-11" d="M47.13,2.11h1.53c0,.12,0,.24,0,.37h-1.53c0-.12,0-.24,0-.37Z"/>
      <path class="cls-2" d="M16.34,19.34c-.6-.52-1.2-1.05-1.8-1.57.47,0,.94,0,1.41.01.13.52.26,1.04.39,1.55Z"/>
      <path class="cls-2" d="M7.65,55.49c.43.25.85.5,1.28.75l-.82.85c-.33-.06-.58-.23-.74-.53.09-.36.19-.72.28-1.07Z"/>
      <path class="cls-1" d="M26.48,79.44l1.26.7-1.26-.7Z"/>
      <path class="cls-10" d="M22.43,10.8c-.35-.1-.69-.21-1.04-.31.36-.23.72-.46,1.08-.7.07.23.16.45.18.68,0,.1-.15.22-.23.32Z"/>
      <path class="cls-10" d="M45.28,84.6h-6.72c-.01-.15-.02-.31-.03-.46h6.66c.03.15.06.31.09.46Z"/>
      <path class="cls-9" d="M44.45,43.6c-.03-1.65.07-3.32-.12-4.96-.31-2.72.44-4.77,3.04-5.95.99-.1,1.99-.2,2.98-.3,2.02.03,4.05.07,6.07.1.31.12.62.25.93.37-.06.8-.12,1.59-.18,2.39-1.3.1-2.59.21-3.89.31.68,1.19,1.36,2.39,2.04,3.58.47,1.45.94,2.9,1.49,4.59-.09.05-.78.45-1.46.85-2.64,0-5.28.01-7.92.02-1-.34-1.99-.67-2.99-1.01Z"/>
      <path class="cls-15" d="M70.68,23.61c.58,1.26,1.17,2.52,1.75,3.78-5.34,1.22-10.67,2.44-16.01,3.65-1.02-.11-2.04-.23-3.06-.34.72-1.5,1.45-3.01,2.17-4.51,1.93-.19,3.87-.37,5.8-.56,1.36-.62,2.71-1.24,4.07-1.85,0,0-.04.02-.04.02,1.78-.06,3.55-.13,5.33-.19Z"/>
      <path class="cls-10" d="M16.89,37.53c-3.16-2.26-6.33-4.52-9.49-6.79.56.08,1.12.16,1.68.24,5.53,2.82,11.06,5.64,16.58,8.45-.21.27-.43.55-.64.82-2.71-.91-5.42-1.82-8.13-2.73Z"/>
      <path class="cls-1" d="M61.33,25.64c-1.93.19-3.87.37-5.8.56-3.7-.19-7.4-.37-11.1-.56v-1.07c3.52.02,7.02.05,10.53.07,2.17-.14,4.33-.28,6.5-.42-.04.48-.09.95-.13,1.43Z"/>
      <path class="cls-10" d="M44.44,24.56v1.07c-4.04-1.29-8.08-2.58-12.11-3.87,4.04.93,8.07,1.87,12.11,2.8Z"/>
      <path class="cls-10" d="M34.95,31.92c1.09,1.16,2.34,1.9,2.35,2.65,0,.78-1.29,2.28-1.84,2.21-1-.14-1.87-1.22-2.79-1.9.64-.83,1.28-1.65,2.29-2.96Z"/>
      <path class="cls-12" d="M44.45,43.6c1,.34,1.99.67,2.99,1.01-.01.33-.03.66-.04.99-.35.09-.7.18-1.05.26-1.99-.39-3.98-.79-5.96-1.18.02-.4.04-.8.06-1.2,1.34.04,2.67.07,4.01.11Z"/>
      <path class="cls-10" d="M50.35,32.39c-.99.1-1.99.2-2.98.3-2.02-.58-4.04-1.16-6.06-1.74,0-.33.01-.66.02-.98,3.01.35,6.03.71,9.04,1.06,0,.45-.01.9-.02,1.36Z"/>
      <path class="cls-10" d="M40.44,43.49c-.02.4-.04.8-.06,1.2-3.15-.77-6.29-1.54-9.44-2.31.25-.31.49-.63.74-.94,2.92.69,5.84,1.37,8.76,2.06Z"/>
      <path class="cls-2" d="M50.35,32.39c0-.45.01-.9.02-1.36,1-.11,1.99-.22,2.99-.33,1.02.11,2.04.23,3.06.34,0,.48,0,.96,0,1.45-2.02-.03-4.05-.07-6.07-.1Z"/>
      <path class="cls-7" d="M14.63,30.59c-.28-1.02-.59-2.03-.78-3.06-.02-.1,1.14-.55,1.18-.48.56.91,1.02,1.88,1.5,2.83-.64.24-1.27.48-1.91.72Z"/>
      <path class="cls-10" d="M25.66,39.43c2.01.67,4.01,1.33,6.02,2-.25.31-.49.63-.74.94-1.97-.71-3.95-1.41-5.92-2.12.21-.27.43-.55.64-.82Z"/>
      <path class="cls-10" d="M34.61,28.12c1.28.46,2.57.92,3.85,1.39-.01.37-.03.73-.04,1.1-1.53-.47-3.06-.95-4.59-1.42l.78-1.06Z"/>
      <path class="cls-10" d="M25.34,18.77c1.36.69,2.71,1.37,4.07,2.06-1.36-.69-2.71-1.37-4.07-2.06Z"/>
      <path class="cls-10" d="M21.33,16.78c1.36.68,2.72,1.35,4.08,2.03-1.36-.68-2.72-1.35-4.08-2.03Z"/>
      <path class="cls-2" d="M31.38,27.03c1.08.36,2.15.73,3.23,1.09l-.78,1.06c-.84-.28-1.68-.55-2.53-.83.02-.44.05-.88.07-1.33Z"/>
      <path class="cls-10" d="M29.33,20.77c1.03.35,2.07.69,3.1,1.04-1.03-.35-2.07-.69-3.1-1.04Z"/>
      <path class="cls-1" d="M38.42,30.61c.01-.37.03-.73.04-1.1.96.15,1.91.31,2.87.46,0,.33-.01.66-.02.98-.96-.12-1.93-.23-2.89-.35Z"/>
      <path class="cls-10" d="M28.92,27.31c-.88-.47-1.76-.94-2.64-1.41.21-.2.4-.41.59-.62.9.44,1.8.87,2.7,1.31-.22.24-.44.48-.64.73Z"/>
      <path class="cls-10" d="M19.33,15.8c.5-.05,1.01-.09,1.51-.14.18.39.37.78.55,1.16-.69-.34-1.37-.68-2.06-1.03Z"/>
      <path class="cls-2" d="M19.87,22.5c-.59-.43-1.18-.87-1.77-1.3.12-.22.25-.43.37-.65.69.36,1.38.72,2.06,1.08-.22.29-.44.58-.67.87Z"/>
      <path class="cls-10" d="M21.57,22.39c.66.41,1.31.83,1.97,1.24-.2.19-.4.39-.6.58-.65-.4-1.31-.8-1.96-1.2.27-.14.47-.34.6-.62Z"/>
      <path class="cls-10" d="M31.38,27.03c-.02.44-.05.88-.07,1.33-.8-.35-1.59-.7-2.39-1.04.21-.25.42-.49.64-.73.61.15,1.21.3,1.82.44Z"/>
      <path class="cls-10" d="M24.87,24.32c.67.32,1.33.64,2,.96-.19.22-.38.42-.59.62-.67-.33-1.35-.66-2.02-.99.21-.19.41-.39.61-.59Z"/>
      <path class="cls-4" d="M16.38,20.8c.14.09.27.18.41.27-.14-.09-.27-.17-.41-.26,0,0,0,0,0,0Z"/>
      <path class="cls-2" d="M20.97,23.01l-1.1-.51c.22-.29.44-.58.67-.87.34.25.69.51,1.03.76-.13.28-.33.48-.6.62Z"/>
      <path class="cls-10" d="M23.54,23.63c.44.23.89.46,1.33.7-.2.2-.4.4-.61.59-.44-.23-.88-.47-1.32-.7.2-.19.4-.39.6-.58Z"/>
      <path class="cls-15" d="M61.43,69.95c-3.35,1.95-6.71,3.89-10.06,5.84-2.29.24-4.57.48-6.86.72,0,0-.17.41-.17.41-2.31-.07-4.63-.14-6.94-.22-1.57-.38-3.15-.75-4.72-1.13-3.77-1.23-7.53-2.45-11.3-3.68-.69-.01-1.37-.03-2.06-.04,0,0,0,0,0,0,.03-.41.06-.81.09-1.22-.02-.59-.05-1.18-.07-1.77.75-.04,1.5-.08,2.25-.12,7.93,1.02,15.87,2.03,23.8,3.05,1,0,2,0,3,0,1.67-.01,3.33-.02,5-.04,1.99-.63,3.98-1.26,5.96-1.9.7.03,1.4.06,2.1.09Z"/>
      <path class="cls-15" d="M66.45,64.09c-.02.87-.04,1.74-.06,2.6-1.67.39-3.34.78-5.01,1.16-6.35-.13-12.69-.26-19.04-.39,1.34-.89,2.69-1.77,4.03-2.66.63-.08,1.25-.15,1.88-.23,2.99-.09,5.98-.18,8.98-.27,3.07-.07,6.15-.15,9.22-.22Z"/>
      <path class="cls-10" d="M42.34,67.47c6.35.13,12.69.26,19.04.39.04.45.09.89.13,1.34.07.26.05.52-.08.76-.7-.03-1.4-.06-2.1-.09-2.07.07-4.14.13-6.21.2-1.49-.02-2.97-.03-4.46-.05-1.1-.06-2.19-.13-3.29-.19-6.7-1.64-13.41-3.27-20.11-4.91.21-.21.41-.43.59-.66,5.49,1.07,10.99,2.14,16.48,3.21Z"/>
      <path class="cls-10" d="M48.25,64.58c-.63.08-1.25.15-1.88.23-7.05-1.6-14.11-3.2-21.16-4.81l.71-.93c5.48,1.12,10.96,2.25,16.44,3.37,2,.15,4,.3,6,.45l-.11,1.68Z"/>
      <path class="cls-10" d="M25.21,60c-4.44-1.92-8.89-3.83-13.33-5.75.24-.33.48-.66.72-.99,4.44,1.94,8.88,3.88,13.32,5.82l-.71.93Z"/>
      <path class="cls-10" d="M22.94,64.28c-3.57-1.46-7.15-2.93-10.72-4.39.18-.46.37-.91.55-1.37,3.62,1.66,7.25,3.31,10.87,4.97-.23.27-.47.53-.7.8Z"/>
      <path class="cls-2" d="M6.41,49.75c.62.11,1.25.22,1.87.33,1.44,1.06,2.88,2.12,4.32,3.18-.24.33-.48.66-.72.99-1.83-1.5-3.65-3-5.48-4.5Z"/>
      <path class="cls-9" d="M45.38,69.82c1.1.06,2.19.13,3.29.19-.1.59-.19,1.18-.29,1.78-1,0-2,0-3,0,0-.66,0-1.32,0-1.98Z"/>
      <path class="cls-12" d="M19.4,70.64c-.03.41-.06.81-.09,1.22-.62-.04-1.25-.08-1.87-.13-.03-.33-.05-.66-.08-1,.68-.03,1.36-.06,2.04-.1Z"/>
      <path class="cls-6" d="M21.57,68.75c-.75.04-1.5.08-2.25.12.75-.04,1.5-.08,2.25-.12Z"/>
      <path class="cls-10" d="M23.64,63.48c.74.26,1.48.52,2.22.78-.19.23-.38.45-.59.66-.78-.21-1.55-.43-2.33-.64.23-.27.47-.53.7-.8Z"/>
      <path class="cls-2" d="M8.93,56.23c.54.41,1.09.81,1.63,1.22-.12.21-.23.41-.35.62-.7-.33-1.4-.66-2.1-.98.27-.28.55-.57.82-.85Z"/>
      <polygon class="cls-6" points="17.66 67.29 17.97 67.19 17.94 67.45 17.66 67.29"/>
      <path class="cls-2" d="M21.37,71.9c3.77,1.23,7.53,2.45,11.3,3.68-.62.1-1.25.19-1.87.29-3.16-.91-6.33-1.82-9.49-2.73.02-.42.04-.83.07-1.25Z"/>
      <path class="cls-8" d="M51.37,78.08c-2.34.04-4.67.09-7.01.13,0-.43-.02-.86-.03-1.29l.17-.41c2.31.01,4.62.03,6.94.04,0,0-.07.35-.07.35,0,.39,0,.79,0,1.18Z"/>
      <path class="cls-10" d="M30.8,75.87c.62-.1,1.25-.19,1.87-.29,1.57.38,3.15.75,4.72,1.13.01.31.01.62.01.93-2.2-.59-4.4-1.18-6.61-1.77Z"/>
      <path class="cls-12" d="M51.37,78.08c0-.39,0-.79,0-1.18,2.34-.05,4.69-.11,7.03-.16-.14.25-.22.51-.24.8-2.26.18-4.53.37-6.79.55Z"/>
      <path class="cls-1" d="M37.41,77.64c0-.31,0-.62-.01-.93,2.31.07,4.63.14,6.94.22,0,.43.02.86.03,1.29-2.32-.19-4.64-.38-6.96-.57Z"/>
      <path class="cls-12" d="M21.37,71.9c-.02.42-.04.83-.07,1.25-.66-.43-1.33-.86-1.99-1.29.69.01,1.37.03,2.06.04Z"/>
      <path class="cls-9" d="M29.35,14.29c-1.15-3.47.35-5.24,3.73-5.85,4.49-.8,8.98-1.63,13.47-2.45.29.26.58.52.87.78l-.03-.03c2.69,3.5,6.94,6.08,6.58,11.38-.01.21,1.08.5,1.65.76-.18.21-.29.45-.32.72-2.62,0-5.23-.02-7.85-.03-6.04-1.76-12.07-3.52-18.11-5.29Z"/>
      <path class="cls-15" d="M55.62,18.89c-.58-.25-1.67-.54-1.65-.76.36-5.3-3.9-7.88-6.58-11.38,7.7.36,14.35,2.57,17.96,10.16-1,.64-2,1.27-3.01,1.91l.07-.05c-2.26.04-4.53.08-6.79.11Z"/>
      <path class="cls-10" d="M29.35,14.29c6.04,1.76,12.07,3.52,18.11,5.29,0,.37-.02.73-.03,1.1-6.87-.85-13.8-1.49-19.58-5.93.5-.15,1-.3,1.5-.45Z"/>
      <path class="cls-10" d="M25.43,12.78l-2.07-1.04c.69.35,1.38.69,2.07,1.04Z"/>
      <path class="cls-15" d="M47.41,6.78c-.29-.26-.58-.52-.87-.78.29.26.58.52.87.78Z"/>
      <path class="cls-10" d="M23.44,11.79c-.36-.35-.71-.71-1.07-1.06.36.35.71.71,1.07,1.06Z"/>
      <path class="cls-10" d="M26.42,14.35c-.35-.54-.7-1.08-1.05-1.62.35.54.7,1.08,1.05,1.62Z"/>
      <path class="cls-15" d="M61.45,24.21c-2.17.14-4.33.28-6.5.42-.21-1.21-.41-2.43-.62-3.64.33-.12.67-.23,1-.35,2.36-.62,4.72-1.24,7.08-1.87,0,0-.07.05-.07.05,1.63-.02,3.26-.04,4.9-.06.72.96,1.44,1.93,2.16,2.89l-4.05,2.16s.04-.02.04-.02c-1.31.14-2.62.28-3.94.42Z"/>
      <path class="cls-1" d="M55.33,20.64c-.33.12-.67.23-1,.35-2.3-.1-4.6-.21-6.91-.31,0-.37.02-.73.03-1.1,2.62,0,5.23.02,7.85.03.01.34.02.69.03,1.03Z"/>
      <path class="cls-1" d="M66.45,64.09c-3.07.07-6.15.15-9.22.22l.18-1.41c3.33-.27,6.67-.54,10-.81-.02.53-.04,1.06-.07,1.58-.27.19-.57.33-.89.42Z"/>
      <path class="cls-12" d="M61.51,69.19c-.04-.45-.09-.89-.13-1.34,1.67-.39,3.34-.78,5.01-1.16h2.76c.04.35.09.71.13,1.06-2.59.48-5.18.96-7.76,1.44Z"/>
      <path class="cls-14" d="M51.44,76.55c-2.31-.01-4.62-.03-6.94-.04,2.29-.24,4.57-.48,6.86-.72,0,.25.03.51.08.76Z"/>
      <path class="cls-12" d="M61.95,76.8c-1.22,0-2.43,0-3.65,0,1.22,0,2.43,0,3.65,0Z"/>
      <path class="cls-9" d="M12.6,53.26c-1.44-1.06-2.88-2.12-4.32-3.18.2-3.28-.69-6.97,3.34-8.8.92.18,1.84.37,2.76.55l-.06-.07,4.1,2.07-.09-.06c.99.69,1.88,1.7,2.97,2.03,8.01,2.45,16.06,4.76,24.09,7.11-1.01,3.18-2.03,6.35-3.04,9.53-5.48-1.12-10.96-2.25-16.44-3.37-4.44-1.94-8.88-3.88-13.32-5.82Z"/>
      <path class="cls-10" d="M14.39,41.83c-.92-.18-1.84-.37-2.76-.55-.43-.48-.86-.96-1.29-1.43,1.12.13,2.24.26,3.36.39l.69,1.59Z"/>
      <path class="cls-10" d="M7.31,37.82c1.01.68,2.02,1.35,3.03,2.03-1.01-.68-2.02-1.35-3.03-2.03Z"/>
      <path class="cls-10" d="M6.31,36.8c.35.36.7.71,1.05,1.07-.35-.36-.7-.71-1.05-1.07Z"/>
      <path class="cls-15" d="M57.17,35.26c.06-.8.12-1.59.18-2.39,5.68-1.32,11.36-2.65,17.04-3.97,2.69,3.93,3.56,8.27,2.98,12.95-3.69.92-7.37,1.84-11.06,2.76-3.66,0-7.31-.01-10.97-.02.69-.4,1.37-.8,1.46-.85-.54-1.68-1.02-3.13-1.49-4.59.62-1.3,1.23-2.6,1.85-3.9Z"/>
      <path class="cls-10" d="M74.4,28.89c-5.68,1.32-11.36,2.65-17.04,3.97-.31-.12-.62-.25-.93-.37,0-.48,0-.96,0-1.45,5.34-1.22,10.67-2.44,16.01-3.65.66.13,1.31.26,1.97.4,0,.37,0,.74,0,1.11Z"/>
      <path class="cls-10" d="M74.34,27.83c.7-.35,1.39-.71,2.09-1.06-.7.35-1.39.71-2.09,1.06Z"/>
      <path class="cls-9" d="M14.39,41.83c-.23-.53-.46-1.06-.69-1.59,1.07-.9,2.13-1.81,3.2-2.71,2.71.91,5.42,1.82,8.13,2.73,1.97.71,3.95,1.41,5.92,2.12,3.15.77,6.29,1.54,9.44,2.31,1.99.39,3.98.79,5.96,1.18-.32,1.63-.65,3.25-.97,4.88-4.19-.84-8.42-1.49-12.55-2.57-4.88-1.28-9.66-2.92-14.49-4.4,0,0,.09.06.09.06-1.37-.69-2.73-1.38-4.1-2.07,0,0,.06.07.06.07Z"/>
      <path class="cls-15" d="M42.36,62.44c1.01-3.18,2.03-6.35,3.04-9.53l-.06-.45c4.43.28,8.86.81,13.29.75,2.94-.04,5.87-.92,8.81-1.43,0,0-.11.05-.11.05,1.75,0,3.5.01,5.24.02,0,0,.39-.05.39-.05.85-.18,1.69-.36,2.54-.55-.07.54-.14,1.08-.22,1.62-.3.56-.6,1.13-.9,1.69-.31,1.79-.63,3.58-.94,5.37v-.11c-.31.23-.63.47-.94.7-1.7.51-3.4,1.03-5.1,1.54-3.33.27-6.67.54-10,.81-3.02,0-6.03,0-9.05,0-2-.15-4-.3-6-.45Z"/>
      <path class="cls-8" d="M74.38,54.58c.3-.56.6-1.13.9-1.69-.3.56-.6,1.13-.9,1.69Z"/>
      <path class="cls-2" d="M65.35,23.81l4.05-2.16c.67.07,1.34.13,2.01.2-.24.59-.49,1.18-.73,1.77-1.78.06-3.55.13-5.33.19Z"/>
      <path class="cls-6" d="M72.96,51.81s-.39.05-.39.05c-1.75,0-3.5-.01-5.24-.02,0,0,.11-.05.11-.05-7.33-.12-14.65-.24-21.98-.36.01-.23-.01-.46-.08-.69.32-1.63.65-3.25.97-4.88.35-.09.7-.18,1.05-.26,6.31.03,12.63.06,18.94.09,3.7-.54,7.41-1.09,11.11-1.63.01,1.49.02,2.97.03,4.46-1.51,1.1-3.01,2.2-4.52,3.29Z"/>
      <path class="cls-1" d="M66.34,45.7c-6.31-.03-12.63-.06-18.94-.09.01-.33.02-.66.04-.99,2.64,0,5.28-.01,7.92-.02,3.66,0,7.31.01,10.97.02,0,.36.01.73.02,1.09Z"/>
      <path class="cls-4" d="M72.5,60.54c.32-.23.63-.47.95-.7-.32.23-.63.47-.95.7Z"/>
      <path class="cls-12" d="M57.17,35.26c-.62,1.3-1.23,2.6-1.85,3.9-.68-1.19-1.36-2.39-2.04-3.58,1.3-.1,2.59-.21,3.89-.31Z"/>
      <path class="cls-2" d="M61.45,24.21c1.31-.14,2.62-.28,3.94-.42-1.36.62-2.71,1.24-4.07,1.85.04-.48.09-.95.13-1.43Z"/>
      <path class="cls-9" d="M53.12,70.06c2.07-.07,4.14-.13,6.21-.2-1.99.63-3.98,1.26-5.96,1.9-.08-.57-.16-1.13-.24-1.7Z"/>
      <path class="cls-14" d="M53.12,70.06c.08.57.16,1.13.24,1.7-1.67.01-3.33.02-5,.04.1-.59.19-1.18.29-1.78,1.49.02,2.97.03,4.46.05Z"/>
      <path class="cls-3" d="M48.35,62.9c3.02,0,6.03,0,9.05,0l-.18,1.41c-2.99.09-5.98.18-8.98.27l.11-1.68Z"/>
      <path class="cls-10" d="M55.33,20.64c-.01-.34-.02-.69-.03-1.03.03-.27.14-.51.32-.72,2.26-.04,4.53-.08,6.79-.11-2.36.62-4.72,1.24-7.08,1.87Z"/>
      <path class="cls-10" d="M45.37,50.74c.07.22.09.45.08.69-.04.34-.08.69-.12,1.03,0,0,.06.45.06.45-8.04-2.35-16.08-4.66-24.09-7.11-1.1-.33-1.99-1.34-2.97-2.03,4.83,1.48,9.61,3.13,14.49,4.4,4.13,1.08,8.36,1.73,12.55,2.57Z"/>
      <path class="cls-12" d="M14.33,41.77c1.37.69,2.73,1.38,4.1,2.07-1.37-.69-2.73-1.38-4.1-2.07Z"/>
      <path class="cls-1" d="M45.34,52.46c.04-.34.08-.69.12-1.03,7.33.12,14.65.24,21.98.36-2.94.5-5.87,1.39-8.81,1.43-4.43.06-8.86-.47-13.29-.75Z"/>
      <path class="cls-1" d="M67.33,51.84c1.75,0,3.5.01,5.24.02-1.75,0-3.5-.01-5.24-.02Z"/>
    </g>
  </g>
</svg>