<?xml version="1.0" encoding="UTF-8"?>
<svg id="Layer_2" xmlns="http://www.w3.org/2000/svg" viewBox="0 0 125.66 125.52">
  <defs>
    <style>
      .cls-1 {
        fill: #82629a;
      }

      .cls-2 {
        fill: #190528;
      }

      .cls-3 {
        fill: #14061c;
      }

      .cls-4 {
        fill: #3d2655;
      }

      .cls-5 {
        fill: #65467f;
      }

      .cls-6 {
        fill: #241b1b;
      }

      .cls-7 {
        fill: #cacadf;
      }

      .cls-8 {
        fill: #aa91ba;
      }

      .cls-9 {
        fill: #9cc1cc;
      }

      .cls-10 {
        fill: #1a2939;
      }

      .cls-11 {
        fill: #2b1b41;
      }

      .cls-12 {
        fill: #1b1825;
      }

      .cls-13 {
        fill: #9c79a8;
      }

      .cls-14 {
        fill: #afbbd0;
      }
    </style>
  </defs>
  <g id="Layer_1-2" data-name="Layer_1">
    <g>
      <path class="cls-12" d="M69.61,0c26.94,2.35,50.16,23.8,54.97,50.77,6.24,35-15.22,67.43-50.14,73.68C34.43,131.61-1.63,102.04.06,60.08,1.34,28.15,24.34,3.86,55.66.05c.71.33,1.42.66,2.13.98,3.56,0,7.13-.01,10.69-.02.38-.34.75-.68,1.13-1.01ZM19.54,101.33c1.34,1.22,2.69,2.44,4.03,3.66,3.16,6.2,9.73,6.71,15.21,8.85,3.44,1.34,7.9.72,10.81,2.63,5.17,3.4,10.8,3.17,16.2,3.26,9,.15,17.54-2.27,25.67-6.59,9.22-4.9,16.49-11.89,21.55-20.61,5.85-10.1,8.49-21.21,7.81-33.29-.82-14.65-6.96-26.54-16.17-37.33-9.55-10.21-21.6-15.49-35.15-17.83-20.01-1.65-36.72,4.82-50.45,19.63C.05,44.23-1.09,79.28,19.54,101.33Z"/>
      <path class="cls-3" d="M69.61,0c-.38.34-.75.68-1.13,1.01-3.56,0-7.13.01-10.69.02-.71-.33-1.42-.66-2.13-.98,4.65-.02,9.3-.03,13.95-.05Z"/>
      <path class="cls-4" d="M69.5,4.09c13.55,2.33,25.6,7.61,35.15,17.83-.58,2.7-.45,5.87-1.88,8.01-3.44,5.16-2.14,11.02-3.33,16.48-.02.09.8.37,1.23.56,0,1.29-.02,2.57-.02,3.86-.68,2.54-1.71,5.06-1.97,7.64-.63,6.34-3.88,11.65-8.2,12.67-.28-.08-.56-.2-.82-.34-.44-.92-.89-1.85-1.52-3.16-.44,1.14-.66,1.73-.89,2.32-1.64,1.45-3.28,2.9-4.91,4.35-.28.8-.56,1.6-.84,2.4,1.07.39,2.13.77,3.2,1.16l.09-.11c-.53,1.88-.46,4.56-1.7,5.5-7.38,5.58-13.52,13.22-23.42,14.86-.37.06-.65.68-.98,1.04-.36.59-.72,1.18-1.09,1.77-.67.66-1.35,1.31-2.02,1.97-1.93-.32-3.88-.53-5.77-1.01-1.8-.46-3.53-1.21-5.29-1.83-1.07.38-2.14.77-3.21,1.15l.12.05c-4.21-1.13-4.07,2.2-4.8,4.66l-.02.02c-2.36-.67-4.72-1.33-7.08-2,0-.55,0-1.11-.01-1.66-.92-1.76-1.57-4.03-4.34-2.31-.52.66-1.04,1.32-1.55,1.98-.98-.33-1.95-.66-2.93-.98-.98-2.09-1.84-4.24-2.95-6.26-8.33-15.05-9.82-30.84-5.15-47.29.27-.96,1.17-1.75,1.78-2.62l1.4,1.11c2.3,1.59,3.08.75,2.83-1.76-.63-.12-1.27-.24-1.9-.36-.18.21-.41.28-.68.2-.48-.04-.96-.08-1.44-.12.71-3.3,1.03-6.85,5.11-7.98l.14.24-.18.21c1.33,2.27,2.65,2.14,3.97-.02-.65-1.19-1.29-2.38-1.94-3.57,1.18-1.57,2.36-3.15,3.53-4.72.47-.68.94-1.36,1.4-2.05,1.02-1.4,2.03-2.79,3.05-4.19,2.34.45,3.25-.49,2.75-2.81,2.16-1.21,4.37-2.34,6.46-3.65,8.51-5.33,17.47-9.26,27.75-9.5.97-.02,1.92-1.14,2.87-1.75ZM19.58,61.08c-1.34-.02-2.67-.05-4.01-.07-2.6,1.95-1.59,3.86.07,5.75,1.17.01,2.34.03,3.51.04.11-.59.22-1.17.32-1.76,0-1.36,0-2.71,0-4.07l.11.1ZM60.88,69.89l-.17-.13c.63,3.23,2.23,2.59,4.05,1,.24-.24.47-.49.71-.73.07-.69.14-1.38.21-2.06-1.51-2.04-3.14-1.59-4.82-.23,0,.72,0,1.44.01,2.15ZM35.68,36.9c-.03-.32-.05-.65-.08-.97-2.01-1.37-2.76-.43-2.92,1.59.63.18,1.25.36,1.88.54.38-.39.75-.77,1.13-1.16ZM28.71,75.06c-.69-.01-1.37-.02-2.06-.03.4.95.8,1.89,1.21,2.84.28-.93.57-1.87.85-2.8ZM44.56,77.05c.18,1.05.36,2.11.53,3.16.5-1.05,1.01-2.09,1.51-3.14-.68,0-1.37-.01-2.05-.02ZM27.63,45.93c-.67,0-1.35.01-2.02.02-.18,1.37-.36,2.73-.55,4.1,1.04.01,2.07.03,3.11.04-.18-1.39-.36-2.77-.54-4.16ZM74.63,32.93c1.72-3.35,1.87-6.33-2.13-8.14-3.21-1.45-7.28-.09-8.54,2.73-1.28,2.87.11,7.33,2.74,8.79,2.57,1.43,6.19-.11,7.94-3.39h0ZM38.66,51.95c-7.15-1-10.66,5.3-10.93,10.7-.24,4.73,5.76,10.21,10.95,10.19,5.63-.02,10.69-4.79,10.86-10.23.21-6.59-3.98-10.69-10.88-10.67ZM99.2,23.74c-3.31-2-2.12,4.24-5.18,2.48-1.03,2.42,3.42,5.51,5.66,3.8,3.07-2.34,1.37-4.49-.48-6.29ZM87.7,44.73c-1.57-1.14-2.71-2.5-3.36-2.3-1,.31-2.31,1.73-2.27,2.62.04.88,1.5,2.19,2.5,2.38.68.13,1.66-1.37,3.12-2.71ZM42.69,32.87c-1.19,1.32-2.46,2.14-2.39,2.81.09.81,1.22,1.79,2.11,2.1.44.15,1.88-1.01,1.91-1.62.04-.86-.81-1.76-1.63-3.29ZM26.72,85.05c.26-.68.52-1.36.78-2.04-1.3-.58-2.59-1.19-3.93-1.65-.07-.02-.59,1.29-.9,1.98,1.35.57,2.7,1.14,4.05,1.71ZM53.98,18.47c.7-1.39,1.6-2.35,1.42-3.03-.22-.85-1.33-1.47-2.05-2.19-.6.65-1.63,1.27-1.68,1.95-.05.66.92,1.4,2.31,3.27ZM47.24,21.29c.62-.54,1.25-1.08,1.87-1.62-1.39-.91-2.77-1.82-4.16-2.72-.18.12-.36.24-.54.37.94,1.33,1.89,2.65,2.83,3.98ZM37.77,27.79c-.69.88-1.47,1.44-1.48,2.01,0,.59.75,1.19,1.17,1.78.61-.56,1.47-1.02,1.72-1.71.14-.38-.74-1.13-1.41-2.07ZM58.83,87.92c-.93-.4-1.53-.89-1.92-.76-.47.16-.77.85-1.14,1.3.44.34.93,1,1.31.94.5-.08.91-.72,1.75-1.48ZM46.9,83.97c-.52.81-1.13,1.34-1.06,1.76.08.49.74.89,1.14,1.32.41-.42,1.13-.83,1.16-1.28.02-.46-.62-.96-1.24-1.8ZM48.02,45.29c-.81-.54-1.31-1.14-1.68-1.06-.49.1-.89.71-1.32,1.1.43.41.82,1.04,1.32,1.14.36.07.86-.57,1.68-1.18ZM70.45,15.38c.51.56.8.87,1.08,1.18.35-.39.84-.73,1-1.19.08-.22-.57-.98-.68-.94-.47.17-.85.55-1.4.95Z"/>
      <path class="cls-11" d="M29.55,103.94c2.36.67,4.72,1.33,7.08,2,.05.11.08.25.16.34.05.06.17.05.26.08-.13-.14-.27-.29-.4-.43.72-2.45.59-5.79,4.8-4.66-2.23,2.16-3.77,4.39-.75,7.1,3.69,2.56,4.79,2.27,5.88-1.54,0,0-.05.07-.05.07.06-.64.11-1.29.17-1.93-.72-1.15-1.43-2.29-2.15-3.44,0-.49-.02-.97-.02-1.46,1.76.62,3.49,1.37,5.29,1.83,1.89.48,3.84.68,5.77,1.01.06.46.11.92.17,1.37.09.28.02.5-.21.69-.12.1-.36.26-.35.29.12.24.29.46.44.68.99,0,1.97.02,2.96.03.69-.67,1.37-1.34,2.06-2.01.69-.68,1.38-1.35,2.07-2.03-.09-.69-.17-1.39-.26-2.08-1.26-.22-2.51-.45-3.77-.67.32-.36.6-.98.98-1.04,9.9-1.64,16.04-9.29,23.42-14.86,1.24-.94,1.17-3.62,1.7-5.5,1.31,1.46,2.62,2.93,3.59,4.01,2.43-2.36,4.99-4.84,7.31-7.1-1.54-1.05-3.37-2.29-5.2-3.54,4.32-1.02,7.58-6.33,8.2-12.67.26-2.59,1.29-5.1,1.97-7.64,1.81.93,3.64,1.21,3.94-1.38.36-3.07-1.98-2.63-3.92-2.48-.43-.19-1.25-.47-1.23-.56,1.19-5.45-.11-11.31,3.33-16.48,1.42-2.14,1.3-5.31,1.88-8.01,9.21,10.79,15.34,22.68,16.17,37.33.68,12.07-1.96,23.19-7.81,33.29-5.06,8.73-12.33,15.71-21.55,20.61-8.12,4.32-16.66,6.74-25.67,6.59-5.4-.09-11.03.14-16.2-3.26-2.91-1.91-7.37-1.29-10.81-2.63-5.48-2.14-12.05-2.65-15.21-8.85,0,0,.13-.13.13-.13,1.95-.31,3.9-.61,5.84-.92ZM52.24,112.99c-.14.63-.28,1.27-.42,1.9.6.35,1.21.69,1.81,1.04.45.2.91.4,1.36.6-.17-.23-.34-.46-.51-.69.24-1.02.48-2.03.72-3.05-.99.07-1.98.14-2.97.21ZM84.6,110.95c-.04-.93-.09-1.85-.13-2.78-1.47.01-2.93.02-4.4.03.01,1.06.03,2.13.04,3.19,1.5-.15,2.99-.3,4.49-.45ZM87,90.27c-1.42-1.07-2.27-2.21-3.07-2.18-.81.03-1.58,1.22-2.36,1.91.7.77,1.34,2.05,2.13,2.16.81.11,1.77-.95,3.3-1.89ZM117.7,71.97c-1.65-1.08-2.57-2.16-3.32-2.05-.84.12-1.53,1.32-2.29,2.05.7.61,1.37,1.69,2.09,1.72.86.04,1.77-.8,3.52-1.71ZM69.67,112.73c-.66,1.02-1.41,1.68-1.34,2.21.09.58.95,1.05,1.48,1.56.48-.54,1.31-1.07,1.33-1.62.02-.58-.76-1.18-1.47-2.16ZM97.49,97.07c-.12.57-.24,1.13-.35,1.7.87.2,1.75.51,2.62.51.21,0,.41-1.06.62-1.63-.96-.19-1.92-.38-2.88-.58ZM105.18,86.78c.43-.17.7-.28.97-.38-.14-.36-.29-.72-.43-1.08-.26.11-.73.19-.75.32-.04.36.12.74.21,1.14Z"/>
      <path class="cls-5" d="M25.21,28.03c-1.18,1.57-2.36,3.15-3.53,4.72-.66,1.05-1.33,2.09-1.99,3.14-4.08,1.14-4.4,4.69-5.11,7.98-.05.31-.11.63-.2.93-.61.87-1.51,1.65-1.78,2.62-4.67,16.45-3.18,32.24,5.15,47.29,1.11,2.01,1.98,4.17,2.95,6.26-.39.12-.78.24-1.17.36C-1.09,79.28.05,44.23,19.05,23.73,32.78,8.91,49.49,2.44,69.5,4.09c-.96.61-1.9,1.73-2.87,1.75-10.27.24-19.23,4.16-27.75,9.5-2.09,1.31-4.3,2.44-6.46,3.65-.92.94-1.83,1.88-2.75,2.81-1.02,1.4-2.03,2.79-3.05,4.19-.47.68-.94,1.36-1.4,2.05Z"/>
      <path class="cls-11" d="M57.79,1.03c3.56,0,7.13-.01,10.69-.02-3.56,0-7.13.01-10.69.02Z"/>
      <path class="cls-11" d="M19.54,101.33c.39-.12.78-.24,1.17-.36.98.33,1.95.66,2.93.98.02.97.04,1.94.07,2.91,0,0-.13.13-.13.13-1.34-1.22-2.69-2.44-4.03-3.66Z"/>
      <path class="cls-5" d="M38.66,51.95c6.9-.02,11.09,4.08,10.88,10.67-.17,5.44-5.24,10.21-10.86,10.23-5.19.02-11.19-5.46-10.95-10.19.27-5.4,3.78-11.71,10.93-10.7ZM46.09,60.49l-.08-1.76c-1.78-1.15-3.54-3.12-5.36-3.17-1.29-.04-3.46,2.35-3.79,3.95-.53,2.57,1.39,4.7,4.09,4.23,1.85-.32,3.44-2.11,5.14-3.24Z"/>
      <path class="cls-9" d="M90.48,71.13c1.83,1.24,3.66,2.49,5.2,3.54-2.32,2.25-4.88,4.74-7.31,7.1-.97-1.08-2.28-2.55-3.59-4.01l-.09.11c-1.07-.39-2.13-.77-3.2-1.16.28-.8.56-1.6.84-2.4,1.71-1.2,3.42-2.4,5.13-3.6.73.03,1.46.06,2.19.09.26.14.54.25.82.34Z"/>
      <path class="cls-11" d="M74.63,32.93c-1.75,3.28-5.37,4.82-7.94,3.39-2.63-1.46-4.02-5.92-2.74-8.79,1.26-2.82,5.33-4.18,8.54-2.73,4.01,1.8,3.85,4.79,2.13,8.14-.17-1.28.12-3.1-.61-3.73-1.58-1.35-3.68-2.08-5.56-3.07-.88,1.95-1.75,3.9-2.63,5.84,1.84.62,3.65,1.46,5.54,1.79,1.01.17,2.18-.53,3.27-.84Z"/>
      <path class="cls-7" d="M40.69,108.36c-3.02-2.71-1.48-4.94.75-7.1l-.12-.05,3.23.31c.72,1.15,1.43,2.29,2.15,3.44-.06.64-.11,1.29-.17,1.93,0,0,.05-.07.05-.07-1.96.51-3.92,1.03-5.88,1.54Z"/>
      <path class="cls-8" d="M99.2,23.74c1.85,1.8,3.55,3.95.48,6.29-2.24,1.71-6.7-1.39-5.66-3.8,3.06,1.76,1.87-4.48,5.18-2.48Z"/>
      <path class="cls-8" d="M19.47,65.05c-.11.59-.22,1.17-.32,1.76-1.17-.01-2.34-.03-3.51-.04-1.66-1.9-2.67-3.8-.07-5.75,1.34.02,2.67.05,4.01.07,0,0-.11-.1-.11-.1,0,1.36,0,2.71,0,4.07Z"/>
      <path class="cls-8" d="M27.63,45.93c.18,1.39.36,2.77.54,4.16-1.04-.01-2.07-.03-3.11-.04.18-1.37.36-2.73.55-4.1.67,0,1.35-.01,2.02-.02Z"/>
      <path class="cls-7" d="M62.71,101.91c-.69.68-1.38,1.35-2.07,2.03l-2.04-.08.06.1c-.36-1.01-.71-2.02-1.07-3.04.36-.59.72-1.18,1.09-1.77,1.26.22,2.51.45,3.77.67.09.69.17,1.39.26,2.08Z"/>
      <path class="cls-5" d="M87.7,44.73c-1.46,1.33-2.44,2.83-3.12,2.71-1.01-.19-2.47-1.5-2.5-2.38-.04-.9,1.27-2.31,2.27-2.62.64-.2,1.78,1.16,3.36,2.3Z"/>
      <path class="cls-7" d="M60.87,67.74c1.67-1.36,3.31-1.81,4.82.23-.07.69-.14,1.38-.21,2.06-.24.24-.47.49-.71.73-1.35-.33-2.7-.67-4.05-1l.17.13c0-.72,0-1.44-.01-2.15Z"/>
      <path class="cls-1" d="M100.68,46.96c1.94-.15,4.28-.6,3.92,2.48-.31,2.6-2.13,2.32-3.94,1.38,0-1.29.02-2.57.02-3.86Z"/>
      <path class="cls-8" d="M42.69,32.87c.82,1.53,1.67,2.43,1.63,3.29-.03.61-1.47,1.77-1.91,1.62-.89-.31-2.02-1.29-2.11-2.1-.07-.67,1.2-1.49,2.39-2.81Z"/>
      <path class="cls-13" d="M26.72,85.05c-1.35-.57-2.7-1.14-4.05-1.71.31-.69.83-2.01.9-1.98,1.34.46,2.63,1.07,3.93,1.65-.26.68-.52,1.36-.78,2.04Z"/>
      <path class="cls-7" d="M25.19,99.97c2.77-1.72,3.42.54,4.34,2.31-2.36.95-4.31,1.11-4.34-2.31Z"/>
      <path class="cls-6" d="M25.19,99.97c.04,3.42,1.98,3.26,4.34,2.31,0,.55,0,1.11.01,1.66-1.95.31-3.9.61-5.84.92-.02-.97-.04-1.94-.07-2.91.52-.66,1.04-1.32,1.55-1.98Z"/>
      <path class="cls-7" d="M19.69,35.89c.66-1.05,1.33-2.09,1.99-3.14.65,1.19,1.29,2.38,1.94,3.57-1.32,0-2.64.01-3.97.02,0,0,.18-.21.18-.21,0,0-.14-.24-.14-.24Z"/>
      <path class="cls-8" d="M53.98,18.47c-1.39-1.87-2.36-2.61-2.31-3.27.05-.69,1.08-1.3,1.68-1.95.72.72,1.83,1.34,2.05,2.19.18.69-.72,1.65-1.42,3.03Z"/>
      <path class="cls-8" d="M47.24,21.29c-.94-1.33-1.89-2.65-2.83-3.98.18-.12.36-.24.54-.37,1.39.91,2.77,1.82,4.16,2.72-.62.54-1.25,1.08-1.87,1.62Z"/>
      <path class="cls-14" d="M37.77,27.79c.67.94,1.55,1.7,1.41,2.07-.26.69-1.12,1.16-1.72,1.71-.42-.59-1.17-1.19-1.17-1.78,0-.57.79-1.13,1.48-2.01Z"/>
      <path class="cls-7" d="M46.6,77.07c-.5,1.05-1.01,2.09-1.51,3.14-.18-1.05-.36-2.11-.53-3.16.68,0,1.37.01,2.05.02Z"/>
      <path class="cls-10" d="M87.47,70.7c-1.71,1.2-3.42,2.4-5.13,3.6,1.64-1.45,3.28-2.9,4.91-4.35.09.24.16.49.22.74Z"/>
      <path class="cls-7" d="M28.71,75.06c-.28.93-.57,1.87-.85,2.8-.4-.95-.8-1.89-1.21-2.84.69.01,1.37.02,2.06.03Z"/>
      <path class="cls-14" d="M32.68,37.51c.16-2.02.91-2.96,2.92-1.59-.04.33-.01.65.08.97-.38.39-.75.77-1.13,1.16-.63-.18-1.25-.36-1.88-.54Z"/>
      <path class="cls-8" d="M18.6,44.16c.25,2.5-.53,3.35-2.83,1.76.08-.64.16-1.28.25-1.92.27.08.5.01.68-.2.63.12,1.27.24,1.9.36Z"/>
      <path class="cls-5" d="M58.83,87.92c-.85.76-1.26,1.4-1.75,1.48-.38.06-.87-.6-1.31-.94.37-.46.67-1.15,1.14-1.3.39-.13.99.36,1.92.76Z"/>
      <path class="cls-14" d="M29.67,21.8c.92-.94,1.83-1.88,2.75-2.81.5,2.32-.41,3.27-2.75,2.81Z"/>
      <path class="cls-8" d="M46.9,83.97c.61.84,1.26,1.34,1.24,1.8-.02.44-.74.85-1.16,1.28-.41-.44-1.07-.84-1.14-1.32-.06-.42.54-.94,1.06-1.76Z"/>
      <path class="cls-14" d="M48.02,45.29c-.82.61-1.32,1.25-1.68,1.18-.49-.1-.88-.73-1.32-1.14.44-.39.83-1,1.32-1.1.37-.07.87.52,1.68,1.06Z"/>
      <path class="cls-7" d="M87.47,70.7c-.06-.25-.13-.5-.22-.74.23-.59.46-1.19.89-2.32.63,1.31,1.08,2.24,1.52,3.16-.73-.03-1.46-.06-2.19-.09Z"/>
      <path class="cls-5" d="M70.45,15.38c.54-.4.93-.79,1.4-.95.12-.04.76.72.68.94-.16.46-.65.8-1,1.19-.28-.31-.57-.62-1.08-1.18Z"/>
      <path class="cls-2" d="M60.71,69.76c1.35.33,2.7.67,4.05,1-1.83,1.59-3.42,2.23-4.05-1Z"/>
      <path class="cls-2" d="M57.6,100.93c.36,1.01.71,2.02,1.07,3.04-.97.1-1.95.21-2.92.31-.06-.46-.11-.92-.17-1.37.67-.66,1.35-1.31,2.02-1.97Z"/>
      <path class="cls-2" d="M19.65,36.34c1.32,0,2.64-.01,3.97-.02-1.31,2.16-2.63,2.29-3.97.02Z"/>
      <path class="cls-11" d="M19.47,65.05c0-1.36,0-2.71,0-4.07,0,1.36,0,2.71,0,4.07Z"/>
      <path class="cls-11" d="M19.58,61.08c-1.34-.02-2.67-.05-4.01-.07,1.34.02,2.67.05,4.01.07Z"/>
      <path class="cls-14" d="M25.21,28.03c.47-.68.94-1.36,1.4-2.05-.47.68-.94,1.36-1.4,2.05Z"/>
      <path class="cls-2" d="M15.64,66.77c1.17.01,2.34.03,3.51.04-1.17-.01-2.34-.03-3.51-.04Z"/>
      <path class="cls-11" d="M81.5,76.7c1.07.39,2.13.77,3.2,1.16-1.07-.39-2.13-.77-3.2-1.16Z"/>
      <path class="cls-2" d="M44.54,101.52l-3.23-.31c1.07-.38,2.14-.77,3.21-1.15,0,.49.02.97.02,1.46Z"/>
      <path class="cls-2" d="M18.6,44.16c-.63-.12-1.27-.24-1.9-.36.63.12,1.27.24,1.9.36Z"/>
      <path class="cls-2" d="M16.02,43.99c-.08.64-.16,1.28-.25,1.92l-1.4-1.11c.09-.31.15-.62.2-.93.48.04.96.08,1.44.12Z"/>
      <path class="cls-2" d="M46.6,77.07c-.68,0-1.37-.01-2.05-.02.68,0,1.37.01,2.05.02Z"/>
      <path class="cls-2" d="M28.71,75.06c-.69-.01-1.37-.02-2.06-.03.69.01,1.37.02,2.06.03Z"/>
      <path class="cls-2" d="M27.63,45.93c-.67,0-1.35.01-2.02.02.67,0,1.35-.01,2.02-.02Z"/>
      <path class="cls-2" d="M32.68,37.51c.63.18,1.25.36,1.88.54-.63-.18-1.25-.36-1.88-.54Z"/>
      <path class="cls-2" d="M60.87,67.74c0,.72,0,1.44.01,2.15,0-.72,0-1.44-.01-2.15Z"/>
      <path class="cls-2" d="M65.48,70.03c.07-.69.14-1.38.21-2.06-.07.69-.14,1.38-.21,2.06Z"/>
      <path class="cls-2" d="M35.68,36.9c-.09-.32-.12-.64-.08-.97.03.32.05.65.08.97Z"/>
      <path class="cls-7" d="M84.6,110.95c-1.5.15-2.99.3-4.49.45-.01-1.06-.03-2.13-.04-3.19,1.47-.01,2.93-.02,4.4-.03.04.93.09,1.85.13,2.78Z"/>
      <path class="cls-8" d="M87,90.27c-1.53.94-2.49,1.99-3.3,1.89-.79-.11-1.43-1.39-2.13-2.16.78-.68,1.55-1.87,2.36-1.91.8-.03,1.65,1.11,3.07,2.18Z"/>
      <path class="cls-13" d="M117.7,71.97c-1.75.91-2.66,1.76-3.52,1.71-.72-.04-1.4-1.11-2.09-1.72.76-.73,1.45-1.92,2.29-2.05.75-.11,1.67.97,3.32,2.05Z"/>
      <path class="cls-7" d="M53.63,115.93c-.6-.35-1.21-.69-1.81-1.04.14-.63.28-1.27.42-1.9.99-.07,1.98-.14,2.97-.21-.24,1.02-.48,2.03-.72,3.05-.3-.1-.58-.07-.85.09Z"/>
      <path class="cls-14" d="M69.67,112.73c.71.98,1.49,1.58,1.47,2.16-.01.55-.85,1.08-1.33,1.62-.53-.52-1.39-.98-1.48-1.56-.08-.54.68-1.2,1.34-2.21Z"/>
      <path class="cls-13" d="M97.49,97.07c.96.19,1.92.38,2.88.58-.21.57-.41,1.63-.62,1.63-.87,0-1.75-.31-2.62-.51.12-.57.24-1.13.35-1.7Z"/>
      <path class="cls-12" d="M40.69,108.36c1.96-.51,3.92-1.03,5.88-1.54-1.09,3.81-2.19,4.1-5.88,1.54Z"/>
      <path class="cls-14" d="M55.74,104.27c.97-.1,1.95-.21,2.92-.31,0,0-.06-.1-.06-.1,0,.7-.01,1.4-.02,2.09-.99,0-1.97-.02-2.96-.03,0-.33-.04-.65-.09-.97.23-.18.3-.41.21-.69Z"/>
      <path class="cls-1" d="M105.18,86.78c-.09-.4-.24-.78-.21-1.14.01-.13.48-.22.75-.32.14.36.29.72.43,1.08-.27.11-.53.21-.97.38Z"/>
      <path class="cls-3" d="M84.6,110.95c-.04-.93-.09-1.85-.13-2.78.04.93.09,1.85.13,2.78Z"/>
      <path class="cls-3" d="M58.58,105.95c0-.7.01-1.4.02-2.09l2.04.08c-.69.67-1.37,1.34-2.06,2.01Z"/>
      <path class="cls-2" d="M53.63,115.93c.27-.16.55-.19.85-.09.17.23.34.46.51.69-.45-.2-.91-.4-1.36-.6Z"/>
      <path class="cls-12" d="M46.52,106.89c.06-.64.11-1.29.17-1.93-.06.64-.11,1.29-.17,1.93Z"/>
      <path class="cls-3" d="M62.71,101.91c-.09-.69-.17-1.39-.26-2.08.09.69.17,1.39.26,2.08Z"/>
      <path class="cls-2" d="M52.24,112.99c-.14.63-.28,1.27-.42,1.9.14-.63.28-1.27.42-1.9Z"/>
      <path class="cls-4" d="M36.64,105.92c.13.14.27.29.4.43-.09-.02-.21-.02-.26-.08-.08-.09-.11-.22-.16-.34l.02-.02Z"/>
      <path class="cls-2" d="M55.54,104.96c.05.32.08.65.09.97-.15-.22-.32-.44-.44-.68-.02-.03.23-.19.35-.29Z"/>
      <path class="cls-1" d="M46.09,60.49c-1.71,1.13-3.3,2.92-5.14,3.24-2.7.47-4.62-1.66-4.09-4.23.33-1.6,2.51-3.99,3.79-3.95,1.82.05,3.58,2.02,5.36,3.17l.08,1.76Z"/>
      <path class="cls-4" d="M74.63,32.93c-1.1.31-2.26,1.01-3.27.84-1.89-.33-3.7-1.16-5.54-1.79.88-1.95,1.75-3.9,2.63-5.84,1.89.99,3.99,1.72,5.56,3.07.73.63.44,2.45.61,3.73h0Z"/>
    </g>
  </g>
</svg>