<svg width="67" height="64" viewBox="0 0 67 64" fill="none" xmlns="http://www.w3.org/2000/svg">
<g clip-path="url(#clip0_27_311)">
<path d="M37.1509 59.1664C26.7026 60.7407 16.8527 53.98 14.5168 43.6319C14.4585 43.3773 14.2817 43.0525 14.0694 42.9424C8.68019 40.2291 5.14707 35.8811 3.45396 30.1979C1.24241 22.7622 2.99685 16.017 7.9886 10.193C10.7723 6.94753 14.5326 5.89958 18.7236 6.46883C20.7912 6.74749 22.8518 7.115 24.9057 7.48348C28.1598 8.06439 31.2091 7.50083 34.1182 5.99925C35.7922 5.13465 37.4813 4.28129 39.1839 3.47319C44.1111 1.15015 48.7277 1.81114 52.8671 5.2447C62.4534 13.1793 63.3225 25.3268 56.5896 34.639C56.2094 35.1685 55.8078 35.735 55.2888 36.1029C54.3485 36.7701 54.2376 37.6105 54.27 38.6862C54.6017 48.9082 47.2756 57.6405 37.1509 59.1664ZM53.9997 35.7012C55.1314 34.823 56.3573 33.1745 57.3661 31.2477C62.6527 21.1588 58.8884 10.6527 50.7393 5.15061C47.8174 3.17621 44.5759 2.63395 41.2319 3.93711C39.126 4.75819 37.0894 5.77151 35.0936 6.83275C31.5201 8.72396 27.7994 9.31354 23.8374 8.51424C22.2352 8.18631 20.6164 7.92839 19.0042 7.66949C14.9999 7.03859 11.4382 7.96909 8.72817 11.0752C5.11892 15.2138 3.42074 20.1204 3.75627 25.6214C4.10454 31.3433 6.78149 35.9273 11.0435 39.6397C11.9516 40.4292 13.0229 41.0458 13.9955 41.7244C14.1389 41.5544 14.1633 41.5372 14.168 41.523C14.1624 41.3955 14.1579 41.2747 14.1457 41.1482C13.7349 36.273 14.8823 31.7931 17.6876 27.788C18.2726 26.9578 18.7186 26.2361 18.235 25.2143C18.1153 24.9553 18.1462 24.6198 18.1415 24.3166C18.1135 21.417 19.5924 19.2916 21.7246 17.5617C25.0003 14.8978 28.8518 13.7822 33.0112 13.6877C36.1401 13.6119 39.1372 14.1907 41.797 15.9476C43.9712 17.3922 45.3542 19.3263 45.3839 22.0569C45.3877 22.3535 45.6734 22.7295 45.9392 22.9262C48.3176 24.6981 50.2639 26.8318 51.7181 29.4239C52.812 31.3675 53.5281 33.4485 53.9931 35.7022L53.9997 35.7012ZM43.1167 27.4943C46.3358 30.0118 48.3418 33.3589 48.8386 37.4986C49.3328 41.6658 48.2377 45.4558 45.5409 48.695C40.8398 54.3406 32.8187 55.7077 26.4909 51.8649C23.6234 50.1188 21.5485 47.6667 20.3939 44.5031C18.5788 39.5405 19.3131 34.8724 22.1754 30.6158C21.1112 29.6402 20.1184 28.735 19.1321 27.8289C15.1282 32.5802 13.6446 40.7773 17.3158 47.9478C21.1027 55.3508 29.3725 59.491 37.6031 57.9441C45.88 56.3903 52.0932 49.8367 53.0448 41.3341C53.8882 33.7797 50.0085 26.9307 45.2345 23.9499C44.5495 25.1057 43.8569 26.2559 43.1233 27.4933L43.1167 27.4943ZM30.1814 15.0423C29.5062 15.2242 28.4251 15.4465 27.377 15.7989C24.5362 16.7635 22.0263 18.2257 20.3114 20.805C18.7733 23.1215 18.9665 25.8614 20.8421 27.8841C21.9455 29.0766 23.3126 29.8651 24.8338 30.374C28.0466 31.4473 31.2913 31.4691 34.5706 30.6821C37.367 30.0077 39.9034 28.8589 41.9381 26.7924C43.5213 25.185 44.5532 23.3223 44.1196 20.9627C43.7223 18.8003 42.2486 17.4334 40.4202 16.4505C37.3283 14.7851 33.9965 14.5872 30.1738 15.0367L30.1814 15.0423ZM47.7174 39.7123C47.1081 39.702 46.5529 39.7377 46.0083 39.6637C43.4973 39.3095 40.9786 38.9497 38.4795 38.5396C35.4744 38.0431 32.6359 38.4806 29.89 39.8092C27.0866 41.1599 24.4432 42.8582 21.3829 43.6192C22.6535 48.3728 28.2961 53.6415 35.73 52.7741C43.4236 51.8814 47.8033 45.1696 47.724 39.7113L47.7174 39.7123ZM47.8059 38.6321C47.4343 34.2913 45.6827 30.9738 42.4437 28.4592C42.3136 28.3571 41.9315 28.4209 41.7603 28.541C36.2307 32.5276 30.2545 33.4338 23.8095 31.2023C23.4252 31.0706 23.2432 31.1181 23.0157 31.4492C21.8469 33.1635 21.0578 35.0237 20.7355 37.0708C20.4504 38.8692 20.4751 40.6619 20.98 42.5044C21.4213 42.3844 21.8328 42.3365 22.1869 42.1755C24.5367 41.0884 26.8951 40.0135 29.2086 38.8643C32.2631 37.341 35.4497 36.8379 38.8134 37.4295C40.4985 37.7248 42.181 38.0475 43.8714 38.2879C45.1269 38.465 46.4044 38.5173 47.7993 38.6331L47.8059 38.6321Z" fill="black"/>
<path d="M53.9997 35.7013C53.5338 33.4411 52.8187 31.3666 51.7247 29.423C50.2715 26.8375 48.3243 24.6973 45.9458 22.9253C45.6801 22.7287 45.3943 22.3527 45.3905 22.0561C45.3532 19.3199 43.9769 17.3847 41.8036 15.9468C39.1438 14.1898 36.1467 13.6111 33.0178 13.6868C28.8519 13.7824 25.007 14.897 21.7312 17.5609C19.599 19.2908 18.1211 21.4227 18.1481 24.3158C18.1529 24.619 18.122 24.9545 18.2417 25.2135C18.7318 26.2343 18.2793 26.9569 17.6942 27.7872C14.8899 31.7988 13.7349 36.2731 14.1524 41.1473C14.1645 41.2738 14.1691 41.3947 14.1746 41.5222C14.1776 41.542 14.1455 41.5535 14.0021 41.7235C13.0296 41.0449 11.9583 40.4283 11.0502 39.6388C6.78912 35.933 4.11119 31.3425 3.76291 25.6205C3.42739 20.1195 5.12557 15.2129 8.74044 11.0667C11.4438 7.96162 14.998 7.0255 19.0099 7.66202C20.6287 7.91994 22.2408 8.17884 23.8431 8.50677C27.806 9.31268 31.5267 8.7231 35.0993 6.82528C37.095 5.76404 39.1317 4.75072 41.2376 3.92965C44.5826 2.63309 47.824 3.17535 50.745 5.14314C58.8941 10.6452 62.6583 21.1514 57.3717 31.2402C56.3629 33.167 55.137 34.8156 54.0053 35.6937L53.9997 35.7013ZM10.2762 16.3749C10.5413 18.2397 12.2556 19.5436 14.1091 19.2937C15.9495 19.0458 17.2683 17.2956 17.0128 15.4496C16.7457 13.5716 15.0562 12.2978 13.1772 12.5582C11.285 12.8206 10.0102 14.5035 10.2772 16.3815L10.2762 16.3749ZM50.3643 10.4607C50.0877 8.56389 48.419 7.2937 46.542 7.56734C44.6177 7.84129 43.3468 9.5506 43.6396 11.4653C43.909 13.2687 45.6401 14.5498 47.4616 14.3115C49.302 14.0635 50.6274 12.3123 50.3587 10.4683L50.3643 10.4607Z" fill="#F4AD5A"/>
<path d="M43.1168 27.4944C43.8514 26.2637 44.543 25.1069 45.228 23.9511C50.0011 26.9253 53.8808 33.7742 53.0383 41.3353C52.0867 49.8379 45.8735 56.3914 37.5966 57.9452C29.366 59.4922 21.0952 55.3454 17.3093 47.949C13.6457 40.7841 15.1293 32.587 19.1256 27.83C20.1119 28.7362 21.1048 29.6414 22.1689 30.6169C19.3057 34.867 18.5713 39.5351 20.3874 44.5042C21.542 47.6678 23.6169 50.1199 26.4845 51.8661C32.8188 55.7078 40.84 54.3408 45.5344 48.6962C48.2312 45.457 49.3263 41.6669 48.8322 37.4998C48.3429 33.3656 46.336 30.012 43.1102 27.4954L43.1168 27.4944Z" fill="#FFE0B8"/>
<path d="M30.1815 15.0424C34.0042 14.593 37.3427 14.7898 40.4279 16.4562C42.2563 17.4392 43.7235 18.807 44.1274 20.9684C44.5599 23.3215 43.5291 25.1908 41.9458 26.7982C39.9046 28.8657 37.3757 30.0201 34.5784 30.6878C31.2925 31.4758 28.0477 31.454 24.8415 30.3797C23.3204 29.8709 21.9588 29.0748 20.8499 27.8898C18.9743 25.8672 18.7811 23.1272 20.3191 20.8107C22.0331 18.2249 24.5373 16.7703 27.3848 15.8046C28.4263 15.4532 29.513 15.2234 30.1891 15.0481L30.1815 15.0424Z" fill="#FFE0B8"/>
<path d="M47.806 38.6323C46.4111 38.5165 45.1337 38.4642 43.8781 38.2871C42.1821 38.0543 40.5052 37.724 38.8201 37.4287C35.4564 36.8372 32.2698 37.3402 29.2153 38.8635C26.8952 40.0137 24.5434 41.0876 22.1936 42.1747C21.8395 42.3357 21.429 42.3902 20.9867 42.5036C20.4828 40.6677 20.4647 38.8741 20.7423 37.07C21.0645 35.023 21.8536 33.1628 23.0225 31.4484C23.2555 31.1097 23.4375 31.0623 23.8162 31.2015C30.2546 33.434 36.2384 32.5334 41.767 28.5403C41.9382 28.4201 42.3203 28.3563 42.4504 28.4584C45.6894 30.973 47.4411 34.2905 47.8126 38.6313L47.806 38.6323Z" fill="#F4AD5A"/>
<path d="M10.2762 16.375C10.0092 14.497 11.285 12.8207 13.1762 12.5517C15.0552 12.2913 16.7447 13.5651 17.0118 15.4431C17.2739 17.2881 15.9551 19.0383 14.1081 19.2872C12.2546 19.5371 10.5403 18.2332 10.2752 16.3684L10.2762 16.375ZM13.9572 18.1415C15.1945 17.9702 16.0525 16.8425 15.8812 15.6053C15.7099 14.368 14.5802 13.4968 13.3532 13.6463C12.1196 13.7968 11.1942 15.0156 11.3843 16.2432C11.5669 17.4653 12.7124 18.3072 13.9562 18.1349L13.9572 18.1415Z" fill="black"/>
<path d="M50.3643 10.4607C50.633 12.3047 49.3076 14.0559 47.4673 14.3038C45.6467 14.5487 43.9147 13.261 43.6453 11.4576C43.3591 9.54196 44.6243 7.84024 46.5476 7.55969C48.4256 7.29265 50.0933 8.55624 50.3699 10.4531L50.3643 10.4607ZM44.7633 11.2568C44.9478 12.4921 46.0933 13.334 47.322 13.1504C48.5639 12.9649 49.4163 11.8449 49.2592 10.6123C49.1021 9.37963 47.8721 8.46936 46.6454 8.66611C45.4253 8.86188 44.5798 10.0282 44.7633 11.2568Z" fill="black"/>
</g>
<defs>
<clipPath id="clip0_27_311">
<rect width="58.6021" height="55.4429" fill="white" transform="translate(0 8.6582) rotate(-8.49618)"/>
</clipPath>
</defs>
</svg>
