<svg width="115" height="109" viewBox="0 0 115 109" fill="none" xmlns="http://www.w3.org/2000/svg">
<g clip-path="url(#clip0_27_266)">
<path d="M89.6776 18.2161C95.8392 12.4033 101.994 6.58348 108.169 0.791925C108.557 0.431279 109.05 0.120133 109.62 0.0423468C111.662 -0.233441 113.458 0.933355 114.669 3.40838C115.042 4.1721 115.007 5.03482 114.965 5.75611C114.944 6.16626 114.57 6.42083 114.289 6.67541C93.3957 25.8038 72.4956 44.918 51.5884 64.0323C48.2787 67.0589 44.9339 70.0572 41.6101 73.0626C41.427 73.1474 41.244 73.2252 41.0609 73.3101C40.9482 73.2959 40.8285 73.2889 40.7158 73.2747C40.5046 73.0414 40.2863 72.808 40.075 72.5747C42.1594 70.531 44.1804 68.4237 46.3352 66.4507C68.5592 46.1485 90.7973 25.8674 113.035 5.57933C113.225 5.40961 113.43 5.25404 113.599 5.06311C114.063 4.52567 113.909 3.83974 113.169 2.96994C111.859 1.43543 110.374 0.890926 109.437 1.76072C108.134 2.96287 106.944 4.29231 105.655 5.51568C100.839 10.098 96.0012 14.6521 91.1775 19.2273C86.2975 23.8591 81.4246 28.498 76.5376 33.1299C71.4041 37.988 66.2495 42.8249 61.116 47.683C56.3839 52.1663 51.6729 56.6709 46.9337 61.1471C44.3494 63.5868 41.7228 65.9911 39.1032 68.3954C38.5751 68.8763 37.9765 69.2864 37.4132 69.7248C37.1034 69.343 36.7935 68.9611 36.4907 68.5793C40.1947 65.1001 43.9058 61.6351 47.5957 58.1488C55.229 50.943 62.8483 43.723 70.4746 36.503C71.4675 35.5625 72.4604 34.629 73.4532 33.6885C75.4038 31.8216 77.3474 29.9548 79.298 28.0879C79.4951 28.0101 79.7416 27.9747 79.8824 27.8404C83.0865 24.7996 86.2764 21.7518 89.4664 18.6899C89.579 18.5767 89.6001 18.3717 89.6706 18.209L89.6776 18.2161Z" fill="#C83736"/>
<path d="M29.5475 71.9524C29.5616 71.8251 29.5687 71.7049 29.5828 71.5776C29.8081 71.6625 30.0405 71.7544 30.5193 71.9383C27.8434 68.9753 25.414 66.2811 22.8789 63.4666C22.9634 63.8485 23.0057 64.0606 23.055 64.2799C22.6888 63.8556 22.3226 63.4313 21.9635 63.007C22.1959 62.7736 22.4283 62.5403 22.6606 62.3069C23.6254 62.3776 24.6042 62.4625 25.5619 62.4978C25.7309 62.4978 25.8224 62.3069 25.9492 62.2079C26.1393 62.1796 26.3365 62.1513 26.5266 62.123C29.1884 64.9375 31.8573 67.759 34.6458 70.7078C35.0895 70.4038 35.6669 70.0078 36.2584 69.5976L40.3145 74.0951L38.6878 75.5801C41.0609 78.2036 43.258 80.6786 45.5043 83.1112C46.1944 83.8608 46.5395 84.476 46.2578 85.1125C46.0465 86.0459 45.8282 86.9793 45.5536 88.1886C42.9552 85.1337 40.7018 82.4889 38.3921 79.7735C37.9696 80.0776 37.6738 80.2402 37.4344 80.4594C35.181 82.496 32.9135 84.5185 30.7024 86.6046C30.0686 87.2056 29.4701 87.0713 28.5546 85.9964C27.4561 84.7094 26.2872 83.479 25.1464 82.2273C26.5618 81.2585 27.2871 79.4058 29.4771 79.4129C30.1531 79.8937 30.8292 80.3816 31.5052 80.8625C31.8361 81.11 32.1671 81.3504 32.4981 81.5979C32.491 81.6333 32.4699 81.6687 32.4769 81.7182C32.4769 81.7464 32.5122 81.7818 32.5333 81.8172C32.5192 81.7464 32.5051 81.6757 32.4981 81.5979C33.2656 81.3858 34.0966 81.2656 34.7796 80.9332C35.3078 80.6716 36.3922 80.7494 35.5894 79.3492C35.2233 76.9308 37.6104 76.7186 37.8499 74.7881L35.5683 72.2565C34.7022 73.0485 33.8219 73.7062 33.1177 74.5406C32.7023 75.0356 32.4629 75.6155 31.4277 75.1629C30.6038 74.8022 29.7799 74.583 29.0335 74.3214C29.2447 73.4021 29.4067 72.6737 29.5757 71.9454L29.5475 71.9524Z" fill="#3D3D3D"/>
<path d="M25.1394 82.2414C26.2801 83.4931 27.442 84.7306 28.5476 86.0105C29.4701 87.0854 30.0616 87.2127 30.6954 86.6187C32.9065 84.5326 35.174 82.5101 37.4273 80.4735C37.6738 80.2543 37.9625 80.0846 38.385 79.7876C40.6947 82.5031 42.9411 85.1407 45.5466 88.2027C45.8212 86.9935 46.0395 86.06 46.2507 85.1266C46.4197 85.2185 46.5817 85.3034 46.7507 85.3953C46.8211 85.4731 46.9056 85.5297 46.9901 85.5509C46.8986 86.3853 46.8141 87.2127 46.7225 88.0471C46.6944 88.4926 46.6592 88.9452 46.631 89.3907C45.955 89.8503 45.4691 88.9664 44.9621 88.4077C42.8284 86.0529 40.7018 83.684 38.4695 81.216L30.1813 88.7543C29.7165 88.3653 29.3363 88.0471 28.8786 87.6652C28.5969 87.8632 28.3011 88.0188 28.0617 88.238C24.4211 91.5333 20.8016 94.8499 17.1539 98.1381C16.5835 98.6543 16.2385 99.2554 16.1681 100.224C16.0977 101.228 15.5906 102.07 15.0484 102.763C13.6049 104.609 12.1049 106.398 10.5135 108.102C9.16851 109.544 7.38693 109.262 5.04904 107.204C2.83087 105.252 1.05633 103.003 0.204268 100.33C-0.105573 99.3615 -0.0774052 98.6897 0.464815 98.2583C1.68305 97.2825 2.91537 96.3137 4.14065 95.3449C4.27444 95.253 4.40824 95.161 4.54203 95.0691C5.87293 93.7821 7.30947 92.6365 9.33047 92.2405C9.66848 92.1698 9.89381 91.8798 10.1403 91.6606C11.7529 90.1898 13.3513 88.7047 14.9569 87.2268L16.6117 86.7813C15.8934 87.7572 15.1681 88.7401 14.4499 89.716C14.2668 89.723 14.0133 89.6594 13.9077 89.7584C13.0345 90.5151 12.1542 91.2646 11.3515 92.1061C11.1895 92.2759 11.3656 92.7991 11.3867 93.1598C11.0416 93.2871 10.6895 93.4144 10.3445 93.5417C9.88677 93.5841 9.37272 93.5275 8.99246 93.6831C8.15448 94.0296 7.30947 94.3761 6.61233 94.9135C4.9082 96.2217 3.29563 97.629 1.64784 99.0079C1.62672 99.0291 1.66192 99.114 1.66897 99.1706C1.07745 100.026 1.62672 101.094 3.49984 102.388C3.20408 101.822 2.99283 101.483 2.85199 101.151C2.71116 100.811 2.64778 100.465 2.54919 100.125L4.02798 101.766C4.4364 101.03 4.79554 100.38 5.20396 99.6514C5.45747 99.8636 5.77435 100.139 6.25319 100.557C6.84471 100.019 7.43622 99.4251 8.08407 98.9018C9.19667 98.0108 10.3093 97.1128 11.4923 96.3066C11.9993 95.9601 11.8233 95.4368 11.4641 94.7721C11.5909 94.6448 11.7176 94.5175 11.8444 94.3902C12.0627 94.4822 12.3021 94.6448 12.4922 94.6589C14.4992 94.8569 14.5625 94.9065 15.3512 97.1128C15.4005 97.2471 15.5977 97.4027 15.8512 97.6785C19.4566 94.3973 23.0409 91.1373 26.7801 87.736C25.8435 86.4631 24.907 85.1973 23.9704 83.9315C24.1113 83.5921 24.2028 83.2102 24.4 82.9203C24.5831 82.6516 24.8859 82.4889 25.1323 82.2768L25.1394 82.2414ZM8.23899 104.821C8.21786 105.019 8.19674 105.224 8.16857 105.422C6.82358 105.323 7.71085 106.44 7.99956 107.225L8.53474 107.819C8.68966 107.918 8.95021 108.13 8.97838 108.102C9.96423 107.076 10.9853 106.079 11.8937 104.969C12.9993 103.626 13.9781 102.155 15.0696 100.797C15.6047 100.132 15.4569 99.2908 14.2879 98.0886C13.0133 100.047 10.422 100.564 9.20372 102.855C9.09809 102.827 8.73896 102.742 8.40095 102.664C8.34461 103.046 8.29532 103.364 8.24603 103.689C7.96436 103.937 7.64747 104.17 8.24603 104.821H8.23899ZM6.46445 102.013C6.12644 101.78 5.60535 101.299 5.49268 101.363C5.02087 101.617 4.59836 101.971 4.33078 102.438C4.22515 102.614 4.57724 103.194 4.71808 103.583C5.07721 103.93 5.43634 104.276 5.87293 104.693C6.23911 104.361 6.49966 104.043 6.84471 103.824C7.51368 103.399 7.35876 102.812 6.46445 102.006V102.013ZM6.47853 101.144C7.43622 102.233 7.40805 102.155 8.10519 101.554C9.87973 100.019 11.7388 98.5766 13.5415 97.0774C13.9217 96.7592 14.2105 96.3349 14.5414 95.953C14.4217 95.8257 14.302 95.6985 14.1823 95.5782C10.9994 96.6814 9.03471 99.2837 6.47149 101.151L6.47853 101.144ZM5.89406 106.235C4.52795 105.203 4.17586 103.145 2.30977 102.473C2.91537 104.064 4.66174 106.002 5.89406 106.235Z" fill="#1A1A1B"/>
<path d="M35.5683 79.3562C36.3711 80.7635 35.2937 80.6857 34.7585 80.9403C34.0754 81.2726 33.2445 81.3928 32.4769 81.605C32.146 81.3575 31.815 81.117 31.484 80.8695C31.0545 79.6532 30.2447 79.5613 29.456 79.4199C29.0194 78.9249 28.5828 78.437 28.1533 77.9419C27.9561 77.7298 27.6181 77.3197 27.5829 77.3409C27.0125 77.5954 26.4773 77.9066 25.9421 78.2036C25.4562 77.5459 25.0337 77.3267 24.6535 77.7439C24.4633 77.9561 24.2239 78.1187 24.0056 78.3026C22.7874 78.3026 22.4846 79.2007 22.4001 80.3109L22.1114 79.9998C21.9072 79.7452 21.6959 79.4835 21.5128 79.2572C24.2098 76.8034 26.8787 74.3779 29.5405 71.9524C29.3715 72.6808 29.2095 73.4162 28.9983 74.3284C29.7447 74.583 30.5686 74.8093 31.3925 75.1699C32.4276 75.6225 32.66 75.0426 33.0825 74.5476C33.7867 73.7132 34.6669 73.0555 35.5331 72.2635L37.8146 74.7951C37.5752 76.7256 35.188 76.9378 35.5542 79.3633C35.3852 79.1653 35.2162 78.9602 35.0472 78.7622C34.843 78.7764 34.6388 78.7976 34.4346 78.8117L32.5966 80.4806C32.6882 80.5867 32.7868 80.6857 32.8783 80.7918C33.6036 80.6008 34.3641 80.4665 35.0331 80.1836C35.3148 80.0634 35.3852 79.6391 35.5542 79.3492L35.5683 79.3562ZM33.8642 77.1499C34.0613 77.2843 34.2585 77.4257 34.4486 77.5601C34.4627 77.4894 34.4839 77.4257 34.4979 77.355C34.2796 77.2065 34.0543 77.0509 33.836 76.9024C33.6459 76.8034 33.4628 76.6974 33.2727 76.5984C33.2656 76.662 33.2515 76.7256 33.2445 76.7893C33.4487 76.9095 33.6529 77.0297 33.8571 77.1429L33.8642 77.1499ZM32.0192 77.8429C32.4981 78.2036 32.9769 78.5713 33.4628 78.932C33.505 78.7976 33.5473 78.6703 33.5895 78.536C33.0544 78.2036 32.5121 77.8712 31.977 77.5459C31.8925 77.5459 31.808 77.5389 31.7235 77.5318C31.822 77.6308 31.9277 77.7369 32.0263 77.8359L32.0192 77.8429ZM27.6462 75.474C28.4701 76.0751 29.294 76.6762 30.4771 77.5389C30.8996 77.2702 31.5967 76.8247 32.4488 76.2801C30.8362 75.6579 29.5405 75.1063 28.273 74.7032C27.8857 74.583 27.5547 74.8658 27.2026 74.9649C26.9914 75.1982 26.7801 75.4316 26.5618 75.6649L26.9139 76.0185C27.1604 75.8346 27.3998 75.6508 27.6462 75.4669V75.474ZM36.8006 74.8022C35.5965 73.3667 35.3782 73.2818 34.8852 74.0102C34.4839 74.6042 34.0895 75.1911 33.6529 75.8417C34.0543 76.2024 34.4768 76.5842 34.8782 76.9519C35.5331 76.2165 36.1387 75.5447 36.8006 74.8093V74.8022ZM32.2305 79.8795C32.2938 79.7735 32.3572 79.6745 32.4206 79.5684C31.8291 79.1936 31.2446 78.8188 30.6531 78.444C30.632 78.5501 30.6038 78.6632 30.5827 78.7693C31.1319 79.137 31.6812 79.5118 32.2234 79.8795H32.2305Z" fill="#141414"/>
<path d="M46.6239 89.3765C46.652 88.931 46.6872 88.4784 46.7154 88.0329C47.328 88.6623 47.9477 89.2846 48.5533 89.921C50.2856 91.7313 52.0249 93.5416 53.7361 95.3731C54.3628 96.0449 54.9332 96.2783 55.3205 95.9106C55.7149 95.5358 55.7641 94.9347 55.0248 94.1568C54.7431 93.8598 54.4755 93.5558 54.2009 93.2517C51.7996 90.6777 49.3913 88.1036 46.983 85.5296C46.8985 85.5013 46.814 85.4518 46.7436 85.3741C47.0041 85.1831 47.2647 84.9851 47.5252 84.7942C50.3279 87.7359 53.1516 90.6423 55.905 93.6265C56.8697 94.6731 57.2711 95.8611 57.0106 96.8864C56.743 97.9613 55.5881 97.6007 54.6515 97.5017C54.3135 97.4663 53.7361 96.8582 53.3347 96.4409C51.0813 94.1003 48.8491 91.7313 46.6168 89.3765H46.6239Z" fill="#C83736"/>
<path d="M22.6606 62.3069C22.4283 62.5403 22.1959 62.7737 21.9635 63.007C20.02 60.7583 18.0623 58.5308 16.154 56.2537C15.6188 55.6173 15.1681 54.8536 14.8513 54.1394C14.3302 52.9584 14.3161 52.025 15.3301 51.7209C16.6892 51.3108 17.6398 51.5653 18.8933 52.9513C21.5762 55.9002 24.2169 58.8914 26.8787 61.8614C26.759 61.9534 26.6393 62.0382 26.5196 62.1301C26.3294 62.1584 26.1323 62.1867 25.9421 62.215C24.6253 60.7583 23.3085 59.3015 21.9917 57.8448C20.8086 56.5366 19.6608 55.193 18.4355 53.9414C18.0482 53.5454 17.3159 53.1564 16.9638 53.1989C16.6328 53.2413 16.5272 53.8211 16.4427 54.2384C16.3019 54.8889 16.8159 55.4971 17.3863 56.1547C19.1679 58.1843 20.9072 60.2562 22.6606 62.3069Z" fill="#C83736"/>
<path d="M26.5265 62.13C26.6462 62.0381 26.7659 61.9533 26.8856 61.8613C27.4208 62.3139 28.0123 62.724 28.4912 63.2403C30.4488 65.3617 32.3712 67.5185 34.3781 69.746C35.0682 69.3713 35.7865 68.9823 36.4977 68.5934C36.8076 68.9752 37.1174 69.3571 37.4202 69.739C38.061 70.5663 38.7018 71.3937 39.3496 72.2211L39.4553 72.3554L39.5961 72.4049C39.7581 72.4686 39.9271 72.5322 40.089 72.5959C40.3003 72.8292 40.5186 73.0626 40.7298 73.2889L40.6524 73.3666L40.7298 73.2959C40.8425 73.3101 40.9622 73.3171 41.0749 73.3313C41.1946 73.4303 41.3143 73.5293 41.434 73.6212C41.0045 74.3849 40.5679 75.1487 40.0538 76.0609C41.9481 78.1611 44.0325 80.4381 46.0675 82.7505C46.6238 83.3799 47.0534 84.1224 47.5393 84.8154C47.2787 85.0063 47.0182 85.2043 46.7576 85.3953C46.5886 85.3033 46.4267 85.2185 46.2577 85.1265C46.5464 84.4901 46.1943 83.8749 45.5042 83.1253C43.2579 80.6927 41.0608 78.2177 38.6877 75.5942L40.3144 74.1092L36.2583 69.6117C35.6668 70.0148 35.0893 70.4108 34.6457 70.7219C31.8572 67.7731 29.1953 64.9586 26.5265 62.1371V62.13Z" fill="#141414"/>
<path d="M22.1184 79.9998L22.4071 80.3109C22.6677 80.6008 22.9282 80.8908 23.1888 81.1878C22.8296 81.4777 22.4423 81.7323 22.1254 82.0717C21.5128 82.7294 20.9424 83.4294 20.3509 84.1083C19.6045 84.6669 18.858 85.2256 18.1116 85.7842C17.844 85.4943 17.5764 85.2044 17.3088 84.9215C18.9144 83.288 20.5129 81.6474 22.1184 80.0139V79.9998Z" fill="#1A1A1B"/>
<path d="M89.6777 18.2161C89.6143 18.3787 89.5932 18.5909 89.4734 18.6969C86.2835 21.7518 83.0936 24.8067 79.8895 27.8474C79.7416 27.9818 79.5022 28.0172 79.3051 28.0949C82.7626 24.7996 86.2201 21.5114 89.6777 18.2161Z" fill="#FAA9A7"/>
<path d="M23.0619 64.2798C23.0126 64.0606 22.9704 63.8484 22.8859 63.4666C25.4209 66.2739 27.8503 68.9752 30.5262 71.9382C30.0404 71.7543 29.815 71.6695 29.5897 71.5776C27.4138 69.145 25.2378 66.7124 23.0619 64.2798Z" fill="#141414"/>
<path d="M17.3088 84.9075C17.5763 85.1974 17.8439 85.4873 18.1115 85.7702C18.0341 85.8338 17.9636 85.8975 17.8862 85.9682C17.7524 85.9541 17.6116 85.947 17.4778 85.9328C17.189 86.2086 16.9003 86.4773 16.6116 86.7531C16.0624 86.9016 15.506 87.0501 14.9568 87.1986C15.7455 86.4349 16.5271 85.6712 17.3158 84.9075H17.3088Z" fill="#292929"/>
<path d="M41.4341 73.6143C41.3144 73.5153 41.1947 73.4163 41.075 73.3244C41.258 73.2396 41.4411 73.1618 41.6242 73.0769C41.5608 73.2608 41.4975 73.4376 41.4341 73.6214V73.6143Z" fill="#D39D5C"/>
<path d="M39.3497 72.214C38.7089 71.3866 38.0681 70.5593 37.4203 69.7319C37.9836 69.2935 38.5822 68.8833 39.1103 68.4025C41.7299 65.9982 44.3494 63.5938 46.9408 61.1542C51.68 56.6779 56.391 52.1734 61.1231 47.6901C66.2566 42.8319 71.4112 37.995 76.5447 33.1369C81.4317 28.5122 86.3046 23.8662 91.1846 19.2344C96.0083 14.6591 100.846 10.1051 105.663 5.52274C106.951 4.29937 108.141 2.96993 109.444 1.76778C110.381 0.905053 111.866 1.44249 113.176 2.977C113.916 3.84679 114.071 4.5398 113.606 5.07016C113.437 5.26109 113.233 5.41667 113.042 5.58638C90.8043 25.8745 68.5592 46.1555 46.3423 66.4578C44.1875 68.4237 42.1665 70.538 40.0821 72.5817C39.9201 72.5181 39.7511 72.4544 39.5892 72.3908C39.5117 72.3271 39.4272 72.2706 39.3497 72.2069V72.214Z" fill="#FAA9A7"/>
<path d="M40.7299 73.2891L40.6454 73.3598L40.7228 73.282L40.7299 73.2891Z" fill="#515151"/>
<path d="M22.6606 62.3069C20.9072 60.2562 19.1679 58.1843 17.3863 56.1547C16.8159 55.5042 16.3089 54.896 16.4427 54.2384C16.5272 53.8211 16.6328 53.2413 16.9638 53.1989C17.3159 53.1494 18.0412 53.5383 18.4355 53.9414C19.6678 55.193 20.8157 56.5366 21.9916 57.8448C23.3085 59.3015 24.6253 60.7583 25.9421 62.215C25.8153 62.314 25.7238 62.512 25.5548 62.5049C24.5971 62.4696 23.6253 62.3776 22.6536 62.314L22.6606 62.3069Z" fill="#FAA9A7"/>
<path d="M28.1603 77.9419C28.5969 78.4369 29.0335 78.9248 29.463 79.4198C27.273 79.4198 26.5547 81.2655 25.1323 82.2343C24.8858 82.4464 24.5901 82.6091 24.4 82.8778C24.2028 83.1607 24.1042 83.5425 23.9704 83.889C23.2592 84.2355 22.4001 84.4194 21.8649 84.9568C20.7312 86.0812 19.7664 87.3753 18.7454 88.6128C17.6398 89.9422 16.5413 91.2787 15.4428 92.6152C15.0766 93.0607 14.6752 93.4214 13.7809 92.7355C14.8019 91.3848 15.6751 89.8786 16.8722 88.7047C19.4777 86.1448 22.2592 83.7829 24.9281 81.2938C26.0618 80.2401 27.0899 79.0663 28.1603 77.9419Z" fill="#292929"/>
<path d="M29.463 79.4199C30.2517 79.5684 31.0545 79.6533 31.4911 80.8696C30.815 80.3887 30.139 79.9008 29.463 79.4199Z" fill="#292929"/>
<path d="M32.4839 81.605C32.498 81.6757 32.5121 81.7464 32.5191 81.8242C32.498 81.7888 32.4628 81.7535 32.4628 81.7252C32.4628 81.6828 32.4769 81.6474 32.4839 81.605Z" fill="#292929"/>
<path d="M13.7809 92.7285C14.6752 93.4145 15.0766 93.0538 15.4427 92.6083C16.5413 91.2718 17.6398 89.9353 18.7453 88.6058C19.7735 87.3754 20.7382 86.0742 21.8649 84.9499C22.4001 84.4195 23.2592 84.2286 23.9704 83.8821C24.9069 85.1479 25.8435 86.4137 26.7801 87.6865C23.0409 91.0879 19.4566 94.355 15.8512 97.6291C15.5977 97.3462 15.3934 97.1977 15.3512 97.0633C14.5625 94.857 14.4991 94.8075 12.4922 94.6095C12.3021 94.5883 12.0627 94.4327 11.8444 94.3408C12.4922 93.8034 13.133 93.266 13.7809 92.7285Z" fill="#3D3D3D"/>
<path d="M13.7809 92.7285C13.133 93.2659 12.4922 93.8034 11.8444 94.3408C11.7176 94.4681 11.5909 94.5954 11.4641 94.7227C11.0416 94.7297 10.4924 94.5883 10.2107 94.7792C8.35869 96.0026 6.57007 97.3038 4.75328 98.5696C4.48569 98.7605 4.18993 98.909 3.90122 99.0858C3.77446 98.9231 3.64067 98.7605 3.51392 98.5978C3.83784 98.3008 4.14064 97.9755 4.49977 97.7139C6.43627 96.3067 8.3939 94.9065 10.3374 93.5134C10.6825 93.3862 11.0346 93.2589 11.3796 93.1316C12.9922 92.5871 14.1612 91.5971 14.4428 89.6948C15.1611 88.719 15.8864 87.736 16.6047 86.7602C16.8934 86.4844 17.1821 86.2157 17.4708 85.9399C17.5764 85.9964 17.6821 86.0742 17.7736 86.1662C17.7877 86.449 17.8018 86.7389 17.8299 87.2481C18.7454 86.4137 19.5763 85.6994 20.3439 84.9216C20.4777 84.7872 20.3439 84.3841 20.3439 84.1084C20.9354 83.4295 21.5058 82.7294 22.1184 82.0718C22.4353 81.7394 22.8226 81.4848 23.1817 81.1878C23.4423 80.9615 23.6958 80.7353 23.9563 80.516L24.4633 79.5614C24.5901 79.4482 24.7098 79.328 24.8366 79.2149C25.2027 78.8754 25.5689 78.5431 25.9421 78.2037C26.4843 77.9067 27.0125 77.5955 27.5829 77.3409C27.6251 77.3268 27.9561 77.7299 28.1533 77.942C27.0759 79.0593 26.0548 80.2332 24.9211 81.2939C22.2522 83.7831 19.4707 86.1449 16.8652 88.7048C15.6751 89.8716 14.7949 91.3779 13.7739 92.7356L13.7809 92.7285Z" fill="#515151"/>
<path d="M10.3374 93.5063C8.3868 94.9065 6.43622 96.2996 4.49972 97.7068C4.14058 97.9684 3.84483 98.2937 3.51386 98.5907C3.64062 98.7534 3.77441 98.916 3.90116 99.0787C4.18284 98.9089 4.47859 98.7534 4.75322 98.5624C6.57001 97.2966 8.35864 95.9955 10.2106 94.7721C10.4923 94.5812 11.0416 94.7297 11.4641 94.7156C11.8162 95.3803 11.9993 95.9036 11.4922 96.2501C10.3092 97.0562 9.19661 97.9472 8.08401 98.8453C7.43616 99.3686 6.84465 99.9555 6.25313 100.5C5.76725 100.083 5.45036 99.8141 5.2039 99.5949C4.80252 100.323 4.43634 100.981 4.02792 101.709L2.54913 100.069C2.25338 99.7504 1.96466 99.4322 1.66891 99.114C1.66186 99.0574 1.62665 98.9726 1.64778 98.9514C3.29557 97.5795 4.90814 96.1652 6.61227 94.857C7.30236 94.3266 8.15442 93.973 8.9924 93.6265C9.36562 93.471 9.88671 93.5275 10.3444 93.4851L10.3374 93.5063Z" fill="#3D3D3D"/>
<path d="M8.00655 107.218C7.71784 106.433 6.83057 105.323 8.17556 105.415C8.66848 105.896 8.98537 106.85 9.89376 106.631C9.64026 106.122 9.41492 105.655 9.13325 105.089C9.78813 105.096 10.3726 105.111 11.1683 105.125C10.0487 103.824 9.37267 103.781 8.76707 104.227C8.59102 104.043 8.41498 103.866 8.24598 103.682C8.29527 103.357 8.34456 103.039 8.4009 102.657C8.73186 102.735 9.09099 102.827 9.20366 102.848C10.4289 100.557 13.0133 100.04 14.2879 98.0815C15.4568 99.2837 15.6047 100.125 15.0695 100.79C13.978 102.148 12.9992 103.619 11.8936 104.962C10.9852 106.072 9.97122 107.069 8.97832 108.095C8.95016 108.123 8.68961 107.911 8.53469 107.812C8.55582 107.656 8.5699 107.494 8.59102 107.338C8.39385 107.296 8.19668 107.26 7.99951 107.218H8.00655Z" fill="#3D3D3D"/>
<path d="M46.9901 85.5369C49.3984 88.1109 51.7997 90.6849 54.208 93.2589C54.4826 93.5559 54.7502 93.8671 55.0319 94.1641C55.7642 94.942 55.722 95.543 55.3276 95.9178C54.9403 96.2855 54.37 96.0522 53.7432 95.3804C52.0321 93.5489 50.2927 91.7386 48.5605 89.9283C47.9549 89.2918 47.3352 88.6695 46.7225 88.0402C46.8141 87.2057 46.8986 86.3784 46.9901 85.5439V85.5369Z" fill="#FAA9A7"/>
<path d="M6.47852 101.144C9.04174 99.2768 11.0064 96.6815 14.1893 95.5713C14.309 95.6986 14.4287 95.8259 14.5484 95.9461C14.2175 96.3209 13.9288 96.7522 13.5485 97.0705C11.7458 98.5767 9.88676 100.012 8.11222 101.547C7.41508 102.155 7.44325 102.233 6.48556 101.137L6.47852 101.144Z" fill="#6B6B6B"/>
<path d="M14.4498 89.6876C14.1682 91.5899 12.9992 92.5869 11.3866 93.1244C11.3655 92.7637 11.1895 92.2404 11.3514 92.0707C12.1472 91.2363 13.0274 90.4796 13.9076 89.723C14.0203 89.6311 14.2667 89.6947 14.4498 89.6806V89.6876Z" fill="#3D3D3D"/>
<path d="M1.66895 99.1282C1.96471 99.4464 2.25343 99.7646 2.54918 100.083C2.64777 100.422 2.71114 100.762 2.85198 101.108C2.98578 101.448 3.19703 101.78 3.49983 102.346C1.6267 101.045 1.07744 99.9768 1.66895 99.1282Z" fill="#292929"/>
<path d="M27.2025 74.9719C27.5616 74.8729 27.8856 74.5829 28.2729 74.7102C29.5404 75.1133 30.8291 75.6649 32.4487 76.2872C31.6037 76.8246 30.8995 77.2772 30.477 77.5459C29.2939 76.6832 28.47 76.0821 27.6461 75.481C27.4983 75.3113 27.3504 75.1416 27.2025 74.9719Z" fill="#515151"/>
<path d="M36.8005 74.8022C36.1386 75.5376 35.54 76.2094 34.8781 76.9449C34.4697 76.5771 34.0542 76.2023 33.6528 75.8346C34.0894 75.1911 34.4838 74.5971 34.8852 74.0031C35.3781 73.2748 35.5964 73.3525 36.8005 74.7951V74.8022Z" fill="#292929"/>
<path d="M24.8365 79.2079L24.4633 79.5544L23.9563 80.509C23.6957 80.7353 23.4422 80.9616 23.1817 81.1808C22.9211 80.8909 22.6606 80.601 22.4 80.304C22.4845 79.1937 22.7873 78.2957 24.0056 78.2957C24.2802 78.5997 24.5619 78.9038 24.8365 79.2079Z" fill="#292929"/>
<path d="M35.0613 78.7622C35.2303 78.9602 35.3993 79.1653 35.5683 79.3633C35.3993 79.6461 35.3289 80.0704 35.0472 80.1907C34.3853 80.4735 33.6177 80.6008 32.8924 80.7988C32.8008 80.6927 32.7023 80.5937 32.6107 80.4877L34.4486 78.8188C34.6528 78.8046 34.8571 78.7834 35.0613 78.7693V78.7622Z" fill="#515151"/>
<path d="M24.8366 79.2078C24.5619 78.9038 24.2802 78.5997 24.0056 78.2956C24.2239 78.1117 24.4633 77.9491 24.6535 77.737C25.0337 77.3268 25.4562 77.546 25.9421 78.1966C25.5759 78.536 25.2098 78.8684 24.8366 79.2078Z" fill="#3D3D3D"/>
<path d="M32.2305 79.8796C31.6812 79.5119 31.1319 79.1371 30.5897 78.7694C30.6108 78.6633 30.639 78.5502 30.6601 78.4441C31.2517 78.8189 31.8361 79.1937 32.4276 79.5685C32.3643 79.6745 32.3009 79.7735 32.2375 79.8796H32.2305Z" fill="#636363"/>
<path d="M27.2026 74.9719C27.3505 75.1416 27.4983 75.3114 27.6462 75.4811C27.3997 75.6649 27.1603 75.8488 26.9139 76.0326L26.5618 75.6791C26.773 75.4457 26.9843 75.2124 27.2026 74.979V74.9719Z" fill="#3D3D3D"/>
<path d="M31.9699 77.5459C32.5051 77.8783 33.0473 78.2106 33.5825 78.5359C33.5403 78.6703 33.498 78.7976 33.4558 78.9319C32.9769 78.5713 32.4981 78.2035 32.0122 77.8429C31.9981 77.7439 31.984 77.6449 31.9629 77.5459H31.9699Z" fill="#6B6B6B"/>
<path d="M33.843 76.9097C34.0613 77.0582 34.2867 77.2137 34.5049 77.3622C34.4909 77.433 34.4697 77.4966 34.4557 77.5673C34.2585 77.433 34.0613 77.2915 33.8712 77.1572C33.8641 77.0723 33.8501 76.9945 33.8501 76.9167L33.843 76.9097Z" fill="#868686"/>
<path d="M33.8641 77.15C33.6599 77.0298 33.4557 76.9095 33.2515 76.7964C33.2585 76.7328 33.2726 76.6691 33.2796 76.6055C33.4698 76.7045 33.6528 76.8105 33.843 76.9095C33.843 76.9873 33.8571 77.0722 33.8641 77.15Z" fill="#868686"/>
<path d="M32.0191 77.8429C31.9205 77.7439 31.8149 77.6378 31.7163 77.5388C31.8008 77.5388 31.8853 77.5459 31.9698 77.553C31.9909 77.652 32.005 77.751 32.0191 77.85V77.8429Z" fill="#6B6B6B"/>
<path d="M39.3497 72.2141C39.4272 72.2778 39.5117 72.3343 39.5891 72.398L39.4483 72.3485L39.3427 72.2141H39.3497Z" fill="#515151"/>
<path d="M20.3509 84.1013C20.3509 84.3771 20.4847 84.7872 20.3509 84.9145C19.5833 85.6924 18.7524 86.4066 17.837 87.2411C17.8088 86.7319 17.7947 86.442 17.7806 86.1591C17.8511 86.1238 17.8863 86.0601 17.8933 85.9682C17.9708 85.9045 18.0412 85.8409 18.1186 85.7702C18.8651 85.2115 19.6115 84.6529 20.3579 84.0942L20.3509 84.1013Z" fill="#C83736"/>
<path d="M17.8862 85.9682C17.8862 86.0602 17.8439 86.1238 17.7735 86.1591C17.682 86.0601 17.5834 85.9894 17.4707 85.9329C17.6045 85.947 17.7453 85.9541 17.8791 85.9682H17.8862Z" fill="#1A1A1B"/>
</g>
<defs>
<clipPath id="clip0_27_266">
<rect width="115" height="109" fill="white"/>
</clipPath>
</defs>
</svg>
