<svg width="142" height="71" viewBox="0 0 142 71" fill="none" xmlns="http://www.w3.org/2000/svg">
<g clip-path="url(#clip0_27_364)">
<path d="M131.232 4.80624C131.416 4.78159 131.477 4.54005 131.706 4.7323C132.065 5.03793 135.908 11.7421 136.3 12.6245C140.064 21.0244 140.097 28.6701 136.14 37.0109C131.677 46.4263 122.171 54.417 112.297 59.174C110.321 60.1254 104.351 62.8514 103.028 62.186C105.078 64.3796 109.072 67.5887 112.453 66.4894C116.168 65.2817 127.41 55.3881 130.277 52.2135C144.577 36.3799 147.521 16.4301 129.333 1.93726C130.04 2.83936 130.693 3.81048 131.236 4.80624H131.232Z" fill="#C62019"/>
<path d="M131.232 4.8064C133.535 9.06551 135.744 15.6316 135.985 20.3739C136.23 25.1703 135.315 29.1435 133.449 33.5702C133.421 33.6392 133.711 33.9005 132.816 34.7188C131.747 38.1596 128.798 40.9645 126.798 44.0454C120.566 50.0052 113.281 54.7967 105.013 58.1784C104.318 58.3756 101.872 58.7749 101.525 58.8981C101.011 59.0756 101.783 59.8002 100.656 59.0411C101.301 60.1206 102.158 61.2594 103.032 62.196C104.351 62.8615 110.325 60.1354 112.301 59.184C122.175 54.4221 131.681 46.4313 136.144 37.0209C140.101 28.6752 140.069 21.0344 136.304 12.6345C135.908 11.757 132.069 5.04795 131.71 4.74232C131.481 4.55007 131.416 4.78668 131.236 4.81626L131.232 4.8064Z" fill="#DE2F24"/>
<path d="M100.66 59.0361C101.787 59.7952 101.015 59.0706 101.529 58.8931C101.877 58.7748 104.318 58.3706 105.017 58.1734C113.286 54.7967 120.566 50.0003 126.802 44.0405C128.802 40.9644 131.751 38.1546 132.82 34.7138C133.719 33.8955 133.425 33.6342 133.453 33.5652C135.32 29.1385 136.23 25.1653 135.989 20.3689C135.748 15.6316 133.539 9.06052 131.236 4.80141C130.697 3.80564 130.044 2.83453 129.333 1.93242C128.574 1.32609 127.32 0.207087 126.483 -0.00488281C136.594 20.4822 127.969 36.1729 106.442 45.1151C101.219 47.2841 97.5726 46.101 98.2831 52.9333C98.4873 54.8706 99.6429 57.3206 100.66 59.0312V59.0361Z" fill="#F3392B"/>
<path d="M130.044 7.67529C132.943 16.5189 132.469 24.1448 126.953 31.9927C121.701 39.4658 112.42 44.8883 103.428 47.989C101.391 48.689 99.1529 48.4622 99.7041 50.0692C100.194 51.4889 105.784 49.2854 106.911 48.8516C112.51 46.6876 119.688 42.0883 123.784 38.0215C132.706 29.1582 135.417 18.9639 130.04 7.68022L130.044 7.67529Z" fill="#FB7767"/>
</g>
<defs>
<clipPath id="clip0_27_364">
<rect width="142" height="71" fill="white" transform="matrix(-1 0 0 1 142 0)"/>
</clipPath>
</defs>
</svg>
