<svg width="221" height="125" viewBox="0 0 221 125" fill="none" xmlns="http://www.w3.org/2000/svg">
<g clip-path="url(#clip0_27_16278)">
<path d="M207.182 72.1474C210.544 68.9755 213.903 65.7997 217.273 62.6394C217.484 62.4426 217.753 62.2728 218.064 62.2304C219.178 62.0799 220.158 62.7166 220.819 64.0672C221.023 64.4839 221.004 64.9547 220.981 65.3483C220.969 65.5721 220.765 65.711 220.612 65.8499C209.211 76.2879 197.806 86.7181 186.397 97.1484C184.591 98.7999 182.766 100.436 180.952 102.076C180.853 102.122 180.753 102.165 180.653 102.211C180.591 102.203 180.526 102.199 180.464 102.192C180.349 102.064 180.23 101.937 180.115 101.81C181.252 100.695 182.355 99.5446 183.531 98.4681C195.658 87.3895 207.793 76.3226 219.928 65.2518C220.031 65.1592 220.143 65.0743 220.235 64.9701C220.489 64.6768 220.404 64.3025 220.001 63.8279C219.286 62.9906 218.475 62.6934 217.964 63.1681C217.253 63.8241 216.604 64.5495 215.901 65.2171C213.272 67.7175 210.633 70.2026 208 72.6992C205.337 75.2267 202.678 77.7581 200.012 80.2855C197.21 82.9365 194.398 85.5759 191.596 88.2269C189.014 90.6733 186.444 93.1314 183.857 95.574C182.447 96.9053 181.014 98.2172 179.585 99.5292C179.296 99.7916 178.97 100.015 178.662 100.255C178.493 100.046 178.324 99.8379 178.159 99.6295C180.18 97.731 182.205 95.8402 184.219 93.9379C188.384 90.0058 192.542 86.066 196.703 82.1262C197.245 81.613 197.787 81.1036 198.329 80.5904C199.393 79.5717 200.454 78.553 201.518 77.5342C201.626 77.4918 201.76 77.4725 201.837 77.3992C203.585 75.7399 205.326 74.0768 207.067 72.4059C207.128 72.3442 207.14 72.2323 207.178 72.1436L207.182 72.1474Z" fill="#C83736"/>
<path d="M174.37 101.47C174.378 101.401 174.382 101.335 174.39 101.266C174.513 101.312 174.639 101.362 174.901 101.462C173.44 99.8456 172.115 98.3754 170.731 96.8396C170.778 97.048 170.801 97.1637 170.828 97.2834C170.628 97.0518 170.428 96.8203 170.232 96.5888C170.359 96.4615 170.486 96.3341 170.612 96.2068C171.139 96.2454 171.673 96.2917 172.195 96.311C172.288 96.311 172.338 96.2068 172.407 96.1528C172.511 96.1373 172.618 96.1219 172.722 96.1064C174.174 97.6422 175.631 99.1819 177.152 100.791C177.394 100.625 177.71 100.409 178.032 100.185L180.246 102.639L179.358 103.45C180.653 104.881 181.852 106.232 183.078 107.559C183.454 107.968 183.643 108.304 183.489 108.651C183.374 109.161 183.254 109.67 183.105 110.33C181.687 108.663 180.457 107.22 179.197 105.738C178.966 105.904 178.805 105.993 178.674 106.112C177.444 107.224 176.207 108.327 175.001 109.465C174.655 109.793 174.328 109.72 173.829 109.134C173.229 108.431 172.591 107.76 171.969 107.077C172.741 106.548 173.137 105.537 174.332 105.541C174.701 105.804 175.07 106.07 175.439 106.332C175.619 106.467 175.8 106.598 175.98 106.733C175.977 106.753 175.965 106.772 175.969 106.799C175.969 106.815 175.988 106.834 176 106.853C175.992 106.815 175.984 106.776 175.98 106.733C176.399 106.618 176.853 106.552 177.225 106.371C177.514 106.228 178.105 106.27 177.667 105.506C177.468 104.187 178.77 104.071 178.901 103.017L177.656 101.636C177.183 102.068 176.703 102.427 176.319 102.882C176.092 103.153 175.961 103.469 175.396 103.222C174.947 103.025 174.497 102.906 174.09 102.763C174.205 102.261 174.294 101.864 174.386 101.466L174.37 101.47Z" fill="#3D3D3D"/>
<path d="M171.965 107.085C172.587 107.768 173.221 108.443 173.825 109.141C174.328 109.728 174.651 109.797 174.997 109.473C176.203 108.335 177.441 107.231 178.67 106.12C178.805 106 178.962 105.908 179.193 105.746C180.453 107.227 181.679 108.667 183.101 110.338C183.251 109.678 183.37 109.168 183.485 108.659C183.577 108.709 183.666 108.755 183.758 108.806C183.796 108.848 183.842 108.879 183.888 108.89C183.838 109.346 183.792 109.797 183.742 110.253C183.727 110.496 183.708 110.743 183.692 110.986C183.324 111.237 183.058 110.754 182.782 110.449C181.617 109.164 180.457 107.872 179.239 106.525L174.716 110.639C174.463 110.426 174.255 110.253 174.005 110.044C173.852 110.152 173.69 110.237 173.56 110.357C171.573 112.155 169.598 113.965 167.607 115.759C167.296 116.041 167.108 116.369 167.069 116.897C167.031 117.445 166.754 117.905 166.458 118.283C165.671 119.29 164.852 120.266 163.984 121.196C163.25 121.983 162.278 121.829 161.002 120.706C159.792 119.641 158.823 118.414 158.358 116.955C158.189 116.427 158.205 116.06 158.501 115.825C159.165 115.292 159.838 114.764 160.506 114.235C160.579 114.185 160.652 114.135 160.725 114.084C161.452 113.382 162.235 112.757 163.338 112.541C163.523 112.502 163.646 112.344 163.78 112.224C164.66 111.422 165.532 110.612 166.409 109.805L167.312 109.562C166.92 110.094 166.524 110.631 166.132 111.163C166.032 111.167 165.894 111.132 165.836 111.186C165.36 111.599 164.879 112.008 164.441 112.468C164.353 112.56 164.449 112.846 164.46 113.043C164.272 113.112 164.08 113.181 163.892 113.251C163.642 113.274 163.361 113.243 163.154 113.328C162.697 113.517 162.235 113.706 161.855 114C160.925 114.713 160.045 115.481 159.146 116.234C159.135 116.245 159.154 116.292 159.158 116.322C158.835 116.789 159.135 117.372 160.157 118.078C159.995 117.77 159.88 117.584 159.803 117.403C159.726 117.218 159.692 117.029 159.638 116.843L160.445 117.739C160.668 117.337 160.864 116.982 161.087 116.585C161.225 116.701 161.398 116.851 161.659 117.079C161.982 116.786 162.305 116.461 162.658 116.176C163.265 115.69 163.872 115.2 164.518 114.76C164.795 114.571 164.699 114.285 164.503 113.922C164.572 113.853 164.641 113.783 164.71 113.714C164.829 113.764 164.96 113.853 165.064 113.861C166.159 113.969 166.193 113.996 166.624 115.2C166.651 115.273 166.758 115.358 166.897 115.508C168.864 113.718 170.82 111.939 172.86 110.083C172.349 109.388 171.838 108.698 171.327 108.007C171.404 107.822 171.454 107.613 171.561 107.455C171.661 107.308 171.827 107.22 171.961 107.104L171.965 107.085ZM162.743 119.406C162.731 119.514 162.72 119.626 162.704 119.734C161.97 119.68 162.455 120.289 162.612 120.718L162.904 121.042C162.989 121.096 163.131 121.212 163.146 121.196C163.684 120.637 164.241 120.092 164.737 119.487C165.34 118.754 165.874 117.951 166.47 117.21C166.762 116.847 166.681 116.388 166.043 115.732C165.348 116.801 163.934 117.083 163.269 118.333C163.212 118.317 163.016 118.271 162.831 118.229C162.8 118.437 162.773 118.611 162.747 118.788C162.593 118.923 162.42 119.051 162.747 119.406H162.743ZM161.774 117.874C161.59 117.746 161.306 117.484 161.244 117.519C160.987 117.658 160.756 117.851 160.61 118.105C160.552 118.202 160.745 118.518 160.821 118.73C161.017 118.919 161.213 119.109 161.452 119.336C161.651 119.155 161.794 118.981 161.982 118.862C162.347 118.63 162.262 118.31 161.774 117.87V117.874ZM161.782 117.399C162.305 117.993 162.289 117.951 162.67 117.623C163.638 116.786 164.652 115.998 165.636 115.18C165.844 115.007 166.001 114.775 166.182 114.567C166.116 114.497 166.051 114.428 165.986 114.362C164.249 114.964 163.177 116.384 161.778 117.403L161.782 117.399ZM161.463 120.177C160.718 119.614 160.526 118.491 159.507 118.125C159.838 118.993 160.791 120.05 161.463 120.177Z" fill="#1A1A1B"/>
<path d="M177.656 105.51C178.094 106.278 177.506 106.236 177.214 106.375C176.841 106.556 176.388 106.622 175.969 106.737C175.788 106.602 175.608 106.471 175.427 106.336C175.193 105.672 174.751 105.622 174.32 105.545C174.082 105.275 173.844 105.009 173.609 104.739C173.502 104.623 173.317 104.399 173.298 104.411C172.987 104.55 172.695 104.719 172.403 104.881C172.138 104.522 171.907 104.403 171.7 104.631C171.596 104.746 171.465 104.835 171.346 104.935C170.681 104.935 170.516 105.425 170.47 106.031L170.312 105.861C170.201 105.723 170.086 105.58 169.986 105.456C171.458 104.117 172.914 102.794 174.366 101.47C174.274 101.868 174.186 102.269 174.07 102.767C174.478 102.906 174.927 103.029 175.377 103.226C175.942 103.473 176.069 103.156 176.299 102.886C176.683 102.431 177.164 102.072 177.636 101.64L178.881 103.021C178.751 104.075 177.448 104.191 177.648 105.514C177.556 105.406 177.463 105.294 177.371 105.186C177.26 105.194 177.148 105.205 177.037 105.213L176.034 106.124C176.084 106.182 176.138 106.236 176.188 106.294C176.584 106.189 176.999 106.116 177.364 105.962C177.517 105.896 177.556 105.665 177.648 105.506L177.656 105.51ZM176.726 104.306C176.833 104.38 176.941 104.457 177.045 104.53C177.052 104.492 177.064 104.457 177.072 104.418C176.952 104.337 176.829 104.252 176.71 104.171C176.607 104.117 176.507 104.059 176.403 104.005C176.399 104.04 176.391 104.075 176.388 104.11C176.499 104.175 176.61 104.241 176.722 104.303L176.726 104.306ZM175.719 104.685C175.98 104.881 176.242 105.082 176.507 105.279C176.53 105.206 176.553 105.136 176.576 105.063C176.284 104.881 175.988 104.7 175.696 104.522C175.65 104.522 175.604 104.519 175.558 104.515C175.611 104.569 175.669 104.627 175.723 104.681L175.719 104.685ZM173.333 103.392C173.782 103.72 174.232 104.048 174.877 104.519C175.108 104.372 175.488 104.129 175.953 103.832C175.073 103.492 174.366 103.191 173.675 102.971C173.463 102.906 173.283 103.06 173.091 103.114C172.975 103.241 172.86 103.369 172.741 103.496L172.933 103.689C173.068 103.589 173.198 103.488 173.333 103.388V103.392ZM178.328 103.025C177.671 102.242 177.552 102.196 177.283 102.593C177.064 102.917 176.849 103.238 176.61 103.593C176.829 103.789 177.06 103.998 177.279 104.198C177.636 103.797 177.967 103.43 178.328 103.029V103.025ZM175.834 105.796C175.869 105.738 175.903 105.684 175.938 105.626C175.615 105.422 175.296 105.217 174.974 105.013C174.962 105.07 174.947 105.132 174.935 105.19C175.235 105.391 175.535 105.595 175.83 105.796H175.834Z" fill="#141414"/>
<path d="M183.688 110.978C183.704 110.735 183.723 110.488 183.738 110.245C184.073 110.589 184.411 110.928 184.741 111.275C185.687 112.263 186.636 113.251 187.569 114.25C187.911 114.617 188.223 114.744 188.434 114.544C188.649 114.339 188.676 114.011 188.273 113.587C188.119 113.425 187.973 113.259 187.823 113.093C186.513 111.688 185.199 110.284 183.884 108.879C183.838 108.864 183.792 108.837 183.754 108.794C183.896 108.69 184.038 108.582 184.18 108.478C185.71 110.083 187.25 111.669 188.753 113.297C189.279 113.868 189.498 114.517 189.356 115.076C189.21 115.663 188.58 115.466 188.069 115.412C187.885 115.393 187.569 115.061 187.35 114.833C186.121 113.556 184.903 112.263 183.685 110.978H183.688Z" fill="#C83736"/>
<path d="M170.612 96.2069C170.485 96.3343 170.359 96.4616 170.232 96.5889C169.171 95.3619 168.103 94.1463 167.062 92.9038C166.77 92.5565 166.524 92.1398 166.351 91.75C166.066 91.1056 166.059 90.5963 166.612 90.4303C167.354 90.2065 167.872 90.3455 168.556 91.1018C170.02 92.7109 171.461 94.3431 172.914 95.9638C172.849 96.014 172.783 96.0603 172.718 96.1105C172.614 96.1259 172.507 96.1413 172.403 96.1568C171.684 95.3619 170.966 94.5669 170.247 93.772C169.602 93.0582 168.975 92.325 168.307 91.642C168.095 91.4259 167.696 91.2137 167.503 91.2368C167.323 91.26 167.265 91.5764 167.219 91.8041C167.142 92.1591 167.423 92.4909 167.734 92.8498C168.706 93.9573 169.655 95.0879 170.612 96.2069Z" fill="#C83736"/>
<path d="M172.722 96.1105C172.787 96.0603 172.853 96.014 172.918 95.9639C173.21 96.2108 173.533 96.4346 173.794 96.7163C174.862 97.874 175.911 99.0509 177.006 100.266C177.383 100.062 177.775 99.8496 178.163 99.6374C178.332 99.8458 178.501 100.054 178.666 100.263C179.016 100.714 179.366 101.165 179.719 101.617L179.777 101.69L179.854 101.717C179.942 101.752 180.034 101.787 180.123 101.821C180.238 101.949 180.357 102.076 180.472 102.2L180.43 102.242L180.472 102.203C180.534 102.211 180.599 102.215 180.661 102.223C180.726 102.277 180.791 102.331 180.857 102.381C180.622 102.798 180.384 103.214 180.104 103.712C181.137 104.858 182.275 106.101 183.385 107.363C183.689 107.706 183.923 108.111 184.188 108.489C184.046 108.594 183.904 108.702 183.762 108.806C183.669 108.756 183.581 108.709 183.489 108.659C183.646 108.312 183.454 107.976 183.078 107.567C181.852 106.24 180.653 104.889 179.358 103.458L180.246 102.647L178.032 100.193C177.71 100.413 177.394 100.629 177.152 100.799C175.631 99.1898 174.178 97.654 172.722 96.1144V96.1105Z" fill="#141414"/>
<path d="M170.316 105.862L170.474 106.031C170.616 106.19 170.758 106.348 170.9 106.51C170.704 106.668 170.493 106.807 170.32 106.992C169.986 107.351 169.675 107.733 169.352 108.104C168.945 108.408 168.537 108.713 168.13 109.018C167.984 108.86 167.838 108.702 167.692 108.547C168.568 107.656 169.44 106.761 170.316 105.869V105.862Z" fill="#1A1A1B"/>
<path d="M207.182 72.1475C207.148 72.2362 207.136 72.352 207.071 72.4099C205.33 74.0768 203.589 75.7438 201.841 77.4031C201.76 77.4764 201.63 77.4957 201.522 77.5382C203.409 75.74 205.295 73.9456 207.182 72.1475Z" fill="#FAA9A7"/>
<path d="M170.831 97.2834C170.804 97.1637 170.781 97.048 170.735 96.8396C172.118 98.3715 173.444 99.8456 174.904 101.462C174.639 101.362 174.516 101.316 174.393 101.266C173.206 99.9382 172.019 98.6108 170.831 97.2834Z" fill="#141414"/>
<path d="M167.692 108.54C167.838 108.698 167.984 108.856 168.13 109.01C168.088 109.045 168.049 109.08 168.007 109.118C167.934 109.111 167.857 109.107 167.784 109.099C167.627 109.25 167.469 109.396 167.311 109.547C167.012 109.628 166.708 109.709 166.408 109.79C166.839 109.373 167.265 108.956 167.696 108.54H167.692Z" fill="#292929"/>
<path d="M180.857 102.377C180.791 102.323 180.726 102.269 180.661 102.219C180.761 102.172 180.86 102.13 180.96 102.084C180.926 102.184 180.891 102.281 180.857 102.381V102.377Z" fill="#D39D5C"/>
<path d="M179.719 101.613C179.369 101.162 179.02 100.71 178.666 100.259C178.974 100.019 179.3 99.7955 179.588 99.5331C181.018 98.2211 182.447 96.9091 183.861 95.5779C186.447 93.1353 189.018 90.6772 191.6 88.2308C194.402 85.5798 197.214 82.9404 200.016 80.2894C202.682 77.7658 205.341 75.2306 208.004 72.7031C210.636 70.2065 213.276 67.7214 215.905 65.221C216.608 64.5534 217.257 63.828 217.968 63.172C218.479 62.7012 219.29 62.9945 220.005 63.8318C220.408 64.3064 220.493 64.6846 220.239 64.974C220.147 65.0782 220.035 65.1631 219.932 65.2557C207.797 76.3265 195.658 87.3934 183.535 98.472C182.359 99.5447 181.256 100.698 180.119 101.814C180.03 101.779 179.938 101.744 179.85 101.709C179.808 101.675 179.761 101.644 179.719 101.609V101.613Z" fill="#FAA9A7"/>
<path d="M180.471 102.199L180.426 102.237L180.468 102.196L180.471 102.199Z" fill="#515151"/>
<path d="M170.612 96.2068C169.656 95.0878 168.706 93.9571 167.734 92.8497C167.423 92.4947 167.146 92.1628 167.219 91.8039C167.265 91.5763 167.323 91.2599 167.504 91.2367C167.696 91.2097 168.092 91.4219 168.307 91.6419C168.979 92.3249 169.606 93.058 170.247 93.7719C170.966 94.5668 171.684 95.3617 172.403 96.1566C172.334 96.2107 172.284 96.3187 172.192 96.3148C171.669 96.2955 171.139 96.2454 170.608 96.2107L170.612 96.2068Z" fill="#FAA9A7"/>
<path d="M173.613 104.739C173.852 105.009 174.09 105.275 174.324 105.545C173.129 105.545 172.737 106.552 171.961 107.081C171.827 107.197 171.665 107.285 171.561 107.432C171.454 107.586 171.4 107.795 171.327 107.984C170.939 108.173 170.47 108.273 170.178 108.566C169.559 109.18 169.033 109.886 168.476 110.561C167.873 111.287 167.273 112.016 166.674 112.745C166.474 112.989 166.255 113.185 165.767 112.811C166.324 112.074 166.8 111.252 167.454 110.612C168.875 109.215 170.393 107.926 171.85 106.568C172.468 105.993 173.029 105.352 173.613 104.739Z" fill="#292929"/>
<path d="M174.324 105.545C174.755 105.626 175.193 105.673 175.431 106.336C175.062 106.074 174.693 105.808 174.324 105.545Z" fill="#292929"/>
<path d="M175.973 106.737C175.98 106.776 175.988 106.814 175.992 106.857C175.98 106.837 175.961 106.818 175.961 106.803C175.961 106.78 175.969 106.76 175.973 106.737Z" fill="#292929"/>
<path d="M165.767 112.807C166.255 113.182 166.474 112.985 166.674 112.742C167.273 112.012 167.872 111.283 168.476 110.558C169.037 109.886 169.563 109.176 170.178 108.563C170.47 108.273 170.939 108.169 171.327 107.98C171.838 108.671 172.349 109.361 172.86 110.056C170.82 111.912 168.864 113.695 166.896 115.481C166.758 115.327 166.647 115.246 166.624 115.173C166.193 113.969 166.159 113.942 165.063 113.834C164.96 113.822 164.829 113.737 164.71 113.687C165.063 113.394 165.413 113.101 165.767 112.807Z" fill="#3D3D3D"/>
<path d="M165.767 112.807C165.413 113.101 165.064 113.394 164.71 113.687C164.641 113.757 164.572 113.826 164.503 113.895C164.272 113.899 163.972 113.822 163.819 113.926C162.808 114.594 161.832 115.304 160.841 115.995C160.695 116.099 160.533 116.18 160.376 116.276C160.306 116.188 160.233 116.099 160.164 116.01C160.341 115.848 160.506 115.67 160.702 115.528C161.759 114.76 162.827 113.996 163.888 113.236C164.076 113.166 164.268 113.097 164.456 113.027C165.336 112.73 165.974 112.19 166.128 111.152C166.52 110.619 166.916 110.083 167.308 109.55C167.465 109.4 167.623 109.253 167.78 109.103C167.838 109.134 167.896 109.176 167.946 109.226C167.953 109.381 167.961 109.539 167.976 109.817C168.476 109.361 168.929 108.972 169.348 108.547C169.421 108.474 169.348 108.254 169.348 108.103C169.671 107.733 169.982 107.351 170.316 106.992C170.489 106.811 170.701 106.672 170.897 106.51C171.039 106.386 171.177 106.263 171.319 106.143L171.596 105.622C171.665 105.561 171.73 105.495 171.8 105.433C171.999 105.248 172.199 105.067 172.403 104.881C172.699 104.719 172.987 104.55 173.298 104.411C173.321 104.403 173.502 104.623 173.609 104.739C173.022 105.348 172.464 105.989 171.846 106.568C170.389 107.926 168.872 109.215 167.45 110.612C166.8 111.248 166.32 112.07 165.763 112.811L165.767 112.807Z" fill="#515151"/>
<path d="M163.888 113.232C162.823 113.996 161.759 114.756 160.702 115.524C160.506 115.667 160.345 115.844 160.164 116.006C160.233 116.095 160.306 116.184 160.376 116.272C160.529 116.18 160.691 116.095 160.841 115.991C161.832 115.3 162.808 114.59 163.819 113.923C163.972 113.818 164.272 113.899 164.503 113.892C164.695 114.254 164.795 114.54 164.518 114.729C163.872 115.169 163.265 115.655 162.658 116.145C162.305 116.431 161.982 116.751 161.659 117.048C161.394 116.82 161.221 116.674 161.086 116.554C160.867 116.952 160.668 117.311 160.445 117.708L159.638 116.813C159.476 116.639 159.319 116.465 159.157 116.292C159.154 116.261 159.134 116.215 159.146 116.203C160.045 115.454 160.925 114.683 161.855 113.969C162.232 113.679 162.697 113.486 163.154 113.297C163.357 113.212 163.642 113.243 163.892 113.22L163.888 113.232Z" fill="#3D3D3D"/>
<path d="M162.616 120.714C162.458 120.285 161.974 119.68 162.708 119.73C162.977 119.992 163.15 120.513 163.646 120.394C163.507 120.116 163.384 119.861 163.231 119.552C163.588 119.556 163.907 119.564 164.341 119.572C163.73 118.862 163.361 118.838 163.031 119.082C162.935 118.981 162.839 118.885 162.746 118.784C162.773 118.607 162.8 118.433 162.831 118.225C163.012 118.267 163.207 118.318 163.269 118.329C163.938 117.079 165.348 116.797 166.043 115.728C166.681 116.384 166.762 116.843 166.47 117.206C165.874 117.947 165.34 118.75 164.737 119.483C164.241 120.089 163.688 120.633 163.146 121.192C163.131 121.208 162.988 121.092 162.904 121.038C162.915 120.953 162.923 120.864 162.935 120.779C162.827 120.756 162.719 120.737 162.612 120.714H162.616Z" fill="#3D3D3D"/>
<path d="M183.888 108.883C185.203 110.287 186.513 111.692 187.827 113.097C187.977 113.259 188.123 113.428 188.277 113.591C188.676 114.015 188.653 114.343 188.438 114.547C188.227 114.748 187.915 114.621 187.573 114.254C186.64 113.255 185.691 112.267 184.745 111.279C184.415 110.932 184.077 110.592 183.742 110.249C183.792 109.793 183.838 109.342 183.888 108.887V108.883Z" fill="#FAA9A7"/>
<path d="M161.782 117.399C163.181 116.38 164.253 114.964 165.99 114.358C166.055 114.428 166.12 114.497 166.186 114.563C166.005 114.767 165.847 115.003 165.64 115.176C164.656 115.998 163.642 116.782 162.673 117.619C162.293 117.951 162.308 117.993 161.786 117.395L161.782 117.399Z" fill="#6B6B6B"/>
<path d="M166.132 111.148C165.978 112.186 165.34 112.73 164.46 113.023C164.449 112.827 164.353 112.541 164.441 112.449C164.875 111.993 165.356 111.58 165.836 111.167C165.897 111.117 166.032 111.152 166.132 111.144V111.148Z" fill="#3D3D3D"/>
<path d="M159.158 116.3C159.319 116.473 159.476 116.647 159.638 116.82C159.692 117.006 159.726 117.191 159.803 117.38C159.876 117.565 159.991 117.747 160.157 118.055C159.134 117.345 158.835 116.763 159.158 116.3Z" fill="#292929"/>
<path d="M173.091 103.118C173.287 103.064 173.463 102.906 173.675 102.975C174.366 103.195 175.07 103.496 175.953 103.836C175.492 104.129 175.108 104.376 174.877 104.522C174.232 104.052 173.782 103.724 173.333 103.396C173.252 103.303 173.171 103.21 173.091 103.118Z" fill="#515151"/>
<path d="M178.328 103.025C177.967 103.427 177.64 103.793 177.279 104.195C177.056 103.994 176.83 103.789 176.611 103.589C176.849 103.238 177.064 102.913 177.283 102.589C177.552 102.192 177.671 102.234 178.328 103.021V103.025Z" fill="#292929"/>
<path d="M171.8 105.429L171.596 105.619L171.319 106.139C171.177 106.263 171.039 106.386 170.896 106.506C170.754 106.348 170.612 106.19 170.47 106.028C170.516 105.422 170.681 104.932 171.346 104.932C171.496 105.098 171.65 105.263 171.8 105.429Z" fill="#292929"/>
<path d="M177.379 105.186C177.471 105.294 177.563 105.406 177.656 105.514C177.563 105.669 177.525 105.9 177.371 105.966C177.01 106.12 176.591 106.19 176.195 106.298C176.145 106.24 176.092 106.186 176.042 106.128L177.045 105.217C177.156 105.209 177.268 105.198 177.379 105.19V105.186Z" fill="#515151"/>
<path d="M171.8 105.429C171.65 105.263 171.496 105.097 171.346 104.931C171.465 104.831 171.596 104.742 171.7 104.627C171.907 104.403 172.138 104.522 172.403 104.877C172.203 105.063 172.003 105.244 171.8 105.429Z" fill="#3D3D3D"/>
<path d="M175.834 105.796C175.535 105.595 175.235 105.391 174.939 105.19C174.95 105.132 174.966 105.07 174.977 105.012C175.3 105.217 175.619 105.421 175.942 105.626C175.907 105.684 175.873 105.738 175.838 105.796H175.834Z" fill="#636363"/>
<path d="M173.091 103.118C173.171 103.211 173.252 103.303 173.333 103.396C173.198 103.496 173.068 103.596 172.933 103.697L172.741 103.504C172.856 103.376 172.972 103.249 173.091 103.122V103.118Z" fill="#3D3D3D"/>
<path d="M175.692 104.522C175.984 104.704 176.28 104.885 176.572 105.063C176.549 105.136 176.526 105.205 176.503 105.279C176.242 105.082 175.98 104.881 175.715 104.685C175.707 104.631 175.7 104.576 175.688 104.522H175.692Z" fill="#6B6B6B"/>
<path d="M176.714 104.175C176.833 104.256 176.956 104.341 177.076 104.422C177.068 104.461 177.056 104.496 177.049 104.534C176.941 104.461 176.833 104.384 176.73 104.31C176.726 104.264 176.718 104.222 176.718 104.179L176.714 104.175Z" fill="#868686"/>
<path d="M176.726 104.306C176.614 104.241 176.503 104.175 176.391 104.113C176.395 104.079 176.403 104.044 176.407 104.009C176.51 104.063 176.61 104.121 176.714 104.175C176.714 104.218 176.722 104.264 176.726 104.306Z" fill="#868686"/>
<path d="M175.719 104.684C175.665 104.63 175.607 104.572 175.554 104.519C175.6 104.519 175.646 104.522 175.692 104.526C175.703 104.58 175.711 104.634 175.719 104.688V104.684Z" fill="#6B6B6B"/>
<path d="M179.719 101.613C179.761 101.648 179.807 101.678 179.849 101.713L179.773 101.686L179.715 101.613H179.719Z" fill="#515151"/>
<path d="M169.352 108.1C169.352 108.25 169.425 108.474 169.352 108.543C168.933 108.968 168.479 109.358 167.98 109.813C167.965 109.535 167.957 109.377 167.949 109.222C167.988 109.203 168.007 109.168 168.011 109.118C168.053 109.084 168.091 109.049 168.134 109.01C168.541 108.705 168.948 108.401 169.356 108.096L169.352 108.1Z" fill="#C83736"/>
<path d="M168.007 109.118C168.007 109.168 167.984 109.203 167.946 109.222C167.896 109.168 167.842 109.13 167.78 109.099C167.853 109.107 167.93 109.11 168.003 109.118H168.007Z" fill="#1A1A1B"/>
</g>
<g clip-path="url(#clip1_27_16278)">
<path d="M42.0995 55.7499C36.3981 56.6089 31.0232 52.9198 29.7485 47.273C29.7167 47.1341 29.6202 46.9568 29.5044 46.8968C26.5636 45.4161 24.6357 43.0435 23.7118 39.9424C22.505 35.8848 23.4624 32.2041 26.1862 29.0261C27.7053 27.2551 29.7572 26.6833 32.0441 26.9939C33.1723 27.146 34.2968 27.3465 35.4176 27.5476C37.1932 27.8646 38.8572 27.557 40.4446 26.7377C41.3581 26.2659 42.2798 25.8002 43.2089 25.3592C45.8976 24.0916 48.4167 24.4523 50.6755 26.3259C55.9065 30.6557 56.3808 37.2843 52.7068 42.3657C52.4994 42.6547 52.2802 42.9638 51.997 43.1646C51.4838 43.5287 51.4234 43.9873 51.441 44.5742C51.622 50.1522 47.6243 54.9172 42.0995 55.7499ZM51.2935 42.9454C51.9111 42.4662 52.58 41.5666 53.1305 40.5152C56.0153 35.0099 53.9612 29.2769 49.5144 26.2746C47.92 25.1972 46.1512 24.9013 44.3264 25.6124C43.1773 26.0604 42.0659 26.6134 40.9769 27.1925C39.0269 28.2245 36.9966 28.5462 34.8346 28.11C33.9603 27.9311 33.077 27.7903 32.1973 27.6491C30.0122 27.3048 28.0686 27.8126 26.5898 29.5075C24.6203 31.7658 23.6937 34.4433 23.8768 37.445C24.0668 40.5674 25.5276 43.0688 27.8533 45.0945C28.3488 45.5254 28.9334 45.8618 29.4641 46.2321C29.5423 46.1393 29.5557 46.13 29.5582 46.1222C29.5552 46.0527 29.5527 45.9867 29.5461 45.9177C29.3219 43.2574 29.948 40.8128 31.4788 38.6273C31.798 38.1743 32.0414 37.7805 31.7775 37.2229C31.7122 37.0816 31.7291 36.8985 31.7265 36.7331C31.7112 35.1508 32.5182 33.991 33.6817 33.047C35.4692 31.5934 37.5709 30.9847 39.8405 30.9331C41.5479 30.8917 43.1834 31.2076 44.6348 32.1663C45.8212 32.9545 46.5758 34.01 46.5921 35.5C46.5941 35.6618 46.7501 35.867 46.8951 35.9743C48.193 36.9412 49.255 38.1055 50.0485 39.52C50.6455 40.5806 51.0362 41.7161 51.2899 42.9459L51.2935 42.9454ZM45.3549 38.467C47.1115 39.8408 48.2061 41.6672 48.4773 43.9262C48.7469 46.2001 48.1494 48.2683 46.6777 50.0358C44.1125 53.1165 39.7355 53.8625 36.2826 51.7656C34.7178 50.8127 33.5856 49.4747 32.9555 47.7484C31.9651 45.0404 32.3658 42.4931 33.9277 40.1704C33.347 39.638 32.8052 39.1441 32.267 38.6496C30.0822 41.2423 29.2726 45.7153 31.2759 49.6281C33.3423 53.6678 37.855 55.927 42.3463 55.0829C46.8628 54.235 50.2532 50.6588 50.7725 46.0192C51.2327 41.8968 49.1156 38.1595 46.5105 36.5329C46.1367 37.1637 45.7588 37.7913 45.3585 38.4665L45.3549 38.467ZM38.2964 31.6723C37.928 31.7715 37.338 31.8928 36.7661 32.0851C35.2159 32.6115 33.8464 33.4094 32.9105 34.8168C32.0712 36.0809 32.1767 37.576 33.2002 38.6797C33.8022 39.3305 34.5482 39.7608 35.3783 40.0384C37.1315 40.6241 38.9021 40.636 40.6915 40.2065C42.2174 39.8386 43.6015 39.2117 44.7118 38.0841C45.5757 37.2069 46.1388 36.1905 45.9022 34.9029C45.6854 33.7229 44.8812 32.977 43.8835 32.4407C42.1963 31.5319 40.3782 31.4239 38.2922 31.6692L38.2964 31.6723ZM47.8654 45.1342C47.5329 45.1286 47.23 45.148 46.9328 45.1077C45.5626 44.9144 44.1882 44.718 42.8245 44.4942C41.1847 44.2233 39.6358 44.462 38.1374 45.187C36.6076 45.9241 35.1652 46.8508 33.4952 47.2661C34.1886 49.86 37.2676 52.735 41.3242 52.2617C45.5224 51.7746 47.9123 48.1121 47.869 45.1336L47.8654 45.1342ZM47.9137 44.5447C47.711 42.176 46.7551 40.3657 44.9877 38.9936C44.9167 38.9379 44.7082 38.9727 44.6148 39.0382C41.5974 41.2136 38.3363 41.7081 34.8194 40.4904C34.6097 40.4186 34.5103 40.4445 34.3862 40.6252C33.7484 41.5606 33.3178 42.5757 33.142 43.6928C32.9864 44.6741 32.9999 45.6523 33.2754 46.6577C33.5162 46.5923 33.7407 46.5661 33.934 46.4783C35.2162 45.8851 36.5031 45.2985 37.7655 44.6714C39.4323 43.8402 41.1712 43.5657 43.0067 43.8885C43.9262 44.0496 44.8443 44.2257 45.7667 44.3569C46.4519 44.4535 47.1489 44.4821 47.9101 44.5453L47.9137 44.5447Z" fill="black"/>
<path d="M51.2938 42.9455C51.0395 41.7121 50.6493 40.5801 50.0524 39.5196C49.2594 38.1087 48.1968 36.9408 46.8989 35.9739C46.7539 35.8666 46.598 35.6614 46.5959 35.4996C46.5756 34.0065 45.8245 32.9505 44.6386 32.1659C43.1872 31.2071 41.5518 30.8913 39.8444 30.9326C37.5711 30.9848 35.473 31.593 33.6855 33.0466C32.522 33.9906 31.7156 35.154 31.7303 36.7326C31.7329 36.8981 31.716 37.0812 31.7814 37.2225C32.0488 37.7795 31.8019 38.1739 31.4826 38.6269C29.9524 40.816 29.3221 43.2575 29.5499 45.9173C29.5565 45.9863 29.559 46.0522 29.5621 46.1218C29.5637 46.1326 29.5462 46.1389 29.4679 46.2317C28.9372 45.8614 28.3526 45.5249 27.8571 45.0941C25.5319 43.0719 24.0706 40.567 23.8806 37.4446C23.6975 34.4429 24.6242 31.7654 26.5967 29.5029C28.0719 27.8085 30.0113 27.2977 32.2006 27.645C33.0839 27.7858 33.9636 27.9271 34.8379 28.106C37.0004 28.5458 39.0307 28.224 40.9802 27.1884C42.0692 26.6094 43.1806 26.0564 44.3297 25.6084C46.155 24.9009 47.9238 25.1968 49.5177 26.2705C53.9645 29.2729 56.0186 35.0059 53.1338 40.5112C52.5833 41.5626 51.9144 42.4622 51.2968 42.9413L51.2938 42.9455ZM27.4348 32.3995C27.5794 33.4171 28.5149 34.1286 29.5263 33.9922C30.5305 33.857 31.2502 32.9019 31.1108 31.8946C30.965 30.8698 30.0431 30.1747 29.0178 30.3168C27.9853 30.46 27.2896 31.3783 27.4353 32.4031L27.4348 32.3995ZM49.31 29.1722C49.1591 28.1372 48.2485 27.4441 47.2242 27.5934C46.1742 27.7429 45.4807 28.6756 45.6405 29.7204C45.7875 30.7045 46.7321 31.4036 47.7261 31.2735C48.7303 31.1382 49.4536 30.1826 49.3069 29.1764L49.31 29.1722Z" fill="#F4AD5A"/>
<path d="M45.3551 38.4672C45.756 37.7956 46.1334 37.1643 46.5072 36.5336C49.1117 38.1566 51.2288 41.8939 50.7691 46.0198C50.2498 50.6595 46.8594 54.2356 42.3429 55.0835C37.8516 55.9276 33.3384 53.6648 31.2725 49.6288C29.2734 45.719 30.0829 41.2461 32.2636 38.6503C32.8018 39.1448 33.3436 39.6387 33.9243 40.171C32.3619 42.4902 31.9612 45.0375 32.9522 47.749C33.5822 49.4754 34.7144 50.8134 36.2792 51.7663C39.7357 53.8626 44.1127 53.1166 46.6743 50.0365C48.146 48.269 48.7436 46.2008 48.4739 43.9269C48.2069 41.6709 47.1118 39.8409 45.3515 38.4677L45.3551 38.4672Z" fill="#FFE0B8"/>
<path d="M38.2965 31.6724C40.3824 31.4271 42.2042 31.5346 43.8877 32.4439C44.8854 32.9802 45.686 33.7266 45.9065 34.9061C46.1425 36.1901 45.58 37.2101 44.716 38.0873C43.6022 39.2155 42.2222 39.8454 40.6958 40.2098C38.9027 40.6397 37.1321 40.6279 35.3826 40.0416C34.5525 39.764 33.8096 39.3296 33.2044 38.6829C32.1809 37.5792 32.0755 36.0841 32.9148 34.82C33.8501 33.409 35.2166 32.6152 36.7704 32.0883C37.3387 31.8966 37.9317 31.7711 38.3006 31.6755L38.2965 31.6724Z" fill="#FFE0B8"/>
<path d="M47.9138 44.5449C47.1526 44.4817 46.4555 44.4532 45.7704 44.3565C44.8449 44.2294 43.9299 44.0492 43.0104 43.8881C41.1749 43.5653 39.436 43.8398 37.7692 44.671C36.5032 45.2987 35.2199 45.8847 33.9377 46.4779C33.7444 46.5657 33.5204 46.5955 33.279 46.6573C33.0041 45.6555 32.9942 44.6768 33.1457 43.6924C33.3215 42.5753 33.7521 41.5602 34.3899 40.6248C34.5171 40.4399 34.6164 40.4141 34.8231 40.49C38.3363 41.7083 41.6016 41.2168 44.6185 39.0378C44.7118 38.9723 44.9204 38.9375 44.9914 38.9932C46.7588 40.3653 47.7146 42.1756 47.9174 44.5443L47.9138 44.5449Z" fill="#F4AD5A"/>
<path d="M27.4347 32.3997C27.289 31.3749 27.9851 30.4601 29.0171 30.3134C30.0425 30.1712 30.9644 30.8664 31.1101 31.8911C31.2531 32.8979 30.5335 33.853 29.5257 33.9888C28.5142 34.1251 27.5788 33.4136 27.4341 32.396L27.4347 32.3997ZM29.4433 33.3636C30.1185 33.2701 30.5867 32.6548 30.4932 31.9796C30.3997 31.3045 29.7833 30.8291 29.1137 30.9106C28.4406 30.9928 27.9356 31.6578 28.0393 32.3278C28.139 32.9946 28.764 33.454 29.4428 33.36L29.4433 33.3636Z" fill="black"/>
<path d="M49.3099 29.1724C49.4565 30.1786 48.7333 31.1342 47.729 31.2695C46.7356 31.4031 45.7904 30.7004 45.6434 29.7164C45.4873 28.671 46.1777 27.7424 47.2272 27.5893C48.252 27.4436 49.162 28.1331 49.3129 29.1682L49.3099 29.1724ZM46.2535 29.6068C46.3542 30.2809 46.9793 30.7403 47.6497 30.6401C48.3274 30.5389 48.7926 29.9277 48.7068 29.2551C48.6211 28.5825 47.9499 28.0857 47.2805 28.1931C46.6147 28.2999 46.1534 28.9364 46.2535 29.6068Z" fill="black"/>
</g>
<path d="M26.3285 81.5099L35.2976 103.277C34.9836 103.284 34.6675 103.227 34.349 103.231C34.3286 103.186 34.2808 103.192 34.2422 103.188C33.9912 102.999 34.212 102.942 34.1994 102.874C34.1544 102.644 33.9266 102.434 33.8409 102.227C33.5074 101.42 33.1653 100.62 32.8318 99.8129C32.826 99.798 32.8822 99.7197 32.8747 99.7061C32.5697 98.9659 32.1939 98.2957 31.8681 97.5135C31.8623 97.4986 31.9185 97.4202 31.9109 97.4066C31.3254 95.9984 30.7332 94.5924 30.1445 93.1837C30.1325 93.157 30.0648 93.2056 30.0546 93.1776C29.8819 92.7609 29.9811 92.7902 29.9731 92.7687C29.8732 92.528 29.7181 92.3704 29.7087 92.3472C29.4534 91.7343 29.2668 91.0777 29.0111 90.4679C28.9334 90.2819 28.7366 90.3017 28.8548 90.091C27.5582 87.1054 26.2637 84.1044 25.0787 81.059C25.7782 81.2994 26.1391 81.0095 26.3316 81.5103L26.3285 81.5099Z" fill="#E42120"/>
<path d="M24.9634 78.6697C25.0641 79.4053 24.8751 80.1401 24.6255 80.8274C24.7463 80.9614 24.9158 81.0036 25.0771 81.0602C26.2622 84.1056 27.5584 87.1053 28.8533 90.0922C28.7363 90.3047 28.9332 90.2848 29.0095 90.4691C29.2652 91.0789 29.4519 91.7355 29.7071 92.3484C29.7165 92.3716 29.8717 92.5292 29.9715 92.7699C29.9796 92.7914 29.8803 92.7621 30.053 93.1788C30.065 93.2055 30.1327 93.1569 30.1429 93.1849C30.7316 94.5936 31.3238 95.9996 31.9094 97.4079C31.9151 97.4227 31.8589 97.5011 31.8665 97.5147C32.1923 98.2969 32.5663 98.9684 32.8731 99.7073C32.8789 99.7222 32.8227 99.8006 32.8302 99.8141C33.1637 100.621 33.5059 101.421 33.8393 102.228C33.925 102.435 34.1528 102.645 34.1978 102.875C34.2104 102.943 33.9897 103 34.2406 103.19C33.9005 103.147 33.787 103.176 33.5373 102.886L24.4232 81.0907C24.3333 80.7433 24.3575 80.5681 24.38 80.2456C24.8779 80.1655 24.8615 78.8075 24.963 78.6728L24.9634 78.6697Z" fill="#BD221D"/>
<path d="M34.3491 103.231C34.6675 103.227 34.9854 103.283 35.2977 103.277C36.0657 103.259 37.4178 103.126 38.1583 102.967C38.2534 102.947 38.247 102.881 38.2746 102.873C38.2925 102.868 38.441 102.904 38.6421 102.854C41.3955 102.151 44.2087 100.674 46.1332 98.5693C46.1463 98.5648 46.1568 98.5569 46.1712 98.5542C46.272 98.5273 46.2729 98.5212 46.3524 98.4554C46.2021 98.9435 45.4615 99.7965 45.0546 100.171C42.9006 102.158 39.9779 103.146 37.1292 103.574C36.1209 103.518 35.1149 103.49 34.1232 103.325C34.1157 103.323 34.0244 103.315 33.9699 103.279L34.0028 103.199C34.1145 103.263 34.2315 103.232 34.3491 103.231Z" fill="#AFCDC1"/>
<path d="M29.2265 80.9183C29.2309 80.9314 29.2389 80.9419 29.2416 80.9563C29.3086 81.1973 29.3573 81.4576 29.4208 81.7012L38.276 102.875C38.2471 102.881 38.2535 102.947 38.1598 102.969C37.4192 103.128 36.0671 103.261 35.2991 103.279L26.3299 81.5117C26.2874 81.4229 26.279 81.3246 26.2575 81.2309C27.2556 81.2698 28.2555 81.1367 29.2278 80.92L29.2265 80.9183Z" fill="#F57066"/>
<path d="M26.2097 78.6803C26.1884 79.4366 26.1048 80.1797 26.2231 80.9349C26.238 81.0309 26.2364 81.134 26.2575 81.2308C26.279 81.3246 26.2891 81.4215 26.3299 81.5116C26.1375 81.0108 25.7779 81.3025 25.0771 81.0603C24.9158 81.0037 24.7476 80.9633 24.6254 80.8275C24.8764 80.1419 25.064 79.4054 24.9634 78.6698C25.0732 78.5205 25.9399 78.6838 26.2079 78.6816L26.2097 78.6803Z" fill="#E42120"/>
<path d="M28.724 78.3378C28.9058 79.0063 28.9692 79.7618 29.1281 80.4725C29.0436 80.5172 28.5739 80.7108 28.5432 80.7175C28.5095 80.7238 28.5069 80.6515 28.4732 80.6578C27.7229 80.7971 26.9735 80.8504 26.2181 80.9357C26.0999 80.1805 26.1848 79.4392 26.2047 78.6811C27.0578 78.6703 27.888 78.531 28.7191 78.3387L28.724 78.3378Z" fill="#FB978C"/>
<path d="M46.7892 97.808C46.7258 97.9277 46.2972 98.379 46.1713 98.5542C46.1582 98.5586 46.1464 98.5648 46.1333 98.5693C46.1166 98.5764 46.1824 98.3945 45.8392 98.7151C45.3975 97.7509 45.0983 96.7751 44.6467 95.7579C44.4158 95.809 44.4243 95.2247 44.4101 95.1914C44.1185 94.5016 43.8334 93.8095 43.5422 93.1165C43.3809 93.0599 42.8707 91.9 43.107 91.9685C42.8333 91.0917 42.1211 90.5114 41.976 89.4738C41.4156 88.2804 40.9483 87.0137 40.3399 85.7714C40.1905 85.026 39.7982 84.3739 39.5101 83.6814C39.5043 83.6665 39.5605 83.5881 39.5529 83.5746C39.4872 83.4152 39.3201 83.2309 39.1003 82.7013C39.0945 82.6864 39.2156 82.4213 39.0213 82.5135L36.6471 76.8385C36.9908 76.446 37.3757 75.9589 37.4753 75.4294C37.4834 75.382 37.5314 75.3401 37.5092 75.1946C37.6213 75.3352 37.7203 75.4694 37.8202 75.6194L46.8552 97.2269C46.8885 97.4961 46.9161 97.5688 46.7892 97.808Z" fill="#BD221D"/>
<path d="M25.7496 78.4288C26.8068 78.5385 27.8032 78.3172 28.8177 78.0328C29.9466 77.714 31.0579 77.3066 32.0757 76.7142C32.4168 76.6015 32.7996 76.3004 33.1065 76.1063C33.7345 75.7076 35.4082 74.4337 35.5049 73.6862C35.9148 74.0746 36.4424 74.3242 36.8863 74.6593C36.4318 74.6624 35.951 73.7664 35.5467 74.1553C35.5105 74.1911 35.485 74.3535 35.4776 74.3619C35.359 74.5177 35.3696 74.6116 35.3487 74.6384C35.3282 74.6622 35.2378 74.6701 35.2173 74.6939C34.8964 75.0692 34.5698 75.3827 34.2114 75.7341C33.701 76.0301 33.0838 76.385 32.8671 76.651C32.3998 76.7933 31.9025 77.1756 31.7082 77.2678C30.7459 77.7302 29.7309 78.0177 28.7223 78.339C27.8894 78.5326 27.0593 78.6719 26.2079 78.6814C25.9399 78.6836 25.0732 78.5203 24.9634 78.6696C24.8632 78.8061 24.88 80.161 24.3803 80.2424C24.4269 79.5632 24.7113 78.8853 24.7202 78.1962C24.957 78.3634 25.4621 78.4017 25.7478 78.4301L25.7496 78.4288Z" fill="#BD221D"/>
<path d="M36.8881 74.658C37.1773 74.8764 37.2602 74.8768 37.5123 75.1949C37.5345 75.3404 37.4878 75.3841 37.4784 75.4298C36.6956 75.2029 35.8057 74.3555 35.6756 74.3C35.5336 74.2397 35.5818 74.3105 35.4794 74.3606C35.4868 74.3522 35.5123 74.1898 35.5485 74.1541C35.9545 73.7639 36.4354 74.6598 36.8881 74.658Z" fill="#BD221D"/>
<path d="M36.6484 76.8403L39.0225 82.5152C39.2151 82.4244 39.0958 82.6881 39.1016 82.703C39.3213 83.2327 39.4885 83.417 39.5542 83.5763C39.56 83.5912 39.5038 83.6696 39.5113 83.6831C39.7995 84.3757 40.1918 85.0277 40.3411 85.7732C40.9496 87.0155 41.4169 88.2822 41.9773 89.4756C42.1237 90.5149 42.8363 91.0922 43.1083 91.9703C42.8706 91.9 43.3822 93.0616 43.5434 93.1183C43.8333 93.8095 44.1184 94.5016 44.4113 95.1932C44.4255 95.2265 44.4157 95.8091 44.648 95.7597C45.0983 96.7751 45.3988 97.7527 45.8405 98.7169C46.1832 98.3993 46.1161 98.5795 46.1345 98.5711C44.2101 100.676 41.3986 102.152 38.6434 102.855C38.4423 102.906 38.2935 102.873 38.2759 102.875L29.4207 81.7011C29.3572 81.4575 29.3085 81.1972 29.2415 80.9562C31.9303 80.2011 33.3245 79.6261 35.4792 77.8612C35.525 77.8237 35.6933 77.7842 35.7234 77.7586C35.8885 77.617 35.8946 77.5161 35.9055 77.5051C36.0955 77.3309 36.5036 77.0051 36.6466 76.8416L36.6484 76.8403Z" fill="url(#paint0_linear_27_16278)"/>
<path d="M37.4765 75.4311C37.377 75.9606 36.9934 76.4495 36.6484 76.8403C36.5035 77.005 36.0985 77.3312 35.9073 77.5037L35.7549 77.3027C34.7845 77.8124 36.2106 77.0179 36.4168 76.7598C36.5907 76.5427 36.6562 76.295 36.532 76.0258C36.4837 75.9221 35.7999 75.3175 35.6536 75.1972C35.5664 75.1257 35.0557 75.0036 35.2208 74.6914C35.2413 74.6676 35.3347 74.6601 35.3521 74.6359C35.373 74.609 35.3638 74.5169 35.481 74.3593C35.5834 74.3092 35.5366 74.2402 35.6772 74.2987C35.806 74.3524 36.6942 75.2012 37.48 75.4285L37.4765 75.4311Z" fill="#E42120"/>
<path d="M35.2178 74.6908C35.0527 75.0031 35.5634 75.1251 35.6507 75.1966C35.7969 75.317 36.4807 75.9216 36.529 76.0253C36.6562 76.2949 36.5877 76.5422 36.4138 76.7593C36.2076 77.0174 34.7815 77.8118 35.7537 77.3008L35.906 77.5018C35.892 77.5124 35.8859 77.6133 35.7222 77.7567C35.6903 77.7836 35.5238 77.8218 35.4779 77.8593C35.2445 77.406 35.2789 77.8037 35.2614 77.8169C35.1942 77.8734 33.9177 78.6728 33.7891 78.7428C33.5419 78.8778 33.4868 78.8232 33.4715 78.8321C33.4444 78.8471 33.4938 78.9088 33.4654 78.9221C33.2046 79.0536 33.0418 79.0531 32.9968 79.0735C32.9683 79.0868 33.0191 79.1502 32.9906 79.1635C32.7998 79.253 30.9189 80.0428 30.6518 80.1406C30.6465 80.1446 30.5134 80.1106 30.5069 80.1128C30.3125 80.1831 30.0373 80.3283 29.8275 80.3965C29.7916 80.4072 29.2919 80.3978 29.1678 80.6735C29.1508 80.6038 29.1412 80.5368 29.1256 80.4689C28.9654 79.7564 28.9033 79.0027 28.7215 78.3342C29.7301 78.0129 30.745 77.7253 31.7073 77.263C31.9034 77.1695 32.4007 76.7871 32.8663 76.6462C33.0829 76.3802 33.7001 76.0253 34.2106 75.7293C34.569 75.3779 34.8938 75.0657 35.2165 74.6891L35.2178 74.6908Z" fill="url(#paint1_linear_27_16278)"/>
<path d="M35.481 77.8597C33.3276 79.6263 31.932 80.1996 29.2433 80.9547C29.2389 80.9416 29.2309 80.9311 29.2282 80.9166C29.2068 80.8338 29.191 80.755 29.1709 80.6739C29.295 80.3982 29.7942 80.4107 29.8306 80.3969C30.0386 80.3301 30.3155 80.1835 30.5099 80.1132C30.5165 80.111 30.6483 80.1432 30.6548 80.141C30.9206 80.0414 32.8029 79.2534 32.9937 79.1639C33.0222 79.1506 32.9714 79.0872 32.9998 79.0739C33.0449 79.0535 33.2077 79.054 33.4684 78.9225C33.4969 78.9092 33.4461 78.8458 33.4746 78.8325C33.4881 78.825 33.5446 78.8813 33.7922 78.7432C33.9208 78.6732 35.199 77.8725 35.2645 77.8173C35.2837 77.8028 35.2476 77.4064 35.481 77.8597Z" fill="#F34135"/>
<path d="M29.13 80.4712C29.1443 80.5373 29.1539 80.6044 29.1722 80.6758C29.1924 80.7569 29.2068 80.834 29.2296 80.9186C28.2573 81.1353 27.2556 81.2696 26.2592 81.2294C26.2381 81.1326 26.2398 81.0295 26.2249 80.9335C26.9802 80.8482 27.7279 80.7962 28.4799 80.6556C28.5137 80.6493 28.5162 80.7216 28.55 80.7153C28.5806 80.7086 29.0504 80.515 29.1348 80.4703L29.13 80.4712Z" fill="#FB978C"/>
<path d="M34.5078 73.5255C34.7159 73.5605 34.8689 73.6316 35.0658 73.6916C34.1483 75.4877 29.8291 77.305 27.9016 77.7502C28.0022 77.5997 27.8112 77.3839 27.7412 77.1535C29.3637 77.3192 30.4769 75.6252 31.8278 74.9566C32.2116 74.9547 32.4518 74.3929 32.4911 74.3686C32.5646 74.3239 33.7693 74.1815 33.8825 73.5646L34.5078 73.5255Z" fill="#CBE2D5"/>
<path d="M33.8252 72.5265C33.9739 72.8789 33.9414 73.1374 33.9239 73.5029C33.4094 73.5103 32.916 73.6145 32.4089 73.6934C32.3769 73.6984 32.1639 73.7442 32.183 73.7875C31.7277 73.695 31.3133 73.8164 30.8877 73.9738C30.7677 73.4813 30.8148 74.1281 30.5683 73.9517C30.5396 73.9321 30.5833 73.7064 30.421 73.2817C31.4957 72.9132 32.6902 72.5721 33.8256 72.5235L33.8252 72.5265Z" fill="#CBE2D5"/>
<path d="M26.5198 76.2464C26.6463 76.3734 26.7703 76.5987 26.9339 76.604C26.9318 76.6084 26.9282 76.6909 26.9278 76.6939C26.9364 77.0176 27.4511 77.123 27.7398 77.1518C27.8112 77.3839 28.0022 77.5997 27.9003 77.7485C27.1256 77.9282 25.7781 78.1183 25.0339 77.8842C25.1061 77.5873 25.3036 77.3359 25.5069 77.1103C25.7952 76.7899 26.1702 76.5003 26.5185 76.2446L26.5198 76.2464Z" fill="#AFCDC1"/>
<path d="M27.6314 74.4518C27.6875 74.6239 27.908 74.3302 28.0257 74.4419C28.0521 74.4659 28.0709 75.0571 28.0783 75.1505C28.0236 75.2635 26.7436 75.9638 26.5294 76.1097C26.1464 76.3669 25.8512 77.0776 25.5451 76.2997C25.5575 76.5847 25.9089 76.7725 25.6434 76.7453C25.5894 76.7394 25.1658 76.1441 25.4289 75.8594C26.0453 75.351 26.9173 74.8168 27.6314 74.4518Z" fill="#6A8A83"/>
<path d="M29.274 73.7216C29.0406 73.9039 29.2238 73.9495 29.345 74.4218C29.487 74.5729 29.8929 74.2515 29.9971 74.3927C29.7975 74.4779 29.5913 74.5543 29.3939 74.6461C28.3344 75.1326 27.4688 75.5519 26.5182 76.2475C26.1698 76.5032 25.7962 76.7946 25.5066 77.1132C25.3257 76.5622 25.168 76.6047 25.1486 76.5754C25.0991 76.5028 25.1674 76.2117 24.9379 76.2865C25.0642 76.1082 25.2597 75.9958 25.4253 75.8621C25.1622 76.1468 25.5859 76.7421 25.6398 76.748C25.904 76.7734 25.5544 76.5844 25.5416 76.3024C25.8477 77.0803 26.1411 76.3709 26.5258 76.1124C26.7396 75.9696 28.0197 75.2693 28.0748 75.1532C28.0673 75.0598 28.0486 74.4686 28.0221 74.4446C27.9045 74.3329 27.684 74.6266 27.6278 74.4545C28.1533 74.1856 28.7233 73.9463 29.2722 73.7229L29.274 73.7216Z" fill="#6A8A83"/>
<path d="M35.0659 73.6915C34.8708 73.6302 34.7161 73.5603 34.508 73.5254C34.3197 73.4947 34.1153 73.501 33.9223 73.5042C33.9384 73.1369 33.974 72.8788 33.8236 72.5278C34.6836 72.4897 35.6263 72.5899 35.0642 73.6928L35.0659 73.6915Z" fill="#6A8A83"/>
<path d="M30.4205 73.2847C30.5827 73.7094 30.5391 73.9351 30.5677 73.9547C30.8143 74.1311 30.7672 73.4844 30.8872 73.9768C30.5803 74.0911 30.3013 74.264 29.997 74.3927C29.8897 74.2511 29.4869 74.5729 29.3449 74.4218C29.2237 73.9496 29.0392 73.9022 29.2739 73.7217C29.6556 73.5645 30.0308 73.4205 30.4218 73.2865L30.4205 73.2847Z" fill="#809B91"/>
<path d="M35.5067 73.685C35.41 74.4325 33.7358 75.7095 33.1083 76.1052L33.0039 75.7495C33.7083 75.2845 34.7658 74.4722 35.2092 73.7646C35.3254 73.5802 35.3317 73.2508 35.4488 73.3326C35.5019 73.4355 35.5224 73.5713 35.5067 73.685Z" fill="#809B91"/>
<path d="M24.9426 76.2857C25.169 76.2105 25.1038 76.502 25.1533 76.5746C25.1745 76.6026 25.3305 76.5615 25.5113 77.1124C25.308 77.338 25.1105 77.5894 25.0383 77.8863C24.8912 77.841 24.6836 77.8359 24.565 77.7084C24.0194 77.1119 24.6837 76.6993 24.719 76.6478C24.7325 76.6294 24.6367 76.5175 24.944 76.2875L24.9426 76.2857Z" fill="#415D5C"/>
<path d="M28.8177 78.0329C27.8045 78.3191 26.805 78.5399 25.7495 78.4289L25.7151 78.133C25.8705 78.1528 26.2042 78.1283 26.2275 78.1409C26.388 78.2147 26.3479 78.3689 26.4297 78.4115C26.475 78.4349 27.4805 78.3637 27.2908 78.1387L27.6108 78.2705C27.7331 78.076 27.6286 77.9708 27.6513 77.9426C27.7337 77.8444 28.6255 77.7684 28.8082 77.6355C28.9542 77.6212 29.0452 77.9155 28.8181 78.0298L28.8177 78.0329Z" fill="#E4EEED"/>
<path d="M33.0021 75.7507L33.1065 76.1064C32.7995 76.3004 32.4167 76.6015 32.0756 76.7142C32.0624 76.7186 32.0758 76.6673 31.7881 76.7669C32.0181 76.6202 31.7605 76.5017 31.8018 76.4291C31.8366 76.3697 32.6785 75.9628 33.0021 75.7507Z" fill="#BAC2BE"/>
<path d="M24.2469 77.0633C24.1634 78.0099 25.026 78.0442 25.7133 78.1342L25.7477 78.4301C25.462 78.4017 24.9556 78.3617 24.7201 78.1962C24.3578 77.9396 24.1156 77.493 24.2482 77.065L24.2469 77.0633Z" fill="#A6B1AD"/>
<path d="M33.9253 73.5047C34.1165 73.5029 34.3213 73.4935 34.511 73.5259L33.8856 73.565C33.7711 74.1801 32.5678 74.3243 32.4943 74.369C32.4549 74.3933 32.2147 74.9551 31.8309 74.957C32.1353 74.6905 32.5017 74.5312 32.4765 74.0659C32.4706 73.9274 32.4056 73.8307 32.4102 73.6952C32.9174 73.6163 33.4108 73.5121 33.9253 73.5047Z" fill="#E4EEED"/>
<path d="M29.3956 74.6448C30.5986 74.2313 29.2132 75.105 28.5105 75.5467C28.1436 75.7779 27.0513 76.2067 26.9371 76.6042C26.7734 76.5989 26.6495 76.3736 26.5229 76.2466C27.4736 75.551 28.3374 75.133 29.3987 74.6452L29.3956 74.6448Z" fill="#CBE2D5"/>
<path d="M32.4764 74.0658C32.5002 74.5294 32.1352 74.6904 31.8308 74.9569C30.4769 75.6251 29.3654 77.3177 27.7442 77.1538C27.4555 77.125 26.9408 77.0196 26.9322 76.696C28.4174 77.6426 29.5105 76.3217 30.5618 75.5773C31.1396 75.1669 31.8324 74.8319 32.3141 74.3127C32.397 74.2224 32.4173 74.1657 32.4778 74.0676L32.4764 74.0658Z" fill="#2A474A"/>
<path d="M30.8872 73.9767C31.3128 73.8193 31.7271 73.698 32.1825 73.7905C32.3389 73.9279 32.3754 74.1286 32.311 74.3123C31.8293 74.8314 31.1365 75.1665 30.5587 75.5768C29.5074 76.3212 28.4143 77.6422 26.9291 76.6955C26.9282 76.6907 26.9348 76.6086 26.9352 76.6055C27.0508 76.2097 28.1418 75.7792 28.5087 75.548C29.2132 75.105 30.5967 74.2326 29.3938 74.6461C29.5894 74.5556 29.7974 74.4778 29.997 74.3926C30.2995 74.2652 30.5785 74.0923 30.8872 73.9767Z" fill="white"/>
<path d="M32.4102 73.695C32.4056 73.8306 32.4706 73.9272 32.4766 74.0658C32.4191 74.1644 32.3971 74.2224 32.3128 74.311C32.376 74.1255 32.3394 73.9248 32.1844 73.7892C32.167 73.7445 32.38 73.6987 32.4102 73.695Z" fill="#809B91"/>
<path d="M29.7119 75.9299C29.6775 76.3275 27.9942 77.182 27.5645 76.517C28.1399 76.0452 28.9806 75.6475 29.7119 75.9299Z" fill="#CBE2D5"/>
<path d="M31.9253 74.3406C31.8053 74.6434 30.3538 75.5315 30.1929 75.5516C30.0671 75.5671 30.1958 75.4173 30.0791 75.3324C30.3105 75.3689 30.9898 75.0743 30.7543 74.8289C30.6216 74.6901 30.3966 74.789 30.3794 74.6755C30.794 74.4274 31.4804 73.9677 31.9222 74.3402L31.9253 74.3406Z" fill="#CBE2D5"/>
<path d="M31.9254 74.3406C31.4835 73.9681 30.7971 74.4278 30.3825 74.6759C29.9732 74.9201 29.5015 75.3326 29.4401 75.3351C29.0353 75.3638 30.5117 74.3634 30.6075 74.3155C31.1169 74.0616 32.1312 73.8241 31.9254 74.3406Z" fill="#415D5C"/>
<path d="M29.7117 75.9299C28.9817 75.6492 28.141 76.0469 27.5644 76.5169C27.2355 76.0067 29.7714 75.2352 29.7117 75.9299Z" fill="#2A474A"/>
<path d="M30.7573 74.8292C30.9928 75.0745 30.3148 75.3709 30.0821 75.3326C30.0483 75.3279 29.9416 75.307 29.9288 75.2864C29.7859 75.0397 30.3539 75.4734 30.7573 74.8292Z" fill="#1F3438"/>
<g filter="url(#filter0_d_27_16278)">
<path d="M64.1635 50.1013V41.7913H66.6459V30.3176H69.1283H85.8695V30.3479V38.1736V50.1013H77.7411V38.1736H74.7592V50.1013H72.3222H64.1635ZM86.5356 50.1013V38.1736H89.6689L86.5356 34.6013V30.2874H94.6943L100.174 36.554V30.2571H108.242V41.9729H104.912L108.242 45.7571V50.1013H100.174L94.6943 43.865V50.1013H86.5356ZM121.32 50.1013V41.761C121.32 41.1656 121.522 40.6611 121.925 40.2473C122.329 39.8336 122.884 39.5359 123.59 39.3542C124.307 39.1625 124.998 39.0364 125.664 38.9758C126.34 38.9153 127.112 38.885 127.98 38.885C128.373 38.885 128.893 38.8951 129.539 38.9153V50.1013H121.32ZM121.32 38.2039V30.3176H138.53V50.1013H130.462V38.1282L121.32 38.2039ZM139.211 50.1013V41.761C139.211 41.1656 139.413 40.6611 139.817 40.2473C140.22 39.8336 140.775 39.5359 141.482 39.3542C142.198 39.1625 142.89 39.0364 143.556 38.9758C144.232 38.9153 145.004 38.885 145.871 38.885C146.265 38.885 146.785 38.8951 147.431 38.9153V50.1013H139.211ZM139.211 38.2039V30.3176H156.422V50.1013H148.354V38.1282L139.211 38.2039ZM157.103 38.0676V30.3176H173.663V38.0676H171.12C170.807 38.1484 170.484 38.2846 170.151 38.4763C169.818 38.658 169.404 39.0364 168.91 39.6116C168.415 40.1767 167.981 40.8629 167.608 41.6702C167.234 42.4775 166.906 43.6178 166.624 45.0911C166.351 46.5543 166.205 48.2143 166.185 50.071L160.827 50.1013H158.783C158.783 48.3051 158.904 46.6956 159.146 45.2727C159.399 43.8398 159.681 42.7146 159.994 41.8972C160.317 41.0798 160.705 40.3785 161.16 39.7932C161.614 39.2079 162.002 38.8093 162.325 38.5974C162.648 38.3754 162.976 38.1988 163.309 38.0676H157.103ZM36.8417 68.1736V60.3176H58.5478V68.1736H52.9623V80.1316L45.0004 80.1013V68.1736H36.8417ZM59.2138 71.761V63.239C59.2138 62.6235 59.4156 62.1088 59.8193 61.6951C60.2229 61.2813 60.7779 60.9836 61.4843 60.802C62.2008 60.6103 62.892 60.4791 63.558 60.4084C64.2341 60.3277 65.0061 60.2874 65.8739 60.2874C66.2675 60.2874 66.7872 60.2974 67.433 60.3176V71.761H59.2138ZM68.0839 80.1013V68.1736H71.2172L68.0839 64.6013V60.2874H76.2426L81.7221 66.554V60.2571H89.79V71.9729H86.4599L89.79 75.7571V80.1013H81.7221L76.2426 73.865V80.1013H68.0839ZM90.456 80.1013V67.4167C90.456 66.7104 90.8193 65.7921 91.5458 64.6619H90.456V60.3176H98.5087V60.3479L98.5541 80.1013H90.456ZM99.2353 68.1736V60.3176H99.2655H115.946V80.1013H107.878V71.7913V68.1736H99.2353ZM116.612 60.3176H124.771V71.6702H130.129V68.0374H127.586C127.586 67.9364 127.576 67.7952 127.556 67.6135C127.536 67.4218 127.521 67.0585 127.511 66.5237C127.501 65.9889 127.506 65.4792 127.526 64.9949C127.546 64.5004 127.607 63.9555 127.707 63.3601C127.808 62.7647 127.95 62.2551 128.131 61.8313C128.323 61.4075 128.59 61.0492 128.934 60.7566C129.277 60.4639 129.675 60.3176 130.129 60.3176H138.318V80.1316H116.642L116.612 60.3176ZM138.984 68.1282V60.3176H160.69L160.463 76.3474C160.463 76.408 160.463 76.4836 160.463 76.5745C160.463 76.6552 160.448 76.8267 160.418 77.0891C160.388 77.3414 160.332 77.5886 160.251 77.8308C160.171 78.0629 160.034 78.3253 159.843 78.6179C159.661 78.9005 159.424 79.1477 159.131 79.3596C158.849 79.5614 158.465 79.738 157.981 79.8894C157.507 80.0307 156.962 80.1013 156.346 80.1013H147.143C146.477 80.1215 145.882 80.1114 145.357 80.071C144.832 80.0307 144.348 79.955 143.904 79.844C143.46 79.7229 143.071 79.5917 142.738 79.4504C142.405 79.3092 142.108 79.0972 141.845 78.8147C141.593 78.5321 141.376 78.2597 141.194 77.9973C141.023 77.7249 140.871 77.3565 140.74 76.8923C140.619 76.4281 140.528 75.9841 140.468 75.5603C140.407 75.1365 140.357 74.5865 140.316 73.9104C140.276 73.2242 140.251 72.5834 140.241 71.988C140.231 71.3826 140.226 70.6156 140.226 69.6873C140.226 69.546 140.377 69.2937 140.68 68.9304C140.992 68.5671 141.149 68.2997 141.149 68.1282H138.984ZM147.143 71.761H152.622V68.2947H147.143V71.761ZM161.356 80.1013V68.1736H164.49L161.356 64.6013V60.2874H169.515L174.995 66.554V60.2571H183.062V71.9729H179.732L183.062 75.7571V80.1013H174.995L169.515 73.865V80.1013H161.356ZM183.728 80.1013V71.761C183.728 71.1656 183.93 70.6611 184.334 70.2473C184.738 69.8336 185.293 69.5359 185.999 69.3542C186.715 69.1625 187.407 69.0364 188.073 68.9758C188.749 68.9153 189.521 68.885 190.389 68.885C190.782 68.885 191.302 68.8951 191.948 68.9153V80.1013H183.728ZM183.728 68.2039V60.3176H200.939V80.1013H192.871V68.1282L183.728 68.2039Z" fill="#FEC91A"/>
</g>
<g clip-path="url(#clip2_27_16278)">
<path d="M185.658 2.62267C185.758 2.60922 185.791 2.47742 185.916 2.58233C186.112 2.7491 188.209 6.40742 188.423 6.88892C190.477 11.4726 190.495 15.6447 188.336 20.1961C185.9 25.3338 180.713 29.6942 175.325 32.29C174.247 32.8092 170.989 34.2967 170.267 33.9336C171.386 35.1306 173.565 36.8818 175.41 36.2819C177.438 35.6229 183.572 30.2242 185.136 28.4918C192.939 19.8517 194.546 8.96555 184.621 1.05713C185.007 1.54939 185.363 2.07931 185.66 2.62267H185.658Z" fill="#C62019"/>
<path d="M185.658 2.62279C186.914 4.9469 188.12 8.5299 188.251 11.1176C188.385 13.7349 187.886 15.903 186.868 18.3186C186.852 18.3563 187.01 18.4988 186.522 18.9454C185.938 20.8229 184.33 22.3535 183.238 24.0347C179.838 27.2869 175.862 29.9015 171.35 31.7468C170.972 31.8544 169.637 32.0723 169.447 32.1395C169.167 32.2363 169.588 32.6318 168.973 32.2175C169.325 32.8066 169.793 33.428 170.27 33.9391C170.989 34.3022 174.249 32.8147 175.328 32.2955C180.716 29.697 185.903 25.3367 188.338 20.2016C190.497 15.6475 190.48 11.4781 188.425 6.89442C188.209 6.41561 186.115 2.7546 185.918 2.58782C185.794 2.48291 185.758 2.61203 185.66 2.62817L185.658 2.62279Z" fill="#DE2F24"/>
<path d="M168.975 32.2147C169.59 32.629 169.169 32.2336 169.449 32.1367C169.639 32.0722 170.971 31.8516 171.352 31.744C175.865 29.9014 179.837 27.2841 183.24 24.0319C184.332 22.3534 185.941 20.8201 186.524 18.9426C187.015 18.496 186.854 18.3535 186.87 18.3158C187.888 15.9002 188.385 13.7321 188.253 11.1148C188.122 8.52981 186.916 4.94411 185.66 2.62001C185.366 2.07664 185.009 1.54672 184.621 1.05446C184.207 0.723598 183.523 0.112982 183.066 -0.00268555C188.583 11.1767 183.877 19.7388 172.13 24.6183C169.28 25.8019 167.29 25.1563 167.678 28.8846C167.789 29.9417 168.42 31.2786 168.975 32.212V32.2147Z" fill="#F3392B"/>
<path d="M185.009 4.18823C186.591 9.01399 186.333 13.1753 183.322 17.4577C180.457 21.5357 175.392 24.4946 170.485 26.1866C169.374 26.5685 168.153 26.4448 168.453 27.3217C168.721 28.0964 171.771 26.894 172.386 26.6573C175.441 25.4764 179.358 22.9667 181.593 20.7475C186.462 15.911 187.941 10.3482 185.007 4.19092L185.009 4.18823Z" fill="#FB7767"/>
</g>
<defs>
<filter id="filter0_d_27_16278" x="32.8418" y="30.2571" width="172.097" height="57.8745" filterUnits="userSpaceOnUse" color-interpolation-filters="sRGB">
<feFlood flood-opacity="0" result="BackgroundImageFix"/>
<feColorMatrix in="SourceAlpha" type="matrix" values="0 0 0 0 0 0 0 0 0 0 0 0 0 0 0 0 0 0 127 0" result="hardAlpha"/>
<feOffset dy="4"/>
<feGaussianBlur stdDeviation="2"/>
<feComposite in2="hardAlpha" operator="out"/>
<feColorMatrix type="matrix" values="0 0 0 0 0 0 0 0 0 0 0 0 0 0 0 0 0 0 0.25 0"/>
<feBlend mode="normal" in2="BackgroundImageFix" result="effect1_dropShadow_27_16278"/>
<feBlend mode="normal" in="SourceGraphic" in2="effect1_dropShadow_27_16278" result="shape"/>
</filter>
<linearGradient id="paint0_linear_27_16278" x1="37.013" y1="89.5972" x2="44.2576" y2="86.5727" gradientUnits="userSpaceOnUse">
<stop stop-color="#F12222"/>
<stop offset="1" stop-color="#A31A16"/>
</linearGradient>
<linearGradient id="paint1_linear_27_16278" x1="39.0476" y1="74.2096" x2="32.4473" y2="77.8266" gradientUnits="userSpaceOnUse">
<stop stop-color="#B71C1B"/>
<stop offset="1" stop-color="#F62121"/>
</linearGradient>
<clipPath id="clip0_27_16278">
<rect width="62.7531" height="59.479" fill="white" transform="translate(158.247 62.2073)"/>
</clipPath>
<clipPath id="clip1_27_16278">
<rect width="31.9779" height="30.254" fill="white" transform="translate(21.8271 28.1887) rotate(-8.49618)"/>
</clipPath>
<clipPath id="clip2_27_16278">
<rect width="77.4864" height="38.7432" fill="white" transform="matrix(-1 0 0 1 191.533 0)"/>
</clipPath>
</defs>
</svg>
