<svg width="116" height="133" viewBox="0 0 116 133" fill="none" xmlns="http://www.w3.org/2000/svg">
<path d="M34.249 53.3733L50.6857 93.2641C50.1102 93.2766 49.5309 93.1709 48.9473 93.1795C48.9099 93.0969 48.8223 93.1077 48.7516 93.1009C48.2916 92.7535 48.6963 92.6486 48.6731 92.5249C48.5907 92.1032 48.1731 91.7187 48.0161 91.3384C47.405 89.8599 46.778 88.3936 46.1669 86.9151C46.1563 86.8878 46.2593 86.7442 46.2455 86.7193C45.6865 85.3628 44.9979 84.1347 44.4007 82.7011C44.3901 82.6738 44.4931 82.5302 44.4793 82.5054C43.4062 79.9247 42.321 77.348 41.2422 74.7665C41.2203 74.7176 41.0961 74.8066 41.0774 74.7553C40.7609 73.9916 40.9428 74.0453 40.9281 74.006C40.7451 73.5648 40.4607 73.276 40.4436 73.2335C39.9758 72.1104 39.6338 70.9071 39.1652 69.7896C39.0228 69.4487 38.662 69.4851 38.8788 69.0989C36.5026 63.6275 34.1304 58.128 31.9587 52.5471C33.2407 52.9876 33.902 52.4562 34.2547 53.3741L34.249 53.3733Z" fill="#E42120"/>
<path d="M31.7472 48.1686C31.9316 49.5166 31.5854 50.8632 31.1278 52.1227C31.3493 52.3684 31.66 52.4456 31.9555 52.5495C34.1272 58.1304 36.5026 63.6275 38.8756 69.1013C38.6613 69.4907 39.022 69.4543 39.162 69.792C39.6306 70.9095 39.9726 72.1128 40.4404 73.2359C40.4575 73.2784 40.7419 73.5672 40.9249 74.0084C40.9396 74.0477 40.7577 73.994 41.0742 74.7577C41.0961 74.8066 41.2203 74.7176 41.239 74.7689C42.3178 77.3504 43.403 79.9271 44.4761 82.5078C44.4867 82.5351 44.3837 82.6787 44.3975 82.7035C44.9947 84.1371 45.6801 85.3676 46.2423 86.7217C46.2529 86.749 46.1499 86.8926 46.1637 86.9175C46.7748 88.396 47.4018 89.8623 48.0129 91.3408C48.1699 91.7211 48.5874 92.1057 48.6699 92.5273C48.6931 92.651 48.2884 92.7559 48.7484 93.1033C48.125 93.026 47.917 93.0777 47.4594 92.547L30.7572 52.6053C30.5924 51.9686 30.6367 51.6477 30.6779 51.0566C31.5904 50.9098 31.5603 48.4211 31.7464 48.1742L31.7472 48.1686Z" fill="#BD221D"/>
<path d="M48.9473 93.1793C49.5309 93.1708 50.1134 93.274 50.6857 93.2639C52.0931 93.2312 54.5711 92.9874 55.9281 92.6952C56.1024 92.659 56.0905 92.5369 56.1411 92.5238C56.174 92.5139 56.4461 92.5801 56.8146 92.4874C61.8605 91.2003 67.0159 88.4937 70.5426 84.6361C70.5667 84.6279 70.5859 84.6133 70.6124 84.6084C70.7971 84.5592 70.7986 84.548 70.9443 84.4275C70.669 85.3219 69.3118 86.885 68.566 87.5712C64.6187 91.2131 59.2626 93.0227 54.0422 93.8067C52.1944 93.7042 50.3508 93.6539 48.5334 93.3518C48.5197 93.3471 48.3524 93.3326 48.2524 93.2672L48.3128 93.1206C48.5175 93.2377 48.7319 93.1812 48.9473 93.1793Z" fill="#AFCDC1"/>
<path d="M39.5596 52.2889C39.5678 52.313 39.5824 52.3322 39.5873 52.3587C39.7101 52.8003 39.7993 53.2773 39.9157 53.7237L56.1435 92.527C56.0905 92.5369 56.1024 92.6591 55.9306 92.6985C54.5735 92.9906 52.0955 93.2345 50.6881 93.2672L34.2515 53.3765C34.1735 53.2137 34.1581 53.0337 34.1187 52.8618C35.9478 52.9331 37.7803 52.6893 39.5621 52.2921L39.5596 52.2889Z" fill="#F57066"/>
<path d="M34.0311 48.1878C33.9922 49.5739 33.839 50.9356 34.0557 52.3196C34.0831 52.4955 34.08 52.6844 34.1187 52.8619C34.1581 53.0337 34.1767 53.2113 34.2514 53.3765C33.8988 52.4586 33.2399 52.9933 31.9555 52.5495C31.66 52.4457 31.3517 52.3716 31.1278 52.1227C31.5878 50.8664 31.9316 49.5166 31.7472 48.1686C31.9484 47.8951 33.5367 48.1943 34.0279 48.1902L34.0311 48.1878Z" fill="#E42120"/>
<path d="M38.639 47.5604C38.9722 48.7854 39.0885 50.1699 39.3795 51.4723C39.2248 51.5543 38.364 51.9091 38.3078 51.9214C38.2459 51.933 38.2412 51.8003 38.1794 51.8119C36.8045 52.0671 35.4311 52.1648 34.0468 52.3212C33.8301 50.9372 33.9858 49.5787 34.0222 48.1894C35.5857 48.1696 37.1069 47.9144 38.6301 47.562L38.639 47.5604Z" fill="#FB978C"/>
<path d="M71.7448 83.2412C71.6286 83.4605 70.8433 84.2875 70.6125 84.6086C70.5885 84.6168 70.5668 84.6281 70.5427 84.6363C70.5123 84.6493 70.6328 84.3159 70.0039 84.9035C69.1944 83.1366 68.6461 81.3483 67.8185 79.4842C67.3953 79.5779 67.4109 78.5071 67.3849 78.4461C66.8505 77.1819 66.3281 75.9136 65.7944 74.6437C65.4989 74.5398 64.5638 72.4142 64.9969 72.5399C64.4954 70.933 63.1902 69.8696 62.9243 67.9681C61.8973 65.7811 61.0409 63.4598 59.9259 61.1831C59.6522 59.8171 58.9332 58.6221 58.4052 57.353C58.3946 57.3257 58.4976 57.1821 58.4838 57.1573C58.3634 56.8652 58.057 56.5275 57.6543 55.5569C57.6437 55.5296 57.8656 55.0437 57.5095 55.2127L53.1586 44.813C53.7885 44.0936 54.4939 43.201 54.6764 42.2306C54.6912 42.1437 54.7792 42.0669 54.7385 41.8002C54.944 42.0581 55.1253 42.3039 55.3083 42.5788L71.8657 82.1763C71.9269 82.6696 71.9774 82.8028 71.7448 83.2412Z" fill="#BD221D"/>
<path d="M33.1881 47.7273C35.1256 47.9283 36.9516 47.5229 38.8108 47.0016C40.8795 46.4173 42.916 45.6709 44.7812 44.5852C45.4064 44.3787 46.1078 43.827 46.6704 43.4713C47.8211 42.7405 50.8883 40.406 51.0656 39.0362C51.8167 39.7479 52.7836 40.2053 53.597 40.8194C52.7642 40.8252 51.883 39.1832 51.1422 39.8959C51.0758 39.9614 51.029 40.259 51.0155 40.2744C50.7982 40.56 50.8176 40.732 50.7792 40.7812C50.7417 40.8248 50.5761 40.8393 50.5386 40.8829C49.9503 41.5707 49.3519 42.1452 48.6951 42.7892C47.7597 43.3316 46.6287 43.982 46.2316 44.4695C45.3752 44.7302 44.4638 45.4308 44.1078 45.5998C42.3443 46.447 40.4843 46.974 38.6359 47.5628C37.1095 47.9176 35.5883 48.1728 34.028 48.1902C33.5369 48.1943 31.9486 47.8951 31.7473 48.1686C31.5637 48.4187 31.5945 50.9017 30.6789 51.051C30.7643 49.8061 31.2855 48.564 31.3017 47.301C31.7357 47.6075 32.6613 47.6777 33.1849 47.7298L33.1881 47.7273Z" fill="#BD221D"/>
<path d="M53.6002 40.8171C54.1303 41.2172 54.2822 41.218 54.7441 41.801C54.7849 42.0676 54.6992 42.1476 54.682 42.2313C53.2474 41.8156 51.6167 40.2626 51.3782 40.1609C51.118 40.0505 51.2063 40.1803 51.0186 40.272C51.0322 40.2567 51.079 39.959 51.1454 39.8936C51.8894 39.1785 52.7706 40.8204 53.6002 40.8171Z" fill="#BD221D"/>
<path d="M53.1611 44.816L57.5119 55.2157C57.8648 55.0492 57.6461 55.5326 57.6567 55.5599C58.0594 56.5305 58.3658 56.8682 58.4862 57.1602C58.4968 57.1875 58.3938 57.3311 58.4076 57.356C58.9356 58.6251 59.6546 59.8201 59.9283 61.1861C61.0433 63.4627 61.8998 65.7841 62.9267 67.9711C63.1951 69.8758 64.501 70.9336 64.9994 72.5429C64.5638 72.414 65.5013 74.5428 65.7968 74.6467C66.328 75.9134 66.8504 77.1817 67.3873 78.4491C67.4133 78.5101 67.3953 79.5777 67.8209 79.4872C68.6461 81.348 69.1968 83.1396 70.0063 84.9065C70.6344 84.3245 70.5115 84.6547 70.5452 84.6393C67.0185 88.4969 61.8662 91.2011 56.8171 92.4907C56.4486 92.5834 56.1758 92.5228 56.1436 92.527L39.9158 53.7236C39.7994 53.2773 39.7102 52.8002 39.5874 52.3587C44.5147 50.9748 47.0698 49.9211 51.0184 46.6868C51.1025 46.618 51.4108 46.5458 51.466 46.4989C51.7686 46.2393 51.7797 46.0544 51.7997 46.0342C52.1478 45.7149 52.8957 45.1179 53.1579 44.8184L53.1611 44.816Z" fill="url(#paint0_linear_27_319)"/>
<path d="M54.6787 42.2338C54.4963 43.2042 53.7933 44.0999 53.161 44.8161C52.8956 45.1181 52.1534 45.7158 51.8029 46.0319L51.5237 45.6635C49.7454 46.5976 52.3588 45.1417 52.7366 44.6687C53.0554 44.2708 53.1753 43.8168 52.9478 43.3236C52.8592 43.1335 51.6061 42.0256 51.3381 41.805C51.1783 41.674 50.2423 41.4504 50.5449 40.8781C50.5825 40.8345 50.7536 40.8208 50.7856 40.7764C50.8239 40.7272 50.807 40.5585 51.0218 40.2696C51.2095 40.1778 51.1236 40.0513 51.3814 40.1585C51.6174 40.257 53.2449 41.8124 54.6851 42.2289L54.6787 42.2338Z" fill="#E42120"/>
<path d="M50.5393 40.8773C50.2367 41.4496 51.1727 41.6732 51.3325 41.8043C51.6005 42.0248 52.8537 43.1327 52.9422 43.3228C53.1754 43.8168 53.0498 44.27 52.7311 44.6679C52.3532 45.1409 49.7398 46.5968 51.5214 45.6603L51.8005 46.0287C51.7749 46.0481 51.7638 46.2331 51.4636 46.4958C51.4052 46.5452 51.1 46.615 51.016 46.6837C50.5882 45.8531 50.6513 46.5819 50.6193 46.6061C50.496 46.7096 48.1568 48.1747 47.9211 48.3029C47.4681 48.5503 47.3672 48.4503 47.3391 48.4665C47.2894 48.4941 47.38 48.607 47.3279 48.6314C46.85 48.8725 46.5517 48.8716 46.4691 48.909C46.417 48.9334 46.51 49.0494 46.4579 49.0738C46.1082 49.2379 42.6612 50.6852 42.1717 50.8645C42.1621 50.8718 41.9182 50.8095 41.9062 50.8135C41.5499 50.9423 41.0456 51.2085 40.6611 51.3334C40.5953 51.353 39.6796 51.3359 39.4522 51.841C39.421 51.7134 39.4035 51.5905 39.3748 51.466C39.0813 50.1604 38.9675 48.7791 38.6343 47.554C40.4826 46.9653 42.3426 46.4383 44.1061 45.5911C44.4654 45.4197 45.3767 44.719 46.2299 44.4607C46.627 43.9732 47.7581 43.3229 48.6935 42.7804C49.3502 42.1365 49.9455 41.5644 50.5369 40.8741L50.5393 40.8773Z" fill="url(#paint1_linear_27_319)"/>
<path d="M51.0216 46.6845C47.0754 49.922 44.5179 50.9726 39.5906 52.3564C39.5825 52.3323 39.5679 52.3131 39.5629 52.2866C39.5236 52.1349 39.4948 51.9903 39.4578 51.8418C39.6852 51.3366 40.6002 51.3594 40.6668 51.3342C41.048 51.2117 41.5555 50.9431 41.9118 50.8143C41.9238 50.8102 42.1653 50.8693 42.1773 50.8652C42.6643 50.6827 46.1138 49.2387 46.4635 49.0746C46.5156 49.0502 46.4226 48.9341 46.4747 48.9097C46.5573 48.8723 46.8556 48.8733 47.3335 48.6321C47.3856 48.6078 47.2926 48.4917 47.3447 48.4673C47.3696 48.4535 47.473 48.5567 47.9267 48.3036C48.1624 48.1754 50.5048 46.708 50.6249 46.6069C50.6601 46.5802 50.5938 45.8538 51.0216 46.6845Z" fill="#F34135"/>
<path d="M39.3828 51.4699C39.4091 51.5911 39.4266 51.714 39.4602 51.8449C39.4971 51.9934 39.5235 52.1348 39.5653 52.2897C37.7835 52.6869 35.9479 52.9331 34.1219 52.8594C34.0832 52.682 34.0863 52.493 34.0589 52.3171C35.4432 52.1607 36.8133 52.0655 38.1915 51.8078C38.2533 51.7962 38.258 51.9289 38.3199 51.9173C38.3761 51.905 39.2369 51.5502 39.3916 51.4682L39.3828 51.4699Z" fill="#FB978C"/>
<path d="M49.2384 38.7413C49.6197 38.8053 49.9001 38.9357 50.2608 39.0457C48.5794 42.3371 40.6642 45.6675 37.132 46.4833C37.3163 46.2075 36.9663 45.8121 36.838 45.3899C39.8114 45.6934 41.8515 42.5892 44.3269 41.3638C45.0303 41.3603 45.4705 40.3308 45.5426 40.2862C45.6773 40.2044 47.885 39.9434 48.0924 38.8129L49.2384 38.7413Z" fill="#CBE2D5"/>
<path d="M47.9873 36.9108C48.2598 37.5565 48.2002 38.0303 48.1682 38.7001C47.2253 38.7136 46.3211 38.9046 45.3918 39.0491C45.3331 39.0582 44.9429 39.1422 44.9778 39.2216C44.1434 39.0521 43.384 39.2745 42.6041 39.563C42.3841 38.6605 42.4704 39.8458 42.0186 39.5225C41.9662 39.4866 42.0462 39.073 41.7489 38.2947C43.7182 37.6193 45.9073 36.9943 47.988 36.9051L47.9873 36.9108Z" fill="#CBE2D5"/>
<path d="M34.5998 43.7275C34.8316 43.9603 35.0588 44.3732 35.3587 44.3829C35.3547 44.391 35.3482 44.5422 35.3474 44.5478C35.3632 45.141 36.3063 45.334 36.8355 45.3869C36.9663 45.8123 37.3163 46.2076 37.1296 46.4803C35.71 46.8097 33.2406 47.158 31.8767 46.7291C32.009 46.185 32.3709 45.7242 32.7435 45.3108C33.2719 44.7237 33.959 44.193 34.5973 43.7243L34.5998 43.7275Z" fill="#AFCDC1"/>
<path d="M36.6365 40.4391C36.7394 40.7545 37.1435 40.2163 37.3591 40.421C37.4076 40.465 37.4419 41.5484 37.4556 41.7196C37.3554 41.9267 35.0096 43.2101 34.617 43.4773C33.9152 43.9486 33.3742 45.2512 32.8133 43.8255C32.836 44.3479 33.48 44.692 32.9934 44.6421C32.8945 44.6314 32.1181 43.5404 32.6003 43.0187C33.7299 42.087 35.3279 41.108 36.6365 40.4391Z" fill="#6A8A83"/>
<path d="M39.6468 39.1011C39.2192 39.4352 39.5548 39.5187 39.777 40.3842C40.0372 40.6611 40.781 40.0721 40.972 40.3308C40.6063 40.487 40.2283 40.6271 39.8666 40.7953C37.9249 41.6869 36.3386 42.4552 34.5966 43.73C33.9582 44.1986 33.2736 44.7326 32.7427 45.3164C32.4113 44.3068 32.1223 44.3846 32.0867 44.3309C31.996 44.1979 32.1211 43.6643 31.7006 43.8015C31.9321 43.4747 32.2904 43.2688 32.5938 43.0237C32.1117 43.5454 32.888 44.6364 32.987 44.6472C33.4711 44.6938 32.8303 44.3473 32.8068 43.8305C33.3678 45.2562 33.9056 43.9561 34.6106 43.4823C35.0024 43.2207 37.3481 41.9373 37.4492 41.7246C37.4355 41.5534 37.4011 40.47 37.3527 40.426C37.137 40.2213 36.733 40.7595 36.6301 40.4441C37.5931 39.9513 38.6376 39.5129 39.6436 39.1035L39.6468 39.1011Z" fill="#6A8A83"/>
<path d="M50.2608 39.0457C49.9033 38.9334 49.6197 38.8054 49.2384 38.7413C48.8932 38.6852 48.5187 38.6967 48.165 38.7025C48.1946 38.0295 48.2598 37.5565 47.9841 36.9131C49.5601 36.8434 51.2877 37.0269 50.2576 39.0482L50.2608 39.0457Z" fill="#6A8A83"/>
<path d="M41.7481 38.3003C42.0454 39.0786 41.9655 39.4921 42.0179 39.5281C42.4697 39.8514 42.3834 38.6661 42.6033 39.5686C42.0409 39.778 41.5296 40.0948 40.9721 40.3307C40.7754 40.0712 40.0372 40.6609 39.777 40.3841C39.5548 39.5186 39.2168 39.4319 39.6468 39.1009C40.3463 38.8129 41.0339 38.549 41.7506 38.3035L41.7481 38.3003Z" fill="#809B91"/>
<path d="M51.0687 39.0337C50.8914 40.4036 47.8234 42.7436 46.6735 43.4688L46.4821 42.817C47.7729 41.9649 49.7109 40.4762 50.5236 39.1795C50.7365 38.8416 50.748 38.2379 50.9626 38.3879C51.06 38.5763 51.0974 38.8254 51.0687 39.0337Z" fill="#809B91"/>
<path d="M31.7094 43.7996C32.1243 43.6617 32.0048 44.1961 32.0955 44.3291C32.1343 44.3803 32.4201 44.3049 32.7515 45.3146C32.379 45.728 32.0171 46.1888 31.8848 46.7329C31.6151 46.6498 31.2348 46.6404 31.0174 46.4068C30.0175 45.3137 31.2349 44.5576 31.2995 44.4632C31.3243 44.4294 31.1488 44.2244 31.7118 43.8028L31.7094 43.7996Z" fill="#415D5C"/>
<path d="M38.8106 47.0016C36.9539 47.5261 35.1223 47.9307 33.188 47.7273L33.125 47.185C33.4097 47.2214 34.0212 47.1766 34.064 47.1997C34.358 47.3349 34.2847 47.6174 34.4346 47.6954C34.5176 47.7384 36.3602 47.6079 36.0125 47.1956L36.5989 47.4371C36.8231 47.0806 36.6316 46.8878 36.6731 46.8362C36.8242 46.6562 38.4585 46.517 38.7934 46.2734C39.0609 46.2471 39.2276 46.7865 38.8114 46.996L38.8106 47.0016Z" fill="#E4EEED"/>
<path d="M46.4788 42.8194L46.6702 43.4712C46.1076 43.8269 45.4062 44.3787 44.781 44.5852C44.7569 44.5933 44.7814 44.4991 44.2541 44.6818C44.6756 44.4128 44.2035 44.1957 44.2792 44.0627C44.3429 43.9539 45.8859 43.2083 46.4788 42.8194Z" fill="#BAC2BE"/>
<path d="M30.4343 45.2249C30.2813 46.9596 31.8621 47.0225 33.1217 47.1874L33.1847 47.7297C32.6612 47.6777 31.7331 47.6043 31.3015 47.301C30.6376 46.8308 30.1938 46.0123 30.4367 45.2281L30.4343 45.2249Z" fill="#A6B1AD"/>
<path d="M48.1706 38.7034C48.5211 38.7 48.8964 38.6829 49.244 38.7423L48.098 38.8139C47.8882 39.9411 45.6829 40.2053 45.5482 40.2872C45.4761 40.3318 45.0359 41.3613 44.3325 41.3648C44.8904 40.8765 45.5618 40.5846 45.5157 39.7319C45.5048 39.4779 45.3858 39.3008 45.3942 39.0524C46.3236 38.9079 47.2278 38.7169 48.1706 38.7034Z" fill="#E4EEED"/>
<path d="M39.8698 40.7929C42.0742 40.0351 39.5355 41.6362 38.2477 42.4457C37.5754 42.8694 35.5736 43.6551 35.3642 44.3837C35.0644 44.3739 34.8372 43.961 34.6053 43.7283C36.3474 42.4535 37.9305 41.6876 39.8754 40.7936L39.8698 40.7929Z" fill="#CBE2D5"/>
<path d="M45.5157 39.7318C45.5593 40.5813 44.8904 40.8764 44.3325 41.3647C41.8514 42.5893 39.8146 45.6911 36.8436 45.3908C36.3144 45.3379 35.3713 45.1449 35.3554 44.5517C38.0771 46.2866 40.0804 43.8658 42.0069 42.5017C43.0659 41.7496 44.3354 41.1356 45.2181 40.1842C45.37 40.0187 45.4073 39.9148 45.5181 39.735L45.5157 39.7318Z" fill="#2A474A"/>
<path d="M42.6034 39.5686C43.3833 39.2802 44.1427 39.0577 44.9771 39.2272C45.2637 39.479 45.3307 39.8468 45.2126 40.1835C44.3298 41.1348 43.0604 41.7489 42.0014 42.5009C40.0749 43.865 38.0716 46.2858 35.3499 44.5509C35.3482 44.5421 35.3604 44.3917 35.3611 44.3861C35.573 43.6607 37.5723 42.8718 38.2446 42.4481C39.5356 41.6362 42.0711 40.0375 39.8667 40.7953C40.2252 40.6295 40.6063 40.4869 40.9721 40.3308C41.5264 40.0973 42.0377 39.7804 42.6034 39.5686Z" fill="white"/>
<path d="M45.3942 39.0521C45.3858 39.3006 45.5048 39.4776 45.5158 39.7316C45.4105 39.9122 45.3701 40.0185 45.2157 40.1808C45.3314 39.841 45.2645 39.4732 44.9803 39.2246C44.9485 39.1428 45.3388 39.0588 45.3942 39.0521Z" fill="#809B91"/>
<path d="M40.4492 43.1475C40.3861 43.8761 37.3014 45.4421 36.5139 44.2234C37.5683 43.3588 39.1089 42.6301 40.4492 43.1475Z" fill="#CBE2D5"/>
<path d="M44.5055 40.235C44.2856 40.79 41.6256 42.4174 41.3308 42.4542C41.1002 42.4827 41.336 42.2082 41.1222 42.0525C41.5461 42.1195 42.7911 41.5796 42.3596 41.1299C42.1163 40.8755 41.704 41.0568 41.6725 40.8488C42.4323 40.394 43.6902 39.5517 44.4998 40.2342L44.5055 40.235Z" fill="#CBE2D5"/>
<path d="M44.5054 40.2351C43.6957 39.5526 42.4378 40.3949 41.678 40.8496C40.9278 41.2971 40.0634 42.053 39.9509 42.0576C39.2092 42.1103 41.9147 40.2769 42.0903 40.1892C43.0237 39.7239 44.8825 39.2886 44.5054 40.2351Z" fill="#415D5C"/>
<path d="M40.4489 43.1477C39.1111 42.6334 37.5705 43.3622 36.5137 44.2236C35.911 43.2884 40.5583 41.8746 40.4489 43.1477Z" fill="#2A474A"/>
<path d="M42.3651 41.1309C42.7966 41.5805 41.5542 42.1237 41.1278 42.0534C41.0658 42.0449 40.8703 42.0065 40.8468 41.9688C40.5849 41.5167 41.6258 42.3114 42.3651 41.1309Z" fill="#1F3438"/>
<defs>
<linearGradient id="paint0_linear_27_319" x1="53.8293" y1="68.194" x2="67.1055" y2="62.6514" gradientUnits="userSpaceOnUse">
<stop stop-color="#F12222"/>
<stop offset="1" stop-color="#A31A16"/>
</linearGradient>
<linearGradient id="paint1_linear_27_319" x1="57.5578" y1="39.9955" x2="45.4622" y2="46.6239" gradientUnits="userSpaceOnUse">
<stop stop-color="#B71C1B"/>
<stop offset="1" stop-color="#F62121"/>
</linearGradient>
</defs>
</svg>
