<?xml version="1.0" encoding="UTF-8"?>
<svg id="Layer_2" xmlns="http://www.w3.org/2000/svg" viewBox="0 0 149.16 418.21">
  <defs>
    <style>
      .cls-1 {
        fill: #fff;
      }

      .cls-2 {
        fill: #a9a29d;
      }
    </style>
  </defs>
  <g id="Layer_1-2" data-name="Layer_1">
    <g>
      <g>
        <path class="cls-1" d="M23.71.79l95.28,57.52c-19.64,8.53-39.28,17.05-58.92,25.58-19.79,8.59-39.59,17.19-59.38,25.78C8.36,73.38,16.04,37.09,23.71.79Z"/>
        <path class="cls-2" d="M0,110.52L23.36,0l96.71,58.39L0,110.52ZM24.05,1.58L1.38,108.83l116.52-50.59L24.05,1.58Z"/>
      </g>
      <path class="cls-1" d="M112.66,418.21l-25.93-13.86c.55-1.35,55.21-136.79,24.65-213.7-16.43-41.35-69.61-104.76-70.15-105.4l20.63-22.67c2.32,2.76,57.12,68.09,75.59,114.56,36.02,90.64-22.29,234.97-24.79,241.07Z"/>
    </g>
  </g>
</svg>