<svg width="384" height="340" viewBox="0 0 384 340" fill="none" xmlns="http://www.w3.org/2000/svg">
<path d="M22.5007 22.33C20.726 22.33 19.3547 21.6773 18.3867 20.372C17.4187 19.052 16.9347 17.1527 16.9347 14.674C16.9347 12.1953 17.4187 10.3033 18.3867 8.998C19.3547 7.69267 20.726 7.04 22.5007 7.04C24.2754 7.04 25.6467 7.7 26.6147 9.02C27.5827 10.3253 28.0667 12.2173 28.0667 14.696C28.0667 17.1747 27.5827 19.0667 26.6147 20.372C25.6467 21.6773 24.2754 22.33 22.5007 22.33ZM22.5007 19.558C23.2634 19.558 23.8574 19.14 24.2827 18.304C24.708 17.4533 24.9207 16.258 24.9207 14.718C24.9207 13.178 24.708 11.9753 24.2827 11.11C23.8574 10.23 23.2634 9.79 22.5007 9.79C21.738 9.79 21.144 10.2153 20.7187 11.066C20.2934 11.902 20.0807 13.09 20.0807 14.63C20.0807 16.17 20.2934 17.38 20.7187 18.26C21.144 19.1253 21.738 19.558 22.5007 19.558Z" fill="white"/>
<path d="M5.77676 86.338H8.30676V78.33L5.73276 77.296V76.218L9.69276 74.238H11.3868V86.338H13.8288L13.6088 89H5.55676L5.77676 86.338Z" fill="white"/>
<path d="M4.87338 134.69C6.48672 132.959 7.68938 131.639 8.48138 130.73C9.28805 129.806 9.88938 129.014 10.2854 128.354C10.6814 127.679 10.8794 127.071 10.8794 126.528C10.8794 126.029 10.7254 125.633 10.4174 125.34C10.124 125.047 9.73538 124.9 9.25138 124.9C8.32738 124.9 7.47672 125.45 6.69938 126.55L4.43338 124.944C5.10805 123.961 5.87805 123.228 6.74338 122.744C7.62338 122.26 8.56938 122.018 9.58138 122.018C10.432 122.018 11.1947 122.187 11.8694 122.524C12.5441 122.847 13.0721 123.323 13.4534 123.954C13.8494 124.57 14.0474 125.296 14.0474 126.132C14.0474 127.291 13.6441 128.471 12.8374 129.674C12.0454 130.877 10.7474 132.373 8.94338 134.162H14.0694L13.8274 137H4.87338V134.69Z" fill="white"/>
<path d="M6.54839 189.33C5.80039 189.33 5.03039 189.264 4.23839 189.132L4.63439 186.404C5.48506 186.551 6.21839 186.624 6.83439 186.624C8.00772 186.624 8.94639 186.375 9.65039 185.876C10.3544 185.377 10.7064 184.725 10.7064 183.918C10.7064 183.405 10.5597 183.001 10.2664 182.708C9.97306 182.415 9.56239 182.268 9.03439 182.268C8.66772 182.268 8.26439 182.341 7.82439 182.488L7.38439 180.376C8.08839 180.156 8.72639 179.797 9.29839 179.298C9.88506 178.785 10.1784 178.271 10.1784 177.758C10.1784 177.435 10.0537 177.179 9.80439 176.988C9.56972 176.783 9.24706 176.68 8.83639 176.68C8.42572 176.68 8.00039 176.797 7.56039 177.032C7.12039 177.252 6.70972 177.567 6.32839 177.978L4.48039 175.954C5.09639 175.353 5.80039 174.883 6.59239 174.546C7.39906 174.194 8.23506 174.018 9.10039 174.018C9.90706 174.018 10.6184 174.165 11.2344 174.458C11.8504 174.737 12.3271 175.133 12.6644 175.646C13.0017 176.145 13.1704 176.709 13.1704 177.34C13.1704 178.396 12.6937 179.379 11.7404 180.288C12.4297 180.611 12.9504 181.08 13.3024 181.696C13.6691 182.297 13.8524 182.987 13.8524 183.764C13.8524 184.805 13.5444 185.751 12.9284 186.602C12.3271 187.453 11.4691 188.12 10.3544 188.604C9.23972 189.088 7.97106 189.33 6.54839 189.33Z" fill="white"/>
<path d="M9.35559 234.7H2.95359L2.73359 232.434L9.33359 223.348H12.2376V232.236H13.9316L13.7116 234.7H12.2376V238H9.35559V234.7ZM9.35559 232.236V227.176L5.92359 232.236H9.35559Z" fill="white"/>
<path d="M6.62668 290.33C5.87868 290.33 5.10868 290.264 4.31668 290.132L4.71268 287.404C5.56335 287.551 6.29668 287.624 6.91268 287.624C8.08601 287.624 9.01735 287.36 9.70668 286.832C10.4107 286.289 10.7627 285.585 10.7627 284.72C10.7627 284.104 10.5867 283.642 10.2347 283.334C9.89735 283.011 9.39868 282.85 8.73868 282.85C8.06401 282.85 7.41868 282.997 6.80268 283.29L5.57068 282.388L5.98868 275.348H13.4687L13.2927 277.944H8.54068L8.40868 280.43C8.65801 280.371 8.98068 280.342 9.37668 280.342C10.7407 280.342 11.8333 280.731 12.6547 281.508C13.4907 282.271 13.9087 283.319 13.9087 284.654C13.9087 285.739 13.6007 286.715 12.9847 287.58C12.3833 288.445 11.5327 289.12 10.4327 289.604C9.33268 290.088 8.06401 290.33 6.62668 290.33Z" fill="white"/>
<path d="M9.32409 339.352C7.78409 339.352 6.59609 338.846 5.76009 337.834C4.93875 336.807 4.52809 335.128 4.52809 332.796C4.52809 330.127 5.07809 328 6.17809 326.416C7.27809 324.817 8.90609 324.018 11.0621 324.018C11.7661 324.018 12.4701 324.099 13.1741 324.26L13.0641 326.812C12.3014 326.709 11.7001 326.658 11.2601 326.658C10.2334 326.658 9.43409 326.922 8.86209 327.45C8.29009 327.978 7.90875 328.851 7.71809 330.068C8.71542 329.731 9.62475 329.562 10.4461 329.562C11.7368 329.562 12.7268 329.958 13.4161 330.75C14.1201 331.542 14.4721 332.649 14.4721 334.072C14.4721 335.744 14.0028 337.042 13.0641 337.966C12.1401 338.89 10.8934 339.352 9.32409 339.352ZM9.63209 336.778C10.2041 336.778 10.6514 336.573 10.9741 336.162C11.3114 335.751 11.4801 335.135 11.4801 334.314C11.4801 332.803 10.9228 332.048 9.80809 332.048C9.22142 332.048 8.46609 332.231 7.54209 332.598C7.51275 333.126 7.49809 333.485 7.49809 333.676C7.49809 334.615 7.68142 335.37 8.04809 335.942C8.41475 336.499 8.94275 336.778 9.63209 336.778Z" fill="white"/>
<path d="M72.7768 19.338H75.3068V11.33L72.7328 10.296V9.218L76.6928 7.238H78.3868V19.338H80.8288L80.6088 22H72.5568L72.7768 19.338Z" fill="white"/>
<path d="M130.873 19.69C132.487 17.9593 133.689 16.6393 134.481 15.73C135.288 14.806 135.889 14.014 136.285 13.354C136.681 12.6793 136.879 12.0707 136.879 11.528C136.879 11.0293 136.725 10.6333 136.417 10.34C136.124 10.0467 135.735 9.9 135.251 9.9C134.327 9.9 133.477 10.45 132.699 11.55L130.433 9.944C131.108 8.96133 131.878 8.228 132.743 7.744C133.623 7.26 134.569 7.018 135.581 7.018C136.432 7.018 137.195 7.18667 137.869 7.524C138.544 7.84667 139.072 8.32333 139.453 8.954C139.849 9.57 140.047 10.296 140.047 11.132C140.047 12.2907 139.644 13.4713 138.837 14.674C138.045 15.8767 136.747 17.3727 134.943 19.162H140.069L139.827 22H130.873V19.69Z" fill="white"/>
<path d="M191.548 22.33C190.8 22.33 190.03 22.264 189.238 22.132L189.634 19.404C190.485 19.5507 191.218 19.624 191.834 19.624C193.008 19.624 193.946 19.3747 194.65 18.876C195.354 18.3773 195.706 17.7247 195.706 16.918C195.706 16.4047 195.56 16.0013 195.266 15.708C194.973 15.4147 194.562 15.268 194.034 15.268C193.668 15.268 193.264 15.3413 192.824 15.488L192.384 13.376C193.088 13.156 193.726 12.7967 194.298 12.298C194.885 11.7847 195.178 11.2713 195.178 10.758C195.178 10.4353 195.054 10.1787 194.804 9.988C194.57 9.78267 194.247 9.68 193.836 9.68C193.426 9.68 193 9.79733 192.56 10.032C192.12 10.252 191.71 10.5673 191.328 10.978L189.48 8.954C190.096 8.35267 190.8 7.88333 191.592 7.546C192.399 7.194 193.235 7.018 194.1 7.018C194.907 7.018 195.618 7.16467 196.234 7.458C196.85 7.73667 197.327 8.13267 197.664 8.646C198.002 9.14467 198.17 9.70933 198.17 10.34C198.17 11.396 197.694 12.3787 196.74 13.288C197.43 13.6107 197.95 14.08 198.302 14.696C198.669 15.2973 198.852 15.9867 198.852 16.764C198.852 17.8053 198.544 18.7513 197.928 19.602C197.327 20.4527 196.469 21.12 195.354 21.604C194.24 22.088 192.971 22.33 191.548 22.33Z" fill="white"/>
<path d="M253.356 18.7H246.954L246.734 16.434L253.334 7.348H256.238V16.236H257.932L257.712 18.7H256.238V22H253.356V18.7ZM253.356 16.236V11.176L249.924 16.236H253.356Z" fill="white"/>
<path d="M306.627 22.33C305.879 22.33 305.109 22.264 304.317 22.132L304.713 19.404C305.094 19.4627 305.475 19.514 305.857 19.558C306.238 19.602 306.59 19.624 306.913 19.624C308.086 19.624 309.017 19.3527 309.707 18.81C310.411 18.2673 310.763 17.5707 310.763 16.72C310.763 15.4733 310.088 14.85 308.739 14.85C308.064 14.85 307.419 14.9967 306.803 15.29L305.571 14.388L305.989 7.348H313.469L313.293 9.944H308.541L308.409 12.43C308.555 12.4007 308.709 12.3787 308.871 12.364C309.032 12.3493 309.201 12.342 309.377 12.342C310.726 12.342 311.819 12.7233 312.655 13.486C313.491 14.2487 313.909 15.3047 313.909 16.654C313.909 17.7393 313.601 18.7147 312.985 19.58C312.383 20.4307 311.54 21.1053 310.455 21.604C309.369 22.088 308.093 22.33 306.627 22.33Z" fill="white"/>
<path d="M368.324 22.352C367.356 22.352 366.513 22.1467 365.794 21.736C365.075 21.3107 364.518 20.6213 364.122 19.668C363.726 18.7 363.528 17.4093 363.528 15.796C363.528 14.08 363.763 12.562 364.232 11.242C364.701 9.922 365.413 8.888 366.366 8.14C367.334 7.392 368.566 7.018 370.062 7.018C370.355 7.018 370.685 7.04 371.052 7.084C371.419 7.11333 371.793 7.172 372.174 7.26L372.064 9.812C371.741 9.768 371.426 9.73133 371.118 9.702C370.825 9.67267 370.539 9.658 370.26 9.658C369.277 9.658 368.493 9.91467 367.906 10.428C367.319 10.9267 366.923 11.8067 366.718 13.068C367.231 12.892 367.715 12.7673 368.17 12.694C368.625 12.606 369.05 12.562 369.446 12.562C370.751 12.562 371.749 12.9653 372.438 13.772C373.127 14.564 373.472 15.664 373.472 17.072C373.472 18.7587 372.995 20.064 372.042 20.988C371.103 21.8973 369.864 22.352 368.324 22.352ZM368.632 19.778C369.189 19.778 369.637 19.58 369.974 19.184C370.311 18.788 370.48 18.1647 370.48 17.314C370.48 16.6393 370.348 16.0967 370.084 15.686C369.835 15.2607 369.409 15.048 368.808 15.048C368.221 15.048 367.466 15.2313 366.542 15.598C366.527 15.7887 366.513 15.9793 366.498 16.17C366.498 16.346 366.498 16.5147 366.498 16.676C366.498 17.5853 366.674 18.3333 367.026 18.92C367.378 19.492 367.913 19.778 368.632 19.778Z" fill="white"/>
</svg>
