<svg width="141" height="132" viewBox="0 0 141 132" fill="none" xmlns="http://www.w3.org/2000/svg">
<g clip-path="url(#clip0_40_2753)">
<path d="M122.952 65.4836C120.938 91.0495 99.6141 113.118 74.3031 116.087C64.4599 117.24 54.8964 116.503 45.7403 112.701C43.3355 111.701 42.0731 112.805 40.4273 113.894C33.0209 118.809 25.7664 124.011 18.0645 128.422C14.5091 130.455 10.1228 131.432 6.0002 131.944C1.7098 132.48 -0.910782 129.222 0.295644 125.076C1.35826 121.426 2.88427 117.728 5.03346 114.622C10.1708 107.194 15.8034 100.11 21.5239 92.4983C12.9511 79.4992 9.72334 64.7872 13.6063 48.9385C16.5385 36.956 22.9381 27.0226 32.4217 19.0663C51.357 3.16959 80.9983 0.808299 102.634 18.8261C108.922 14.4798 115.146 9.98931 121.577 5.81103C124.789 3.72189 128.217 1.76082 131.82 0.568167C134.073 -0.176239 137.381 -0.272292 139.226 0.896346C141.959 2.6413 141.096 6.24326 139.634 8.54051C135.08 15.6964 130.222 22.6602 125.245 29.528C123.151 32.4175 120.459 34.8669 118.709 36.7879C120.235 44.1359 121.625 50.8196 123.008 57.5112C122.992 60.1687 122.976 62.8261 122.96 65.4836H122.952ZM33.5083 94.9877C33.2207 95.2758 32.9331 95.564 32.6454 95.8601L32.6534 95.7961C31.6308 96.5485 30.6081 97.3009 29.1859 98.3415C32.1261 100.783 34.523 103.096 37.2474 104.905C38.6376 105.826 40.627 105.834 42.3528 106.25C35.7773 113.014 27.8757 117.696 19.0871 120.922C16.9219 121.714 14.0856 122.275 13.071 119.841C12.3679 118.152 12.8553 115.255 13.9338 113.654C16.898 109.259 20.4054 105.225 23.777 101.119C26.4855 97.8132 26.5334 97.8532 22.6824 94.9076C15.5717 102.992 8.34115 111.028 3.86698 120.994C2.94818 123.043 2.50077 126.557 3.61931 127.91C4.71388 129.238 8.43702 129.535 10.4104 128.758C15.9392 126.581 21.3721 123.963 26.4535 120.874C33.0209 116.88 39.2129 112.269 45.5646 107.923C45.5726 108.187 45.5885 108.459 45.5965 108.723C47.4581 109.748 49.2078 111.132 51.1972 111.757C72.4175 118.384 96.8896 110.036 110.248 91.5938C117.583 81.4683 121.298 70.2062 120.091 57.5593C120.235 51.3239 118.318 45.6247 115.625 39.4614C112.965 42.0788 110.64 44.3681 108.315 46.6573C106.565 47.882 104.807 49.0986 103.058 50.3233C103.865 48.9946 104.679 47.6659 105.486 46.3451C105.75 46.057 106.014 45.7768 106.269 45.4887C106.565 45.2325 106.869 44.9844 107.164 44.7363C107.396 44.4801 107.628 44.216 107.867 43.9598C111.806 40.0617 116.113 36.4517 119.612 32.1854C125.484 25.0215 131.029 17.5694 136.278 9.93327C137.469 8.19633 136.893 5.24272 137.125 2.84941C134.752 3.08154 131.916 2.56926 130.078 3.68187C121.809 8.6926 113.812 14.1516 105.758 19.4985C105.303 19.8027 105.175 20.6031 104.895 21.1714C107.604 20.1629 109.649 18.4979 111.886 17.1692C116.208 14.6158 120.587 12.1345 125.069 9.89325C125.988 9.429 127.985 9.73317 128.6 10.4456C129.215 11.1579 129.167 13.071 128.64 14.0395C127.394 16.3608 125.908 18.634 124.126 20.5631C120.435 24.5653 116.472 28.3033 112.669 32.2014C112.006 32.8818 111.574 33.8023 111.039 34.6107C109.449 35.3071 107.859 36.0115 106.269 36.7079C106.845 35.8754 107.428 35.035 108.003 34.2025C108.794 33.5462 109.585 32.8898 110.863 31.8172C107.739 28.4154 104.991 24.9975 101.827 22.0359C87.7096 8.86069 65.5066 4.96256 49.5833 12.7028C49.0161 12.9829 48.4488 13.2551 47.8815 13.5352C40.7309 15.5683 35.1222 19.9387 30.1846 25.3097L30.3604 25.4617L30.2006 25.2937C28.5867 27.1587 26.9728 29.0317 25.3589 30.8967H25.3909C24.6239 32.0093 23.8569 33.1219 23.0979 34.2345L23.1298 34.2025C22.8262 34.7468 22.5226 35.2911 22.219 35.8354L22.275 35.7474C14.5411 48.0741 13.023 61.2333 16.7062 75.6091C19.183 73.8801 21.1964 72.4714 23.2177 71.0626C23.1378 71.5189 23.0579 71.9671 22.9701 72.4234C22.0353 73.1277 21.1644 73.9682 20.1497 74.5205C17.4253 76.0013 16.9379 78.0024 18.4799 80.6198C20.8608 84.654 23.2417 88.6962 25.6146 92.7384C26.4375 94.0512 27.2605 95.3559 28.2592 96.9487C29.873 95.636 31.1674 94.5474 32.5016 93.5069C35.266 91.3617 38.0464 89.2405 40.8268 87.1114C39.1889 88.9604 37.559 90.8094 35.9212 92.6584C35.3779 93.1627 34.8346 93.6669 34.2913 94.1792C34.0037 94.4674 33.716 94.7555 33.4364 95.0437L33.5083 94.9797V94.9877ZM26.9089 100.183C23.026 105.169 19.143 110.028 15.4359 115.023C14.8367 115.831 14.5251 117.568 14.9965 118.256C15.4439 118.921 17.0737 118.969 18.1763 118.969C19.0632 118.969 20.0299 118.633 20.8209 118.192C26.2458 115.199 31.6387 112.141 37.3753 108.915C33.716 105.866 30.688 103.336 26.9089 100.183ZM126.515 12.1585C118.941 13.8394 113.244 18.658 107.22 23.2605C109.026 25.5418 110.632 27.5669 112.413 29.8081C117.774 24.2451 123.751 19.6986 126.515 12.1585Z" fill="#241B1B"/>
<path d="M22.962 72.4236C23.0419 71.9673 23.1218 71.5191 23.2097 71.0628L23.1298 71.1188C23.6651 71.0628 24.1924 71.0148 24.7277 70.9588C24.9274 71.0868 25.1192 71.2149 25.3189 71.343C25.3748 70.9668 25.4387 70.5906 25.4947 70.2224V70.2384C29.3456 71.3029 29.3936 68.7335 29.3856 66.1161L29.3377 66.1561C29.6892 65.948 30.0327 65.7319 30.3843 65.5238L30.7119 65.1876C30.592 65.2917 30.4802 65.3957 30.3603 65.4998C30.1366 65.5238 29.9049 65.5478 29.6812 65.5718C29.3536 65.2917 29.0341 65.0195 28.7065 64.7394C27.9555 64.8194 27.1645 64.7714 26.4694 65.0195C24.7117 65.6359 23.0099 66.3803 21.3721 67.0366C20.5731 68.6055 19.7422 70.2384 18.5597 72.5596C17.6809 70.9107 16.9219 70.1423 16.9139 69.3579C16.85 61.8578 15.9391 54.3177 19.0711 47.0497C20.6051 43.4878 21.2282 39.5336 22.2669 35.7556L22.211 35.8436C22.5146 35.2993 22.8182 34.755 23.1218 34.2107L23.0898 34.2427C25.3828 34.1867 25.7503 32.802 25.3828 30.9049H25.3509C30.0887 29.9124 30.4003 29.5522 30.1925 25.2939L30.3523 25.4619L30.1766 25.3099C32.5495 24.4294 35.0342 23.773 37.2633 22.6204C39.6122 21.4037 41.7135 19.7148 43.9266 18.234C43.3594 20.083 42.8001 21.932 42.2328 23.789C42.1449 23.9411 42.0571 24.0932 41.9772 24.2533C42.129 24.1652 42.2808 24.0772 42.4326 23.9891C44.8294 20.4752 47.2183 16.9613 49.6152 13.4554C54.6326 12.3988 59.6102 10.974 64.6835 10.3817C71.0992 9.63732 77.2831 11.3823 83.3072 13.5274C83.2273 14.0557 83.1554 14.584 83.0755 15.1123L83.1235 15.0483C82.3085 16.1369 81.4856 17.2255 80.6707 18.314L80.7266 18.242C79.664 19.5867 78.6014 20.9315 77.5388 22.2842L77.4269 22.3723L77.5068 22.2522L80.6068 19.0825C83.451 21.7319 86.6309 24.1012 89.0517 27.0948C92.1437 30.9209 92.0558 32.6499 88.6922 36.1478C83.3552 41.6868 77.6985 46.9216 72.1218 52.2205C68.894 55.2862 65.5544 58.2398 62.2547 61.2495C63.6689 63.6588 64.9232 64.6433 67.1763 62.7943C69.2136 61.1214 71.6424 59.9047 73.5759 58.1278C80.6068 51.6762 87.4858 45.0486 94.4767 38.5411C95.5952 37.5005 97.0014 36.7641 98.2717 35.8836L98.2877 35.8996C97.9841 36.8842 97.7524 37.9087 97.3529 38.8452C95.6351 42.8474 96.6658 47.2338 99.9176 49.5391C99.9096 50.3315 99.9016 51.1319 99.8936 51.9244C99.6379 52.3726 99.3823 52.8129 99.1346 53.2611C95.723 56.5589 92.3115 59.8567 88.8919 63.1465C89.0757 63.3866 89.2515 63.6268 89.4352 63.8669C90.2502 63.6108 91.0731 63.3546 91.888 63.0985C92.0558 64.1551 92.2156 65.2116 92.3834 66.2682L93.9174 67.1247C96.0186 64.3792 98.1199 61.6417 100.229 58.8962C102.49 66.3963 100.101 72.6957 98.0001 78.9551C96.3462 83.8778 92.3275 86.8074 88.4365 90.1132C82.3085 95.316 75.3496 97.7254 67.8154 99.2462C67.0085 99.4063 66.1217 99.1661 65.2748 99.1181C65.5784 98.2216 65.7222 97.2211 66.2175 96.4447C67.5598 94.3635 69.0618 92.3864 70.4999 90.3613C70.2603 90.1212 70.0286 89.8891 69.7889 89.649C69.1018 89.8331 68.2389 89.809 67.7515 90.2253C65.4346 92.1863 63.2934 94.3635 60.9284 96.2606C59.2267 97.6213 56.9816 99.9266 55.4875 99.5824C51.9082 98.7579 50.0466 100.671 47.8415 102.496L47.1944 103.176C46.9307 103.096 46.667 103.008 46.4034 102.928C45.0132 101.439 43.631 99.9586 42.0651 98.2777C50.6299 90.8176 57.445 81.5645 64.8353 72.8078C64.4438 72.4156 64.0524 72.0313 63.6529 71.6391C55.3517 79.7956 47.0585 87.952 38.5576 96.3006C37.3113 94.5796 36.6162 93.6271 35.9211 92.6666C37.5589 90.8176 39.1888 88.9686 40.8267 87.1196L40.7707 87.1596C42.113 86.071 43.4472 84.9824 44.7895 83.8938L44.7256 83.9418C44.9573 83.6937 45.181 83.4536 45.4127 83.2054C45.924 82.9573 46.4353 82.7172 47.3302 82.2849C45.8202 81.5165 44.7975 80.9962 43.9346 80.556C41.2182 82.2129 38.5976 83.8058 35.969 85.4066C35.985 85.6788 36.001 85.9509 36.0249 86.2151C35.7613 86.2791 35.4976 86.3432 35.242 86.3992C33.6281 86.3912 32.0142 86.3752 30.4003 86.3672C32.2379 84.246 34.0755 82.1248 35.9051 80.0037C35.7213 79.8036 35.5456 79.6115 35.3618 79.4114C31.7984 81.9888 28.2351 84.5742 24.6717 87.1516C21.5398 84.6702 20.3654 81.3484 20.3174 77.0661C21.5398 77.4023 22.4347 77.6504 23.3615 77.9066C23.2336 76.0255 23.1058 74.2245 22.9859 72.4236H22.962ZM86.5989 76.89C87.0064 76.5938 87.4139 76.2897 87.8213 75.9935C87.4378 75.7854 87.0623 75.5853 86.6788 75.3772C85.8399 75.6093 84.7773 75.5933 84.2101 76.1216C81.9091 78.2347 79.64 80.4199 77.6027 82.7812C76.7318 83.7898 76.4602 85.3106 75.9169 86.5993L77.0674 87.3197C81.1341 84.7343 83.8026 80.7481 86.5989 76.89ZM53.5381 32.6979C56.4782 27.351 59.4264 22.0121 62.3666 16.6651C62.023 16.369 61.6874 16.0728 61.3439 15.7767C60.2333 16.8332 58.8751 17.7217 58.0682 18.9704C55.0002 23.741 51.1891 27.5351 46.0518 30.1525C43.1596 31.6253 40.2035 33.5063 38.1422 35.9397C34.8265 39.8538 32.174 44.3442 29.3856 48.6826C28.8982 49.435 29.1379 50.6597 29.042 51.6682C29.5134 51.9004 29.9848 52.1405 30.4562 52.3726C33.1167 49.2269 35.7293 46.0412 38.4458 42.9435C41.0344 39.9899 43.4073 36.644 47.9773 36.6921C47.0186 37.7006 45.964 38.6371 45.1171 39.7337C44.0864 41.0705 43.2315 42.5353 42.3047 43.944C42.6403 44.1681 42.9759 44.3923 43.3034 44.6164C44.0305 43.936 44.7176 43.2156 45.4846 42.5913C48.241 40.3821 51.0453 38.2369 53.7778 36.0117C55.1759 34.8671 55.5355 33.6584 53.5381 32.6899V32.6979ZM70.6837 40.3341C70.3162 39.9178 69.9487 39.5016 69.5811 39.0854C68.5185 39.7337 67.3441 40.246 66.4253 41.0464C63.3333 43.7519 60.2653 46.4814 57.3171 49.339C51.4128 55.0461 45.964 61.1614 38.5656 65.2356C34.7786 67.3248 31.8704 70.9267 30.9755 75.7694C32.8211 75.081 34.467 74.1365 35.985 73.0159C39.5803 70.3744 43.1916 67.749 46.6431 64.9235C49.4714 62.6102 52.1878 60.1369 54.7445 57.5194C58.6914 53.4692 62.4624 49.2349 66.3054 45.0806C67.7675 43.5038 69.2296 41.9189 70.6917 40.3421L70.6837 40.3341ZM77.4509 26.7667C72.2656 26.5345 63.1735 35.8116 63.8446 40.5342C68.4386 35.8836 72.5932 31.6813 77.4509 26.7667ZM29.0181 55.4143C28.6905 55.0141 28.3549 54.6058 28.0274 54.2056C25.7344 55.8545 23.3774 57.4314 21.1883 59.2164C20.6849 59.6246 20.7569 60.7372 20.5651 61.5296C21.4919 61.5696 22.8022 62.0179 23.2816 61.5696C25.3269 59.6646 27.1325 57.4874 29.0181 55.4143ZM51.0613 17.0013C51.3489 17.3775 51.6286 17.7537 51.9162 18.138C55.0881 18.6582 55.4156 16.0088 56.3983 14.0957L55.5834 13.1512C54.0734 14.4399 52.5634 15.7206 51.0613 17.0093V17.0013ZM23.8888 38.6291C25.0792 39.6377 25.9021 40.6862 26.2377 40.5502C27.1725 40.166 28.0194 39.3735 28.6266 38.5411C28.7544 38.365 27.6119 36.7481 27.2524 36.8201C26.2856 37.0122 25.4228 37.7486 23.8888 38.6291ZM59.0988 30.7608C59.4903 31.2011 59.8818 31.6413 60.2813 32.0896C61.8313 30.5127 63.3812 28.9438 64.9312 27.367L63.8207 26.2464C62.2467 27.7512 60.6728 29.256 59.1068 30.7608H59.0988ZM25.9101 46.5214C24.9993 45.737 24.1924 44.7605 23.9447 44.8805C23.1298 45.2968 22.3947 46.0332 21.9153 46.8256C21.7875 47.0417 22.922 48.4185 23.1058 48.3384C24.0006 47.9782 24.7676 47.3059 25.9101 46.5134V46.5214ZM24.3282 53.6773C22.6983 52.2846 22.163 51.8203 21.6277 51.3641C21.0924 52.1165 20.4293 52.8209 20.1097 53.6533C20.0298 53.8694 21.0605 54.886 21.5318 54.854C22.3628 54.7979 23.1537 54.2136 24.3282 53.6773ZM90.4259 71.2229C89.9865 70.9187 89.5471 70.6226 89.1077 70.3264C88.4126 71.407 87.7175 72.4796 87.0224 73.5602C87.3819 73.8083 87.7335 74.0484 88.093 74.2966C88.868 73.272 89.651 72.2475 90.4259 71.2309V71.2229ZM89.9226 80.1478C89.5471 80.7481 89.1955 81.1243 89.0917 81.5645C89.0517 81.7406 89.5631 82.0448 89.8187 82.2849C90.1303 81.9327 90.5378 81.6206 90.7056 81.2124C90.7695 81.0523 90.3221 80.6681 89.9226 80.1478ZM69.9407 21.4277C69.5492 21.1076 69.3415 20.8354 69.0698 20.7394C68.926 20.6913 68.5026 20.9955 68.5185 21.0916C68.5665 21.3877 68.7582 21.6679 68.902 21.948C69.1817 21.804 69.4693 21.6679 69.9487 21.4277H69.9407ZM77.6986 69.1338C77.1553 69.7901 76.8037 70.0303 76.7957 70.2784C76.7957 70.5345 77.1233 70.8067 77.3071 71.0708C77.6107 70.7907 78.0261 70.5585 78.1779 70.2063C78.2658 69.9982 77.9302 69.614 77.7065 69.1418L77.6986 69.1338Z" fill="#F99E54"/>
<path d="M98.2718 35.8754C97.0014 36.7559 95.5953 37.4923 94.4767 38.5329C87.4858 45.0324 80.6148 51.66 73.576 58.1196C71.6425 59.8965 69.2137 61.1052 67.1763 62.7861C64.9313 64.6351 63.6689 63.6586 62.2548 61.2413C65.5545 58.2316 68.8941 55.286 72.1219 52.2123C77.6986 46.9134 83.3552 41.6786 88.6923 36.1396C92.0559 32.6497 92.1438 30.9207 89.0518 27.0866C86.6389 24.093 83.4511 21.7237 80.6068 19.0743C80.6468 18.7941 80.6867 18.514 80.7187 18.2338L80.6627 18.3058C81.4777 17.2172 82.3006 16.1287 83.1155 15.0401L83.0676 15.1041C83.3552 14.944 83.6508 14.7919 83.9385 14.6318C91.3927 15.9606 96.9615 20.7071 102.322 25.4537C104.823 27.6709 106.134 31.2489 107.987 34.2025C107.412 35.035 106.829 35.8754 106.253 36.7079L106.309 36.6599C106.038 37.0601 105.766 37.4683 105.494 37.8685C105.335 38.3408 104.903 39.0692 105.063 39.2373C106.988 41.3104 106.373 42.6391 104.272 44.28C102.522 45.6488 101.34 47.7459 99.9016 49.5229C96.6499 47.2176 95.6192 42.8312 97.337 38.829C97.7445 37.8845 97.9682 36.868 98.2718 35.8834C98.3756 35.7714 98.4875 35.6593 98.5913 35.5472C98.4795 35.6513 98.3676 35.7634 98.2558 35.8674L98.2718 35.8754Z" fill="#EE7E4E"/>
<path d="M45.5566 107.923C39.2049 112.269 33.013 116.888 26.4455 120.874C21.3642 123.964 15.9313 126.581 10.4025 128.758C8.42906 129.535 4.71391 129.23 3.61135 127.91C2.49281 126.557 2.94022 123.043 3.85902 120.994C8.33318 111.029 15.5637 102.992 22.6745 94.9077C26.5334 97.8533 26.4775 97.8133 23.769 101.119C20.3974 105.233 16.882 109.26 13.9259 113.654C12.8473 115.255 12.3599 118.152 13.063 119.841C14.0777 122.275 16.914 121.714 19.0792 120.922C27.8677 117.696 35.7614 113.014 42.3448 106.25L42.2969 106.306C42.8481 106.026 43.3914 105.754 43.9427 105.473L43.8948 105.505C44.3502 105.489 44.8056 105.473 45.261 105.465C45.3489 106.042 45.4448 106.618 45.5326 107.194C45.5966 107.435 45.6045 107.683 45.5486 107.931L45.5566 107.923Z" fill="#8B7A7D"/>
<path d="M120.075 57.5596C121.282 70.2065 117.567 81.4686 110.232 91.5941C96.8736 110.036 72.4016 118.385 51.1813 111.757C49.1919 111.133 47.4421 109.756 45.5806 108.731C45.8602 108.675 46.1318 108.627 46.4115 108.571C53.1067 109.172 59.794 110.124 66.4973 110.284C76.5721 110.524 85.9519 107.659 94.1971 101.84C98.7272 98.638 102.762 94.7318 107.02 91.1459C107.292 90.5776 107.564 90.0173 107.835 89.449C109.425 86.8075 111.015 84.1581 112.605 81.5166C114.323 81.2285 114.794 80.4921 113.468 79.1073C114.251 76.706 115.026 74.3047 115.809 71.9034C116.352 71.3031 117.287 70.7428 117.375 70.0864C117.79 66.7006 117.982 63.2987 118.246 59.8968L118.278 58.8803C118.877 58.44 119.476 57.9998 120.067 57.5676L120.075 57.5596Z" fill="#EBBC84"/>
<path d="M111.023 34.6187C111.558 33.8103 111.99 32.8898 112.653 32.2094C116.456 28.3113 120.419 24.5653 124.11 20.5711C125.892 18.642 127.378 16.3688 128.624 14.0475C129.151 13.079 129.199 11.166 128.584 10.4536C127.969 9.74118 125.972 9.44502 125.053 9.90126C120.563 12.1425 116.192 14.6238 111.87 17.1772C109.625 18.506 107.588 20.1629 104.879 21.1794C105.159 20.6111 105.287 19.8107 105.742 19.5065C113.804 14.1516 121.801 8.69261 130.062 3.68988C131.908 2.56926 134.736 3.08955 137.109 2.85742C136.877 5.25073 137.453 8.21234 136.262 9.94129C131.013 17.5694 125.468 25.0295 119.596 32.1934C116.097 36.4598 111.79 40.0617 107.851 43.9678C108.179 42.8953 108.474 41.8147 108.842 40.7581C109.553 38.709 110.296 36.6759 111.023 34.6348V34.6187Z" fill="#8B7A7D"/>
<path d="M35.9131 92.6666C36.6082 93.6191 37.3033 94.5797 38.5497 96.3006C47.0506 87.9521 55.3438 79.7956 63.6449 71.6392C64.0364 72.0314 64.4279 72.4156 64.8274 72.8078C57.437 81.5726 50.6219 90.8176 42.0571 98.2777C43.6231 99.9506 45.0132 101.439 46.3954 102.928C45.7323 103.336 45.0692 103.737 44.406 104.145C39.1489 103.256 35.0982 100.655 32.6534 95.7963L32.6454 95.8604C32.933 95.5722 33.2206 95.2841 33.5083 94.9879L33.4364 95.0519C33.724 94.7638 34.0116 94.4756 34.2912 94.1875C34.8345 93.6832 35.3778 93.1789 35.9211 92.6666H35.9131Z" fill="#EE7E4E"/>
<path d="M107.987 34.2108C106.134 31.2492 104.831 27.6792 102.322 25.462C96.9615 20.7154 91.3927 15.9688 83.9385 14.6401C83.7228 14.2719 83.507 13.8957 83.2993 13.5275C77.2752 11.3823 71.0912 9.63737 64.6756 10.3818C59.6022 10.9661 54.6327 12.3989 49.6073 13.4554C49.5913 13.2073 49.5833 12.9592 49.5753 12.711C65.5065 4.97082 87.7016 8.87695 101.811 22.0601C104.975 25.0218 107.723 28.4316 110.847 31.8415C109.561 32.9141 108.77 33.5704 107.987 34.2268V34.2108Z" fill="#EBBC84"/>
<path d="M22.2669 35.7476C21.2283 39.5256 20.6051 43.4798 19.0711 47.0417C15.9392 54.3177 16.85 61.8498 16.9139 69.3499C16.9139 70.1263 17.6809 70.9027 18.5597 72.5516C19.7422 70.2304 20.5731 68.5895 21.3721 67.0286C23.0019 66.3723 24.7117 65.6199 26.4694 65.0115C27.1645 64.7714 27.9555 64.8194 28.7065 64.7314C26.8529 66.8605 24.9913 68.9897 23.1378 71.1269L23.2177 71.0708C21.1963 72.4796 19.1829 73.8884 16.7062 75.6173C13.023 61.2415 14.541 48.0903 22.2749 35.7556L22.2669 35.7476Z" fill="#DAAF79"/>
<path d="M30.3764 86.3669C31.9903 86.3749 33.6042 86.391 35.2181 86.399C32.0143 88.5121 28.8105 90.6253 25.6066 92.7384C23.2257 88.6962 20.8528 84.654 18.4719 80.6198C16.93 78.0104 17.4093 76.0093 20.1418 74.5205C21.1644 73.9682 22.0273 73.1277 22.9621 72.4233C23.0899 74.2243 23.2098 76.0253 23.3376 77.9063C22.4108 77.6502 21.516 77.4021 20.2936 77.0659C20.3495 81.3482 21.516 84.67 24.6479 87.1514C24.8077 89.5127 25.7025 90.2971 27.7478 88.6002C28.6347 87.8638 29.4976 87.1114 30.3764 86.3669Z" fill="#DAAF79"/>
<path d="M120.075 57.5595C119.476 57.9997 118.877 58.44 118.286 58.8722C117.742 57.7436 116.951 56.663 116.704 55.4704C115.921 51.7003 115.338 47.8982 114.602 43.6399C112.381 44.9366 110.536 46.0172 108.682 47.0978C108.562 46.9457 108.443 46.7936 108.315 46.6495C110.64 44.3603 112.965 42.071 115.625 39.4536C118.31 45.617 120.235 51.3161 120.091 57.5515L120.075 57.5595Z" fill="#DAAF79"/>
<path d="M25.6146 92.7388C28.8184 90.6257 32.0222 88.5125 35.226 86.3994C35.4897 86.3353 35.7533 86.2713 36.009 86.2153C36.2647 86.0151 36.5283 85.807 36.784 85.6069C38.326 85.823 39.86 82.9735 41.4099 85.5909C41.1942 86.1112 40.9785 86.6395 40.7628 87.1598L40.8187 87.1197C38.0463 89.2489 35.258 91.3621 32.4936 93.5152C31.1593 94.5478 29.873 95.6444 28.2511 96.9571C27.2524 95.3642 26.4295 94.0515 25.6066 92.7468L25.6146 92.7388Z" fill="#8B7A7D"/>
<path d="M111.023 34.6188C110.296 36.66 109.545 38.6931 108.842 40.7422C108.474 41.7988 108.179 42.8793 107.851 43.9519C107.62 44.2081 107.388 44.4722 107.148 44.7284C106.853 44.9765 106.549 45.2326 106.253 45.4808C105.99 45.7689 105.726 46.0491 105.47 46.3372C104.663 47.666 103.849 48.9947 103.042 50.3154L103.097 50.2674L102.251 51.1158L102.307 51.0678C101.556 51.388 100.812 51.7162 100.061 52.0363L99.8937 51.9083C99.9017 51.1158 99.9097 50.3154 99.9176 49.523C101.348 47.746 102.538 45.6569 104.288 44.2801C106.381 42.6392 107.004 41.3105 105.079 39.2374C104.919 39.0613 105.351 38.3329 105.51 37.8686C105.782 37.4684 106.054 37.0602 106.325 36.66L106.269 36.708C107.859 36.0116 109.449 35.3072 111.039 34.6108L111.023 34.6188Z" fill="#DAAF79"/>
<path d="M32.6455 95.7881C35.0903 100.655 39.141 103.248 44.3981 104.137C44.2303 104.593 44.0626 105.041 43.8948 105.497L43.9427 105.465C43.3914 105.746 42.8481 106.018 42.2969 106.298L42.3448 106.242C40.627 105.826 38.6296 105.818 37.2395 104.897C34.507 103.088 32.1181 100.775 29.178 98.3335C30.6001 97.2929 31.6228 96.5405 32.6455 95.7881Z" fill="#DAAF79"/>
<path d="M43.9267 18.2259C41.7136 19.7067 39.6123 21.3956 37.2634 22.6123C35.0343 23.7649 32.5495 24.4293 30.1766 25.3018C35.1222 19.9308 40.7229 15.5605 47.8735 13.5273C46.5553 15.0962 45.237 16.6571 43.9187 18.2259H43.9267Z" fill="#DAAF79"/>
<path d="M43.9267 18.2258C45.245 16.657 46.5633 15.0961 47.8815 13.5273C48.4488 13.2471 49.0161 12.975 49.5833 12.6948C49.5913 12.943 49.6073 13.1911 49.6153 13.4392C47.2184 16.9531 44.8295 20.4671 42.4326 23.973L42.2329 23.7729C42.8002 21.9239 43.3594 20.0749 43.9267 18.2178V18.2258Z" fill="#EE7E4E"/>
<path d="M103.042 50.3154C104.791 49.0907 106.549 47.8741 108.299 46.6494C108.427 46.7935 108.554 46.9376 108.666 47.0977C105.478 50.2594 102.291 53.4211 99.1107 56.5828C99.1107 56.3587 99.1107 56.1346 99.0947 55.9105C99.3264 55.126 99.5581 54.3416 99.7978 53.5572L99.8617 53.5172C100.677 52.7087 101.492 51.8923 102.307 51.0838L102.251 51.1319L103.097 50.2834L103.042 50.3314V50.3154Z" fill="#DAAF79"/>
<path d="M30.2006 25.2939C30.4083 29.5523 30.0967 29.9125 25.3589 30.897C26.9728 29.032 28.5867 27.159 30.2006 25.2939Z" fill="#DAAF79"/>
<path d="M25.3909 30.9048C25.7584 32.7938 25.3909 34.1866 23.0979 34.2426C23.8649 33.13 24.6319 32.0174 25.3909 30.9048Z" fill="#DAAF79"/>
<path d="M46.4114 108.563C46.1318 108.619 45.8602 108.675 45.5805 108.723C45.5725 108.459 45.5566 108.187 45.5486 107.923C45.6045 107.675 45.6045 107.434 45.5326 107.186C46.2117 107.026 46.8828 106.866 47.5619 106.706C47.1784 107.322 46.7949 107.947 46.4035 108.563H46.4114Z" fill="#3D2655"/>
<path d="M105.47 46.3374C105.734 46.0493 105.998 45.7691 106.253 45.481C105.99 45.7691 105.726 46.0493 105.47 46.3374Z" fill="#8B7A7D"/>
<path d="M34.2832 94.1875C33.9956 94.4757 33.708 94.7638 33.4283 95.052C33.716 94.7638 34.0036 94.4757 34.2832 94.1875Z" fill="#DAAF79"/>
<path d="M33.5083 94.9878C33.2206 95.276 32.933 95.5641 32.6454 95.8603C32.933 95.5721 33.2206 95.284 33.5083 94.9878Z" fill="#DAAF79"/>
<path d="M46.4114 108.563C46.7949 107.947 47.1784 107.322 47.5699 106.706C47.7217 105.489 50.8216 104.289 47.5938 103.056C47.6258 102.848 47.7057 102.664 47.8335 102.496C50.0386 100.679 51.9002 98.7657 55.4795 99.5822C56.9736 99.9263 59.2187 97.6211 60.9204 96.2604C63.2854 94.3633 65.4266 92.1861 67.7435 90.2251C68.2389 89.8088 69.0938 89.8248 69.7809 89.6487C70.0206 89.8889 70.2523 90.121 70.492 90.3611C69.0538 92.3782 67.5598 94.3633 66.2095 96.4445C65.7142 97.2129 65.5704 98.2214 65.2668 99.1179C66.1137 99.1739 67.0005 99.4061 67.8075 99.246C75.3416 97.7251 82.3085 95.3158 88.4285 90.113C92.3195 86.8072 96.3382 83.8776 97.9921 78.9549C100.093 72.6955 102.474 66.3881 100.221 58.896C98.1199 61.6415 96.0186 64.379 93.9094 67.1245L92.3754 66.268C92.2076 65.2114 92.0478 64.1548 91.88 63.0983C92.9427 62.2978 94.0133 61.4974 95.0759 60.697C95.6112 59.9045 96.1465 59.0961 96.6818 58.2956C97.2171 58.0315 97.7524 57.7674 98.2877 57.4952C98.5673 57.191 98.8469 56.8869 99.1266 56.5827C102.314 53.421 105.502 50.2593 108.682 47.0975C110.536 46.0169 112.389 44.9364 114.602 43.6396C115.345 47.898 115.921 51.7081 116.704 55.4701C116.951 56.6628 117.742 57.7433 118.286 58.872L118.254 59.8885C117.742 60.6089 116.879 61.2813 116.776 62.0577C116.336 65.3235 116.12 68.6133 115.817 71.9031C115.034 74.3044 114.259 76.7057 113.476 79.107L112.613 81.5163C111.023 84.1577 109.433 86.8072 107.843 89.4486C107.572 90.0169 107.3 90.5773 107.028 91.1456C102.77 94.7315 98.7351 98.6457 94.205 101.839C85.9598 107.651 76.58 110.524 66.5052 110.284C59.8019 110.124 53.1146 109.171 46.4194 108.571L46.4114 108.563ZM89.4592 93.4748C89.5631 93.4428 89.6749 93.4268 89.7628 93.3708C89.8107 93.3388 89.8267 93.2427 89.8507 93.1707C89.7388 93.2907 89.627 93.4028 89.5151 93.5229L88.7002 94.3233C87.6376 95.652 86.567 96.9807 85.5044 98.3175C84.977 99.1259 84.4497 99.9263 83.9224 100.735C83.6428 100.999 83.3632 101.263 83.0755 101.527C81.0941 103.536 79.1207 105.537 77.1393 107.547V107.587C79.1207 105.569 81.1021 103.552 83.0835 101.543C83.3472 101.263 83.6188 100.983 83.8825 100.703C84.4098 99.9023 84.9371 99.0939 85.4644 98.2935C86.527 96.9567 87.5896 95.628 88.6602 94.2913L89.4592 93.4828V93.4748ZM109.873 78.1144C107.883 76.7537 106.709 75.3369 105.774 75.481C104.767 75.6331 103.976 77.25 103.089 78.2265C104.04 79.051 104.943 80.4357 105.966 80.5318C106.924 80.6198 108.003 79.3391 109.873 78.1064V78.1144Z" fill="#EE7E4E"/>
<path d="M47.9693 36.7001C43.3993 36.6521 41.0264 40.0059 38.4378 42.9515C35.7213 46.0492 33.1087 49.2349 30.4482 52.3806C29.9768 52.1485 29.5054 51.9084 29.0341 51.6762C29.1299 50.6677 28.8902 49.443 29.3776 48.6906C32.166 44.3523 34.8185 39.8618 38.1342 35.9477C40.1955 33.5143 43.1516 31.6333 46.0439 30.1605C51.1812 27.5431 54.9922 23.749 58.0602 18.9784C58.8671 17.7297 60.2333 16.8412 61.3359 15.7847C61.6795 16.0808 62.015 16.377 62.3586 16.6732C59.4184 22.0201 56.4703 27.359 53.5301 32.7059C51.6765 34.0426 49.8229 35.3714 47.9614 36.7081L47.9693 36.7001Z" fill="#F5BB6E"/>
<path d="M70.6837 40.3338C69.2216 41.9107 67.7595 43.4956 66.2974 45.0724C62.4544 49.2267 58.6914 53.461 54.7365 57.5112C52.1878 60.1286 49.4634 62.602 46.6351 64.9152C43.1836 67.7408 39.5723 70.3662 35.977 73.0077C34.459 74.1283 32.8211 75.0728 30.9675 75.7612C31.8624 70.9185 34.7706 67.3165 38.5576 65.2274C45.956 61.1532 51.4049 55.0379 57.3092 49.3307C60.2573 46.4812 63.3253 43.7437 66.4173 41.0382C67.3361 40.2298 68.5185 39.7175 69.5732 39.0771C69.9407 39.4934 70.3082 39.9096 70.6757 40.3258L70.6837 40.3338Z" fill="#F5BB6E"/>
<path d="M77.451 26.7667C72.6013 31.6734 68.4388 35.8837 63.8447 40.5342C63.1736 35.8196 72.2658 26.5426 77.451 26.7667Z" fill="#EE7E4E"/>
<path d="M47.9694 36.6999C49.823 35.3632 51.6766 34.0345 53.5382 32.6978C55.5355 33.6663 55.176 34.8749 53.7778 36.0196C51.0454 38.2528 48.2331 40.39 45.4847 42.5992C44.7097 43.2155 44.0306 43.9439 43.3035 44.6243C42.9679 44.4001 42.6324 44.176 42.3048 43.9519C43.2316 42.5431 44.0945 41.0783 45.1171 39.7416C45.964 38.645 47.0107 37.7085 47.9774 36.6999H47.9694Z" fill="#EE7E4E"/>
<path d="M86.5991 76.8898C83.8027 80.7479 81.1342 84.7341 77.0675 87.3195L75.917 86.5991C76.4603 85.3104 76.7319 83.7895 77.6028 82.781C79.6401 80.4197 81.9092 78.2345 84.2102 76.1214C84.7774 75.6011 85.848 75.6091 86.6789 75.377C86.655 75.8812 86.623 76.3855 86.5991 76.8898Z" fill="#F5BB6E"/>
<path d="M30.3764 86.3669C29.5055 87.1113 28.6346 87.8637 27.7478 88.6001C25.7025 90.2971 24.8076 89.5126 24.6478 87.1514C28.2112 84.5739 31.7745 81.9885 35.3379 79.4111C35.5216 79.6112 35.6974 79.8033 35.8812 80.0035C34.0436 82.1246 32.206 84.2458 30.3764 86.3669Z" fill="#EE7E4E"/>
<path d="M29.0182 55.4142C27.1246 57.4874 25.327 59.6645 23.2816 61.5696C22.8023 62.0178 21.492 61.5696 20.5652 61.5296C20.7569 60.7371 20.685 59.6245 21.1884 59.2163C23.3775 57.4313 25.7344 55.8545 28.0274 54.2056C28.355 54.6058 28.6906 55.014 29.0182 55.4142Z" fill="#EE7E4E"/>
<path d="M99.7978 53.5494C99.5661 54.3338 99.3344 55.1182 99.0947 55.9027C98.823 56.431 98.5434 56.9673 98.2718 57.4955C97.7365 57.7597 97.2012 58.0238 96.6659 58.296C96.1306 59.0964 95.5953 59.8969 95.06 60.6973C93.9973 61.4897 92.9267 62.2902 91.8641 63.0986C91.0492 63.3547 90.2263 63.6109 89.4113 63.867C89.2276 63.6269 89.0518 63.3868 88.868 63.1466C92.2796 59.8488 95.6911 56.551 99.1107 53.2612C99.3424 53.3413 99.5661 53.4453 99.7818 53.5574L99.7978 53.5494Z" fill="#EE7E4E"/>
<path d="M41.41 85.5909C39.86 82.9735 38.326 85.823 36.784 85.6069C36.5123 85.5429 36.2327 85.4708 35.9611 85.4068C38.5896 83.8059 41.2102 82.2051 43.9267 80.5562C44.7895 80.9964 45.8122 81.5167 47.3222 82.2851C46.4274 82.7173 45.9161 82.9655 45.4047 83.2056C45.173 83.4537 44.9493 83.6939 44.7176 83.942L44.7816 83.894C43.655 84.4623 42.5365 85.0306 41.41 85.5909Z" fill="#EE7E4E"/>
<path d="M51.0614 17.0012C52.5714 15.7125 54.0815 14.4318 55.5835 13.1431L56.3984 14.0876C55.4157 16.0006 55.0881 18.6501 51.9163 18.1298C51.6287 17.7536 51.349 17.3774 51.0614 16.9932V17.0012Z" fill="#EE7E4E"/>
<path d="M23.8888 38.6292C25.4228 37.7487 26.2857 37.0043 27.2524 36.8202C27.6119 36.7482 28.7544 38.3651 28.6266 38.5411C28.0194 39.3736 27.1725 40.166 26.2377 40.5502C25.9022 40.6863 25.0792 39.6377 23.8888 38.6292Z" fill="#EBBC84"/>
<path d="M59.0989 30.7606C60.6729 29.2557 62.2468 27.7509 63.8128 26.2461L64.9233 27.3667C63.3734 28.9436 61.8234 30.5124 60.2734 32.0893C59.8819 31.649 59.4904 31.2088 59.0909 30.7606H59.0989Z" fill="#EE7E4E"/>
<path d="M25.9102 46.5212C24.7677 47.3136 24.0007 47.986 23.1059 48.3462C22.9221 48.4182 21.7876 47.0414 21.9154 46.8333C22.3868 46.0409 23.1298 45.3045 23.9448 44.8883C24.1924 44.7602 24.9994 45.7447 25.9102 46.5292V46.5212Z" fill="#F5BB6E"/>
<path d="M24.3282 53.6775C23.1458 54.2138 22.3548 54.7981 21.5319 54.8542C21.0605 54.8862 20.0219 53.8696 20.1097 53.6535C20.4293 52.8211 21.0925 52.1167 21.6278 51.3643C22.1631 51.8285 22.7064 52.2848 24.3282 53.6775Z" fill="#EBBC84"/>
<path d="M23.1298 71.1186C24.9833 68.9895 26.8449 66.8603 28.6985 64.7231C29.0261 65.0033 29.3456 65.2754 29.6732 65.5556C29.4495 65.6917 29.3377 65.8838 29.3377 66.1479L29.3856 66.1079C28.0833 67.4846 26.789 68.8534 25.4867 70.2301V70.2141C25.239 70.4623 24.9833 70.7104 24.7277 70.9585C24.1924 71.0146 23.6651 71.0626 23.1298 71.1186Z" fill="#241B1B"/>
<path d="M25.4867 70.2223C26.789 68.8456 28.0833 67.4768 29.3856 66.1001C29.3856 68.7175 29.3457 71.2789 25.4867 70.2223Z" fill="#F5BB6E"/>
<path d="M90.426 71.2229C89.651 72.2474 88.8681 73.272 88.0931 74.2885C87.7335 74.0404 87.382 73.8003 87.0225 73.5521C87.7176 72.4715 88.4126 71.3989 89.1077 70.3184C89.5472 70.6225 89.9866 70.9187 90.426 71.2149V71.2229Z" fill="#F5BB6E"/>
<path d="M80.7186 18.2339C80.6787 18.514 80.6387 18.7942 80.6068 19.0743L77.5068 22.2441L77.5308 22.2761C78.5934 20.9314 79.656 19.5866 80.7186 18.2339Z" fill="#241B1B"/>
<path d="M41.41 85.5905C42.5365 85.0222 43.655 84.4539 44.7816 83.8936C43.4393 84.9821 42.1051 86.0707 40.7628 87.1593C40.9785 86.6391 41.1943 86.1108 41.41 85.5905Z" fill="#241B1B"/>
<path d="M89.9226 80.1479C90.3221 80.6682 90.7775 81.0444 90.7056 81.2125C90.5378 81.6208 90.1303 81.9329 89.8187 82.2851C89.5631 82.037 89.0517 81.7408 89.0917 81.5647C89.1956 81.1325 89.5471 80.7483 89.9226 80.1479Z" fill="#3D2655"/>
<path d="M43.9027 105.506C44.0705 105.049 44.2383 104.601 44.4061 104.145C45.0692 103.737 45.7323 103.336 46.3955 102.928C46.6591 103.008 46.9228 103.096 47.1864 103.176L47.1305 103.104C46.5073 103.889 45.8921 104.681 45.2689 105.466C44.8135 105.482 44.3581 105.498 43.9027 105.506Z" fill="#241B1B"/>
<path d="M69.9407 21.4279C69.4613 21.668 69.1737 21.8121 68.8941 21.9481C68.7582 21.668 68.5585 21.3878 68.5106 21.0917C68.4946 20.9956 68.926 20.6915 69.0618 20.7395C69.3335 20.8275 69.5492 21.0997 69.9327 21.4279H69.9407Z" fill="#3D2655"/>
<path d="M86.599 76.8898C86.623 76.3855 86.6549 75.8812 86.6789 75.377C87.0624 75.5851 87.4379 75.7852 87.8214 75.9933C87.4139 76.2895 87.0065 76.5936 86.599 76.8898Z" fill="#241B1B"/>
<path d="M77.6985 69.1335C77.9223 69.6058 78.2578 69.998 78.1699 70.1981C78.0181 70.5503 77.6027 70.7824 77.2991 71.0625C77.1153 70.7984 76.7797 70.5343 76.7877 70.2701C76.7877 70.022 77.1473 69.7818 77.6906 69.1255L77.6985 69.1335Z" fill="#241B1B"/>
<path d="M83.3073 13.5195C83.523 13.8877 83.7387 14.2639 83.9464 14.6321C83.6588 14.7922 83.3632 14.9443 83.0756 15.1044C83.1555 14.5761 83.2274 14.0478 83.3073 13.5195Z" fill="#241B1B"/>
<path d="M99.7978 53.5494C99.5821 53.4293 99.3584 53.3333 99.1267 53.2532C99.3824 52.805 99.638 52.3647 99.8857 51.9165L100.054 52.0446C99.9896 52.5328 99.9177 53.0211 99.8538 53.5094L99.7898 53.5494H99.7978Z" fill="#DAAF79"/>
<path d="M24.7278 70.9588C24.9834 70.7106 25.2391 70.4625 25.4948 70.2144C25.4389 70.5906 25.3749 70.9668 25.319 71.335C25.1193 71.2069 24.9275 71.0788 24.7278 70.9508V70.9588Z" fill="#F5BB6E"/>
<path d="M47.8256 102.488C47.7058 102.656 47.6259 102.84 47.586 103.048C47.4262 102.976 47.2664 102.992 47.1226 103.096L47.1785 103.168L47.8256 102.488Z" fill="#241B1B"/>
<path d="M42.4326 23.9809C42.2808 24.0689 42.129 24.157 41.9772 24.245C42.0651 24.0929 42.1529 23.9408 42.2328 23.7808L42.4326 23.9809Z" fill="#EE7E4E"/>
<path d="M29.3377 66.1399C29.3377 65.8838 29.4575 65.6837 29.6733 65.5476C29.897 65.5236 30.1287 65.4996 30.3524 65.4756L30.3763 65.4996C30.0248 65.7077 29.6813 65.9238 29.3297 66.1319L29.3377 66.1399Z" fill="#F5BB6E"/>
<path d="M35.9611 85.4067C36.2328 85.4708 36.5124 85.5428 36.784 85.6068C36.5284 85.807 36.2647 86.0151 36.0091 86.2152C35.9931 85.943 35.9771 85.6709 35.9531 85.4067H35.9611Z" fill="#DAAF79"/>
<path d="M30.3524 65.4836C30.4723 65.3795 30.5841 65.2754 30.704 65.1714L30.3764 65.5076L30.3524 65.4836Z" fill="#F5BB6E"/>
<path d="M77.5069 22.2441L77.427 22.3642L77.5389 22.2762L77.5069 22.2441Z" fill="#241B1B"/>
<path d="M98.2717 35.8754C98.3836 35.7713 98.4954 35.6592 98.6073 35.5552C98.5034 35.6672 98.3916 35.7793 98.2877 35.8914L98.2717 35.8754Z" fill="#F99E54"/>
<path d="M47.1305 103.104C47.2743 103 47.4261 102.984 47.5939 103.056C50.8297 104.289 47.7297 105.49 47.5699 106.706C46.8908 106.866 46.2197 107.027 45.5406 107.187C45.4527 106.61 45.3568 106.034 45.2689 105.458L47.1305 103.096V103.104Z" fill="#DAAF79"/>
<path d="M115.817 71.8954C116.113 68.6136 116.328 65.3158 116.776 62.05C116.88 61.2736 117.742 60.6013 118.254 59.8809C117.982 63.2827 117.79 66.6926 117.383 70.0704C117.303 70.7268 116.36 71.2871 115.817 71.8874V71.8954Z" fill="#F5BB6E"/>
<path d="M112.605 81.5084L113.468 79.0991C114.794 80.4839 114.323 81.2203 112.605 81.5084Z" fill="#F5BB6E"/>
<path d="M99.8617 53.509C99.9256 53.0207 99.9975 52.5325 100.061 52.0442C100.812 51.724 101.555 51.3959 102.307 51.0757C101.492 51.8841 100.677 52.7006 99.8617 53.509Z" fill="#241B1B"/>
<path d="M98.2798 57.4952C98.5514 56.9669 98.8311 56.4306 99.1027 55.9023C99.1107 56.1265 99.1187 56.3506 99.1187 56.5747C98.8391 56.8789 98.5594 57.1911 98.2798 57.4952Z" fill="#F99E54"/>
<path d="M109.873 78.1146C108.003 79.3472 106.924 80.628 105.966 80.5399C104.943 80.4439 104.04 79.0591 103.089 78.2346C103.976 77.2581 104.759 75.6412 105.774 75.4891C106.709 75.3451 107.883 76.7618 109.873 78.1226V78.1146Z" fill="#E7D39A"/>
<path d="M77.1473 107.547C79.1288 105.538 81.1022 103.536 83.0836 101.527L83.0916 101.535C81.1102 103.552 79.1288 105.57 77.1553 107.579V107.539L77.1473 107.547Z" fill="#3D2655"/>
<path d="M85.5044 98.3174C86.567 96.9887 87.6376 95.66 88.7002 94.3232L88.6603 94.2832C87.5976 95.6199 86.535 96.9487 85.4724 98.2854L85.5124 98.3174H85.5044Z" fill="#241B1B"/>
<path d="M83.9225 100.743C84.4498 99.9344 84.9771 99.1339 85.5045 98.3255L85.4645 98.2935C84.9372 99.0939 84.4099 99.9023 83.8826 100.703L83.9225 100.743Z" fill="#241B1B"/>
<path d="M83.8825 100.703C83.6188 100.983 83.3472 101.263 83.0835 101.544L83.0756 101.536C83.3552 101.271 83.6348 101.007 83.9225 100.743L83.8825 100.703Z" fill="#241B1B"/>
<path d="M89.5152 93.5309C89.627 93.4108 89.7389 93.2988 89.8507 93.1787C89.8188 93.2427 89.8108 93.3468 89.7628 93.3788C89.6749 93.4349 89.5631 93.4509 89.4592 93.4829L89.5152 93.5309Z" fill="#241B1B"/>
<path d="M88.7002 94.3314C88.9719 94.0672 89.2435 93.7951 89.5152 93.5309L89.4592 93.4829C89.1956 93.7551 88.9239 94.0192 88.6603 94.2914L88.7002 94.3314Z" fill="#241B1B"/>
</g>
<defs>
<clipPath id="clip0_40_2753">
<rect width="141" height="132" fill="white"/>
</clipPath>
</defs>
</svg>
