<svg width="124" height="126" viewBox="0 0 124 126" fill="none" xmlns="http://www.w3.org/2000/svg">
<g clip-path="url(#clip0_40_2962)">
<path d="M75.9763 124.064C50.94 130.457 24.3931 120.628 10.3196 99.7707C-4.26252 78.1179 -3.30534 46.8018 12.6377 25.2841C28.162 4.33658 54.8285 -4.77167 79.5657 2.44591C104.512 9.7085 122.16 32.3966 123.88 59.3912C125.496 84.6903 110.27 110.229 87.4176 120.448C84.7106 121.663 81.8241 122.459 79.0124 123.464C78.0103 123.674 76.9933 123.869 75.9913 124.079L75.9763 124.064ZM17.304 98.3001C17.8574 98.8253 18.4107 99.3505 18.9791 99.8607H18.8744C20.9533 100.896 23.0471 101.916 25.126 102.937C32.3647 104.407 39.6034 105.878 46.857 107.348C50.1174 107.754 53.3778 108.159 56.6382 108.579C57.8945 108.579 59.1359 108.579 60.3922 108.579C66.6587 108.864 72.9253 109.164 79.1769 109.449C88.5543 107.904 97.7671 106.013 104.677 98.6152C105.664 97.4148 106.666 96.2144 107.653 95.014L107.593 95.074C110.54 89.3569 113.501 83.6549 116.447 77.9379C115.789 77.5627 115.131 77.1726 114.473 76.7975C112.977 77.9379 111.482 79.0933 110.001 80.2337C109.179 80.6989 108.341 81.149 107.518 81.6142C97.9616 84.3752 88.3898 87.1211 78.8329 89.8821C70.8165 90.0322 62.7851 90.1672 54.7687 90.3173C54.7538 89.507 54.7239 88.6967 54.7089 87.8864L61.3793 88.3366C64.3106 88.2165 67.242 88.0965 70.1734 87.9915C71.5643 87.7964 72.9701 87.5863 74.3611 87.3912C88.0458 86.821 100.564 82.6045 112.035 75.1469C114.144 72.671 116.253 70.2101 118.362 67.7342C117.763 67.194 117.165 66.6688 116.567 66.1286C115.041 67.119 113.516 68.1094 111.99 69.0997C100.998 72.5659 90.005 76.0472 78.9974 79.5134C53.7816 82.1694 29.7025 77.8628 6.68526 66.8789C6.1618 67.4641 5.65329 68.0343 5.12984 68.6195C6.84977 71.4105 8.58467 74.1865 10.3046 76.9775C9.51194 78.343 7.71722 80.1136 8.07616 81.014C10.185 86.2508 12.8022 91.2626 15.2401 96.3644L17.1395 98.4352L17.289 98.3151L17.304 98.3001ZM92.0839 108.984C89.8255 109.614 87.5672 110.244 85.3088 110.875C64.6546 114.281 44.4491 112.015 24.0791 105.593C37.1655 120.898 65.5669 124.89 85.5481 114.686C88.0308 113.275 90.4985 111.865 92.9812 110.454C93.4748 109.884 93.9683 109.314 94.4619 108.729C93.6692 108.819 92.8765 108.894 92.0839 108.984ZM91.8446 14.7053L91.5903 14.6303C87.9859 12.7846 84.3816 10.9389 80.7772 9.07828H80.822C58.8368 1.14044 32.5741 8.20797 20.9084 25.6292C23.3911 26.4095 25.7093 27.1447 28.0274 27.895C47.6497 34.3323 67.242 34.9625 86.7745 27.5349C88.7487 26.7546 90.7079 25.9743 92.6821 25.194C94.1329 24.9089 95.5836 24.6238 97.0343 24.3237C96.5707 25.3441 96.107 26.3795 95.6284 27.3998C86.0716 29.9507 76.5297 32.5166 66.9728 35.0676C53.5124 33.537 40.067 32.0215 26.6066 30.4909C24.1987 29.4706 21.8057 28.4502 17.6629 26.6946C17.1245 30.5359 16.7058 33.492 16.287 36.4481C10.7234 36.0129 11.3515 40.3945 10.0504 43.6956C24.6324 51.1233 39.7081 54.0793 55.337 54.7846C54.7388 55.2648 54.1406 55.7449 53.5423 56.2251L49.1752 56.0751C48.7265 55.895 48.2629 55.865 47.7843 55.985C37.1057 53.8543 26.4122 51.7385 15.7336 49.6078C13.55 48.4223 11.3814 47.2519 8.28555 45.5713C7.40314 51.0033 6.20667 55.2798 6.23658 59.5413C6.23658 61.432 8.70431 63.3076 10.0653 65.1833L10.0204 65.1083C10.9627 65.5734 11.9198 66.0386 12.8621 66.5038C32.9031 76.1972 53.8564 80.1437 75.9913 76.7224C78.5188 76.3773 81.0464 76.0322 83.5739 75.7021C84.5461 75.507 85.5332 75.3269 86.5203 75.1319C87.612 74.9368 88.7038 74.7267 89.7956 74.5316C97.7372 71.2155 105.664 67.8993 113.606 64.5831C118.855 60.5617 118.915 53.8693 113.606 43.6956C112.424 44.5509 111.272 45.3762 110.136 46.1865C104.258 48.5424 98.3803 50.8982 92.5026 53.2691C88.0308 54.0643 83.559 54.8596 79.0722 55.6549C79.0423 55.2048 79.0124 54.7546 79.0124 54.3044C79.5508 53.8092 80.1041 53.3141 80.6426 52.8189C91.3959 51.9186 101.327 48.6324 110.33 42.6153C115.311 41.3398 112.2 38.2487 111.332 36.343C110.45 34.4223 109.837 30.0408 105.813 33.507C103.869 33.9872 101.91 34.4823 99.9657 34.9625C100.983 33.9272 102 32.8768 103.017 31.8414C103.959 30.4309 106.023 28.3001 105.649 27.7449C104.632 26.1694 102.747 24.9539 100.953 24.1737C99.861 23.6935 98.3056 24.2937 96.9595 24.4138C97.9167 23.1533 98.8739 21.8929 100.16 20.1822C97.4531 18.4266 95.0153 16.836 92.5774 15.2455C92.4727 14.8703 92.2334 14.6903 91.8446 14.7053ZM65.4922 123.104C65.3875 122.909 65.2828 122.714 65.1781 122.519H57.0121C57.0121 122.714 57.0271 122.909 57.042 123.104H65.4922Z" fill="#241B1B"/>
<path d="M15.7486 49.6377C26.4271 51.7685 37.1207 53.8842 47.7992 56.015C48.2629 56.045 48.7265 56.075 49.1901 56.105L53.5573 56.2551C58.059 56.3151 62.5757 56.3901 67.0775 56.4501C69.0965 56.3451 71.1007 56.2401 73.1197 56.135C73.1347 56.4351 73.2094 56.7352 73.3441 57.0203C74.2265 63.6077 75.1238 70.18 76.0062 76.7674C53.8564 80.1886 32.9031 76.2422 12.877 66.5487L10.0354 65.1532L10.0803 65.2283C10.155 62.3322 10.3943 59.4212 10.2448 56.5251C10.0354 52.4587 11.4861 49.9828 15.7486 49.6377Z" fill="#F5BB6E"/>
<path d="M60.3624 108.579C59.1061 108.579 57.8647 108.579 56.6084 108.579C53.348 108.174 50.0876 107.769 46.8272 107.348C39.5885 105.878 32.3498 104.407 25.0962 102.937C23.0173 101.917 20.9235 100.896 18.8446 99.8758H18.9493C18.3959 99.3356 17.8425 98.8254 17.2742 98.3002L17.1246 98.4203C17.3639 97.745 17.6032 97.0848 17.8575 96.4095C21.7012 97.8801 25.4701 99.5907 29.4035 100.746C32.5592 101.676 35.9093 101.947 38.3621 102.367C37.3451 97.5499 36.6123 94.0237 35.8645 90.4824C49.265 91.4578 62.6656 92.4181 76.0661 93.3935C75.4679 101.271 71.9981 106.268 63.3984 106.313C63.0843 106.313 62.7703 107.544 62.4562 108.189C61.7533 108.309 61.0503 108.444 60.3474 108.564L60.3624 108.579Z" fill="#F99E54"/>
<path d="M80.6277 52.834C80.0892 53.3292 79.5359 53.8244 78.9975 54.3196C74.9594 54.4246 70.9212 54.5446 66.8682 54.6497C63.0245 54.6947 59.1808 54.7547 55.3371 54.7997C39.7081 54.0945 24.6325 51.1384 10.0504 43.7108C11.3665 40.4246 10.7234 36.028 16.2871 36.4632L16.2123 36.3281C18.4108 37.6936 20.4598 39.3892 22.8079 40.3646C39.9923 47.4471 57.8198 47.4621 75.8567 45.0012C77.442 47.6122 79.0274 50.2231 80.6277 52.834Z" fill="#F5BB6E"/>
<path d="M10.3046 76.9624C8.58471 74.1714 6.84982 71.3954 5.12988 68.6044C5.65334 68.0192 6.16184 67.449 6.6853 66.8638C29.7025 77.8477 53.7817 82.1542 78.9974 79.4983C77.8757 80.6387 76.5148 81.614 75.7221 82.9495C74.9593 84.24 74.7799 85.8906 74.3461 87.3761C72.9552 87.5712 71.5494 87.7812 70.1585 87.9763C67.2271 88.0964 64.2957 88.2164 61.3643 88.3214L54.694 87.8713C53.9462 87.7812 53.1834 87.7062 52.4356 87.6162C48.9958 87.181 45.4362 87.136 42.116 86.2207C31.4225 83.2796 20.8337 80.0235 10.2 76.8873L10.3046 76.9324V76.9624Z" fill="#DAAF79"/>
<path d="M62.4711 108.204C62.7851 107.544 63.0992 106.328 63.4133 106.328C72.013 106.298 75.4828 101.286 76.081 93.4085C76.9933 92.2381 77.9056 91.0526 78.803 89.8822C88.3599 87.1212 97.9317 84.3752 107.489 81.6143C106.606 84.3152 106.232 87.3613 104.737 89.6721C98.6944 99.0655 88.9282 103.162 79.0722 107.003C73.5385 107.408 68.0048 107.799 62.4711 108.204Z" fill="#EE7E4E"/>
<path d="M26.6066 30.5059C40.067 32.0364 53.5124 33.5519 66.9728 35.0825C65.881 40.0793 69.8892 40.7695 72.9702 42.2551C54.8734 45.7213 37.2553 44.806 20.4298 36.553C22.4937 34.5423 24.5427 32.5316 26.6066 30.5059Z" fill="#DAAF79"/>
<path d="M85.5482 114.686C65.552 124.89 37.1506 120.898 24.0791 105.593C44.4491 112.015 64.6547 114.296 85.3089 110.875C85.3837 112.15 85.4734 113.411 85.5482 114.686Z" fill="#DAAF79"/>
<path d="M75.9913 76.7526C75.1089 70.1652 74.2115 63.5929 73.3291 57.0055L74.4658 55.9701C75.9913 55.8651 77.5317 55.7751 79.0572 55.67C83.5291 54.8747 88.0009 54.0795 92.4877 53.2842C94.8059 60.7869 99.2478 68.5596 89.7956 74.5618C88.7038 74.7568 87.6121 74.9669 86.5203 75.162C85.5332 75.3571 84.561 75.5371 83.5739 75.7322C81.0464 76.0773 78.5188 76.4224 75.9913 76.7526Z" fill="#F99E54"/>
<path d="M89.7957 74.5618C99.2478 68.5596 94.8059 60.7869 92.4877 53.2842C98.3654 50.9283 104.243 48.5725 110.121 46.2017C111.287 52.3389 112.439 58.461 113.606 64.5982C105.664 67.9144 97.7373 71.2306 89.7957 74.5468V74.5618Z" fill="#EE7E4E"/>
<path d="M80.6276 52.8339C79.0423 50.2229 77.457 47.612 75.8567 45.0011C79.4162 44.0707 83.1552 43.5456 86.4904 42.09C91.1716 40.0493 95.5388 37.3183 100.041 34.8725L99.9358 34.9775C101.88 34.4973 103.839 34.0021 105.784 33.522C107.294 36.5681 108.79 39.5991 110.3 42.6452C101.297 48.6624 91.366 51.9636 80.6127 52.8489L80.6276 52.8339Z" fill="#EE7E4E"/>
<path d="M86.7596 27.5501C67.2271 34.9777 47.6348 34.3475 28.0126 27.9102C27.1152 24.7741 25.2008 21.1128 31.2131 21.4129C32.29 24.9441 34.2542 25.1892 37.1058 22.1481C34.8026 21.863 32.9929 21.653 31.1982 21.4279C35.1466 14.3604 42.1609 13.43 49.1304 12.4097C49.1005 13.445 49.0706 14.4804 49.0257 15.5008C45.6457 15.4558 43.148 15.9509 46.1691 20.0024C43.8061 21.9981 41.443 23.9788 38.5565 26.4097C40.1568 27.4 41.2935 28.7055 42.475 28.7355C52.7497 28.9906 63.0544 31.5415 73.2993 28.1953C75.6025 27.445 78.1899 27.5951 80.6426 27.325C82.6767 27.4 84.7107 27.475 86.7447 27.5501H86.7596Z" fill="#EBBC84"/>
<path d="M72.9702 42.2548C69.9043 40.7693 65.8811 40.0641 66.9729 35.0823C76.5298 32.5314 86.0717 29.9655 95.6285 27.4146C98.0813 28.8851 100.549 30.3706 103.002 31.8411C101.985 32.8765 100.968 33.9269 99.9508 34.9622L100.056 34.8572C91.0221 37.3181 81.9887 39.779 72.9702 42.2398V42.2548Z" fill="#EE7E4E"/>
<path d="M74.3462 87.3911C74.7799 85.9056 74.9594 84.255 75.7221 82.9646C76.5148 81.6291 77.8758 80.6537 78.9975 79.5133C89.9901 76.0471 100.983 72.5658 111.99 69.0996C111.99 71.1103 112.02 73.1361 112.035 75.1468C100.564 82.6044 88.0459 86.8209 74.3612 87.3911H74.3462Z" fill="#EE7E4E"/>
<path d="M31.2281 21.3975C25.2158 21.0974 27.1301 24.7587 28.0275 27.8948C25.7093 27.1595 23.3911 26.4243 20.9084 25.629C32.5741 8.22275 58.8368 1.15523 80.8221 9.09307C76.2007 9.24312 71.5942 9.39317 66.9729 9.54323C65.5969 9.57324 64.221 9.60325 62.86 9.61825C58.2984 10.5486 53.7219 11.4789 49.1603 12.4093C42.1908 13.4296 35.1764 14.3599 31.2281 21.4275H31.243L31.2281 21.3975Z" fill="#E7D39A"/>
<path d="M86.7596 27.5498C84.7256 27.4747 82.6915 27.3997 80.6575 27.3247C79.0273 24.0235 77.9206 20.2872 75.6473 17.5262C73.4188 14.8252 70.0238 13.0846 67.1373 10.9238C74.3312 13.2947 81.6745 15.2904 88.6141 18.2765C90.5883 19.1318 91.3511 22.8231 92.6821 25.2089C90.708 25.9892 88.7487 26.7695 86.7745 27.5498H86.7596Z" fill="#F99E54"/>
<path d="M79.0723 107.018C88.9283 103.177 98.7095 99.0803 104.737 89.6869C106.232 87.3761 106.606 84.33 107.489 81.629C108.311 81.1639 109.149 80.7137 109.971 80.2485C109.164 85.2003 108.371 90.1371 107.563 95.0888L107.623 95.0288C106.636 96.2292 105.634 97.4297 104.647 98.6301C97.7373 106.013 88.5095 107.918 79.147 109.464C79.1171 108.654 79.0872 107.843 79.0723 107.033V107.018Z" fill="#EBBC84"/>
<path d="M78.818 89.8821C77.9057 91.0525 76.9934 92.2379 76.096 93.4084C62.6955 92.433 49.2949 91.4727 35.8944 90.4973C31.8712 88.4566 27.8481 86.4309 23.8099 84.3901C31.3178 86.0107 38.8257 87.6313 46.3336 89.2519C47.3806 89.3719 48.4275 89.492 49.4744 89.612C50.3718 89.7621 51.2691 89.9121 52.1814 90.0622C53.0489 90.1522 53.9014 90.2272 54.7688 90.3172C62.7852 90.1672 70.8166 90.0322 78.833 89.8821H78.818Z" fill="#DAAF79"/>
<path d="M92.6822 25.1939C91.366 22.808 90.6033 19.1017 88.6141 18.2614C81.6895 15.2903 74.3312 13.2796 67.1374 10.9088L67.0925 10.8788C67.0925 10.4286 67.0476 9.97845 66.9579 9.52829C71.5793 9.37823 76.1857 9.22818 80.8071 9.07812H80.7623C82.6168 14.375 87.1036 14.4951 91.5754 14.6301L91.8297 14.7051C91.7549 15.1253 91.6652 15.5454 91.5904 15.9506C91.9194 15.7105 92.2335 15.4704 92.5625 15.2453C95.0003 16.8359 97.4382 18.4265 100.145 20.1821C98.859 21.8777 97.9018 23.1381 96.9446 24.4136L97.0194 24.3386C95.5687 24.6237 94.1179 24.9088 92.6672 25.2089L92.6822 25.1939Z" fill="#EBBC84"/>
<path d="M113.606 64.5979C112.439 58.4607 111.287 52.3385 110.121 46.2013C111.258 45.376 112.409 44.5658 113.591 43.7104C118.9 53.8841 118.84 60.5765 113.591 64.5979H113.606Z" fill="#E7D39A"/>
<path d="M15.7486 49.6377C11.4862 49.9828 10.0355 52.4587 10.2449 56.5251C10.3944 59.4211 10.1551 62.3322 10.0803 65.2282C8.7343 63.3525 6.26656 61.4769 6.25161 59.5862C6.23665 55.3097 7.41817 51.0331 8.30057 45.6162C11.3965 47.2968 13.5651 48.4672 15.7486 49.6527V49.6377Z" fill="#E7D39A"/>
<path d="M15.2401 96.3646C12.8023 91.2627 10.185 86.2509 8.07618 81.0141C7.71724 80.1138 9.51196 78.3431 10.3046 76.9776L10.1999 76.9326C11.3964 78.073 12.5779 79.1984 13.7744 80.3388C14.6568 84.7354 15.5392 89.132 16.4067 93.5135C16.3618 94.4139 16.3169 95.3142 16.2721 96.2295C15.9281 96.2445 15.5841 96.3045 15.255 96.3796L15.2401 96.3646Z" fill="#EBBC84"/>
<path d="M26.6067 30.506C24.5428 32.5167 22.4938 34.5274 20.4299 36.5531C19.024 36.4781 17.6181 36.4031 16.2123 36.343L16.2871 36.4781C16.7058 33.522 17.1096 30.566 17.663 26.7246C21.7909 28.4802 24.1988 29.5006 26.6067 30.521V30.506Z" fill="#E7D39A"/>
<path d="M107.578 95.0739C108.386 90.1221 109.179 85.1854 109.986 80.2336L114.458 76.7974C115.116 77.1725 115.774 77.5626 116.432 77.9378C113.486 83.6548 110.525 89.3568 107.578 95.0739Z" fill="#E7D39A"/>
<path d="M103.017 31.8415L95.6434 27.4149C96.1071 26.3945 96.5707 25.3592 97.0493 24.3388L96.9745 24.4138C98.3205 24.2938 99.876 23.6936 100.968 24.1737C102.762 24.954 104.647 26.1694 105.664 27.745C106.023 28.3002 103.974 30.431 103.032 31.8415H103.017Z" fill="#DAAF79"/>
<path d="M110.33 42.6305C108.82 39.5844 107.324 36.5533 105.813 33.5072C109.837 30.041 110.45 34.4225 111.332 36.3432C112.2 38.2489 115.311 41.34 110.33 42.6154V42.6305Z" fill="#E7D39A"/>
<path d="M55.3371 54.7995C59.1808 54.7545 63.0244 54.6944 66.8681 54.6494C66.928 55.2496 66.9878 55.8498 67.0626 56.4501C62.5608 56.39 58.0441 56.315 53.5424 56.255C54.1406 55.7748 54.7388 55.2946 55.3371 54.8145V54.7995Z" fill="#3D2655"/>
<path d="M79.0722 107.018C79.1021 107.829 79.132 108.639 79.147 109.449C72.8805 109.164 66.6139 108.864 60.3623 108.579L62.4711 108.204C68.0048 107.799 73.5385 107.409 79.0722 107.003V107.018Z" fill="#DAAF79"/>
<path d="M112.02 75.1466C112.02 73.1359 111.99 71.1102 111.975 69.0995C113.501 68.1091 115.026 67.1188 116.552 66.1284C117.15 66.6686 117.748 67.1938 118.347 67.734C116.238 70.2099 114.129 72.6708 112.02 75.1466Z" fill="#DAAF79"/>
<path d="M91.5904 14.6301C87.1036 14.4951 82.6168 14.39 80.7772 9.07812C84.3816 10.9238 87.986 12.7694 91.5904 14.6301Z" fill="#E7D39A"/>
<path d="M85.5481 114.686C85.4734 113.41 85.3836 112.15 85.3088 110.875C87.5672 110.244 89.8255 109.614 92.0839 108.984C92.383 109.479 92.6821 109.959 92.9812 110.454C90.4986 111.865 88.0308 113.275 85.5481 114.686Z" fill="#9C79A8"/>
<path d="M67.0626 56.4501C67.0028 55.8499 66.9429 55.2497 66.8682 54.6494C70.9063 54.5444 74.9444 54.4244 78.9975 54.3193C78.9975 54.7695 79.0274 55.2197 79.0573 55.6698C77.5318 55.7749 75.9913 55.8649 74.4658 55.9699C73.9872 55.8199 73.5385 55.8649 73.1048 56.135C71.0858 56.24 69.0817 56.3451 67.0626 56.4501Z" fill="#14061C"/>
<path d="M65.4922 123.104H57.0421C57.0421 122.909 57.0272 122.714 57.0122 122.519H65.1782C65.2829 122.714 65.3876 122.909 65.4922 123.104Z" fill="#2B1B41"/>
<path d="M46.8271 107.348C50.0876 107.753 53.348 108.158 56.6084 108.579C53.348 108.173 50.0876 107.768 46.8271 107.348Z" fill="#EE7E4E"/>
<path d="M61.3644 88.3515C64.2958 88.2314 67.2271 88.1114 70.1585 88.0063C67.2271 88.1264 64.2958 88.2464 61.3644 88.3515Z" fill="#8B7A7D"/>
<path d="M54.7539 90.3173C53.8864 90.2273 53.034 90.1522 52.1665 90.0622C52.2562 89.2519 52.346 88.4416 52.4357 87.6313L54.6941 87.8864C54.709 88.6967 54.7389 89.507 54.7539 90.3173Z" fill="#8B7A7D"/>
<path d="M10.0205 65.1382L12.8621 66.5337C11.9199 66.0685 10.9627 65.6033 10.0205 65.1382Z" fill="#E7D39A"/>
<path d="M92.084 108.984C92.8767 108.894 93.6693 108.819 94.462 108.729C93.9684 109.299 93.4749 109.869 92.9813 110.455C92.6822 109.959 92.3831 109.479 92.084 108.984Z" fill="#9C79A8"/>
<path d="M15.2402 96.3644C15.5692 96.2894 15.9132 96.2294 16.2572 96.2144C16.7507 96.2594 17.2592 96.2894 17.7528 96.3344L17.8575 96.4244C17.6182 97.0997 17.3789 97.7599 17.1246 98.4351L15.2252 96.3644H15.2402Z" fill="#DAAF79"/>
<path d="M92.5925 15.2456C92.2635 15.4856 91.9494 15.7257 91.6204 15.9508C91.6951 15.5307 91.7849 15.1105 91.8597 14.7054C92.2485 14.6754 92.5028 14.8554 92.5925 15.2456Z" fill="#E7D39A"/>
<path d="M49.1752 56.0898C48.7116 56.0598 48.2479 56.0298 47.7843 55.9998C48.2479 55.8797 48.7116 55.9097 49.1752 56.0898Z" fill="#3D2655"/>
<path d="M17.3041 98.3003C17.8574 98.8255 18.4108 99.3507 18.9791 99.8609C18.4258 99.3357 17.8724 98.8105 17.3041 98.3003Z" fill="#DAAF79"/>
<path d="M73.1049 56.1348C73.5386 55.8797 73.9873 55.8197 74.4659 55.9698L73.3292 57.0051C73.1946 56.72 73.1198 56.4349 73.1049 56.1198V56.1348Z" fill="#3D2655"/>
<path d="M16.4067 93.4984C15.5243 89.1019 14.6419 84.7053 13.7744 80.3237C17.1246 81.6892 20.4747 83.0397 23.8099 84.4052C27.833 86.4459 31.8562 88.4716 35.8943 90.5124C36.6421 94.0386 37.3749 97.5799 38.3919 102.397C35.9242 101.976 32.5741 101.706 29.4333 100.776C25.4999 99.6206 21.731 97.91 17.8873 96.4395L17.7826 96.3495C17.3339 95.4041 16.8703 94.4738 16.4216 93.5285L16.4067 93.4984Z" fill="#F5BB6E"/>
<path d="M16.2123 36.3431C17.6181 36.4181 19.024 36.4931 20.4299 36.5532C37.2553 44.8061 54.8735 45.7214 72.9702 42.2552C82.0036 39.7943 91.037 37.3334 100.055 34.8726C95.5537 37.3184 91.1716 40.0494 86.5054 42.0901C83.1702 43.5457 79.4312 44.0708 75.8717 45.0012C57.8348 47.4621 40.0072 47.447 22.8228 40.3645C20.4747 39.3892 18.4108 37.6936 16.2272 36.3281L16.2123 36.3431Z" fill="#241B1B"/>
<path d="M23.8099 84.39C20.4598 83.0245 17.1096 81.674 13.7744 80.3086C12.578 79.1682 11.3964 78.0428 10.2 76.9023C20.8336 80.0385 31.4374 83.2946 42.116 86.2357C45.4362 87.151 48.9958 87.196 52.4356 87.6312C52.3459 88.4415 52.2562 89.2518 52.1664 90.062C51.2691 89.912 50.3717 89.7619 49.4594 89.6119C48.4125 89.4918 47.3655 89.3718 46.3186 89.2518C38.8107 87.6312 31.3028 86.0106 23.7949 84.39H23.8099Z" fill="#241B1B"/>
<path d="M67.1373 10.9241C70.0238 13.0849 73.4188 14.8255 75.6473 17.5265C77.9206 20.3025 79.0423 24.0238 80.6575 27.325C78.2047 27.5951 75.6174 27.43 73.3141 28.1953C63.0693 31.5415 52.7646 29.0056 42.4899 28.7355C41.3084 28.7055 40.1567 27.4 38.5714 26.4096C41.4579 23.9788 43.821 21.9831 46.184 20.0024C47.1711 19.9573 48.1582 19.9123 49.1453 19.8523C49.8931 20.0324 50.6409 20.2124 51.3887 20.3925C50.6558 19.7323 49.908 19.087 49.1752 18.4268C49.1303 17.4514 49.0855 16.4761 49.0256 15.5008C49.0555 14.4654 49.0855 13.43 49.1303 12.4096C53.6919 11.4793 58.2684 10.549 62.83 9.61865C64.2508 10.0388 65.6567 10.474 67.0775 10.8941L67.1224 10.9241H67.1373Z" fill="#F5BB6E"/>
<path d="M31.2131 21.4276C33.0079 21.6377 34.8026 21.8628 37.1207 22.1479C34.2691 25.1889 32.3049 24.9439 31.2281 21.4126H31.2131V21.4276Z" fill="#E7D39A"/>
<path d="M49.0556 15.5006C49.1004 16.476 49.1453 17.4513 49.2051 18.4267C49.1752 18.9068 49.1603 19.372 49.1603 19.8522C48.1732 19.8972 47.1861 19.9422 46.199 20.0022C43.1779 15.9658 45.6905 15.4556 49.0556 15.5006Z" fill="#E7D39A"/>
<path d="M67.0925 10.8939C65.6717 10.4738 64.2658 10.0386 62.845 9.61848C64.2209 9.58847 65.5969 9.55846 66.9579 9.54346C67.0476 9.99362 67.0925 10.4438 67.0925 10.8939Z" fill="#F99E54"/>
<path d="M16.4067 93.4984C16.8554 94.4437 17.319 95.3741 17.7677 96.3194C17.2741 96.2744 16.7656 96.2444 16.2721 96.1994C16.317 95.299 16.3618 94.3987 16.4067 93.4834V93.4984Z" fill="#F99E54"/>
<path d="M49.1603 19.8523C49.1603 19.3721 49.1603 18.9069 49.2052 18.4268C49.938 19.087 50.6858 19.7322 51.4186 20.3925C50.6708 20.2124 49.923 20.0323 49.1752 19.8523H49.1603Z" fill="#EBBC84"/>
</g>
<defs>
<clipPath id="clip0_40_2962">
<rect width="124" height="126" fill="white"/>
</clipPath>
</defs>
</svg>
