<svg width="266" height="45" viewBox="0 0 266 45" fill="none" xmlns="http://www.w3.org/2000/svg">
<g clip-path="url(#clip0_28_47064)">
<path d="M264.274 25.6668C264.239 25.8732 264.186 26.0539 264.116 26.2173C263.885 26.2345 263.649 26.2431 263.418 26.2603C262.802 25.9248 262.19 25.598 261.574 25.2625C261.412 25.2969 261.255 25.3313 261.094 25.3657C228.672 25.0991 196.25 24.8239 163.829 24.583C155.394 24.5228 146.959 24.5658 138.528 24.5572C127.694 24.5486 116.861 24.54 106.028 24.5228C106.041 20.4973 106.058 16.4718 106.071 12.4549L107.77 12.3861L108.614 12.3517L109.54 12.3345C110.046 12.3517 110.557 12.3861 111.064 12.3861C147.998 12.3689 184.937 12.3431 221.871 12.3431C235.39 12.3431 248.915 12.4205 262.435 12.4635C262.937 13.0312 263.439 13.6075 263.942 14.1752C264.794 17.0739 264.396 20.093 264.164 23.095L264.147 23.1896C263.684 23.9207 263.09 24.6518 264.156 25.3571L264.274 25.6582V25.6668Z" fill="#93C8FB"/>
<path d="M106.076 12.4464C106.062 16.4719 106.045 20.4974 106.032 24.5143L105.997 26.9658C105.918 29.0989 105.927 31.2579 105.739 33.3567C105.425 36.8489 104.188 37.9155 103.053 35.3264C102.092 33.133 101.091 33.3051 99.9599 33.3653C92.5557 33.7867 85.1514 34.2598 77.7515 34.6555C76.8778 34.6985 75.8469 35.3866 75.3314 32.9524C75.2441 32.5481 74.5582 32.5223 74.1476 32.5051C72.8502 32.4535 71.5528 32.4879 70.0982 32.4879C69.4211 34.8447 68.4514 36.1608 66.8657 34.105C66.4507 33.5631 65.7343 33.8814 65.1533 33.8728C53.8263 33.7437 42.4992 33.5975 31.1679 33.5373C30.5039 33.5373 29.8355 34.1652 29.1716 34.5351C28.6998 34.8017 28.2411 35.335 27.765 35.4038C24.8688 35.8081 21.9682 36.1866 19.0677 36.3844C18.6046 36.4188 18.1241 35.5156 17.6524 35.0512C17.8708 34.8619 18.0804 34.5265 18.3032 34.5093C21.5751 34.2082 24.8469 33.9502 28.1756 33.6835C27.6514 25.6755 26.5156 17.8912 30.9189 13.1517L33.1948 12.197C33.1685 11.8271 33.1423 11.4572 33.1161 11.0874H30.8796C30.9232 10.6057 30.9713 10.1154 31.015 9.63373C33.0899 8.26609 35.1692 9.06603 37.3534 9.89177C37.0127 10.3993 36.6676 10.9154 36.3269 11.4228C36.3443 11.6895 36.3618 11.9561 36.3793 12.2228H55.3071C58.2557 13.6592 60.6496 16.4547 61.746 22.4242C61.9295 23.4305 62.1086 24.4369 62.292 25.4347L62.1697 25.4605V31.8858H64.8955C66.2847 32.6427 66.8001 31.1805 66.7565 28.7807C66.6647 23.6886 66.5599 18.5879 66.3284 13.513C66.2148 11.0186 65.5639 9.21226 64.0263 10.0036C63.1002 9.90898 62.1785 9.82296 61.2524 9.72835C61.6368 9.16065 61.9994 8.18868 62.4056 8.11126C63.6113 7.87042 64.8344 7.99084 66.0488 7.96504C66.2541 8.02525 66.4594 8.08546 66.6647 8.14567C66.953 12.0766 67.2588 16.0074 67.5165 19.9469C67.6345 21.7532 67.652 23.5768 67.7175 25.4003C67.6476 27.7743 67.5777 30.1397 67.5034 32.746C68.4688 33.8212 69.0891 33.2449 68.993 30.8106C68.9188 28.9785 68.5955 27.1894 68.3815 25.3831C68.4208 21.0049 68.4513 16.6181 68.4994 12.24C68.5125 11.0014 68.5693 9.77135 68.6042 8.53274C68.7615 8.29189 68.9188 8.04245 69.076 7.80161C70.7141 7.88762 72.3653 8.26609 73.986 7.99944C77.8607 7.37153 81.7266 6.45117 85.5969 5.64263C85.811 5.59962 86.025 5.49641 86.2391 5.42759C86.4357 5.79746 86.6322 6.16732 86.8288 6.54579C86.357 6.89845 85.8809 7.25972 85.4091 7.61238C84.2865 7.82741 83.1638 8.04245 82.0411 8.24889C81.7179 8.26609 81.3903 8.28329 81.067 8.3091C79.5818 8.51553 78.0966 8.73057 76.3405 8.98001C76.7511 10.1498 76.939 10.6917 77.1312 11.2422C78.2058 18.1664 78.5771 25.1336 77.3452 32.1611C81.3073 33.176 87.2875 32.2901 89.7556 30.3806C90.3293 31.7453 90.8986 31.6335 91.4636 30.0451C91.0267 29.8559 90.6205 29.6752 90.2099 29.5032C91.1534 27.069 92.5032 27.1894 93.8399 27.3442C93.9229 27.3528 93.9797 28.17 94.0496 28.6086C93.4643 28.7979 92.8833 28.9785 91.8524 29.3054C92.5163 30.458 92.8003 30.9483 93.0799 31.4471C93.6914 29.7698 94.351 30.1913 95.0325 31.2579C95.2334 30.7504 95.4344 30.2343 95.6353 29.7268C95.8625 29.7268 96.094 29.7268 96.3211 29.7268C96.5701 30.2601 96.8191 30.7848 97.0681 31.3181C97.3346 30.7934 97.601 30.2687 97.8675 29.744L98.5402 29.7182C98.8111 30.0537 99.0601 30.5526 99.3527 30.673C99.6541 30.7934 100.025 30.3289 100.314 30.4924C101.231 30.9913 101.222 31.0515 101.533 28.1356H98.7281C98.3437 28.1356 97.9592 28.1528 97.5748 28.1528C97.2341 28.1528 96.8978 28.1528 96.557 28.1528C96.2469 28.2302 95.9411 28.3162 95.6309 28.3936L94.0147 28.514C94.0583 26.2604 94.9888 27.0604 95.5348 26.9916C97.3914 26.7507 99.2523 26.6475 101.113 26.6991C101.969 26.7249 102.074 25.9422 102 24.6433C101.865 24.3595 101.733 24.0757 101.598 23.7918C99.1562 23.723 96.7055 23.7918 94.268 23.5252C92.9139 23.3703 91.398 23.4047 90.638 20.3684C92.809 21.0479 94.932 22.9489 97.138 21.4522V10.1928H95.762C95.7926 13.6764 96.4172 17.031 94.9713 20.1534C94.8272 16.7902 94.6786 13.4184 94.5345 10.0552C93.1192 13.255 95.1461 17.1944 93.1716 20.9791C93.0318 16.8762 92.9182 13.5818 92.8003 10.1326H91.2233C91.2015 9.56492 91.1796 8.99722 91.1534 8.42952H101.03C101.03 8.14567 101.039 7.86182 101.043 7.57797C100.589 7.48335 100.135 7.31132 99.6804 7.31132C97.0768 7.31132 94.4733 7.39734 91.8698 7.32853C91.1884 7.31132 90.5113 6.81244 89.8298 6.53719C90.0395 6.15872 90.2492 5.78026 90.4632 5.41039C93.805 5.22976 97.1424 5.10934 100.48 4.83409C101.056 4.78248 101.86 4.44702 102.144 3.65569C102.738 2.03 103.559 1.59993 104.202 2.39126C104.931 3.28582 105.534 4.92011 105.905 6.49418C106.189 7.68979 106.019 9.29827 106.054 10.7261C106.054 11.3196 106.062 11.9217 106.062 12.5152L106.076 12.4464ZM54.0534 23.6026C54.1364 26.355 53.6996 29.2452 54.5951 32.7288C55.1892 28.8667 54.7043 26.2346 54.0228 23.6542C54.0054 23.5424 53.9923 23.4219 53.9617 23.3273C53.9442 23.2757 53.8918 23.2757 53.8525 23.2499C53.918 23.3617 53.9835 23.4821 54.0534 23.594V23.6026ZM44.7096 29.7612C44.9237 29.7268 45.1333 29.6924 45.3474 29.658C45.4435 30.2171 45.5396 30.7762 45.6357 31.3267C45.8235 31.3009 46.0157 31.2751 46.2036 31.2493V21.9081C46.7409 19.9125 47.3393 18.2352 48.5887 20.291C48.7459 23.9466 48.9032 27.6023 49.0604 31.2665C49.2264 31.2493 49.3968 31.2321 49.5628 31.2149V20.205C50.3404 18.4417 51.0611 19.2502 51.7688 20.4028C52.0265 24.1015 52.2799 27.7915 52.5376 31.4901C52.6163 31.4901 52.6905 31.4901 52.7691 31.4987V20.2996C53.8831 18.5191 54.5951 19.0094 54.9227 21.7532C55.3159 25.0476 55.7134 28.3334 56.1327 31.8256H61.1301C61.0645 29.7096 61.0951 27.8517 60.9335 26.0712C60.3001 18.9578 58.9241 16.1967 55.3421 14.9495C53.9923 14.4764 52.6119 14.0979 51.249 14.1409C45.1639 14.3301 39.0789 14.657 32.9938 15.0097C31.2203 15.1129 29.5341 16.2225 29.1235 19.9899C28.8002 22.9575 28.9269 26.1572 28.9968 29.2366C29.0492 31.5676 29.7831 31.9718 30.7485 31.0429C31.4868 26.6647 30.0976 21.5124 32.2163 17.3751C32.7055 18.4933 33.0681 19.3276 33.4307 20.162C33.6622 23.8434 33.8937 27.5335 34.1252 31.2149C34.2519 31.2149 34.3786 31.2149 34.5052 31.2149V20.2738C36.0516 17.3235 36.9734 17.7191 37.384 21.7532C37.6024 23.9208 37.4888 26.2174 37.5631 28.4452C37.598 29.5032 37.7247 30.5612 37.8077 31.6106C37.9912 31.5934 38.1746 31.5676 38.3581 31.5504C39.7341 27.4216 37.7422 21.9253 39.4109 17.7449C40.9179 18.9836 41.4509 20.9275 41.3548 23.6284C41.0927 23.6284 40.8262 23.6284 40.5641 23.6284C40.3326 22.6736 40.1011 21.7188 39.8695 20.7555C39.7997 24.1187 39.9263 27.3356 40.0836 30.5526C40.0836 30.5784 40.5597 30.5096 40.8131 30.4838L41.3984 31.0687C42.1542 31.7654 42.6958 31.5332 42.7046 29.6666C42.7177 26.8625 42.6303 24.0498 42.674 21.2458C42.6871 20.3684 42.9798 19.5083 43.1458 18.6395C43.5651 19.1556 43.9845 19.6631 44.4038 20.1792C44.0762 20.3254 43.753 20.4716 43.4865 20.5834C43.7005 24.2735 43.8971 27.7055 44.0937 31.1461C44.1942 31.1547 44.2903 31.1719 44.3907 31.1805C44.4912 30.6988 44.5917 30.2085 44.6965 29.7268L44.7096 29.7612ZM103.026 18.5363C102.974 21.3748 102.926 24.2133 102.874 27.0518C102.166 31.3267 102.467 32.6858 104.542 33.976C104.59 32.832 104.665 31.7482 104.673 30.6644C104.721 23.6542 104.8 16.644 104.752 9.63373C104.739 7.94783 104.298 6.27914 104.053 4.60185C103.367 5.54802 102.681 6.49418 101.834 7.67259C103.87 10.9756 102.59 15.0269 103.031 18.5363H103.026ZM74.117 10.0294H69.4604C69.2988 13.8915 68.9668 17.4095 69.0367 20.8931C69.2158 30.2429 69.6308 30.8708 74.3617 30.6128C74.4316 30.6128 74.5015 30.5612 74.5757 30.5354C75.0781 30.6042 75.5804 30.673 76.2138 30.759C77.2404 24.5659 77.2054 18.4761 76.0697 12.4034C75.7508 10.6917 75.231 9.34988 74.1214 10.0294H74.117ZM99.1911 20.6437C99.0732 16.9364 98.9771 13.9173 98.8766 10.8981C98.7062 10.9326 98.5359 10.967 98.3655 11.0014V21.779H101.952V10.8895H100.209C99.2261 13.8915 101.196 17.3923 99.1911 20.6523V20.6437ZM36.091 20.8845C35.9293 20.9447 35.7633 20.9963 35.6017 21.0565C35.6891 24.4455 35.7764 27.8345 35.8638 31.2149C36.0473 31.1891 36.2351 31.1633 36.4186 31.1461C36.6719 27.6883 36.8598 24.2305 36.0953 20.8931L36.091 20.8845ZM32.3167 21.8135V31.1891C33.5049 27.9979 32.5089 24.9272 32.3167 21.8135ZM51.048 31.6364L51.5023 31.559C51.3756 28.299 51.2446 25.0304 51.1179 21.7704C50.9257 21.8049 50.7379 21.8307 50.5457 21.8651C50.7117 25.1164 50.882 28.3764 51.048 31.6278V31.6364ZM47.5184 31.4385C47.6102 31.4385 47.6975 31.4471 47.7893 31.4557V22.7682C47.6975 22.7682 47.6102 22.7682 47.5184 22.7682V31.4299V31.4385ZM33.7059 11.268C33.719 11.6981 33.7364 12.1196 33.7495 12.5496C34.1951 12.4378 34.6407 12.326 35.0862 12.2142C35.0688 11.8959 35.0469 11.5863 35.0295 11.268H33.7059Z" fill="#1A1A1B"/>
<path d="M108.613 12.3431L107.77 12.3775C106.988 9.96905 108.509 11.1733 108.648 10.2099C109.081 10.1927 109.509 10.1841 109.941 10.1669C110.645 10.3561 111.348 10.7088 112.051 10.7088C146.766 10.7346 181.481 10.7346 216.196 10.7088C216.899 10.7088 217.598 10.3303 218.302 10.1325C219.311 10.1325 220.315 10.1325 221.324 10.1325C223.33 10.3389 225.339 10.7088 227.344 10.7002C230.157 10.683 232.966 10.3819 235.779 10.2013C242.607 10.2185 249.434 10.2271 256.262 10.2443C256.716 10.2013 257.166 10.1583 257.621 10.1153C257.905 10.0637 258.189 10.0121 258.468 9.96045C259.538 10.1583 260.622 10.2357 261.674 10.6486C261.976 10.769 262.186 11.8442 262.435 12.4893C248.915 12.4463 235.39 12.3689 221.87 12.3689C184.936 12.3689 147.998 12.3947 111.064 12.4119C110.557 12.4119 110.046 12.3775 109.54 12.3603L108.613 12.3775V12.3431Z" fill="#2C73B3"/>
<path d="M30.9189 13.1516C26.5157 17.8911 27.6514 25.6668 28.1756 33.6834C24.8469 33.9587 21.5751 34.2081 18.3032 34.5092C18.0848 34.5264 17.8708 34.8618 17.6524 35.0511L17.7135 34.8962C17.7616 34.2167 17.8096 33.5372 17.8577 32.8577C17.5213 32.9867 17.1849 33.1071 16.8486 33.2361L16.8355 33.2017C17.0102 32.7889 17.1849 32.3674 17.3597 31.9545L17.3509 31.8599C18.5042 30.0106 18.5085 28.4365 17.3553 26.57C18.4561 22.6649 18.4343 18.4502 18.2246 14.1838C18.1984 13.3237 18.1722 12.4635 18.146 11.6034L18.3382 9.10893C19.7622 9.67663 21.1863 10.2529 22.6104 10.8206C23.4753 10.769 24.3359 10.7174 25.2008 10.6572C25.7556 9.28956 27.0442 8.92829 26.7079 6.35645C27.2845 6.94135 27.8611 7.52625 28.4333 8.11115C28.9532 8.72186 29.473 9.32396 29.9928 9.93467C30.2986 9.85726 30.6044 9.77984 30.9102 9.71103L31.0106 9.63362C30.9669 10.1153 30.9189 10.6056 30.8752 11.0873C30.8883 11.7754 30.9014 12.4635 30.9145 13.1516H30.9189Z" fill="#B4B4B4"/>
<path d="M105.997 26.9744L106.032 24.5229C116.865 24.5316 127.699 24.5488 138.532 24.5574C146.967 24.5574 155.402 24.5229 163.833 24.5832C196.255 24.824 228.676 25.0992 261.098 25.3659C261.26 25.3315 261.417 25.2971 261.578 25.2627C262.194 25.5981 262.806 25.925 263.422 26.2605C263.221 26.5099 263.016 26.7593 262.815 27.0088C261.875 27.1464 260.941 27.4131 260.001 27.4131C249.614 27.4045 239.221 27.3442 228.834 27.3012C228.65 27.3012 228.467 27.284 228.279 27.2754C228.025 27.2754 227.768 27.2754 227.514 27.2754C225.732 27.2668 223.954 27.2582 222.172 27.2496C218.564 27.2238 214.956 27.2066 211.347 27.1808C211.168 27.1808 210.993 27.1722 210.814 27.1636C207.494 27.1464 204.175 27.1378 200.855 27.1206C198.509 27.112 196.163 27.1034 193.817 27.0948L193.844 26.9658C193.678 26.9658 193.516 26.9572 193.35 26.9486C192.354 26.9916 191.362 27.0432 190.366 27.0862C189.938 26.983 189.506 26.8712 189.078 26.7679C188.296 26.5959 187.514 26.2691 186.732 26.2691C161.003 26.2002 135.269 26.1572 109.54 26.1314C108.823 26.1314 108.107 26.3293 107.386 26.4411C106.923 26.6217 106.46 26.8109 105.997 26.9916V26.9744Z" fill="#2C73B3"/>
<path d="M64.0263 9.98619C65.5639 9.19485 66.2148 11.0098 66.3284 13.4956C66.5599 18.5705 66.6648 23.6712 66.7565 28.7633C66.8002 31.1631 66.2847 32.6167 64.8956 31.8684C64.2316 31.1631 63.5676 30.4578 63.1133 29.9847C62.7551 28.273 62.4624 26.8623 62.1654 25.4517L62.2877 25.4259C62.1042 24.4195 61.9251 23.4131 61.7417 22.4154C60.6452 16.4459 58.2558 13.6504 55.3028 12.214C55.3028 11.5173 55.3028 10.8119 55.3028 10.1152C55.8357 10.0378 56.3687 9.96038 56.906 9.88297C58.3257 8.24008 59.7541 8.18848 61.1913 9.77115C62.1348 9.84857 63.0784 9.91738 64.0219 9.99479L64.0263 9.98619Z" fill="#B4B4B4"/>
<path d="M12.9651 34.0187C12.1439 35.352 11.0387 36.3928 10.5844 38.0959C10.1825 39.6183 10.5014 41.8805 10.5014 44.2287C9.1254 43.8847 8.0115 43.6008 6.94564 43.3256C6.81022 42.9643 6.6442 42.7321 6.65294 42.5256C6.80146 38.6119 5.80987 36.3498 4.04508 34.8359C3.21073 34.122 2.4987 32.7199 1.83471 31.4125C-0.0654974 27.6794 -0.598422 22.768 0.751384 18.1146C1.65999 14.975 2.97485 12.1795 4.32465 9.6765C5.50846 7.48312 6.87573 5.80583 6.14186 1.72011C7.56156 1.1008 8.71044 0.601918 10.117 -0.00878906C10.2131 2.37383 10.0995 4.30056 10.4184 5.90044C10.7155 7.3885 11.4712 8.5239 12.1264 10.0464C13.4326 7.9304 14.2145 9.01419 14.7081 11.6118H14.7256C14.2582 11.5 13.6117 10.9753 13.3496 11.3882C12.4715 12.7644 11.8818 11.7581 11.2397 10.8377C9.08172 7.72396 6.29474 7.99921 4.46879 11.6118C3.75675 13.0225 3.18889 14.7084 2.46375 16.0932C0.528593 19.7833 0.493639 26.7419 3.19325 31.2319C4.36396 33.1758 5.85793 34.6725 7.33005 35.5326C8.87206 36.4358 10.4272 35.7218 11.5673 32.9006C11.8032 32.3157 12.4934 32.4275 12.9739 32.221C12.9739 32.8231 12.9651 33.4166 12.9608 34.0187H12.9651ZM7.4043 40.0054C7.60961 43.4804 8.84583 42.2246 9.90296 42.3794C9.86365 41.3816 9.83308 40.6935 9.80687 40.0054V37.769H7.4043V40.0054ZM9.40062 6.2531C9.4312 4.88547 9.46614 3.47482 9.50108 2.07277L9.00746 1.42766C8.36969 2.39103 7.68823 3.26838 7.11598 4.36077C6.98493 4.61022 7.20336 5.59079 7.26451 6.2531H9.40062Z" fill="#1A1A1B"/>
<path d="M218.306 10.1326C217.603 10.3304 216.904 10.7089 216.201 10.7089C181.486 10.7433 146.771 10.7433 112.056 10.7089C111.352 10.7089 110.649 10.3562 109.946 10.167C110.522 10.0723 111.099 9.89172 111.671 9.89172C139.786 9.88311 167.9 9.89172 196.015 9.89172C199.798 9.89172 203.585 9.88311 207.368 9.87451L218.306 10.124V10.1326Z" fill="#5395DB"/>
<path d="M107.382 26.4239C108.098 26.3207 108.815 26.1143 109.535 26.1143C135.265 26.1401 160.998 26.1831 186.728 26.2519C187.51 26.2519 188.291 26.5787 189.073 26.7508C188.894 26.8884 188.715 27.0174 188.54 27.155C188.274 27.155 188.012 27.155 187.745 27.155C185.103 27.1378 182.464 27.1206 179.821 27.1034C156.32 27.0088 132.814 26.9142 109.312 26.8024C108.67 26.8024 108.024 26.5529 107.382 26.4239Z" fill="#5395DB"/>
<path d="M26.7122 6.35637C27.0485 8.92822 25.7599 9.29809 25.2051 10.6571C24.3402 10.7087 23.4796 10.7603 22.6147 10.8206C21.1906 10.2529 19.7665 9.67655 18.3425 9.10885C18.0105 9.63354 17.6829 10.1582 17.3509 10.6915C16.6651 11.4743 15.9923 12.3 15.2803 12.9709C15.2191 13.0311 14.9134 12.085 14.7255 11.6119L14.708 11.6205C15.0662 11.2076 15.4769 10.9066 15.7652 10.3561C16.8179 8.33472 17.8445 6.32197 19.6967 7.6896V0.911621H26.5025C26.5723 2.72654 26.6423 4.54145 26.7122 6.35637ZM26.0787 2.54591H20.4218C20.7232 4.88551 20.7407 7.89604 21.2387 8.2487C22.3657 9.04004 23.8684 9.16906 24.9517 8.29171C25.5764 7.78422 25.6769 4.7909 26.0787 2.54591Z" fill="#141414"/>
<path d="M39.4109 9.39302C44.0588 8.68769 48.7154 8.24902 53.3763 8.7049C51.7164 10.623 41.0053 11.1219 39.4109 9.39302Z" fill="#1A1A1B"/>
<path d="M256.262 10.227C249.435 10.2097 242.607 10.2011 235.779 10.1839C235.622 10.0721 235.465 9.96031 235.307 9.84849C235.784 9.61625 236.264 9.18617 236.745 9.18617C243.074 9.15177 249.408 9.16037 255.738 9.21198C256.219 9.21198 256.695 9.63345 257.175 9.85709C256.869 9.98611 256.568 10.1065 256.262 10.2356V10.227Z" fill="#91C7FB"/>
<path d="M262.439 12.4724C262.19 11.8359 261.98 10.7521 261.679 10.6316C260.63 10.2188 259.543 10.15 258.473 9.94352C262.155 7.46629 265.108 10.279 265.65 16.7817C265.082 15.913 264.514 15.0528 263.942 14.1841C263.439 13.6164 262.937 13.0401 262.435 12.4724H262.439Z" fill="#91C7FB"/>
<path d="M235.308 9.84893C235.465 9.96075 235.622 10.0726 235.779 10.1844C232.966 10.365 230.157 10.6661 227.344 10.6833C225.339 10.6919 223.33 10.322 221.325 10.1156C223.806 10.0296 226.287 9.95215 228.764 9.86614C230.223 9.86614 231.686 9.84893 233.145 9.84033C233.866 9.84033 234.582 9.84033 235.303 9.84033L235.308 9.84893Z" fill="#5395DB"/>
<path d="M90.4719 5.35035C90.2622 5.72882 90.0526 6.10729 89.8385 6.47715C88.8251 4.25796 87.8291 4.85147 86.8331 6.52876C86.6365 6.1589 86.44 5.78903 86.2434 5.41056C87.5888 1.94416 89.1527 1.91835 90.4719 5.35035Z" fill="#3D3D3D"/>
<path d="M12.9651 34.0187C12.9651 33.4166 12.9739 32.8231 12.9783 32.221C13.5112 31.6619 14.1009 31.2491 14.5596 30.5179C15.2978 29.3481 15.6953 30.1825 16.106 31.2405C15.9356 31.5673 15.7652 31.8942 15.5992 32.2124C14.9571 33.3908 14.315 34.5692 13.568 35.9455C13.319 35.1369 13.1442 34.5778 12.9695 34.0101L12.9651 34.0187Z" fill="#292929"/>
<path d="M207.368 9.87428C203.585 9.87428 199.798 9.88289 196.015 9.89149C196.561 9.65065 197.111 9.18616 197.657 9.21197C200.894 9.3668 204.131 9.64204 207.368 9.87428Z" fill="#91C7FB"/>
<path d="M263.946 14.1841C264.514 15.0528 265.082 15.913 265.654 16.7817C265.641 18.1752 265.628 19.5686 265.619 20.9707C265.134 21.6846 264.654 22.3899 264.169 23.1038C264.4 20.1019 264.798 17.0828 263.946 14.1841Z" fill="#5395DB"/>
<path d="M108.648 10.21C108.513 11.1733 106.988 9.96912 107.77 12.3775L106.071 12.4464C106.071 11.8528 106.062 11.2507 106.062 10.6572C106.923 10.511 107.788 10.3562 108.648 10.21Z" fill="#5395DB"/>
<path d="M66.6691 8.13684C66.4638 8.07663 66.2585 8.01642 66.0532 7.95621C67.3942 4.73924 67.5166 4.73064 69.076 7.80138C68.9188 8.04222 68.7615 8.29167 68.6043 8.53251C68.0233 7.16487 67.3942 6.68318 66.6691 8.14544V8.13684Z" fill="#292929"/>
<path d="M56.9103 9.88336C56.3774 9.96077 55.8444 10.0382 55.3071 10.1156C54.7786 9.96937 54.2544 9.83175 53.3327 9.5737C54.6868 7.47494 55.8095 8.08564 56.9016 8.4383C56.9409 8.45551 56.9103 9.38447 56.9103 9.88336Z" fill="#1A1A1B"/>
<path d="M264.165 23.1039C264.649 22.39 265.13 21.6846 265.615 20.9707C266.191 23.6716 264.881 24.2823 264.274 25.6757L264.156 25.3747C264.156 24.6521 264.151 23.9296 264.147 23.2071L264.165 23.1125V23.1039Z" fill="#91C7FB"/>
<path d="M233.15 9.84863C231.691 9.84863 230.227 9.86618 228.768 9.87495C230.227 9.87495 231.691 9.85741 233.15 9.84863Z" fill="#91C7FB"/>
<path d="M30.0015 9.93469C29.4816 9.32398 28.9618 8.72188 28.442 8.11117C28.1231 6.23604 28.7827 6.12422 29.3156 6.61451C29.8005 7.05318 30.1325 8.11977 30.5344 8.91111C30.3553 9.24657 30.1806 9.59063 30.0015 9.92609V9.93469Z" fill="#292929"/>
<path d="M64.0262 9.98619C63.0827 9.90877 62.1391 9.83996 61.1956 9.76255L61.2524 9.71094C62.1784 9.80555 63.1002 9.89157 64.0262 9.98619Z" fill="#BEF8C7"/>
<path d="M188.54 27.1548C188.719 27.0171 188.899 26.8881 189.073 26.7505C189.501 26.8537 189.934 26.9655 190.362 27.0687C189.755 27.0945 189.148 27.129 188.536 27.1548H188.54Z" fill="#91C7FB"/>
<path d="M262.806 27.0003C263.007 26.7509 263.212 26.5014 263.413 26.252C263.645 26.2348 263.881 26.2262 264.112 26.209C263.675 26.4756 263.238 26.7337 262.802 27.0003H262.806Z" fill="#91C7FB"/>
<path d="M15.5948 32.2298C15.7652 31.9029 15.9356 31.5761 16.1016 31.2578C16.2457 31.4815 16.3942 31.7137 16.5384 31.9373C16.5471 32.5222 16.5602 33.1071 16.569 33.6834C16.2457 33.2018 15.9181 32.7115 15.5948 32.2298Z" fill="#141414"/>
<path d="M16.8486 33.2447C17.1849 33.1157 17.5213 32.9952 17.8577 32.8662C17.8096 33.5457 17.7616 34.2253 17.7135 34.9048C17.4252 34.3543 17.1369 33.8038 16.8486 33.2447Z" fill="#1A1A1B"/>
<path d="M256.262 10.2271C256.568 10.0981 256.869 9.97766 257.175 9.84863C257.324 9.93465 257.472 10.0121 257.625 10.0981C257.171 10.1411 256.721 10.1841 256.267 10.2271H256.262Z" fill="#5395DB"/>
<path d="M30.0015 9.9349C30.1806 9.59944 30.3553 9.25538 30.5344 8.91992L30.9188 9.71126C30.613 9.78867 30.3072 9.86609 30.0015 9.9349Z" fill="#1A1A1B"/>
<path d="M16.569 33.6836C16.5602 33.0987 16.5471 32.5138 16.5384 31.9375C16.8136 31.9375 17.0844 31.9547 17.3596 31.9547C17.1849 32.3676 17.0101 32.789 16.8354 33.2019C16.7961 33.4686 16.7087 33.6234 16.569 33.6836Z" fill="#1A1A1B"/>
<path d="M228.274 27.2754C228.458 27.2754 228.641 27.2929 228.829 27.3017C228.646 27.3017 228.462 27.2842 228.274 27.2754Z" fill="#91C7FB"/>
<path d="M193.345 26.9312C193.511 26.9312 193.673 26.9399 193.839 26.9487C193.673 26.9487 193.511 26.9399 193.345 26.9312Z" fill="#5395DB"/>
<path d="M210.81 27.1548C210.989 27.1548 211.164 27.1636 211.343 27.1723C211.164 27.1723 210.989 27.1636 210.81 27.1548Z" fill="#91C7FB"/>
<path d="M108.613 12.3437C108.924 12.3437 109.229 12.3349 109.54 12.3262C109.229 12.3262 108.924 12.3349 108.613 12.3437Z" fill="#5395DB"/>
<path d="M264.151 23.1895C264.151 23.912 264.156 24.6345 264.16 25.357C263.094 24.6517 263.688 23.9206 264.151 23.1895Z" fill="#2C73B3"/>
<path d="M89.7556 30.3545C87.2875 32.264 81.3116 33.15 77.3452 32.135C78.5814 25.1076 78.2101 18.1404 77.1312 11.2162C77.8825 10.7517 78.6251 10.2442 79.3852 9.84853C80.0011 9.53027 80.9141 10.528 81.067 8.29166C81.3903 8.27445 81.7179 8.25725 82.0411 8.23145C82.8449 8.60131 83.6443 8.97978 84.4481 9.34964C83.9676 11.285 84.151 12.9107 85.2824 13.2289C87.1957 13.7708 88.3839 15.8696 89.2969 19.0435C89.4978 19.7489 90.2186 19.8693 90.6991 20.2649L90.6379 20.3166C91.398 23.3529 92.9138 23.3185 94.268 23.4733C96.7055 23.7486 99.1518 23.6711 101.598 23.74C101.733 24.0238 101.864 24.3077 102 24.5915C102.07 25.8903 101.965 26.6731 101.113 26.6473C99.2523 26.5957 97.3914 26.7075 95.5348 26.9397C94.9888 27.0085 94.0583 26.2086 94.0147 28.4622L94.0452 28.5568C93.9753 28.1181 93.9185 27.301 93.8356 27.2924C92.4989 27.1375 91.149 27.0257 90.2055 29.4514L90.2623 29.546C90.1138 29.8384 89.9609 30.1395 89.8123 30.4319L89.7512 30.3287L89.7556 30.3545Z" fill="#B4B4B4"/>
<path d="M44.4169 20.2048C43.9976 19.6887 43.5782 19.1812 43.1589 18.6651C42.9929 19.5339 42.7002 20.394 42.6871 21.2714C42.6434 24.0755 42.7308 26.8796 42.7177 29.6922C42.7089 31.5588 42.1673 31.791 41.4116 31.0943C41.3984 28.6085 41.381 26.1226 41.3679 23.6368C41.464 20.9273 40.9267 18.992 39.424 17.7534C37.7553 21.9337 39.7472 27.43 38.3712 31.5588C38.1878 31.576 38.0043 31.6018 37.8208 31.619C37.7378 30.561 37.6111 29.5116 37.5762 28.4536C37.5019 26.2172 37.6155 23.9292 37.3971 21.7617C36.9865 17.7276 36.0691 17.3319 34.5184 20.2822L33.4438 20.1704C33.0812 19.336 32.7143 18.5017 32.2294 17.3835C30.1064 21.5208 31.4999 26.6731 30.7616 31.0513C29.7962 31.9888 29.0624 31.576 29.01 29.245C28.9401 26.1656 28.8134 22.9659 29.1366 19.9984C29.5472 16.2309 31.2334 15.1213 33.0069 15.0181C39.092 14.6654 45.177 14.3386 51.2621 14.1493C52.625 14.1063 54.0097 14.4848 55.3552 14.9579C58.9372 16.2137 60.3132 18.9748 60.9466 26.0796C61.1039 27.8687 61.0777 29.718 61.1432 31.834H56.1458C55.7265 28.3418 55.329 25.056 54.9358 21.7617C54.6082 19.0178 53.8962 18.5189 52.7823 20.308C52.4503 20.3424 52.1139 20.3768 51.7819 20.4026C51.0699 19.2586 50.3491 18.4501 49.5759 20.2048C49.2527 20.2306 48.925 20.265 48.6018 20.2908C47.3525 18.235 46.7584 19.9037 46.2167 21.9079L45.3998 22.8196C45.0766 21.9423 44.7533 21.0735 44.4344 20.1962L44.4169 20.2048Z" fill="#636363"/>
<path d="M74.5713 30.5353C74.5014 30.5611 74.4315 30.6127 74.3572 30.6127C69.6307 30.8707 69.2114 30.2428 69.0323 20.893C68.9668 17.4008 69.2944 13.8914 69.456 10.0293H74.1126C74.1956 10.855 74.1869 11.7668 74.3704 12.4979C75.8468 18.4674 75.8731 24.4626 74.5669 30.5353H74.5713Z" fill="#B4B4B4"/>
<path d="M103.026 18.536C102.585 15.0266 103.87 10.9753 101.83 7.6723C102.681 6.49389 103.363 5.54773 104.049 4.60156C104.293 6.27886 104.739 7.94755 104.748 9.63344C104.796 16.6437 104.717 23.6539 104.669 30.6641C104.66 31.7479 104.586 32.8231 104.538 33.9757C102.463 32.6855 102.162 31.3264 102.869 27.0515C103.743 24.2732 103.446 21.4089 103.022 18.536H103.026Z" fill="#B4B4B4"/>
<path d="M91.232 10.0808H92.809C92.9269 13.53 93.0405 16.8244 93.1803 20.9273C95.1548 17.1427 93.1279 13.2032 94.5432 10.0034C94.6874 13.3666 94.8359 16.7384 94.98 20.1016C96.4259 16.9792 95.8013 13.6247 95.7707 10.141H97.1467V21.4004C94.9407 22.8971 92.8134 21.0047 90.6467 20.3166L90.7078 20.265C90.7122 19.6543 90.7209 19.0436 90.7253 18.4329C91.0049 17.6846 91.5116 16.9448 91.516 16.1879C91.5378 14.1579 91.3412 12.1108 91.232 10.0722V10.0808Z" fill="#636363"/>
<path d="M99.1911 20.6436C101.196 17.3922 99.2261 13.8914 100.209 10.8809H101.952V21.7704H98.3655V10.9927C98.5359 10.9583 98.7063 10.9239 98.8766 10.8895C98.9727 13.9086 99.0688 16.9277 99.1911 20.635V20.6436Z" fill="#636363"/>
<path d="M74.5713 30.5352C75.873 24.4626 75.8468 18.4673 74.3747 12.4979C74.1956 11.7667 74.2 10.855 74.117 10.0292C75.2265 9.34971 75.7464 10.6915 76.0653 12.4032C77.201 18.4759 77.236 24.5658 76.2094 30.7588C75.576 30.6728 75.0736 30.604 74.5713 30.5352Z" fill="#9E9E9E"/>
<path d="M86.8332 6.52856C87.8291 4.85986 88.8295 4.26636 89.8386 6.47695C90.52 6.7522 91.1971 7.25108 91.8786 7.26828C94.4821 7.3457 97.0856 7.25108 99.6891 7.25108C100.143 7.25108 100.598 7.42311 101.052 7.51773C101.052 7.80158 101.043 8.08543 101.039 8.36928H91.1622C90.0832 8.39508 88.9911 8.21445 87.934 8.53271C87.3355 8.71334 86.7982 9.72831 86.2347 10.3648L86.2085 10.382C85.9595 9.88314 85.7149 9.39286 85.4659 8.89397C85.4484 8.46389 85.4266 8.02522 85.4091 7.59514C85.8809 7.24248 86.357 6.88122 86.8288 6.52856H86.8332Z" fill="#9E9E9E"/>
<path d="M86.2391 10.3732C86.8026 9.73669 87.3399 8.73032 87.9384 8.54109C88.9911 8.22283 90.0876 8.40346 91.1665 8.37766C91.1884 8.94536 91.2102 9.51306 91.2364 10.0808C91.3456 12.1193 91.5378 14.1579 91.5204 16.1964C91.5116 16.9534 91.0093 17.6931 90.7297 18.4414L90.7603 18.4844C90.5288 15.947 90.3016 13.4181 90.0701 10.8807C88.8819 10.0205 88.5499 11.242 88.5674 13.2977C88.3184 13.0225 88.0694 12.7472 87.816 12.472C87.7724 10.3818 86.89 10.7173 86.2435 10.3646L86.2391 10.3732Z" fill="#141414"/>
<path d="M66.6691 8.1371C67.3986 6.67484 68.0233 7.16513 68.6042 8.52417C68.5693 9.76278 68.5125 10.9928 68.4994 12.2314C68.4513 16.6096 68.4208 20.9963 68.3815 25.3745C68.1587 25.3745 67.9359 25.3831 67.7175 25.3917C67.6563 23.5768 67.6345 21.7447 67.5165 19.9384C67.2588 15.9989 66.953 12.068 66.6647 8.1371H66.6691Z" fill="#9E9E9E"/>
<path d="M48.5886 20.2994C48.9119 20.2736 49.2395 20.2392 49.5627 20.2134V31.2233C49.3967 31.2405 49.2264 31.2577 49.0604 31.2749C48.9031 27.6193 48.7459 23.9636 48.5886 20.2994Z" fill="#6B6B6B"/>
<path d="M67.7175 25.3829C67.9403 25.3829 68.163 25.3743 68.3815 25.3657C68.5955 27.172 68.9188 28.9611 68.993 30.7933C69.0891 33.2275 68.4688 33.8038 67.5034 32.7286C67.5777 30.1224 67.6476 27.7483 67.7175 25.3829Z" fill="#B4B4B4"/>
<path d="M36.0909 20.8846C36.8597 24.2306 36.6675 27.6798 36.4142 31.1376C36.2307 31.1634 36.0429 31.1892 35.8594 31.2064C35.772 27.8174 35.6846 24.4284 35.5973 21.048C35.7589 20.9878 35.9249 20.9362 36.0865 20.876L36.0909 20.8846Z" fill="#6B6B6B"/>
<path d="M98.728 28.0923H101.532C101.222 31.0082 101.231 30.948 100.314 30.4491C100.025 30.2943 99.6541 30.7501 99.3527 30.6297C99.06 30.5093 98.8067 30.0104 98.5402 29.675C98.6013 29.1503 98.6669 28.617 98.728 28.0923Z" fill="#6B6B6B"/>
<path d="M40.8262 30.5008C40.5728 30.5266 40.0966 30.5868 40.0966 30.5696C39.9394 27.3612 39.8127 24.1356 39.8826 20.7725C40.1141 21.7272 40.3457 22.682 40.5772 23.6454C40.6602 25.9334 40.7432 28.2214 40.8262 30.5094V30.5008Z" fill="#868686"/>
<path d="M45.3867 22.82L46.2036 21.9082V31.2494C46.0158 31.2752 45.8236 31.301 45.6357 31.3268C45.5396 30.7677 45.4435 30.2087 45.3474 29.6582C45.3605 28.2131 45.3736 26.7681 45.3911 25.3316C45.3911 24.4973 45.3911 23.6629 45.3867 22.8286V22.82Z" fill="#868686"/>
<path d="M94.0452 28.5744L94.0146 28.4798L95.6309 28.3594C95.6309 28.8067 95.6309 29.2453 95.6309 29.6926C95.4299 30.2001 95.229 30.7162 95.028 31.2237C94.3509 30.1571 93.687 29.7356 93.0754 31.4129C92.7915 30.9226 92.5119 30.4323 91.8479 29.2711C92.8788 28.9443 93.4598 28.755 94.0452 28.5744Z" fill="#6B6B6B"/>
<path d="M44.7096 29.761C44.6091 30.2427 44.5086 30.733 44.4038 31.2147C44.3033 31.2061 44.2072 31.1889 44.1068 31.1803C43.9102 27.7397 43.7093 24.3077 43.4996 20.6176C43.7617 20.4972 44.0893 20.3596 44.4169 20.2134C44.4737 21.9423 44.5305 23.6626 44.5873 25.3915C44.6266 26.8537 44.6703 28.316 44.7096 29.7696V29.761Z" fill="#6B6B6B"/>
<path d="M33.435 20.1621L34.5096 20.2739V31.215C34.383 31.215 34.2563 31.215 34.1296 31.215C33.8981 27.5336 33.6666 23.8436 33.435 20.1621Z" fill="#6B6B6B"/>
<path d="M51.7688 20.4027C52.1008 20.3683 52.4372 20.3339 52.7692 20.3081V31.5073C52.6905 31.5073 52.6163 31.5073 52.5376 31.4987C52.2799 27.8 52.0265 24.11 51.7688 20.4113V20.4027Z" fill="#6B6B6B"/>
<path d="M32.3167 21.8135C32.5089 24.9272 33.5049 27.9894 32.3167 31.1891V21.8135Z" fill="#6B6B6B"/>
<path d="M40.8262 30.5007C40.7432 28.2127 40.6602 25.9247 40.5772 23.6367C40.8393 23.6367 41.1057 23.6367 41.3678 23.6367C41.3809 26.1226 41.3984 28.6084 41.4115 31.0942C41.2149 30.8964 41.0227 30.6986 40.8262 30.5093V30.5007Z" fill="#141414"/>
<path d="M81.0714 8.2918C80.9142 10.5282 80.0012 9.53042 79.3896 9.84868C78.6295 10.2443 77.8869 10.7604 77.1356 11.2163C76.9477 10.6744 76.7555 10.1325 76.3449 8.95412C78.101 8.70468 79.5862 8.49824 81.0714 8.2832V8.2918Z" fill="#BEF8C7"/>
<path d="M51.048 31.6361C50.882 28.3848 50.7117 25.1248 50.5457 21.8734C50.7379 21.839 50.9257 21.8132 51.1179 21.7788C51.2446 25.0388 51.3756 28.3073 51.5023 31.5673L51.048 31.6447V31.6361Z" fill="#6B6B6B"/>
<path d="M54.0272 23.6541C54.7087 26.2346 55.1892 28.8667 54.5995 32.7287C53.6996 29.2451 54.1364 26.355 54.0578 23.6025L54.0316 23.6541H54.0272Z" fill="#6B6B6B"/>
<path d="M62.1697 25.452C62.4624 26.8626 62.7594 28.2733 63.1176 29.985C63.5676 30.4666 64.2359 31.1634 64.8999 31.8687H62.1741V25.4434L62.1697 25.452Z" fill="#BEF8C7"/>
<path d="M47.5185 31.4386V22.7769C47.6102 22.7769 47.6976 22.7769 47.7893 22.7769V31.4644C47.6976 31.4644 47.6102 31.4558 47.5185 31.4472V31.4386Z" fill="#636363"/>
<path d="M96.557 28.1182C96.8978 28.1182 97.2341 28.1182 97.5748 28.1182C97.671 28.6515 97.7671 29.1762 97.8632 29.7094C97.5967 30.2341 97.3302 30.7588 97.0638 31.2835C96.8148 30.7502 96.5658 30.2255 96.3168 29.6922C96.3954 29.1675 96.4784 28.6429 96.557 28.1182Z" fill="#6B6B6B"/>
<path d="M90.2099 29.4775C90.6162 29.6582 91.0268 29.8302 91.4636 30.0194C90.9016 31.6078 90.3322 31.7197 89.7556 30.3549L89.8168 30.4581C89.9653 30.1657 90.1182 29.8646 90.2667 29.5722L90.2099 29.4775Z" fill="#636363"/>
<path d="M44.7096 29.7613C44.6703 28.2991 44.6266 26.8368 44.5873 25.3832C44.8538 25.3659 45.1203 25.3487 45.3867 25.3315C45.3736 26.7766 45.3605 28.2216 45.343 29.6581C45.129 29.6925 44.9193 29.7269 44.7053 29.7613H44.7096Z" fill="#141414"/>
<path d="M85.4134 7.59521C85.4309 8.02529 85.4527 8.46397 85.4702 8.89404C85.1339 9.04887 84.7931 9.2037 84.4568 9.34992C83.653 8.98006 82.8536 8.60159 82.0498 8.23173C83.1725 8.01669 84.2951 7.80165 85.4178 7.59521H85.4134Z" fill="#BEF8C7"/>
<path d="M96.557 28.1182C96.4784 28.6429 96.3954 29.1675 96.3167 29.6922C96.0896 29.6922 95.8581 29.6922 95.6309 29.6922C95.6309 29.245 95.6309 28.8063 95.6309 28.359C95.9411 28.2816 96.2469 28.1956 96.557 28.1182Z" fill="#292929"/>
<path d="M97.8631 29.7096C97.767 29.1763 97.6709 28.6516 97.5748 28.1183C97.9592 28.1183 98.3436 28.1011 98.728 28.1011C98.6625 28.6258 98.6013 29.1591 98.5402 29.6838C98.3174 29.6924 98.0903 29.701 97.8675 29.7096H97.8631Z" fill="#292929"/>
<path d="M61.746 22.4155C61.9294 23.4219 62.1085 24.4283 62.292 25.4261C62.1085 24.4197 61.9294 23.4133 61.746 22.4155Z" fill="#BEF8C7"/>
<path d="M54.0533 23.6024C53.9878 23.4905 53.9223 23.3701 53.8524 23.2583C53.8917 23.2841 53.9441 23.2841 53.9616 23.3357C53.9922 23.4303 54.0053 23.5508 54.0228 23.6626L54.049 23.611L54.0533 23.6024Z" fill="#6B6B6B"/>
<path d="M17.364 31.9547C17.0888 31.9547 16.8179 31.9375 16.5427 31.9375C16.3986 31.7139 16.2501 31.4817 16.1059 31.258C15.6909 30.1914 15.2978 29.3571 14.5595 30.5355C14.1009 31.2666 13.5112 31.6795 12.9782 32.2386C12.4977 32.445 11.8075 32.3332 11.5716 32.9181C10.4315 35.7394 8.87636 36.4533 7.33435 35.5502C5.86223 34.69 4.36828 33.1934 3.19758 31.2494C0.497967 26.7594 0.532921 19.8008 2.46808 16.1108C3.19322 14.7259 3.76108 13.04 4.47311 11.6294C6.29907 8.01676 9.08604 7.74151 11.244 10.8553C11.8861 11.7756 12.4759 12.782 13.3539 11.4058C13.616 10.9929 14.2625 11.5176 14.7299 11.6208C14.9221 12.0939 15.2235 13.04 15.2847 12.9798C15.9967 12.3089 16.6694 11.4832 17.3552 10.7004C17.3727 11.0101 17.3902 11.3283 17.4033 11.638C17.4164 12.825 17.0145 14.5281 18.2289 14.2012C18.4386 18.4676 18.4604 22.6823 17.3596 26.5874C17.3596 28.3507 17.3596 30.114 17.3552 31.8773L17.364 31.9719V31.9547ZM9.70199 21.3491C9.61899 18.1923 9.91165 15.3882 9.35688 13.6163C9.04673 12.6272 7.06789 12.5584 6.33402 13.5217C5.72682 14.3217 5.46035 17.4956 5.73119 19.1901C6.27286 22.5963 7.91972 20.4459 9.70199 21.3405V21.3491ZM7.50472 32.2386C9.46172 32.273 9.82866 31.4559 9.88545 28.0153C9.92913 25.3488 9.28263 24.48 8.03767 24.4886C6.28598 24.4886 5.5652 25.7789 5.51715 28.9098C5.47346 32.0752 6.4738 32.3418 7.50472 32.2386ZM11.2396 13.883C11.1042 13.8314 10.9688 13.7798 10.8334 13.7282C10.6761 15.1388 10.3223 16.5925 10.4009 17.9601C10.6324 22.0028 11.0299 26.0111 11.3838 30.028C11.3925 30.1484 11.6066 30.2 12.0128 30.4839C12.0128 28.1443 12.4278 25.4262 11.9211 23.9209C11.0605 21.3835 11.2615 18.9493 11.2396 16.3774C11.2309 15.5431 11.2396 14.7173 11.2396 13.883ZM12.7642 22.3211C13.6422 18.7686 13.6291 16.7989 12.7642 14.055V22.3211ZM15.0706 19.7234C14.9614 19.7234 14.8478 19.7148 14.7386 19.7062L14.5814 26.8024C14.7474 26.8024 14.909 26.811 15.075 26.8196V19.7234H15.0706ZM17.5824 19.1901C17.6261 19.1041 17.7047 19.0267 17.7134 18.9321C17.7178 18.8375 17.6523 18.7256 17.6174 18.6138C17.5737 18.7084 17.4994 18.7858 17.4907 18.8891C17.4863 18.9837 17.5518 19.0955 17.5824 19.1901Z" fill="#636363"/>
<path d="M18.2245 14.184C17.0058 14.5108 17.4077 12.8077 17.3989 11.6207C17.6479 11.6207 17.8969 11.6121 18.1503 11.6035C18.1765 12.4637 18.2027 13.3238 18.2289 14.184H18.2245Z" fill="#141414"/>
<path d="M17.3509 31.8597C17.3509 30.0964 17.3509 28.3331 17.3553 26.5698C18.5085 28.4277 18.5041 30.0104 17.3509 31.8597Z" fill="#141414"/>
<path d="M18.1503 11.6119C17.9013 11.6119 17.6523 11.6205 17.399 11.6291C17.3815 11.3195 17.364 11.0012 17.3509 10.6916C17.6829 10.1669 18.0105 9.64218 18.3425 9.10889L18.1503 11.6033V11.6119Z" fill="#292929"/>
<path d="M9.40064 6.25318H7.26453C7.20337 5.59086 6.98495 4.61889 7.11599 4.36085C7.68824 3.26846 8.36534 2.3825 9.00748 1.42773L9.5011 2.07285C9.46615 3.48349 9.43558 4.89414 9.40064 6.25318Z" fill="#B4B4B4"/>
<path d="M7.40432 40.0054V37.769H9.80688V40.0054C9.00749 40.0054 8.20809 40.0054 7.40432 40.0054Z" fill="#9E9E9E"/>
<path d="M7.4043 40.0054C8.2037 40.0054 9.0031 40.0054 9.80686 40.0054C9.83744 40.6935 9.86364 41.3816 9.90295 42.3794C8.84582 42.2246 7.60961 43.4804 7.4043 40.0054Z" fill="#B4B4B4"/>
<path d="M26.0789 2.5459C25.677 4.79089 25.5721 7.79281 24.9518 8.2917C23.8685 9.16905 22.3658 9.04003 21.2388 8.24869C20.7408 7.89603 20.7277 4.88551 20.4219 2.5459H26.0789Z" fill="#868686"/>
<path d="M84.4524 9.35822C84.7887 9.2034 85.1295 9.04857 85.4658 8.90234C85.7148 9.40123 85.9594 9.89152 86.2084 10.3904C86.1735 10.9667 86.1385 11.543 86.1036 12.1193C86.6715 12.2397 87.2394 12.3601 87.8072 12.4806C88.0562 12.7558 88.3052 13.0311 88.5586 13.3063C89.0435 15.4395 89.2095 18.0887 90.7515 18.4844L90.7209 18.4414C90.7165 19.0521 90.7078 19.6628 90.7034 20.2735C90.2229 19.8865 89.5065 19.7574 89.3012 19.0521C88.3882 15.8782 87.1957 13.7794 85.2867 13.2375C84.1553 12.9106 83.9719 11.2936 84.4524 9.35822Z" fill="#1A1A1B"/>
<path d="M45.3911 25.3228C45.1246 25.34 44.8582 25.3572 44.5917 25.3744C44.5349 23.6455 44.4781 21.9252 44.4213 20.1963C44.7446 21.0736 45.0679 21.9424 45.3867 22.8197C45.3867 23.6541 45.3867 24.4884 45.3911 25.3228Z" fill="#1A1A1B"/>
<path d="M87.8116 12.4809C87.2438 12.3605 86.6759 12.2401 86.108 12.1196C86.1429 11.5433 86.1779 10.967 86.2128 10.3907L86.2391 10.3735C86.8812 10.7262 87.768 10.3907 87.8116 12.4809Z" fill="#636363"/>
<path d="M90.7515 18.493C89.2095 18.0974 89.0435 15.4395 88.5586 13.3149C88.5411 11.2506 88.8731 10.0377 90.0613 10.8979C90.2928 13.4267 90.5199 15.9642 90.7515 18.5016V18.493Z" fill="#636363"/>
<path d="M9.7021 21.3488C7.91983 20.4542 6.27296 22.6046 5.73129 19.1984C5.46046 17.5039 5.7313 14.33 6.33412 13.53C7.06363 12.558 9.04683 12.6269 9.35698 13.6246C9.91176 15.3965 9.6191 18.192 9.7021 21.3574V21.3488ZM7.78003 19.2156C9.39193 19.2672 8.54013 17.2201 8.8066 15.1729C7.78878 15.818 7.12042 16.2481 6.4477 16.6782C6.3385 18.6479 6.60932 19.8521 7.78003 19.2156Z" fill="#292929"/>
<path d="M7.50475 32.2382C6.47383 32.3415 5.46913 32.0748 5.51718 28.9095C5.56086 25.7785 6.28164 24.4883 8.0377 24.4883C9.28703 24.4883 9.92917 25.3484 9.88548 28.0149C9.8287 31.4641 9.46175 32.2726 7.50475 32.2382ZM6.33842 28.0837C6.34279 31.3437 7.54844 30.6039 8.29979 30.4405C8.60557 30.3717 8.81961 28.6944 9.2477 27.1031C7.911 27.5504 7.1553 27.8085 6.33842 28.0837Z" fill="#292929"/>
<path d="M11.2396 13.8829C11.2396 14.7172 11.2352 15.5515 11.2396 16.3773C11.2614 18.9405 11.0605 21.3834 11.921 23.9208C12.4321 25.4175 12.0128 28.1355 12.0128 30.4838C11.6022 30.1999 11.3925 30.1483 11.3837 30.0279C11.0299 26.011 10.6324 22.0027 10.4009 17.96C10.3222 16.6009 10.6761 15.1473 10.8333 13.728C10.9688 13.7796 11.1042 13.8312 11.2396 13.8829Z" fill="#141414"/>
<path d="M12.7642 22.3207V14.0547C13.6292 16.8072 13.6423 18.7683 12.7642 22.3207Z" fill="#1A1A1B"/>
<path d="M15.0707 19.7233V26.8195C14.9047 26.8195 14.7431 26.8109 14.5771 26.8023L14.7343 19.7061C14.8435 19.7061 14.9571 19.7147 15.0663 19.7233H15.0707Z" fill="#141414"/>
<path d="M17.5824 19.1901C17.5518 19.0955 17.4863 18.9836 17.4906 18.889C17.495 18.7944 17.5693 18.7084 17.6173 18.6138C17.6523 18.717 17.7178 18.8288 17.7134 18.932C17.709 19.0266 17.6304 19.1041 17.5824 19.1901Z" fill="#141414"/>
<path d="M6.44762 16.6698C7.12034 16.2397 7.7887 15.8097 8.80652 15.1646C8.54005 17.2117 9.39186 19.2675 7.77995 19.2073C7.82363 18.4675 7.87169 17.7192 7.91974 16.8676C7.3737 16.7988 6.91066 16.73 6.44762 16.6698Z" fill="#BEF8C7"/>
<path d="M6.44756 16.6699C6.9106 16.7301 7.37801 16.7903 7.91968 16.8678C7.86726 17.7279 7.82357 18.4676 7.77989 19.2074C6.60918 19.8439 6.33835 18.6397 6.44756 16.6699Z" fill="#B4B4B4"/>
<path d="M6.3384 28.0841C7.15527 27.8088 7.91098 27.5508 9.24768 27.1035C8.81959 28.6948 8.60555 30.3721 8.29977 30.4409C7.54842 30.6043 6.34277 31.3441 6.3384 28.0841Z" fill="#B4B4B4"/>
</g>
<defs>
<clipPath id="clip0_28_47064">
<rect width="44.2375" height="265.759" fill="white" transform="matrix(0 1 -1 0 265.759 0)"/>
</clipPath>
</defs>
</svg>
