<svg width="215" height="141" viewBox="0 0 215 141" fill="none" xmlns="http://www.w3.org/2000/svg">
<path d="M39.6889 108.847C38.7992 117.607 37.959 125.768 37.1353 133.929C37.0694 134.57 36.9212 135.275 37.02 135.873C37.3165 137.561 37.7449 139.227 38.1238 140.894C39.4912 140.381 41.1715 140.338 42.1765 139.249C47.646 133.245 53.3626 127.477 58.1731 120.64C63.3296 113.291 68.8979 111.048 76.6079 111.219C112.143 112.073 147.711 111.966 183.247 111.988C192.225 111.988 201.22 111.261 210.199 110.834C214.152 110.642 214.976 109.958 214.993 104.959C215.026 93.1873 214.96 81.3942 214.548 69.6225C213.839 49.6042 212.917 29.6072 211.945 9.63165C211.632 3.13692 210.693 1.94052 205.586 1.68415C190.759 0.957765 175.915 0.0818301 161.089 0.0391016C115.026 -0.089084 68.9638 0.124559 22.918 0.295473C16.9707 0.316837 11.007 0.765486 5.05972 1.32096C1.27061 1.68415 0.446884 2.966 0.496307 7.7516C0.661057 22.2793 0.661072 36.8284 1.20473 51.356C1.79781 67.1656 2.9016 82.9538 3.84064 98.7633C4.23602 105.408 5.83401 107.416 11.1223 107.608C19.4913 107.929 27.8767 108.057 36.2622 108.313C37.3495 108.356 38.4368 108.655 39.7218 108.869L39.6889 108.847ZM40.8091 135.531C41.7646 126.729 42.6872 119.145 43.3956 111.496C43.9722 105.258 42.819 103.634 38.0085 103.613C32.2589 103.613 26.4929 103.912 20.7433 103.72C17.0366 103.613 13.3134 103.015 9.6396 102.288C8.81587 102.118 7.66267 100.515 7.54736 99.4256C4.38428 69.6439 4.23599 39.6484 3.92299 9.65302C3.89005 6.40565 4.97736 5.6579 7.1355 5.59381C12.8851 5.42289 18.6346 4.93152 24.4007 4.91015C72.8682 4.80333 121.352 4.69651 169.82 4.80333C181.418 4.8247 193.032 5.70063 204.63 6.21337C206.541 6.29883 208.073 6.5552 208.271 9.97348C210.149 40.5244 211.83 71.0753 211.467 101.776C211.434 105.365 210.429 106.177 207.942 106.219C201.484 106.326 195.026 106.989 188.568 106.989C149.293 106.989 110.001 106.924 70.7266 106.604C66.888 106.561 64.1039 107.587 61.3362 111.091C54.9112 119.188 48.1732 126.857 40.8256 135.553L40.8091 135.531Z" fill="white"/>
</svg>
