<svg width="117" height="81" viewBox="0 0 117 81" fill="none" xmlns="http://www.w3.org/2000/svg">
<path d="M21.6695 62.1984C21.1858 67.2038 20.7289 71.8673 20.281 76.5308C20.2451 76.897 20.1645 77.2999 20.2183 77.6417C20.3795 78.6062 20.6124 79.5584 20.8185 80.5106C21.562 80.2176 22.4758 80.1932 23.0222 79.5706C25.9964 76.1401 29.105 72.8439 31.7209 68.9373C34.5248 64.7377 37.5528 63.4559 41.7453 63.5535C61.0686 64.0419 80.4098 63.9808 99.7331 63.993C104.615 63.993 109.507 63.578 114.389 63.3338C116.539 63.2239 116.987 62.8333 116.996 59.9766C117.014 53.2499 116.978 46.511 116.754 39.7843C116.369 28.3452 115.867 16.9184 115.339 5.5038C115.168 1.79253 114.658 1.10887 111.881 0.962371C103.818 0.547294 95.7466 0.04676 87.6841 0.0223437C62.6363 -0.0509051 37.5886 0.0711763 12.5499 0.168841C9.31586 0.18105 6.07291 0.437421 2.83893 0.754833C0.778496 0.962371 0.330566 1.69486 0.357445 4.42948C0.447029 12.731 0.447037 21.0448 0.742661 29.3463C1.06517 38.3803 1.66538 47.4022 2.17602 56.4362C2.39101 60.2329 3.25997 61.3805 6.13563 61.4904C10.6865 61.6735 15.2463 61.7467 19.8062 61.8932C20.3974 61.9176 20.9887 62.0886 21.6874 62.2106L21.6695 62.1984ZM22.2787 77.4464C22.7983 72.4166 23.2999 68.0828 23.6852 63.7122C23.9987 60.1475 23.3716 59.2196 20.7558 59.2074C17.6293 59.2074 14.4938 59.3783 11.3673 59.2685C9.3517 59.2074 7.3271 58.8656 5.32937 58.4505C4.88145 58.3529 4.25436 57.4373 4.19165 56.8146C2.47163 39.7965 2.39101 22.6562 2.22079 5.51601C2.20288 3.66037 2.79414 3.23309 3.96769 3.19646C7.09418 3.0988 10.2207 2.81801 13.3561 2.8058C39.7118 2.74476 66.0764 2.68372 92.432 2.74476C98.7388 2.75697 105.054 3.2575 111.361 3.5505C112.4 3.59933 113.233 3.74583 113.341 5.69913C114.362 23.1568 115.276 40.6144 115.079 58.1575C115.061 60.2085 114.515 60.6724 113.162 60.6968C109.65 60.7579 106.138 61.1363 102.627 61.1363C81.2698 61.1363 59.904 61.0997 38.5472 60.9166C36.4599 60.8922 34.9459 61.4781 33.4409 63.4803C29.9471 68.1072 26.2831 72.4899 22.2876 77.4586L22.2787 77.4464Z" fill="white"/>
</svg>
