<svg width="178" height="123" viewBox="0 0 178 123" fill="none" xmlns="http://www.w3.org/2000/svg">
<g clip-path="url(#clip0_40_2895)">
<path d="M80.6661 0C82.6501 0 84.6341 0 86.6299 0C89.2198 4.35262 92.7363 2.24154 96.0865 1.34018C107.028 3.59358 116.425 8.74082 124.052 16.8649C126.333 19.2844 128.163 20.0197 131.679 19.1776C143.583 16.3431 155.57 13.5085 167.985 16.3194C176.361 18.217 179.996 23.5658 176.955 31.5001C175.161 36.173 172.381 40.8221 168.935 44.4275C161.997 51.6859 154.228 58.1377 147.005 65.1351C145.508 66.582 144.154 68.871 143.975 70.8872C140.411 110.417 95.6707 135.145 60.2442 116.892C56.7276 115.078 53.8764 115.125 50.2411 115.991C40.8439 118.209 31.3636 120.177 21.8119 121.601C17.6183 122.229 13.0682 121.85 8.89824 120.948C2.01964 119.454 -1.782 114.152 0.867268 107.689C4.24123 99.4461 9.31404 91.8201 14.2681 84.3364C16.7154 80.648 20.5764 77.8964 23.7959 74.718C24.3305 76.2953 24.8533 77.8727 25.3879 79.4501C19.4478 87.1947 13.1394 94.6783 7.71022 102.755C3.8967 108.424 4.83523 111.686 9.43284 116.169C10.3595 116.951 11.2505 118.375 12.2009 118.422C17.3094 118.636 22.4416 118.742 27.5263 118.351C29.3796 118.209 31.126 116.607 32.9199 115.671L33.0268 115.955C39.7628 115.279 46.9147 115.955 52.1657 110.298C79.9771 100.395 106.173 87.254 130.491 70.5195C143.144 61.8143 155.606 52.8007 165.3 40.6205V40.573C165.668 40.1105 166.049 39.648 166.429 39.1973L166.393 39.2566L167.89 37.0625H167.498L167.89 37.1099C168.52 36.1848 169.161 35.2598 169.791 34.3347C172.143 31.3815 173.949 28.3335 171.466 24.562L171.49 24.4316C169.339 23.2337 167.284 21.2768 165.003 20.9685C153.658 19.3911 142.692 21.3954 132.071 25.4515C131.941 25.499 132.012 26.1276 131.929 27.6456C136.8 26.6494 141.385 25.2618 146.042 24.8823C151.092 24.479 156.224 25.0127 161.32 25.1432C162.294 27.0408 163.281 28.9384 164.255 30.836C163.875 32.1406 163.494 33.457 163.114 34.7616L163.079 34.8091C159.36 38.628 155.642 42.4351 151.923 46.254C152.493 45.234 153.064 44.2141 153.634 43.206V43.1348C154.192 42.5655 154.739 41.9962 155.285 41.4388C155.582 41.3677 155.749 41.1779 155.784 40.8814C157.566 38.3789 159.621 36.0188 161.047 33.3266C162.283 31.002 162.58 28.381 159.111 27.278L155.487 26.3529C153.551 26.3648 151.626 26.3885 149.69 26.4003C148.05 26.685 146.423 26.9578 144.783 27.2424C141.29 28.037 137.81 28.8316 134.317 29.6263C134.364 30.2074 134.424 30.7885 134.471 31.3697C137.691 33.9314 141.469 31.0257 144.902 31.5594L147.219 31.9627C147.444 32.3303 147.777 32.5082 148.217 32.4845C148.359 32.8047 148.585 33.0419 148.906 33.1961C148.917 33.6349 149.143 33.8603 149.583 33.8721C149.915 34.4058 150.26 34.9395 150.593 35.4732C150.521 35.5918 150.367 35.7223 150.402 35.8053C150.474 36.0425 150.616 36.2679 150.723 36.4932C150.747 36.9676 150.771 37.4301 150.806 37.9045C150.64 38.4501 150.474 38.9838 150.307 39.5294C145.223 44.7359 140.661 50.6066 134.97 55.0304C106.933 76.8053 76.021 93.1365 41.5448 102.328C40.6895 102.458 39.8341 102.577 38.9787 102.708C34.1316 103.206 29.2014 104.285 24.9245 100.715C23.3801 95.9355 25.8037 92.4012 28.4292 88.7958C29.4152 87.4319 29.7835 85.6173 30.4369 84.0043C29.7122 83.613 28.9757 83.2216 28.251 82.8302L19.8636 94.3937L19.7567 94.4056C13.8285 100.644 13.3414 104.842 18.1172 108.626L18.6043 108.732L32.0407 109.337C32.0764 109.764 32.112 110.179 32.1595 110.606C28.0965 110.891 23.986 111.709 19.9824 111.33C13.8998 110.76 11.4406 106.574 13.579 100.822C14.7195 97.7501 16.4778 94.8088 18.4261 92.1522C21.6456 87.764 25.2572 83.6604 28.6905 79.4264C30.3062 79.8415 31.9338 80.2447 33.5495 80.6598C35.7711 84.7515 38.0164 88.8314 40.1905 92.9586C42.3408 97.0385 45.192 98.1059 49.0887 95.2476C50.0866 95.0341 51.0846 94.8207 52.0825 94.5953C70.2116 88.7365 87.2952 80.5412 103.583 70.8042C112.505 65.4672 120.821 59.1339 129.41 53.2514C132.119 51.3538 136.562 50.571 134.851 45.6491C130.539 33.2198 124.611 21.8817 113.063 14.4811C106.695 9.47614 99.5318 6.42812 91.4058 5.77582C84.1945 6.08418 76.6744 5.18282 69.8433 6.94996C50.9658 11.8244 39.5965 25.1788 32.7773 42.8502C31.8388 43.206 30.8884 43.5618 30.2112 43.8227C30.0568 41.7828 29.9142 39.8733 29.7716 37.9638C37.3987 18.0865 51.3816 5.5742 72.3738 1.17414C75.4032 2.64478 78.397 3.94938 80.6661 0.01186V0ZM79.4306 105.423C75.4864 107.048 71.554 108.673 67.6098 110.298C66.0535 110.784 64.4972 111.27 61.5985 112.172C81.1057 121.162 98.6289 119.466 115.107 109.017C129.208 100.086 138.843 83.4588 136.835 72.5832C134.507 74.6468 132.523 76.4139 130.539 78.1811C115.071 86.578 99.603 94.963 84.1351 103.36L79.4187 105.423H79.4306ZM33.3357 90.385C32.7179 90.302 32.112 90.219 31.4942 90.136C30.6151 92.7214 29.7479 95.3069 28.8687 97.8924C31.6606 98.5091 34.4524 99.1258 37.2442 99.7544C37.4581 99.2682 37.66 98.7938 37.8739 98.3075C36.3651 95.6746 34.8563 93.0298 33.3357 90.3969V90.385ZM139.77 44.3208C140.328 44.4631 140.898 44.6054 141.457 44.7478L145.544 36.766C142.942 36.5051 140.328 36.2441 136.859 35.9002C138.178 39.7073 138.974 42.0081 139.77 44.3208ZM78.3851 120.059C78.3851 120.189 78.3851 120.332 78.397 120.462H91.0493C91.0493 120.332 91.0375 120.189 91.0256 120.059H78.3851Z" fill="#241B1B"/>
<path d="M29.7478 37.9165C29.8904 39.826 30.033 41.7473 30.1874 43.7753C30.8765 43.5144 31.815 43.1586 32.7535 42.8028C28.9519 55.493 29.8072 68.0883 33.5138 80.6243C31.8981 80.2092 30.2706 79.806 28.6549 79.3909C27.55 79.4028 26.457 79.4146 25.3522 79.4384C24.8176 77.861 24.2949 76.2836 23.7603 74.7062C24.4612 72.2275 25.7918 69.7487 25.7442 67.2819C25.5779 57.2602 25.6136 47.3333 29.736 37.9165H29.7478ZM28.0846 55.7184C27.9064 55.7184 27.7163 55.7184 27.5381 55.7184V63.9729C27.7163 63.9729 27.9064 63.9729 28.0846 63.9729V55.7184Z" fill="#14061C"/>
<path d="M80.6661 0C78.4089 3.93752 75.4032 2.63292 72.3738 1.16228C75.1418 0.7709 77.898 0.39138 80.6661 0Z" fill="#14061C"/>
<path d="M96.0865 1.34018C92.7481 2.24154 89.2316 4.36448 86.6299 0L96.0865 1.34018Z" fill="#14061C"/>
<path d="M52.0588 94.5597C51.0608 94.7732 50.0629 94.9867 49.065 95.212C46.3207 90.6933 42.6141 86.483 41.0459 81.5967C38.5154 73.7098 36.2582 65.396 36.0325 57.2126C35.8424 50.4168 38.7411 43.538 40.2737 36.7066C41.7825 36.8727 43.3625 37.3708 44.8 37.1099C45.7861 36.932 46.582 35.7104 47.4612 34.9514C47.9839 34.7853 48.4947 34.6074 49.0174 34.4414C50.3005 33.5875 51.5954 32.7454 52.8547 31.8678C59.1393 27.5033 65.412 23.127 71.6966 18.7506C72.2906 18.1813 72.8965 17.6239 73.4905 17.0546C72.849 16.5328 72.2075 16.0228 71.5659 15.501C69.6651 15.9517 67.5742 16.0347 65.911 16.9242C60.4343 19.8299 55.112 23.0321 49.7421 26.1275C50.9895 23.72 51.6311 20.4347 53.5913 19.0353C64.521 11.2432 76.5912 7.47176 90.1465 10.5909C92.1304 11.3856 94.1263 12.192 96.1103 12.9867C98.118 16.4616 100.126 19.9366 102.134 23.4116C95.9202 28.6774 89.7188 33.9433 83.5055 39.1972C83.8619 39.6123 84.2064 40.0393 84.5628 40.4544C92.2374 37.4657 98.8546 33.0419 103.488 25.9022C108.596 29.2467 109.749 33.5756 106.066 38.035C103.488 41.1541 100.138 43.6566 97.0607 46.337C94.4114 48.6378 91.6434 50.8082 88.9347 53.0379C89.2673 53.5716 89.6119 54.0934 89.9445 54.6271C91.6196 53.9511 93.5085 53.5597 94.9342 52.5397C100.019 48.9106 104.973 45.0917 109.927 41.2846C111.982 39.7072 113.966 37.1573 115.463 41.7234C115.285 42.8264 115.118 43.9294 114.94 45.0205C110.2 49.2782 105.472 53.5241 100.732 57.7819C101.088 58.3037 101.444 58.8374 101.801 59.3592C104.462 58.6951 107.123 58.0191 109.784 57.3549C110.046 57.7581 110.295 58.1732 110.557 58.5765C108.109 60.5927 105.828 62.8342 103.203 64.5776C89.3861 73.7217 74.5241 80.7191 58.7116 85.724C54.4348 87.076 51.1915 89.3294 52.0588 94.5953V94.5597ZM42.2101 50.7963C43.4813 50.3101 44.7525 49.8357 46.0118 49.3494C44.8832 48.6971 43.7546 48.0448 42.6259 47.3925C41.8656 47.9855 41.0934 48.5904 40.3331 49.1834C40.9627 49.7171 41.5805 50.2626 42.2101 50.7963ZM59.8402 48.5073C61.8005 48.5073 63.7963 48.7327 65.709 48.4125C69.3206 47.8076 71.9461 43.7633 71.0313 40.5849C70.1878 37.6199 66.1367 36.0662 62.7628 37.3589C59.1393 38.7466 57.6187 41.3676 58.0107 45.1628C57.3573 46.2658 56.692 47.3688 56.0386 48.4718C57.3098 48.4718 58.5691 48.4955 59.8402 48.5073ZM70.0096 74.7061C69.7008 73.8877 69.3919 73.0812 69.0711 72.2629C62.2519 73.437 57.4642 78.9638 51.144 81.2053L51.8212 82.6997C57.88 80.0312 63.9508 77.3627 70.0096 74.6942V74.7061ZM73.241 45.744C73.8588 46.3014 74.4766 46.8469 75.0825 47.4044C76.4724 45.7914 77.8743 44.1666 79.2643 42.5536C78.7534 42.1148 78.2426 41.676 77.7317 41.249L73.2292 45.744H73.241ZM41.2716 42.5655C41.9488 42.9094 42.6378 43.2534 43.315 43.5973C43.8496 42.4469 44.4317 41.3202 44.8356 40.1342C44.8713 40.0393 43.2081 39.1972 43.1605 39.2684C42.4477 40.3121 41.8775 41.4506 41.2716 42.5773V42.5655ZM82.1392 68.9421C81.5334 67.934 81.2839 66.9971 80.773 66.8192C80.2147 66.6175 79.4068 67.1157 78.7178 67.3054C79.0385 68.0882 79.193 69.0133 79.7395 69.5707C79.9771 69.8079 80.9988 69.2623 82.1511 68.9421H82.1392ZM42.6616 57.4616C41.6993 58.363 40.7489 59.039 40.832 59.2169C41.1884 59.9522 41.8181 60.5927 42.4477 61.1382C42.5428 61.2213 43.612 60.5571 43.5882 60.2843C43.5169 59.5134 43.1249 58.7662 42.6497 57.4616H42.6616ZM73.3598 32.9826C73.8707 32.3659 74.4409 31.9745 74.4528 31.5594C74.4528 31.1562 73.9063 30.7292 73.6093 30.3141C73.2173 30.6699 72.5757 30.9664 72.5045 31.3815C72.4332 31.7729 72.9559 32.271 73.3717 32.9826H73.3598Z" fill="#82629A"/>
<path d="M102.133 23.3761C100.126 19.9011 98.1179 16.4262 96.1102 12.9512C101.266 15.3113 106.434 17.6714 111.59 20.0316C112.731 21.0397 113.978 21.941 115 23.0677C122.817 31.6662 127.961 41.5575 129.386 53.2158C120.797 59.0984 112.469 65.4316 103.559 70.7686C87.2714 80.5057 70.1878 88.701 52.0587 94.5598C51.1914 89.294 54.4347 87.0524 58.7115 85.6885C74.5121 80.6836 89.3861 73.6862 103.203 64.5421C105.828 62.8106 108.109 60.5572 110.556 58.541C110.295 58.1378 110.046 57.7227 109.784 57.3194C107.123 57.9836 104.462 58.6596 101.801 59.3237C101.444 58.8019 101.088 58.2682 100.732 57.7464C105.472 53.4886 110.2 49.2428 114.94 44.985C116.568 44.7004 118.183 44.4276 119.811 44.143C119.811 43.5025 119.799 42.8502 119.787 42.2098C118.35 42.0319 116.9 41.8658 115.463 41.6879C113.966 37.1218 111.982 39.6717 109.927 41.2491C104.973 45.068 100.019 48.8751 94.9341 52.5042C93.5085 53.5242 91.6195 53.9156 89.9444 54.5916C89.6118 54.0579 89.2673 53.5361 88.9346 53.0024C91.6433 50.7727 94.4113 48.6023 97.0606 46.3015C100.149 43.6211 103.488 41.1187 106.066 37.9995C109.76 33.5401 108.608 29.2112 103.488 25.8667C103.036 25.0365 102.585 24.1944 102.133 23.3642V23.3761Z" fill="#65467F"/>
<path d="M25.364 79.4384C26.4689 79.4265 27.5619 79.4147 28.6667 79.3909C25.2215 83.6131 21.6218 87.7285 18.4023 92.1167C16.4539 94.7733 14.6957 97.7146 13.5552 100.786C11.4168 106.538 13.876 110.725 19.9586 111.294C23.9622 111.662 28.0727 110.856 32.1357 110.571C33.6445 110.369 35.1652 110.168 36.6739 109.966C38.9668 109.444 41.3072 109.077 43.5644 108.389C79.1216 97.6198 110.806 79.4621 140.459 57.4974C141.385 56.8095 141.825 55.4812 142.49 54.4494L142.419 54.5205C144.035 53.3227 145.65 52.113 147.254 50.9151L147.183 50.9744C148.787 49.3614 150.391 47.7603 151.994 46.1474L151.923 46.2423C155.642 42.4233 159.36 38.6163 163.079 34.7974C163.815 36.7424 164.564 38.6756 165.3 40.6206C155.606 52.8008 143.132 61.8144 130.491 70.5197C106.185 87.2541 79.9889 100.395 52.1656 110.298C45.786 112.184 39.4064 114.07 33.0267 115.955L32.9198 115.671C25.0908 115.837 17.2499 116.003 9.42091 116.169C4.8233 111.674 3.88477 108.412 7.69829 102.755C13.1275 94.6785 19.4359 87.1948 25.3759 79.4502L25.364 79.4384Z" fill="#DAAF79"/>
<path d="M40.2736 36.6946C38.7411 43.5378 35.8423 50.4166 36.0324 57.2005C36.2581 65.3958 38.5153 73.6978 41.0458 81.5847C42.614 86.471 46.3206 90.6813 49.0649 95.2C45.1682 98.0582 42.317 97.0027 40.1667 92.911C38.0045 88.7837 35.7473 84.7157 33.5257 80.6122C29.8191 68.0762 28.9637 55.4808 32.7654 42.7907C39.5845 25.1074 50.9538 11.7649 69.8314 6.89045C76.6624 5.12331 84.1826 6.03653 91.3938 5.71631C90.978 7.31741 90.5622 8.93037 90.1464 10.5315C76.5912 7.41229 64.5209 11.1838 53.5912 18.9758C51.6191 20.3871 50.9895 23.6605 49.7421 26.0681C49.7777 26.7441 49.8133 27.4082 49.849 28.0843C49.4451 28.5824 49.0293 29.0805 48.6253 29.5786C47.5799 30.0412 46.5463 30.5037 45.5009 30.9544C45.1207 30.3732 44.7405 29.7921 44.3485 29.2228C43.41 30.5156 42.4714 31.8202 41.5329 33.1129C41.1171 34.2989 40.6894 35.4849 40.2736 36.6709V36.6946Z" fill="#AA91BA"/>
<path d="M67.6099 110.286C71.5541 108.661 75.4864 107.037 79.4306 105.412C79.692 105.922 79.8345 106.562 80.2384 106.906C81.3908 107.867 82.6501 108.709 83.8619 109.598C84.0044 108.08 84.1708 106.574 84.2658 105.056C84.3014 104.499 84.1826 103.917 84.1351 103.348C99.6031 94.9513 115.071 86.5663 130.539 78.1694C130.052 80.0315 129.874 82.0595 129.03 83.7318C119.597 102.328 103.69 111.057 83.4817 112.397C78.2545 112.741 72.4213 114.39 67.6099 110.286ZM119.894 88.9027C119.74 89.4246 119.597 89.9345 119.443 90.4564C119.585 89.9345 119.728 89.4127 119.871 88.879C119.977 88.7248 120.073 88.5588 120.179 88.4046C120.084 88.5706 119.989 88.7367 119.906 88.9027H119.894ZM114.964 95.4613C114.631 94.8446 114.287 94.216 113.954 93.5993C109.642 96.2203 105.329 98.8414 101.029 101.462C101.361 102.032 101.706 102.601 102.038 103.17C106.351 100.609 110.652 98.0349 114.964 95.4732V95.4613Z" fill="#65467F"/>
<path d="M67.6099 110.286C72.4213 114.401 78.2544 112.753 83.4817 112.397C103.69 111.057 119.597 102.328 129.03 83.7315C129.885 82.0474 130.052 80.0312 130.539 78.1692C132.523 76.4021 134.507 74.6468 136.835 72.5713C138.843 83.4469 129.208 100.075 115.107 109.005C98.6289 119.442 81.1057 121.138 61.5985 112.16C64.4973 111.259 66.0536 110.772 67.6099 110.286Z" fill="#9C79A8"/>
<path d="M153.622 43.1823C153.052 44.2022 152.481 45.2222 151.911 46.2303L151.983 46.1354C150.379 47.7484 148.775 49.3494 147.171 50.9624L147.242 50.9031C145.627 52.101 144.011 53.3107 142.407 54.5085L142.478 54.4374C141.611 54.7813 140.649 54.9829 139.877 55.4811C124.088 65.5621 108.644 76.2242 92.4749 85.6529C76.2704 95.1053 59.1274 102.767 40.7013 107.131C39.3232 105.234 45.1208 104.546 41.5211 102.281C75.9972 93.0891 106.909 76.7579 134.946 54.9829C140.637 50.5592 145.199 44.6885 150.284 39.4819C151.389 40.7154 152.505 41.9488 153.61 43.1823H153.622Z" fill="#DAAF79"/>
<path d="M129.398 53.2156C127.973 41.5573 122.829 31.666 115.012 23.0675C113.99 21.9527 112.742 21.0395 111.602 20.0314C112.089 18.1693 112.576 16.3073 113.051 14.4453C124.599 21.8459 130.527 33.1841 134.839 45.6134C136.55 50.5353 132.095 51.3062 129.398 53.2156Z" fill="#AA91BA"/>
<path d="M113.051 14.4455C112.564 16.3075 112.077 18.1695 111.602 20.0315C106.446 17.6714 101.278 15.3112 96.1222 12.9511C94.1382 12.1565 92.1423 11.35 90.1583 10.5554C90.5741 8.95429 90.9899 7.34133 91.4057 5.74023C99.5318 6.40439 106.695 9.45241 113.063 14.4455H113.051Z" fill="#9C79A8"/>
<path d="M153.622 43.1824C152.517 41.949 151.4 40.7156 150.296 39.4821C150.462 38.9366 150.628 38.4029 150.795 37.8573L151.092 35.4734L150.581 35.426C150.248 34.8923 149.904 34.3586 149.571 33.8249C149.559 33.3861 149.333 33.1607 148.894 33.1489C148.573 32.9947 148.347 32.7575 148.205 32.4373C147.872 32.2594 147.539 32.0815 147.207 31.9154L144.89 31.5122C144.854 30.0771 144.819 28.6302 144.783 27.1952C146.423 26.9105 148.05 26.6377 149.69 26.3531C151.626 26.3412 153.551 26.3175 155.487 26.3057L159.111 27.2307C158.445 30.5871 159.586 34.4535 155.855 36.9441C155.238 37.3592 155.772 39.494 155.784 40.8342C155.749 41.1425 155.582 41.3204 155.285 41.3916C154.739 41.9609 154.192 42.5301 153.634 43.0876V43.1587L153.622 43.1824Z" fill="#F5BB6E"/>
<path d="M161.296 25.1196C156.2 24.9891 151.068 24.4554 146.019 24.8587C141.35 25.2382 136.776 26.6258 131.905 27.622C131.988 26.0921 131.905 25.4754 132.048 25.4279C142.68 21.3837 153.646 19.3675 164.979 20.9449C167.26 21.2651 169.304 23.2101 171.466 24.408C169.66 23.9454 167.819 23.5659 166.037 22.9848C163.744 22.2376 161.819 22.0597 161.296 25.1077V25.1196Z" fill="#DAAF79"/>
<path d="M41.521 102.292C45.1207 104.557 39.3232 105.245 40.7013 107.143L40.5587 107.072L37.9807 107.712C37.5768 107.783 37.1848 107.855 36.7808 107.926C30.7101 108.187 24.6393 108.436 18.5805 108.697L18.0934 108.59V98.6631C21.2654 99.6 23.083 100.146 24.9126 100.691C27.8351 106.621 34.7731 107.594 38.9668 102.684C39.8221 102.553 40.6775 102.435 41.5329 102.304L41.521 102.292Z" fill="#F5BB6E"/>
<path d="M24.9126 100.679C23.0831 100.134 21.2654 99.6002 18.0934 98.6514V108.578C13.3295 104.795 13.8047 100.596 19.7329 94.3581C20.2437 95.129 20.7665 95.9117 21.2773 96.6826C21.5387 96.4336 21.7882 96.1845 22.0495 95.9473C21.3129 95.4136 20.5764 94.8799 19.8517 94.3462L28.2391 82.7827C28.9637 83.1741 29.7003 83.5655 30.425 83.9569C29.7716 85.5698 29.4033 87.3844 28.4173 88.7483C25.8036 92.3537 23.3682 95.888 24.9126 100.668V100.679Z" fill="#DAAF79"/>
<path d="M161.297 25.1197C161.831 22.0598 163.744 22.2377 166.037 22.9967C167.807 23.5779 169.648 23.9574 171.466 24.4199L171.442 24.5504C170.884 27.8119 170.325 31.0734 169.767 34.323C169.137 35.2481 168.496 36.1732 167.866 37.0983L167.474 37.0508H167.866L166.369 39.2449L166.405 39.1856C166.025 39.6482 165.645 40.1107 165.264 40.5614V40.6088C164.54 38.6638 163.803 36.7306 163.055 34.7856L163.09 34.7381C163.471 33.4335 163.851 32.1171 164.231 30.8125C163.257 28.9149 162.271 27.0173 161.297 25.1197Z" fill="#F5BB6E"/>
<path d="M144.771 27.207C144.807 28.6421 144.843 30.089 144.878 31.5241C141.445 30.9904 137.679 33.8961 134.447 31.3343C134.4 30.7532 134.34 30.172 134.293 29.5909C137.786 28.7963 141.267 28.0017 144.759 27.207H144.771Z" fill="#DAAF79"/>
<path d="M9.40906 116.157C17.2381 115.991 25.079 115.825 32.908 115.659C31.1141 116.596 29.3677 118.197 27.5144 118.339C22.4297 118.73 17.2975 118.612 12.189 118.41C11.2386 118.375 10.3357 116.951 9.42094 116.157H9.40906Z" fill="#14061C"/>
<path d="M155.772 40.8578C155.772 39.5176 155.226 37.3828 155.844 36.9677C159.574 34.4771 158.433 30.5989 159.099 27.2544C162.568 28.3574 162.271 30.9784 161.035 33.303C159.61 35.9952 157.554 38.3554 155.772 40.8578Z" fill="#DAAF79"/>
<path d="M18.5806 108.697C24.6513 108.436 30.7221 108.187 36.7809 107.926V107.89C36.4126 108.068 36.0444 108.234 35.6761 108.412C34.4524 108.708 33.2288 108.993 32.017 109.29L18.5806 108.685V108.697Z" fill="#DAAF79"/>
<path d="M33.0149 115.943C39.3945 114.058 45.7742 112.172 52.1538 110.286C46.8909 115.955 39.7509 115.267 33.0149 115.943Z" fill="#14061C"/>
<path d="M38.9668 102.672C34.7731 107.594 27.8351 106.61 24.9126 100.68C29.1894 104.25 34.1197 103.158 38.9668 102.672Z" fill="#DAAF79"/>
<path d="M84.1469 103.348C84.1944 103.917 84.3132 104.487 84.2776 105.056C84.1826 106.574 84.0162 108.092 83.8737 109.598C82.6619 108.709 81.4026 107.867 80.2502 106.906C79.8463 106.562 79.7037 105.922 79.4424 105.412L84.1588 103.348H84.1469Z" fill="#82629A"/>
<path d="M78.3851 120.059H91.0256C91.0256 120.189 91.0375 120.331 91.0493 120.462H78.397C78.397 120.331 78.397 120.189 78.3851 120.059Z" fill="#2B1B41"/>
<path d="M169.767 34.3229C170.325 31.0614 170.884 27.7999 171.442 24.5503C173.937 28.3336 172.119 31.3698 169.767 34.3229Z" fill="#DAAF79"/>
<path d="M32.017 109.301C33.2406 109.005 34.4643 108.72 35.676 108.424C35.9493 108.566 36.2344 108.685 36.5314 108.791C36.5552 109.183 36.6027 109.574 36.674 109.966C35.1652 110.167 33.6445 110.369 32.1358 110.57C32.1001 110.144 32.0645 109.728 32.0288 109.301H32.017Z" fill="#14061C"/>
<path d="M19.8399 94.3579C20.5764 94.8916 21.313 95.4253 22.0377 95.959C21.7763 96.2081 21.5268 96.4571 21.2655 96.6943C20.7546 95.9234 20.2319 95.1407 19.7211 94.3698L19.828 94.3579H19.8399Z" fill="#F5BB6E"/>
<path d="M153.622 43.111C154.168 42.5417 154.715 41.9725 155.273 41.415C154.727 41.9843 154.18 42.5536 153.622 43.111Z" fill="#DAAF79"/>
<path d="M151.08 35.4849C150.985 36.2795 150.878 37.0741 150.783 37.8687C150.759 37.3943 150.735 36.9318 150.699 36.4574C150.866 36.149 150.985 35.8288 151.08 35.4849Z" fill="#DAAF79"/>
<path d="M165.276 40.573C165.657 40.1105 166.037 39.6479 166.417 39.1973C166.037 39.6598 165.657 40.1223 165.276 40.573Z" fill="#DAAF79"/>
<path d="M151.08 35.4849C150.996 35.8289 150.866 36.1491 150.699 36.4575C150.581 36.2321 150.438 36.0068 150.379 35.7696C150.355 35.6866 150.509 35.5442 150.569 35.4375L151.08 35.4849Z" fill="#8B7A7D"/>
<path d="M147.195 31.9272C147.527 32.1051 147.86 32.283 148.193 32.4491C147.753 32.4728 147.421 32.2949 147.195 31.9272Z" fill="#DAAF79"/>
<path d="M148.894 33.1606C149.333 33.1725 149.559 33.3978 149.571 33.8367C149.131 33.8367 148.906 33.5995 148.894 33.1606Z" fill="#8B7A7D"/>
<path d="M28.0846 55.7183V63.9728C27.9064 63.9728 27.7163 63.9728 27.5381 63.9728V55.7183C27.7163 55.7183 27.9064 55.7183 28.0846 55.7183Z" fill="#2B1B41"/>
<path d="M49.8371 28.1081C49.8015 27.4321 49.7658 26.7679 49.7302 26.0919C55.1119 23.0083 60.4342 19.8061 65.899 16.8885C67.5623 15.999 69.665 15.916 71.554 15.4653C71.5896 16.5446 71.6371 17.6357 71.6728 18.715C65.3882 23.0913 59.1155 27.4676 52.8309 31.8321C51.5597 32.7098 50.2767 33.5518 48.9936 34.4057C48.8629 32.7928 48.7322 31.1917 48.6016 29.5787C49.0055 29.0925 49.4213 28.5943 49.8252 28.0962L49.8371 28.1081Z" fill="#9C79A8"/>
<path d="M58.0226 45.1629C57.6305 41.3677 59.1512 38.7467 62.7746 37.3591C66.1367 36.0663 70.1997 37.6318 71.0432 40.585C71.9461 43.7635 69.3325 47.8077 65.7209 48.4126C63.8082 48.7328 61.8124 48.4956 59.8521 48.5075C59.2462 47.3926 58.6404 46.2778 58.0226 45.1629Z" fill="#9C79A8"/>
<path d="M102.134 23.376C102.585 24.2062 103.036 25.0482 103.488 25.8784C98.8427 33.0182 92.2255 37.4419 84.5628 40.4306C84.2064 40.0155 83.8619 39.5886 83.5055 39.1735C89.7188 33.9077 95.9202 28.6418 102.134 23.3878V23.376Z" fill="#9C79A8"/>
<path d="M70.0096 74.7062C63.9507 77.3747 57.88 80.0432 51.8211 82.7117L51.1439 81.2173C57.4642 78.9758 62.2518 73.449 69.071 72.2749C69.3799 73.0932 69.6888 73.8997 70.0096 74.7181V74.7062Z" fill="#AA91BA"/>
<path d="M40.2737 36.6948C40.6895 35.5088 41.1172 34.3228 41.533 33.1368C42.6853 32.7336 43.8377 32.3422 45.002 31.939L47.4612 34.9395C46.582 35.6986 45.7861 36.9202 44.8 37.0981C43.3625 37.359 41.7943 36.8727 40.2737 36.6948Z" fill="#9C79A8"/>
<path d="M73.241 45.744L77.7435 41.249C78.2544 41.6878 78.7652 42.1267 79.2761 42.5536C77.8861 44.1666 76.4842 45.7914 75.0943 47.4044C74.4765 46.8469 73.8587 46.3014 73.2528 45.744H73.241Z" fill="#9C79A8"/>
<path d="M115.451 41.6997C116.889 41.8776 118.338 42.0436 119.775 42.2215C119.775 42.862 119.787 43.5143 119.799 44.1547C118.172 44.4394 116.556 44.7121 114.928 44.9968C115.107 43.8938 115.273 42.7908 115.451 41.6997Z" fill="#3D2655"/>
<path d="M58.0225 45.1631C58.6284 46.2779 59.2343 47.3928 59.8521 48.5076C58.5809 48.5076 57.3216 48.4839 56.0504 48.472C56.7038 47.369 57.3691 46.2661 58.0225 45.1631Z" fill="#3D2655"/>
<path d="M41.2716 42.5656C41.8775 41.4508 42.4477 40.3122 43.1605 39.2567C43.2081 39.1855 44.8713 40.0276 44.8356 40.1225C44.4317 41.3085 43.8496 42.447 43.315 43.5856C42.6378 43.2417 41.9488 42.8977 41.2716 42.5538V42.5656Z" fill="#CACADF"/>
<path d="M47.4611 34.9395L45.002 31.939C45.1564 31.6069 45.3227 31.2867 45.5009 30.9783C46.5464 30.5158 47.5799 30.0532 48.6254 29.6025C48.7561 31.2155 48.8868 32.8166 49.0174 34.4296C48.4947 34.5956 47.9839 34.7735 47.4611 34.9395Z" fill="#CACADF"/>
<path d="M42.6377 47.3926C43.7663 48.0449 44.895 48.6972 46.0236 49.3495C44.7524 49.8357 43.4812 50.3101 42.2219 50.7964C42.3645 49.6578 42.507 48.5311 42.6496 47.3926H42.6377Z" fill="#65467F"/>
<path d="M82.1392 68.9421C80.9987 69.2623 79.9651 69.8079 79.7275 69.5707C79.181 69.0133 79.0266 68.0882 78.7058 67.3054C79.4067 67.1157 80.2027 66.6175 80.7611 66.8192C81.2719 66.9971 81.5095 67.934 82.1273 68.9421H82.1392Z" fill="#65467F"/>
<path d="M42.6616 57.4619C43.1249 58.7784 43.5289 59.5137 43.6001 60.2846C43.6239 60.5455 42.5547 61.2097 42.4597 61.1385C41.8181 60.593 41.2004 59.9525 40.844 59.2172C40.7608 59.0393 41.7112 58.3633 42.6735 57.4619H42.6616Z" fill="#AA91BA"/>
<path d="M42.6378 47.3926C42.4952 48.5311 42.3526 49.6578 42.2101 50.7964L40.333 49.1834C41.0933 48.5904 41.8655 47.9856 42.6259 47.3926H42.6378Z" fill="#AFBBD0"/>
<path d="M71.6966 18.7267C71.6609 17.6474 71.6134 16.5563 71.5778 15.4771C72.2193 15.9989 72.8608 16.5089 73.5023 17.0307C72.9083 17.6 72.3024 18.1574 71.7084 18.7267H71.6966Z" fill="#3D2655"/>
<path d="M73.3598 32.9825C72.944 32.2709 72.4213 31.7727 72.4925 31.3814C72.5638 30.9781 73.2053 30.6698 73.5974 30.314C73.9063 30.7291 74.4528 31.156 74.4409 31.5593C74.4409 31.9625 73.8588 32.3539 73.3479 32.9825H73.3598Z" fill="#3D2655"/>
<path d="M36.6739 109.966C36.6027 109.574 36.5551 109.183 36.5314 108.792C36.5314 108.471 36.6145 108.175 36.7809 107.902V107.938C37.1729 107.866 37.5768 107.795 37.9689 107.724L40.5469 107.084L40.6894 107.155C59.1155 102.79 76.2585 95.1289 92.463 85.6764C108.632 76.2477 124.076 65.5975 139.865 55.5046C140.637 55.0065 141.599 54.8049 142.466 54.4609C141.801 55.4928 141.362 56.8211 140.435 57.509C110.782 79.4737 79.0979 97.6313 43.5407 108.4C41.2953 109.076 38.9549 109.456 36.6502 109.978L36.6739 109.966Z" fill="#241B1B"/>
<path d="M142.407 54.5205C144.023 53.3226 145.638 52.1129 147.242 50.915C145.627 52.1129 144.011 53.3226 142.407 54.5205Z" fill="#241B1B"/>
<path d="M45.5009 30.9781C45.3227 31.2865 45.1445 31.6067 45.002 31.9388C43.8496 32.342 42.6972 32.7334 41.533 33.1367C42.4715 31.8439 43.41 30.5393 44.3486 29.2466C44.7287 29.8277 45.1089 30.4089 45.5009 30.9781Z" fill="#82629A"/>
<path d="M114.964 95.4613C110.652 98.023 106.351 100.597 102.038 103.158C101.706 102.589 101.361 102.02 101.029 101.451C105.341 98.8295 109.654 96.2085 113.954 93.5874C114.287 94.2041 114.631 94.8327 114.964 95.4494V95.4613Z" fill="#82629A"/>
<path d="M119.871 88.8789C119.728 89.4007 119.585 89.9226 119.443 90.4563C119.597 89.9344 119.74 89.4245 119.894 88.9026L119.871 88.8789Z" fill="#82629A"/>
<path d="M119.894 88.9024C119.989 88.7364 120.084 88.5703 120.168 88.4043C120.061 88.5585 119.966 88.7245 119.859 88.8787L119.882 88.9024H119.894Z" fill="#82629A"/>
<path d="M36.7927 107.89C36.6264 108.163 36.5314 108.459 36.5432 108.78C36.2581 108.673 35.973 108.542 35.6879 108.412C36.0562 108.234 36.4244 108.068 36.7927 107.89Z" fill="#F5BB6E"/>
</g>
<defs>
<clipPath id="clip0_40_2895">
<rect width="178" height="123" fill="white"/>
</clipPath>
</defs>
</svg>
