<svg width="137" height="137" viewBox="0 0 137 137" fill="none" xmlns="http://www.w3.org/2000/svg">
<g clip-path="url(#clip0_40_2837)">
<path d="M137 69.1301C137.065 106.714 106.646 136.722 68.1904 136.984C31.1202 137.246 0.0816739 106.894 0.000165096 70.3081C-0.0813437 31.0227 30.028 0.0655525 68.3698 0.000104024C106.32 -0.0653444 136.919 30.7609 136.984 69.1301H137ZM128.132 58.8546C127.61 58.3311 127.089 57.8238 126.551 57.3002C129.241 50.5427 126.306 41.7071 120.16 38.0584C119.997 37.1748 119.834 36.2749 119.671 35.3914C119.671 34.7042 119.671 34.0006 119.688 33.3134C119.085 32.6098 118.498 31.9062 117.894 31.2027C108.977 21.3854 100.044 11.6172 85.992 9.34287C46.2646 -4.13951 4.43424 29.3537 7.10773 71.3389C8.88462 71.5353 10.7104 71.7316 12.5362 71.928C5.75469 76.6893 5.73838 81.6634 12.4221 94.5731H18.7961C18.8124 95.1458 18.845 95.7348 18.8613 96.3075C17.2963 96.9947 15.7151 97.6819 13.6447 98.5819C27.4034 120.278 46.2809 131.65 71.0758 130.292C95.9197 128.934 114.683 116.924 125.132 93.4769C125.312 92.3152 125.475 91.1371 125.654 89.9754C124.758 90.4335 123.861 90.8753 122.981 91.3334C122.003 91.7261 121.041 92.1352 120.063 92.5279C118.726 91.3334 117.405 90.139 115.433 88.3719C118.172 88.1919 119.949 88.0774 121.725 87.9628C130.284 84.0523 133.381 70.03 128.148 58.8546H128.132ZM79.2104 133.662C79.2104 133.433 79.2104 133.204 79.2104 132.975H58.442C58.442 133.204 58.442 133.433 58.442 133.662H79.2104ZM133.463 76.5094C133.724 76.5094 133.984 76.4766 134.245 76.4603V60.5399C133.984 60.5399 133.724 60.5399 133.463 60.5399V76.5094ZM3.9941 73.826C3.60285 73.7442 3.21161 73.6624 2.80407 73.5805C2.90188 75.1349 2.99969 76.7057 3.0812 78.2601C3.37463 78.2601 3.68436 78.2274 3.97779 78.211V73.826H3.9941Z" fill="#1B1825"/>
<path d="M120.16 38.0581C126.322 41.7232 129.257 50.5424 126.551 57.3C122.508 60.4742 118.4 63.5503 114.455 66.8391C109.564 70.9296 104.804 75.2001 99.995 79.3888L94.0448 79.7324C88.9913 80.4687 82.3239 79.4379 79.1776 82.3013C70.9778 89.7624 62.9248 90.5641 53.5024 86.2118C47.0632 82.0395 40.7055 82.9557 34.2826 86.3591C29.767 88.7479 25.1047 90.8914 20.5076 93.133C19.6925 90.8914 18.9263 88.6334 18.0623 86.4082C14.8672 78.1944 15.5845 77.049 24.1429 76.8854C28.9519 76.8036 33.7609 76.7381 38.5862 76.6563C42.8084 77.1472 47.0469 77.5726 51.269 78.1126C62.2075 79.5197 72.6732 79.0779 81.0849 70.5042C81.8022 70.226 82.5032 69.9642 83.2205 69.6861C83.0574 69.3588 82.8944 69.048 82.7151 68.7207C82.0304 69.1625 81.3458 69.5879 80.6774 70.0297C76.3737 71.4532 72.1679 73.3839 67.7501 74.202C60.8708 75.4783 53.6165 77.2945 48.188 70.4224C50.568 70.7496 52.9318 71.3386 55.3119 71.3714C64.1148 71.4695 72.9504 71.4532 79.3406 63.7957L79.2754 63.8448C80.1068 63.2721 80.9545 62.6995 81.7859 62.1268L81.9163 62.1595C87.0188 58.3962 91.9419 55.5165 98.8539 58.5926C106.809 62.1431 111.895 59.8361 115.563 51.7205C117.536 47.3518 118.677 42.6231 120.177 38.0581H120.16ZM86.6601 66.5445L87.3774 68.688C90.8823 67.6735 94.3872 66.6754 97.9084 65.661C97.7453 65.0556 97.566 64.4666 97.403 63.8612L86.6764 66.5445H86.6601Z" fill="#8AA3C2"/>
<path d="M121.709 87.9625C119.932 88.0771 118.155 88.1916 115.416 88.3716C117.389 90.1387 118.709 91.3331 120.046 92.5276V92.413C118.938 93.2475 117.829 94.082 116.721 94.9001L116.786 94.8673C111.292 96.029 108.015 99.007 108.586 105.061C107.852 106.124 107.298 107.368 106.369 108.202C95.9847 117.611 83.302 121.832 69.8856 124.417C68.7282 122.176 67.5545 119.934 66.397 117.709C66.2177 116.645 66.0221 115.598 65.8428 114.535C73.6024 111.802 81.411 109.184 89.0891 106.272C94.1752 104.341 99.0821 101.985 104.07 99.8087C103.842 99.3015 103.614 98.7942 103.386 98.287C102.326 98.2216 101.267 98.1561 100.207 98.0907C104.511 92.5112 108.798 86.9317 113.102 81.3522C112.792 81.0577 112.498 80.7796 112.189 80.485C109.858 81.4831 107.526 82.4976 105.179 83.4957C104.69 82.4648 104.185 81.434 103.695 80.4032C107.543 72.3694 115.009 69.2115 122.638 66.2827C122.328 73.4984 122.002 80.7305 121.693 87.9462L121.709 87.9625Z" fill="#64729B"/>
<path d="M120.046 92.3968V92.5113C121.024 92.1186 122.002 91.7096 122.981 91.3169C123.698 92.0368 124.431 92.7568 125.149 93.4603C114.683 116.907 95.9359 128.917 71.092 130.275C46.297 131.633 27.4196 120.245 13.6609 98.5653C15.7475 97.6654 17.3125 96.9782 18.8775 96.291C19.9045 96.2419 20.9152 96.1928 21.9422 96.1437C27.8271 107.892 35.5379 117.627 49.0357 121.047L51.4647 122.765V122.716C52.5569 123.288 53.6817 123.845 54.7902 124.417L54.6924 124.336C58.8331 124.336 62.9737 124.336 67.1144 124.336C68.0436 124.368 68.9891 124.385 69.9183 124.417C83.3183 121.832 96.0174 117.611 106.402 108.203C107.331 107.368 107.885 106.108 108.619 105.061C111.357 101.658 114.096 98.2544 116.818 94.8675L116.753 94.9002C117.862 94.0657 118.954 93.2313 120.062 92.4132L120.046 92.3968Z" fill="#7E8DB2"/>
<path d="M119.688 33.3133C119.688 34.0005 119.688 34.7041 119.671 35.3913C117.405 40.4799 115.368 45.6667 112.841 50.6244C110.233 55.7457 106.891 59.9181 100.288 55.9257C99.7342 55.3203 99.1636 54.6986 98.6094 54.0932L98.2507 54.2895C97.3378 50.2317 96.4412 46.1739 95.5283 42.1161L101.267 41.5107C99.3755 39.1382 97.2237 37.7474 95.186 37.8947C85.5843 38.6146 85.6006 38.7619 85.7799 29.3209L85.6984 29.4027C86.8232 28.8301 87.9317 28.2737 89.0565 27.7011L88.9587 27.7665C89.8064 27.1938 90.6541 26.6212 91.5018 26.0485L91.3877 26.1303C93.0179 26.0812 94.6317 26.0485 96.2619 25.9994C96.0337 25.4595 95.7892 24.9031 95.5609 24.3632C96.1315 17.1311 92.0071 13.4497 85.7636 11.3717L85.9918 9.34277C100.028 11.6171 108.977 21.3853 117.894 31.2026C118.498 31.9061 119.084 32.6097 119.688 33.3133Z" fill="#64729B"/>
<path d="M86.008 9.34272L85.7798 11.3716C84.6061 11.797 83.3997 12.6315 82.2423 12.5824C74.499 12.2879 66.5111 10.3899 59.1101 11.7807C50.6169 13.3842 40.95 15.4458 38.2928 26.3757C36.7115 26.8011 35.1302 27.2265 33.549 27.6356L25.3329 37.2892C25.3329 37.911 25.3655 38.5327 25.3818 39.1709L25.4796 39.1218C24.1265 39.6944 22.7898 40.2671 21.4368 40.8398C17.6384 49.5772 13.6445 58.2654 15.5681 68.23C15.2584 68.6554 15.0791 69.1135 15.0302 69.6371C14.1662 70.4389 13.3022 71.2406 12.4382 72.0423L12.5523 71.9278C10.7265 71.7315 8.9007 71.5351 7.12381 71.3388C4.43402 29.3536 46.2643 -4.13966 86.008 9.34272Z" fill="#7E8DB2"/>
<path d="M38.5863 76.673C33.7773 76.7548 28.9682 76.8203 24.1429 76.9021C15.5845 77.0493 14.8672 78.1947 18.0624 86.4248C18.9264 88.6501 19.6925 90.908 20.5076 93.1497L18.7959 94.5732H12.422C5.75454 81.6634 5.77084 76.7057 12.5361 71.928L12.422 72.0425C13.4653 71.9934 14.5086 71.9444 15.5682 71.8789C17.5733 72.5661 19.5621 73.8096 21.5835 73.8587C27.2077 73.9569 32.8481 73.5642 38.4885 73.3679C38.5211 74.4641 38.5537 75.5767 38.5863 76.673Z" fill="#AFBBD0"/>
<path d="M121.709 87.9627C122.019 80.747 122.345 73.5149 122.654 66.2993C124.48 63.8122 126.306 61.3415 128.132 58.8545C133.365 70.0298 130.267 84.0521 121.709 87.9627Z" fill="#7E8DB2"/>
<path d="M100.305 55.9256C106.891 59.9179 110.249 55.7456 112.857 50.6242C115.384 45.6665 117.422 40.4797 119.688 35.3911C119.851 36.2747 120.014 37.1746 120.177 38.0581C118.661 42.6232 117.519 47.3682 115.563 51.7205C111.895 59.8361 106.809 62.1432 98.8539 58.5926C91.942 55.5165 87.0025 58.3799 81.9164 62.1595C84.329 53.1604 91.404 53.9621 98.267 54.2894L98.6257 54.093C99.1799 54.6984 99.7505 55.3202 100.305 55.9256Z" fill="#1A2939"/>
<path d="M128.132 58.8544C126.306 61.3415 124.48 63.8122 122.654 66.2992C115.025 69.228 107.559 72.3859 103.712 80.4197C102.766 80.4197 101.821 80.4034 100.875 80.387C100.468 80.1579 100.174 79.8307 100.011 79.4053C104.82 75.2166 109.564 70.9461 114.471 66.8555C118.416 63.5667 122.524 60.4907 126.567 57.3164C127.089 57.84 127.61 58.3472 128.148 58.8708L128.132 58.8544Z" fill="#1A2939"/>
<path d="M18.7959 94.5731C19.3665 94.0986 19.937 93.6241 20.5076 93.1496C25.1047 90.908 29.7507 88.7645 34.2826 86.3757C40.7055 82.9723 47.0632 82.0561 53.5023 86.2284C53.2089 86.6047 52.9318 86.9811 52.6547 87.341C44.5527 85.0994 37.2169 86.7847 30.3538 91.4806C27.713 93.2805 24.746 94.6058 21.9421 96.1602C20.9151 96.2093 19.9044 96.2584 18.8774 96.3075C18.8611 95.7348 18.8285 95.1457 18.8122 94.5731H18.7959Z" fill="#1A2939"/>
<path d="M79.2102 133.662H58.4418C58.4418 133.433 58.4418 133.204 58.4418 132.975H79.2102C79.2102 133.204 79.2102 133.433 79.2102 133.662Z" fill="#1A2939"/>
<path d="M133.463 76.5095V60.54C133.723 60.54 133.984 60.54 134.245 60.54V76.4604C133.984 76.4604 133.723 76.4931 133.463 76.5095Z" fill="#1A2939"/>
<path d="M3.99392 73.826V78.211C3.70049 78.211 3.39075 78.2438 3.09732 78.2601C2.99951 76.7057 2.9017 75.135 2.82019 73.5806C3.21143 73.6624 3.60267 73.7442 4.01022 73.826H3.99392Z" fill="#1A2939"/>
<path d="M125.149 93.4766C124.431 92.7567 123.698 92.0367 122.98 91.3332C123.877 90.875 124.774 90.4332 125.654 89.9751C125.475 91.1368 125.312 92.3149 125.132 93.4766H125.149Z" fill="#64729B"/>
<path d="M98.2507 54.2895C91.3876 53.9623 84.2964 53.1605 81.9 62.1597L81.7696 62.127C80.9382 62.6996 80.0905 63.2723 79.2591 63.845L79.3243 63.7959C77.3681 64.4831 75.3956 65.1376 73.4394 65.8575C62.6313 69.9153 52.1656 70.5207 42.1237 63.1905C49.7203 56.9729 51.6928 52.2279 49.4106 46.5502C47.6011 42.0506 44.1614 41.6416 40.1023 42.607C38.5536 42.5906 37.005 42.5579 35.4563 42.5415C34.8368 41.9525 34.2174 41.3634 33.5816 40.7744L33.6305 40.8071C32.522 40.2508 31.4135 39.6945 30.2886 39.1382L30.3701 39.1873C28.6748 38.5492 26.9957 37.9274 25.3003 37.2893L33.5164 27.6356C35.0976 27.2102 36.6789 26.7848 38.2602 26.3757C40.9337 15.4458 50.6006 13.3842 59.0775 11.7807C66.4785 10.39 74.4664 12.288 82.2097 12.5825C83.3672 12.6316 84.5572 11.7971 85.7472 11.3717C91.9908 13.4333 96.1151 17.1148 95.5446 24.3632C94.1589 24.9522 92.757 25.5413 91.3713 26.1467L91.4854 26.0649C90.6377 26.6375 89.7901 27.2102 88.9424 27.7829L89.0402 27.7174C87.9154 28.2901 86.8068 28.8464 85.682 29.4191L85.7635 29.3373C85.1604 32.6261 83.0737 37.9765 84.2149 38.7946C87.2307 40.9544 91.6485 41.1507 95.512 42.1325C96.4249 46.1903 97.3215 50.2481 98.2344 54.3059L98.2507 54.2895ZM55.377 23.5942C55.752 24.4614 56.1269 25.3286 56.5182 26.1958C58.3766 24.985 60.2513 23.7578 62.1097 22.547C61.7999 22.1707 61.4902 21.8107 60.9848 21.2053C59.159 21.9907 57.268 22.7924 55.377 23.5942ZM88.4533 19.9782C88.274 19.5527 88.2088 18.9473 87.8991 18.751C87.6056 18.5874 87.0514 18.8819 86.6112 18.9801C86.8394 19.52 87.0514 20.0763 87.2796 20.6163C87.6708 20.4036 88.0621 20.1909 88.4696 19.9782H88.4533Z" fill="#4C879F"/>
<path d="M40.1187 42.6068C44.1778 41.6415 47.6175 42.0505 49.427 46.5501C51.7092 52.2278 49.7204 56.9728 42.1401 63.1904C52.182 70.5206 62.6477 69.9316 73.4558 65.8574C75.3957 65.1211 77.3682 64.483 79.3407 63.7958C72.9504 71.4696 64.1149 71.4696 55.3119 71.3714C52.9319 71.3387 50.5681 70.7497 48.188 70.4224C47.8457 70.1116 47.4545 69.9643 46.9817 69.9807C40.999 65.8247 34.788 62.4377 27.1099 63.9594C30.1583 62.814 33.1252 60.9979 36.2552 60.687C41.7488 60.147 45.3352 58.0527 46.7372 52.4896C48.2369 46.5828 44.5854 44.3576 40.1024 42.6068H40.1187Z" fill="#1A2939"/>
<path d="M46.9816 69.981C47.4381 69.981 47.8456 70.1119 48.188 70.4227C53.6164 77.3112 60.887 75.4786 67.7501 74.2024C72.1678 73.3843 76.3737 71.4535 80.6774 70.03L81.0849 70.5045C72.6732 79.0619 62.2075 79.5037 51.269 78.1129C47.0468 77.573 42.8084 77.1312 38.5862 76.6567C38.5536 75.5604 38.521 74.4478 38.4884 73.3516C41.3249 72.2226 44.1614 71.1099 46.9816 69.981Z" fill="#CACADF"/>
<path d="M53.5024 86.2118C62.9248 90.5641 70.9779 89.7624 79.1777 82.3013C82.3239 79.4379 88.9914 80.4851 94.0449 79.7324C94.0123 80.3705 93.9797 80.9923 93.9471 81.6304C87.4753 80.9759 82.0794 82.694 76.9444 87.1608C69.2336 93.8857 62.4847 93.542 52.6384 87.3244C52.9156 86.9481 53.209 86.5718 53.4861 86.2118H53.5024Z" fill="#1A2939"/>
<path d="M86.6602 66.5447L97.3868 63.8613C97.5498 64.4667 97.7291 65.0558 97.8921 65.6612C94.3873 66.6756 90.8824 67.6737 87.3612 68.6882L86.6439 66.5447H86.6602Z" fill="#CACADF"/>
<path d="M93.9471 81.6308C93.9797 80.9926 94.0123 80.3709 94.0449 79.7328L99.995 79.3892C100.158 79.8309 100.451 80.1582 100.859 80.3709C98.5442 80.7799 96.2456 81.2054 93.9308 81.6144L93.9471 81.6308Z" fill="#14061C"/>
<path d="M80.6774 70.0463C81.362 69.6045 82.0467 69.1791 82.7151 68.7373C82.8781 69.0645 83.0411 69.3754 83.2204 69.7027C82.5032 69.9808 81.8022 70.2426 81.0849 70.5208L80.6774 70.0463Z" fill="#CACADF"/>
<path d="M93.947 81.6307C96.2619 81.2217 98.5604 80.7963 100.875 80.3872C101.821 80.3872 102.766 80.4036 103.712 80.4199C104.201 81.4507 104.706 82.4816 105.195 83.5124C100.044 88.601 94.9088 93.6896 89.7575 98.7782L90.3117 100.022C93.6047 99.3836 96.8976 98.7291 100.191 98.091C101.25 98.1565 102.31 98.2219 103.369 98.2874C103.598 98.7946 103.826 99.3018 104.054 99.809C99.0658 101.969 94.159 104.341 89.0728 106.272C81.3784 109.185 73.5861 111.802 65.8265 114.535C63.6421 114.519 61.4576 114.486 59.2895 114.469C58.8982 114.437 58.4907 114.437 58.0995 114.469C57.0072 113.488 55.8987 112.522 54.8065 111.541C53.2089 114.175 51.5951 116.809 49.9975 119.427C49.6714 119.967 49.3291 120.507 49.0031 121.047C35.5215 117.627 27.8108 107.892 21.9095 96.1439C24.7298 94.6059 27.6804 93.2806 30.3213 91.4644C37.2006 86.7684 44.5201 85.0831 52.6221 87.3247C62.452 93.5423 69.2173 93.9023 76.928 87.1611C82.0467 82.6779 87.4426 80.9599 93.9307 81.6307H93.947ZM53.2089 96.5039C50.7311 96.5039 48.2369 96.5039 45.759 96.5039L45.8731 96.4221C41.8629 99.1546 41.488 101.445 46.6719 103.049L46.5904 102.983C49.3454 106.207 52.1004 107.205 54.8391 102.983L54.7576 103.081C57.8875 99.9399 57.7082 97.6329 53.1111 96.4384L53.2089 96.5039Z" fill="#4C879F"/>
<path d="M50.0139 119.427C51.6114 116.793 53.2253 114.158 54.8229 111.541C55.9151 112.522 57.0236 113.488 58.1158 114.469C56.5998 114.862 55.0674 115.255 53.5513 115.631C53.6492 116.138 53.747 116.629 53.8448 117.136C56.4041 116.809 58.9635 116.466 61.5229 116.138C63.1531 116.662 64.7833 117.185 66.4134 117.709C67.5709 119.951 68.7446 122.192 69.902 124.418C68.9728 124.385 68.0273 124.368 67.0981 124.336C62.9575 124.336 58.8168 124.336 54.6762 124.336L54.774 124.418C53.6492 123.845 52.5406 123.289 51.4158 122.716V122.765C50.9594 121.652 50.4866 120.54 49.9976 119.427H50.0139Z" fill="#3D2655"/>
<path d="M100.207 98.0907C96.914 98.7289 93.621 99.3833 90.3281 100.021L89.7738 98.7779C94.9252 93.6893 100.06 88.6007 105.212 83.5121C107.543 82.514 109.874 81.4996 112.221 80.5015C112.531 80.796 112.824 81.0741 113.134 81.3687C108.831 86.9481 104.543 92.5276 100.24 98.1071L100.207 98.0907Z" fill="#2F6482"/>
<path d="M116.802 94.8511C114.063 98.2544 111.325 101.658 108.602 105.045C108.048 98.9743 111.308 96.0128 116.802 94.8511Z" fill="#3D2655"/>
<path d="M66.4134 117.709C64.7832 117.185 63.1531 116.662 61.5229 116.138C60.7893 115.582 60.0557 115.026 59.3221 114.469C61.5066 114.486 63.691 114.518 65.8592 114.535C66.0385 115.598 66.2341 116.645 66.4134 117.709Z" fill="#1A2939"/>
<path d="M120.046 92.397C118.938 93.2314 117.845 94.0659 116.737 94.884C117.845 94.0495 118.938 93.2151 120.046 92.397Z" fill="#3D2655"/>
<path d="M50.0138 119.427C50.4866 120.54 50.9756 121.652 51.4484 122.765L49.0194 121.047C49.3454 120.507 49.6878 119.967 50.0138 119.427Z" fill="#190528"/>
<path d="M95.5283 42.116C91.6648 41.1342 87.247 40.9379 84.2312 38.7781C83.09 37.96 85.1767 32.6096 85.7798 29.3208C85.6005 38.7617 85.6005 38.6145 95.1859 37.8945C97.2237 37.7473 99.3755 39.1381 101.266 41.5106L95.5283 42.116Z" fill="#1A2939"/>
<path d="M91.4039 26.1468C92.7896 25.5577 94.1915 24.9687 95.5772 24.3633C95.8054 24.9032 96.0499 25.4595 96.2782 25.9995C94.648 26.0486 93.0341 26.0813 91.4039 26.1304V26.1468Z" fill="#1A2939"/>
<path d="M40.1186 42.607C44.6016 44.3741 48.2532 46.5829 46.7534 52.4897C45.3351 58.0528 41.7651 60.1471 36.2714 60.6871C33.1414 60.998 30.1745 62.8142 27.1261 63.9595L27.175 63.7959C24.9906 64.9085 22.7898 66.0048 20.6054 67.1174L20.6543 67.0847C19.5458 67.641 18.4372 68.1973 17.3287 68.77L17.508 68.7372C16.856 68.5736 16.2202 68.41 15.5681 68.2464C13.6445 58.2819 17.6548 49.5936 21.4368 40.8562C22.7898 40.2835 24.1266 39.7109 25.4796 39.1382L25.3818 39.1873C27.0609 39.1873 28.74 39.1873 30.4027 39.2036L30.3212 39.1545C31.4297 39.7109 32.5383 40.2672 33.6631 40.8235L33.6142 40.7908C34.2337 41.3798 34.8531 41.9688 35.4889 42.5579C37.0376 42.5742 38.5862 42.607 40.1349 42.6233L40.1186 42.607Z" fill="#65467F"/>
<path d="M38.2929 26.376C36.7116 26.8014 35.1303 27.2268 33.5491 27.6359C35.1303 27.2104 36.7116 26.785 38.2929 26.376Z" fill="#1A2939"/>
<path d="M30.3865 39.2037C28.7074 39.2037 27.0283 39.2037 25.3656 39.1873L25.3167 37.3057C27.012 37.9438 28.6911 38.5655 30.3865 39.2037Z" fill="#1A2939"/>
<path d="M15.5682 71.8788C14.5249 71.9279 13.4816 71.977 12.422 72.0424C13.286 71.2407 14.15 70.439 15.014 69.6372C15.3237 70.0135 15.666 70.3244 16.0736 70.5862C15.9432 71.0443 15.7802 71.4698 15.5682 71.8952V71.8788Z" fill="#1B1825"/>
<path d="M15.5519 68.2302C16.2039 68.3939 16.8397 68.5575 17.4918 68.7211C17.019 69.3429 16.5463 69.9483 16.0735 70.57C15.666 70.3082 15.3236 69.9973 15.0139 69.621C15.0628 69.0974 15.2421 68.6393 15.5519 68.2139V68.2302Z" fill="#1A2939"/>
<path d="M16.0736 70.586C16.5463 69.9642 17.0191 69.3588 17.4918 68.7371L17.3125 68.7698C18.421 68.2135 19.5296 67.6572 20.6381 67.0845L20.5892 67.1172C22.7736 66.0046 24.9744 64.9083 27.1588 63.7957L27.1099 63.9593C34.788 62.4377 40.999 65.8246 46.9817 69.9806C44.1452 71.1096 41.3087 72.2222 38.4885 73.3512C32.8481 73.5475 27.2077 73.9566 21.5836 73.842C19.5622 73.8093 17.5734 72.5658 15.5682 71.8622C15.7802 71.4532 15.9595 71.0114 16.0736 70.5533V70.586Z" fill="#8AA3C2"/>
<path d="M55.3771 23.5939C57.2681 22.7922 59.1591 21.9905 60.9849 21.2051C61.4902 21.7941 61.8 22.1704 62.1097 22.5468C60.2513 23.7576 58.3766 24.9847 56.5182 26.1955C56.1433 25.3283 55.7683 24.4611 55.3771 23.5939Z" fill="#1A2939"/>
<path d="M88.4533 19.9783C88.0621 20.191 87.6708 20.4037 87.2796 20.6164C87.0514 20.0765 86.8394 19.5202 86.6112 18.9802C87.0514 18.8821 87.6056 18.5875 87.899 18.7512C88.2088 18.9312 88.2903 19.5529 88.4533 19.9783Z" fill="#2F6482"/>
<path d="M33.6468 40.8237C32.5383 40.2674 31.4298 39.7111 30.3049 39.1548C31.4135 39.7111 32.522 40.2674 33.6468 40.8237Z" fill="#1A2939"/>
<path d="M35.4726 42.5415C34.8531 41.9525 34.2337 41.3635 33.5979 40.7744C34.2174 41.3635 34.8368 41.9525 35.4726 42.5415Z" fill="#1A2939"/>
<path d="M45.8569 96.4219L45.7428 96.5037C48.2207 96.5037 50.7148 96.5037 53.1927 96.5037L53.0949 96.4382C53.6492 98.6471 54.1871 100.872 54.7414 103.081L54.8229 102.983C52.0679 102.983 49.3129 102.983 46.5742 102.983L46.6557 103.049C46.3949 100.84 46.1177 98.6308 45.8569 96.4219Z" fill="#64729B"/>
<path d="M46.5741 102.983C49.3291 102.983 52.0841 102.983 54.8228 102.983C52.0678 107.204 49.3128 106.206 46.5741 102.983Z" fill="#1B1825"/>
<path d="M59.3059 114.469C60.0394 115.026 60.773 115.582 61.5066 116.138C58.9472 116.466 56.3878 116.809 53.8285 117.136C53.7307 116.629 53.6328 116.138 53.535 115.631C55.0511 115.238 56.5835 114.846 58.0995 114.469C58.4908 114.437 58.8983 114.437 59.2896 114.469H59.3059Z" fill="#64729B"/>
<path d="M54.7576 103.065C54.2033 100.856 53.6653 98.6308 53.1111 96.4219C57.7082 97.6163 57.8875 99.9234 54.7576 103.065Z" fill="#1B1825"/>
<path d="M45.8569 96.4219C46.1177 98.6308 46.3949 100.84 46.6557 103.049C41.4717 101.445 41.8467 99.1543 45.8569 96.4219Z" fill="#1A2939"/>
<path d="M20.6381 67.0845C19.5295 67.6408 18.421 68.1971 17.3125 68.7698C18.421 68.2135 19.5295 67.6571 20.6381 67.0845Z" fill="#1A2939"/>
</g>
<defs>
<clipPath id="clip0_40_2837">
<rect width="137" height="137" fill="white"/>
</clipPath>
</defs>
</svg>
