<svg width="51" height="66" viewBox="0 0 51 66" fill="none" xmlns="http://www.w3.org/2000/svg">
<g clip-path="url(#clip0_16_4149)">
<path d="M32.99 62.6303L44.1196 43.4449C39.872 43.8044 35.6255 44.1656 31.3779 44.5251C27.0985 44.8882 22.8163 45.2505 18.5368 45.6136C23.3536 51.2856 28.1722 56.9566 32.99 62.6303Z" fill="white"/>
<path d="M18.3349 45.5291L33.0046 62.8028L44.3006 43.3283L18.3349 45.5291ZM32.9737 62.4587L18.7378 45.6962L43.9359 43.5607L32.9737 62.4587Z" fill="#A9A29D"/>
<path d="M16.7895 2.66183L14.2044 6.19751C14.3649 6.31814 30.434 18.4026 31.2917 29.7569C31.7515 35.8616 28.702 47.2649 28.6716 47.3797L32.9011 48.5649C33.0355 48.0671 36.178 36.3186 35.6611 29.4592C34.6515 16.0768 17.5204 3.20349 16.7912 2.66088L16.7895 2.66183Z" fill="white"/>
</g>
<defs>
<clipPath id="clip0_16_4149">
<rect width="24.6831" height="60.5859" fill="white" transform="matrix(0.878678 -0.477416 -0.477416 -0.878678 28.9247 65.0196)"/>
</clipPath>
</defs>
</svg>
