<svg width="206" height="131" viewBox="0 0 206 131" fill="none" xmlns="http://www.w3.org/2000/svg">
<g clip-path="url(#clip0_27_32939)">
<path d="M178.656 60.2278C178.289 59.5929 177.889 58.9783 177.563 58.323C173.614 50.358 167.895 44.6274 158.742 42.922C154.687 42.165 150.714 40.9847 146.7 39.9957C145.631 39.7148 144.562 39.4177 143.489 39.1613C138.851 38.0624 134.213 36.9757 129.575 35.889C128.804 35.7262 128.033 35.5756 127.267 35.4006C116.094 32.8528 104.921 30.3131 93.756 27.7408C88.1797 26.4547 82.628 25.0424 77.0435 23.7929C73.1601 22.926 69.2115 22.3602 65.3403 21.4526C53.8248 18.7542 42.3337 15.954 30.8345 13.1904C29.5577 13.5282 28.905 14.2405 28.6929 15.665C27.5833 23.1783 26.38 30.6753 25.144 38.1682C24.3812 42.7836 23.5041 47.3828 22.6801 51.9901C29.4883 54.3548 36.3006 56.7194 43.1087 59.0841C43.2434 57.6189 43.3657 56.1537 43.5085 54.6885C43.6717 53.0442 43.8552 51.1028 45.9152 51.0499C48.5871 50.9848 51.3242 51.2249 53.939 51.7662C58.3649 52.682 62.7256 53.9071 67.0985 55.0548C69.6235 55.7182 72.1159 56.4875 74.6246 57.2079C74.8571 57.0695 75.1059 56.9555 75.318 56.7927C89.122 46.5403 107.968 45.999 122.453 55.2949C129.339 59.715 134.173 65.8241 137.901 72.9467C142.009 73.9927 146.149 74.9369 150.208 76.1498C151.477 76.5283 152.749 77.4481 153.634 78.4575C157.094 82.4095 160.365 86.5202 163.788 90.5048C164.383 91.1967 165.35 91.5752 166.145 92.0962C167.691 91.4043 169.241 90.7124 170.787 90.0205C171.093 89.3815 171.301 88.6692 171.722 88.1157C172.537 87.0453 173.565 86.1336 174.336 85.0347C178.383 79.2634 180.553 72.9833 179.415 65.8363C179.117 63.9722 178.909 62.0919 178.66 60.2197L178.656 60.2278ZM172.815 68.958C171.061 66.5934 169.36 63.9275 167.287 61.5872C162.584 56.2677 156.445 53.5652 149.576 52.0593C143.526 50.7324 137.595 48.8846 131.582 47.3909C125.753 45.942 119.879 44.6844 114.042 43.2843C108.523 41.9615 103.024 40.5451 97.5129 39.1939C86.2911 36.4385 75.061 33.6993 63.8351 30.9561C57.2146 29.3403 50.59 27.7489 43.9694 26.125C40.5715 25.2906 37.1858 24.4074 33.7266 23.5324C33.951 22.4294 34.1345 21.5259 34.3507 20.4554C35.2318 20.5002 36.0477 20.431 36.8105 20.602C48.4035 23.2149 59.9884 25.8604 71.5774 28.4938C84.4799 31.4283 97.3946 34.322 110.289 37.2972C118.451 39.1817 126.589 41.1556 134.727 43.1377C140.964 44.6599 147.165 46.3164 153.406 47.8061C159.953 49.369 165.574 52.2017 169.037 58.323C170.979 61.7541 172.313 65.3601 172.819 68.9621L172.815 68.958Z" fill="#4E4D76"/>
<path d="M60.4698 77.3017C60.7554 76.4999 60.9511 75.747 59.8375 75.4254C61.9342 75.3033 62.1668 73.5776 62.697 72.1124C62.8194 71.8357 62.9377 71.5589 63.0601 71.2781H63.0519C63.1988 71.0176 63.3456 70.753 63.4884 70.4926L63.9126 69.6826C64.7611 69.6826 65.3812 69.8129 64.8876 70.924C64.6428 71.4816 64.5735 72.1206 64.4266 72.7229C64.4633 72.8084 64.4552 72.8898 64.3981 72.959C64.3736 73.0852 64.345 73.2154 64.3206 73.3416C64.186 73.6183 64.0513 73.891 63.9167 74.1678C63.2722 75.0795 62.2851 75.9057 62.0403 76.9151C61.2856 80.0327 60.4902 83.1992 60.3189 86.3779C60.1068 90.3218 60.2047 94.343 60.7472 98.2502C61.1388 101.059 62.4564 103.745 63.4191 106.464C63.521 106.752 64.0146 106.903 64.3287 107.119C64.3654 107.322 64.4022 107.53 64.4389 107.733C64.8713 109.235 64.2145 111.4 66.8007 111.588C66.8619 111.657 66.8823 111.734 66.8619 111.824C66.8741 113.525 67.9143 114.473 69.3053 115.173H69.3257C70.5944 116.74 71.7977 118.368 73.1439 119.874C75.5016 122.516 78.4998 124.282 81.7102 125.699C82.114 125.878 82.6361 125.78 83.1012 125.812L83.093 125.804C83.9374 126.366 84.7247 127.062 85.6384 127.457C87.368 128.206 89.1628 128.804 90.9495 129.414C91.6308 129.646 92.3568 129.87 93.0625 129.882C96.1138 129.935 99.1691 129.858 102.22 129.915C109.412 130.053 115.751 127.664 121.784 123.908C129.269 119.248 133.903 112.418 137.322 104.591C138.036 102.955 138.407 101.164 138.843 99.4224C138.937 99.052 138.639 98.5799 138.525 98.1566C138.578 97.7577 138.627 97.3629 138.68 96.9641C139.043 96.3943 139.733 95.8204 139.72 95.2587C139.582 89.8293 139.329 84.4039 139.121 79.296C139.215 79.3815 139.7 79.8089 140.185 80.2403C140.218 80.4519 140.251 80.6636 140.283 80.8711L140.695 82.6538C140.781 83.2114 140.871 83.7731 140.956 84.3307C140.969 85.4947 140.956 86.6587 141.001 87.8228C141.071 89.7642 141.177 91.7056 141.266 93.647C141.25 93.9482 141.238 94.2493 141.221 94.5465L141.046 95.8977C139.773 105.348 135.6 113.35 128.531 120.208C128.547 120.208 128.564 120.216 128.58 120.216C126.749 121.103 125.374 122.333 123.677 123.623C121.747 125.092 119.655 126.46 117.489 127.55C115.29 128.657 112.908 129.382 110.489 130.009C107.784 130.399 105.051 130.583 102.445 130.611C99.6504 130.64 96.8521 130.794 94.0579 130.623C91.2595 130.452 88.5754 129.659 85.9321 128.755C80.5394 126.907 75.881 123.737 71.3245 120.379C71.296 120.359 71.2715 120.342 71.243 120.326C70.5332 119.561 70.0192 119.007 69.5134 118.462C64.1778 112.707 60.5922 105.963 59.1563 98.3072C57.8347 91.2741 58.0101 84.176 60.4617 77.3017H60.4698Z" fill="#B0B1C2"/>
<path d="M27.2284 12.2663C27.5099 11.086 27.8117 9.9138 28.0687 8.72942C28.7622 5.56294 27.2406 2.893 24.1568 1.89991C22.9983 1.52546 21.8275 1.15916 20.6364 0.906818C17.0345 0.149792 14.5013 1.58651 13.4652 5.13151C10.5241 15.1967 7.6605 25.2823 4.76835 35.3597C3.54868 39.6088 2.4473 43.9027 1.07669 48.1029C-0.142988 51.8352 1.61923 55.5104 5.64539 56.2593C6.44083 56.4058 7.19956 56.7355 7.99092 56.9349C11.6092 57.8547 14.2402 56.3895 15.4354 52.8445C15.774 51.8392 16.2105 50.8665 16.598 49.8775C16.6225 49.3077 16.5328 48.7053 16.6837 48.1681C18.7192 41.0251 20.7629 33.8822 22.8514 26.7556C24.271 21.9163 25.768 17.0974 27.2284 12.2704V12.2663Z" fill="#686693"/>
<path d="M59.8376 75.4251C61.9343 75.303 62.1668 73.5773 62.6971 72.1121C62.8194 71.8354 62.9377 71.5586 63.0601 71.2778H63.052C63.1988 71.0132 63.3457 70.7527 63.4884 70.4882C63.6312 70.2196 63.7699 69.9469 63.9127 69.6782C65.9237 66.8455 67.9348 64.0087 69.9458 61.1759C66.1562 60.2643 62.3707 59.3363 58.5771 58.4531C54.1348 57.4152 49.6844 56.414 45.2341 55.3965C45.1647 56.8047 45.0913 58.2089 45.0219 59.6171C45.5971 62.0795 46.4293 64.5174 46.6862 67.0124C47.0901 70.9033 49.2357 72.979 52.9682 73.6954C55.2811 74.1431 57.5491 74.835 59.8376 75.4211V75.4251Z" fill="#83422C"/>
<path d="M178.656 60.2275C178.905 62.0998 179.113 63.9801 179.411 65.8442C180.549 72.9952 178.379 79.2753 174.332 85.0425C173.561 86.1414 172.529 87.0531 171.717 88.1236C171.297 88.6771 171.089 89.3893 170.783 90.0283C175.254 90.1504 179.125 88.848 182.209 85.4455C182.58 85.0344 183.653 84.953 184.285 85.128C187.757 86.0926 192.134 84.1146 193.068 80.3498C193.778 77.4967 191.465 72.5964 188.279 72.0754C187.125 71.8882 186.525 71.3631 186.296 70.2154C185.395 65.6448 182.772 62.3602 178.656 60.2275Z" fill="#323252"/>
<path d="M203.939 124.693C204.547 124.27 205.159 123.851 205.766 123.427C205.824 120.184 205.938 116.94 205.93 113.7C205.921 110.562 204.143 108.791 200.986 108.779C192.986 108.743 184.987 108.722 176.992 108.791C175.376 108.804 174.267 108.446 173.227 107.094C170.261 103.236 167.1 99.524 164.053 95.7267C163.62 95.1894 163.404 94.4772 163.09 93.8463C162.507 93.419 161.813 93.0893 161.364 92.5521C159.251 90.0246 156.934 87.611 155.197 84.8393C151.583 79.0721 145.978 77.3342 139.781 76.5283C139.892 77.3505 139.998 78.1726 140.104 78.9988C141.948 79.414 143.885 79.5931 145.602 80.3094C147.303 81.0176 149.139 81.9659 150.285 83.3375C157.428 91.8927 164.428 100.566 171.375 109.28C172.309 110.452 173.227 110.81 174.618 110.802C182.69 110.757 190.763 110.765 198.836 110.786C202.165 110.794 203.849 112.495 203.878 115.772C203.902 118.747 203.919 121.726 203.939 124.701V124.693Z" fill="#C28062"/>
<path d="M27.2285 12.2666C25.7681 17.0937 24.2711 21.9126 22.8515 26.7519C20.7629 33.8785 18.7152 41.0214 16.6838 48.1643C16.5328 48.6975 16.6185 49.2998 16.5981 49.8737C18.6254 50.5778 20.6528 51.286 22.6802 51.9901C23.5042 47.3829 24.3853 42.7878 25.144 38.1724C26.38 30.6794 27.5793 23.1824 28.6929 15.6691C28.905 14.2446 29.5536 13.5324 30.8345 13.1946C29.6352 12.8852 28.4318 12.5759 27.2325 12.2666H27.2285Z" fill="#323252"/>
<path d="M153.231 20.4759C154.173 21.1352 155.115 21.7946 156.441 22.7185C156.29 21.1108 156.184 19.9834 156.066 18.7258C157.448 19.0921 158.529 19.381 159.606 19.67C159.749 19.4421 159.892 19.2101 160.035 18.9822C159.349 18.0257 158.664 17.0652 157.873 15.9622C159.023 15.4616 160.039 15.022 161.393 14.4319C160.104 13.7237 159.084 13.162 157.934 12.5312C158.721 11.5747 159.411 10.7404 160.23 9.7432C159.562 9.5519 159.137 9.27107 158.811 9.36061C156.184 10.0851 156.09 8.84372 156.788 6.88603C156.869 6.66218 156.755 6.36914 156.702 5.75456C155.511 6.57671 154.516 7.26454 153.329 8.08669C152.892 6.89417 152.525 5.88073 151.999 4.43994C151.24 5.80747 150.706 6.77207 150.094 7.87912C149.176 7.14244 148.274 6.42205 147.03 5.42489C147.03 7.08953 147.406 8.43265 146.9 9.16525C146.565 9.64959 144.962 9.25886 143.559 9.25886C143.755 9.86123 143.832 10.4514 144.126 10.8991C144.415 11.3427 144.921 11.648 145.566 12.2259C144.179 12.9015 143.135 13.4103 141.727 14.0941C142.767 14.615 143.485 14.9325 144.163 15.3232C144.534 15.5349 145.101 15.8605 145.105 16.1413C145.105 16.4995 144.66 16.8902 144.354 17.2117C143.93 17.6553 143.457 18.0501 143 18.4653C143.098 18.624 143.2 18.7827 143.298 18.9455C143.812 18.9862 144.334 19.0921 144.844 19.0554C147.361 18.8886 147.357 18.8723 146.675 21.237C146.59 21.5341 146.561 21.8515 146.9 22.5312C147.899 21.7824 148.903 21.0375 150.061 20.1706C150.061 21.0253 150.061 21.7457 150.061 22.4661C151.791 23.6831 152.419 23.4267 152.843 21.355C152.904 21.0498 153.096 20.7689 153.227 20.4799L153.231 20.4759ZM157.318 17.5902C156.669 17.6309 156.021 17.6716 155.413 17.7083C155.287 18.5792 155.197 19.2182 155.038 20.3171C152.929 17.696 152.505 20.2113 151.505 21.2655C151.007 20.3538 150.608 19.6171 150.175 18.8234C149.429 19.263 148.833 19.613 148.062 20.0689V17.6635C147.263 17.6106 146.541 17.5658 145.668 17.5088C146.084 16.8332 146.418 16.2837 146.989 15.3476C146.422 15.1116 145.847 14.8755 145.04 14.5418C146.908 13.2231 146.843 12.0224 145.749 10.7566C146.688 10.6752 147.41 10.6101 148.111 10.5491C148.287 9.87344 148.433 9.31991 148.601 8.67278C149.319 8.93326 149.873 9.13269 150.445 9.34026C150.938 8.7379 151.395 8.18437 151.929 7.5291C152.329 8.221 152.651 8.7786 152.994 9.37282C153.687 9.10013 154.279 8.86814 155.03 8.5751C155.185 9.44201 155.311 10.1339 155.454 10.9194L157.999 10.9194C155.662 12.637 156.531 13.5934 158.937 14.3505C156.478 14.9528 156.123 16.0314 157.318 17.5821C157.497 17.635 157.677 17.6879 157.852 17.7408C157.82 17.7937 157.783 17.8466 157.75 17.8995C157.603 17.7978 157.457 17.692 157.314 17.5902H157.318Z" fill="#E7CC68"/>
<path d="M139.777 76.524C145.974 77.3299 151.579 79.0678 155.193 84.835C156.93 87.6067 159.251 90.0202 161.36 92.5477C161.809 93.085 162.507 93.4147 163.086 93.842C164.102 93.2641 165.117 92.682 166.133 92.1041C165.338 91.5831 164.371 91.2046 163.775 90.5127C160.357 86.5282 157.081 82.4134 153.622 78.4654C152.737 77.4561 151.464 76.5362 150.196 76.1577C146.137 74.9448 141.996 74.0006 137.893 72.9546C138.26 74.0209 138.627 75.0873 138.994 76.1536C139.251 76.2798 139.512 76.406 139.769 76.5322L139.777 76.524Z" fill="#323252"/>
<path d="M45.0259 59.6212C45.0953 58.213 45.1687 56.8088 45.238 55.4006C45.9804 53.8784 47.1757 53.097 48.8604 53.5284C56.464 55.4616 64.0553 57.4478 71.6549 59.4136C72.0057 59.2915 72.3565 59.1694 72.7073 59.0473C73.3477 58.4368 73.9882 57.8263 74.6327 57.2158C72.124 56.4954 69.6316 55.7262 67.1066 55.0628C62.7337 53.915 58.373 52.69 53.9471 51.7742C51.3283 51.2329 48.5952 50.9887 45.9233 51.0579C43.8674 51.1067 43.6798 53.0522 43.5166 54.6965C43.3738 56.1617 43.2474 57.6269 43.1169 59.0921C43.7573 59.2712 44.3936 59.4503 45.0341 59.6294L45.0259 59.6212Z" fill="#323252"/>
<path d="M129.575 35.8891C134.213 36.9799 138.851 38.0666 143.49 39.1614C144.566 39.4179 145.631 39.715 146.7 39.9958C146.427 39.6336 145.908 39.2632 145.921 38.9132C146.076 34.8635 146.096 34.8635 142.172 33.8541C141.65 33.7198 141.132 33.5651 140.61 33.4227C139.655 33.1663 138.701 32.9139 137.742 32.6575C136.147 32.45 134.417 32.5639 132.99 31.9616C131.015 31.1313 130.64 32.1651 130.24 33.5733C130.02 34.3466 129.796 35.1158 129.571 35.8891H129.575Z" fill="#323252"/>
<path d="M137.746 32.6574C138.7 32.9138 139.655 33.1661 140.614 33.4225C141.16 30.6142 143.126 29.381 145.66 28.4734C147.72 27.7367 149.751 26.711 151.525 25.4371C153.088 24.3138 153.459 22.4049 153.231 20.4717C153.1 20.7647 152.908 21.0415 152.847 21.3467C152.419 23.4225 151.795 23.6789 150.065 22.4579C148.352 23.4387 146.745 24.7249 144.909 25.3354C140.858 26.6866 137.901 29.4868 137.75 32.6492L137.746 32.6574Z" fill="#B0B1C2"/>
<path d="M172.815 68.9578C172.309 65.3559 170.975 61.7498 169.033 58.3188C165.57 52.1974 159.949 49.3688 153.402 47.8018C147.161 46.3081 140.956 44.6516 134.723 43.1335C126.585 41.1473 118.447 39.1774 110.285 37.293C97.3906 34.3178 84.4799 31.4199 71.5734 28.4895C59.9844 25.8562 48.3995 23.2107 36.8064 20.5977C36.0436 20.4268 35.2278 20.4959 34.3467 20.4512C34.1305 21.5216 33.9469 22.4251 33.7225 23.5281C37.1817 24.4072 40.5674 25.2864 43.9654 26.1207C50.5818 27.7447 57.2105 29.3361 63.8311 30.9519C75.057 33.691 86.2829 36.4342 97.5089 39.1896C103.02 40.5409 108.519 41.9572 114.038 43.28C119.875 44.6801 125.753 45.9377 131.578 47.3867C137.591 48.8804 143.522 50.7322 149.572 52.055C156.441 53.5609 162.58 56.2675 167.283 61.5829C169.352 63.9232 171.057 66.5891 172.811 68.9538L172.815 68.9578Z" fill="#686693"/>
<path d="M74.6246 57.2119C73.9841 57.8224 73.3437 58.4329 72.7033 59.0434C73.5028 58.9335 74.441 59.0556 75.0692 58.673C76.7743 57.6352 78.2551 56.2025 79.9969 55.242C85.7363 52.0796 91.9448 50.3294 98.4838 50.2033C103.75 50.1056 109 50.6835 113.981 52.6412C115.102 53.0808 116.192 53.5977 117.309 54.0413C118.602 54.5541 120.038 54.835 121.18 55.5717C122.853 56.6543 124.46 57.9201 125.847 59.3486C128.547 62.1244 131.435 64.831 133.569 68.0178C135.47 70.8628 136.461 74.3182 137.84 77.5091C137.974 77.8185 138.044 78.1603 138.146 78.4859C138.391 78.3435 138.635 78.201 138.884 78.0586C138.925 77.4237 138.966 76.7887 139.006 76.1497C138.639 75.0834 138.272 74.017 137.905 72.9507C134.173 65.8322 129.343 59.719 122.457 55.299C107.972 46.003 89.1261 46.5443 75.3221 56.7967C75.1059 56.9555 74.8612 57.0735 74.6287 57.2119H74.6246Z" fill="#B0B1C2"/>
<path d="M138.533 98.1647C138.586 97.7658 138.635 97.371 138.688 96.9722C138.778 96.1744 138.888 95.3767 138.949 94.579C139.773 83.8992 137.416 74.1759 130.51 65.7184C123.106 56.6544 113.552 51.6076 101.935 51.0825C88.9548 50.4964 78.0715 55.295 69.7092 65.3399C67.7797 67.6598 66.1807 70.2524 64.4307 72.7188C64.4674 72.8043 64.4592 72.8816 64.3981 72.9549C64.4144 73.0933 64.3858 73.2195 64.3206 73.3375C64.1859 73.6142 64.0513 73.8869 63.9167 74.1637C63.778 74.6155 63.6679 75.0754 63.4965 75.5109C60.7349 82.6294 59.9028 89.9554 61.4692 97.4362C62.1586 100.717 63.3619 103.891 64.3328 107.115C64.3695 107.318 64.4062 107.526 64.4429 107.729C65.2302 109.015 66.0175 110.297 66.8048 111.584C66.866 111.653 66.8864 111.73 66.866 111.82C67.6818 112.935 68.4976 114.05 69.3094 115.165L69.3298 115.161C69.8438 115.572 70.3741 115.967 70.8717 116.398C73.254 118.462 75.5587 120.623 78.0307 122.577C79.5971 123.814 81.4042 124.742 83.1052 125.808C83.1052 125.808 83.0971 125.8 83.0971 125.804C83.4275 125.857 83.7905 125.849 84.0883 125.979C92.0591 129.455 100.332 130.171 108.755 128.263C119.076 125.922 127.324 120.277 132.847 111.291C135.319 107.269 136.669 102.56 138.529 98.1647H138.533ZM70.3945 105.934C70.2721 105.788 70.1538 105.645 70.0314 105.499C69.7622 104.954 69.4889 104.408 69.2197 103.867C68.3997 101.75 67.4085 99.6787 66.8211 97.4972C66.4662 96.1785 66.7477 94.693 66.7395 93.2807C66.7599 91.2212 66.7803 89.1618 66.7966 87.1023C67.6084 83.9928 68.4201 80.8793 69.2319 77.7697C69.5419 76.8988 69.6928 75.9179 70.1905 75.1731C71.5448 73.1381 73.0459 71.2007 74.49 69.2268C75.4119 67.1836 76.6601 65.466 78.9445 64.7823C79.3891 64.4892 79.8337 64.2003 80.2784 63.9072C81.1758 63.2723 82.0691 62.6414 82.9665 62.0065C83.9537 61.3227 84.9449 60.639 85.9321 59.9552C86.9193 58.4086 89.8767 57.33 91.6348 57.8795C92.0346 57.8429 92.4343 57.8062 92.8341 57.7655C93.1156 57.6719 93.4011 57.5824 93.6826 57.4888C94.0823 57.4562 94.478 57.4237 94.8778 57.3911C95.2898 57.151 95.6936 56.7155 96.1097 56.7073C98.6959 56.6422 101.286 56.6463 103.872 56.7073C104.293 56.7155 104.705 57.1387 105.121 57.3707C107.589 58.026 110.203 58.3598 112.484 59.422C115.347 60.757 117.933 62.6903 120.642 64.3671C122.261 66.0033 123.881 67.6394 125.504 69.2756C126.545 70.6228 127.585 71.9659 128.625 73.3131L129.983 76.1865C130.82 78.8931 131.66 81.5997 132.496 84.3103C132.614 84.5911 132.737 84.8679 132.855 85.1487C132.973 85.8162 133.092 86.4837 133.214 87.1512C133.214 89.3612 133.214 91.5753 133.214 93.7853C133.185 93.9074 133.21 94.0173 133.283 94.115C133.683 96.325 133.365 98.3804 131.958 100.2L131.99 100.155C131.15 102.438 130.33 104.734 129.449 107.001C129.363 107.221 128.89 107.294 128.596 107.432C128.596 107.432 128.621 107.396 128.621 107.4C128.641 107.729 128.813 108.205 128.653 108.372C126.133 111.054 123.567 113.696 121.009 116.341C120.989 116.362 120.887 116.301 120.826 116.276L120.874 116.451L120.846 116.272C120.205 116.74 119.565 117.208 118.921 117.676L118.945 117.652C118.521 117.925 118.097 118.193 117.676 118.466L117.697 118.438C117.236 118.727 116.775 119.015 116.314 119.309L116.204 119.268L116.13 119.357C115.93 119.475 115.727 119.593 115.527 119.711C115.053 119.878 114.58 120.045 114.103 120.216C114.099 120.338 114.095 120.464 114.087 120.587C114.238 120.814 114.389 121.042 114.609 121.364H112.422L112.447 121.348C111.713 121.616 110.978 121.881 110.248 122.149C110.032 122.166 109.812 122.178 109.596 122.194C108.772 122.601 107.956 123.33 107.115 123.358C103.681 123.468 100.242 123.358 96.8032 123.334C96.587 123.334 96.3748 123.342 96.1586 123.346C93.4378 124.034 91.0433 123.248 88.8079 121.738L88.8324 121.759C88.4 121.608 87.9717 121.458 87.5393 121.307L87.3761 121.327C86.8866 121.087 86.3971 120.847 85.9076 120.603C85.6506 120.44 85.3937 120.277 85.1326 120.118L85.1611 120.139C84.3453 119.968 83.0196 120.713 83.0767 118.979C82.012 118.283 80.9514 117.587 79.8868 116.891C79.6175 116.708 79.3524 116.525 79.0832 116.341L79.1647 116.37C77.9614 115.202 76.7376 114.058 75.5628 112.862C74.645 111.93 72.842 111.807 72.8909 109.984C72.6176 109.711 72.3443 109.443 72.0669 109.17C71.9323 108.901 71.7977 108.629 71.6631 108.36C71.5285 108.087 71.3979 107.815 71.2633 107.542C71.1165 107.277 70.9696 107.009 70.8228 106.744C70.68 106.48 70.5332 106.219 70.3904 105.955L70.3945 105.934Z" fill="#BD652C"/>
<path d="M203.939 124.693C203.919 121.718 203.902 118.739 203.878 115.763C203.853 112.487 202.165 110.786 198.836 110.778C190.763 110.757 182.691 110.749 174.618 110.794C173.227 110.802 172.309 110.444 171.375 109.272C164.428 100.558 157.428 91.8846 150.285 83.3294C149.143 81.9578 147.304 81.0135 145.603 80.3013C143.889 79.5849 141.948 79.4059 140.104 78.9907C140.132 79.4099 140.165 79.8291 140.194 80.2484C140.226 80.46 140.259 80.6717 140.291 80.8833C140.43 81.4775 140.565 82.0717 140.703 82.6619C140.789 83.2195 140.879 83.7812 140.965 84.3387C141.067 87.4442 141.173 90.5496 141.275 93.6551C141.258 93.9562 141.246 94.2574 141.23 94.5545C141.287 94.9534 141.34 95.3523 141.397 95.7511C141.564 95.8529 141.776 95.918 141.895 96.0604C148.691 104.209 155.478 112.365 162.27 120.521C162.662 120.973 163.098 121.392 163.441 121.881C165.562 124.909 168.401 126.065 172.146 125.991C181.618 125.812 191.098 125.975 200.578 125.882C201.7 125.869 202.817 125.104 203.939 124.689V124.693Z" fill="#83422C"/>
<path d="M140.193 80.2524C140.165 79.8332 140.132 79.414 140.104 78.9948C139.994 78.1727 139.888 77.3505 139.777 76.5243C139.52 76.3981 139.259 76.2719 139.002 76.1458C138.962 76.7807 138.921 77.4156 138.88 78.0546C138.635 78.1971 138.39 78.3395 138.142 78.482C138.04 78.1564 137.97 77.8186 137.836 77.5052C136.453 74.3143 135.466 70.8588 133.565 68.0138C131.435 64.827 128.543 62.1245 125.843 59.3447C124.456 57.9161 122.849 56.6503 121.176 55.5677C120.034 54.831 118.598 54.5502 117.305 54.0373C116.187 53.5937 115.094 53.0768 113.977 52.6373C108.996 50.6796 103.746 50.1016 98.4797 50.1993C91.9407 50.3214 85.7322 52.0715 79.9928 55.238C78.2509 56.1985 76.7702 57.6271 75.0651 58.669C74.4369 59.0516 73.4946 58.9295 72.6992 59.0394C72.3484 59.1615 71.9976 59.2836 71.6508 59.4057C71.0838 59.9959 70.5168 60.586 69.9498 61.1721C67.9388 64.0049 65.9277 66.8417 63.9167 69.6744C64.7651 69.6744 65.3852 69.8047 64.8916 70.9158C64.6468 71.4734 64.5775 72.1124 64.4306 72.7147C66.1806 70.2483 67.7797 67.6557 69.7091 65.3398C78.0715 55.295 88.9547 50.4923 101.935 51.0825C113.556 51.6075 123.11 56.6544 130.509 65.7183C137.416 74.1759 139.773 83.8992 138.949 94.579C138.888 95.3767 138.774 96.1744 138.688 96.9721C139.051 96.4023 139.745 95.8285 139.728 95.2668C139.59 89.8374 139.337 84.412 139.129 79.3041C139.223 79.3896 139.708 79.8169 140.193 80.2484V80.2524Z" fill="#BBA0A9"/>
<path d="M138.533 98.1644C136.673 102.56 135.323 107.269 132.851 111.29C127.328 120.281 119.084 125.922 108.759 128.262C100.336 130.171 92.0632 129.459 84.0924 125.979C83.7947 125.849 83.4316 125.861 83.1012 125.804C83.9456 126.366 84.7329 127.062 85.6466 127.456C87.3762 128.205 89.171 128.804 90.9577 129.414C91.6389 129.646 92.365 129.87 93.0707 129.882C96.122 129.935 99.1773 129.858 102.229 129.915C109.42 130.053 115.759 127.664 121.792 123.907C129.278 119.247 133.912 112.418 137.33 104.591C138.044 102.955 138.415 101.164 138.852 99.422C138.945 99.0517 138.648 98.5795 138.533 98.1562V98.1644Z" fill="#BBA0A9"/>
<path d="M64.3328 107.118C63.3619 103.895 62.1545 100.72 61.4692 97.4399C59.9028 89.9633 60.7349 82.6332 63.4965 75.5147C63.6678 75.0751 63.778 74.6152 63.9167 74.1675C63.2722 75.0792 62.285 75.9054 62.0403 76.9148C61.2856 80.0324 60.4902 83.1989 60.3188 86.3776C60.1067 90.3214 60.2046 94.3426 60.7472 98.2499C61.1388 101.058 62.4563 103.744 63.419 106.463C63.521 106.752 64.0146 106.903 64.3287 107.118H64.3328Z" fill="#BBA0A9"/>
<path d="M83.1093 125.816C81.4082 124.75 79.6011 123.822 78.0347 122.585C75.5627 120.631 73.258 118.47 70.8758 116.406C70.3781 115.975 69.8478 115.58 69.3338 115.169C70.6025 116.74 71.8099 118.372 73.1519 119.878C75.5097 122.519 78.5079 124.286 81.7182 125.702C82.1221 125.881 82.6442 125.784 83.1093 125.816Z" fill="#BBA0A9"/>
<path d="M141.275 93.6591C141.173 90.5536 141.066 87.4482 140.965 84.3428C140.977 85.5068 140.965 86.6708 141.009 87.8349C141.079 89.7763 141.185 91.7177 141.275 93.6591Z" fill="#BBA0A9"/>
<path d="M66.8048 111.587C66.0175 110.301 65.2302 109.019 64.443 107.733C64.8753 109.235 64.2186 111.396 66.8048 111.587Z" fill="#BBA0A9"/>
<path d="M69.3135 115.173C68.4976 114.058 67.6818 112.943 66.87 111.828C66.8823 113.525 67.9266 114.477 69.3135 115.173Z" fill="#BBA0A9"/>
<path d="M140.703 82.6658C140.565 82.0716 140.426 81.4774 140.291 80.8872C140.43 81.4814 140.569 82.0757 140.703 82.6658Z" fill="#BBA0A9"/>
<path d="M141.054 95.9098C141.177 95.8773 141.291 95.8244 141.397 95.7552C141.34 95.3563 141.287 94.9575 141.23 94.5586C141.172 95.0104 141.111 95.4581 141.054 95.9098Z" fill="#BBA0A9"/>
<path d="M63.0601 71.2778C62.9377 71.5546 62.8194 71.8314 62.697 72.1122C62.8194 71.8354 62.9377 71.5587 63.0601 71.2778Z" fill="#BBA0A9"/>
<path d="M64.3206 73.3416C64.3899 73.2235 64.4144 73.0933 64.3981 72.959C64.3736 73.0852 64.3451 73.2154 64.3206 73.3416Z" fill="#BBA0A9"/>
<path d="M69.9457 61.1758C70.5127 60.5856 71.0797 59.9995 71.6467 59.4094C64.0513 57.4436 56.4599 55.4574 48.8522 53.5241C47.1675 53.0968 45.9723 53.8741 45.2299 55.3963C49.6803 56.4138 54.1307 57.4151 58.5729 58.4529C62.3666 59.3402 66.1521 60.2682 69.9416 61.1758H69.9457Z" fill="#C28062"/>
<path d="M157.322 17.5818C156.127 16.0311 156.478 14.9526 158.942 14.3502C156.535 13.5932 155.666 12.6367 158.003 10.9191L155.458 10.9191C155.315 10.1336 155.189 9.43765 155.034 8.57481C154.283 8.86785 153.692 9.09984 152.998 9.37253C152.655 8.77831 152.333 8.22071 151.933 7.52881C151.395 8.18408 150.942 8.73761 150.449 9.33997C149.882 9.13647 149.323 8.93297 148.605 8.67249C148.434 9.31962 148.291 9.87315 148.115 10.5488C147.414 10.6098 146.692 10.6749 145.754 10.7563C146.847 12.0181 146.916 13.2228 145.044 14.5415C145.851 14.8752 146.427 15.1154 146.994 15.3473C146.422 16.2835 146.088 16.8329 145.672 17.5085C146.545 17.5655 147.267 17.6144 148.066 17.6632V20.0686C148.837 19.6168 149.437 19.2627 150.179 18.8232C150.612 19.6209 151.012 20.3535 151.509 21.2652C152.509 20.211 152.929 17.6958 155.042 20.3169C155.201 19.2139 155.291 18.5749 155.417 17.708C156.021 17.6713 156.669 17.6306 157.322 17.5899H157.326L157.322 17.5818Z" fill="#F3C224"/>
<path d="M157.318 17.5902C157.465 17.6919 157.612 17.7977 157.754 17.8995C157.787 17.8466 157.824 17.7937 157.856 17.7408C157.677 17.6879 157.497 17.6349 157.322 17.582L157.318 17.5861V17.5902Z" fill="#F3C224"/>
<path d="M132.492 84.306C131.656 81.5994 130.815 78.8928 129.979 76.1822C127.014 75.4862 124.048 74.7902 121.083 74.0942C120.401 74.5053 119.614 74.8106 119.055 75.3478C117.354 76.9921 115.853 78.8602 114.062 80.3906C111.925 82.214 110.55 84.0292 112.451 86.7765C112.586 86.9067 112.72 87.041 112.855 87.1713C118.154 87.1794 123.453 87.1875 128.751 87.1957C130.236 87.1753 131.725 87.1591 133.21 87.1387C133.092 86.4712 132.973 85.8037 132.851 85.1362C132.733 84.8554 132.61 84.5786 132.492 84.2978V84.306Z" fill="#83422C"/>
<path d="M80.2824 63.9028C79.8378 64.1959 79.3932 64.4848 78.9485 64.7779C79.9194 65.8687 80.8902 66.9554 81.8611 68.0461C85.2019 71.3184 88.6448 74.489 91.8306 77.9037C93.1686 79.3364 94.1762 78.5102 95.404 78.1561C96.6767 77.7857 97.0071 76.9392 96.9663 75.6937C96.8807 73.0563 96.9133 70.4108 96.897 67.7694C91.3574 66.4792 85.8179 65.193 80.2824 63.9028Z" fill="#83422C"/>
<path d="M120.646 64.3667C117.941 62.6899 115.355 60.7566 112.488 59.4216C110.211 58.3594 107.593 58.0256 105.125 57.3703C103.265 57.3215 102.779 58.3349 103.101 59.9752C103.118 61.1433 103.138 62.3154 103.154 63.4835C103.138 63.7725 103.122 64.0615 103.105 64.3504C103.827 64.5051 104.554 64.6354 105.267 64.8144C109.42 65.8564 113.569 66.9146 117.717 67.9646C117.986 67.9646 118.26 67.9646 118.529 67.9646C119.231 66.764 119.936 65.5674 120.638 64.3667H120.646Z" fill="#4F4E75"/>
<path d="M69.236 77.7697C73.3804 78.7872 77.5249 79.821 81.6775 80.8223C83.4683 81.2537 85.2713 81.6159 87.0702 82.0066C86.6378 81.4368 86.2544 80.8223 85.7608 80.3094C83.1093 77.5703 80.4333 74.8597 77.7615 72.1368C76.6723 71.1641 75.5832 70.1954 74.494 69.2227C73.05 71.1966 71.5489 73.134 70.1946 75.169C69.6969 75.9179 69.546 76.8947 69.236 77.7657V77.7697Z" fill="#83422C"/>
<path d="M97.0316 103.5C96.9786 109.056 96.9296 114.612 96.8766 120.167C96.8521 121.217 96.8236 122.271 96.7991 123.326C100.238 123.354 103.677 123.46 107.111 123.35C107.948 123.321 108.763 122.593 109.591 122.186C107.503 122.589 105.414 122.996 102.987 123.464C102.987 122.206 102.987 121.225 102.987 120.245C102.946 114.852 102.853 109.455 102.934 104.062C102.946 103.382 103.885 102.719 104.39 102.047C102.645 101.644 102.261 102.678 102.257 104.082C102.249 108.063 102.257 112.047 102.257 116.028C102.257 117.074 102.257 118.12 102.257 119.284C101.184 119.133 100.446 118.885 99.7443 118.967C98.0596 119.154 97.6924 118.405 97.7332 116.87C97.827 113.297 97.8107 109.715 97.7332 106.142C97.7128 105.259 97.2804 104.38 97.0398 103.5H97.0316Z" fill="#A1582F"/>
<path d="M71.2877 87.2771C69.7907 87.2201 68.2977 87.159 66.8006 87.1021C66.7802 89.1615 66.7639 91.2209 66.7435 93.2804L66.7762 93.3007C73.6904 93.3089 80.6005 93.317 87.5148 93.3211C86.9437 93.0402 86.3767 92.5193 85.8015 92.5111C81.5347 92.4419 77.2638 92.3727 73.001 92.5233C71.0838 92.5925 70.786 91.8477 70.7901 90.179C70.7942 88.5713 71.1368 87.9038 72.9113 87.9568C77.0394 88.0829 81.1757 88.0259 85.3079 87.9608C85.9239 87.9527 86.5317 87.5091 87.1436 87.2648C86.8621 87.2771 86.5806 87.2933 86.2992 87.3056C82.7503 87.4032 79.2014 87.5375 75.6525 87.5742C74.1962 87.5905 72.7399 87.3829 71.2877 87.2811V87.2771Z" fill="#A1582F"/>
<path d="M133.21 87.147C131.725 87.1673 130.236 87.1836 128.751 87.204C128.756 88.2866 128.674 89.3774 128.788 90.4478C128.964 92.0595 128.356 92.552 126.74 92.5072C122.673 92.4014 118.606 92.4706 114.54 92.4746C111.639 92.4746 111.472 92.6374 111.211 95.7185L111.35 95.8324C111.961 93.0852 113.956 93.0445 116.236 93.1299C119.883 93.2683 123.546 93.0933 127.197 93.191C129.208 93.2439 131.211 93.5776 133.218 93.7811C133.218 91.5711 133.218 89.357 133.218 87.147H133.21Z" fill="#A1582F"/>
<path d="M80.2824 63.903C85.8219 65.1932 91.3615 66.4793 96.901 67.7695C96.901 66.9474 96.901 66.1252 96.8969 65.3071C92.2548 64.2082 87.6168 63.1053 82.9746 62.0063C82.0772 62.6413 81.1839 63.2721 80.2864 63.9071L80.2824 63.903Z" fill="#C28062"/>
<path d="M82.9706 62.0062C87.6127 63.1051 92.2507 64.2081 96.8929 65.307C96.9214 65.1361 96.95 64.9692 96.9785 64.7983C96.9785 64.2569 96.9785 63.7156 96.9785 63.1743C96.9744 62.8976 96.9663 62.6249 96.9622 62.3481L96.7705 62.3969C93.5724 61.5748 90.3743 60.7567 87.1762 59.9346C86.7601 59.9386 86.3481 59.9427 85.9321 59.9508C84.9449 60.6346 83.9537 61.3184 82.9665 62.0021L82.9706 62.0062Z" fill="#323252"/>
<path d="M103.11 64.3504C103.126 64.0615 103.142 63.7725 103.159 63.4835C103.142 62.3154 103.122 61.1433 103.106 59.9752C102.783 58.3349 103.269 57.3215 105.129 57.3703C104.713 57.1383 104.301 56.7151 103.881 56.7069C101.294 56.6459 98.7041 56.6459 96.1178 56.7069C95.7018 56.7191 95.2979 57.1546 94.8859 57.3948C96.5176 57.2564 97.2274 57.9361 96.9582 59.6129C96.8113 60.5287 96.8317 61.4729 96.7746 62.4009L96.9663 62.3521C98.0881 61.998 99.2058 61.6317 100.336 61.2979C101.633 60.9113 102.212 61.416 102.269 62.7631C102.326 64.1347 102.522 65.5063 102.657 66.8739C102.775 66.8739 102.889 66.8901 102.999 66.9227C103.036 66.068 103.073 65.2092 103.11 64.3545V64.3504Z" fill="#A1582F"/>
<path d="M79.1648 116.35C79.4993 115.613 79.6869 114.742 80.2009 114.164C81.9427 112.214 83.8028 110.371 85.618 108.486C84.4922 109.333 83.3867 110.212 82.2282 111.01C81.7387 111.347 80.7638 111.852 80.6374 111.714C79.6298 110.607 78.7772 109.361 77.8757 108.161C76.7009 109.194 75.5302 110.224 74.3799 111.234C73.8292 110.708 73.4049 110.297 72.9766 109.89L72.891 109.964C72.842 111.787 74.645 111.909 75.5628 112.841C76.7376 114.034 77.9614 115.181 79.1648 116.35Z" fill="#A1582F"/>
<path d="M117.742 112.011C118.643 112.98 119.585 113.916 120.426 114.933C120.699 115.267 120.703 115.82 120.825 116.272C120.887 116.293 120.989 116.354 121.009 116.337C123.571 113.692 126.133 111.046 128.653 108.368C128.808 108.201 128.637 107.725 128.617 107.396C127.642 108.653 126.671 109.911 125.59 111.311C124.362 110.228 123.196 109.203 122.029 108.177C121.955 108.242 121.882 108.307 121.805 108.372C120.834 110.013 120.271 112.109 117.742 112.015V112.011Z" fill="#A1582F"/>
<path d="M96.7746 62.3972C96.8317 61.4652 96.8113 60.525 96.9581 59.6092C97.2233 57.9283 96.5176 57.2527 94.8859 57.3911C94.4862 57.4236 94.0905 57.4562 93.6907 57.4887C93.4093 57.5824 93.1237 57.6719 92.8422 57.7655C92.4425 57.8021 92.0427 57.8388 91.643 57.8795C90.1541 58.5673 88.6692 59.2551 87.1803 59.943C90.3784 60.7651 93.5765 61.5832 96.7746 62.4053V62.3972Z" fill="#4F4E75"/>
<path d="M74.4941 69.2223C75.5832 70.195 76.6723 71.1637 77.7615 72.1365C78.3571 70.0038 79.8582 68.7746 81.8611 68.0461C80.8902 66.9553 79.9194 65.8686 78.9485 64.7778C76.6642 65.4575 75.416 67.1792 74.4941 69.2182V69.2223Z" fill="#A1582F"/>
<path d="M120.646 64.3667C119.944 65.5674 119.239 66.7639 118.537 67.9646C119.936 69.0879 121.335 70.2072 122.735 71.3305C123.661 70.6468 124.582 69.9589 125.508 69.2752C123.889 67.639 122.27 66.0029 120.646 64.3667Z" fill="#A1582F"/>
<path d="M102.983 120.24V123.46C105.41 122.992 107.499 122.585 109.587 122.182C109.804 122.166 110.024 122.153 110.24 122.137C110.974 121.868 111.704 121.604 112.439 121.335L112.414 121.352C112.969 121.091 113.524 120.831 114.079 120.57C114.083 120.448 114.091 120.322 114.095 120.2C110.391 120.212 106.687 120.224 102.979 120.236L102.983 120.24Z" fill="#BBA0A9"/>
<path d="M96.7991 123.321C96.8236 122.267 96.8521 121.217 96.8766 120.163C94.3638 120.179 91.8469 120.167 89.3342 120.22C88.6162 120.236 87.9024 120.432 87.1844 120.546C87.2456 120.802 87.3109 121.054 87.3721 121.311L87.5352 121.29C87.9676 121.441 88.3959 121.592 88.8283 121.742L88.8039 121.722C91.2555 122.259 93.703 122.792 96.1546 123.33C96.3708 123.33 96.5829 123.321 96.7991 123.317V123.321Z" fill="#B0B1C2"/>
<path d="M121.083 74.0985C124.048 74.7945 127.014 75.4904 129.979 76.1864C129.526 75.23 129.074 74.2694 128.621 73.313C126.667 72.9019 124.713 72.4949 122.759 72.0879C122.2 72.7594 121.637 73.431 121.078 74.1026L121.083 74.0985Z" fill="#C28062"/>
<path d="M122.767 72.0839C124.721 72.4909 126.675 72.902 128.629 73.309C127.589 71.9658 126.549 70.6187 125.508 69.2715C124.582 69.9553 123.661 70.6431 122.735 71.3268C122.747 71.5792 122.755 71.8275 122.767 72.0798V72.0839Z" fill="#323252"/>
<path d="M66.7436 93.2803C66.7476 94.6926 66.4702 96.1781 66.8251 97.4968C67.4085 99.6784 68.4038 101.75 69.2237 103.866L69.3746 103.74C68.5098 100.26 67.6451 96.7805 66.7803 93.3006L66.7476 93.2803H66.7436Z" fill="#A1582F"/>
<path d="M131.99 100.151C130.86 102.577 129.73 105.002 128.596 107.428C128.886 107.286 129.359 107.216 129.445 106.997C130.33 104.73 131.15 102.438 131.986 100.151H131.99Z" fill="#A1582F"/>
<path d="M87.1763 59.9387C88.6652 59.2509 90.15 58.563 91.6389 57.8752C89.8767 57.3298 86.9193 58.4043 85.9362 59.9509C86.3523 59.9468 86.7643 59.9428 87.1804 59.9346L87.1763 59.9387Z" fill="#A1582F"/>
<path d="M96.1545 123.334C93.7029 122.796 91.2554 122.263 88.8038 121.726C91.0392 123.236 93.4337 124.022 96.1545 123.334Z" fill="#A1582F"/>
<path d="M133.283 94.1108C132.843 96.1377 132.398 98.1646 131.958 100.196C133.365 98.3762 133.683 96.3249 133.283 94.1108Z" fill="#A1582F"/>
<path d="M85.1571 120.122C84.4636 119.736 83.7661 119.349 83.0726 118.962C83.0155 120.696 84.3413 119.951 85.1571 120.122Z" fill="#A1582F"/>
<path d="M114.083 120.574C113.528 120.835 112.973 121.095 112.418 121.356C113.079 121.356 113.74 121.356 114.605 121.356C114.389 121.03 114.238 120.802 114.083 120.578V120.574Z" fill="#A1582F"/>
<path d="M120.846 116.268C120.206 116.736 119.565 117.204 118.921 117.676C119.561 117.208 120.201 116.74 120.846 116.268Z" fill="#A1582F"/>
<path d="M112.443 121.339C111.708 121.608 110.978 121.873 110.244 122.141C110.974 121.873 111.708 121.608 112.443 121.339Z" fill="#A1582F"/>
<path d="M69.2238 103.866C69.493 104.412 69.7663 104.957 70.0355 105.498L70.1538 105.389C69.8927 104.839 69.6317 104.29 69.3706 103.74L69.2197 103.866H69.2238Z" fill="#A1582F"/>
<path d="M87.3721 121.311C87.3109 121.055 87.2456 120.802 87.1844 120.546C86.8826 120.509 86.5766 120.477 86.2748 120.44C86.1769 120.513 86.0627 120.55 85.9362 120.55L85.9036 120.582C86.3931 120.823 86.8826 121.063 87.3721 121.307V121.311Z" fill="#A1582F"/>
<path d="M72.0711 109.154C72.3444 109.426 72.6177 109.695 72.8951 109.968L72.9807 109.894C72.7645 109.569 72.5483 109.243 72.3321 108.917C72.2465 108.999 72.1608 109.076 72.0751 109.154H72.0711Z" fill="#A1582F"/>
<path d="M70.8309 106.724C70.9778 106.989 71.1247 107.257 71.2715 107.522L71.349 107.453C71.1899 107.2 71.0349 106.948 70.8758 106.691L70.8309 106.724Z" fill="#A1582F"/>
<path d="M71.2674 107.521L71.6672 108.34L71.8099 108.217C71.6549 107.961 71.4999 107.705 71.349 107.448L71.2715 107.517L71.2674 107.521Z" fill="#A1582F"/>
<path d="M70.3944 105.934C70.5372 106.199 70.6841 106.459 70.8268 106.724L70.8717 106.691C70.7249 106.427 70.578 106.166 70.4352 105.902L70.3944 105.934Z" fill="#A1582F"/>
<path d="M85.9158 120.297C85.6548 120.232 85.3896 120.167 85.1285 120.106C85.3855 120.269 85.6425 120.432 85.8995 120.59L85.9321 120.558C85.8913 120.472 85.8832 120.387 85.9117 120.297H85.9158Z" fill="#A1582F"/>
<path d="M71.6672 108.344C71.8018 108.612 71.9364 108.885 72.071 109.154C72.1567 109.076 72.2423 108.995 72.328 108.917C72.1567 108.685 71.9813 108.454 71.8099 108.226L71.6672 108.348V108.344Z" fill="#A1582F"/>
<path d="M70.0355 105.499C70.1579 105.645 70.2762 105.788 70.3985 105.934L70.4393 105.901C70.3455 105.731 70.2517 105.56 70.1538 105.389L70.0355 105.499Z" fill="#A1582F"/>
<path d="M115.886 102.035C114.805 100.965 113.724 99.8902 112.643 98.8198C112.573 98.8768 112.504 98.9379 112.439 98.9948C113.528 100.082 114.617 101.164 115.706 102.251C115.767 102.178 115.828 102.104 115.89 102.035H115.886Z" fill="#A1582F"/>
<path d="M112.643 98.8196C112.21 97.8225 111.778 96.8253 111.346 95.8322L111.207 95.7183C109.963 97.2689 110.216 97.9405 112.439 98.9946C112.508 98.9336 112.573 98.8766 112.643 98.8196Z" fill="#A1582F"/>
<path d="M122.029 108.173C121.621 107.749 121.213 107.326 120.809 106.903C120.74 106.984 120.671 107.062 120.597 107.131C121.001 107.542 121.405 107.953 121.809 108.364C121.882 108.299 121.96 108.234 122.033 108.169L122.029 108.173Z" fill="#A1582F"/>
<path d="M120.418 106.516C120.002 106.121 119.581 105.727 119.165 105.336C119.1 105.393 119.031 105.45 118.965 105.507C119.373 105.918 119.781 106.325 120.189 106.736C120.263 106.659 120.34 106.585 120.418 106.52V106.516Z" fill="#A1582F"/>
<path d="M117.57 103.663C117.22 103.325 116.873 102.992 116.522 102.654L116.502 102.67C116.779 103.073 117.056 103.472 117.338 103.875C117.411 103.797 117.489 103.728 117.57 103.659V103.663Z" fill="#A1582F"/>
<path d="M118.566 104.685C118.362 104.477 118.158 104.27 117.954 104.062C117.888 104.135 117.819 104.209 117.746 104.282C118.011 104.424 118.276 104.567 118.545 104.705L118.57 104.685H118.566Z" fill="#A1582F"/>
<path d="M116.522 102.658C116.31 102.45 116.098 102.247 115.89 102.039C115.829 102.108 115.767 102.182 115.706 102.255C115.971 102.393 116.236 102.536 116.502 102.674L116.522 102.658Z" fill="#A1582F"/>
<path d="M119.165 105.332C118.965 105.116 118.766 104.9 118.566 104.685L118.541 104.705C118.68 104.969 118.823 105.238 118.961 105.503C119.027 105.446 119.096 105.389 119.161 105.332H119.165Z" fill="#A1582F"/>
<path d="M120.809 106.907C120.679 106.777 120.548 106.646 120.418 106.516C120.336 106.585 120.263 106.659 120.189 106.732C120.324 106.866 120.458 107 120.597 107.135C120.671 107.061 120.744 106.984 120.809 106.903V106.907Z" fill="#A1582F"/>
<path d="M117.954 104.062C117.823 103.928 117.697 103.793 117.566 103.663C117.485 103.732 117.407 103.801 117.334 103.879C117.472 104.013 117.607 104.147 117.746 104.282C117.819 104.213 117.888 104.139 117.954 104.062Z" fill="#A1582F"/>
<path d="M117.746 104.282C117.607 104.148 117.472 104.013 117.334 103.879C117.056 103.476 116.779 103.077 116.497 102.674C116.232 102.532 115.967 102.393 115.702 102.255C114.613 101.168 113.524 100.086 112.435 98.9989C110.211 97.9407 109.963 97.2732 111.203 95.7226C111.464 92.6456 111.631 92.4828 114.531 92.4787C118.598 92.4787 122.669 92.4055 126.732 92.5113C128.348 92.552 128.955 92.0595 128.78 90.4519C128.666 89.3814 128.747 88.2907 128.743 87.208C123.444 87.1999 118.145 87.1918 112.847 87.1836C112.712 87.0534 112.577 86.9191 112.443 86.7888C110.542 84.0416 111.917 82.2263 114.054 80.4029C115.849 78.8726 117.346 77.0045 119.047 75.3602C119.606 74.8229 120.393 74.5177 121.074 74.1066C121.633 73.435 122.196 72.7635 122.755 72.0919C122.743 71.8396 122.735 71.5913 122.722 71.339C121.323 70.2157 119.924 69.0964 118.525 67.9731C118.256 67.9731 117.982 67.9731 117.713 67.9731C116.881 68.7179 116.049 69.4627 115.217 70.2075L113.242 72.1164C111.647 73.9112 110.048 75.698 108.466 77.501C107.584 78.5063 106.773 79.2226 105.206 78.5348C103.677 77.8632 102.783 77.1836 102.999 75.3154C103.216 73.4432 103.073 71.5343 103.089 69.6418C102.942 68.7179 102.795 67.7981 102.649 66.8742C102.514 65.5026 102.318 64.135 102.261 62.7634C102.204 61.4203 101.625 60.9116 100.328 61.2982C99.2017 61.636 98.0799 62.0023 96.9581 62.3524C96.9622 62.6291 96.9704 62.9018 96.9745 63.1786C96.9745 63.7199 96.9745 64.2612 96.9745 64.8025C96.9459 64.9734 96.9174 65.1403 96.8888 65.3113C96.8888 66.1334 96.8888 66.9515 96.8929 67.7736C96.9092 70.4151 96.8766 73.0565 96.9622 75.698C97.003 76.9434 96.6726 77.79 95.3999 78.1604C94.1761 78.5145 93.1645 79.3407 91.8265 77.908C88.6407 74.4933 85.1978 71.3227 81.857 68.0504C79.8541 68.7789 78.353 70.004 77.7574 72.1408C80.4252 74.8636 83.1052 77.5743 85.7526 80.3134C86.2462 80.8222 86.6296 81.4408 87.062 82.0106C87.062 82.0106 87.0865 81.9577 87.0865 81.9536C87.3721 82.0879 87.6576 82.2223 87.9431 82.3566C89.1669 83.3049 88.5101 84.302 88.0288 85.3033C87.7188 85.9504 87.4332 86.6098 87.1355 87.265C86.5236 87.5092 85.9158 87.9529 85.2998 87.961C81.1676 88.0261 77.0313 88.0831 72.9032 87.9569C71.1246 87.904 70.7861 88.5674 70.782 90.1792C70.7779 91.852 71.0757 92.5927 72.9929 92.5235C77.2556 92.3729 81.5266 92.4462 85.7934 92.5113C86.3686 92.5194 86.9356 93.0404 87.5067 93.3212H87.5107C87.78 93.9399 88.0492 94.5585 88.3143 95.1812L88.3021 95.3156C88.4286 95.4946 88.555 95.6778 88.6855 95.8569L88.604 95.8447C88.914 96.1947 89.224 96.5447 89.5299 96.8947C89.1302 97.1756 88.7263 97.4605 88.3266 97.7413L88.347 97.7169C88.0614 97.9936 87.78 98.2663 87.4944 98.5431L87.5189 98.5187C87.6658 99.756 87.111 100.305 85.875 100.175L85.9117 100.155L85.4181 100.59C85.308 100.712 85.1938 100.83 85.0836 100.953L84.4881 101.685L84.5615 101.644C84.3045 101.836 84.0434 102.027 83.7864 102.218L83.4438 102.544C83.1134 102.927 82.783 103.313 82.4566 103.696L82.4974 103.655C82.2608 103.85 82.0283 104.05 81.7917 104.245L81.808 104.229C81.6122 104.465 81.4164 104.701 81.2206 104.933L81.2859 104.925C81.1431 105.067 81.0004 105.21 80.8576 105.352L80.8861 105.299C80.6332 105.495 80.3803 105.686 80.1274 105.881L79.7766 106.219C79.5808 106.472 79.385 106.724 79.1892 106.976L79.2381 106.911C79.0056 107.106 78.769 107.306 78.5365 107.501L78.5528 107.485C78.3611 107.725 78.1653 107.965 77.9736 108.209L77.8675 108.161C78.769 109.361 79.6257 110.607 80.6291 111.714C80.7556 111.852 81.7305 111.347 82.22 111.01C83.3785 110.212 84.484 109.333 85.6098 108.486L85.565 108.454C85.72 108.303 85.8791 108.152 86.0341 107.998L85.9811 108.051C86.1361 107.896 86.287 107.745 86.442 107.591L86.389 107.64C86.544 107.489 86.699 107.334 86.854 107.184L86.8336 107.245C87.523 106.561 88.2164 105.881 88.9058 105.198L88.8446 105.21C88.9996 105.059 89.1547 104.913 89.3137 104.762C89.3137 104.762 89.2607 104.811 89.2607 104.807C89.4116 104.652 89.5626 104.498 89.7176 104.347C89.7176 104.347 89.7053 104.404 89.7053 104.4C90.5253 103.578 91.3493 102.76 92.1692 101.938C92.1692 101.938 92.108 101.958 92.108 101.954C92.2671 101.807 92.4302 101.665 92.5893 101.518L92.5322 101.559C92.9646 101.335 93.499 100.826 93.809 100.94C94.7799 101.294 95.665 101.881 96.5829 102.377C96.7297 102.752 96.8766 103.126 97.0234 103.5C97.2641 104.38 97.6965 105.255 97.7169 106.142C97.7985 109.719 97.8148 113.297 97.7169 116.87C97.6761 118.405 98.0473 119.154 99.7279 118.967C100.43 118.889 101.168 119.137 102.241 119.284C102.241 118.12 102.241 117.074 102.241 116.028C102.241 112.047 102.241 108.063 102.241 104.082C102.241 102.678 102.624 101.644 104.374 102.047C104.374 102.047 104.366 102.015 104.366 102.011C105.308 101.575 106.23 101.05 107.221 100.79C107.393 100.745 107.862 101.836 108.192 102.401L108.204 102.349C108.355 102.499 108.506 102.65 108.657 102.8L108.616 102.752C108.763 102.906 108.91 103.061 109.053 103.215C109.053 103.215 108.996 103.228 109 103.224C109.281 103.492 109.559 103.765 109.84 104.038C109.84 104.038 109.84 103.968 109.84 103.964C109.991 104.119 110.142 104.274 110.293 104.428C110.293 104.428 110.224 104.375 110.228 104.375C110.424 104.607 110.615 104.844 110.807 105.08C110.942 105.218 111.08 105.36 111.215 105.499C111.452 105.69 111.688 105.885 111.925 106.077C111.925 106.077 111.88 106.008 111.88 106.003C112.031 106.158 112.178 106.309 112.324 106.463C112.324 106.463 112.267 106.476 112.271 106.476C113.634 106.48 114.344 107.123 114.278 108.523C114.278 108.523 114.315 108.474 114.315 108.47C114.47 108.616 114.621 108.763 114.776 108.909L114.731 108.857C114.882 109.011 115.033 109.162 115.18 109.316L115.135 109.268C115.282 109.422 115.425 109.577 115.572 109.728C115.572 109.728 115.523 109.752 115.523 109.748C115.93 110.151 116.338 110.554 116.75 110.957V110.896C116.946 111.132 117.138 111.372 117.33 111.608C117.464 111.742 117.595 111.877 117.729 112.011C120.263 112.104 120.821 110.008 121.792 108.368C121.388 107.957 120.985 107.546 120.581 107.135C120.446 107.001 120.312 106.866 120.173 106.732C119.765 106.321 119.357 105.914 118.949 105.503C118.806 105.238 118.668 104.97 118.529 104.705C118.264 104.563 117.999 104.42 117.729 104.282H117.746ZM91.6307 90.2931C91.6307 85.3196 94.9553 82.031 99.7361 81.8071C104.831 81.567 108.506 86.0237 108.396 90.0652C108.266 94.9208 104.68 98.5838 99.7442 98.5838C95.1919 98.5838 91.6307 94.9452 91.6307 90.2931Z" fill="#BD652C"/>
<path d="M108.209 102.401C107.878 101.835 107.409 100.745 107.238 100.789C106.247 101.05 105.325 101.575 104.382 102.01C105.716 101.571 107.066 100.977 108.209 102.401Z" fill="#A1582F"/>
<path d="M114.291 108.523C114.356 107.127 113.646 106.484 112.284 106.476C112.953 107.159 113.622 107.839 114.291 108.523Z" fill="#A1582F"/>
<path d="M116.763 110.961C116.355 110.558 115.947 110.155 115.535 109.752C115.943 110.155 116.351 110.558 116.763 110.961Z" fill="#A1582F"/>
<path d="M109.853 104.033C109.575 103.761 109.294 103.492 109.012 103.219C109.29 103.492 109.571 103.761 109.853 104.033Z" fill="#A1582F"/>
<path d="M110.819 105.075C110.627 104.839 110.436 104.607 110.24 104.371C110.432 104.607 110.627 104.839 110.819 105.075Z" fill="#A1582F"/>
<path d="M114.788 108.909C114.633 108.763 114.482 108.616 114.327 108.47C114.478 108.616 114.633 108.763 114.788 108.909Z" fill="#A1582F"/>
<path d="M115.588 109.727C115.441 109.573 115.298 109.418 115.151 109.268C115.294 109.422 115.441 109.577 115.588 109.727Z" fill="#A1582F"/>
<path d="M112.341 106.463C112.194 106.309 112.043 106.154 111.896 106.003C112.043 106.158 112.194 106.309 112.341 106.463Z" fill="#A1582F"/>
<path d="M92.1732 101.938C91.3533 102.76 90.5293 103.578 89.7094 104.4C90.5293 103.582 91.3533 102.76 92.1732 101.938Z" fill="#A1582F"/>
<path d="M96.5911 102.377C95.6732 101.88 94.7881 101.294 93.8172 100.94C93.5072 100.826 92.9728 101.335 92.5404 101.559C93.8906 101.832 95.2409 102.104 96.5911 102.373V102.377Z" fill="#A1582F"/>
<path d="M86.0422 107.998C85.8872 108.148 85.7281 108.299 85.5731 108.453C85.7281 108.303 85.8872 108.152 86.0422 107.998Z" fill="#A1582F"/>
<path d="M89.7217 104.343C89.5707 104.497 89.4198 104.648 89.2648 104.803C89.4157 104.648 89.5667 104.497 89.7217 104.343Z" fill="#A1582F"/>
<path d="M85.9158 120.297C85.8873 120.387 85.8913 120.472 85.9362 120.558C86.0627 120.558 86.1728 120.521 86.2748 120.448C86.1565 120.399 86.0382 120.35 85.9199 120.301L85.9158 120.297Z" fill="#B0B1C2"/>
<path d="M71.2878 87.277C72.744 87.3828 74.2003 87.5863 75.6525 87.5701C79.2014 87.5334 82.7503 87.3991 86.2992 87.3014C81.294 87.2933 76.2889 87.2852 71.2837 87.2729L71.2878 87.277Z" fill="#BD652C"/>
<path d="M115.225 70.1992C116.057 69.4544 116.889 68.7096 117.721 67.9648C113.573 66.9147 109.42 65.8565 105.272 64.8146C104.558 64.6355 103.832 64.5052 103.11 64.3506C103.073 65.2053 103.036 66.0641 103.003 66.9188C107.079 68.0136 111.154 69.1044 115.229 70.1992H115.225Z" fill="#323252"/>
<path d="M103.106 59.9756C103.122 61.1437 103.142 62.3159 103.159 63.484C103.142 62.3118 103.122 61.1437 103.106 59.9756Z" fill="#323252"/>
<path d="M115.225 70.1994C111.15 69.1046 107.075 68.0097 102.999 66.919C102.885 66.8864 102.771 66.8701 102.657 66.8701C102.804 67.794 102.95 68.7138 103.097 69.6377C106.483 70.4599 109.865 71.2861 113.25 72.1082L115.225 70.1994Z" fill="#C28062"/>
<path d="M91.6307 90.2929C91.6307 94.9449 95.1918 98.5835 99.7442 98.5835C104.68 98.5835 108.266 94.9205 108.396 90.065C108.506 86.0234 104.827 81.5708 99.736 81.8068C94.9552 82.0307 91.6307 85.3193 91.6307 90.2929ZM104.452 95.1362C101.131 97.4887 96.8112 97.0898 94.7839 94.5501C92.7525 92.0064 92.7035 87.8753 94.686 86.2188C93.7315 92.2668 97.7495 96.288 104.452 95.1362ZM104.725 90.0324C102.518 89.9876 100.062 87.7369 100.303 86.2025C100.409 85.5187 101.315 84.5297 101.963 84.4402C103.538 84.2204 105.643 86.9025 105.471 88.7666C105.422 89.2916 104.884 89.776 104.725 90.0324Z" fill="#4F4E75"/>
<path d="M113.25 72.1082C109.865 71.2861 106.483 70.4598 103.097 69.6377C103.081 71.5303 103.224 73.4432 103.008 75.3113C102.791 77.1754 103.685 77.8592 105.214 78.5307C106.781 79.2186 107.593 78.5022 108.474 77.4969C110.056 75.6939 111.656 73.9031 113.25 72.1123V72.1082Z" fill="#83422C"/>
<path d="M88.6122 95.8403C88.5224 96.4753 88.4286 97.1061 88.3389 97.741C88.7386 97.4602 89.1425 97.1753 89.5422 96.8945C89.2322 96.5444 88.9222 96.1944 88.6163 95.8444L88.6122 95.8403Z" fill="#A1582F"/>
<path d="M87.5271 98.5186C86.9805 99.0721 86.4298 99.6215 85.8832 100.175C87.1233 100.305 87.6739 99.7558 87.5271 98.5186Z" fill="#A1582F"/>
<path d="M87.5189 93.3169C87.7881 93.9355 88.0574 94.5542 88.3225 95.1728C88.0533 94.5542 87.7841 93.9355 87.5189 93.3169Z" fill="#A1582F"/>
<path d="M83.4561 102.544C83.1256 102.931 82.7993 103.313 82.4689 103.696C82.7952 103.309 83.1256 102.927 83.4561 102.544Z" fill="#A1582F"/>
<path d="M81.8203 104.225C81.6245 104.461 81.4328 104.697 81.2329 104.933C81.4287 104.697 81.6245 104.461 81.8203 104.225Z" fill="#A1582F"/>
<path d="M88.3103 95.3115C88.4367 95.4906 88.5632 95.6738 88.6937 95.8528C88.5673 95.6738 88.4408 95.4906 88.3103 95.3115Z" fill="#A1582F"/>
<path d="M104.452 95.1362C97.7495 96.288 93.7315 92.2668 94.6861 86.2188C92.7036 87.8753 92.7525 92.0063 94.784 94.5501C96.8113 97.0898 101.131 97.4887 104.452 95.1362Z" fill="#323252"/>
<path d="M104.725 90.0327C104.884 89.7763 105.422 89.292 105.471 88.7669C105.639 86.9029 103.538 84.2248 101.963 84.4405C101.315 84.53 100.409 85.519 100.303 86.2028C100.067 87.7372 102.522 89.9879 104.725 90.0327Z" fill="#686693"/>
</g>
<defs>
<clipPath id="clip0_27_32939">
<rect width="205.236" height="130.005" fill="white" transform="matrix(-1 0 0 1 205.93 0.70752)"/>
</clipPath>
</defs>
</svg>
