<?xml version="1.0" encoding="UTF-8"?>
<svg id="Layer_2" xmlns="http://www.w3.org/2000/svg" viewBox="0 0 176.48 164.91">
  <defs>
    <style>
      .cls-1 {
        fill: #ee7e4e;
      }

      .cls-2 {
        fill: #14061c;
      }

      .cls-3 {
        fill: #3d2655;
      }

      .cls-4 {
        fill: #daaf79;
      }

      .cls-5 {
        fill: #ebbc84;
      }

      .cls-6 {
        fill: #241b1b;
      }

      .cls-7 {
        fill: #f5bb6e;
      }

      .cls-8 {
        fill: #8b7a7d;
      }

      .cls-9 {
        fill: #e7d39a;
      }

      .cls-10 {
        fill: #f99e54;
      }
    </style>
  </defs>
  <g id="Layer_1-2" data-name="Layer_1">
    <g>
      <path class="cls-6" d="M153.89,81.81c-2.52,31.94-29.21,59.51-60.89,63.22-12.32,1.44-24.29.52-35.75-4.23-3.01-1.25-4.59.13-6.65,1.49-9.27,6.14-18.35,12.64-27.99,18.15-4.45,2.54-9.94,3.76-15.1,4.4-5.37.67-8.65-3.4-7.14-8.58,1.33-4.56,3.24-9.18,5.93-13.06,6.43-9.28,13.48-18.13,20.64-27.64-10.73-16.24-14.77-34.62-9.91-54.42,3.67-14.97,11.68-27.38,23.55-37.32,23.7-19.86,60.8-22.81,87.88-.3,7.87-5.43,15.66-11.04,23.71-16.26,4.02-2.61,8.31-5.06,12.82-6.55,2.82-.93,6.96-1.05,9.27.41,3.42,2.18,2.34,6.68.51,9.55-5.7,8.94-11.78,17.64-18.01,26.22-2.62,3.61-5.99,6.67-8.18,9.07,1.91,9.18,3.65,17.53,5.38,25.89-.02,3.32-.04,6.64-.06,9.96ZM41.94,118.67c-.36.36-.72.72-1.08,1.09,0,0,.01-.08.01-.08-1.28.94-2.56,1.88-4.34,3.18,3.68,3.05,6.68,5.94,10.09,8.2,1.74,1.15,4.23,1.16,6.39,1.68-8.23,8.45-18.12,14.3-29.12,18.33-2.71.99-6.26,1.69-7.53-1.35-.88-2.11-.27-5.73,1.08-7.73,3.71-5.49,8.1-10.53,12.32-15.66,3.39-4.13,3.45-4.08-1.37-7.76-8.9,10.1-17.95,20.14-23.55,32.59-1.15,2.56-1.71,6.95-.31,8.64,1.37,1.66,6.03,2.03,8.5,1.06,6.92-2.72,13.72-5.99,20.08-9.85,8.22-4.99,15.97-10.75,23.92-16.18.01.33.03.67.04,1,2.33,1.28,4.52,3.01,7.01,3.79,26.56,8.28,57.19-2.15,73.91-25.19,9.18-12.65,13.83-26.72,12.32-42.52.18-7.79-2.22-14.91-5.59-22.61-3.33,3.27-6.24,6.13-9.15,8.99-2.19,1.53-4.39,3.05-6.58,4.58,1.01-1.66,2.03-3.32,3.04-4.97.33-.36.66-.71.98-1.07h0c.37-.32.75-.63,1.12-.94.29-.32.58-.65.88-.97,4.93-4.87,10.32-9.38,14.7-14.71,7.35-8.95,14.29-18.26,20.86-27.8,1.49-2.17.77-5.86,1.06-8.85-2.97.29-6.52-.35-8.82,1.04-10.35,6.26-20.36,13.08-30.44,19.76-.57.38-.73,1.38-1.08,2.09,3.39-1.26,5.95-3.34,8.75-5,5.41-3.19,10.89-6.29,16.5-9.09,1.15-.58,3.65-.2,4.42.69.77.89.71,3.28.05,4.49-1.56,2.9-3.42,5.74-5.65,8.15-4.62,5-9.58,9.67-14.34,14.54-.83.85-1.37,2-2.04,3.01-1.99.87-3.98,1.75-5.97,2.62.72-1.04,1.45-2.09,2.17-3.13.99-.82,1.98-1.64,3.58-2.98-3.91-4.25-7.35-8.52-11.31-12.22C109.78,11.07,81.99,6.2,62.06,15.87c-.71.35-1.42.69-2.13,1.04-8.95,2.54-15.97,8-22.15,14.71l.22.19-.2-.21c-2.02,2.33-4.04,4.67-6.06,7h.04c-.96,1.39-1.92,2.78-2.87,4.17l.04-.04c-.38.68-.76,1.36-1.14,2.04l.07-.11c-9.68,15.4-11.58,31.84-6.97,49.8,3.1-2.16,5.62-3.92,8.15-5.68-.1.57-.2,1.13-.31,1.7-1.17.88-2.26,1.93-3.53,2.62-3.41,1.85-4.02,4.35-2.09,7.62,2.98,5.04,5.96,10.09,8.93,15.14,1.03,1.64,2.06,3.27,3.31,5.26,2.02-1.64,3.64-3,5.31-4.3,3.46-2.68,6.94-5.33,10.42-7.99-2.05,2.31-4.09,4.62-6.14,6.93-.68.63-1.36,1.26-2.04,1.9-.36.36-.72.72-1.07,1.08,0,0,.09-.08.09-.08ZM33.68,125.16c-4.86,6.23-9.72,12.3-14.36,18.54-.75,1.01-1.14,3.18-.55,4.04.56.83,2.6.89,3.98.89,1.11,0,2.32-.42,3.31-.97,6.79-3.74,13.54-7.56,20.72-11.59-4.58-3.81-8.37-6.97-13.1-10.91ZM158.35,15.19c-9.48,2.1-16.61,8.12-24.15,13.87,2.26,2.85,4.27,5.38,6.5,8.18,6.71-6.95,14.19-12.63,17.65-22.05Z"/>
      <path class="cls-2" d="M153.89,81.81c.02-3.32.04-6.64.06-9.96-.02,3.32-.04,6.64-.06,9.96Z"/>
      <path class="cls-10" d="M28.74,90.48c.1-.57.2-1.13.31-1.7,0,0-.1.07-.1.07.67-.07,1.33-.13,2-.2.25.16.49.32.74.48.07-.47.15-.94.22-1.4v.02c4.82,1.33,4.88-1.88,4.87-5.15l-.06.05c.44-.26.87-.53,1.31-.79l.41-.42c-.15.13-.29.26-.44.39-.28.03-.57.06-.85.09-.41-.35-.81-.69-1.22-1.04-.94.1-1.93.04-2.8.35-2.2.77-4.33,1.7-6.38,2.52-1,1.96-2.04,4-3.52,6.9-1.1-2.06-2.05-3.02-2.06-4-.08-9.37-1.22-18.79,2.7-27.87,1.92-4.45,2.7-9.39,4-14.11l-.07.11c.38-.68.76-1.36,1.14-2.04l-.04.04c2.87-.07,3.33-1.8,2.87-4.17h-.04c5.93-1.24,6.32-1.69,6.06-7.01l.2.21s-.22-.19-.22-.19c2.97-1.1,6.08-1.92,8.87-3.36,2.94-1.52,5.57-3.63,8.34-5.48-.71,2.31-1.41,4.62-2.12,6.94-.11.19-.22.38-.32.58.19-.11.38-.22.57-.33,3-4.39,5.99-8.78,8.99-13.16,6.28-1.32,12.51-3.1,18.86-3.84,8.03-.93,15.77,1.25,23.31,3.93-.1.66-.19,1.32-.29,1.98l.06-.08c-1.02,1.36-2.05,2.72-3.07,4.08l.07-.09c-1.33,1.68-2.66,3.36-3.99,5.05l-.14.11.1-.15,3.88-3.96c3.56,3.31,7.54,6.27,10.57,10.01,3.87,4.78,3.76,6.94-.45,11.31-6.68,6.92-13.76,13.46-20.74,20.08-4.04,3.83-8.22,7.52-12.35,11.28,1.77,3.01,3.34,4.24,6.16,1.93,2.55-2.09,5.59-3.61,8.01-5.83,8.8-8.06,17.41-16.34,26.16-24.47,1.4-1.3,3.16-2.22,4.75-3.32l.02.02c-.38,1.23-.67,2.51-1.17,3.68-2.15,5-.86,10.48,3.21,13.36-.01.99-.02,1.99-.03,2.98-.32.56-.64,1.11-.95,1.67-4.27,4.12-8.54,8.24-12.82,12.35.23.3.45.6.68.9,1.02-.32,2.05-.64,3.07-.96.21,1.32.41,2.64.62,3.96l1.92,1.07c2.63-3.43,5.26-6.85,7.9-10.28,2.83,9.37-.16,17.24-2.79,25.06-2.07,6.15-7.1,9.81-11.97,13.94-7.67,6.5-16.38,9.51-25.81,11.41-1.01.2-2.12-.1-3.18-.16.38-1.12.56-2.37,1.18-3.34,1.68-2.6,3.56-5.07,5.36-7.6-.3-.3-.59-.59-.89-.89-.86.23-1.94.2-2.55.72-2.9,2.45-5.58,5.17-8.54,7.54-2.13,1.7-4.94,4.58-6.81,4.15-4.48-1.03-6.81,1.36-9.57,3.64l-.81.85c-.33-.1-.66-.21-.99-.31-1.74-1.86-3.47-3.71-5.43-5.81,10.72-9.32,19.25-20.88,28.5-31.82-.49-.49-.98-.97-1.48-1.46-10.39,10.19-20.77,20.38-31.41,30.81-1.56-2.15-2.43-3.34-3.3-4.54,2.05-2.31,4.09-4.62,6.14-6.93l-.07.05c1.68-1.36,3.35-2.72,5.03-4.08l-.08.06c.29-.31.57-.61.86-.92.64-.31,1.28-.61,2.4-1.15-1.89-.96-3.17-1.61-4.25-2.16-3.4,2.07-6.68,4.06-9.97,6.06.02.34.04.68.07,1.01-.33.08-.66.16-.98.23-2.02-.01-4.04-.03-6.06-.04,2.3-2.65,4.6-5.3,6.89-7.95-.23-.25-.45-.49-.68-.74-4.46,3.22-8.92,6.45-13.38,9.67-3.92-3.1-5.39-7.25-5.45-12.6,1.53.42,2.65.73,3.81,1.05-.16-2.35-.32-4.6-.47-6.85ZM108.39,96.06c.51-.37,1.02-.75,1.53-1.12-.48-.26-.95-.51-1.43-.77-1.05.29-2.38.27-3.09.93-2.88,2.64-5.72,5.37-8.27,8.32-1.09,1.26-1.43,3.16-2.11,4.77l1.44.9c5.09-3.23,8.43-8.21,11.93-13.03ZM67.01,40.85c3.68-6.68,7.37-13.35,11.05-20.03-.43-.37-.85-.74-1.28-1.11-1.39,1.32-3.09,2.43-4.1,3.99-3.84,5.96-8.61,10.7-15.04,13.97-3.62,1.84-7.32,4.19-9.9,7.23-4.15,4.89-7.47,10.5-10.96,15.92-.61.94-.31,2.47-.43,3.73.59.29,1.18.59,1.77.88,3.33-3.93,6.6-7.91,10-11.78,3.24-3.69,6.21-7.87,11.93-7.81-1.2,1.26-2.52,2.43-3.58,3.8-1.29,1.67-2.36,3.5-3.52,5.26.42.28.84.56,1.25.84.91-.85,1.77-1.75,2.73-2.53,3.45-2.76,6.96-5.44,10.38-8.22,1.75-1.43,2.2-2.94-.3-4.15ZM88.47,50.39c-.46-.52-.92-1.04-1.38-1.56-1.33.81-2.8,1.45-3.95,2.45-3.87,3.38-7.71,6.79-11.4,10.36-7.39,7.13-14.21,14.77-23.47,19.86-4.74,2.61-8.38,7.11-9.5,13.16,2.31-.86,4.37-2.04,6.27-3.44,4.5-3.3,9.02-6.58,13.34-10.11,3.54-2.89,6.94-5.98,10.14-9.25,4.94-5.06,9.66-10.35,14.47-15.54,1.83-1.97,3.66-3.95,5.49-5.92ZM96.94,33.44c-6.49-.29-17.87,11.3-17.03,17.2,5.75-5.81,10.95-11.06,17.03-17.2ZM36.32,69.23c-.41-.5-.83-1.01-1.24-1.51-2.87,2.06-5.82,4.03-8.56,6.26-.63.51-.54,1.9-.78,2.89,1.16.05,2.8.61,3.4.05,2.56-2.38,4.82-5.1,7.18-7.69ZM63.91,21.24c.36.47.71.94,1.07,1.42,3.97.65,4.38-2.66,5.61-5.05l-1.02-1.18c-1.89,1.61-3.78,3.21-5.66,4.82ZM29.9,48.26c1.49,1.26,2.52,2.57,2.94,2.4,1.17-.48,2.23-1.47,2.99-2.51.16-.22-1.27-2.24-1.72-2.15-1.21.24-2.29,1.16-4.21,2.26ZM73.97,38.43c.49.55.98,1.1,1.48,1.66,1.94-1.97,3.88-3.93,5.82-5.9l-1.39-1.4c-1.97,1.88-3.94,3.76-5.9,5.64ZM32.43,58.12c-1.14-.98-2.15-2.2-2.46-2.05-1.02.52-1.94,1.44-2.54,2.43-.16.27,1.26,1.99,1.49,1.89,1.12-.45,2.08-1.29,3.51-2.28ZM30.45,67.06c-2.04-1.74-2.71-2.32-3.38-2.89-.67.94-1.5,1.82-1.9,2.86-.1.27,1.19,1.54,1.78,1.5,1.04-.07,2.03-.8,3.5-1.47ZM113.18,88.98c-.55-.38-1.1-.75-1.65-1.12-.87,1.35-1.74,2.69-2.61,4.04.45.31.89.61,1.34.92.97-1.28,1.95-2.56,2.92-3.83ZM112.55,100.13c-.47.75-.91,1.22-1.04,1.77-.05.22.59.6.91.9.39-.44.9-.83,1.11-1.34.08-.2-.48-.68-.98-1.33ZM87.54,26.77c-.49-.4-.75-.74-1.09-.86-.18-.06-.71.32-.69.44.06.37.3.72.48,1.07.35-.18.71-.35,1.31-.65ZM97.25,86.37c-.68.82-1.12,1.12-1.13,1.43,0,.32.41.66.64.99.38-.35.9-.64,1.09-1.08.11-.26-.31-.74-.59-1.33Z"/>
      <path class="cls-1" d="M123,44.82c-1.59,1.1-3.35,2.02-4.75,3.32-8.75,8.12-17.35,16.4-26.16,24.47-2.42,2.22-5.46,3.73-8.01,5.83-2.81,2.31-4.39,1.09-6.16-1.93,4.13-3.76,8.31-7.44,12.35-11.28,6.98-6.62,14.06-13.16,20.74-20.08,4.21-4.36,4.32-6.52.45-11.31-3.02-3.74-7.01-6.7-10.57-10.01.05-.35.1-.7.14-1.05l-.07.09c1.02-1.36,2.05-2.72,3.07-4.08,0,0-.06.08-.06.08.36-.2.73-.39,1.09-.59,9.33,1.66,16.3,7.59,23.01,13.52,3.13,2.77,4.77,7.24,7.09,10.93-.72,1.04-1.45,2.09-2.17,3.13l.07-.06c-.34.5-.68,1.01-1.02,1.51-.2.59-.74,1.5-.54,1.71,2.41,2.59,1.64,4.25-.99,6.3-2.19,1.71-3.67,4.33-5.47,6.55-4.07-2.88-5.36-8.36-3.21-13.36.51-1.18.79-2.45,1.17-3.68.13-.14.27-.28.4-.42-.14.13-.28.27-.42.4Z"/>
      <path class="cls-8" d="M57.02,134.83c-7.95,5.43-15.7,11.2-23.92,16.18-6.36,3.86-13.16,7.13-20.08,9.85-2.47.97-7.12.59-8.5-1.06-1.4-1.69-.84-6.08.31-8.64,5.6-12.45,14.65-22.49,23.55-32.59,4.83,3.68,4.76,3.63,1.37,7.76-4.22,5.14-8.62,10.17-12.32,15.66-1.35,2-1.96,5.62-1.08,7.73,1.27,3.04,4.82,2.34,7.53,1.35,11-4.03,20.88-9.88,29.12-18.33l-.06.07c.69-.35,1.37-.69,2.06-1.04l-.06.04c.57-.02,1.14-.04,1.71-.05.11.72.23,1.44.34,2.16.08.3.09.61.02.92Z"/>
      <path class="cls-5" d="M150.29,71.91c1.51,15.8-3.14,29.87-12.32,42.52-16.72,23.04-47.35,33.47-73.91,25.19-2.49-.78-4.68-2.5-7.01-3.78.35-.07.69-.13,1.04-.2,8.38.75,16.75,1.94,25.14,2.14,12.61.3,24.35-3.28,34.67-10.55,5.67-4,10.72-8.88,16.05-13.36.34-.71.68-1.41,1.02-2.12,1.99-3.3,3.98-6.61,5.97-9.91,2.15-.36,2.74-1.28,1.08-3.01.98-3,1.95-6,2.93-9,.68-.75,1.85-1.45,1.96-2.27.52-4.23.76-8.48,1.09-12.73l.04-1.27c.75-.55,1.5-1.1,2.24-1.64Z"/>
      <path class="cls-8" d="M138.96,43.25c.67-1.01,1.21-2.16,2.04-3.01,4.76-4.87,9.72-9.55,14.34-14.54,2.23-2.41,4.09-5.25,5.65-8.15.66-1.21.72-3.6-.05-4.49-.77-.89-3.27-1.26-4.42-.69-5.62,2.8-11.09,5.9-16.5,9.09-2.81,1.66-5.36,3.73-8.75,5,.35-.71.51-1.71,1.08-2.09,10.09-6.69,20.1-13.51,30.44-19.76,2.31-1.4,5.85-.75,8.82-1.04-.29,2.99.43,6.69-1.06,8.85-6.57,9.53-13.51,18.85-20.86,27.8-4.38,5.33-9.77,9.83-14.7,14.71.41-1.34.78-2.69,1.24-4.01.89-2.56,1.82-5.1,2.73-7.65Z"/>
      <path class="cls-1" d="M44.95,115.77c.87,1.19,1.74,2.39,3.3,4.54,10.64-10.43,21.02-20.62,31.41-30.81.49.49.98.97,1.48,1.46-9.25,10.95-17.78,22.5-28.5,31.82,1.96,2.09,3.7,3.95,5.43,5.81-.83.51-1.66,1.01-2.49,1.52-6.58-1.11-11.65-4.36-14.71-10.43,0,0-.01.08-.01.08.36-.36.72-.72,1.08-1.09l-.09.08c.36-.36.72-.72,1.07-1.08.68-.63,1.36-1.26,2.04-1.9Z"/>
      <path class="cls-5" d="M135.16,42.74c-2.32-3.7-3.95-8.16-7.09-10.93-6.71-5.93-13.68-11.86-23.01-13.52-.27-.46-.54-.93-.8-1.39-7.54-2.68-15.28-4.86-23.31-3.93-6.35.73-12.57,2.52-18.86,3.84-.02-.31-.03-.62-.04-.93,19.94-9.67,47.72-4.79,65.38,11.68,3.96,3.7,7.4,7.96,11.31,12.22-1.61,1.34-2.6,2.16-3.58,2.98Z"/>
      <path class="cls-4" d="M27.87,44.66c-1.3,4.72-2.08,9.66-4,14.11-3.92,9.09-2.78,18.5-2.7,27.87,0,.97.96,1.94,2.06,4,1.48-2.9,2.52-4.95,3.52-6.9,2.04-.82,4.18-1.76,6.38-2.52.87-.3,1.86-.24,2.8-.35-2.32,2.66-4.65,5.32-6.97,7.99,0,0,.1-.07.1-.07-2.53,1.76-5.05,3.52-8.15,5.68-4.61-17.96-2.71-34.39,6.97-49.8Z"/>
      <path class="cls-4" d="M38.02,107.9c2.02.01,4.04.03,6.06.04-4.01,2.64-8.02,5.28-12.03,7.92-2.98-5.05-5.95-10.1-8.93-15.14-1.93-3.26-1.33-5.76,2.09-7.62,1.28-.69,2.36-1.74,3.53-2.62.16,2.25.31,4.5.47,6.85-1.16-.32-2.28-.63-3.81-1.05.07,5.35,1.53,9.5,5.45,12.6.2,2.95,1.32,3.93,3.88,1.81,1.11-.92,2.19-1.86,3.29-2.79Z"/>
      <path class="cls-4" d="M150.29,71.91c-.75.55-1.5,1.1-2.24,1.64-.68-1.41-1.67-2.76-1.98-4.25-.98-4.71-1.71-9.46-2.63-14.78-2.78,1.62-5.09,2.97-7.41,4.32-.15-.19-.3-.38-.46-.56,2.91-2.86,5.82-5.72,9.15-8.99,3.36,7.7,5.77,14.82,5.59,22.61Z"/>
      <path class="cls-8" d="M32.06,115.86c4.01-2.64,8.02-5.28,12.03-7.92.33-.08.66-.16.98-.23.32-.25.65-.51.97-.76,1.93.27,3.85-3.29,5.79-.02-.27.65-.54,1.31-.81,1.96l.07-.05c-3.47,2.66-6.96,5.3-10.42,7.99-1.67,1.29-3.28,2.66-5.31,4.3-1.25-1.99-2.28-3.63-3.31-5.26Z"/>
      <path class="cls-4" d="M138.96,43.25c-.91,2.55-1.85,5.09-2.73,7.65-.46,1.32-.83,2.67-1.24,4.01-.29.32-.58.65-.88.97-.37.31-.75.63-1.12.94,0,0,0,0,0,0-.33.36-.66.71-.98,1.07-1.01,1.66-2.03,3.32-3.04,4.97l.07-.06-1.06,1.06.07-.06c-.94.4-1.87.81-2.81,1.21l-.21-.16c.01-.99.02-1.99.03-2.98,1.79-2.22,3.28-4.83,5.47-6.55,2.62-2.05,3.4-3.71.99-6.3-.2-.22.34-1.13.54-1.71.34-.5.68-1.01,1.02-1.51l-.07.06c1.99-.87,3.98-1.75,5.97-2.62Z"/>
      <path class="cls-4" d="M40.86,119.67c3.06,6.08,8.13,9.32,14.71,10.43-.21.57-.42,1.13-.63,1.7,0,0,.06-.04.06-.04-.69.35-1.37.69-2.06,1.04l.06-.07c-2.15-.52-4.65-.53-6.39-1.68-3.42-2.26-6.41-5.15-10.09-8.2,1.78-1.3,3.06-2.24,4.34-3.18Z"/>
      <path class="cls-4" d="M54.98,22.77c-2.77,1.85-5.4,3.96-8.34,5.48-2.79,1.44-5.9,2.27-8.87,3.36,6.19-6.71,13.2-12.17,22.15-14.71-1.65,1.96-3.3,3.91-4.95,5.87Z"/>
      <path class="cls-1" d="M54.98,22.77c1.65-1.96,3.3-3.91,4.95-5.87.71-.35,1.42-.69,2.13-1.04.01.31.03.62.04.93-3,4.39-5.99,8.78-8.99,13.16l-.25-.25c.71-2.31,1.41-4.62,2.12-6.94Z"/>
      <path class="cls-4" d="M128.97,62.86c2.19-1.53,4.39-3.05,6.58-4.58.16.18.32.36.46.56-3.99,3.95-7.98,7.9-11.96,11.85,0-.28,0-.56-.02-.84.29-.98.58-1.96.88-2.94l.08-.05c1.02-1.01,2.04-2.03,3.06-3.04l-.07.06,1.06-1.06-.07.06Z"/>
      <path class="cls-4" d="M37.8,31.6c.26,5.32-.13,5.77-6.06,7,2.02-2.33,4.04-4.67,6.06-7Z"/>
      <path class="cls-4" d="M31.78,38.61c.46,2.36,0,4.1-2.87,4.17.96-1.39,1.92-2.78,2.87-4.17Z"/>
      <path class="cls-3" d="M58.09,135.63c-.35.07-.69.14-1.04.2-.01-.33-.03-.67-.04-1,.07-.31.07-.61-.02-.92.85-.2,1.69-.4,2.54-.6-.48.77-.96,1.55-1.45,2.32Z"/>
      <path class="cls-4" d="M28.95,42.73c-.38.68-.76,1.36-1.14,2.04.38-.68.76-1.36,1.14-2.04Z"/>
      <path class="cls-8" d="M133,56.81c.37-.31.75-.63,1.12-.94-.37.31-.75.63-1.12.94Z"/>
      <path class="cls-8" d="M132.01,57.89c.33-.36.66-.71.98-1.07-.33.36-.66.71-.98,1.07Z"/>
      <path class="cls-4" d="M42.91,117.67c-.36.36-.72.72-1.07,1.08.36-.36.72-.72,1.07-1.08Z"/>
      <path class="cls-4" d="M41.94,118.67c-.36.36-.72.72-1.08,1.09.36-.36.72-.72,1.08-1.09Z"/>
      <path class="cls-1" d="M58.09,135.63c.48-.77.96-1.55,1.45-2.32.19-1.52,4.07-3.02.03-4.56.04-.26.14-.49.3-.7,2.76-2.27,5.09-4.66,9.57-3.64,1.87.43,4.68-2.45,6.81-4.15,2.96-2.37,5.64-5.09,8.54-7.54.62-.52,1.69-.5,2.55-.72.3.3.59.59.89.89-1.8,2.52-3.67,5-5.36,7.6-.62.96-.8,2.22-1.18,3.34,1.06.07,2.17.36,3.18.16,9.43-1.9,18.15-4.91,25.81-11.41,4.87-4.13,9.9-7.79,11.97-13.94,2.63-7.82,5.61-15.7,2.79-25.06-2.63,3.43-5.26,6.85-7.9,10.28l-1.92-1.07c-.21-1.32-.41-2.64-.62-3.96h0c1.33-1,2.67-2,4-3h0c.67-.99,1.34-2,2.01-3h0c.67-.33,1.34-.66,2.01-1h0c.35-.38.7-.76,1.05-1.14,3.99-3.95,7.98-7.9,11.96-11.85,2.32-1.35,4.64-2.7,7.41-4.32.93,5.32,1.65,10.08,2.63,14.78.31,1.49,1.3,2.84,1.98,4.25l-.04,1.27c-.64.9-1.72,1.74-1.85,2.71-.55,4.08-.82,8.19-1.2,12.3-.98,3-1.95,6-2.93,9l-1.08,3.01c-1.99,3.3-3.98,6.61-5.97,9.91-.34.71-.68,1.41-1.02,2.12-5.33,4.48-10.38,9.37-16.05,13.36-10.32,7.26-22.06,10.85-34.67,10.55-8.39-.2-16.76-1.39-25.14-2.14ZM111.97,116.78c.13-.04.27-.06.38-.13.06-.04.08-.16.11-.25-.14.15-.28.29-.42.44l-1.02,1c-1.33,1.66-2.67,3.32-4,4.99-.66,1.01-1.32,2.01-1.98,3.02-.35.33-.7.66-1.06.99-2.48,2.51-4.95,5.01-7.43,7.52v.05c2.48-2.52,4.96-5.04,7.44-7.55.33-.35.67-.7,1-1.05.66-1,1.32-2.01,1.98-3.01,1.33-1.67,2.66-3.33,4-5l1-1.01ZM137.52,97.59c-2.49-1.7-3.96-3.47-5.13-3.29-1.26.19-2.25,2.21-3.36,3.43,1.19,1.03,2.32,2.76,3.6,2.88,1.2.11,2.55-1.49,4.89-3.03Z"/>
      <path class="cls-7" d="M60.04,45.85c-5.72-.06-8.69,4.13-11.93,7.81-3.4,3.87-6.67,7.85-10,11.78-.59-.29-1.18-.59-1.77-.88.12-1.26-.18-2.79.43-3.73,3.49-5.42,6.81-11.03,10.96-15.92,2.58-3.04,6.28-5.39,9.9-7.23,6.43-3.27,11.2-8.01,15.04-13.97,1.01-1.56,2.72-2.67,4.1-3.99.43.37.85.74,1.28,1.11-3.68,6.68-7.37,13.35-11.05,20.03-2.32,1.67-4.64,3.33-6.97,5Z"/>
      <path class="cls-7" d="M88.47,50.39c-1.83,1.97-3.66,3.95-5.49,5.92-4.81,5.19-9.52,10.48-14.47,15.54-3.19,3.27-6.6,6.36-10.14,9.25-4.32,3.53-8.84,6.81-13.34,10.11-1.9,1.4-3.95,2.58-6.27,3.44,1.12-6.05,4.76-10.55,9.5-13.16,9.26-5.09,16.08-12.73,23.47-19.86,3.69-3.56,7.53-6.98,11.4-10.36,1.15-1.01,2.63-1.65,3.95-2.45.46.52.92,1.04,1.38,1.56Z"/>
      <path class="cls-1" d="M96.94,33.44c-6.07,6.13-11.28,11.39-17.03,17.2-.84-5.89,10.54-17.48,17.03-17.2Z"/>
      <path class="cls-1" d="M60.04,45.85c2.32-1.67,4.64-3.33,6.97-5,2.5,1.21,2.05,2.72.3,4.15-3.42,2.79-6.94,5.46-10.38,8.22-.97.77-1.82,1.68-2.73,2.53-.42-.28-.84-.56-1.25-.84,1.16-1.76,2.24-3.59,3.52-5.26,1.06-1.37,2.37-2.54,3.58-3.8Z"/>
      <path class="cls-7" d="M108.39,96.06c-3.5,4.82-6.84,9.8-11.93,13.03l-1.44-.9c.68-1.61,1.02-3.51,2.11-4.77,2.55-2.95,5.39-5.68,8.27-8.32.71-.65,2.05-.64,3.09-.93-.03.63-.07,1.26-.1,1.89Z"/>
      <path class="cls-1" d="M38.02,107.9c-1.09.93-2.18,1.87-3.29,2.79-2.56,2.12-3.68,1.14-3.88-1.81,4.46-3.22,8.92-6.45,13.38-9.67.23.25.45.49.68.74-2.3,2.65-4.6,5.3-6.89,7.95Z"/>
      <path class="cls-1" d="M36.32,69.23c-2.37,2.59-4.62,5.31-7.18,7.69-.6.56-2.24,0-3.4-.05.24-.99.15-2.38.78-2.89,2.74-2.23,5.69-4.2,8.56-6.26.41.5.83,1.01,1.24,1.51Z"/>
      <path class="cls-1" d="M124.91,66.9c-.29.98-.58,1.96-.88,2.94-.34.66-.69,1.33-1.03,1.99h0c-.67.33-1.34.66-2.01,1h0c-.67,1-1.34,2-2.01,3h0c-1.33.99-2.67,1.99-4,3h0c-1.02.32-2.05.64-3.07.96-.23-.3-.45-.6-.68-.9,4.27-4.12,8.54-8.24,12.82-12.35.29.1.57.23.84.37Z"/>
      <path class="cls-1" d="M51.83,106.93c-1.94-3.27-3.86.29-5.79.02-.34-.08-.69-.17-1.03-.25,3.29-2,6.57-4,9.97-6.06,1.08.55,2.36,1.2,4.25,2.16-1.12.54-1.76.85-2.4,1.15-.29.31-.57.61-.86.92l.08-.06c-1.41.71-2.81,1.42-4.22,2.12Z"/>
      <path class="cls-1" d="M63.91,21.24c1.89-1.61,3.78-3.21,5.66-4.82l1.02,1.18c-1.23,2.39-1.64,5.7-5.61,5.05-.36-.47-.71-.94-1.07-1.42Z"/>
      <path class="cls-5" d="M29.9,48.26c1.92-1.1,3-2.03,4.21-2.26.45-.09,1.88,1.93,1.72,2.15-.76,1.04-1.82,2.03-2.99,2.51-.42.17-1.45-1.14-2.94-2.4Z"/>
      <path class="cls-1" d="M73.97,38.43c1.97-1.88,3.94-3.76,5.9-5.64l1.39,1.4c-1.94,1.97-3.88,3.93-5.82,5.9-.49-.55-.98-1.1-1.48-1.66Z"/>
      <path class="cls-7" d="M32.43,58.12c-1.43.99-2.39,1.83-3.51,2.28-.23.09-1.65-1.63-1.49-1.89.59-.99,1.52-1.91,2.54-2.43.31-.16,1.32,1.07,2.46,2.05Z"/>
      <path class="cls-5" d="M30.45,67.06c-1.48.67-2.47,1.4-3.5,1.47-.59.04-1.89-1.23-1.78-1.5.4-1.04,1.23-1.92,1.9-2.86.67.58,1.35,1.15,3.38,2.89Z"/>
      <path class="cls-6" d="M28.95,88.85c2.32-2.66,4.65-5.32,6.97-7.99.41.35.81.69,1.22,1.04-.28.17-.42.41-.42.74l.06-.05c-1.63,1.72-3.25,3.43-4.88,5.15v-.02c-.31.31-.63.62-.95.93-.67.07-1.33.13-2,.2Z"/>
      <path class="cls-7" d="M31.9,87.73c1.63-1.72,3.25-3.43,4.88-5.15,0,3.27-.05,6.47-4.88,5.15Z"/>
      <path class="cls-7" d="M113.18,88.98c-.97,1.28-1.95,2.56-2.92,3.83-.45-.31-.89-.61-1.34-.92.87-1.35,1.74-2.69,2.61-4.04.55.38,1.1.75,1.65,1.12Z"/>
      <path class="cls-6" d="M101.03,22.78c-.05.35-.1.7-.14,1.05l-3.88,3.96.03.04c1.33-1.68,2.66-3.36,3.99-5.05Z"/>
      <path class="cls-6" d="M51.83,106.93c1.41-.71,2.81-1.42,4.22-2.12-1.68,1.36-3.35,2.72-5.03,4.08.27-.65.54-1.31.81-1.96Z"/>
      <path class="cls-3" d="M112.55,100.13c.5.65,1.07,1.12.98,1.33-.21.51-.72.9-1.11,1.34-.32-.31-.96-.68-.91-.9.13-.54.57-1.02,1.04-1.77Z"/>
      <path class="cls-6" d="M54.95,131.81c.21-.57.42-1.13.63-1.7.83-.51,1.66-1.01,2.49-1.52.33.1.66.21.99.31l-.07-.09c-.78.98-1.55,1.97-2.33,2.95-.57.02-1.14.04-1.71.05Z"/>
      <path class="cls-6" d="M104.04,18.79c-1.02,1.36-2.05,2.72-3.07,4.08,1.02-1.36,2.05-2.72,3.07-4.08Z"/>
      <path class="cls-3" d="M87.54,26.77c-.6.3-.96.48-1.31.65-.17-.35-.42-.7-.48-1.07-.02-.12.52-.5.69-.44.34.11.61.45,1.09.86Z"/>
      <path class="cls-6" d="M108.39,96.06c.03-.63.07-1.26.1-1.89.48.26.95.51,1.43.77-.51.37-1.02.75-1.53,1.12Z"/>
      <path class="cls-6" d="M97.25,86.37c.28.59.7,1.08.59,1.33-.19.44-.71.73-1.09,1.08-.23-.33-.65-.66-.64-.99,0-.31.45-.61,1.13-1.43Z"/>
      <path class="cls-6" d="M104.27,16.89c.27.46.54.93.8,1.39-.36.2-.73.39-1.09.59.1-.66.19-1.32.29-1.98Z"/>
      <path class="cls-4" d="M124.91,66.9c-.27-.15-.55-.27-.84-.37.32-.56.64-1.11.95-1.67l.21.16c-.08.61-.17,1.22-.25,1.83l-.08.05Z"/>
      <path class="cls-7" d="M30.95,88.65c.32-.31.64-.62.96-.93-.07.47-.15.94-.22,1.4-.25-.16-.49-.32-.74-.48Z"/>
      <path class="cls-6" d="M59.86,128.04c-.15.21-.25.44-.3.7-.2-.09-.4-.07-.58.06l.07.09.81-.85Z"/>
      <path class="cls-1" d="M53.11,29.96c-.19.11-.38.22-.57.33.11-.19.22-.38.32-.58l.25.25Z"/>
      <path class="cls-7" d="M36.72,82.63c0-.32.15-.57.42-.74.28-.03.57-.06.85-.09l.03.03c-.44.26-.87.53-1.31.79Z"/>
      <path class="cls-4" d="M45.01,106.7c.34.08.69.17,1.03.25-.32.25-.65.51-.97.76-.02-.34-.04-.68-.07-1.01Z"/>
      <path class="cls-7" d="M37.99,81.81c.15-.13.29-.26.44-.39l-.41.42s-.03-.03-.03-.03Z"/>
      <polygon class="cls-6" points="97.01 27.79 96.91 27.94 97.05 27.83 97.01 27.79"/>
      <path class="cls-6" d="M55.97,104.87c.29-.31.57-.61.86-.92-.29.31-.57.61-.86.92Z"/>
      <path class="cls-10" d="M123,44.82c.14-.13.28-.27.42-.4-.13.14-.27.28-.4.42l-.02-.02Z"/>
      <path class="cls-6" d="M133.06,45.8c-.34.5-.68,1.01-1.02,1.51.34-.5.68-1.01,1.02-1.51Z"/>
      <path class="cls-4" d="M58.99,128.81c.18-.13.37-.15.58-.06,4.05,1.54.17,3.04-.03,4.56-.85.2-1.69.4-2.54.6-.11-.72-.23-1.44-.34-2.16l2.33-2.95Z"/>
      <path class="cls-6" d="M52.95,132.81c.69-.35,1.37-.69,2.06-1.04-.69.35-1.37.69-2.06,1.04Z"/>
      <path class="cls-7" d="M144.96,89.82c.37-4.1.64-8.22,1.2-12.3.13-.97,1.21-1.81,1.85-2.71-.34,4.25-.58,8.51-1.09,12.73-.1.82-1.28,1.52-1.96,2.27Z"/>
      <path class="cls-7" d="M140.94,101.83l1.08-3.01c1.66,1.73,1.07,2.65-1.08,3.01Z"/>
      <path class="cls-7" d="M133.95,113.86l1.02-2.12-1.02,2.12Z"/>
      <path class="cls-6" d="M124.99,66.85c.08-.61.17-1.22.25-1.83.94-.4,1.87-.81,2.81-1.21-1.02,1.01-2.04,2.03-3.06,3.04Z"/>
      <path class="cls-6" d="M129.04,62.8l-1.06,1.06,1.06-1.06Z"/>
      <path class="cls-10" d="M123.01,71.83c.34-.66.69-1.33,1.03-1.99.01.28.02.56.02.84-.35.38-.7.77-1.05,1.15Z"/>
      <path class="cls-9" d="M137.52,97.59c-2.34,1.54-3.69,3.14-4.89,3.03-1.28-.12-2.41-1.85-3.6-2.88,1.11-1.22,2.09-3.24,3.36-3.43,1.17-.18,2.64,1.59,5.13,3.29Z"/>
      <path class="cls-3" d="M96.56,134.36c2.48-2.51,4.95-5.01,7.43-7.52,0,0,.01.01.01.01-2.48,2.52-4.96,5.04-7.43,7.55v-.05Z"/>
      <path class="cls-6" d="M107.02,122.83c1.33-1.66,2.67-3.32,4-4.99l-.05-.05c-1.33,1.67-2.66,3.33-3.99,5l.05.04Z"/>
      <path class="cls-10" d="M115.01,78.83c1.33-1,2.67-2,4-3-1.33,1-2.67,2-4,3Z"/>
      <path class="cls-6" d="M105.04,125.86c.66-1.01,1.32-2.01,1.98-3.02,0,0-.05-.04-.05-.04-.66,1-1.32,2.01-1.98,3.01,0,0,.05.05.05.05Z"/>
      <path class="cls-10" d="M119,75.83c.67-1,1.34-2.01,2.01-3.01-.67,1-1.34,2.01-2.01,3.01Z"/>
      <path class="cls-10" d="M121,72.83c.67-.34,1.34-.67,2.01-1.01-.67.34-1.34.67-2.01,1.01Z"/>
      <path class="cls-6" d="M104.99,125.81c-.33.35-.67.7-1,1.05,0,0-.01-.01-.01-.01.35-.33.7-.66,1.06-.99,0,0-.05-.05-.05-.05Z"/>
      <path class="cls-5" d="M96.56,134.41v-.05s0,.05,0,.05Z"/>
      <path class="cls-6" d="M112.04,116.85c.14-.15.28-.29.42-.44-.04.08-.05.21-.11.25-.11.07-.25.09-.38.13,0,0,.07.06.07.06Z"/>
      <path class="cls-6" d="M111.02,117.85c.34-.33.68-.67,1.02-1,0,0-.07-.06-.07-.06-.33.34-.67.67-1,1.01,0,0,.05.05.05.05Z"/>
    </g>
  </g>
</svg>