<?xml version="1.0" encoding="UTF-8"?>
<svg id="Layer_2" xmlns="http://www.w3.org/2000/svg" viewBox="0 0 82.91 83.97">
  <defs>
    <style>
      .cls-1 {
        fill: #ee7e4e;
      }

      .cls-2 {
        fill: #14061c;
      }

      .cls-3 {
        fill: #3d2655;
      }

      .cls-4 {
        fill: #daaf79;
      }

      .cls-5 {
        fill: #ebbc84;
      }

      .cls-6 {
        fill: #65467f;
      }

      .cls-7 {
        fill: #241b1b;
      }

      .cls-8 {
        fill: #f5bb6e;
      }

      .cls-9 {
        fill: #8b7a7d;
      }

      .cls-10 {
        fill: #2b1b41;
      }

      .cls-11 {
        fill: #e7d39a;
      }

      .cls-12 {
        fill: #9c79a8;
      }

      .cls-13 {
        fill: #f99e54;
      }
    </style>
  </defs>
  <g id="Layer_1-2" data-name="Layer_1">
    <g>
      <path class="cls-7" d="M50.8,82.68c-16.74,4.26-34.49-2.29-43.9-16.19C-2.85,52.06-2.21,31.19,8.45,16.85,18.83,2.89,36.66-3.18,53.2,1.63c16.68,4.84,28.48,19.96,29.63,37.95,1.08,16.86-9.1,33.88-24.38,40.69-1.81.81-3.74,1.34-5.62,2.01-.67.14-1.35.27-2.02.41ZM11.57,65.51c.37.35.74.7,1.12,1.04h-.07c1.39.69,2.79,1.37,4.18,2.05,4.84.98,9.68,1.96,14.53,2.94,2.18.27,4.36.54,6.54.82.84,0,1.67,0,2.51,0,4.19.19,8.38.39,12.56.58,6.27-1.03,12.43-2.29,17.05-7.22.66-.8,1.33-1.6,1.99-2.4,0,0-.04.04-.04.04,1.97-3.81,3.95-7.61,5.92-11.42-.44-.25-.88-.51-1.32-.76-1,.76-2,1.53-2.99,2.29-.55.31-1.11.61-1.66.92-6.39,1.84-12.79,3.67-19.18,5.51-5.36.1-10.73.19-16.09.29-.01-.54-.03-1.08-.04-1.62l4.46.3c1.96-.08,3.92-.16,5.88-.23.93-.13,1.87-.27,2.8-.4,9.15-.38,17.52-3.19,25.19-8.16,1.41-1.65,2.82-3.29,4.23-4.94-.4-.36-.8-.71-1.2-1.07-1.02.66-2.04,1.32-3.06,1.98-7.35,2.31-14.7,4.63-22.06,6.94-16.86,1.77-32.96-1.1-48.35-8.42-.35.39-.69.77-1.04,1.16,1.15,1.86,2.31,3.71,3.46,5.57-.53.91-1.73,2.09-1.49,2.69,1.41,3.49,3.16,6.83,4.79,10.23l1.27,1.38.1-.08ZM61.57,72.63c-1.51.42-3.02.84-4.53,1.26-13.81,2.27-27.32.76-40.94-3.52,8.75,10.2,27.74,12.86,41.1,6.06,1.66-.94,3.31-1.88,4.97-2.82.33-.38.66-.76.99-1.15-.53.06-1.06.11-1.59.17ZM61.41,9.8s-.17-.05-.17-.05c-2.41-1.23-4.82-2.46-7.23-3.7h.03c-14.7-5.29-32.26-.58-40.06,11.03,1.66.52,3.21,1.01,4.76,1.51,13.12,4.29,26.22,4.71,39.28-.24,1.32-.52,2.63-1.04,3.95-1.56.97-.19,1.94-.38,2.91-.58-.31.68-.62,1.37-.94,2.05-6.39,1.7-12.77,3.41-19.16,5.11-9-1.02-17.99-2.03-26.99-3.05-1.61-.68-3.21-1.36-5.98-2.53-.36,2.56-.64,4.53-.92,6.5-3.72-.29-3.3,2.63-4.17,4.83,9.75,4.95,19.83,6.92,30.28,7.39-.4.32-.8.64-1.2.96-.97-.03-1.95-.07-2.92-.1-.3-.12-.61-.14-.93-.06-7.14-1.42-14.29-2.83-21.43-4.25-1.46-.79-2.91-1.57-4.98-2.69-.59,3.62-1.39,6.47-1.37,9.31,0,1.26,1.65,2.51,2.56,3.76l-.03-.05c.63.31,1.27.62,1.9.93,13.4,6.46,27.41,9.09,42.21,6.81,1.69-.23,3.38-.46,5.07-.68.65-.13,1.31-.25,1.97-.38.73-.13,1.46-.27,2.19-.4,5.31-2.21,10.61-4.42,15.92-6.63,3.51-2.68,3.55-7.14,0-13.92-.79.57-1.56,1.12-2.32,1.66-3.93,1.57-7.86,3.14-11.79,4.72-2.99.53-5.98,1.06-8.98,1.59-.02-.3-.04-.6-.04-.9.36-.33.73-.66,1.09-.99,7.19-.6,13.83-2.79,19.85-6.8,3.33-.85,1.25-2.91.67-4.18-.59-1.28-1-4.2-3.69-1.89-1.3.32-2.61.65-3.91.97.68-.69,1.36-1.39,2.04-2.08.63-.94,2.01-2.36,1.76-2.73-.68-1.05-1.94-1.86-3.14-2.38-.73-.32-1.77.08-2.67.16.64-.84,1.28-1.68,2.14-2.82-1.81-1.17-3.44-2.23-5.07-3.29-.07-.25-.23-.37-.49-.36ZM43.79,82.04c-.07-.13-.14-.26-.21-.39h-5.46c0,.13.01.26.02.39h5.65Z"/>
      <path class="cls-6" d="M50.8,82.68c.67-.14,1.35-.27,2.02-.41-.67.14-1.35.27-2.02.41Z"/>
      <path class="cls-8" d="M10.53,33.08c7.14,1.42,14.29,2.83,21.43,4.25.31.02.62.04.93.06.97.03,1.95.07,2.92.1,3.01.04,6.03.09,9.04.13,1.35-.07,2.69-.14,4.04-.21.01.2.06.4.15.59.59,4.39,1.19,8.77,1.78,13.16-14.81,2.28-28.82-.35-42.21-6.81-.63-.31-1.27-.62-1.9-.93,0,0,.03.05.03.05.05-1.93.21-3.87.11-5.8-.14-2.71.83-4.36,3.68-4.59Z"/>
      <path class="cls-13" d="M40.36,72.36c-.84,0-1.67,0-2.51,0-2.18-.27-4.36-.54-6.54-.82-4.84-.98-9.68-1.96-14.53-2.94-1.39-.68-2.79-1.36-4.18-2.04h.07c-.37-.36-.74-.7-1.12-1.05l-.1.08c.16-.45.32-.89.49-1.34,2.57.98,5.09,2.12,7.72,2.89,2.11.62,4.35.8,5.99,1.08-.68-3.21-1.17-5.56-1.67-7.92,8.96.65,17.92,1.29,26.88,1.94-.4,5.25-2.72,8.58-8.47,8.61-.21,0-.42.82-.63,1.25-.47.08-.94.17-1.41.25Z"/>
      <path class="cls-8" d="M53.91,35.21c-.36.33-.73.66-1.09.99-2.7.07-5.4.15-8.11.22-2.57.03-5.14.07-7.71.1-10.45-.47-20.53-2.44-30.28-7.39.88-2.19.45-5.12,4.17-4.83l-.05-.09c1.47.91,2.84,2.04,4.41,2.69,11.49,4.72,23.41,4.73,35.47,3.09,1.06,1.74,2.12,3.48,3.19,5.22Z"/>
      <path class="cls-4" d="M6.89,51.29c-1.15-1.86-2.31-3.71-3.46-5.57.35-.39.69-.77,1.04-1.16,15.39,7.32,31.49,10.19,48.35,8.42-.75.76-1.66,1.41-2.19,2.3-.51.86-.63,1.96-.92,2.95-.93.13-1.87.27-2.8.4-1.96.08-3.92.16-5.88.23l-4.46-.3c-.5-.06-1.01-.11-1.51-.17-2.3-.29-4.68-.32-6.9-.93-7.15-1.96-14.23-4.13-21.34-6.22l.07.03Z"/>
      <path class="cls-1" d="M41.77,72.11c.21-.44.42-1.25.63-1.25,5.75-.02,8.07-3.36,8.47-8.61.61-.78,1.22-1.57,1.82-2.35,6.39-1.84,12.79-3.67,19.18-5.51-.59,1.8-.84,3.83-1.84,5.37-4.04,6.26-10.57,8.99-17.16,11.55-3.7.27-7.4.53-11.1.8Z"/>
      <path class="cls-4" d="M17.79,20.33c9,1.02,17.99,2.03,26.99,3.05-.73,3.33,1.95,3.79,4.01,4.78-12.1,2.31-23.88,1.7-35.13-3.8,1.38-1.34,2.75-2.68,4.13-4.03Z"/>
      <path class="cls-4" d="M57.2,76.43c-13.37,6.8-32.36,4.14-41.1-6.06,13.62,4.28,27.13,5.8,40.94,3.52.05.85.11,1.69.16,2.54Z"/>
      <path class="cls-13" d="M50.81,51.15c-.59-4.39-1.19-8.77-1.78-13.16l.76-.69c1.02-.07,2.05-.13,3.07-.2,2.99-.53,5.98-1.06,8.98-1.59,1.55,5,4.52,10.18-1.8,14.18-.73.13-1.46.27-2.19.4-.66.13-1.31.25-1.97.38-1.69.23-3.38.46-5.07.68Z"/>
      <path class="cls-1" d="M60.04,49.69c6.32-4,3.35-9.18,1.8-14.18,3.93-1.57,7.86-3.14,11.79-4.72.78,4.09,1.55,8.17,2.33,12.26-5.31,2.21-10.61,4.42-15.92,6.63Z"/>
      <path class="cls-1" d="M53.91,35.21c-1.06-1.74-2.12-3.48-3.19-5.22,2.38-.62,4.88-.97,7.11-1.94,3.13-1.36,6.05-3.18,9.06-4.81l-.07.07c1.3-.32,2.61-.65,3.91-.97,1.01,2.03,2.01,4.05,3.02,6.08-6.02,4.01-12.66,6.21-19.85,6.8Z"/>
      <path class="cls-5" d="M58.01,18.36c-13.06,4.95-26.16,4.53-39.28.24-.6-2.09-1.88-4.53,2.14-4.33q1.08,3.53,3.94.49c-1.54-.19-2.75-.33-3.95-.48,2.64-4.71,7.33-5.33,11.99-6.01-.02.69-.04,1.38-.07,2.06-2.26-.03-3.93.3-1.91,3-1.58,1.33-3.16,2.65-5.09,4.27,1.07.66,1.83,1.53,2.62,1.55,6.87.17,13.76,1.87,20.61-.36,1.54-.5,3.27-.4,4.91-.58,1.36.05,2.72.1,4.08.15Z"/>
      <path class="cls-1" d="M48.79,28.16c-2.05-.99-4.74-1.46-4.01-4.78,6.39-1.7,12.77-3.41,19.16-5.11,1.64.98,3.29,1.97,4.93,2.95-.68.69-1.36,1.39-2.04,2.08l.07-.07c-6.04,1.64-12.08,3.28-18.11,4.92Z"/>
      <path class="cls-1" d="M49.71,58.24c.29-.99.41-2.09.92-2.95.53-.89,1.44-1.54,2.19-2.3,7.35-2.31,14.7-4.63,22.06-6.94,0,1.34.02,2.69.03,4.03-7.67,4.97-16.04,7.78-25.19,8.16Z"/>
      <path class="cls-11" d="M20.88,14.26c-4.02-.2-2.74,2.24-2.14,4.33-1.55-.49-3.1-.98-4.76-1.51C21.78,5.48,39.34.77,54.04,6.06c-3.09.1-6.17.2-9.26.3-.92.02-1.84.04-2.75.05-3.05.62-6.11,1.24-9.16,1.86-4.66.68-9.35,1.3-11.99,6.01h.01Z"/>
      <path class="cls-13" d="M58.01,18.36c-1.36-.05-2.72-.1-4.08-.15-1.09-2.2-1.83-4.69-3.35-6.53-1.49-1.8-3.76-2.96-5.69-4.4,4.81,1.58,9.72,2.91,14.36,4.9,1.32.57,1.83,3.03,2.72,4.62-1.32.52-2.63,1.04-3.95,1.56Z"/>
      <path class="cls-5" d="M52.87,71.32c6.59-2.56,13.13-5.29,17.16-11.55,1-1.54,1.25-3.57,1.84-5.37.55-.31,1.11-.61,1.66-.92-.54,3.3-1.07,6.59-1.61,9.89l.04-.04c-.66.8-1.33,1.6-1.99,2.4-4.62,4.92-10.79,6.19-17.05,7.22-.02-.54-.04-1.08-.05-1.62Z"/>
      <path class="cls-4" d="M52.7,59.9c-.61.78-1.22,1.57-1.82,2.35-8.96-.65-17.92-1.29-26.88-1.94-2.69-1.36-5.38-2.71-8.08-4.07,5.02,1.08,10.04,2.16,15.06,3.24.7.08,1.4.16,2.1.24.6.1,1.2.2,1.81.3.58.06,1.15.11,1.73.17,5.36-.1,10.73-.19,16.09-.29Z"/>
      <path class="cls-5" d="M61.97,16.79c-.88-1.59-1.39-4.06-2.72-4.62-4.63-1.98-9.55-3.32-14.36-4.9l-.03-.02c0-.3-.03-.6-.09-.9,3.09-.1,6.17-.2,9.26-.3h-.03c1.24,3.53,4.24,3.61,7.23,3.7l.17.05c-.05.28-.11.56-.16.83.22-.16.43-.32.65-.47,1.63,1.06,3.26,2.12,5.07,3.29-.86,1.13-1.5,1.97-2.14,2.82l.05-.05c-.97.19-1.94.38-2.91.58Z"/>
      <path class="cls-11" d="M75.96,43.05c-.78-4.09-1.55-8.17-2.33-12.26.76-.55,1.53-1.09,2.32-1.66,3.55,6.78,3.51,11.24,0,13.92Z"/>
      <path class="cls-11" d="M10.53,33.08c-2.85.23-3.82,1.88-3.68,4.59.1,1.93-.06,3.87-.11,5.8-.9-1.25-2.55-2.5-2.56-3.76-.01-2.85.78-5.7,1.37-9.31,2.07,1.12,3.52,1.9,4.98,2.69Z"/>
      <path class="cls-5" d="M10.19,64.22c-1.63-3.4-3.38-6.74-4.79-10.23-.24-.6.96-1.78,1.49-2.69l-.07-.03c.8.76,1.59,1.51,2.39,2.27.59,2.93,1.18,5.86,1.76,8.78-.03.6-.06,1.2-.09,1.81-.23.01-.46.05-.68.1Z"/>
      <path class="cls-11" d="M17.79,20.33c-1.38,1.34-2.75,2.68-4.13,4.03-.94-.05-1.88-.1-2.82-.14l.05.09c.28-1.97.55-3.94.92-6.5,2.76,1.17,4.37,1.85,5.98,2.53Z"/>
      <path class="cls-11" d="M71.93,63.36c.54-3.3,1.07-6.59,1.61-9.89,1-.76,2-1.53,2.99-2.29.44.25.88.51,1.32.76-1.97,3.81-3.95,7.61-5.92,11.42Z"/>
      <path class="cls-4" d="M68.88,21.22c-1.64-.98-3.29-1.97-4.93-2.95.31-.68.62-1.37.94-2.05l-.05.05c.9-.08,1.94-.48,2.67-.16,1.2.52,2.46,1.33,3.14,2.38.24.37-1.13,1.79-1.76,2.73Z"/>
      <path class="cls-11" d="M73.77,28.41c-1.01-2.03-2.01-4.05-3.02-6.08,2.69-2.31,3.1.61,3.69,1.89.58,1.27,2.66,3.33-.67,4.18Z"/>
      <path class="cls-3" d="M37,36.52c2.57-.03,5.14-.07,7.71-.1.04.4.08.8.13,1.2-3.01-.04-6.03-.09-9.04-.13.4-.32.8-.64,1.2-.96Z"/>
      <path class="cls-4" d="M52.87,71.32c.02.54.04,1.08.05,1.62-4.19-.19-8.38-.39-12.56-.58l1.41-.25c3.7-.27,7.4-.53,11.1-.8Z"/>
      <path class="cls-4" d="M74.9,50.08c0-1.34-.02-2.69-.03-4.03,1.02-.66,2.04-1.32,3.06-1.98.4.36.8.71,1.2,1.07-1.41,1.65-2.82,3.29-4.23,4.94Z"/>
      <path class="cls-11" d="M61.24,9.75c-3-.09-6-.16-7.23-3.7,2.41,1.23,4.82,2.46,7.23,3.7Z"/>
      <path class="cls-12" d="M57.2,76.43c-.05-.85-.11-1.69-.16-2.54,1.51-.42,3.02-.84,4.53-1.26.2.33.4.65.6.98-1.66.94-3.31,1.88-4.97,2.82Z"/>
      <path class="cls-2" d="M44.84,37.62c-.04-.4-.08-.8-.13-1.2,2.7-.07,5.4-.15,8.11-.22,0,.3.02.6.04.9-1.02.07-2.05.13-3.07.2-.32-.1-.62-.07-.91.11-1.35.07-2.69.14-4.04.21Z"/>
      <path class="cls-10" d="M43.79,82.04h-5.65c0-.13-.01-.26-.02-.39h5.46c.07.13.14.26.21.39Z"/>
      <path class="cls-4" d="M12.61,66.57c1.39.68,2.79,1.36,4.18,2.04-1.39-.68-2.79-1.36-4.18-2.04Z"/>
      <path class="cls-1" d="M31.31,71.54c2.18.27,4.36.54,6.54.82-2.18-.27-4.36-.54-6.54-.82Z"/>
      <path class="cls-9" d="M41.03,58.88c1.96-.08,3.92-.16,5.88-.23-1.96.08-3.92.16-5.88.23Z"/>
      <path class="cls-9" d="M36.61,60.19c-.58-.06-1.15-.11-1.73-.17.06-.54.12-1.08.18-1.62l1.51.17c.01.54.03,1.08.04,1.62Z"/>
      <path class="cls-11" d="M69.98,65.72c.66-.8,1.33-1.6,1.99-2.4-.66.8-1.33,1.6-1.99,2.4Z"/>
      <path class="cls-11" d="M6.7,43.41c.63.31,1.27.62,1.9.93-.63-.31-1.27-.62-1.9-.93Z"/>
      <path class="cls-12" d="M61.57,72.63c.53-.06,1.06-.11,1.59-.17-.33.38-.66.76-.99,1.15-.2-.33-.4-.65-.6-.98Z"/>
      <path class="cls-1" d="M55.88,50.47c.66-.13,1.31-.25,1.97-.38-.66.13-1.31.25-1.97.38Z"/>
      <path class="cls-4" d="M10.19,64.22c.22-.05.45-.09.68-.1.33.03.67.05,1,.08l.07.06c-.16.45-.32.89-.49,1.34l-1.27-1.38Z"/>
      <path class="cls-11" d="M61.91,10.16c-.22.16-.43.32-.65.47.05-.28.11-.56.16-.83.26-.02.43.1.49.36Z"/>
      <path class="cls-3" d="M32.88,37.38c-.31-.02-.62-.04-.93-.06.31-.08.62-.06.93.06Z"/>
      <path class="cls-4" d="M11.57,65.51c.37.35.74.7,1.12,1.04-.37-.35-.74-.7-1.12-1.04Z"/>
      <path class="cls-3" d="M48.88,37.41c.29-.17.59-.21.91-.11l-.76.69c-.09-.19-.14-.38-.15-.59Z"/>
      <path class="cls-8" d="M10.97,62.31c-.59-2.93-1.18-5.86-1.76-8.78,2.24.91,4.48,1.81,6.71,2.72,2.69,1.36,5.38,2.71,8.08,4.07.5,2.35.99,4.71,1.67,7.92-1.65-.28-3.89-.46-5.99-1.08-2.63-.77-5.15-1.91-7.72-2.89,0,0-.07-.06-.07-.06-.3-.63-.61-1.25-.91-1.88Z"/>
      <path class="cls-7" d="M10.84,24.22c.94.05,1.88.1,2.82.14,11.25,5.5,23.03,6.11,35.13,3.8,6.04-1.64,12.08-3.28,18.11-4.92-3.01,1.63-5.94,3.45-9.06,4.81-2.23.97-4.73,1.32-7.11,1.94-12.06,1.64-23.98,1.63-35.47-3.09-1.57-.65-2.95-1.78-4.41-2.69Z"/>
      <path class="cls-7" d="M15.92,56.24c-2.24-.91-4.48-1.81-6.71-2.72-.8-.76-1.59-1.51-2.39-2.27,7.11,2.09,14.2,4.26,21.34,6.22,2.22.61,4.6.64,6.9.93-.06.54-.12,1.08-.18,1.62-.6-.1-1.2-.2-1.81-.3-.7-.08-1.4-.16-2.1-.24-5.02-1.08-10.04-2.16-15.06-3.24Z"/>
      <path class="cls-8" d="M44.89,7.28c1.93,1.44,4.2,2.6,5.69,4.4,1.52,1.85,2.27,4.33,3.35,6.53-1.64.18-3.37.07-4.91.58-6.85,2.23-13.74.54-20.61.36-.79-.02-1.56-.89-2.62-1.55,1.93-1.62,3.51-2.95,5.09-4.27.66-.03,1.32-.06,1.98-.1.5.12,1,.24,1.5.36-.49-.44-.99-.87-1.48-1.31-.03-.65-.06-1.3-.1-1.95.02-.69.04-1.38.07-2.06,3.05-.62,6.11-1.24,9.16-1.86.95.28,1.89.57,2.84.85l.03.02Z"/>
      <path class="cls-11" d="M20.87,14.28c1.2.14,2.4.29,3.95.48q-2.86,3.04-3.94-.49h-.01Z"/>
      <path class="cls-11" d="M32.8,10.33c.03.65.06,1.3.1,1.95-.02.32-.03.63-.03.95-.66.03-1.32.06-1.98.1-2.02-2.69-.34-3.03,1.91-3Z"/>
      <path class="cls-13" d="M44.86,7.26c-.95-.28-1.89-.57-2.84-.85.92-.02,1.84-.04,2.75-.05.06.3.09.6.09.9Z"/>
      <path class="cls-9" d="M30.98,59.48c.7.08,1.4.16,2.1.24-.7-.08-1.4-.16-2.1-.24Z"/>
      <path class="cls-13" d="M10.97,62.31c.3.63.61,1.25.91,1.88-.33-.03-.67-.05-1-.08.03-.6.06-1.2.09-1.81Z"/>
      <path class="cls-5" d="M32.87,13.23c0-.32,0-.63.03-.95.49.44.99.87,1.48,1.31-.5-.12-1-.24-1.5-.36Z"/>
    </g>
  </g>
</svg>