<?xml version="1.0" encoding="UTF-8"?>
<svg id="Layer_2" xmlns="http://www.w3.org/2000/svg" viewBox="0 0 149.83 103.71">
  <defs>
    <style>
      .cls-1 {
        fill: #82629a;
      }

      .cls-2 {
        fill: #14061c;
      }

      .cls-3 {
        fill: #3d2655;
      }

      .cls-4 {
        fill: #daaf79;
      }

      .cls-5 {
        fill: #65467f;
      }

      .cls-6 {
        fill: #241b1b;
      }

      .cls-7 {
        fill: #cacadf;
      }

      .cls-8 {
        fill: #aa91ba;
      }

      .cls-9 {
        fill: #f5bb6e;
      }

      .cls-10 {
        fill: #8b7a7d;
      }

      .cls-11 {
        fill: #2b1b41;
      }

      .cls-12 {
        fill: #9c79a8;
      }

      .cls-13 {
        fill: #afbbd0;
      }
    </style>
  </defs>
  <g id="Layer_1-2" data-name="Layer_1">
    <g>
      <path class="cls-6" d="M67.9,0c1.67,0,3.34,0,5.02,0,2.18,3.67,5.14,1.89,7.96,1.13,9.21,1.9,17.12,6.24,23.54,13.09,1.92,2.04,3.46,2.66,6.42,1.95,10.02-2.39,20.11-4.78,30.56-2.41,7.05,1.6,10.11,6.11,7.55,12.8-1.51,3.94-3.85,7.86-6.75,10.9-5.84,6.12-12.38,11.56-18.46,17.46-1.26,1.22-2.4,3.15-2.55,4.85-3,33.33-40.66,54.18-70.48,38.79-2.96-1.53-5.36-1.49-8.42-.76-7.91,1.87-15.89,3.53-23.93,4.73-3.53.53-7.36.21-10.87-.55-5.79-1.26-8.99-5.73-6.76-11.18,2.84-6.95,7.11-13.38,11.28-19.69,2.06-3.11,5.31-5.43,8.02-8.11.45,1.33.89,2.66,1.34,3.99-5,6.53-10.31,12.84-14.88,19.65-3.21,4.78-2.42,7.53,1.45,11.31.78.66,1.53,1.86,2.33,1.9,4.3.18,8.62.27,12.9-.06,1.56-.12,3.03-1.47,4.54-2.26l.09.24c5.67-.57,11.69,0,16.11-4.77,23.41-8.35,45.46-19.43,65.93-33.54,10.65-7.34,21.14-14.94,29.3-25.21v-.04c.31-.39.63-.78.95-1.16,0,0-.03.05-.03.05l1.26-1.85s-.33,0-.33,0l.33.04c.53-.78,1.07-1.56,1.6-2.34h0c1.98-2.49,3.5-5.06,1.41-8.24l.02-.11c-1.81-1.01-3.54-2.66-5.46-2.92-9.55-1.33-18.78.36-27.72,3.78-.11.04-.05.57-.12,1.85,4.1-.84,7.96-2.01,11.88-2.33,4.25-.34,8.57.11,12.86.22.82,1.6,1.65,3.2,2.47,4.8-.32,1.1-.64,2.21-.96,3.31l-.03.04c-3.13,3.22-6.26,6.43-9.39,9.65.48-.86.96-1.72,1.44-2.57v-.06c.47-.48.93-.96,1.39-1.43.25-.06.39-.22.42-.47,1.5-2.11,3.23-4.1,4.43-6.37,1.04-1.96,1.29-4.17-1.63-5.1l-3.05-.78c-1.63.01-3.25.03-4.88.04-1.38.24-2.75.47-4.13.71-2.94.67-5.87,1.34-8.81,2.01.04.49.09.98.13,1.47,2.71,2.16,5.89-.29,8.78.16.65.11,1.3.23,1.95.34.19.31.47.46.84.44.12.27.31.47.58.6.01.37.2.56.57.57.28.45.57.9.85,1.35-.06.1-.19.21-.16.28.06.2.18.39.27.58.02.4.04.79.07,1.19-.14.46-.28.91-.42,1.37-4.28,4.39-8.12,9.34-12.91,13.07-23.6,18.36-49.62,32.13-78.64,39.88-.72.11-1.44.21-2.16.32-4.08.42-8.23,1.33-11.83-1.68h0c-1.3-4.03.74-7.01,2.95-10.05.83-1.15,1.14-2.68,1.69-4.04-.61-.33-1.23-.66-1.84-.99-2.35,3.25-4.71,6.5-7.06,9.75,0,0-.09.01-.09.01-4.99,5.26-5.4,8.8-1.38,11.99l.41.09c3.77.17,7.54.34,11.31.51.03.36.06.71.1,1.07-3.42.24-6.88.93-10.25.61-5.12-.48-7.19-4.01-5.39-8.86.96-2.59,2.44-5.07,4.08-7.31,2.71-3.7,5.75-7.16,8.64-10.73,1.36.35,2.73.69,4.09,1.04,1.87,3.45,3.76,6.89,5.59,10.37,1.81,3.44,4.21,4.34,7.49,1.93.84-.18,1.68-.36,2.52-.55,15.26-4.94,29.64-11.85,43.35-20.06,7.51-4.5,14.51-9.84,21.74-14.8,2.28-1.6,6.02-2.26,4.58-6.41-3.63-10.48-8.62-20.04-18.34-26.28-5.36-4.22-11.39-6.79-18.23-7.34-6.07.26-12.4-.5-18.15.99-15.89,4.11-25.46,15.37-31.2,30.27-.79.3-1.59.6-2.16.82-.13-1.72-.25-3.33-.37-4.94C31.48,15.25,43.25,4.7,60.92.99c2.55,1.24,5.07,2.34,6.98-.98ZM66.86,88.89c-3.32,1.37-6.63,2.74-9.95,4.11-1.31.41-2.62.82-5.06,1.58,16.42,7.58,31.17,6.15,45.04-2.66,11.87-7.53,19.98-21.55,18.29-30.72-1.96,1.74-3.63,3.23-5.3,4.72-13.02,7.08-26.04,14.15-39.06,21.23-1.32.58-2.65,1.16-3.97,1.74ZM28.06,76.21c-.52-.07-1.03-.14-1.55-.21-.74,2.18-1.47,4.36-2.21,6.54,2.35.52,4.7,1.04,7.05,1.57.18-.41.35-.81.53-1.22-1.27-2.22-2.54-4.45-3.82-6.67ZM117.65,37.37c.47.12.95.24,1.42.36l3.44-6.73c-2.19-.22-4.39-.44-7.31-.73,1.11,3.21,1.78,5.15,2.45,7.1ZM65.98,101.23c0,.11,0,.23.01.34h10.65c0-.11-.01-.23-.02-.34h-10.64Z"/>
      <path class="cls-2" d="M25.04,31.97c.12,1.61.24,3.23.37,4.94.58-.22,1.37-.52,2.16-.82-3.2,10.7-2.48,21.32.64,31.89-1.36-.35-2.73-.69-4.09-1.04-.93.01-1.85.02-2.78.04-.45-1.33-.89-2.66-1.34-3.99.59-2.09,1.71-4.18,1.67-6.26-.14-8.45-.11-16.82,3.36-24.76ZM23.64,46.98c-.15,0-.31,0-.46,0v6.96c.15,0,.31,0,.46,0v-6.96Z"/>
      <path class="cls-2" d="M67.9,0c-1.9,3.32-4.43,2.22-6.98.98,2.33-.33,4.65-.65,6.98-.98Z"/>
      <path class="cls-2" d="M80.88,1.13c-2.81.76-5.77,2.55-7.96-1.13,2.65.38,5.3.75,7.96,1.13Z"/>
      <path class="cls-1" d="M43.82,79.73c-.84.18-1.68.36-2.52.55-2.31-3.81-5.43-7.36-6.75-11.48-2.13-6.65-4.03-13.66-4.22-20.56-.16-5.73,2.28-11.53,3.57-17.29,1.27.14,2.6.56,3.81.34.83-.15,1.5-1.18,2.24-1.82.44-.14.87-.29,1.31-.43,1.08-.72,2.17-1.43,3.23-2.17,5.29-3.68,10.57-7.37,15.86-11.06.5-.48,1.01-.95,1.51-1.43-.54-.44-1.08-.87-1.62-1.31-1.6.38-3.36.45-4.76,1.2-4.61,2.45-9.09,5.15-13.61,7.76,1.05-2.03,1.59-4.8,3.24-5.98,9.2-6.57,19.36-9.75,30.77-7.12,1.67.67,3.35,1.35,5.02,2.02,1.69,2.93,3.38,5.86,5.07,8.79-5.23,4.44-10.45,8.88-15.68,13.31.3.35.59.71.89,1.06,6.46-2.52,12.03-6.25,15.93-12.27,4.3,2.82,5.27,6.47,2.17,10.23-2.17,2.63-4.99,4.74-7.58,7-2.23,1.94-4.56,3.77-6.84,5.65.28.45.57.89.85,1.34,1.41-.57,3-.9,4.2-1.76,4.28-3.06,8.45-6.28,12.62-9.49,1.73-1.33,3.4-3.48,4.66.37-.15.93-.29,1.86-.44,2.78-3.99,3.59-7.97,7.17-11.96,10.76.3.44.6.89.9,1.33,2.24-.56,4.48-1.13,6.72-1.69.22.34.43.69.65,1.03-2.06,1.7-3.98,3.59-6.19,5.06-11.63,7.71-24.14,13.61-37.45,17.83-3.6,1.14-6.33,3.04-5.6,7.48ZM35.53,42.83c1.07-.41,2.14-.81,3.2-1.22-.95-.55-1.9-1.1-2.85-1.65-.64.5-1.29,1.01-1.93,1.51.53.45,1.05.91,1.58,1.36ZM50.37,40.9c1.65,0,3.33.19,4.94-.08,3.04-.51,5.25-3.92,4.48-6.6-.71-2.5-4.12-3.81-6.96-2.72-3.05,1.17-4.33,3.38-4,6.58-.55.93-1.11,1.86-1.66,2.79,1.07,0,2.13.02,3.2.03ZM58.93,62.99c-.26-.69-.52-1.37-.79-2.06-5.74.99-9.77,5.65-15.09,7.54l.57,1.26c5.1-2.25,10.21-4.5,15.31-6.75ZM61.65,38.57c.52.47,1.04.93,1.55,1.4,1.17-1.36,2.35-2.73,3.52-4.09-.43-.37-.86-.74-1.29-1.1-1.26,1.26-2.52,2.53-3.79,3.79ZM34.74,35.89c.57.29,1.15.58,1.72.87.45-.97.94-1.92,1.28-2.92.03-.08-1.37-.79-1.41-.73-.6.88-1.08,1.84-1.59,2.79ZM69.14,58.13c-.51-.85-.72-1.64-1.15-1.79-.47-.17-1.15.25-1.73.41.27.66.4,1.44.86,1.91.2.2,1.06-.26,2.03-.53ZM35.91,48.45c-.81.76-1.61,1.33-1.54,1.48.3.62.83,1.16,1.36,1.62.08.07.98-.49.96-.72-.06-.65-.39-1.28-.79-2.38ZM61.75,27.81c.43-.52.91-.85.92-1.2,0-.34-.46-.7-.71-1.05-.33.3-.87.55-.93.9-.06.33.38.75.73,1.35Z"/>
      <path class="cls-5" d="M85.97,19.71c-1.69-2.93-3.38-5.86-5.07-8.79,4.34,1.99,8.69,3.98,13.03,5.97.96.85,2.01,1.61,2.87,2.56,6.58,7.25,10.91,15.59,12.11,25.42-7.23,4.96-14.24,10.3-21.74,14.8-13.71,8.21-28.09,15.12-43.35,20.06-.73-4.44,2-6.33,5.6-7.48,13.3-4.22,25.82-10.12,37.45-17.83,2.21-1.46,4.13-3.36,6.19-5.06-.22-.34-.43-.69-.65-1.03-2.24.56-4.48,1.13-6.72,1.69-.3-.44-.6-.89-.9-1.33,3.99-3.59,7.97-7.17,11.96-10.76,1.37-.24,2.73-.47,4.1-.71,0-.54-.01-1.09-.02-1.63-1.21-.15-2.43-.29-3.64-.44-1.26-3.85-2.93-1.7-4.66-.37-4.17,3.22-8.34,6.43-12.62,9.49-1.2.86-2.79,1.19-4.2,1.76-.28-.45-.57-.89-.85-1.34,2.28-1.88,4.61-3.71,6.84-5.65,2.6-2.26,5.41-4.37,7.58-7,3.11-3.76,2.14-7.41-2.17-10.23-.38-.7-.76-1.41-1.14-2.11Z"/>
      <path class="cls-4" d="M21.35,66.98c.93-.01,1.85-.02,2.78-.04-2.9,3.56-5.93,7.03-8.64,10.73-1.64,2.24-3.12,4.72-4.08,7.31-1.8,4.85.27,8.38,5.39,8.86,3.37.31,6.83-.37,10.25-.61,1.27-.17,2.55-.34,3.82-.51,1.93-.44,3.9-.75,5.8-1.33,29.93-9.08,56.6-24.39,81.56-42.91.78-.58,1.15-1.7,1.71-2.57l-.06.06c1.36-1.01,2.72-2.03,4.07-3.04l-.06.05c1.35-1.36,2.7-2.71,4.05-4.07l-.06.08c3.13-3.22,6.26-6.43,9.39-9.65.62,1.64,1.25,3.27,1.87,4.91-8.16,10.27-18.66,17.87-29.3,25.21-20.46,14.11-42.51,25.19-65.93,33.54-5.37,1.59-10.74,3.18-16.11,4.77,0,0-.09-.24-.09-.24-6.59.14-13.19.28-19.78.42-3.87-3.79-4.66-6.54-1.45-11.31,4.57-6.81,9.88-13.12,14.88-19.65Z"/>
      <path class="cls-8" d="M33.9,30.94c-1.29,5.77-3.73,11.57-3.57,17.29.19,6.91,2.09,13.91,4.22,20.56,1.32,4.12,4.44,7.67,6.75,11.48-3.28,2.41-5.68,1.52-7.49-1.93-1.82-3.48-3.72-6.91-5.59-10.37-3.12-10.57-3.84-21.19-.64-31.89,5.74-14.91,15.31-26.16,31.2-30.27,5.75-1.49,12.08-.72,18.15-.99-.35,1.35-.7,2.71-1.05,4.06-11.41-2.63-21.57.55-30.77,7.12-1.66,1.19-2.19,3.95-3.24,5.98.03.57.06,1.13.09,1.7-.34.42-.69.84-1.03,1.26,0,0,0,0,0,0-.88.39-1.75.78-2.63,1.16-.32-.49-.64-.98-.97-1.46-.79,1.09-1.58,2.19-2.37,3.28-.35,1-.71,2-1.06,3Z"/>
      <path class="cls-5" d="M56.91,92.99c3.32-1.37,6.63-2.74,9.95-4.11.22.43.34.97.68,1.26.97.81,2.03,1.52,3.05,2.27.12-1.28.26-2.55.34-3.83.03-.47-.07-.96-.11-1.44,13.02-7.08,26.04-14.15,39.06-21.23-.41,1.57-.56,3.28-1.27,4.69-7.94,15.68-21.33,23.04-38.34,24.17-4.4.29-9.31,1.68-13.36-1.78ZM100.92,74.96c-.13.44-.25.87-.38,1.31.12-.44.24-.88.36-1.33.09-.13.17-.27.26-.4-.08.14-.16.28-.23.42ZM96.77,80.49c-.28-.52-.57-1.05-.85-1.57-3.63,2.21-7.26,4.42-10.88,6.63.28.48.57.96.85,1.44,3.63-2.16,7.25-4.33,10.88-6.49Z"/>
      <path class="cls-12" d="M56.91,92.99c4.05,3.47,8.96,2.08,13.36,1.78,17.01-1.13,30.4-8.49,38.34-24.17.72-1.42.86-3.12,1.27-4.69,1.67-1.49,3.34-2.97,5.3-4.72,1.69,9.17-6.42,23.19-18.29,30.72-13.87,8.8-28.62,10.23-45.04,2.66,2.44-.76,3.75-1.17,5.06-1.58Z"/>
      <path class="cls-4" d="M129.31,36.41c-.48.86-.96,1.72-1.44,2.57,0,0,.06-.08.06-.08-1.35,1.36-2.7,2.71-4.05,4.07l.06-.05c-1.36,1.01-2.72,2.03-4.07,3.04l.06-.06c-.73.29-1.54.46-2.19.88-13.29,8.5-26.29,17.49-39.9,25.44-13.64,7.97-28.07,14.43-43.58,18.11-1.16-1.6,3.72-2.18.69-4.09,29.02-7.75,55.04-21.52,78.64-39.88,4.79-3.73,8.63-8.68,12.91-13.07.93,1.04,1.87,2.08,2.8,3.12Z"/>
      <path class="cls-8" d="M108.92,44.87c-1.2-9.83-5.53-18.17-12.11-25.42-.86-.94-1.91-1.71-2.87-2.56.41-1.57.82-3.14,1.22-4.71,9.72,6.24,14.71,15.8,18.34,26.28,1.44,4.15-2.31,4.8-4.58,6.41Z"/>
      <path class="cls-12" d="M95.16,12.18c-.41,1.57-.82,3.14-1.22,4.71-4.34-1.99-8.69-3.98-13.03-5.97-1.67-.67-3.35-1.35-5.02-2.02.35-1.35.7-2.71,1.05-4.06,6.84.56,12.87,3.13,18.23,7.34Z"/>
      <path class="cls-9" d="M129.31,36.41c-.93-1.04-1.87-2.08-2.8-3.12.14-.46.28-.91.42-1.37l.25-2.01-.43-.04c-.28-.45-.57-.9-.85-1.35-.01-.37-.2-.56-.57-.57-.27-.13-.46-.33-.58-.6-.28-.15-.56-.3-.84-.44-.65-.11-1.3-.23-1.95-.34-.03-1.21-.06-2.43-.09-3.64,1.38-.24,2.75-.47,4.13-.71,1.63-.01,3.25-.03,4.88-.04l3.05.78c-.56,2.83.4,6.09-2.74,8.19-.52.35-.07,2.15-.06,3.28-.03.26-.17.41-.42.47-.46.48-.92.96-1.39,1.43v.06Z"/>
      <path class="cls-4" d="M135.77,21.18c-4.29-.11-8.61-.56-12.86-.22-3.93.32-7.78,1.49-11.88,2.33.07-1.29,0-1.81.12-1.85,8.95-3.41,18.18-5.11,27.72-3.78,1.92.27,3.64,1.91,5.46,2.92-1.52-.39-3.07-.71-4.57-1.2-1.93-.63-3.55-.78-3.99,1.79Z"/>
      <path class="cls-9" d="M34.95,86.25c3.03,1.91-1.85,2.49-.69,4.09l-.12-.06c-.72.18-1.45.36-2.17.54-.34.06-.67.12-1.01.18-5.11.22-10.22.43-15.32.65l-.41-.09v-8.37c2.67.79,4.2,1.25,5.74,1.71h0c2.46,5,8.3,5.82,11.83,1.68.72-.11,1.44-.21,2.16-.32Z"/>
      <path class="cls-4" d="M20.97,84.89c-1.54-.46-3.07-.91-5.74-1.71v8.37c-4.01-3.19-3.61-6.73,1.38-11.99.43.65.87,1.31,1.3,1.96.22-.21.43-.42.65-.62-.62-.45-1.24-.9-1.85-1.35,2.35-3.25,4.71-6.5,7.06-9.75.61.33,1.23.66,1.84.99-.55,1.36-.86,2.89-1.69,4.04-2.2,3.04-4.25,6.02-2.95,10.05Z"/>
      <path class="cls-9" d="M135.77,21.18c.45-2.58,2.06-2.43,3.99-1.79,1.49.49,3.04.81,4.57,1.2l-.02.11c-.47,2.75-.94,5.5-1.41,8.24h0c-.53.78-1.07,1.56-1.6,2.34l-.33-.04s.33,0,.33,0l-1.26,1.85s.03-.05.03-.05c-.32.39-.64.78-.96,1.16v.04c-.61-1.64-1.23-3.27-1.86-4.91l.03-.04c.32-1.1.64-2.21.96-3.31-.82-1.6-1.65-3.2-2.47-4.8Z"/>
      <path class="cls-4" d="M121.86,22.94c.03,1.21.06,2.43.09,3.64-2.89-.45-6.06,2-8.78-.16-.04-.49-.09-.98-.13-1.47,2.94-.67,5.87-1.34,8.81-2.01Z"/>
      <path class="cls-2" d="M7.92,97.94c6.59-.14,13.19-.28,19.78-.42-1.51.79-2.98,2.14-4.54,2.26-4.28.33-8.6.23-12.9.06-.8-.03-1.56-1.23-2.33-1.9Z"/>
      <path class="cls-4" d="M131.12,34.45c0-1.13-.46-2.93.06-3.28,3.14-2.1,2.18-5.37,2.74-8.19,2.92.93,2.67,3.14,1.63,5.1-1.2,2.27-2.93,4.26-4.43,6.37Z"/>
      <path class="cls-4" d="M15.64,91.65c5.11-.22,10.22-.43,15.32-.65v-.03c-.31.15-.62.29-.93.44-1.03.25-2.06.49-3.08.74-3.77-.17-7.54-.34-11.31-.51Z"/>
      <path class="cls-2" d="M27.79,97.76c5.37-1.59,10.74-3.18,16.11-4.77-4.43,4.78-10.44,4.2-16.11,4.77Z"/>
      <path class="cls-4" d="M32.8,86.57c-3.53,4.15-9.37,3.32-11.83-1.68,3.6,3.01,7.75,2.09,11.83,1.68Z"/>
      <path class="cls-1" d="M70.83,87.14c.04.48.14.96.11,1.44-.08,1.28-.22,2.56-.34,3.83-1.02-.75-2.08-1.46-3.05-2.27-.34-.29-.46-.83-.68-1.26,1.32-.58,2.65-1.16,3.97-1.74Z"/>
      <path class="cls-11" d="M65.98,101.23h10.64c0,.11.01.23.02.34h-10.65c0-.11,0-.23-.01-.34Z"/>
      <path class="cls-4" d="M142.9,28.94c.47-2.75.94-5.5,1.41-8.24,2.1,3.19.57,5.75-1.41,8.24Z"/>
      <path class="cls-4" d="M130.87,22.19c-1.63.01-3.25.03-4.88.04,1.63-.01,3.25-.03,4.88-.04Z"/>
      <path class="cls-4" d="M141.3,31.28c.53-.78,1.07-1.56,1.6-2.34-.53.78-1.07,1.56-1.6,2.34Z"/>
      <path class="cls-2" d="M26.95,92.16c1.03-.25,2.06-.49,3.08-.74.23.12.47.22.72.31.02.33.06.66.12.99-1.27.17-2.55.34-3.82.51-.03-.36-.06-.71-.09-1.07Z"/>
      <path class="cls-9" d="M16.7,79.56c.62.45,1.24.9,1.85,1.35-.22.21-.43.42-.65.62-.43-.65-.87-1.31-1.3-1.96,0,0,.09-.01.09-.01Z"/>
      <path class="cls-4" d="M138.25,25.99c-.32,1.1-.64,2.21-.96,3.31.32-1.1.64-2.21.96-3.31Z"/>
      <path class="cls-4" d="M129.31,36.35c.46-.48.92-.96,1.39-1.43-.46.48-.92.96-1.39,1.43Z"/>
      <path class="cls-4" d="M140.04,33.09l1.26-1.85-1.26,1.85Z"/>
      <path class="cls-4" d="M127.17,29.92c-.08.67-.17,1.34-.25,2.01-.02-.4-.04-.79-.07-1.19.14-.26.24-.53.32-.82Z"/>
      <path class="cls-4" d="M139.12,34.21c.32-.39.64-.78.96-1.16-.32.39-.64.78-.96,1.16Z"/>
      <path class="cls-10" d="M127.17,29.92c-.07.29-.18.56-.32.82-.1-.19-.22-.38-.27-.58-.02-.07.11-.19.16-.28l.43.04Z"/>
      <path class="cls-4" d="M123.9,26.92c.28.15.56.3.84.44-.37.02-.65-.13-.84-.44Z"/>
      <path class="cls-10" d="M125.33,27.96c.37.01.56.2.57.57-.37,0-.56-.2-.57-.57Z"/>
      <path class="cls-11" d="M23.64,46.98v6.96c-.15,0-.31,0-.46,0v-6.96c.15,0,.31,0,.46,0Z"/>
      <path class="cls-12" d="M41.95,23.7c-.03-.57-.06-1.13-.09-1.7,4.53-2.6,9.01-5.3,13.61-7.76,1.4-.75,3.17-.82,4.76-1.2.03.91.07,1.83.1,2.74-5.29,3.69-10.57,7.38-15.86,11.06-1.07.74-2.15,1.45-3.23,2.17-.11-1.36-.22-2.71-.33-4.07h0c.34-.41.69-.83,1.03-1.25Z"/>
      <path class="cls-12" d="M48.84,38.08c-.33-3.2.95-5.41,4-6.58,2.83-1.09,6.25.23,6.96,2.72.76,2.68-1.44,6.09-4.48,6.6-1.61.27-3.29.07-4.94.08-.51-.94-1.02-1.88-1.54-2.82Z"/>
      <path class="cls-12" d="M85.97,19.71c.38.7.76,1.41,1.14,2.11-3.91,6.02-9.48,9.75-15.93,12.27-.3-.35-.59-.71-.89-1.06,5.23-4.44,10.45-8.88,15.68-13.31Z"/>
      <path class="cls-8" d="M58.93,62.99c-5.1,2.25-10.21,4.5-15.31,6.75l-.57-1.26c5.32-1.89,9.35-6.55,15.09-7.54.26.69.52,1.37.79,2.06Z"/>
      <path class="cls-12" d="M33.9,30.94c.35-1,.71-2,1.06-3,.97-.34,1.94-.67,2.92-1.01.69.84,1.38,1.68,2.07,2.53-.74.64-1.41,1.67-2.24,1.82-1.21.22-2.53-.19-3.81-.34Z"/>
      <path class="cls-12" d="M61.65,38.57c1.26-1.26,2.52-2.53,3.79-3.79.43.37.86.74,1.29,1.1-1.17,1.36-2.35,2.73-3.52,4.09-.52-.47-1.04-.93-1.55-1.4Z"/>
      <path class="cls-3" d="M97.18,35.16c1.21.15,2.43.29,3.64.44,0,.54.01,1.09.02,1.63-1.37.24-2.73.47-4.1.71.15-.93.29-1.86.44-2.78Z"/>
      <path class="cls-3" d="M48.84,38.08c.51.94,1.02,1.88,1.54,2.82-1.07,0-2.13-.02-3.2-.03.55-.93,1.11-1.86,1.66-2.79Z"/>
      <path class="cls-7" d="M34.74,35.89c.51-.94.99-1.9,1.59-2.79.04-.06,1.44.65,1.41.73-.34,1-.83,1.96-1.28,2.92-.57-.29-1.15-.58-1.72-.87Z"/>
      <path class="cls-7" d="M39.95,29.46c-.69-.84-1.38-1.68-2.07-2.53.13-.28.27-.55.42-.81.88-.39,1.75-.78,2.63-1.16.11,1.36.22,2.71.33,4.07-.44.14-.87.29-1.31.43Z"/>
      <path class="cls-5" d="M35.89,39.96c.95.55,1.9,1.1,2.85,1.65-1.07.41-2.14.81-3.2,1.22.12-.96.24-1.91.36-2.87Z"/>
      <path class="cls-5" d="M69.14,58.13c-.96.27-1.83.73-2.03.53-.46-.47-.59-1.25-.86-1.91.59-.16,1.26-.58,1.73-.41.43.15.63.94,1.15,1.79Z"/>
      <path class="cls-8" d="M35.91,48.45c.39,1.11.73,1.73.79,2.38.02.22-.88.78-.96.72-.54-.46-1.06-1-1.36-1.62-.07-.15.73-.72,1.54-1.48Z"/>
      <path class="cls-13" d="M35.89,39.96c-.12.96-.24,1.91-.36,2.87l-1.58-1.36c.64-.5,1.29-1.01,1.93-1.51Z"/>
      <path class="cls-3" d="M60.35,15.79c-.03-.91-.07-1.83-.1-2.74.54.44,1.08.87,1.62,1.31-.5.48-1.01.95-1.51,1.43Z"/>
      <path class="cls-3" d="M61.75,27.81c-.35-.6-.79-1.02-.73-1.35.06-.34.6-.6.93-.9.26.35.72.71.71,1.05,0,.34-.49.67-.92,1.2Z"/>
      <path class="cls-6" d="M30.87,92.72c-.06-.33-.1-.66-.12-.99,0-.27.07-.52.21-.75v.03c.33-.06.67-.12,1-.18.72-.18,1.45-.36,2.17-.54l.12.06c15.51-3.68,29.94-10.14,43.58-18.11,13.61-7.95,26.61-16.93,39.9-25.44.65-.42,1.46-.59,2.19-.88-.56.87-.93,1.99-1.71,2.57-24.96,18.52-51.63,33.83-81.56,42.91-1.89.57-3.86.89-5.8,1.33Z"/>
      <path class="cls-6" d="M123.89,42.98c1.35-1.36,2.7-2.71,4.05-4.07-1.35,1.36-2.7,2.71-4.05,4.07Z"/>
      <path class="cls-6" d="M119.87,45.97c1.36-1.01,2.72-2.03,4.07-3.04-1.36,1.01-2.72,2.03-4.07,3.04Z"/>
      <path class="cls-1" d="M38.3,26.12c-.15.26-.3.53-.42.81-.97.34-1.94.67-2.92,1.01.79-1.09,1.58-2.19,2.37-3.28.32.49.64.98.97,1.46Z"/>
      <path class="cls-7" d="M41.95,23.7c-.34.42-.69.84-1.03,1.26.34-.42.69-.84,1.03-1.26Z"/>
      <path class="cls-1" d="M96.77,80.49c-3.63,2.16-7.25,4.33-10.88,6.49-.28-.48-.57-.96-.85-1.44,3.63-2.21,7.26-4.42,10.88-6.63.28.52.57,1.05.85,1.57Z"/>
      <path class="cls-1" d="M100.9,74.94c-.12.44-.24.88-.36,1.33.13-.44.25-.87.38-1.31l-.02-.02Z"/>
      <path class="cls-1" d="M100.92,74.96c.08-.14.16-.28.23-.42-.09.13-.17.27-.26.4,0,0,.02.02.02.02Z"/>
      <path class="cls-4" d="M34.14,90.28c-.72.18-1.45.36-2.17.54.72-.18,1.45-.36,2.17-.54Z"/>
      <path class="cls-9" d="M30.97,90.97c-.14.23-.22.48-.21.75-.24-.09-.48-.2-.72-.31.31-.15.62-.29.93-.44Z"/>
    </g>
  </g>
</svg>