<?xml version="1.0" encoding="UTF-8"?>
<svg id="Layer_2" xmlns="http://www.w3.org/2000/svg" viewBox="0 0 736 1106">
  <defs>
    <style>
      .cls-1 {
        fill: #aaa;
      }

      .cls-2 {
        fill: #c9c9c9;
      }

      .cls-3 {
        fill: #3b3b3b;
      }

      .cls-4 {
        fill: #7f7f7f;
      }

      .cls-5 {
        fill: #252525;
      }

      .cls-6 {
        fill: #4a4a4a;
      }

      .cls-7 {
        fill: #bdbdbd;
      }

      .cls-8 {
        fill: #454545;
      }

      .cls-9 {
        fill: #dadada;
      }

      .cls-10 {
        fill: #0f0f0f;
      }

      .cls-11 {
        fill: #484848;
      }

      .cls-12 {
        fill: #313131;
      }

      .cls-13 {
        fill: #a2a2a2;
      }

      .cls-14 {
        fill: #d9d9d9;
      }

      .cls-15 {
        fill: #2b2b2b;
      }

      .cls-16 {
        fill: #9c9c9c;
      }

      .cls-17 {
        fill: #626262;
      }

      .cls-18 {
        fill: #545454;
      }

      .cls-19 {
        fill: #838383;
      }

      .cls-20 {
        fill: #8b8b8b;
      }

      .cls-21 {
        fill: #787878;
      }

      .cls-22 {
        fill: #434343;
      }

      .cls-23 {
        fill: #686868;
      }

      .cls-24 {
        fill: #cbcbcb;
      }

      .cls-25 {
        fill: #636363;
      }

      .cls-26 {
        fill: #b1b1b1;
      }

      .cls-27 {
        fill: #515151;
      }

      .cls-28 {
        fill: #444;
      }

      .cls-29 {
        fill: #e2e2e2;
      }

      .cls-30 {
        fill: #9d9d9d;
      }

      .cls-31 {
        fill: #191919;
      }

      .cls-32 {
        fill: #262626;
      }

      .cls-33 {
        fill: #303030;
      }

      .cls-34 {
        fill: #646464;
      }

      .cls-35 {
        fill: #bcbcbc;
      }

      .cls-36 {
        fill: #dfdfdf;
      }

      .cls-37 {
        fill: #363636;
      }

      .cls-38 {
        fill: #292929;
      }

      .cls-39 {
        fill: #020202;
      }

      .cls-40 {
        fill: #cdcdcd;
      }

      .cls-41 {
        fill: #656565;
      }

      .cls-42 {
        fill: #707070;
      }

      .cls-43 {
        fill: #bababa;
      }

      .cls-44 {
        fill: #a0a0a0;
      }

      .cls-45 {
        fill: #cecece;
      }

      .cls-46 {
        fill: #282828;
      }

      .cls-47 {
        fill: #222;
      }

      .cls-48 {
        fill: #555;
      }

      .cls-49 {
        fill: #919191;
      }

      .cls-50 {
        fill: #adadad;
      }

      .cls-51 {
        fill: #888;
      }

      .cls-52 {
        fill: #424242;
      }

      .cls-53 {
        fill: #494949;
      }

      .cls-54 {
        fill: #8f8f8f;
      }

      .cls-55 {
        fill: #aeaeae;
      }

      .cls-56 {
        fill: #9e9e9e;
      }

      .cls-57 {
        fill: #323232;
      }

      .cls-58 {
        fill: #5e5e5e;
      }

      .cls-59 {
        fill: #5b5b5b;
      }

      .cls-60 {
        fill: #202020;
      }

      .cls-61 {
        fill: #565656;
      }

      .cls-62 {
        fill: #242424;
      }

      .cls-63 {
        fill: #767676;
      }

      .cls-64 {
        fill: #929292;
      }

      .cls-65 {
        fill: #8a8a8a;
      }

      .cls-66 {
        fill: #343434;
      }

      .cls-67 {
        fill: #373737;
      }

      .cls-68 {
        fill: #383838;
      }

      .cls-69 {
        fill: #e7e7e7;
      }

      .cls-70 {
        fill: #2f2f2f;
      }

      .cls-71 {
        fill: #959595;
      }

      .cls-72 {
        fill: #404040;
      }

      .cls-73 {
        fill: #525252;
      }

      .cls-74 {
        fill: #8e8e8e;
      }

      .cls-75 {
        fill: #7d7d7d;
      }

      .cls-76 {
        fill: #3e3e3e;
      }

      .cls-77 {
        fill: #dbdbdb;
      }

      .cls-78 {
        fill: #3a3a3a;
      }

      .cls-79 {
        fill: #353535;
      }

      .cls-80 {
        fill: #c8c8c8;
      }

      .cls-81 {
        fill: #e3e3e3;
      }

      .cls-82 {
        fill: #ededed;
      }

      .cls-83 {
        fill: #585858;
      }

      .cls-84 {
        fill: #595959;
      }

      .cls-85 {
        fill: #3f3f3f;
      }

      .cls-86 {
        fill: #5a5a5a;
      }

      .cls-87 {
        fill: #949494;
      }

      .cls-88 {
        fill: #b0b0b0;
      }

      .cls-89 {
        fill: #272727;
      }

      .cls-90 {
        fill: #2e2e2e;
      }

      .cls-91 {
        fill: #2a2a2a;
      }

      .cls-92 {
        fill: #212121;
      }

      .cls-93 {
        fill: #cacaca;
      }

      .cls-94 {
        fill: #acacac;
      }

      .cls-95 {
        fill: #393939;
      }

      .cls-96 {
        fill: #2c2c2c;
      }

      .cls-97 {
        fill: #d7d7d7;
      }

      .cls-98 {
        fill: #cfcfcf;
      }

      .cls-99 {
        fill: #d0d0d0;
      }

      .cls-100 {
        fill: #e8e8e8;
      }

      .cls-101 {
        fill: #2d2d2d;
      }

      .cls-102 {
        fill: #616161;
      }

      .cls-103 {
        fill: #b7b7b7;
      }

      .cls-104 {
        fill: #d4d4d4;
      }

      .cls-105 {
        fill: #8d8d8d;
      }
    </style>
  </defs>
  <g id="Layer_1-2" data-name="Layer_1">
    <g>
      <path class="cls-39" d="M149.98,1106H0V0h736v1012c-1.02.34-2.93.79-2.91,1.02.24,2.01-.48,4.78,2.91,4.98v88H149.98ZM470.97,533.02c-.55-.59-1.09-1.18-1.64-1.76-.2.33-.39.66-.59,1,.76.24,1.52.47,2.28.71.3.72.59,1.44.89,2.16.26-.18.51-.36.77-.55-.57-.52-1.14-1.04-1.71-1.56ZM431.12,127.49c-.08,4.06,1.65,6.82,3.54,6.26,1.53-.45,3.25-2.12,3.79-3.64.74-2.05-2.17-5.24-4.39-4.87-1.32.22-2.4,1.81-2.94,2.24ZM432.98,251.69c-.99-4.25-3.76-5.64-5.85-7.46-.34-.3-2.46.71-2.96,1.58-.35.61.38,2.54,1.13,2.94,2.09,1.12,4.45,1.76,7.68,2.95ZM79.02,820.82c-1.44,2.8-1.45,4.93.91,6.35.51.31,2.38-.46,2.68-1.15,1.32-3.02-1.08-3.89-3.59-5.2ZM133.17,401.65c-1.62,2.86-1.42,4.9,1.11,6.21.56.29,2.21-.26,2.45-.82,1.31-3.04-1.04-4.01-3.56-5.39ZM484.93,478.09l-1.51.78c-.5,1.9-.89,3.88,1.74,4.61.54.15,2.12-1.23,2.05-1.4-.6-1.4-1.48-2.68-2.28-3.99ZM35.73,957.55c-.64,2.09-.46,3.69,1.76,4.28.41.11,1.52-.79,1.58-1.32.3-2.34-1.09-3.03-3.34-2.96ZM68.42,664c-.46,1.06-1.11,1.83-.93,2.32.2.56,1.12.87,1.72,1.29.39-.59,1.17-1.25,1.08-1.75-.11-.58-.98-1.03-1.87-1.87ZM420.32,968.21c.76,1.56,1.35,2.76,1.94,3.97.62-.41,1.68-.73,1.79-1.24.45-2.13-.7-2.96-3.74-2.72ZM520.62,971.8c.4.13.8.26,1.2.4.52-1.13,1.04-2.27,1.56-3.4-.49-.32-.98-.64-1.47-.96-.27.58-.59,1.14-.79,1.75-.23.72-.34,1.47-.51,2.21ZM704.13,872.65c.87-1.16,1.66-1.81,1.81-2.58.09-.45-.85-1.1-1.32-1.66-.61.6-1.49,1.1-1.73,1.82-.16.48.61,1.26,1.24,2.42ZM532.99,529.87c-.48.25-.95.51-1.43.76.39,1.11.79,2.23,1.18,3.34.76-.41,1.53-.82,2.29-1.23-.68-.96-1.36-1.91-2.04-2.87ZM509.04,1094.27c-.89-.6-1.53-1.3-1.82-1.18-.8.35-1.45,1.04-2.16,1.59.51.5,1.16,1.49,1.5,1.39.78-.22,1.42-.98,2.48-1.8ZM259.4,676.35c-.3-.48-.59-.97-.89-1.45-.75-.39-1.5-1.08-2.24-1.07-.45,0-1.35,1.23-1.22,1.66.22.73,1.03,1.7,1.69,1.79.83.11,1.77-.57,2.66-.91ZM278.25,1047.74c.75.63,1.16,1.26,1.63,1.3.46.05.97-.5,1.46-.79-.44-.53-.79-1.22-1.35-1.52-.25-.13-.92.51-1.74,1ZM339.48,774.57c-.75-.79-1.22-1.68-1.72-1.69-.52-.02-1.43.75-1.5,1.26-.07.51.61,1.49,1.11,1.61.48.12,1.16-.61,2.11-1.18ZM395.74,676.91c-.84-.81-1.38-1.72-1.9-1.71-.56.01-1.49.84-1.55,1.4-.06.53.71,1.52,1.26,1.64.5.11,1.19-.68,2.19-1.33ZM489.26,599.85c-.44.97-.83,1.47-.84,1.97,0,.3.73.92.9.84.49-.21,1.15-.66,1.2-1.08.05-.39-.6-.87-1.26-1.74ZM570.91,855.92c-.92-.73-1.43-1.38-2.05-1.53-.3-.07-1.23.85-1.17,1.19.12.67.74,1.26,1.15,1.88.57-.42,1.14-.85,2.08-1.54ZM351.53,529.25c-.42.52-.94.89-.91,1.21.03.35.57.9.89.91.32,0,.88-.54.91-.88.03-.33-.48-.71-.89-1.23ZM285.6,768.67c.35-.47.81-.82.79-1.14-.02-.33-.51-.63-.8-.94-.34.39-.69.77-1.03,1.16.31.27.62.55,1.04.92ZM284.25,343.36c-.3.49-.73.87-.67,1.18.06.34.55.61.86.9.31-.42.68-.81.88-1.27.04-.09-.61-.47-1.06-.81ZM376.72,410.51c-.52-.41-.88-.92-1.21-.89-.34.03-.89.56-.89.88,0,.31.54.86.88.89.33.03.7-.48,1.22-.88ZM300.15,919.72c.8-1.11,1.57-1.71,1.53-2.26-.03-.53-.89-1.01-1.38-1.51-.4.43-1.1.85-1.12,1.3-.03.62.46,1.26.96,2.46ZM281.61,545.27c-.5-.3-.88-.73-1.2-.68-.34.05-.61.55-.91.86.42.32.82.69,1.29.89.1.04.48-.61.82-1.06ZM633.71,519.48c-.8-.4-1.3-.81-1.83-.85-.27-.02-.59.61-.89.94.47.35.9.83,1.43,1,.21.07.64-.52,1.29-1.09ZM236.55,277.84c-.72.98-1.36,1.5-1.47,2.11-.07.38.72,1.34.98,1.29.64-.12,1.6-.6,1.69-1.08.11-.54-.6-1.23-1.21-2.32ZM501.54,421.7c.39-.45.88-.78.89-1.12.01-.34-.46-.69-.72-1.03-.39.36-.78.72-1.17,1.07.3.32.59.63,1.01,1.08ZM465.82,544.96c-.76-.58-1.48-1.31-1.63-1.2-.55.38-.9,1.03-1.33,1.58.47.33.96.92,1.42.91.44-.02.85-.68,1.54-1.29ZM374.73,542.43c-.92-.75-1.56-1.63-1.97-1.53-.57.13-1.13.94-1.36,1.58-.09.26.75,1.2,1.13,1.18.6-.04,1.18-.62,2.2-1.23ZM110.56,302.07c.52-.68,1.11-1.21,1.02-1.38-.26-.48-.75-.88-1.24-1.13-.11-.06-.9.68-.84.93.11.5.59.92,1.07,1.58ZM336.25,592.57c1.74,1.16,2.49,1.85,2.65,1.73.54-.4.87-1.08,1.28-1.66-.48-.31-.96-.85-1.46-.87-.6-.03-1.23.37-2.47.79ZM150.5,456.74c.81.39,1.32.78,1.86.82.27.02.59-.6.88-.93-.47-.35-.9-.83-1.43-.98-.23-.07-.65.52-1.31,1.09ZM185.5,865.29c-.41.53-.92.9-.9,1.22.03.35.57.65.88.98.32-.32.86-.62.89-.96.03-.33-.47-.71-.88-1.24ZM723.67,196.22c-.41-.27-.82-.55-1.24-.82-.14.63-.49,1.31-.37,1.88.15.67.71,1.26,1.09,1.88.54-.37,1.53-.74,1.53-1.12,0-.61-.64-1.21-1.01-1.82ZM704.59,1069.8c-.45-.35-.91-.71-1.36-1.06-.52.78-1.05,1.55-1.5,2.37-.03.05.93.77,1,.71.67-.62,1.26-1.33,1.87-2.02ZM25.77,163.15c-.54-.49-.97-1.08-1.16-1.01-.51.19-.91.65-1.36,1,.36.4.73,1.14,1.07,1.13.45-.02.86-.64,1.44-1.12ZM182.54,749.97c-.68-.18-1.1-.39-1.49-.35-.2.02-.57.62-.5.72.22.34.66.83.92.78.34-.07.59-.6,1.07-1.16ZM459.92,246.95c-.83-.68-1.16-1.15-1.51-1.17-.33-.01-.67.47-1.01.73.37.38.69.93,1.14,1.09.28.11.78-.35,1.38-.66ZM4.58,278.32c-.5-.39-.88-.89-1.17-.84-.35.06-.84.55-.88.9-.04.26.54.85.84.84.35,0,.69-.49,1.21-.9ZM393.54,610.67c-.51-.41-.83-.88-1.17-.89-.29,0-.84.56-.81.81.05.34.51.81.85.87.28.05.64-.43,1.13-.8ZM341.58,746.86c.76-1.1,1.39-1.64,1.5-2.28.07-.42-.61-.97-.95-1.47-.58.43-1.49.77-1.65,1.33-.15.5.53,1.24,1.1,2.42ZM90.69,339.44c-.42.51-.9.84-.91,1.18,0,.3.52.61.82.92.32-.3.82-.57.89-.92.05-.29-.43-.67-.8-1.17ZM360.46,339.14c-.32.5-.78.89-.73,1.2.06.36.57.65.88.96.33-.41.74-.79.94-1.26.05-.11-.61-.52-1.09-.9ZM705.59,735.66c-.51-.41-.85-.9-1.19-.9-.3,0-.85.58-.83.86.03.34.52.85.87.9.29.04.66-.47,1.15-.85ZM75.5,419.39c-.48-.36-.83-.84-1.11-.8-.34.05-.62.53-.93.83.29.3.57.83.86.83.33,0,.67-.46,1.18-.86ZM623.66,733.47c-.4.51-.87.85-.87,1.19,0,.3.52.6.81.9.3-.31.79-.59.84-.93.04-.29-.42-.66-.77-1.15ZM172.31,467.39c.63-1.08,1.32-1.74,1.24-2.28-.07-.46-1-.96-1.63-1.09-.27-.05-1.06.86-1,1.25.09.6.7,1.13,1.39,2.12ZM42.75,596.43c-.6-.54-1.07-1.14-1.22-1.07-.49.23-.91.67-1.23,1.12-.06.08.58.91.81.87.5-.08.95-.51,1.63-.92ZM293.54,472.76c.41-.49.88-.81.89-1.15,0-.28-.55-.84-.8-.81-.34.05-.81.49-.87.84-.05.27.42.64.78,1.12ZM223.76,486.62c-.48-.37-.84-.86-1.11-.82-.35.06-.81.51-.86.86-.04.24.51.81.8.82.33,0,.67-.46,1.17-.86ZM434.52,714.69c-.51-.42-.84-.9-1.19-.91-.3,0-.6.52-.91.82.31.31.58.81.93.86.29.05.67-.42,1.17-.77ZM77.21,493.22c-.18.68-.39,1.09-.35,1.48.02.21.62.58.72.51.34-.22.83-.65.79-.92-.06-.33-.59-.58-1.16-1.07ZM111.66,670.2c-.64-.48-1.12-1.02-1.29-.93-.46.24-.79.73-1.17,1.12.31.29.68.87.91.82.48-.11.89-.55,1.55-1.01ZM578.91,528.1c-.49.68-1.04,1.27-.96,1.37.34.43.82.83,1.34,1,.16.06.88-.73.81-.93-.17-.49-.67-.86-1.19-1.44ZM422.64,543.01c-.26-.63-.33-1.22-.63-1.37-.29-.15-.81.14-1.23.23.12.42.12,1,.4,1.21.25.19.81-.02,1.46-.07ZM211.06,643.84c.69.46,1.27.98,1.4.89.45-.32.8-.83,1.03-1.33.04-.1-.73-.81-.96-.73-.49.16-.86.66-1.46,1.18ZM159.13,645.77c-.59-.51-.96-.99-1.43-1.14-.22-.07-.98.64-.92.79.17.49.55.97.98,1.25.14.09.69-.44,1.37-.9ZM410.28,865.15c.53-.62,1.11-1.08,1.04-1.25-.2-.48-.69-.84-1.06-1.24-.32.29-.94.63-.9.87.08.49.5.94.92,1.63ZM604.27,887.68c-1.81-.92-2.38-1.45-2.76-1.34-.44.14-.98.85-.96,1.29.02.36.76.95,1.22.98.55.04,1.14-.39,2.5-.94ZM233.63,470.18c-.65-.46-1.2-.98-1.33-.9-.43.29-.8.77-1,1.26-.05.13.7.84.91.77.47-.16.84-.64,1.42-1.13ZM311.47,995.22c-.43.52-.93.85-.93,1.19,0,.32.52.64.81.96.31-.31.81-.59.88-.95.06-.29-.41-.68-.76-1.2ZM511.06,1004.6c.21-.04.42-.07.63-.11.05-.56.25-1.17.11-1.67-.1-.37-.66-.61-1.02-.91l-.57.45.86,2.23ZM611.91,10.04c-1.01-.58-1.65-1.23-2.26-1.2-.45.03-.86.93-1.29,1.45.65.39,1.26.95,1.96,1.09.33.07.83-.67,1.58-1.35ZM196.44,1039.26c-.27-.63-.35-1.23-.65-1.38-.31-.15-.84.13-1.27.23.13.42.13,1.02.41,1.23.27.19.83-.02,1.51-.08ZM222,126.64c-.65-.48-1.14-1.02-1.31-.93-.46.24-.79.74-1.17,1.14.31.3.7.89.93.83.49-.12.89-.57,1.55-1.04ZM211.66,788.76c.51-.69,1.07-1.18.98-1.37-.22-.47-.74-.81-1.13-1.19-.3.33-.89.71-.85.98.08.49.54.91,1,1.59ZM593.56,1083.34c-.49-.39-.86-.89-1.15-.86-.35.05-.83.52-.89.87-.04.25.52.84.82.84.34,0,.7-.46,1.23-.86ZM660.56,702.04c-.57,1.17-.98,1.67-1,2.18-.01.28.6.83.94.84.34,0,.97-.52.97-.8,0-.51-.39-1.02-.91-2.21ZM496.3,493.37c.51-.66,1.06-1.1.99-1.32-.17-.47-.66-.84-1.01-1.24-.31.3-.9.64-.87.9.06.49.48.93.9,1.65ZM177.53,745.64c-.39.5-.86.84-.84,1.15.02.32.51.62.8.93.3-.3.81-.57.84-.9.03-.31-.43-.67-.8-1.19ZM391.35,271.9c.43-.54.76-.82.89-1.18.06-.16-.34-.69-.46-.67-.38.08-.93.26-1.03.54-.09.27.29.7.59,1.32ZM311.09,717.36c-.64-.45-1.2-.98-1.29-.9-.41.32-.79.78-.95,1.26-.05.16.7.85.88.78.46-.18.81-.65,1.37-1.14ZM432.45,468.93c-.81-.59-1.31-1.23-1.71-1.17-.47.07-1.14.73-1.17,1.17-.02.38.69,1.09,1.14,1.14.42.05.92-.57,1.73-1.15ZM238.73,757.68c-.5.48-.88.72-1.06,1.07-.08.17.25.78.36.77.41-.03,1-.13,1.15-.41.14-.25-.22-.76-.45-1.43ZM569.17,497.13c-.21.67-.42,1.07-.41,1.46,0,.19.6.56.69.5.34-.24.78-.61.79-.94.01-.26-.55-.55-1.07-1.01ZM288.9,812.44c-.49-.38-.84-.85-1.13-.82-.33.04-.61.54-.9.83.29.3.58.81.89.83.31.02.65-.45,1.14-.84ZM344.74,814.63c-.5.71-.97,1.12-1.08,1.61-.06.26.5.66.78.99.4-.4.91-.75,1.15-1.23.1-.19-.4-.68-.85-1.38ZM461.45,508.03c-.9-.69-1.39-1.34-1.77-1.28-.43.06-.86.72-1.08,1.21-.07.15.55.86.86.87.49,0,.99-.36,1.99-.8ZM110.01,914.79c-.7.83-1.37,1.26-1.36,1.69.01.49.62.96.97,1.44.44-.36,1.15-.67,1.25-1.11.1-.45-.41-1.03-.86-2.02ZM102.97,917.52c-.47-.37-.82-.86-1.16-.85-.34.01-.67.51-1,.79.38.38.77.75,1.15,1.13.3-.31.59-.63,1.01-1.07ZM386.39,843.52c-.5-.4-.85-.91-1.16-.88-.33.02-.86.55-.86.86,0,.31.52.85.84.88.31.03.68-.47,1.18-.86ZM455.07,922.39c-.5.45-.87.68-1.06,1.02-.08.15.24.74.36.73.4-.03.95-.12,1.12-.39.13-.22-.2-.73-.42-1.36ZM484.57,947.48c-.45-.35-.84-.86-1.08-.79-.37.1-.84.55-.9.91-.04.26.55.89.8.86.36-.04.68-.53,1.18-.98ZM233.17,96.32c-.93-.6-1.65-1.29-1.87-1.15-.58.35-.97,1.04-1.32,1.65-.04.07.71.84.93.78.66-.2,1.24-.67,2.27-1.28ZM310.63,959.08c-.41.5-.91.85-.88,1.15.03.34.54.64.83.96.32-.3.85-.58.89-.92.04-.31-.46-.68-.84-1.19ZM372.61,514.51c-.46-.49-.69-.87-1.03-1.05-.16-.08-.76.24-.75.35.03.4.12.96.4,1.13.22.14.74-.21,1.38-.43ZM60.39,854.65c-1.04-.4-1.45-.64-1.87-.69-.23-.03-.73.29-.72.42.04.39.26.77.41,1.16.37-.15.74-.3,2.18-.88ZM690.57,722.05c-.45-.51-.69-.89-1.03-1.08-.14-.08-.75.25-.74.37.02.4.12.96.4,1.14.21.14.74-.21,1.37-.43ZM514.43,997.4c-.21.69-.43,1.1-.42,1.51,0,.19.62.57.7.51.35-.25.8-.63.82-.98.01-.26-.57-.56-1.1-1.03ZM631.79,631.36c-.39.48-.9.85-.87,1.14.04.34.55.85.88.87.3.02.86-.52.88-.84.02-.32-.49-.68-.9-1.18ZM15.89,489.59c-1.01-.36-1.52-.7-2-.66-.3.03-.85.78-.76.93.24.46.72,1.05,1.14,1.08.38.03.8-.63,1.62-1.36ZM205.32,1029.65c-.5-.46-.77-.81-1.12-.97-.15-.07-.71.31-.69.43.05.39.21.95.48,1.07.25.11.72-.26,1.33-.53ZM326.41,456.24c-.43,1.05-.68,1.47-.74,1.92-.03.25.3.77.43.76.41-.05.99-.18,1.15-.47.13-.23-.26-.75-.84-2.2ZM134.67,615.78c-.46-.37-.79-.85-1.12-.85-.33,0-.67.46-1,.72.36.37.68.82,1.11,1.06.1.06.58-.52,1.01-.93ZM190.95,1063.52c-.52-.39-.88-.87-1.2-.85-.33.02-.64.53-.96.83.31.3.6.82.94.85.32.03.69-.44,1.22-.82ZM141.57,739.53c-.47-.5-.7-.89-1.04-1.07-.16-.08-.77.24-.76.35.03.4.12.98.4,1.14.23.14.75-.2,1.4-.42ZM534.71,671.14c-.56.83-1.16,1.33-1.11,1.75.05.46.7.84,1.09,1.26.39-.41,1.04-.79,1.08-1.23.04-.44-.53-.94-1.06-1.78ZM668.82,740.71c-.51-.39-.89-.89-1.2-.85-.34.04-.85.57-.87.9-.02.29.55.86.86.86.35,0,.7-.5,1.21-.92ZM411.63,221.21c-.7-.55-1.21-1.12-1.38-1.04-.47.24-.8.76-1.19,1.16.33.31.7.9.97.86.48-.07.91-.53,1.6-.99ZM222.14,233.13c-.17-.23-.32-.62-.53-.65-.22-.03-.49.27-.73.43.17.23.32.62.53.66.22.04.49-.27.74-.43ZM8.57,892.65c.47-.5.83-.77,1.01-1.13.07-.15-.29-.72-.41-.7-.37.04-.95.19-1.03.44-.1.3.21.75.44,1.39ZM226.84,897.22c-.48-.36-.85-.85-1.12-.8-.34.06-.79.54-.84.89-.04.24.53.8.81.8.33,0,.66-.48,1.15-.88ZM380.11,914c-.18-.2-.34-.55-.55-.58-.23-.03-.49.23-.74.36.25.28.5.56.75.83.18-.21.36-.41.54-.62ZM650.49,258.66c.25.15.5.31.75.46.13-.27.39-.57.34-.79-.05-.2-.45-.31-.7-.47-.13.26-.26.53-.39.8ZM575.48,278.72c-.72-.28-1.17-.59-1.62-.58-.4.01-.79.39-1.19.6.34.45.67.9,1.01,1.36.35-.27.71-.54,1.8-1.38ZM345.33,437.17c-.2.37-.45.7-.53,1.07-.02.11.59.51.66.46.3-.25.51-.6.75-.92-.24-.17-.48-.33-.88-.61ZM186.35,475.66c.28-.18.66-.3.73-.51.06-.19-.22-.49-.34-.75-.32.21-.64.42-.96.63.19.21.39.42.58.62ZM348.08,930.09c.17-.24.49-.5.46-.71-.03-.21-.42-.37-.65-.55-.17.24-.49.5-.46.71.03.21.41.36.65.54ZM290.19,527.86c-.65.98-1.12,1.41-1.2,1.91-.06.33.44.76.68,1.14.46-.3,1.19-.53,1.32-.94.13-.4-.34-1-.8-2.11ZM365.53,955.36c-.24-.15-.48-.29-.72-.44-.12.26-.38.55-.32.76.05.19.44.3.67.45.12-.26.24-.52.37-.78ZM525.98,549.46c.39.43.65.94.99,1.01.29.06.68-.41,1.02-.64-.31-.43-.61-.85-.92-1.28-.33.28-.66.55-1.1.91ZM193.1,564.11c.16-.23.46-.47.44-.69-.01-.21-.34-.41-.53-.61-.21.3-.43.61-.64.91.24.13.48.26.73.39ZM209.47,638.24l.7-1.15c-.61-.2-1.26-.62-1.83-.53-.5.08-1.18.66-1.28,1.13-.08.38.51,1.21.93,1.31.41.1.98-.48,1.48-.76ZM574.1,983.19c.2-.23.55-.45.55-.68,0-.23-.35-.46-.54-.69-.26.31-.51.61-.77.92.25.15.5.31.76.46ZM655.07,994.9c-.23.17-.61.31-.64.51-.03.21.26.48.42.72.23-.17.61-.31.65-.52.04-.21-.27-.47-.42-.71ZM476.05,449.27c-.09-.28-.1-.68-.28-.8-.19-.12-.56.03-.85.07.11.36.23.73.34,1.09.26-.12.53-.24.79-.37ZM176.92,684.85c-.19.2-.5.38-.52.59-.02.22.25.46.4.69.25-.27.5-.53.75-.8-.21-.16-.42-.32-.63-.48ZM7.58,756.62c-.15-.24-.31-.47-.46-.71-.22.17-.6.31-.63.51-.03.21.27.46.42.7.22-.17.45-.33.67-.5ZM624.39,1003.51c-.4.5-.87.84-.88,1.17,0,.29.52.59.81.89.3-.3.79-.58.84-.92.04-.29-.42-.66-.77-1.14ZM597.68,1026.52c-.18-.29-.29-.68-.51-.75-.2-.06-.51.22-.77.35.21.33.43.66.64.99.21-.2.43-.4.64-.59ZM236.7,772.4c-.15-.24-.31-.49-.46-.73-.32.23-.63.46-.95.69.3.25.6.5.91.74.17-.23.34-.46.5-.7ZM125.48,798.39c-.45-.35-.85-.87-1.14-.82-.35.07-.92.8-.85.94.25.44.75.75,1.16,1.11.25-.37.5-.74.83-1.23ZM295.15,810.31c-.41.55-.76.86-.88,1.24-.06.17.4.72.49.69.39-.12.92-.33,1.03-.64.09-.25-.33-.7-.65-1.29ZM650.85,1055.26c.55-1.24.91-1.87,1.07-2.54.03-.14-.81-.74-.97-.64-.51.29-1.11.76-1.24,1.27-.09.36.5.91,1.14,1.92ZM192.93,848.11c.2-.2.56-.39.57-.59,0-.2-.35-.41-.54-.61-.2.2-.55.4-.55.6,0,.2.34.41.52.6ZM165.28,857.22c.13.27.19.68.4.77.2.09.55-.14.83-.23-.18-.36-.36-.73-.53-1.09-.23.18-.46.37-.69.55ZM173.17,132.17c-.45.55-.82.85-.97,1.24-.06.17.37.75.48.72.41-.1.96-.29,1.1-.61.11-.25-.31-.73-.61-1.35ZM508.52,149.39c-.21.2-.41.4-.62.59.2.2.4.56.61.57.2,0,.41-.35.62-.55-.2-.2-.41-.4-.61-.61ZM205.46,766.89c-.54,1.54-.77,1.92-.78,2.32,0,.17.58.55.64.51.32-.25.73-.58.78-.93.06-.37-.25-.79-.65-1.89ZM45.51,285.65c.41-.26.66-.41.9-.57-.23-.33-.42-.69-.71-.95-.07-.06-.7.31-.68.41.07.38.3.73.48,1.11ZM571.02,886.15c-.39-.2-.75-.47-1.14-.54-.12-.02-.54.64-.49.69.29.32.67.55,1.02.8.17-.26.33-.52.61-.96ZM243.83,959.46c-.1-.26-.16-.54-.31-.77-.04-.07-.43-.04-.44,0-.07.27-.08.55-.11.82.29-.02.57-.03.86-.05ZM279.7,661.61c-.21-.17-.41-.33-.62-.5-.16.22-.46.45-.45.67,0,.18.38.34.58.51.16-.22.32-.45.48-.68ZM203.98,172.47c.38.5.6,1.06.89,1.1.32.04.91-.35,1-.66.08-.28-.29-.95-.57-1.02-.32-.08-.76.31-1.32.58ZM232.77,970.65c-.2.18-.53.34-.56.54-.04.22.2.49.32.74.28-.25.56-.5.84-.74-.2-.18-.4-.36-.59-.54ZM599.1,738.28c.19-.19.49-.37.52-.58.02-.17-.3-.38-.47-.57-.19.19-.51.35-.54.56-.02.17.31.38.5.59ZM348.25,641.06c-.12-.23-.2-.59-.38-.66-.19-.07-.49.14-.74.23.12.23.2.59.38.66.19.07.48-.14.73-.23ZM34.63,933.93c.45-.42.95-.68.99-.98.04-.32-.38-.69-.6-1.03-.33.23-.87.41-.93.69-.07.32.28.74.55,1.33ZM591.27,835.87c.14-.21.41-.46.37-.64-.04-.2-.38-.32-.58-.48-.14.21-.42.46-.38.63.05.2.38.33.59.49ZM493.97,1016.69c-.24-.16-.53-.48-.72-.43-.22.06-.36.44-.53.68.24.16.53.49.71.44.23-.06.36-.44.54-.69ZM602.59,119.47c-.45-.09-.88-.24-1.3-.23-.1,0-.32.75-.25.8.35.23.78.34,1.18.49.1-.29.21-.58.37-1.05ZM56.56,698.58c-.25.6-.61,1.03-.52,1.35.08.3.61.48.95.72.22-.36.63-.74.59-1.07-.04-.31-.55-.57-1.02-1ZM650.23,1067.82c-.48.74-.83,1.18-1.04,1.68-.03.08.67.66.93.6.35-.08.76-.54.84-.9.06-.29-.34-.68-.73-1.37ZM249.25,1050.11c0-.28.11-.67-.03-.85-.12-.15-.54-.04-.83-.05,0,.3-.09.68.06.87.11.14.54.03.81.03ZM598.28,590.58c-.17.22-.34.44-.52.65.23.17.46.46.69.46.17,0,.34-.39.51-.6-.23-.17-.46-.35-.69-.52ZM428.31,279.91c-.09-.08-.19-.17-.28-.25-.08.18-.17.37-.25.55.12.02.28.08.36.03.09-.06.12-.22.17-.34ZM575.38,242.18c0-.13-.02-.26-.02-.39-.2.07-.39.14-.59.21.08.1.14.27.24.29.11.03.25-.07.37-.12ZM255.91,938.83c.42-.24.68-.39.93-.53-.22-.35-.4-.73-.68-1.02-.05-.05-.73.3-.71.41.06.39.29.75.46,1.14ZM534.23,193.21c.04-.12.15-.26.11-.36-.03-.09-.2-.14-.31-.21-.06.2-.11.39-.17.59l.37-.02ZM220.58,603.69c-.27-.11-.6-.38-.81-.3-.19.07-.4.57-.32.76.08.2.5.25.78.37.12-.27.24-.55.35-.82ZM662.95,600.56c-.09.1-.18.2-.27.3.2.09.4.18.6.27.02-.13.09-.3.04-.39-.06-.1-.24-.13-.37-.18ZM384.95,153.36c.13-.06.31-.1.36-.2.05-.1-.05-.26-.09-.4-.19.11-.39.22-.58.33.1.09.2.18.31.27ZM447.1,786.12c-.19.41-.43.77-.49,1.16-.02.12.47.32.73.48.22-.35.47-.69.61-1.07.02-.06-.45-.31-.85-.58ZM721.28,695.26c-.16-.22-.31-.44-.49-.64-.02-.02-.3.13-.36.26-.05.12.02.44.05.44.26.01.53-.03.8-.06ZM228.29,139.15c.28-.52.7-.94.64-1.28-.05-.33-.59-.58-.91-.87-.34.44-.68.88-1.03,1.32.38.24.76.49,1.29.83ZM331.77,123.29c-.1.39-.27.76-.25,1.12,0,.13.48.23.74.34.14-.35.32-.7.39-1.07.01-.06-.47-.21-.88-.39ZM504.73,1006.57c.25-.13.62-.19.71-.39.09-.18-.13-.5-.21-.76-.31.17-.63.33-.94.5.15.22.29.44.44.66ZM722.61,871.77c.41-.23.66-.36.91-.5-.21-.33-.39-.69-.65-.97-.05-.05-.67.27-.65.38.04.36.24.71.4,1.09ZM360.03,875.48c-.16.22-.35.43-.47.67-.03.06.22.36.26.34.26-.1.49-.25.73-.39-.17-.21-.35-.41-.53-.62ZM25.29,244.51c-.2-.3-.32-.66-.54-.75-.17-.06-.47.23-.72.37.2.32.41.63.61.95.22-.19.44-.39.65-.58ZM229.35,404.03c-.06-.12-.1-.31-.2-.36-.1-.04-.26.05-.39.09.11.19.22.38.33.57.09-.1.18-.2.26-.3ZM100.95,908.09c-.55-.42-.84-.75-1.21-.87-.17-.06-.71.34-.69.44.09.41.34.78.53,1.17.37-.2.74-.4,1.37-.73ZM566.19,65.52c.12-.28.24-.56.36-.84-.28-.12-.57-.25-.85-.37-.12.28-.4.63-.31.82.09.21.52.27.8.39ZM414.2,376.24c.04-.13.15-.27.12-.37-.03-.1-.21-.14-.32-.21-.06.2-.12.4-.17.6.13,0,.25-.01.38-.02ZM513.13,361.63c-.18.14-.38.27-.54.44-.02.02.13.21.2.32.18-.14.38-.27.54-.44.02-.02-.13-.21-.21-.32ZM293.78,848.71c-.37-.17-.71-.4-1.08-.46-.09-.02-.45.62-.39.69.25.29.62.48.95.7.14-.25.28-.51.52-.93ZM300.2,1070.61c.11-.25.21-.49.32-.74-.25-.1-.55-.34-.73-.27-.18.07-.23.45-.34.7.25.1.5.21.75.31ZM17.24,493.14c0-.13-.01-.25-.02-.38-.19.07-.39.14-.58.2.08.1.14.27.23.29.1.03.24-.07.37-.12ZM450.69,475.83c0,.13.01.26.02.39.2-.07.4-.14.6-.21-.08-.1-.14-.27-.24-.3-.11-.03-.25.08-.38.12ZM181.96,464.13c.7.32,1.06.55,1.45.62.09.02.4-.49.39-.75,0-.24-.38-.7-.47-.67-.38.13-.71.39-1.37.8ZM601.84,895.77c.24.12.49.24.73.36.11-.25.23-.5.34-.76-.24-.11-.54-.35-.72-.28-.18.06-.25.44-.36.68ZM167.54,152.41c-.29-.1-.61-.33-.86-.26-.19.05-.28.47-.41.73.28.1.61.34.82.27.21-.07.3-.47.44-.73Z"/>
      <path class="cls-14" d="M736,1018c-3.39-.2-2.67-2.97-2.91-4.98-.03-.22,1.89-.67,2.91-1.02v6Z"/>
      <path class="cls-97" d="M431.12,127.49c.54-.44,1.62-2.02,2.94-2.24,2.22-.37,5.13,2.82,4.39,4.87-.55,1.52-2.26,3.19-3.79,3.64-1.89.56-3.62-2.2-3.54-6.26Z"/>
      <path class="cls-10" d="M432.98,251.69c-3.23-1.19-5.59-1.83-7.68-2.95-.75-.4-1.48-2.33-1.13-2.94.49-.87,2.62-1.88,2.96-1.58,2.09,1.82,4.86,3.21,5.85,7.46Z"/>
      <path class="cls-35" d="M79.02,820.82c2.51,1.31,4.91,2.18,3.59,5.2-.3.69-2.16,1.46-2.68,1.15-2.36-1.42-2.35-3.55-.91-6.35Z"/>
      <path class="cls-104" d="M133.17,401.65c2.52,1.38,4.87,2.35,3.56,5.39-.24.56-1.89,1.11-2.45.82-2.53-1.31-2.73-3.35-1.11-6.21Z"/>
      <path class="cls-7" d="M484.93,478.09c.8,1.32,1.67,2.59,2.28,3.99.07.17-1.51,1.55-2.05,1.4-2.63-.74-2.24-2.71-1.74-4.61l1.51-.78Z"/>
      <path class="cls-9" d="M35.73,957.55c2.25-.07,3.64.62,3.34,2.96-.07.53-1.18,1.43-1.58,1.32-2.22-.59-2.4-2.19-1.76-4.28Z"/>
      <path class="cls-31" d="M68.42,664c.89.84,1.76,1.28,1.87,1.87.09.5-.69,1.16-1.08,1.75-.61-.42-1.52-.73-1.72-1.29-.17-.49.47-1.27.93-2.32Z"/>
      <path class="cls-77" d="M420.32,968.21c3.03-.23,4.18.59,3.74,2.72-.11.52-1.17.83-1.79,1.24-.59-1.2-1.18-2.41-1.94-3.97Z"/>
      <path class="cls-101" d="M520.62,971.8c.16-.74.28-1.5.51-2.21.19-.6.52-1.17.79-1.75.49.32.98.64,1.47.96-.52,1.13-1.04,2.27-1.56,3.4-.4-.13-.8-.26-1.2-.4Z"/>
      <path class="cls-36" d="M704.13,872.65c-.63-1.17-1.4-1.95-1.24-2.42.24-.72,1.12-1.22,1.73-1.82.48.56,1.41,1.21,1.32,1.66-.15.77-.94,1.42-1.81,2.58Z"/>
      <path class="cls-82" d="M532.99,529.87c.68.96,1.36,1.91,2.04,2.87-.76.41-1.53.82-2.29,1.23-.39-1.11-.79-2.23-1.18-3.34.48-.25.95-.51,1.43-.76Z"/>
      <path class="cls-103" d="M509.04,1094.27c-1.07.83-1.7,1.58-2.48,1.8-.34.1-.99-.89-1.5-1.39.71-.55,1.36-1.24,2.16-1.59.28-.12.93.58,1.82,1.18Z"/>
      <path class="cls-81" d="M259.4,676.35c-.89.34-1.83,1.02-2.66.91-.66-.09-1.48-1.05-1.69-1.79-.13-.43.78-1.65,1.22-1.66.74,0,1.49.68,2.24,1.07.3.48.59.97.89,1.45Z"/>
      <path class="cls-47" d="M278.25,1047.74c.82-.5,1.49-1.14,1.74-1,.56.3.91.99,1.35,1.52-.49.29-1,.83-1.46.79-.47-.05-.88-.67-1.63-1.3Z"/>
      <path class="cls-55" d="M339.48,774.57c-.95.57-1.63,1.3-2.11,1.18-.51-.12-1.19-1.1-1.11-1.61.07-.52.98-1.28,1.5-1.26.49.02.96.9,1.72,1.69Z"/>
      <path class="cls-55" d="M395.74,676.91c-1,.65-1.69,1.44-2.19,1.33-.55-.12-1.31-1.11-1.26-1.64.06-.55.98-1.38,1.55-1.4.52-.01,1.06.9,1.9,1.71Z"/>
      <path class="cls-25" d="M489.26,599.85c.67.87,1.31,1.35,1.26,1.74-.05.42-.71.87-1.2,1.08-.17.07-.9-.55-.9-.84,0-.5.39-1,.84-1.97Z"/>
      <path class="cls-45" d="M570.91,855.92c-.94.69-1.51,1.12-2.08,1.54-.41-.62-1.03-1.2-1.15-1.88-.06-.35.87-1.27,1.17-1.19.63.15,1.13.8,2.05,1.53Z"/>
      <path class="cls-38" d="M351.53,529.25c.41.53.92.91.89,1.23-.03.34-.59.89-.91.88-.32,0-.86-.56-.89-.91-.03-.32.49-.69.91-1.21Z"/>
      <path class="cls-101" d="M285.6,768.67c-.42-.38-.73-.65-1.04-.92.34-.39.69-.77,1.03-1.16.29.31.78.61.8.94.02.32-.44.68-.79,1.14Z"/>
      <path class="cls-101" d="M284.25,343.36c.46.34,1.1.72,1.06.81-.19.46-.57.85-.88,1.27-.31-.3-.8-.56-.86-.9-.05-.3.37-.69.67-1.18Z"/>
      <path class="cls-62" d="M376.72,410.51c-.53.4-.9.91-1.22.88-.34-.03-.88-.58-.88-.89,0-.32.55-.85.89-.88.32-.03.69.48,1.21.89Z"/>
      <path class="cls-7" d="M300.15,919.72c-.51-1.21-.99-1.85-.96-2.46.02-.45.72-.87,1.12-1.3.49.5,1.35.98,1.38,1.51.03.55-.73,1.14-1.53,2.26Z"/>
      <path class="cls-33" d="M281.61,545.27c-.35.46-.73,1.1-.82,1.06-.47-.2-.87-.58-1.29-.89.3-.3.57-.81.91-.86.32-.05.71.38,1.2.68Z"/>
      <path class="cls-60" d="M633.71,519.48c-.65.57-1.08,1.16-1.29,1.09-.53-.17-.96-.65-1.43-1,.3-.33.62-.97.89-.94.53.05,1.03.45,1.83.85Z"/>
      <path class="cls-56" d="M236.55,277.84c.61,1.09,1.31,1.79,1.21,2.32-.09.48-1.05.96-1.69,1.08-.26.05-1.05-.9-.98-1.29.11-.61.74-1.13,1.47-2.11Z"/>
      <path class="cls-95" d="M501.54,421.7c-.42-.44-.71-.76-1.01-1.08.39-.36.78-.72,1.17-1.07.26.34.74.7.72,1.03-.01.34-.5.66-.89,1.12Z"/>
      <path class="cls-30" d="M465.82,544.96c-.69.61-1.1,1.27-1.54,1.29-.46.02-.95-.58-1.42-.91.43-.55.78-1.2,1.33-1.58.15-.1.87.63,1.63,1.2Z"/>
      <path class="cls-16" d="M374.73,542.43c-1.02.61-1.59,1.19-2.2,1.23-.38.02-1.22-.92-1.13-1.18.22-.64.79-1.45,1.36-1.58.42-.1,1.06.78,1.97,1.53Z"/>
      <path class="cls-59" d="M110.56,302.07c-.48-.66-.96-1.08-1.07-1.58-.06-.25.73-.99.84-.93.49.25.98.65,1.24,1.13.09.16-.5.7-1.02,1.38Z"/>
      <path class="cls-44" d="M336.25,592.57c1.24-.43,1.87-.83,2.47-.79.5.03.97.56,1.46.87-.41.57-.74,1.25-1.28,1.66-.15.11-.9-.57-2.65-1.73Z"/>
      <path class="cls-92" d="M150.5,456.74c.66-.57,1.08-1.16,1.31-1.09.53.16.96.64,1.43.98-.3.33-.62.95-.88.93-.54-.04-1.05-.44-1.86-.82Z"/>
      <path class="cls-46" d="M185.5,865.29c.4.54.9.91.88,1.24-.03.34-.57.64-.89.96-.32-.32-.85-.63-.88-.98-.03-.33.48-.7.9-1.22Z"/>
      <path class="cls-99" d="M723.67,196.22c.37.61,1.01,1.21,1.01,1.82,0,.37-.98.74-1.53,1.12-.38-.62-.94-1.21-1.09-1.88-.13-.57.23-1.25.37-1.88.41.27.82.55,1.24.82Z"/>
      <path class="cls-80" d="M704.59,1069.8c-.61.69-1.19,1.4-1.87,2.02-.07.06-1.02-.66-1-.71.45-.82.98-1.59,1.5-2.37.45.35.91.7,1.36,1.06Z"/>
      <path class="cls-63" d="M25.77,163.15c-.58.48-.99,1.09-1.44,1.12-.34.02-.71-.72-1.07-1.13.45-.35.85-.82,1.36-1,.19-.07.61.52,1.16,1.01Z"/>
      <path class="cls-89" d="M182.54,749.97c-.48.56-.73,1.09-1.07,1.16-.26.05-.7-.44-.92-.78-.07-.1.3-.7.5-.72.39-.04.81.17,1.49.35Z"/>
      <path class="cls-52" d="M459.92,246.95c-.6.31-1.09.77-1.38.66-.45-.17-.77-.71-1.14-1.09.34-.26.68-.75,1.01-.73.35.01.68.49,1.51,1.17Z"/>
      <path class="cls-57" d="M4.58,278.32c-.52.41-.87.9-1.21.9-.3,0-.88-.58-.84-.84.05-.35.53-.84.88-.9.29-.05.67.46,1.17.84Z"/>
      <path class="cls-32" d="M393.54,610.67c-.48.36-.85.85-1.13.8-.34-.06-.81-.53-.85-.87-.03-.25.52-.82.81-.81.34,0,.67.48,1.17.89Z"/>
      <path class="cls-7" d="M341.58,746.86c-.58-1.18-1.25-1.92-1.1-2.42.16-.55,1.07-.89,1.65-1.33.34.49,1.02,1.04.95,1.47-.11.64-.74,1.18-1.5,2.28Z"/>
      <path class="cls-57" d="M90.69,339.44c.36.5.85.88.8,1.17-.06.35-.57.62-.89.92-.29-.31-.82-.61-.82-.92,0-.34.49-.67.91-1.18Z"/>
      <path class="cls-8" d="M360.46,339.14c.47.38,1.14.8,1.09.9-.2.47-.61.85-.94,1.26-.31-.32-.82-.6-.88-.96-.05-.31.41-.71.73-1.2Z"/>
      <path class="cls-33" d="M705.59,735.66c-.49.39-.86.89-1.15.85-.35-.05-.83-.55-.87-.9-.03-.28.53-.86.83-.86.34,0,.68.49,1.19.9Z"/>
      <path class="cls-46" d="M75.5,419.39c-.51.4-.85.87-1.18.86-.29,0-.57-.54-.86-.83.31-.29.59-.77.93-.83.28-.04.63.43,1.11.8Z"/>
      <path class="cls-89" d="M623.66,733.47c.36.5.82.86.77,1.15-.05.34-.54.62-.84.93-.29-.3-.81-.6-.81-.9,0-.34.47-.67.87-1.19Z"/>
      <path class="cls-69" d="M172.31,467.39c-.69-.99-1.29-1.52-1.39-2.12-.06-.38.73-1.3,1-1.25.62.12,1.55.62,1.63,1.09.08.54-.61,1.2-1.24,2.28Z"/>
      <path class="cls-83" d="M42.75,596.43c-.69.42-1.13.84-1.63.92-.23.04-.87-.79-.81-.87.31-.45.74-.89,1.23-1.12.15-.07.62.52,1.22,1.07Z"/>
      <path class="cls-5" d="M293.54,472.76c-.36-.48-.83-.85-.78-1.12.07-.34.53-.79.87-.84.24-.03.8.52.8.81,0,.33-.48.65-.89,1.15Z"/>
      <path class="cls-62" d="M223.76,486.62c-.5.4-.84.86-1.17.86-.29,0-.84-.57-.8-.82.05-.34.52-.8.86-.86.27-.04.63.44,1.11.82Z"/>
      <path class="cls-91" d="M434.52,714.69c-.5.35-.88.82-1.17.77-.35-.06-.62-.56-.93-.86.3-.29.61-.82.91-.82.34,0,.67.49,1.19.91Z"/>
      <path class="cls-60" d="M77.21,493.22c.56.48,1.1.73,1.16,1.07.05.27-.45.7-.79.92-.1.07-.7-.3-.72-.51-.04-.39.17-.8.35-1.48Z"/>
      <path class="cls-84" d="M111.66,670.2c-.66.46-1.07.9-1.55,1.01-.23.05-.61-.53-.91-.82.38-.39.71-.88,1.17-1.12.17-.08.65.45,1.29.93Z"/>
      <path class="cls-37" d="M578.91,528.1c.51.58,1.01.95,1.19,1.44.07.21-.65.99-.81.93-.51-.17-1-.57-1.34-1-.08-.1.47-.69.96-1.37Z"/>
      <path class="cls-70" d="M422.64,543.01c-.65.05-1.21.26-1.46.07-.28-.21-.28-.79-.4-1.21.42-.1.95-.39,1.23-.23.3.16.37.75.63,1.37Z"/>
      <path class="cls-84" d="M211.06,643.84c.6-.52.98-1.01,1.46-1.18.23-.08,1,.64.96.73-.23.51-.58,1.02-1.03,1.33-.13.09-.7-.44-1.4-.89Z"/>
      <path class="cls-73" d="M159.13,645.77c-.68.46-1.23.99-1.37.9-.43-.28-.81-.77-.98-1.25-.05-.15.7-.86.92-.79.47.15.84.64,1.43,1.14Z"/>
      <path class="cls-18" d="M410.28,865.15c-.42-.69-.84-1.13-.92-1.63-.04-.24.58-.58.9-.87.37.41.85.77,1.06,1.24.08.18-.5.63-1.04,1.25Z"/>
      <path class="cls-23" d="M604.27,887.68c-1.36.54-1.94.98-2.5.94-.46-.03-1.21-.62-1.22-.98-.02-.44.52-1.15.96-1.29.37-.12.95.42,2.76,1.34Z"/>
      <path class="cls-86" d="M233.63,470.18c-.58.49-.95.97-1.42,1.13-.21.07-.96-.64-.91-.77.2-.49.57-.96,1-1.26.13-.09.67.44,1.33.9Z"/>
      <path class="cls-12" d="M311.47,995.22c.35.52.82.91.76,1.2-.07.36-.57.63-.88.95-.29-.32-.81-.64-.81-.96,0-.34.5-.67.93-1.19Z"/>
      <path class="cls-96" d="M511.06,1004.6l-.86-2.23.57-.45c.36.3.91.54,1.02.91.14.51-.06,1.11-.11,1.67-.21.04-.42.07-.63.11Z"/>
      <path class="cls-93" d="M611.91,10.04c-.76.67-1.25,1.41-1.58,1.35-.7-.14-1.31-.7-1.96-1.09.43-.52.83-1.43,1.29-1.45.61-.03,1.25.62,2.26,1.2Z"/>
      <path class="cls-79" d="M196.44,1039.26c-.68.06-1.25.27-1.51.08-.28-.21-.29-.8-.41-1.23.43-.09.96-.38,1.27-.23.3.15.38.75.65,1.38Z"/>
      <path class="cls-73" d="M222,126.64c-.66.47-1.06.92-1.55,1.04-.23.05-.61-.53-.93-.83.38-.4.71-.9,1.17-1.14.17-.09.66.45,1.31.93Z"/>
      <path class="cls-102" d="M211.66,788.76c-.46-.68-.92-1.1-1-1.59-.05-.27.54-.65.85-.98.4.39.91.72,1.13,1.19.09.19-.47.69-.98,1.37Z"/>
      <path class="cls-90" d="M593.56,1083.34c-.53.4-.88.87-1.23.86-.3,0-.86-.6-.82-.84.06-.35.54-.82.89-.87.29-.04.66.46,1.15.86Z"/>
      <path class="cls-66" d="M660.56,702.04c.52,1.19.91,1.7.91,2.21,0,.29-.63.81-.97.8-.34,0-.96-.55-.94-.84.02-.51.43-1.01,1-2.18Z"/>
      <path class="cls-54" d="M496.3,493.37c-.42-.72-.84-1.16-.9-1.65-.03-.26.56-.6.87-.9.36.41.84.77,1.01,1.24.08.22-.47.66-.99,1.32Z"/>
      <path class="cls-68" d="M177.53,745.64c.37.51.83.87.8,1.19-.03.32-.54.6-.84.9-.29-.31-.78-.61-.8-.93-.02-.32.45-.66.84-1.15Z"/>
      <path class="cls-32" d="M391.35,271.9c-.3-.62-.68-1.05-.59-1.32.1-.28.65-.46,1.03-.54.11-.02.51.51.46.67-.13.36-.47.65-.89,1.18Z"/>
      <path class="cls-50" d="M311.09,717.36c-.55.49-.9.97-1.37,1.14-.18.07-.93-.62-.88-.78.16-.49.54-.95.95-1.26.1-.08.66.45,1.29.9Z"/>
      <path class="cls-104" d="M432.45,468.93c-.81.58-1.31,1.2-1.73,1.15-.45-.05-1.16-.76-1.14-1.14.03-.44.7-1.1,1.17-1.17.39-.06.9.58,1.71,1.17Z"/>
      <path class="cls-15" d="M238.73,757.68c.23.66.58,1.18.45,1.43-.15.28-.74.38-1.15.41-.11,0-.44-.6-.36-.77.18-.35.56-.59,1.06-1.07Z"/>
      <path class="cls-38" d="M569.17,497.13c.52.46,1.08.75,1.07,1.01-.01.34-.46.7-.79.94-.08.06-.68-.31-.69-.5-.02-.39.2-.79.41-1.46Z"/>
      <path class="cls-70" d="M288.9,812.44c-.49.39-.84.86-1.14.84-.31-.02-.59-.53-.89-.83.3-.3.58-.8.9-.83.29-.03.64.44,1.13.82Z"/>
      <path class="cls-71" d="M344.74,814.63c.45.7.95,1.19.85,1.38-.24.48-.75.83-1.15,1.23-.28-.34-.84-.73-.78-.99.11-.49.58-.91,1.08-1.61Z"/>
      <path class="cls-13" d="M461.45,508.03c-1.01.43-1.5.8-1.99.8-.31,0-.93-.72-.86-.87.22-.49.65-1.15,1.08-1.21.38-.06.87.59,1.77,1.28Z"/>
      <path class="cls-98" d="M110.01,914.79c.45.99.96,1.57.86,2.02-.1.44-.81.74-1.25,1.11-.35-.48-.95-.95-.97-1.44,0-.42.65-.86,1.36-1.69Z"/>
      <path class="cls-75" d="M102.97,917.52c-.42.44-.71.76-1.01,1.07-.38-.38-.77-.75-1.15-1.13.33-.28.66-.78,1-.79.33-.01.68.48,1.16.85Z"/>
      <path class="cls-95" d="M386.39,843.52c-.51.39-.87.89-1.18.86-.33-.03-.85-.57-.84-.88,0-.31.53-.84.86-.86.32-.02.67.48,1.16.88Z"/>
      <path class="cls-62" d="M455.07,922.39c.21.63.55,1.14.42,1.36-.17.27-.72.37-1.12.39-.11,0-.44-.59-.36-.73.19-.34.57-.57,1.06-1.02Z"/>
      <path class="cls-22" d="M484.57,947.48c-.5.45-.81.94-1.18.98-.25.03-.84-.6-.8-.86.06-.36.52-.81.9-.91.24-.06.63.44,1.08.79Z"/>
      <path class="cls-100" d="M233.17,96.32c-1.03.61-1.61,1.07-2.27,1.28-.22.07-.97-.7-.93-.78.35-.62.75-1.31,1.32-1.65.22-.13.94.56,1.87,1.15Z"/>
      <path class="cls-72" d="M310.63,959.08c.39.52.88.89.84,1.19-.04.34-.57.61-.89.92-.3-.32-.81-.62-.83-.96-.03-.31.48-.65.88-1.15Z"/>
      <path class="cls-96" d="M372.61,514.51c-.65.22-1.16.57-1.38.43-.27-.17-.37-.73-.4-1.13,0-.11.59-.43.75-.35.34.18.57.56,1.03,1.05Z"/>
      <path class="cls-38" d="M60.39,854.65c-1.44.58-1.81.73-2.18.88-.15-.38-.38-.76-.41-1.16-.01-.13.48-.45.72-.42.43.05.84.29,1.87.69Z"/>
      <path class="cls-90" d="M690.57,722.05c-.63.22-1.16.57-1.37.43-.28-.18-.38-.74-.4-1.14,0-.12.6-.46.74-.37.34.19.57.58,1.03,1.08Z"/>
      <path class="cls-85" d="M514.43,997.4c.53.47,1.12.77,1.1,1.03-.02.35-.47.73-.82.98-.08.06-.69-.32-.7-.51-.02-.4.21-.82.42-1.51Z"/>
      <path class="cls-72" d="M631.79,631.36c.41.5.91.85.9,1.18-.02.32-.58.85-.88.84-.33-.02-.84-.53-.88-.87-.04-.29.48-.66.87-1.14Z"/>
      <path class="cls-4" d="M15.89,489.59c-.82.73-1.25,1.38-1.62,1.36-.42-.03-.9-.62-1.14-1.08-.08-.15.47-.91.76-.93.48-.04.99.3,2,.66Z"/>
      <path class="cls-15" d="M205.32,1029.65c-.62.27-1.08.64-1.33.53-.28-.12-.43-.68-.48-1.07-.02-.12.54-.5.69-.43.36.16.62.52,1.12.97Z"/>
      <path class="cls-78" d="M326.41,456.24c.58,1.46.97,1.98.84,2.2-.17.29-.74.43-1.15.47-.12.01-.46-.51-.43-.76.06-.44.31-.86.74-1.92Z"/>
      <path class="cls-61" d="M134.67,615.78c-.43.41-.91.99-1.01.93-.43-.25-.75-.69-1.11-1.06.33-.26.67-.73,1-.72.33,0,.66.48,1.12.85Z"/>
      <path class="cls-68" d="M190.95,1063.52c-.53.38-.9.85-1.22.82-.34-.03-.63-.55-.94-.85.32-.3.62-.81.96-.83.32-.02.68.46,1.2.85Z"/>
      <path class="cls-5" d="M141.57,739.53c-.66.22-1.17.56-1.4.42-.27-.16-.37-.73-.4-1.14,0-.11.6-.43.76-.35.34.18.58.56,1.04,1.07Z"/>
      <path class="cls-24" d="M534.71,671.14c.54.85,1.11,1.34,1.06,1.78-.04.44-.7.82-1.08,1.23-.39-.42-1.04-.81-1.09-1.26-.05-.42.55-.92,1.11-1.75Z"/>
      <path class="cls-18" d="M668.82,740.71c-.52.42-.87.92-1.21.92-.31,0-.87-.57-.86-.86.02-.34.53-.87.87-.9.32-.04.69.47,1.2.85Z"/>
      <path class="cls-88" d="M411.63,221.21c-.69.46-1.12.91-1.6.99-.27.04-.64-.55-.97-.86.39-.41.72-.93,1.19-1.16.17-.09.68.49,1.38,1.04Z"/>
      <path class="cls-57" d="M222.14,233.13c-.25.16-.52.46-.74.43-.21-.03-.35-.42-.53-.66.25-.16.52-.46.73-.43.21.03.35.42.53.66Z"/>
      <path class="cls-58" d="M8.57,892.65c-.23-.64-.54-1.09-.44-1.39.08-.25.66-.4,1.03-.44.13-.01.49.56.41.7-.17.36-.54.63-1.01,1.13Z"/>
      <path class="cls-53" d="M226.84,897.22c-.49.4-.82.88-1.15.88-.29,0-.85-.56-.81-.8.05-.35.5-.82.84-.89.27-.05.64.44,1.12.8Z"/>
      <path class="cls-67" d="M380.11,914c-.18.21-.36.41-.53.62-.25-.28-.5-.56-.75-.83.25-.13.51-.39.74-.36.2.03.37.37.55.58Z"/>
      <path class="cls-33" d="M650.49,258.66c.13-.27.26-.53.39-.79.25.15.65.27.7.47.06.22-.21.52-.34.79-.25-.15-.5-.31-.75-.46Z"/>
      <path class="cls-94" d="M575.48,278.72c-1.09.84-1.44,1.11-1.8,1.38-.34-.45-.67-.9-1.01-1.36.4-.21.79-.59,1.19-.6.44-.02.89.3,1.62.58Z"/>
      <path class="cls-6" d="M345.33,437.17c.4.28.64.44.88.61-.24.32-.45.67-.75.92-.06.05-.68-.35-.66-.46.08-.37.33-.7.53-1.07Z"/>
      <path class="cls-76" d="M186.35,475.66c-.19-.2-.38-.41-.58-.62.32-.21.64-.42.96-.63.13.25.4.55.34.75-.07.21-.45.33-.73.51Z"/>
      <path class="cls-57" d="M348.08,930.09c-.23-.18-.62-.34-.65-.54-.03-.21.29-.47.46-.71.23.18.62.34.65.55.03.21-.29.47-.46.71Z"/>
      <path class="cls-2" d="M290.19,527.86c.46,1.11.93,1.71.8,2.11-.13.41-.86.63-1.32.94-.25-.38-.74-.81-.68-1.14.09-.5.56-.93,1.2-1.91Z"/>
      <path class="cls-46" d="M365.53,955.36c-.12.26-.24.52-.37.77-.24-.15-.62-.25-.67-.45-.05-.21.2-.51.32-.76.24.15.48.29.72.44Z"/>
      <path class="cls-95" d="M470.97,533.02c.57.52,1.14,1.04,1.71,1.56-.26.18-.51.36-.77.55-.3-.72-.59-1.44-.89-2.16l-.05.06Z"/>
      <path class="cls-19" d="M525.98,549.46c.43-.36.76-.64,1.1-.91.31.43.61.85.92,1.28-.34.23-.73.7-1.02.64-.34-.07-.6-.58-.99-1.01Z"/>
      <path class="cls-68" d="M193.1,564.11c-.24-.13-.49-.26-.73-.39.21-.3.43-.61.64-.91.19.2.52.4.53.61.01.22-.28.46-.45.69Z"/>
      <path class="cls-29" d="M209.47,638.24c-.5.28-1.07.85-1.48.76-.42-.1-1.01-.93-.93-1.31.1-.47.78-1.06,1.28-1.13.57-.09,1.22.33,1.83.53l-.7,1.15Z"/>
      <path class="cls-8" d="M574.1,983.19c-.25-.15-.51-.31-.76-.46.26-.31.51-.61.77-.92.2.23.54.46.54.69,0,.23-.35.46-.55.68Z"/>
      <path class="cls-90" d="M655.07,994.9c.16.24.46.51.42.71-.04.2-.42.35-.65.52-.15-.24-.45-.51-.42-.72.03-.2.41-.35.64-.51Z"/>
      <path class="cls-85" d="M476.05,449.27c-.26.12-.53.24-.79.37-.11-.36-.23-.73-.34-1.09.29-.03.66-.19.85-.07.19.12.2.52.28.8Z"/>
      <path class="cls-66" d="M176.92,684.85c.21.16.42.32.63.48-.25.27-.5.53-.75.8-.15-.23-.42-.47-.4-.69.02-.21.34-.39.52-.59Z"/>
      <path class="cls-38" d="M7.58,756.62c-.22.17-.45.33-.67.5-.15-.24-.45-.49-.42-.7.03-.2.41-.34.63-.51.15.24.31.47.46.71Z"/>
      <path class="cls-11" d="M624.39,1003.51c.35.49.81.86.77,1.14-.05.34-.54.62-.84.92-.29-.3-.81-.6-.81-.89,0-.34.47-.67.88-1.17Z"/>
      <path class="cls-72" d="M471.02,532.97c-.76-.24-1.52-.47-2.28-.71.2-.33.39-.66.59-1,.55.59,1.09,1.18,1.64,1.76l.05-.06Z"/>
      <path class="cls-22" d="M597.68,1026.52c-.21.19-.42.39-.64.59-.21-.33-.43-.66-.64-.99.26-.13.57-.42.77-.35.22.07.33.46.51.75Z"/>
      <path class="cls-11" d="M236.7,772.4c-.17.23-.34.47-.5.7-.3-.25-.6-.5-.9-.74.32-.23.63-.46.95-.69.15.24.31.49.46.73Z"/>
      <path class="cls-26" d="M125.48,798.39c-.33.49-.58.86-.83,1.23-.41-.36-.91-.66-1.16-1.11-.08-.14.5-.88.85-.94.29-.05.69.47,1.14.82Z"/>
      <path class="cls-34" d="M295.15,810.31c.32.59.74,1.04.65,1.29-.11.31-.64.52-1.03.64-.1.03-.55-.52-.49-.69.12-.38.46-.68.88-1.24Z"/>
      <path class="cls-40" d="M650.85,1055.26c-.63-1.01-1.23-1.55-1.14-1.92.13-.51.73-.98,1.24-1.27.16-.09,1.01.5.97.64-.16.68-.52,1.31-1.07,2.54Z"/>
      <path class="cls-46" d="M192.93,848.11c-.18-.19-.52-.39-.52-.6,0-.2.35-.4.55-.6.19.2.55.41.54.61,0,.2-.36.39-.57.59Z"/>
      <path class="cls-48" d="M165.28,857.22c.23-.18.46-.37.69-.55.18.36.36.73.53,1.09-.28.09-.63.32-.83.23-.21-.09-.27-.5-.4-.77Z"/>
      <path class="cls-4" d="M173.17,132.17c.3.62.72,1.11.61,1.35-.14.32-.69.5-1.1.61-.1.03-.54-.56-.48-.72.15-.38.51-.69.97-1.24Z"/>
      <path class="cls-96" d="M508.52,149.4c.2.2.41.41.61.61-.21.2-.42.56-.62.55-.21,0-.41-.36-.61-.57.21-.2.41-.4.62-.59Z"/>
      <path class="cls-56" d="M205.46,766.89c.4,1.1.7,1.52.65,1.89-.06.35-.46.68-.78.93-.06.05-.65-.33-.64-.51,0-.39.24-.78.78-2.32Z"/>
      <path class="cls-17" d="M45.51,285.65c-.18-.38-.41-.73-.48-1.11-.02-.1.61-.46.68-.41.29.26.48.62.71.95-.25.16-.5.31-.9.57Z"/>
      <path class="cls-83" d="M571.02,886.15c-.28.44-.44.7-.61.96-.35-.26-.73-.49-1.02-.8-.05-.05.36-.72.49-.69.39.07.75.34,1.14.54Z"/>
      <path class="cls-46" d="M243.83,959.46c-.29.02-.57.03-.86.05.03-.28.04-.56.11-.82.01-.04.4-.07.44,0,.14.23.21.51.31.77Z"/>
      <path class="cls-3" d="M279.7,661.61c-.16.23-.32.45-.48.68-.21-.17-.58-.33-.58-.51-.01-.21.28-.44.45-.67.21.17.41.33.62.5Z"/>
      <path class="cls-64" d="M203.98,172.47c.56-.27,1-.66,1.32-.58.28.07.65.73.57,1.02-.09.31-.68.7-1,.66-.29-.04-.51-.6-.89-1.1Z"/>
      <path class="cls-6" d="M232.77,970.65c.2.18.4.36.59.54-.28.25-.56.5-.84.74-.12-.25-.36-.52-.32-.74.03-.21.36-.36.57-.54Z"/>
      <path class="cls-79" d="M599.1,738.28c-.19-.21-.52-.42-.5-.59.03-.21.34-.38.54-.56.17.19.49.4.47.57-.02.21-.33.39-.52.58Z"/>
      <path class="cls-57" d="M348.25,641.06c-.25.09-.54.3-.73.23-.18-.07-.26-.43-.38-.66.25-.09.54-.3.74-.23.18.06.26.43.38.66Z"/>
      <path class="cls-105" d="M34.63,933.93c-.26-.58-.62-1-.55-1.33.06-.29.6-.47.93-.69.22.35.64.72.6,1.03-.04.31-.54.56-.99.98Z"/>
      <path class="cls-66" d="M591.27,835.87c-.21-.16-.54-.29-.59-.49-.04-.17.24-.42.38-.63.21.16.54.29.58.48.04.17-.24.42-.37.64Z"/>
      <path class="cls-11" d="M493.97,1016.69c-.18.24-.31.62-.54.69-.18.05-.47-.28-.71-.44.17-.24.31-.62.53-.68.19-.05.48.27.72.43Z"/>
      <path class="cls-25" d="M602.59,119.47c-.17.47-.27.76-.37,1.05-.4-.15-.83-.26-1.18-.49-.07-.04.15-.79.25-.8.42-.01.85.13,1.3.23Z"/>
      <path class="cls-51" d="M56.56,698.58c.47.43.98.68,1.02,1,.04.33-.38.71-.59,1.07-.33-.23-.87-.42-.95-.72-.08-.32.27-.75.52-1.35Z"/>
      <path class="cls-43" d="M650.23,1067.82c.39.69.79,1.08.73,1.37-.08.36-.49.82-.84.9-.26.06-.96-.52-.93-.6.2-.5.55-.94,1.04-1.68Z"/>
      <path class="cls-101" d="M249.25,1050.11c-.27,0-.7.11-.81-.03-.15-.19-.05-.57-.06-.87.29,0,.71-.1.83.05.15.17.03.56.03.85Z"/>
      <path class="cls-79" d="M598.28,590.58c.23.17.46.35.69.52-.17.21-.34.6-.51.6-.23,0-.46-.29-.69-.46.17-.22.34-.44.52-.65Z"/>
      <path class="cls-12" d="M428.31,279.91c-.05.12-.08.28-.17.34-.08.05-.24-.02-.36-.03.08-.18.17-.37.25-.55.09.08.19.17.28.25Z"/>
      <path class="cls-57" d="M575.38,242.18c-.13.05-.27.15-.37.12-.1-.03-.16-.19-.24-.29.2-.07.39-.14.59-.21,0,.13.02.26.02.39Z"/>
      <path class="cls-49" d="M255.91,938.83c-.17-.39-.4-.75-.46-1.14-.02-.11.66-.47.71-.41.28.29.46.67.68,1.02-.26.15-.51.29-.93.53Z"/>
      <path class="cls-70" d="M534.23,193.21c-.12,0-.25.01-.37.02.06-.2.11-.39.17-.59.11.07.28.11.31.21.03.1-.07.24-.11.36Z"/>
      <path class="cls-42" d="M220.59,603.69c-.12.28-.23.55-.35.82-.27-.12-.69-.17-.78-.37-.08-.19.13-.68.32-.76.2-.08.53.19.81.3Z"/>
      <path class="cls-68" d="M662.95,600.56c.13.06.31.09.37.18.05.09-.02.26-.04.39-.2-.09-.4-.18-.6-.27.09-.1.18-.2.27-.3Z"/>
      <path class="cls-78" d="M384.95,153.36c-.1-.09-.2-.18-.31-.27.19-.11.39-.22.58-.33.04.14.13.3.09.4-.05.1-.24.14-.36.2Z"/>
      <path class="cls-54" d="M447.1,786.12c.4.27.88.51.85.58-.14.38-.4.72-.61,1.07-.26-.16-.74-.36-.73-.48.06-.39.3-.75.49-1.16Z"/>
      <path class="cls-27" d="M721.28,695.27c-.27.03-.53.07-.8.06-.03,0-.11-.32-.05-.44.05-.12.34-.27.36-.26.18.19.33.42.49.64Z"/>
      <path class="cls-14" d="M228.29,139.15c-.53-.34-.91-.58-1.29-.83.34-.44.68-.88,1.03-1.32.32.29.86.54.91.87.05.35-.36.76-.64,1.28Z"/>
      <path class="cls-65" d="M331.77,123.29c.41.17.89.33.88.39-.07.37-.25.72-.39,1.07-.26-.11-.74-.21-.74-.34-.02-.36.15-.73.25-1.12Z"/>
      <path class="cls-21" d="M504.73,1006.57c-.15-.22-.3-.44-.44-.66.31-.17.63-.33.94-.5.08.26.3.58.21.76-.09.2-.46.27-.71.39Z"/>
      <path class="cls-20" d="M722.61,871.77c-.15-.38-.36-.72-.4-1.09-.01-.11.61-.43.65-.38.26.28.44.64.65.97-.25.14-.5.28-.91.5Z"/>
      <path class="cls-102" d="M360.03,875.48c.18.21.35.41.52.62-.24.14-.48.29-.73.39-.04.02-.29-.28-.26-.34.12-.24.31-.45.47-.67Z"/>
      <path class="cls-55" d="M25.29,244.51c-.21.19-.43.38-.65.58-.2-.32-.41-.63-.61-.95.24-.14.55-.43.72-.37.22.08.34.45.54.75Z"/>
      <path class="cls-68" d="M229.35,404.03c-.09.1-.18.2-.26.3-.11-.19-.22-.38-.33-.57.13-.04.3-.13.39-.09.1.05.13.23.2.36Z"/>
      <path class="cls-1" d="M100.95,908.09c-.63.34-1,.54-1.37.73-.19-.39-.44-.76-.53-1.17-.02-.1.52-.5.69-.44.37.12.66.46,1.21.87Z"/>
      <path class="cls-63" d="M566.19,65.53c-.28-.12-.71-.18-.8-.39-.08-.19.19-.54.31-.82l.85.37c-.12.28-.24.56-.37.84Z"/>
      <path class="cls-57" d="M414.2,376.24c-.13,0-.25.01-.38.02.06-.2.12-.4.17-.6.11.07.29.12.32.21.03.1-.07.24-.12.37Z"/>
      <path class="cls-28" d="M513.13,361.63c.07.11.23.3.21.32-.16.16-.36.3-.54.44-.07-.11-.22-.3-.2-.32.16-.16.35-.3.54-.44Z"/>
      <path class="cls-74" d="M293.78,848.71c-.23.42-.38.67-.52.93-.33-.22-.7-.41-.95-.7-.06-.07.29-.71.39-.69.37.07.71.29,1.08.46Z"/>
      <path class="cls-41" d="M300.2,1070.61c-.25-.1-.5-.21-.75-.31.11-.25.16-.63.34-.7.18-.07.48.17.73.27-.11.25-.21.49-.32.74Z"/>
      <path class="cls-12" d="M17.24,493.14c-.12.05-.26.15-.37.12-.1-.03-.16-.19-.23-.29.19-.07.39-.14.58-.2,0,.13.01.25.02.38Z"/>
      <path class="cls-79" d="M450.69,475.83c.13-.05.27-.15.38-.12.1.03.16.19.24.3-.2.07-.4.14-.6.21,0-.13-.01-.26-.02-.39Z"/>
      <path class="cls-49" d="M181.96,464.13c.66-.41.99-.67,1.37-.8.08-.03.46.43.47.67,0,.26-.3.77-.39.75-.39-.07-.74-.3-1.45-.62Z"/>
      <path class="cls-103" d="M601.84,895.77c.12-.24.18-.61.36-.68.18-.07.47.17.72.28-.11.25-.23.5-.34.76-.24-.12-.49-.24-.73-.36Z"/>
      <path class="cls-87" d="M167.54,152.41c-.14.26-.23.66-.44.73-.22.08-.54-.16-.82-.27.13-.26.22-.67.41-.73.24-.07.57.16.86.26Z"/>
    </g>
  </g>
</svg>