<svg width="84" height="60" viewBox="0 0 84 60" fill="none" xmlns="http://www.w3.org/2000/svg">
<g clip-path="url(#clip0_16_8400)">
<path d="M53.9982 29.5379C54.6255 28.429 55.2516 27.3194 55.8769 26.214L56.2472 26.4274C56.2869 26.624 56.3253 26.82 56.3629 27.0201C55.748 28.2958 56.5952 27.5016 56.7228 27.8053C56.0835 29.189 56.2354 29.7416 56.7793 29.8107C57.2673 29.8711 57.3487 30.3407 56.806 31.5594C56.6897 31.8212 56.6865 32.0637 56.6305 32.3179C55.8933 33.4292 56.3158 32.0708 55.9613 32.3692C56.6936 31.1752 56.7218 30.6325 56.243 30.5446C56.0287 30.5056 55.8395 30.4201 55.6394 30.3565C55.4961 30.4055 55.3495 30.4573 55.2062 30.5062C55.4991 29.8952 55.7907 29.2834 56.1338 28.5651C55.5654 28.7497 55.0517 28.9422 55.5003 27.6412L48.1777 40.3518C48.1991 40.3689 48.2217 40.3866 48.2432 40.4037C48.4935 40.0547 48.7427 39.705 49.0285 39.306C49.1467 39.4774 49.18 39.7878 49.3655 39.7256C49.5362 39.6689 50.0249 39.1519 50.1029 38.9479C51.1225 36.2847 52.9789 33.9815 54.2707 31.4423C54.4595 31.0719 54.9737 30.0622 55.2075 30.5069C53.9799 32.5665 52.7725 34.6423 51.5168 36.6763C50.8618 37.7363 50.5076 38.6079 50.634 39.1505C50.7621 39.6987 50.9726 40.2381 51.9646 38.9729C52.0734 38.998 52.1843 39.0196 52.2931 39.0447C52.3623 39.0846 52.4326 39.1251 52.5018 39.1649C52.5388 39.2661 52.5759 39.3673 52.6129 39.4685C52.4125 39.6396 52.1784 39.8946 52.0208 39.9541C51.8554 40.0186 51.7403 39.7503 51.6434 39.8729C50.6473 41.131 50.5238 40.4492 50.18 40.2183C50.0478 40.1281 49.7827 40.2572 49.5608 40.3313C49.3671 40.3935 49.1378 40.5433 48.9413 40.6132C48.8049 40.6615 48.6391 40.5754 48.5814 40.6643C47.7089 42.0218 47.8121 40.9492 47.3514 41.3038C47.3447 41.2154 47.3381 41.127 47.3294 41.0422L49.2007 37.794C49.5218 37.2368 49.8428 36.6795 50.1638 36.1223C50.2434 35.9755 50.323 35.8288 50.4026 35.6821C51.287 34.167 52.1725 32.6526 53.0569 31.1375C53.3707 30.6043 53.6844 30.0711 53.9982 29.5379Z" fill="#141414"/>
<path d="M56.3628 27.0202C56.3232 26.8235 56.2848 26.6276 56.2472 26.4274L56.6176 26.6408C56.5337 26.7663 56.4487 26.8911 56.3628 27.0202Z" fill="#6B6B6B"/>
<path d="M50.1637 36.1223C49.8427 36.6795 49.5217 37.2368 49.2007 37.794C48.9867 37.6003 48.8012 37.3572 48.5568 37.2164C44.0576 34.6573 39.5593 32.0939 35.0459 29.5595C25.0884 23.9686 15.1219 18.396 5.16849 12.798C4.78747 12.5832 4.24235 12.5933 4.50626 11.416C4.85667 9.85165 5.46873 8.27835 6.66449 6.5481C7.90582 4.75015 9.07213 3.33643 10.0009 3.49099C10.2222 3.52924 10.4378 3.58302 10.6197 3.69251C18.263 8.26024 25.899 12.8378 33.5402 17.4091C40.2835 21.4442 47.0328 25.4687 53.7789 29.4961C53.8394 29.5309 53.9235 29.5277 53.9982 29.5379C53.6844 30.0711 53.3706 30.6043 53.0568 31.1376L52.9277 31.0021C50.9744 29.7406 49.0487 28.4339 47.0629 27.2288C41.4853 23.8417 35.8874 20.4899 30.2887 17.1424C27.8235 15.6705 25.3348 14.2367 22.8533 12.7931C18.4625 10.24 14.0627 7.7053 9.68816 5.12402C8.98116 4.70732 7.74142 5.82038 6.65433 7.69309C5.50628 9.67161 5.22801 11.1507 5.91905 11.5723C6.30306 11.8076 6.69236 12.0366 7.0845 12.2578C15.8223 17.146 24.5723 22.0131 33.298 26.9226C38.5944 29.8987 43.8522 32.9418 49.1417 35.9328C49.4244 36.0956 49.8209 36.061 50.1637 36.1223Z" fill="#5DDB6F"/>
<path d="M63.3245 48.6881C62.9464 48.3998 62.5906 48.0727 62.186 47.8302C60.1666 46.6293 58.1329 45.453 56.1033 44.2696C55.8996 44.1523 55.6972 44.0356 55.4675 43.9033C55.8095 43.1186 56.1383 42.4108 56.4127 41.7234C56.7874 40.779 56.5727 40.1527 56.0385 40.8032C54.0686 43.2007 53.9562 41.7033 53.2989 41.1461C53.653 40.4858 53.9921 39.8544 54.3312 39.223C54.5105 39.0774 54.6898 38.9317 54.867 38.7896C54.5798 39.371 54.2925 39.9523 53.9655 40.6142L54.5778 40.9669C56.1145 38.1883 57.6158 35.4738 59.1464 32.7057C58.9499 32.6301 58.7566 32.5517 58.5384 32.4682C58.0471 33.1669 57.5997 33.8064 57.1532 34.4416C57.0792 34.4131 57.0052 34.3846 56.9312 34.356C56.7829 34.2424 56.6346 34.1288 56.4876 34.0159C56.6217 33.7831 56.7545 33.5496 56.8894 33.3126C57.0464 33.3655 57.2046 33.4191 57.3846 33.4805C57.8432 32.8615 58.2964 32.2489 58.9003 31.4319C59.1854 31.5962 59.4518 31.8388 59.8005 31.927C60.2347 32.041 60.3619 32.4195 60.0243 33.545C59.8317 34.1903 60.0949 34.544 60.1546 35.0199C60.6304 34.4907 60.8748 34.2605 61.0992 33.9623C61.7573 33.0825 62.0723 33.0667 62.4031 33.2432C67.6194 36.0557 72.8602 38.826 78.0785 41.635C78.2727 41.7375 78.3146 42.1186 78.3754 42.4355C78.4282 42.7149 78.4052 43.0915 78.4208 43.5467C78.9416 42.8368 79.3117 42.3314 79.8333 41.6172C80.2518 41.8583 80.7821 41.9853 81.1094 42.4275C81.2639 42.6387 81.0296 43.4479 80.9558 44.1382C81.1226 44.1826 81.3983 44.2521 81.7437 44.3431L80.4881 46.5227C80.2182 46.8228 79.9482 47.123 79.6783 47.4231C80.0665 46.6979 80.458 45.9699 80.8352 45.2665L80.06 44.8199C80.8691 43.0501 80.8126 42.8484 79.4666 42.7447C79.0744 43.2656 78.6916 43.7732 78.31 44.2814L77.611 44.1277C77.623 43.5616 77.8408 42.6442 77.6115 42.4886C76.4986 41.7347 75.2645 41.1882 74.0744 40.5683C72.5463 39.796 71.0194 39.0244 69.4933 38.2486C69.3663 38.2036 69.2373 38.1621 69.1682 38.1364C68.6095 39.1063 68.1272 39.9605 67.6289 40.8055C66.4681 42.772 65.3031 44.7314 64.1373 46.695C63.8528 47.1746 63.5384 47.6746 63.9181 47.6349C63.7219 47.9869 63.5264 48.3347 63.3302 48.6867L63.3245 48.6881ZM61.044 42.8743L61.5051 42.1111C62.3282 40.7393 63.1514 39.3675 63.9746 37.9957C64.4012 37.3067 65.0087 36.6373 65.1334 35.5818L63.8209 37.8601L61.3282 41.9529C61.1664 42.2167 61.0066 42.4769 60.846 42.7414L59.5843 44.9315C59.6299 44.9579 59.6744 44.9835 59.72 45.0098C60.1621 44.2968 60.602 43.5873 61.0453 42.875L61.044 42.8743ZM61.212 40.1197C60.3757 41.5827 59.3552 42.9488 58.5795 44.4466C58.6367 44.4843 58.6919 44.5255 58.7491 44.5632C59.6269 43.1194 60.5059 41.6764 61.3837 40.2327C62.3468 38.655 63.312 37.0738 64.274 35.4954C64.2167 35.4436 64.1574 35.3953 64.1001 35.3435C63.1369 36.9353 62.1759 38.5236 61.2128 40.1155L61.212 40.1197ZM59.5874 33.4671C58.3122 34.4705 55.826 38.8488 55.3817 40.7959C56.8531 39.2949 58.8505 35.8422 59.5874 33.4671ZM65.8176 35.9384C65.5358 36.2505 65.332 36.4102 65.197 36.6331C63.6286 39.2243 62.0642 41.8226 60.5172 44.4309C60.3266 44.7532 60.229 45.148 60.0887 45.5087C60.3514 45.2467 60.676 45.0344 60.8658 44.7163C62.456 42.053 64.0228 39.3763 65.5879 36.6938C65.6874 36.521 65.7112 36.2999 65.8176 35.9384ZM56.488 43.2793C56.5362 43.3071 56.5843 43.3348 56.6325 43.3625C58.4479 40.3311 60.2621 37.299 62.2378 33.9982C61.9064 34.1737 61.7286 34.2027 61.6664 34.3078C59.9315 37.2964 58.2098 40.2879 56.4848 43.2821L56.488 43.2793ZM56.9968 43.6805C58.0929 42.48 62.1202 35.5322 62.3466 34.3944L56.9968 43.6805ZM67.8375 37.2242C67.7518 37.2359 67.6673 37.2483 67.5817 37.26C65.8558 40.39 64.1278 43.5235 62.4019 46.6535C62.4603 46.6777 62.5179 46.7062 62.5763 46.7304C64.3033 43.7326 66.0308 40.7398 67.7479 37.7363C67.8313 37.5917 67.8093 37.3958 67.8382 37.2199L67.8375 37.2242ZM58.0644 44.1734C58.1245 44.2174 58.1847 44.2615 58.2428 44.309C60.0995 41.2544 61.9563 38.1998 63.9919 34.849C63.6497 35.0606 63.4732 35.1045 63.4061 35.2209C61.6586 38.2256 59.7119 41.111 58.0624 44.1769L58.0644 44.1734ZM63.2036 34.8646C63.1517 34.8206 63.0997 34.7766 63.0511 34.7298C61.2009 37.4077 58.0469 42.8481 57.6095 44.2495C59.5728 40.9557 61.3895 37.9109 63.2048 34.8653L63.2036 34.8646ZM67.1727 37.1137C65.2831 40.1681 63.4631 43.2674 61.949 46.4864C63.9422 43.4776 65.469 40.2564 67.1727 37.1137ZM63.3098 47.1154C63.3666 47.1481 63.4246 47.1815 63.4834 47.2107C65.2396 44.1452 67.067 41.1159 68.7479 38.007C68.6997 37.9793 68.6516 37.9515 68.6026 37.928L63.3098 47.1154ZM66.2838 36.5875C64.7449 38.5851 61.186 44.8397 60.7939 46.1169L66.2838 36.5875ZM57.2602 40.0039L59.8264 35.5495C59.619 35.4958 59.4514 35.4556 59.292 35.4154C57.7019 38.1602 57.0247 39.6897 57.2602 40.0039ZM66.7029 37.0074C64.9015 39.5349 61.7728 44.9429 61.2637 46.4487L66.7029 37.0074ZM64.6546 35.865C64.599 35.8188 64.5442 35.7684 64.4885 35.7223C62.6773 38.7092 60.8682 41.6926 59.0582 44.6802C59.1163 44.7277 59.1724 44.7788 59.2305 44.8264C61.0392 41.8381 62.8492 38.8505 64.6559 35.8657L64.6546 35.865ZM56.7385 41.6715C56.7891 41.7007 56.8397 41.7298 56.8904 41.759L60.7508 35.058C59.195 37.1164 57.927 39.3687 56.7385 41.6715ZM68.1966 37.8679L68.1337 37.8317L62.9383 46.8497C62.9593 46.8618 62.9803 46.8739 63.0033 46.8825L68.1966 37.8679Z" fill="#141414"/>
<path d="M80.0567 44.8227C80.295 44.96 80.532 45.0965 80.832 45.2694C80.4547 45.9727 80.0645 46.7015 79.675 47.426C79.5406 47.6679 79.4049 47.9092 79.2704 48.1511C79.2065 48.4619 79.1446 48.7691 79.0819 49.0806C78.9868 49.2513 78.8918 49.422 78.7947 49.5963C78.2603 49.4763 77.9211 50.5961 77.522 51.2118C77.0766 51.8993 76.6592 52.6265 76.2299 53.3375L76.2071 53.3572C76.097 53.477 75.9901 53.5939 75.88 53.7137C75.6282 53.7283 75.3732 53.7458 75.1214 53.7605C74.6901 53.5073 74.2596 53.2499 73.8284 52.9967C73.7923 52.774 73.755 52.5505 73.7189 52.3277C74.0654 51.9261 74.4119 51.5244 74.7584 51.1228C75.1809 50.7603 75.6035 50.3977 76.0261 50.0352C76.2718 50.1768 76.5174 50.3183 76.7598 50.4626C77.5212 49.6377 78.0402 48.6825 78.3852 47.6271C78.1586 47.5153 77.9352 47.4007 77.7086 47.2889C77.4706 47.2082 77.2339 47.1282 76.9286 47.0274L76.0183 48.6075C75.8409 48.3503 75.6656 48.0895 75.4895 47.833C76.1973 46.6015 76.9072 45.3664 77.6151 44.1348L77.6064 44.1298C77.8365 44.1872 78.0693 44.2368 78.3034 44.2871C78.8865 44.468 79.4716 44.6454 80.0547 44.8263L80.0567 44.8227Z" fill="#636363"/>
<path d="M69.3537 51.4567C68.5467 52.6265 67.7371 53.7948 66.9318 54.9702C66.7148 55.2867 66.5079 55.6232 66.18 56.1295C65.5899 55.7895 65.0175 55.4645 64.4492 55.1324C63.3258 54.471 62.2043 53.8062 61.0829 53.1413C61.1919 53.0491 61.3022 52.9576 61.4092 52.869C61.5483 52.733 61.7269 52.6199 61.8204 52.4576C62.4154 51.4335 62.9938 50.3951 63.5765 49.3638C63.6083 49.4056 63.6413 49.4482 63.6752 49.4865C63.5065 49.7792 63.3055 50.0767 63.175 50.3632C62.8511 51.0738 61.8515 52.2125 62.3861 52.389C62.8143 52.5276 63.2413 51.247 63.6747 50.6089C63.6955 50.5785 63.6843 50.4923 63.6881 50.4287C63.3169 50.896 62.9637 51.3407 62.6072 51.7883C62.9912 50.962 63.3358 50.221 63.6805 49.4801C63.9348 49.481 64.2379 49.3973 64.4333 49.5005C65.498 50.0669 66.5363 50.6791 67.5835 51.273L65.6614 54.6094C66.5902 53.3454 67.2776 52.412 67.9649 51.4787C68.0846 51.5476 68.2056 51.6173 68.3254 51.6863C68.3653 51.714 68.4053 51.7417 68.4432 51.773C68.6755 51.578 68.9066 51.3823 69.139 51.1874C69.2112 51.276 69.2835 51.3646 69.3558 51.4532L69.3537 51.4567ZM67.1102 51.7378C67.0668 51.6847 67.0222 51.6308 66.9789 51.5776L65.4285 54.0149C65.464 54.0588 65.5003 54.0985 65.5358 54.1425C66.0602 53.3407 66.5858 52.5396 67.1082 51.7414L67.1102 51.7378ZM67.925 51.6906C67.2248 52.8091 66.7083 53.6342 66.1918 54.4593C66.7599 53.8471 67.2519 53.1159 67.7372 52.3762C67.7836 52.3043 67.7948 52.1792 67.925 51.6906ZM64.5593 53.4202C64.5645 53.5594 64.5719 53.6952 64.5771 53.8344C64.8341 53.4939 65.0928 53.1591 65.3464 52.8073C65.3725 52.7707 65.3652 52.6491 65.3863 52.4498C65.0985 52.7867 64.8279 53.1052 64.5593 53.4202ZM62.8072 52.6456C62.8738 52.684 62.9405 52.7224 63.0039 52.7637C63.3738 52.0702 63.7437 51.3767 64.1157 50.6797L64.0174 50.6419C63.6145 51.307 63.2096 51.9756 62.808 52.6414L62.8072 52.6456ZM65.6596 51.339C65.6183 51.2964 65.5771 51.2539 65.5379 51.2078C65.1289 51.8835 64.7187 52.5584 64.3097 53.2341C64.3389 53.2604 64.3674 53.2908 64.3967 53.3171C64.8176 52.6577 65.2386 51.9984 65.6596 51.339ZM65.2839 50.9065C65.2642 50.8951 65.2432 50.883 65.2235 50.8717L63.9719 53.0442C63.9916 53.0556 64.0126 53.0676 64.0323 53.079L65.2839 50.9065ZM65.0356 53.8919C65.0658 53.928 65.0972 53.9649 65.1273 54.0011C65.4017 53.5532 65.6762 53.1054 65.9519 52.6582C65.93 52.6362 65.9114 52.6114 65.8896 52.5895C65.6036 53.0259 65.3196 53.4589 65.0336 53.8954L65.0356 53.8919ZM66.2755 50.9892C66.1111 51.1717 65.9723 51.2843 65.9228 51.3873C65.8526 51.5348 65.8501 51.6789 65.8173 51.8244C65.9119 51.7286 66.0366 51.6407 66.0971 51.53C66.1718 51.3945 66.1956 51.2391 66.2742 50.9885L66.2755 50.9892ZM63.6645 52.7215C63.6224 52.8288 63.5506 52.9706 63.5521 53.0278C63.5553 53.0766 63.6403 53.0317 63.6891 53.0269C63.7267 52.9217 63.7887 52.7884 63.7908 52.7191C63.7926 52.6732 63.7088 52.7188 63.6625 52.725L63.6645 52.7215Z" fill="#141414"/>
<path d="M69.3536 51.4569C69.2814 51.3683 69.2091 51.2797 69.1368 51.1911L69.1118 51.2002C69.4919 50.4092 69.8834 49.6154 70.2413 48.8258C70.2932 48.7101 70.1889 48.6171 70.1543 48.5173C70.327 48.2175 70.4997 47.9178 70.6712 47.6173C70.7853 47.6219 70.8981 47.6258 71.0142 47.627C70.9847 49.813 71.7136 50.8624 73.0748 50.9655C73.0982 51.0447 73.1204 51.1233 73.1458 51.199L73.1632 51.674C72.7739 51.7504 72.3838 51.831 71.9945 51.9074C71.8007 51.8614 71.6256 51.723 71.2744 52.5353C70.8341 52.2863 70.3918 52.0409 69.9515 51.7919C69.956 51.4845 69.9731 51.1608 69.9397 50.902C69.9354 50.8808 69.5943 51.2761 69.4103 51.4755L69.3592 51.5071L69.3557 51.4534L69.3536 51.4569Z" fill="#6B6B6B"/>
<path d="M68.443 51.7732C68.4031 51.7455 68.3632 51.7177 68.3253 51.6865C68.2055 51.6175 68.0845 51.5478 67.9648 51.4788C67.2774 52.4122 66.5913 53.3463 65.6613 54.6096L67.5814 51.2767C67.6362 51.1815 67.6973 51.0899 67.7459 50.9911C67.761 50.9621 67.7484 50.9126 67.7311 50.9027C66.4621 50.1857 65.1931 49.4687 63.9233 48.756C63.698 48.9644 63.3991 49.1351 63.2626 49.3806C62.6204 50.5325 62.0221 51.7051 61.409 52.8691C61.3 52.9614 61.1898 53.0528 61.0828 53.1415C61.349 52.548 61.5858 51.9516 61.8853 51.3632C62.3407 50.47 62.842 49.5798 63.3245 48.6881C63.5207 48.3361 63.7161 47.9884 63.9123 47.6364C63.9869 47.5525 64.0615 47.4687 64.1394 47.382C64.3626 47.5341 64.587 47.6868 64.8101 47.8389C64.8965 48.0343 64.9321 48.3178 65.0795 48.4074C66.3519 49.164 67.6435 49.8845 68.9322 50.6129C68.902 50.7739 68.8737 50.9315 68.8446 51.0932L68.4463 51.7703L68.443 51.7732Z" fill="#292929"/>
<path d="M54.865 38.7931C54.6857 38.9388 54.5064 39.0845 54.3291 39.2266C53.9045 38.9819 53.7656 38.1128 52.6149 39.4651C52.5779 39.3639 52.5408 39.2626 52.5038 39.1614C52.9697 38.4669 53.4379 37.6798 53.8781 37.6891L54.7299 38.1798L56.9324 34.3568C57.0064 34.3853 57.0804 34.4138 57.1544 34.4424C56.3919 35.8914 55.6307 37.3412 54.8682 38.7903L54.865 38.7931Z" fill="#292929"/>
<path d="M56.8874 33.3162C56.7533 33.5489 56.6204 33.7824 56.4855 34.0194C56.3474 33.968 56.2113 33.9131 56.0744 33.8625C55.6479 33.2785 55.5718 33.3193 54.6823 34.8548C53.876 36.2458 53.0895 37.6481 52.2931 39.0448C52.1843 39.0196 52.0734 38.998 51.9645 38.9729C52.2302 38.4918 52.4966 38.0065 52.7623 37.5254C53.8269 35.8088 54.8947 34.0894 55.9593 32.3728C56.3157 32.0709 55.8932 33.4293 56.6284 32.3215C56.7152 32.6533 56.8006 32.9844 56.8853 33.3197L56.8874 33.3162Z" fill="#292929"/>
<path d="M71.9946 51.9074C72.3838 51.831 72.7739 51.7504 73.1632 51.674L73.2102 51.7152C73.3815 51.9173 73.5496 52.1221 73.7209 52.3242C73.757 52.5469 73.7943 52.7704 73.8304 52.9932C73.5778 53.4489 73.3218 53.9074 73.0692 54.3631C73.0138 54.3735 72.9634 54.3726 72.919 54.3612L72.8765 54.3179C73.0235 54.0456 73.1726 53.7698 73.3196 53.4975C73.2941 53.4875 73.2666 53.481 73.2411 53.471C73.0785 53.739 72.9158 54.007 72.7532 54.2751L72.04 54.7425C72.2545 54.3588 72.4722 53.9723 72.6867 53.5885C73.1288 52.4387 72.3169 53.2486 72.1928 52.9846C72.0633 52.924 71.9337 52.8635 71.8062 52.7994C71.869 52.5021 71.9318 52.2047 71.9946 51.9074Z" fill="#3D3D3D"/>
<path d="M72.9157 54.364C72.9601 54.3754 73.0106 54.3763 73.0659 54.3659C73.5073 54.747 73.773 55.553 75.1202 53.7597C75.372 53.7451 75.627 53.7276 75.8788 53.7129C75.8573 53.9072 75.8391 54.0987 75.8176 54.293C75.2324 54.698 74.6427 55.1193 74.0656 55.4961C73.8718 55.6241 73.6632 55.7294 73.5387 55.6999C73.1178 55.603 72.7309 55.4412 72.3318 55.3005C72.5278 54.986 72.7218 54.675 72.9178 54.3604L72.9157 54.364Z" fill="#1A1A1B"/>
<path d="M75.8175 54.293C75.839 54.0987 75.8573 53.9072 75.8788 53.7129C75.9889 53.5931 76.0957 53.4762 76.2058 53.3564L76.2287 53.3367C76.658 52.6258 77.0753 51.8985 77.5207 51.211C77.9198 50.5954 78.2591 49.4756 78.7934 49.5955C77.9806 51.0578 77.1657 52.5237 76.3541 53.9867C76.2512 54.0825 76.1476 54.1825 76.0447 54.2782C75.9688 54.2815 75.8922 54.289 75.8163 54.2923L75.8175 54.293Z" fill="#141414"/>
<path d="M79.2684 48.1546C79.4028 47.9127 79.5385 47.6714 79.673 47.4295C79.9429 47.1293 80.2128 46.8292 80.4828 46.529C80.1537 47.1145 79.8266 47.6965 79.4976 48.282C79.4223 48.2386 79.3437 48.198 79.2663 48.1582L79.2684 48.1546Z" fill="#1A1A1B"/>
<path d="M71.9946 51.9073C71.9318 52.2047 71.869 52.502 71.8062 52.7994C71.6285 52.7111 71.4521 52.6235 71.2764 52.5317C71.6256 51.723 71.8027 51.8579 71.9966 51.9038L71.9946 51.9073Z" fill="#141414"/>
<path d="M69.4083 51.479C69.5942 51.2761 69.9354 50.8808 69.9376 50.9056C69.9722 51.1651 69.9539 51.488 69.9494 51.7955C69.768 51.6909 69.5877 51.5871 69.4062 51.4825L69.4083 51.479Z" fill="#141414"/>
<path d="M79.2684 48.1546C79.3437 48.198 79.4222 48.2385 79.4996 48.2784C79.3603 48.5458 79.2191 48.8167 79.0798 49.0841C79.1438 48.7733 79.2057 48.4661 79.2684 48.1546Z" fill="#141414"/>
<path d="M50.1638 36.1223C49.8201 36.0653 49.4257 36.0964 49.1417 35.9328C43.8534 32.9426 38.5956 29.8994 33.298 26.9226C24.5703 22.0167 15.8223 17.1461 7.08452 12.2578C6.69238 12.0366 6.30308 11.8076 5.91907 11.5723C5.2268 11.15 5.5063 9.67163 6.65435 7.69311C7.74021 5.81969 8.98118 4.70734 9.68819 5.12405C14.0607 7.70885 18.4625 10.24 22.8534 12.7931C25.3348 14.2367 27.8256 15.667 30.2887 17.1424C35.8887 20.4907 41.4866 23.8425 47.0629 27.2288C49.0488 28.4339 50.9744 29.7406 52.9277 31.0021C52.0871 32.5612 51.2452 34.1195 50.4026 35.6821C50.323 35.8289 50.2434 35.9756 50.1638 36.1223Z" fill="#BEF8C7"/>
<path d="M55.2062 30.5063C54.9736 30.0623 54.4582 31.0712 54.2694 31.4416C52.9776 33.9808 51.1212 36.2841 50.1016 38.9472C50.0236 39.1512 49.535 39.6683 49.3642 39.7249C49.1787 39.7872 49.1454 39.4768 49.0272 39.3053C48.7414 39.7043 48.4923 40.054 48.2419 40.403C48.2205 40.386 48.1978 40.3682 48.1764 40.3512L55.499 27.6405C55.0504 28.9416 55.5641 28.749 56.1325 28.5644C55.7894 29.2828 55.4965 29.8938 55.2049 30.5056L55.2062 30.5063Z" fill="#868686"/>
<path d="M55.9593 32.3728C54.8947 34.0894 53.8269 35.8088 52.7623 37.5254C52.4357 37.5157 52.1124 37.5033 51.7034 37.4884C52.2639 36.3927 52.6869 35.5043 53.1675 34.6445C53.9718 33.2054 54.8153 31.7842 55.6382 30.3558C55.8395 30.4202 56.0287 30.5057 56.2418 30.5439C56.7218 30.6325 56.6923 31.1745 55.9601 32.3686L55.9593 32.3728Z" fill="#868686"/>
<path d="M55.6382 30.3558C54.8128 31.7828 53.9706 33.2047 53.1675 34.6444C52.6869 35.5043 52.2672 36.3899 51.7034 37.4884C52.1112 37.5026 52.4378 37.5122 52.7623 37.5254C52.4967 38.0065 52.2302 38.4918 51.9646 38.9729C50.9726 40.2381 50.7621 39.6988 50.634 39.1505C50.5076 38.608 50.8617 37.7363 51.5168 36.6763C52.7724 34.6423 53.9798 32.5665 55.2074 30.507C55.3508 30.458 55.4961 30.4055 55.6406 30.3573L55.6382 30.3558Z" fill="#6B6B6B"/>
<path d="M52.2918 39.044C53.087 37.6467 53.8735 36.2443 54.681 34.8541C55.5718 33.3192 55.6487 33.2743 56.0732 33.8617C55.3401 35.1399 54.6079 36.4138 53.8748 37.6919C53.4346 37.6825 52.9664 38.4697 52.5005 39.1642C52.4313 39.1244 52.361 39.0839 52.2918 39.044Z" fill="#3D3D3D"/>
<path d="M64.1374 47.3855C64.0628 47.4694 63.9882 47.5532 63.9103 47.6399C63.5306 47.6795 63.845 47.1795 64.1295 46.6999C65.2953 44.7363 66.4603 42.7769 67.6211 40.8105C68.1194 39.9655 68.6017 39.1112 69.1604 38.1414C69.2283 38.1663 69.3585 38.2085 69.4855 38.2535C69.4831 38.4118 69.4205 38.6717 69.4852 38.7136C70.8062 39.5029 72.1322 40.2808 73.4857 41.0137C73.5684 41.0613 73.8694 40.7274 74.0667 40.5733C75.258 41.1938 76.492 41.7404 77.6037 42.4935C77.833 42.6491 77.6153 43.5665 77.6032 44.1326L77.6118 44.1376C77.3548 44.3982 77.0401 44.6162 76.8438 44.9399C76.1518 46.0726 75.5026 47.2393 74.835 48.3954C74.7495 48.5294 74.6662 48.6599 74.582 48.7946C74.0789 49.5194 73.5779 50.2407 73.0748 50.9655C71.7136 50.8624 70.9847 49.813 71.0142 47.627C71.1001 47.3665 71.1873 47.1067 71.2733 46.8462C71.2751 46.6546 71.2749 46.4666 71.278 46.2758C71.2987 46.0059 71.4242 45.5568 71.325 45.4949C70.1161 44.7421 68.8828 44.0316 67.6252 43.3635C67.5227 43.3044 67.198 43.6341 66.9777 43.7796C66.6226 43.7253 66.2397 44.153 65.7909 44.9748C65.453 45.5928 65.074 46.1965 64.7143 46.8066C64.5217 47.001 64.3291 47.1954 64.1366 47.3898L64.1374 47.3855Z" fill="#868686"/>
<path d="M54.865 38.7931C55.6274 37.344 56.3887 35.8942 57.1511 34.4451C57.5997 33.8064 58.0462 33.1711 58.5363 32.4717C58.7546 32.5552 58.949 32.6343 59.1443 32.7092C57.6117 35.4808 56.1104 38.1953 54.5757 40.9704L53.9634 40.6177C54.2904 39.9559 54.5777 39.3745 54.865 38.7931Z" fill="#868686"/>
<path d="M59.5874 33.4671C58.8505 35.8422 56.8531 39.295 55.3817 40.7959C55.826 38.8488 58.3122 34.4705 59.5874 33.4671Z" fill="#636363"/>
<path d="M65.8175 35.9383C65.7092 36.3034 65.6886 36.5217 65.5878 36.6938C64.0235 39.372 62.456 42.053 60.8658 44.7163C60.6759 45.0344 60.3514 45.2467 60.0886 45.5087C60.229 45.148 60.3253 44.7525 60.5172 44.4309C62.0654 41.8233 63.6298 39.225 65.197 36.6331C65.332 36.4102 65.5358 36.2505 65.8175 35.9383Z" fill="#636363"/>
<path d="M53.8749 37.6919C54.6079 36.4138 55.3402 35.1399 56.0732 33.8618C56.2113 33.9131 56.3474 33.968 56.4843 34.0187C56.6326 34.1323 56.7809 34.2459 56.9279 34.3589L54.7255 38.1819L53.8737 37.6912L53.8749 37.6919Z" fill="#515151"/>
<path d="M56.488 43.2793C58.213 40.285 59.9335 37.2929 61.6697 34.305C61.7306 34.1992 61.9085 34.1701 62.241 33.9953C60.2634 37.2997 58.45 40.3276 56.6357 43.3597C56.5876 43.332 56.5394 43.3042 56.4913 43.2765L56.488 43.2793Z" fill="#6B6B6B"/>
<path d="M56.9968 43.6805L62.3465 34.3944C62.1201 35.5322 58.0929 42.48 56.9968 43.6805Z" fill="#6B6B6B"/>
<path d="M74.0687 40.5697C73.8714 40.7238 73.5725 41.0542 73.4878 41.0101C72.1342 40.2773 70.8083 39.4993 69.4872 38.7101C69.4205 38.6717 69.4851 38.4083 69.4876 38.2499C71.0157 39.0223 72.5426 39.7939 74.0687 40.5697Z" fill="#9E9E9E"/>
<path d="M67.8374 37.2242C67.8105 37.3965 67.8292 37.5952 67.7471 37.7405C66.0308 40.7398 64.3025 43.7369 62.5755 46.7347C62.5171 46.7104 62.4595 46.682 62.4011 46.6577C64.127 43.5277 65.855 40.3942 67.5809 37.2643C67.6665 37.2526 67.751 37.2401 67.8367 37.2284L67.8374 37.2242Z" fill="#636363"/>
<path d="M58.0644 44.1734C59.714 41.1075 61.6594 38.2214 63.4082 35.2173C63.4732 35.1045 63.6518 35.057 63.994 34.8455C61.9571 38.1956 60.1016 41.2509 58.2448 44.3055C58.1847 44.2615 58.1245 44.2174 58.0664 44.1699L58.0644 44.1734Z" fill="#636363"/>
<path d="M63.2036 34.8646C61.3882 37.9101 59.5728 40.9557 57.6082 44.2488C58.0456 42.8473 61.1996 37.4069 63.0498 34.729C63.1017 34.7731 63.1537 34.8171 63.2023 34.8639L63.2036 34.8646Z" fill="#6B6B6B"/>
<path d="M67.1727 37.1137C65.469 40.2564 63.9421 43.4776 61.9489 46.4865C63.4631 43.2674 65.2831 40.1681 67.1727 37.1137Z" fill="#636363"/>
<path d="M63.3098 47.1154L68.6026 37.928C68.6508 37.9558 68.6989 37.9835 68.7479 38.007C67.067 41.116 65.2396 44.1452 63.4834 47.2107C63.4266 47.178 63.3686 47.1446 63.3098 47.1154Z" fill="#636363"/>
<path d="M66.2838 36.5875L60.7959 46.1134C61.188 44.8362 64.7469 38.5816 66.2858 36.584L66.2838 36.5875Z" fill="#6B6B6B"/>
<path d="M57.2602 40.0039C57.0239 39.6892 57.7011 38.1598 59.292 35.4155C59.4514 35.4556 59.6202 35.4965 59.8264 35.5495L57.2602 40.0039Z" fill="#868686"/>
<path d="M66.7029 37.0074L61.2637 46.4487C61.7707 44.9464 64.8994 39.5384 66.7029 37.0074Z" fill="#6B6B6B"/>
<path d="M80.0567 44.8227C79.4737 44.6418 78.8886 44.4645 78.3055 44.2836C78.6883 43.776 79.0699 43.2678 79.4621 42.7468C80.8081 42.8506 80.8659 43.0529 80.0555 44.822L80.0567 44.8227Z" fill="#868686"/>
<path d="M64.6546 35.865C62.8459 38.8533 61.036 41.8409 59.2293 44.8257C59.1712 44.7781 59.1151 44.727 59.057 44.6795C60.8682 41.6926 62.6774 38.7092 64.4873 35.7216C64.5429 35.7677 64.5978 35.8181 64.6534 35.8642L64.6546 35.865Z" fill="#515151"/>
<path d="M56.7385 41.6715C57.9258 39.368 59.195 37.1164 60.7508 35.058L56.8903 41.759C56.8397 41.7298 56.7891 41.7007 56.7385 41.6715Z" fill="#9E9E9E"/>
<path d="M68.1959 37.8675L63.0026 46.8821C62.9818 46.8701 62.9611 46.8582 62.9383 46.8497L68.1316 37.8352L68.1938 37.871L68.1959 37.8675Z" fill="#6B6B6B"/>
<path d="M61.212 40.1197C62.1751 38.5279 63.1362 36.9396 64.0993 35.3477C64.1566 35.3995 64.2159 35.4478 64.2732 35.4996C63.31 37.0773 62.3448 38.6586 61.3829 40.237C61.3256 40.1993 61.2684 40.1616 61.212 40.1197Z" fill="#6B6B6B"/>
<path d="M61.212 40.1197C61.2692 40.1574 61.3264 40.195 61.3829 40.237L58.7483 44.5674C58.6911 44.5297 58.6359 44.4885 58.5787 44.4509C59.3544 42.9531 60.375 41.5869 61.2112 40.124L61.212 40.1197Z" fill="#868686"/>
<path d="M63.9713 37.9985C63.1481 39.3703 62.325 40.7422 61.5018 42.114C61.4432 42.0615 61.3835 42.0082 61.3249 41.9557C62.1547 40.5924 62.9858 39.2298 63.8176 37.863C63.8695 37.907 63.9194 37.9545 63.9713 37.9985Z" fill="#868686"/>
<path d="M63.9714 37.9985C63.9194 37.9545 63.8695 37.907 63.8176 37.863L65.1302 35.5847C65.0055 36.6402 64.3979 37.3095 63.9714 37.9985Z" fill="#636363"/>
<path d="M61.044 42.8743L59.7188 45.0091C59.6731 44.9828 59.6287 44.9572 59.583 44.9308L60.8448 42.7407C60.9119 42.784 60.9769 42.8309 61.044 42.8743Z" fill="#868686"/>
<path d="M61.044 42.8743C60.9769 42.831 60.9118 42.7841 60.8447 42.7407C61.0066 42.4769 61.1664 42.2167 61.3269 41.9522C61.3855 42.0047 61.4453 42.058 61.5038 42.1105C61.3505 42.3651 61.196 42.619 61.0428 42.8736L61.044 42.8743Z" fill="#515151"/>
<path d="M76.7598 50.4626C76.5142 50.3211 76.2685 50.1796 76.0261 50.0352C75.695 49.6425 76.1839 48.8109 76.6413 48.0598C77.1224 47.5102 77.1063 48.4827 77.7086 47.2889C77.9352 47.4007 78.1586 47.5153 78.3852 47.627C77.8432 48.5736 77.3019 49.516 76.7598 50.4626Z" fill="#868686"/>
<path d="M73.7176 52.327C73.5463 52.1249 73.3782 51.92 73.2069 51.718C73.8655 51.0171 74.3418 50.1875 74.6669 49.2522C74.799 49.0229 74.9335 48.7951 75.0688 48.5631L75.0854 48.5115C75.3831 48.5656 75.3856 48.8724 74.9161 49.6588C74.6189 50.1546 74.3642 50.6796 74.0909 51.1939C74.1365 51.206 74.1813 51.2224 74.2269 51.2346C74.7146 50.5621 75.2044 49.886 75.6934 49.2141C75.3839 49.8484 75.0711 50.4856 74.7616 51.1199C74.4151 51.5216 74.0686 51.9232 73.7221 52.3248L73.7176 52.327Z" fill="#9E9E9E"/>
<path d="M75.1202 53.7597C73.773 55.553 73.5073 54.747 73.0659 54.3659C73.3185 53.9102 73.5745 53.4517 73.8271 52.996C74.2584 53.2491 74.6889 53.5065 75.1202 53.7597Z" fill="#868686"/>
<path d="M74.7571 51.122C75.0667 50.4877 75.3795 49.8506 75.689 49.2163C75.7999 49.0124 75.9075 48.8113 76.0183 48.6074L76.9286 47.0274C77.2339 47.1282 77.4706 47.2082 77.7086 47.2889C77.1064 48.4827 77.1224 47.5102 76.6413 48.0598C76.1827 48.8102 75.6938 49.6418 76.0261 50.0352C75.6035 50.3977 75.181 50.7602 74.7584 51.1227L74.7571 51.122Z" fill="#1A1A1B"/>
<path d="M76.0183 48.6074C75.9074 48.8113 75.7998 49.0124 75.689 49.2162C75.2012 49.8888 74.7114 50.5649 74.2224 51.2367C74.1768 51.2245 74.132 51.2081 74.0864 51.196C74.3609 50.6824 74.6157 50.1574 74.9116 49.6609C75.3811 48.8744 75.3798 48.5684 75.0809 48.5136C75.2167 48.2865 75.3512 48.0587 75.487 47.8316C75.6644 48.0888 75.8397 48.3495 76.0159 48.606L76.0183 48.6074Z" fill="#3D3D3D"/>
<path d="M75.4902 47.8288C75.3544 48.0559 75.2199 48.2837 75.0841 48.5108L75.0676 48.5624C74.9889 48.5077 74.9123 48.4494 74.8337 48.3947C75.5001 47.2379 76.1505 46.0719 76.8425 44.9392C77.0401 44.6162 77.3535 44.3975 77.6146 44.1299C76.9067 45.3614 76.1968 46.5965 75.489 47.8281L75.4902 47.8288Z" fill="#292929"/>
<path d="M76.7598 50.4626C77.3019 49.516 77.8432 48.5736 78.3852 47.627C78.0402 48.6825 77.5212 49.6376 76.7598 50.4626Z" fill="#1A1A1B"/>
<path d="M63.9246 48.7567C65.1956 49.4701 66.4646 50.1871 67.7323 50.9034C67.7496 50.9133 67.7622 50.9629 67.7472 50.9918C67.6993 51.0863 67.6375 51.1822 67.5826 51.2774C66.5341 50.6828 65.4959 50.0706 64.4324 49.5049C64.237 49.4017 63.9339 49.4854 63.6795 49.4845L63.6755 49.4916C63.6424 49.4491 63.6094 49.4065 63.5755 49.3682C63.6913 49.1672 63.8092 48.9627 63.9238 48.7609L63.9246 48.7567Z" fill="#3D3D3D"/>
<path d="M63.6783 49.4838C63.3337 50.2248 62.989 50.9657 62.6051 51.792C62.9616 51.3444 63.3148 50.8997 63.6859 50.4324C63.6822 50.496 63.6933 50.5823 63.6726 50.6126C63.2392 51.2507 62.8121 52.5314 62.384 52.3927C61.8473 52.2198 62.8469 51.0811 63.1728 50.367C63.3033 50.0805 63.5044 49.7829 63.673 49.4902L63.6783 49.4838Z" fill="#292929"/>
<path d="M63.9246 48.7567C63.8088 48.9577 63.6909 49.1622 63.5763 49.364C62.9937 50.3953 62.4152 51.4336 61.8203 52.4578C61.7268 52.62 61.5482 52.7332 61.409 52.8691C62.0221 51.7051 62.6204 50.5325 63.2626 49.3805C63.3991 49.1351 63.7001 48.9608 63.9233 48.7559L63.9246 48.7567Z" fill="#515151"/>
<path d="M67.1101 51.7381C66.5857 52.5398 66.0601 53.3409 65.5377 54.1391C65.5022 54.0952 65.4659 54.0555 65.4304 54.0115L66.9808 51.5743C67.0241 51.6275 67.0687 51.6814 67.1121 51.7345L67.1101 51.7381Z" fill="#292929"/>
<path d="M67.9249 51.6908C67.7934 52.1787 67.7835 52.3045 67.7371 52.3764C67.2518 53.1161 66.7598 53.8473 66.1917 54.4595C66.7082 53.6344 67.2246 52.8093 67.9249 51.6908Z" fill="#3D3D3D"/>
<path d="M64.5591 53.4203C64.8298 53.1018 65.0984 52.7868 65.3862 52.45C65.3671 52.6457 65.3723 52.7708 65.3463 52.8075C65.0926 53.1593 64.834 53.4941 64.577 53.8346C64.5717 53.6953 64.5644 53.5596 64.5591 53.4203Z" fill="#292929"/>
<path d="M62.807 52.6458C63.2099 51.9808 63.6149 51.3121 64.0165 50.6463L64.1148 50.6841C63.7448 51.3776 63.3749 52.0711 63.003 52.7681C62.9363 52.7297 62.8696 52.6913 62.8062 52.6501L62.807 52.6458Z" fill="#292929"/>
<path d="M65.6595 51.3392C65.2385 51.9986 64.8175 52.6579 64.3966 53.3173C64.3673 53.291 64.3388 53.2605 64.3096 53.2343C64.7186 52.5586 65.1288 51.8837 65.5378 51.208C65.579 51.2505 65.6203 51.2931 65.6595 51.3392Z" fill="#3D3D3D"/>
<path d="M65.2831 50.9063L64.0315 53.0788C64.012 53.0676 63.9913 53.0556 63.9717 53.0444L65.2213 50.8754C65.2408 50.8866 65.2616 50.8986 65.2811 50.9098L65.2831 50.9063Z" fill="#3D3D3D"/>
<path d="M65.0355 53.8921C65.3215 53.4556 65.6055 53.0226 65.8915 52.5861C65.9134 52.6081 65.9319 52.6329 65.9538 52.6549C65.6794 53.1027 65.4049 53.5506 65.1292 53.9977C65.0991 53.9615 65.0677 53.9247 65.0376 53.8885L65.0355 53.8921Z" fill="#515151"/>
<path d="M66.2753 50.9894C66.1987 51.2365 66.1729 51.3955 66.0982 51.5309C66.0365 51.6409 65.913 51.7296 65.8184 51.8253C65.85 51.6791 65.8537 51.5357 65.9239 51.3882C65.9742 51.281 66.111 51.1719 66.2766 50.9901L66.2753 50.9894Z" fill="#292929"/>
<path d="M68.4431 51.7731L68.8414 51.096C68.9322 51.1296 69.021 51.1666 69.1119 51.2002L69.1368 51.1911C68.9045 51.386 68.6734 51.5817 68.441 51.7767L68.4431 51.7731Z" fill="#3D3D3D"/>
<path d="M63.6664 52.7181C63.7127 52.712 63.7966 52.6663 63.7948 52.7122C63.7927 52.7815 63.7294 52.9142 63.6931 53.0201C63.6443 53.0248 63.5572 53.0733 63.5561 53.021C63.5545 52.9637 63.6276 52.8226 63.6685 52.7146L63.6664 52.7181Z" fill="#292929"/>
<path d="M70.6732 47.6137C70.5005 47.9135 70.3278 48.2133 70.1563 48.5138C69.6338 49.575 69.363 49.5599 69.0843 49.39C67.9204 48.6818 66.7329 48.0118 65.5568 47.3248L66.6986 45.3428C66.6254 45.31 66.5502 45.2808 66.4783 45.2487L65.3486 47.2096C65.2283 47.1215 65.1073 47.0377 64.987 46.9496L66.5393 44.2551C67.4578 44.7843 68.3116 45.2715 69.1601 45.765C69.6865 46.0729 70.2027 46.3985 70.7237 46.7127C70.7725 46.7878 70.8213 46.8629 70.8681 46.9416L70.8812 46.9303C70.811 47.1576 70.7421 47.3857 70.672 47.613L70.6732 47.6137ZM68.9907 48.622C69.0643 48.6456 69.1386 48.665 69.2122 48.6886L69.9386 47.2422C69.877 47.2349 69.8187 47.2248 69.7571 47.2175C69.5021 47.6859 69.2458 48.1536 68.9887 48.6256L68.9907 48.622Z" fill="#636363"/>
<path d="M64.987 46.9496C65.1073 47.0377 65.2283 47.1215 65.3486 47.2096C65.4177 47.2494 65.4868 47.2893 65.5547 47.3284C66.7329 48.0118 67.9163 48.6889 69.0823 49.3935C69.3609 49.5634 69.6318 49.5785 70.1543 48.5173C70.1869 48.6206 70.2932 48.7101 70.2413 48.8258C69.8834 49.6155 69.4919 50.4092 69.1118 51.2002C69.021 51.1667 68.9322 51.1296 68.8414 51.0961C68.8717 50.935 68.8999 50.7775 68.929 50.6157C68.8406 50.4239 68.8017 50.1431 68.6544 50.0536C67.3831 49.2977 66.0915 48.5771 64.8089 47.8382C64.5857 47.6861 64.3613 47.5334 64.1382 47.3813C64.3307 47.1869 64.5233 46.9925 64.7159 46.7981C64.8047 46.8493 64.8969 46.8977 64.9878 46.9454L64.987 46.9496Z" fill="#141414"/>
<path d="M74.6689 49.2487C74.3438 50.1841 73.8676 51.0136 73.2089 51.7145L73.1619 51.6733C73.1561 51.515 73.1503 51.3567 73.1446 51.1983C73.5025 50.6341 73.8583 50.0735 74.2162 49.5093C74.3667 49.4222 74.5172 49.3351 74.6657 49.2515L74.6689 49.2487Z" fill="#292929"/>
<path d="M74.2175 49.51C73.8596 50.0742 73.5037 50.6348 73.1458 51.199C73.1224 51.1198 73.1003 51.0412 73.0748 50.9655C73.5779 50.2407 74.0789 49.5194 74.582 48.7946C74.4602 49.0345 74.3385 49.2744 74.2155 49.5135L74.2175 49.51Z" fill="#B4B4B4"/>
<path d="M70.6732 47.6137C70.7434 47.3864 70.8123 47.1583 70.8824 46.931L70.9409 46.9036C71.0528 46.8835 71.1634 46.8627 71.2753 46.8426C71.1894 47.1031 71.1022 47.3629 71.0162 47.6234C70.9022 47.6188 70.7893 47.6148 70.6732 47.6137Z" fill="#141414"/>
<path d="M64.8081 47.8424C66.0936 48.5736 67.3844 49.2984 68.6536 50.0578C68.8042 50.1446 68.8398 50.4281 68.9282 50.62C67.6415 49.8881 66.3499 49.1675 65.0754 48.4145C64.926 48.3284 64.8925 48.0413 64.8061 47.8459L64.8081 47.8424Z" fill="#3D3D3D"/>
<path d="M72.8732 54.3207C72.8281 54.3135 72.787 54.2992 72.7499 54.2778C72.9126 54.0098 73.0752 53.7418 73.2378 53.4738C73.2633 53.4838 73.2908 53.4903 73.3163 53.5002C73.1693 53.7725 73.0202 54.0484 72.8732 54.3207Z" fill="#9E9E9E"/>
<path d="M64.987 46.9496C64.8981 46.8984 64.8059 46.85 64.715 46.8024C65.076 46.193 65.4538 45.5886 65.7917 44.9706C66.2417 44.1495 66.6233 43.7211 66.9785 43.7754C68.3124 44.5908 69.6496 45.4035 70.9835 46.2189C70.8962 46.3847 70.8089 46.5505 70.7216 46.7163C70.1994 46.4013 69.6844 46.0765 69.1581 45.7686C68.3116 45.2715 67.4557 44.7878 66.5372 44.2587L64.9849 46.9532L64.987 46.9496Z" fill="#1A1A1B"/>
<path d="M70.9848 46.2196C69.6508 45.4042 68.3136 44.5915 66.9797 43.7761C67.202 43.627 67.5227 43.3044 67.6272 43.36C68.8848 44.0281 70.1181 44.7386 71.327 45.4914C71.4274 45.554 71.3019 46.0031 71.28 46.2723C71.2214 46.2855 71.1669 46.2917 71.1164 46.2908C71.0732 46.2659 71.03 46.241 70.9868 46.2161L70.9848 46.2196Z" fill="#9E9E9E"/>
<path d="M74.2175 49.51C74.3393 49.2701 74.4622 49.031 74.584 48.7911C74.6674 48.6606 74.7528 48.5266 74.837 48.3919C74.9156 48.4466 74.9922 48.5049 75.0709 48.5596C74.9388 48.7888 74.8043 49.0166 74.669 49.2487C74.5185 49.3358 74.368 49.4229 74.2195 49.5065L74.2175 49.51Z" fill="#6B6B6B"/>
<path d="M71.1132 46.2935C71.1649 46.2951 71.2194 46.289 71.2767 46.275L71.2721 46.8454C71.1602 46.8655 71.0495 46.8863 70.9377 46.9064C70.891 46.9218 70.8455 46.9379 70.7988 46.9533C70.9014 46.7353 71.0073 46.5144 71.1099 46.2964L71.1132 46.2935Z" fill="#1A1A1B"/>
<path d="M65.5567 47.3248C65.4876 47.285 65.4185 47.2452 65.3506 47.2061L66.4803 45.2451C66.5535 45.2779 66.6287 45.3072 66.7007 45.3392L65.5588 47.3213L65.5567 47.3248Z" fill="#292929"/>
<path d="M68.9907 48.622C69.2458 48.1536 69.5021 47.6859 69.7592 47.2139C69.8207 47.2212 69.879 47.2313 69.9406 47.2386L69.2142 48.685C69.1407 48.6614 69.0663 48.6421 68.9927 48.6185L68.9907 48.622Z" fill="#1A1A1B"/>
<path d="M71.1132 46.2936C71.0106 46.5116 70.9047 46.7325 70.8021 46.9505L70.8681 46.9416C70.8193 46.8665 70.7705 46.7914 70.7237 46.7127C70.811 46.547 70.8983 46.3812 70.9856 46.2154C71.0288 46.2403 71.072 46.2652 71.1152 46.2901L71.1132 46.2936Z" fill="#3D3D3D"/>
<path d="M70.8688 46.942L70.8033 46.9512C70.8497 46.9357 70.8948 46.9194 70.9412 46.9038L70.883 46.9314L70.87 46.9427L70.8688 46.942Z" fill="#9E9E9E"/>
</g>
<defs>
<clipPath id="clip0_16_8400">
<rect width="20.7826" height="84.1205" fill="white" transform="translate(0 18.0079) rotate(-60.0536)"/>
</clipPath>
</defs>
</svg>
