<svg width="362" height="388" viewBox="0 0 362 388" fill="none" xmlns="http://www.w3.org/2000/svg">
<path d="M295.686 299.768C297.187 323.885 298.604 346.355 299.993 368.824C300.104 370.589 300.354 372.53 300.187 374.177C299.687 378.824 298.965 383.412 298.326 388C296.02 386.588 293.185 386.471 291.49 383.471C282.265 366.942 272.623 351.06 264.51 332.238C255.813 312.003 246.421 305.827 233.417 306.298C173.482 308.65 113.492 308.356 53.5565 308.415C38.413 308.415 23.2417 306.415 8.0982 305.239C1.4295 304.709 0.0401818 302.827 0.0123955 289.063C-0.043177 256.653 0.0679681 224.183 0.762625 191.773C1.95743 136.658 3.51347 81.6011 5.15285 26.6034C5.68079 8.72183 7.26461 5.42784 15.8784 4.72199C40.886 2.72208 65.9214 0.310412 90.9291 0.19277C168.619 -0.160157 246.31 0.428054 323.972 0.898623C334.003 0.957444 344.062 2.19269 354.093 3.72203C360.484 4.72199 361.873 8.25126 361.79 21.4272C361.512 61.4255 361.512 101.483 360.595 141.481C359.594 185.009 357.733 228.477 356.149 272.005C355.482 290.298 352.787 295.827 343.867 296.357C329.752 297.239 315.609 297.592 301.466 298.298C299.632 298.416 297.798 299.239 295.63 299.827L295.686 299.768ZM293.797 373.236C292.185 349.002 290.629 328.12 289.434 307.062C288.462 289.887 290.407 285.416 298.52 285.357C308.218 285.357 317.943 286.181 327.64 285.651C333.892 285.357 340.172 283.71 346.368 281.71C347.758 281.24 349.703 276.828 349.897 273.828C355.232 191.832 355.482 109.247 356.01 26.6622C356.066 17.7214 354.232 15.6627 350.592 15.4862C340.894 15.0157 331.197 13.6628 321.472 13.604C239.725 13.3099 157.95 13.0158 76.2023 13.3099C56.6408 13.3687 37.0515 15.7804 17.49 17.1921C14.2668 17.4273 11.6826 18.1332 11.3492 27.5446C8.18156 111.659 5.34736 195.773 5.95866 280.299C6.01423 290.181 7.70919 292.416 11.9049 292.533C22.7971 292.828 33.6894 294.651 44.5816 294.651C110.824 294.651 177.094 294.475 243.337 293.592C249.811 293.475 254.507 296.298 259.175 305.945C270.012 328.238 281.376 349.355 293.769 373.295L293.797 373.236Z" fill="white"/>
</svg>
