<svg width="28" height="79" viewBox="0 0 28 79" fill="none" xmlns="http://www.w3.org/2000/svg">
<g clip-path="url(#clip0_27_27564)">
<path d="M4.45078 78.8508L22.3365 67.9853C18.6498 66.374 14.963 64.7645 11.2762 63.1532C7.56127 61.5306 3.84445 59.906 0.129517 58.2834C1.56931 65.1386 3.01099 71.9937 4.45078 78.8508Z" fill="#FEC91A"/>
<path d="M0 58.1227L4.38509 79L22.5393 67.9701L0 58.1227ZM4.51462 78.7015L0.259051 58.442L22.1319 67.9984L4.51462 78.7015Z" fill="#A9A29D"/>
<path d="M21.1483 9.15527e-05L16.2808 2.61825C16.384 2.87327 26.6447 28.4579 20.908 42.9862C17.8238 50.7973 7.84099 62.7754 7.73962 62.8963L11.6122 67.1787C12.0477 66.6573 22.3347 54.3165 25.8018 45.5383C32.5634 28.4164 21.6176 1.15239 21.1483 9.15527e-05Z" fill="#FEC91A"/>
</g>
<defs>
<clipPath id="clip0_27_27564">
<rect width="28" height="79" fill="white" transform="matrix(1 0 0 -1 0 79)"/>
</clipPath>
</defs>
</svg>
