<svg width="386" height="340" viewBox="0 0 386 340" fill="none" xmlns="http://www.w3.org/2000/svg">
<g clip-path="url(#clip0_67_13)">
<path d="M24 331H376V29H24V331ZM373.412 328.411H26.5882V31.5886H373.412V328.411Z" fill="white"/>
<path d="M25.2942 278.508H374.706V281.097H25.2942V278.508Z" fill="white"/>
<path d="M25.2942 228.609H374.706V231.198H25.2942V228.609Z" fill="white"/>
<path d="M25.2942 178.706H374.706V181.294H25.2942V178.706Z" fill="white"/>
<path d="M25.2942 128.802H374.706V131.391H25.2942V128.802Z" fill="white"/>
<path d="M25.2942 78.9033H374.706V81.4919H25.2942V78.9033Z" fill="white"/>
<path d="M82.2353 30.2942H84.8235V329.706H82.2353V30.2942Z" fill="white"/>
<path d="M140.471 30.2942H143.059V329.706H140.471V30.2942Z" fill="white"/>
<path d="M198.706 30.2942H201.294V329.706H198.706V30.2942Z" fill="white"/>
<path d="M256.941 30.2942H259.529V329.706H256.941V30.2942Z" fill="white"/>
<path d="M315.176 30.2942H317.765V329.706H315.176V30.2942Z" fill="white"/>
</g>
<path d="M24.5007 22.33C22.726 22.33 21.3547 21.6773 20.3867 20.372C19.4187 19.052 18.9347 17.1527 18.9347 14.674C18.9347 12.1953 19.4187 10.3033 20.3867 8.998C21.3547 7.69267 22.726 7.04 24.5007 7.04C26.2754 7.04 27.6467 7.7 28.6147 9.02C29.5827 10.3253 30.0667 12.2173 30.0667 14.696C30.0667 17.1747 29.5827 19.0667 28.6147 20.372C27.6467 21.6773 26.2754 22.33 24.5007 22.33ZM24.5007 19.558C25.2634 19.558 25.8574 19.14 26.2827 18.304C26.708 17.4533 26.9207 16.258 26.9207 14.718C26.9207 13.178 26.708 11.9753 26.2827 11.11C25.8574 10.23 25.2634 9.79 24.5007 9.79C23.738 9.79 23.144 10.2153 22.7187 11.066C22.2934 11.902 22.0807 13.09 22.0807 14.63C22.0807 16.17 22.2934 17.38 22.7187 18.26C23.144 19.1253 23.738 19.558 24.5007 19.558Z" fill="white"/>
<path d="M7.77676 86.338H10.3068V78.33L7.73276 77.296V76.218L11.6928 74.238H13.3868V86.338H15.8288L15.6088 89H7.55676L7.77676 86.338Z" fill="white"/>
<path d="M6.87338 134.69C8.48672 132.959 9.68938 131.639 10.4814 130.73C11.288 129.806 11.8894 129.014 12.2854 128.354C12.6814 127.679 12.8794 127.071 12.8794 126.528C12.8794 126.029 12.7254 125.633 12.4174 125.34C12.124 125.047 11.7354 124.9 11.2514 124.9C10.3274 124.9 9.47672 125.45 8.69938 126.55L6.43338 124.944C7.10805 123.961 7.87805 123.228 8.74338 122.744C9.62338 122.26 10.5694 122.018 11.5814 122.018C12.432 122.018 13.1947 122.187 13.8694 122.524C14.5441 122.847 15.0721 123.323 15.4534 123.954C15.8494 124.57 16.0474 125.296 16.0474 126.132C16.0474 127.291 15.6441 128.471 14.8374 129.674C14.0454 130.877 12.7474 132.373 10.9434 134.162H16.0694L15.8274 137H6.87338V134.69Z" fill="white"/>
<path d="M8.54839 189.33C7.80039 189.33 7.03039 189.264 6.23839 189.132L6.63439 186.404C7.48506 186.551 8.21839 186.624 8.83439 186.624C10.0077 186.624 10.9464 186.375 11.6504 185.876C12.3544 185.377 12.7064 184.725 12.7064 183.918C12.7064 183.405 12.5597 183.001 12.2664 182.708C11.9731 182.415 11.5624 182.268 11.0344 182.268C10.6677 182.268 10.2644 182.341 9.82439 182.488L9.38439 180.376C10.0884 180.156 10.7264 179.797 11.2984 179.298C11.8851 178.785 12.1784 178.271 12.1784 177.758C12.1784 177.435 12.0537 177.179 11.8044 176.988C11.5697 176.783 11.2471 176.68 10.8364 176.68C10.4257 176.68 10.0004 176.797 9.56039 177.032C9.12039 177.252 8.70972 177.567 8.32839 177.978L6.48039 175.954C7.09639 175.353 7.80039 174.883 8.59239 174.546C9.39906 174.194 10.2351 174.018 11.1004 174.018C11.9071 174.018 12.6184 174.165 13.2344 174.458C13.8504 174.737 14.3271 175.133 14.6644 175.646C15.0017 176.145 15.1704 176.709 15.1704 177.34C15.1704 178.396 14.6937 179.379 13.7404 180.288C14.4297 180.611 14.9504 181.08 15.3024 181.696C15.6691 182.297 15.8524 182.987 15.8524 183.764C15.8524 184.805 15.5444 185.751 14.9284 186.602C14.3271 187.453 13.4691 188.12 12.3544 188.604C11.2397 189.088 9.97106 189.33 8.54839 189.33Z" fill="white"/>
<path d="M11.3556 234.7H4.95359L4.73359 232.434L11.3336 223.348H14.2376V232.236H15.9316L15.7116 234.7H14.2376V238H11.3556V234.7ZM11.3556 232.236V227.176L7.92359 232.236H11.3556Z" fill="white"/>
<path d="M8.62668 290.33C7.87868 290.33 7.10868 290.264 6.31668 290.132L6.71268 287.404C7.56335 287.551 8.29668 287.624 8.91268 287.624C10.086 287.624 11.0173 287.36 11.7067 286.832C12.4107 286.289 12.7627 285.585 12.7627 284.72C12.7627 284.104 12.5867 283.642 12.2347 283.334C11.8973 283.011 11.3987 282.85 10.7387 282.85C10.064 282.85 9.41868 282.997 8.80268 283.29L7.57068 282.388L7.98868 275.348H15.4687L15.2927 277.944H10.5407L10.4087 280.43C10.658 280.371 10.9807 280.342 11.3767 280.342C12.7407 280.342 13.8333 280.731 14.6547 281.508C15.4907 282.271 15.9087 283.319 15.9087 284.654C15.9087 285.739 15.6007 286.715 14.9847 287.58C14.3833 288.445 13.5327 289.12 12.4327 289.604C11.3327 290.088 10.064 290.33 8.62668 290.33Z" fill="white"/>
<path d="M11.3241 339.352C9.78409 339.352 8.59609 338.846 7.76009 337.834C6.93875 336.807 6.52809 335.128 6.52809 332.796C6.52809 330.127 7.07809 328 8.17809 326.416C9.27809 324.817 10.9061 324.018 13.0621 324.018C13.7661 324.018 14.4701 324.099 15.1741 324.26L15.0641 326.812C14.3014 326.709 13.7001 326.658 13.2601 326.658C12.2334 326.658 11.4341 326.922 10.8621 327.45C10.2901 327.978 9.90875 328.851 9.71809 330.068C10.7154 329.731 11.6248 329.562 12.4461 329.562C13.7368 329.562 14.7268 329.958 15.4161 330.75C16.1201 331.542 16.4721 332.649 16.4721 334.072C16.4721 335.744 16.0028 337.042 15.0641 337.966C14.1401 338.89 12.8934 339.352 11.3241 339.352ZM11.6321 336.778C12.2041 336.778 12.6514 336.573 12.9741 336.162C13.3114 335.751 13.4801 335.135 13.4801 334.314C13.4801 332.803 12.9228 332.048 11.8081 332.048C11.2214 332.048 10.4661 332.231 9.54209 332.598C9.51275 333.126 9.49809 333.485 9.49809 333.676C9.49809 334.615 9.68142 335.37 10.0481 335.942C10.4148 336.499 10.9428 336.778 11.6321 336.778Z" fill="white"/>
<path d="M74.7768 19.338H77.3068V11.33L74.7328 10.296V9.218L78.6928 7.238H80.3868V19.338H82.8288L82.6088 22H74.5568L74.7768 19.338Z" fill="white"/>
<path d="M132.873 19.69C134.487 17.9593 135.689 16.6393 136.481 15.73C137.288 14.806 137.889 14.014 138.285 13.354C138.681 12.6793 138.879 12.0707 138.879 11.528C138.879 11.0293 138.725 10.6333 138.417 10.34C138.124 10.0467 137.735 9.9 137.251 9.9C136.327 9.9 135.477 10.45 134.699 11.55L132.433 9.944C133.108 8.96133 133.878 8.228 134.743 7.744C135.623 7.26 136.569 7.018 137.581 7.018C138.432 7.018 139.195 7.18667 139.869 7.524C140.544 7.84667 141.072 8.32333 141.453 8.954C141.849 9.57 142.047 10.296 142.047 11.132C142.047 12.2907 141.644 13.4713 140.837 14.674C140.045 15.8767 138.747 17.3727 136.943 19.162H142.069L141.827 22H132.873V19.69Z" fill="white"/>
<path d="M193.548 22.33C192.8 22.33 192.03 22.264 191.238 22.132L191.634 19.404C192.485 19.5507 193.218 19.624 193.834 19.624C195.008 19.624 195.946 19.3747 196.65 18.876C197.354 18.3773 197.706 17.7247 197.706 16.918C197.706 16.4047 197.56 16.0013 197.266 15.708C196.973 15.4147 196.562 15.268 196.034 15.268C195.668 15.268 195.264 15.3413 194.824 15.488L194.384 13.376C195.088 13.156 195.726 12.7967 196.298 12.298C196.885 11.7847 197.178 11.2713 197.178 10.758C197.178 10.4353 197.054 10.1787 196.804 9.988C196.57 9.78267 196.247 9.68 195.836 9.68C195.426 9.68 195 9.79733 194.56 10.032C194.12 10.252 193.71 10.5673 193.328 10.978L191.48 8.954C192.096 8.35267 192.8 7.88333 193.592 7.546C194.399 7.194 195.235 7.018 196.1 7.018C196.907 7.018 197.618 7.16467 198.234 7.458C198.85 7.73667 199.327 8.13267 199.664 8.646C200.002 9.14467 200.17 9.70933 200.17 10.34C200.17 11.396 199.694 12.3787 198.74 13.288C199.43 13.6107 199.95 14.08 200.302 14.696C200.669 15.2973 200.852 15.9867 200.852 16.764C200.852 17.8053 200.544 18.7513 199.928 19.602C199.327 20.4527 198.469 21.12 197.354 21.604C196.24 22.088 194.971 22.33 193.548 22.33Z" fill="white"/>
<path d="M255.356 18.7H248.954L248.734 16.434L255.334 7.348H258.238V16.236H259.932L259.712 18.7H258.238V22H255.356V18.7ZM255.356 16.236V11.176L251.924 16.236H255.356Z" fill="white"/>
<path d="M308.627 22.33C307.879 22.33 307.109 22.264 306.317 22.132L306.713 19.404C307.094 19.4627 307.475 19.514 307.857 19.558C308.238 19.602 308.59 19.624 308.913 19.624C310.086 19.624 311.017 19.3527 311.707 18.81C312.411 18.2673 312.763 17.5707 312.763 16.72C312.763 15.4733 312.088 14.85 310.739 14.85C310.064 14.85 309.419 14.9967 308.803 15.29L307.571 14.388L307.989 7.348H315.469L315.293 9.944H310.541L310.409 12.43C310.555 12.4007 310.709 12.3787 310.871 12.364C311.032 12.3493 311.201 12.342 311.377 12.342C312.726 12.342 313.819 12.7233 314.655 13.486C315.491 14.2487 315.909 15.3047 315.909 16.654C315.909 17.7393 315.601 18.7147 314.985 19.58C314.383 20.4307 313.54 21.1053 312.455 21.604C311.369 22.088 310.093 22.33 308.627 22.33Z" fill="white"/>
<path d="M370.324 22.352C369.356 22.352 368.513 22.1467 367.794 21.736C367.075 21.3107 366.518 20.6213 366.122 19.668C365.726 18.7 365.528 17.4093 365.528 15.796C365.528 14.08 365.763 12.562 366.232 11.242C366.701 9.922 367.413 8.888 368.366 8.14C369.334 7.392 370.566 7.018 372.062 7.018C372.355 7.018 372.685 7.04 373.052 7.084C373.419 7.11333 373.793 7.172 374.174 7.26L374.064 9.812C373.741 9.768 373.426 9.73133 373.118 9.702C372.825 9.67267 372.539 9.658 372.26 9.658C371.277 9.658 370.493 9.91467 369.906 10.428C369.319 10.9267 368.923 11.8067 368.718 13.068C369.231 12.892 369.715 12.7673 370.17 12.694C370.625 12.606 371.05 12.562 371.446 12.562C372.751 12.562 373.749 12.9653 374.438 13.772C375.127 14.564 375.472 15.664 375.472 17.072C375.472 18.7587 374.995 20.064 374.042 20.988C373.103 21.8973 371.864 22.352 370.324 22.352ZM370.632 19.778C371.189 19.778 371.637 19.58 371.974 19.184C372.311 18.788 372.48 18.1647 372.48 17.314C372.48 16.6393 372.348 16.0967 372.084 15.686C371.835 15.2607 371.409 15.048 370.808 15.048C370.221 15.048 369.466 15.2313 368.542 15.598C368.527 15.7887 368.513 15.9793 368.498 16.17C368.498 16.346 368.498 16.5147 368.498 16.676C368.498 17.5853 368.674 18.3333 369.026 18.92C369.378 19.492 369.913 19.778 370.632 19.778Z" fill="white"/>
<defs>
<clipPath id="clip0_67_13">
<rect width="352" height="302" fill="white" transform="matrix(-1 0 0 1 376 29)"/>
</clipPath>
</defs>
</svg>
