<svg width="291" height="205" viewBox="0 0 291 205" fill="none" xmlns="http://www.w3.org/2000/svg">
<path d="M53.4817 158.387C52.2764 171.128 51.138 182.999 50.022 194.869C49.9328 195.802 49.7319 196.827 49.8658 197.697C50.2676 200.152 50.8479 202.576 51.3613 205C53.2138 204.254 55.4905 204.192 56.852 202.607C64.2623 193.875 72.0074 185.485 78.5248 175.541C85.511 164.851 93.0552 161.588 103.501 161.836C151.646 163.079 199.835 162.924 247.979 162.955C260.144 162.955 272.33 161.898 284.495 161.277C289.852 160.997 290.968 160.003 290.99 152.731C291.035 135.609 290.945 118.455 290.387 101.333C289.428 72.2152 288.178 43.1288 286.861 14.0734C286.437 4.62651 285.164 2.8863 278.245 2.51339C258.157 1.45683 238.047 0.182746 217.959 0.120596C155.552 -0.065856 93.1445 0.244897 30.7598 0.493499C22.7022 0.524574 14.6223 1.17716 6.56479 1.98511C1.43115 2.51339 0.315125 4.37791 0.38208 11.3388C0.605286 32.47 0.605316 53.6322 1.34189 74.7634C2.14539 97.7591 3.64087 120.724 4.91312 143.719C5.44879 153.384 7.61383 156.305 14.7786 156.585C26.1172 157.051 37.4781 157.237 48.8391 157.61C50.3122 157.672 51.7853 158.107 53.5263 158.418L53.4817 158.387ZM54.9994 197.2C56.294 184.397 57.5439 173.365 58.5037 162.24C59.2849 153.166 57.7225 150.805 51.205 150.774C43.4153 150.774 35.6033 151.209 27.8135 150.929C22.7915 150.774 17.7472 149.903 12.7698 148.847C11.6537 148.598 10.0914 146.268 9.93512 144.683C5.64966 101.364 5.44876 57.7342 5.02469 14.1045C4.98004 9.38103 6.45319 8.29339 9.37711 8.20017C17.1668 7.95157 24.9566 7.23683 32.7686 7.20576C98.4344 7.05038 164.122 6.89501 229.788 7.05038C245.502 7.08146 261.237 8.35555 276.951 9.10135C279.54 9.22565 281.616 9.59856 281.883 14.5706C284.428 59.0083 286.705 103.446 286.214 148.101C286.169 153.322 284.807 154.503 281.437 154.565C272.688 154.72 263.938 155.683 255.189 155.683C201.977 155.683 148.744 155.59 95.5328 155.124C90.3322 155.062 86.5601 156.554 82.8103 161.65C74.1055 173.427 64.9765 184.583 55.0217 197.231L54.9994 197.2Z" fill="white"/>
</svg>
