<svg width="116" height="101" viewBox="0 0 116 101" fill="none" xmlns="http://www.w3.org/2000/svg">
<path d="M81.9913 16.1301C74.2753 12.8397 66.1449 10.9304 57.7455 11.0304C49.3588 11.1303 41.6333 13.4107 33.9458 16.6368C33.5788 16.544 33.2118 16.4513 32.9049 16.3727C32.7879 15.0773 32.4462 14.3992 31.494 13.5178C32.7183 12.8754 33.9458 12.233 35.1701 11.5906C37.2391 11.0982 39.2163 10.024 41.2505 9.37447C43.4366 8.675 45.6859 8.23247 47.913 7.69003C47.913 5.40961 47.6473 2.99001 48.2357 0.78454C50.2826 0.566847 52.3294 0.27778 54.3826 0.142169C59.3589 -0.182586 64.3163 0.0493817 69.2452 0.834502C69.3559 0.859483 69.4698 0.884464 69.5805 0.909445C69.9001 0.966545 70.2164 1.02364 70.5359 1.07718C71.3616 3.16488 70.8491 5.7415 70.8491 7.98266C75.1516 9.27811 79.2611 10.702 83.4308 12.3972C83.6965 12.5042 83.9654 12.6113 84.2312 12.7184C83.8958 12.9503 83.5573 13.1859 83.1366 13.4785C82.991 14.3671 83.4055 15.6483 81.9945 16.1265L81.9913 16.1301Z" fill="#6D7D85"/>
<path d="M20.453 98.3856C19.1306 101.101 16.5744 100.969 14.2397 100.78C13.8253 100.748 13.4267 100.505 13.0217 100.359C12.5345 98.7996 11.9746 97.2579 11.5791 95.6734C11.3071 94.5778 11.2628 93.4251 11.1172 92.2974C11.1078 92.1903 11.1014 92.0797 11.0919 91.9726C11.0382 91.3838 10.9844 90.7914 10.9338 90.2026C10.8705 89.0284 10.8104 87.8543 10.7471 86.6802C10.725 86.2341 10.706 85.7845 10.6838 85.3384C10.6743 85.0779 10.6648 84.8138 10.6554 84.5533C10.649 84.1214 10.6427 83.6896 10.6332 83.2578C10.6332 83.1507 10.63 83.0473 10.6269 82.9402C10.6206 82.8296 10.6142 82.7189 10.6079 82.6083C10.6142 82.2086 10.6269 81.8089 10.6269 81.4092C10.6269 78.9825 10.6269 76.5522 10.6269 74.1254C10.6459 74.1254 10.6648 74.1254 10.6838 74.1254C10.6648 74.1326 10.6459 74.1433 10.6237 74.1504C10.6079 73.8328 10.5763 73.5152 10.5763 73.194C10.5699 70.5817 10.5668 67.9694 10.5636 65.3571C10.5636 65.2429 10.5636 65.1322 10.5668 65.018C10.5699 64.7004 10.5731 64.3828 10.5794 64.0616C10.6111 63.4871 10.6427 62.9125 10.6743 62.3344C10.8009 62.1488 10.9274 61.9632 11.1426 61.6492C11.2533 62.1702 11.3102 62.445 11.3672 62.7019C11.7025 62.7626 11.9967 62.8947 12.2688 62.8554C14.9515 62.4842 17.688 63.1659 20.3518 62.4379C20.3771 63.355 20.4024 64.2722 20.4277 65.1893C20.4119 67.9301 20.3866 70.6745 20.3866 73.4153C20.3866 76.3737 20.4119 79.3286 20.4277 82.2871C20.4277 83.3113 20.4246 84.3356 20.4214 85.3598C20.4246 87.6224 20.4277 89.8814 20.4309 92.1439C20.4309 92.1975 20.4309 92.2474 20.4309 92.301V92.6293C20.4309 93.4358 20.4309 94.2459 20.4309 95.0525C20.3992 95.1024 20.3992 95.1524 20.4309 95.2059C20.4309 95.7376 20.4309 96.2658 20.4277 96.7976C20.434 97.3293 20.4372 97.861 20.4435 98.3928L20.453 98.3856Z" fill="#E4E4E4"/>
<path d="M103.981 100.348C101.175 101.879 98.7141 100.431 96.4616 98.9031C96.5028 97.9824 96.5439 97.0616 96.585 96.1409C96.585 95.5057 96.585 94.874 96.5882 94.2388C96.5882 94.0925 96.5818 93.9426 96.5787 93.7963C96.5787 93.732 96.5787 93.6678 96.5787 93.6035C96.5787 91.448 96.585 89.289 96.5882 87.1334C96.5882 85.3562 96.5882 83.5826 96.5882 81.8053C96.5882 81.7554 96.5882 81.7018 96.5882 81.6519C96.5882 81.5412 96.5882 81.4306 96.5882 81.32C96.5882 76.4273 96.585 71.5345 96.5818 66.6418V65.3428C96.6008 64.9145 96.6261 64.4827 96.6483 64.0545C98.1162 63.512 99.8878 63.7833 101.451 63.8368C103.251 63.8975 104.611 63.7975 106.348 63.2444C106.376 63.3015 106.405 63.355 106.43 63.4121C106.43 63.6227 106.436 63.8368 106.436 64.0473L106.465 65.3499C106.468 65.7782 106.474 66.2029 106.478 66.6311C106.478 67.17 106.481 67.7089 106.484 68.2477C106.455 72.9834 106.427 77.7156 106.398 82.4513C106.332 84.4962 106.266 86.5446 106.199 88.5895C106.183 88.85 106.164 89.1105 106.149 89.371C106.013 90.6736 105.873 91.9726 105.737 93.2752C105.687 93.4358 105.639 93.5964 105.589 93.7534C105.573 94.0996 105.617 94.4636 105.532 94.7884C105.029 96.6477 104.497 98.4963 103.975 100.348H103.981Z" fill="#E4E4E4"/>
<path d="M35.1732 11.5942C33.9489 12.2366 32.7214 12.8789 31.4971 13.5213C27.4256 15.0987 23.2939 18.5247 20.1113 21.4938C16.5365 24.8306 14.0056 28.8383 11.5981 33.0708C10.6395 32.7603 9.6778 32.4498 8.71923 32.1394C8.51043 32.0644 8.3048 31.993 8.08651 31.9145C11.0223 25.8548 14.7142 20.1591 19.3742 15.3128C23.3224 11.2052 28.6467 6.54444 34.1957 4.94922C35.3536 5.60586 35.1574 5.70936 34.9201 6.96555C34.6228 8.53579 34.9581 10.0168 35.1732 11.5942Z" fill="#9EADB5"/>
<path d="M81.9913 16.1301C83.4023 15.6483 82.9879 14.3707 83.1334 13.4821C83.5573 13.1894 83.8926 12.9575 84.228 12.7219C88.4735 14.906 92.2477 17.5361 95.9808 20.5267C96.3509 19.6881 96.6198 18.3034 96.7274 17.4184C96.8571 16.3228 96.2497 15.7268 96.8159 14.6205C100.498 18.2499 103.409 22.3182 106.114 26.7256C105.861 26.9076 105.604 27.0861 105.37 27.2538C105.598 27.4679 105.74 27.6035 105.88 27.7356C105.339 29.0417 105.364 30.5441 105.228 31.9502C103.792 30.8047 102.824 28.7598 101.757 27.2538C100.527 25.5158 99.2899 24.1704 97.7524 22.7322C97.7302 22.7179 97.7081 22.7072 97.6859 22.6929C97.7081 22.7037 97.7302 22.7179 97.7524 22.7286C98.0877 24.0955 98.4199 25.4623 98.7584 26.8434C98.5433 26.9076 98.3376 26.9647 97.958 27.0753C99.1254 27.6035 99.5208 27.2431 99.1855 28.8561C96.6198 26.2867 94.0826 23.7386 91.1563 21.5795C88.2426 19.4311 85.0474 17.9822 81.9787 16.1265L81.9913 16.1301Z" fill="#87959E"/>
<path d="M9.99099 47.4173C10.5826 46.7214 11.171 46.0255 11.7626 45.3296C11.7215 45.5651 11.7025 45.8078 11.6329 46.0326C10.6807 49.1303 10.3074 52.3136 10.184 55.5397C10.1713 55.6646 10.1587 55.7895 10.1428 55.9109C10.1428 56.0322 10.1397 56.1535 10.1365 56.2749C10.0606 57.0386 9.98467 57.8023 9.90558 58.566C9.83914 60.1577 9.74423 61.7493 9.72209 63.341C9.70943 64.2902 9.8075 65.2395 9.85496 66.1888C9.84547 66.9882 9.83914 67.784 9.82965 68.5834C9.82965 68.8368 9.82332 69.0902 9.82016 69.3436C9.8075 69.5077 9.79801 69.6719 9.78536 69.836C9.79485 72.1486 9.80434 74.4611 9.81383 76.7701C9.81383 76.8415 9.81383 76.9128 9.817 76.9842C9.82016 77.623 9.82649 78.2618 9.82965 78.9006C9.83914 79.5822 9.84863 80.2639 9.85812 80.9419C9.85179 81.0169 9.84863 81.0954 9.8423 81.1703C9.35827 83.4436 9.94354 86.2593 10.0416 88.5897C10.1492 89.6139 10.2567 90.6346 10.3643 91.6588C10.339 91.7088 10.3422 91.7587 10.3738 91.8051L10.4655 92.8365L10.4371 92.8757L10.4877 92.9043C10.5794 93.6287 10.668 94.3496 10.7597 95.0741C10.7281 95.1276 10.7408 95.1669 10.8009 95.1918C11.1615 96.7014 11.5253 98.2146 11.886 99.7241C8.51043 97.7756 8.40287 91.9514 7.748 88.5647C7.69738 87.8688 7.6436 87.1693 7.59299 86.4734C7.54553 86.1594 7.50124 85.8454 7.45379 85.5313C7.4443 85.4742 7.4348 85.4135 7.42531 85.3564C7.34622 83.6934 7.26713 82.0268 7.18804 80.3638C7.18172 79.6143 7.17855 78.8685 7.17223 78.1191C7.1659 74.768 7.15957 71.417 7.15324 68.066C7.15957 67.47 7.16274 66.874 7.16906 66.278C7.23233 64.8327 7.29877 63.3838 7.36204 61.9384C7.36521 61.8242 7.37153 61.71 7.3747 61.5958L7.42531 60.668C7.42531 60.6037 7.42531 60.5395 7.42531 60.4788C7.43797 60.1648 7.45379 59.8507 7.46644 59.5367C7.50441 59.2655 7.54553 58.9978 7.58349 58.7266C7.63727 57.9736 7.68789 57.2206 7.74167 56.4676C7.8176 56.1036 7.91567 55.7431 7.96313 55.3756C8.32694 52.6419 8.77617 49.9297 9.98467 47.4137L9.99099 47.4173Z" fill="#FEC91A"/>
<path d="M109.255 88.5644C108.502 92.5543 108.176 96.6155 105.25 99.6275C105.291 99.3705 105.323 99.11 105.377 98.8531C105.699 97.3542 106.025 95.8589 106.351 94.36C106.364 94.2851 106.38 94.2066 106.392 94.1316L106.449 93.7391C106.484 93.6962 106.49 93.6498 106.465 93.5999C106.506 93.2109 106.55 92.8183 106.591 92.4293C106.601 92.2866 106.61 92.1403 106.62 91.9975C106.639 91.7727 106.661 91.5479 106.68 91.323L106.737 91.2766L106.715 91.2088C106.743 90.8698 106.769 90.5308 106.797 90.1918C106.826 89.6529 106.854 89.1176 106.883 88.5787C106.917 88.1362 106.949 87.6901 106.984 87.2476C107.006 86.8514 107.028 86.4553 107.053 86.0592C107.075 85.0671 107.094 84.0714 107.117 83.0793C107.12 76.6913 107.123 70.2997 107.126 63.9117C107.088 62.345 107.05 60.7783 107.012 59.2116C107.003 59.101 106.993 58.9904 106.984 58.8833C106.813 54.2797 106.348 49.8223 105.272 45.3364C105.892 46.0966 106.512 46.8531 107.132 47.6133C107.572 49.0336 108.085 50.4361 108.433 51.8815C108.793 53.3661 108.993 54.8899 109.262 56.3959C109.306 56.8527 109.35 57.3095 109.394 57.7699C109.508 59.647 109.625 61.5206 109.739 63.3978C109.765 64.2614 109.79 65.125 109.818 65.9886C109.828 66.2028 109.834 66.4133 109.844 66.6275C109.831 67.4447 109.822 68.2619 109.809 69.0792C109.796 69.097 109.771 69.1256 109.777 69.1363C109.796 69.1755 109.825 69.2076 109.847 69.2433C109.84 69.9428 109.831 70.6387 109.828 71.3382C109.812 73.6436 109.796 75.949 109.78 78.2544C109.78 78.4756 109.774 78.6969 109.771 78.9181C109.765 79.1287 109.761 79.3428 109.755 79.5534C109.689 81.2735 109.625 82.9936 109.559 84.7102C109.549 84.9243 109.54 85.1384 109.527 85.3561C109.436 86.4268 109.341 87.5009 109.249 88.5716L109.255 88.5644Z" fill="#FEC91A"/>
<path d="M13.0186 44.53C14.8756 43.8555 16.72 43.9162 18.5675 44.5799C19.5134 44.919 19.9563 45.7362 20.4593 46.507C20.453 48.1094 20.4467 49.7153 20.4404 51.3177C20.4404 52.3312 20.4372 53.3483 20.434 54.3618C20.4087 55.3325 20.3803 56.2996 20.3549 57.2703C18.5928 58.473 14.0689 57.7271 12.0157 57.331C11.9746 57.6343 11.9145 58.0555 11.8385 58.6157C11.4747 57.6415 11.1868 56.8742 10.8958 56.1034C10.9274 55.3753 10.9591 54.6473 10.9875 53.9193L11.0951 52.9058C11.0983 52.8522 11.1046 52.7987 11.1078 52.7452C11.4621 49.9366 11.9208 47.153 13.0122 44.5228L13.0186 44.53Z" fill="#E4E4E4"/>
<path d="M20.3613 57.2739C20.3866 56.3032 20.4151 55.336 20.4404 54.3653C21.7849 54.6615 23.0155 54.6009 24.3885 54.5688C25.249 54.5509 26.5999 54.8507 27.299 54.2333C27.8052 53.7872 27.7767 52.8558 28.4095 52.5203C28.9694 52.2205 30.1716 52.5988 30.7126 52.6773C30.8296 52.3704 30.9403 52.0778 31.0511 51.7852C31.4782 54.5366 31.8989 57.2132 32.0508 60.0004C32.1963 62.6626 32.7341 65.7746 32.3481 68.4083C32.0413 68.1049 31.7819 67.7623 31.5667 67.3841C31.3864 67.5125 31.2061 67.6374 31.0289 67.7659C30.7727 63.9724 30.5164 60.1788 30.257 56.3852C30.1368 56.3888 30.0166 56.3924 29.8964 56.396C29.5262 60.1681 29.4155 63.9581 29.425 67.7516C28.7385 67.7516 28.0551 67.7588 27.3686 67.7623C27.3686 66.7952 27.3655 65.8317 27.3623 64.8645C27.3686 63.5869 27.8337 61.6099 26.4417 61.0389C24.8884 60.4036 22.0854 60.8783 20.434 60.8212C20.4087 59.6364 20.3866 58.4515 20.3613 57.2703V57.2739Z" fill="#232323"/>
<path d="M96.5787 93.7964C96.5787 93.9427 96.585 94.0926 96.5882 94.2389C94.6995 93.8285 92.9279 93.8499 90.9949 93.9606C90.4128 93.9927 87.2049 94.4281 87.1037 95.1704C86.7968 95.2917 86.6829 95.3381 86.5722 95.3809C86.142 93.2611 85.5504 91.1627 85.3163 89.0215C84.9841 85.9845 84.9113 82.9225 84.7278 79.8677C85.1961 79.8677 85.6674 79.8677 86.1356 79.8677C86.3318 82.7441 86.5311 85.6205 86.7272 88.4969C86.8411 88.4969 86.9582 88.4969 87.0721 88.4933C87.4201 85.7418 87.5719 82.976 87.5814 80.1996C88.2616 80.7028 89.0651 80.3423 89.7928 80.5172C89.7928 81.0025 89.7928 81.4843 89.7928 81.9697C89.4384 83.0331 88.9449 86.5876 90.0174 87.3299C90.552 87.6975 92.6527 87.4833 93.374 87.494C94.4527 87.5119 95.5473 87.4798 96.5818 87.13C96.5818 89.2855 96.5755 91.4446 96.5724 93.6001C96.5724 93.6644 96.5724 93.7286 96.5724 93.7928L96.5787 93.7964Z" fill="#232323"/>
<path d="M20.4435 92.1405C20.4404 89.8779 20.4372 87.6189 20.434 85.3563C21.8766 86.0843 24.5625 86.2057 26.1633 85.8309C27.9191 85.417 27.3686 83.7076 27.3655 82.1266C27.3655 81.3736 27.3655 80.6242 27.3686 79.8712C28.0551 79.6035 28.7385 79.3394 29.425 79.0718C29.4471 82.223 29.5294 85.3706 29.9533 88.4932C30.0577 88.4932 30.1621 88.4968 30.2665 88.5004C30.469 85.731 30.6746 82.9617 30.8771 80.1959C31.1396 80.4422 31.3991 80.692 31.7597 81.031C31.842 80.5956 32.0223 80.2102 32.2944 79.8712C32.2058 84.7139 32.016 89.5424 30.8075 94.2674C30.3234 93.8606 29.7793 93.65 29.1403 93.7535C28.4 93.8749 27.9539 93.6108 27.7641 92.8292C27.666 92.4224 27.5015 91.9085 26.8846 91.9799C24.7397 92.2297 22.4904 91.3803 20.4435 92.6258V92.2975C20.4878 92.2832 20.5353 92.2654 20.5796 92.2511C20.5353 92.2154 20.4878 92.1797 20.4435 92.144V92.1405Z" fill="#232323"/>
<path d="M11.5981 33.071C14.0056 28.8385 16.5333 24.8308 20.1114 21.494C23.2971 18.5213 27.4256 15.0953 31.4971 13.5215C32.4494 14.403 32.7911 15.081 32.9081 16.3765C33.2118 16.455 33.5788 16.5478 33.9489 16.6406C29.909 18.8175 26.0526 21.2014 22.5663 24.2312C20.9813 25.6123 19.4913 27.1076 18.0898 28.6779C16.6061 30.3409 15.4071 32.3501 13.8506 33.9239C13.1008 33.642 12.3511 33.3565 11.5981 33.0745V33.071Z" fill="#87959E"/>
<path d="M96.6198 46.6318C97.8188 44.5191 99.5619 43.7304 102.086 44.173C102.719 44.2836 103.349 44.4192 103.978 44.5441C104.054 44.7404 104.124 44.9402 104.203 45.1365C105.364 48.045 105.823 51.0892 105.914 54.2046C105.899 54.4759 105.883 54.7471 105.867 55.0147C105.487 55.2289 105.108 55.6286 104.728 55.6286C102.039 55.6286 99.35 55.5465 96.6609 55.493C96.6356 55.5144 96.6103 55.5179 96.5787 55.5108C96.5787 54.0512 96.5787 52.5952 96.5787 51.1355C96.6135 51.0856 96.6135 51.0321 96.5787 50.9821C96.5787 50.3326 96.5818 49.6866 96.585 49.0371C96.5945 48.2342 96.604 47.4312 96.6166 46.6318H96.6198Z" fill="#E4E4E4"/>
<path d="M35.1732 11.5942C34.9581 10.0204 34.6259 8.53579 34.9201 6.96555C35.1574 5.70936 35.3504 5.60587 34.1957 4.94922C38.3716 2.99356 43.5441 0.791655 48.2357 0.788086C47.6473 2.99356 47.913 5.41316 47.913 7.69357C45.6859 8.23602 43.4365 8.67497 41.2505 9.37801C39.2195 10.0311 37.2422 11.1017 35.1701 11.5942H35.1732Z" fill="#87959E"/>
<path d="M96.8191 14.6204C96.2528 15.7232 96.8602 16.3192 96.7305 17.4183C96.6261 18.3034 96.3572 19.688 95.9839 20.5267C92.2509 17.5361 88.4767 14.9059 84.2311 12.7219C83.9654 12.6148 83.6965 12.5078 83.4308 12.4007C83.4308 11.3943 83.396 10.3879 83.4497 9.38512C83.5225 8.06112 83.668 6.74426 83.7819 5.42383C88.6349 7.53295 93.3138 10.5664 96.8159 14.6204H96.8191Z" fill="#9EADB5"/>
<path d="M83.7819 5.42395C83.668 6.74438 83.5225 8.06124 83.4497 9.38524C83.396 10.3881 83.4339 11.3944 83.4308 12.4008C79.2643 10.7057 75.1516 9.28175 70.8491 7.9863C70.8491 5.74514 71.3616 3.16852 70.5359 1.08081C72.9308 1.60541 75.2908 2.03723 77.6161 2.84733C79.6091 3.54323 82.1052 4.13564 83.7819 5.42395Z" fill="#87959E"/>
<path d="M84.6867 68.2478C84.6361 63.3516 84.886 58.4731 85.5757 53.6232C85.5852 53.5483 85.6358 53.4769 85.6674 53.4019C86.4647 53.4019 88.5305 52.9773 89.16 53.6589C89.7168 54.262 89.0683 55.3326 89.8624 55.925C90.7007 56.5496 93.3803 56.207 94.3737 56.1392C95.2816 56.0785 95.8099 55.5931 96.585 55.5111C96.6166 55.5182 96.642 55.5111 96.6673 55.4932C96.642 57.324 96.6198 59.1547 96.5945 60.9891C95.3892 60.7749 94.2534 60.6465 93.0228 60.6036C92.3964 60.5822 90.5584 60.1932 90.049 60.5787C89.1505 61.2603 89.6757 65.3179 89.8023 66.31C89.8023 66.8453 89.8023 67.3842 89.7991 67.9195C89.0651 67.5662 88.3312 67.5412 87.5972 67.916C87.5687 64.0903 87.6067 60.261 86.9803 56.4603C86.3539 60.1504 86.2337 63.8762 86.1356 67.6019C85.6548 67.8196 85.1739 68.0337 84.693 68.2514L84.6867 68.2478Z" fill="#232323"/>
<path d="M96.5818 55.5111C95.8068 55.5932 95.2784 56.0785 94.3705 56.1392C93.3771 56.207 90.6976 56.5496 89.8592 55.9251C89.0683 55.3327 89.7137 54.262 89.1569 53.6589C88.5273 52.9773 86.4615 53.3984 85.6643 53.402C85.9079 51.3821 86.3982 49.4371 87.3441 47.6313C88.4482 48.5664 89.2202 49.3372 90.7292 49.3979C92.5641 49.4728 94.8166 49.587 96.5882 49.0374C96.5882 49.6869 96.585 50.3329 96.5818 50.9824C96.5344 50.9967 96.4869 51.0109 96.4395 51.0288C96.4869 51.0645 96.5344 51.1001 96.5818 51.1358C96.5818 52.5954 96.5818 54.0515 96.5818 55.5111Z" fill="#191919"/>
<path d="M20.4435 51.3213C20.4499 49.719 20.4562 48.113 20.4625 46.5107C21.0256 44.2303 24.2367 43.9019 26.1127 44.4123C28.5582 45.076 30.1052 47.6134 30.5639 50.0152C28.9821 50.2578 27.723 51.1928 26.1475 51.2963C24.262 51.4212 22.3322 51.3178 20.4435 51.3249V51.3213Z" fill="#0A0A0A"/>
<path d="M109.262 56.3889C108.993 54.8828 108.79 53.359 108.433 51.8744C108.085 50.4326 107.572 49.0266 107.132 47.6062C107.205 47.4206 107.278 47.2351 107.348 47.0531C107.825 47.0602 108.306 47.0709 108.784 47.078C109.04 47.078 109.293 47.0816 109.549 47.0852C109.973 47.0852 110.397 47.0816 110.821 47.078C111.191 47.0745 111.565 47.0709 111.935 47.0673C112.15 47.0673 112.362 47.0673 112.577 47.0709C112.84 46.9745 113.099 46.8782 113.362 46.7818C113.969 46.5998 113.694 50.479 113.694 51.0786C113.694 53.0057 113.681 54.9328 113.656 56.8599C112.283 55.8393 110.809 55.7857 109.265 56.3889H109.262Z" fill="#E4E4E4"/>
<path d="M9.991 47.4171C8.7825 49.9331 8.33644 52.6453 7.96946 55.379C7.92201 55.7465 7.82077 56.107 7.74801 56.471C6.32123 55.6823 4.93873 55.9285 3.57839 56.6601C3.25886 55.668 2.94883 46.3251 3.73024 46.3394C3.65431 47.071 4.04027 47.2994 4.68881 47.253C4.92292 47.2351 5.15702 47.2387 5.39113 47.2316C5.55247 47.2316 5.71382 47.2351 5.87516 47.2387C6.19152 47.2387 6.50788 47.2387 6.82424 47.2387C7.77015 47.1887 8.71607 47.1388 9.66198 47.0888C9.77271 47.1959 9.88027 47.3065 9.991 47.4136V47.4171Z" fill="#E4E4E4"/>
<path d="M20.4435 92.6223C22.4904 91.3768 24.7397 92.2261 26.8846 91.9763C27.5015 91.9049 27.6629 92.4188 27.7641 92.8257C27.9571 93.6108 28.4 93.8749 29.1403 93.75C29.7793 93.6429 30.3203 93.857 30.8075 94.2639C30.4025 95.3595 30.0039 96.4586 29.58 97.5471C29.4883 97.7862 29.2984 97.9825 29.1561 98.2002C29.02 97.0867 28.729 96.8191 27.6502 96.8155C25.2459 96.8084 22.8415 96.7977 20.4372 96.7905C20.4372 96.2588 20.4372 95.7306 20.4404 95.1989C20.4847 95.1846 20.5321 95.1668 20.5764 95.1525C20.5321 95.1168 20.4878 95.0811 20.4404 95.0454C20.4404 94.2389 20.4404 93.4288 20.4404 92.6223H20.4435Z" fill="#191919"/>
<path d="M99.1981 28.8597C99.5335 27.2466 99.138 27.6071 97.9707 27.0789C98.3471 26.9683 98.5528 26.9112 98.7711 26.8469C98.4325 25.4623 98.0972 24.0954 97.765 22.7322C99.3025 24.1704 100.54 25.5158 101.77 27.2538C102.833 28.7562 103.804 30.8011 105.241 31.9502C105.373 30.5441 105.351 29.0417 105.892 27.732C105.914 27.7462 105.933 27.7569 105.956 27.7712C105.933 27.7605 105.911 27.7462 105.889 27.7355C105.747 27.6035 105.608 27.4679 105.38 27.2538C105.614 27.086 105.867 26.9076 106.123 26.7256C106.92 28.1566 107.724 29.5877 108.512 31.0259C108.664 31.3007 108.749 31.6147 108.863 31.9109C107.993 32.2036 107.12 32.4819 106.259 32.8031C106.107 32.8602 106.019 33.0886 105.902 33.2349C105.658 33.2171 105.392 33.1243 105.174 33.1885C104.494 33.392 103.83 33.6525 103.162 33.8952C101.843 32.2179 100.527 30.537 99.2076 28.8597H99.1981Z" fill="#6D7D85"/>
<path d="M109.812 69.0684C109.825 68.2512 109.834 67.4339 109.847 66.6167C110.132 67.7872 109.474 70.1712 110.508 70.8885C111.03 71.2525 112.21 70.8492 112.779 70.8349C113.849 70.8064 114.931 70.9206 116 70.9705C115.978 72.969 115.953 74.9639 115.93 76.9624C114.51 76.9303 113.093 76.8875 111.672 76.8696C110.321 76.8518 110.154 76.9874 109.79 78.24C109.806 75.9346 109.821 73.6292 109.837 71.3239C109.844 70.6244 109.85 69.9285 109.856 69.229C109.844 69.1755 109.831 69.1184 109.818 69.0648L109.812 69.0684Z" fill="#0A0A0A"/>
<path d="M96.5913 49.0374C94.8197 49.5834 92.5704 49.4728 90.7323 49.3978C89.2233 49.3372 88.4546 48.5663 87.3473 47.6313C88.9892 44.0162 92.2983 43.7628 95.0791 44.7335C95.9428 45.0333 96.3889 45.7649 96.6166 46.6356C96.6071 47.4386 96.5977 48.2416 96.585 49.0409L96.5913 49.0374Z" fill="#0A0A0A"/>
<path d="M96.585 96.1411C96.5439 97.0618 96.5028 97.9826 96.4616 98.9033C94.0826 101.601 89.8972 101.298 87.8851 98.2609C87.5213 97.7149 87.2745 97.0868 86.9772 96.498C87.4422 96.5872 87.9073 96.6728 88.4451 96.7763C89.179 95.6593 90.1914 96.1304 91.3398 96.1696C93.0829 96.2303 94.845 96.1518 96.5882 96.1411H96.585Z" fill="#0A0A0A"/>
<path d="M20.4435 51.3212C22.3322 51.3141 24.262 51.4211 26.1475 51.2926C27.723 51.1892 28.9821 50.2541 30.5639 50.0115C30.7252 50.6039 30.8897 51.1963 31.0511 51.7887C30.9403 52.0813 30.8296 52.374 30.7126 52.6809C30.1716 52.6024 28.9694 52.2241 28.4095 52.5239C27.7767 52.8593 27.8021 53.7908 27.299 54.2368C26.5999 54.8542 25.249 54.5509 24.3885 54.5723C23.0155 54.6044 21.7817 54.6687 20.4404 54.3689C20.4404 53.3554 20.4435 52.3383 20.4467 51.3248L20.4435 51.3212Z" fill="#191919"/>
<path d="M7.36837 61.9418C7.3051 63.3871 7.23866 64.836 7.17539 66.2814C5.55563 66.9416 3.2462 66.4705 1.49357 66.4705C1.42081 66.2885 1.32906 66.0494 1.23415 65.8139C1.28477 64.5505 1.33223 63.2872 1.38284 62.0203C1.4651 61.824 1.54419 61.6277 1.62644 61.4315C3.0469 61.8776 6.45093 60.5821 7.37153 61.9418H7.36837Z" fill="#232323"/>
<path d="M115.997 70.9744C114.928 70.9244 113.846 70.8102 112.776 70.8387C112.207 70.853 111.027 71.2527 110.505 70.8923C109.473 70.175 110.128 67.791 109.844 66.6205C109.834 66.4064 109.828 66.1958 109.818 65.9817C110.16 66.0709 110.498 66.1601 110.869 66.2565C110.938 66.0923 111.014 65.9139 111.027 65.8889C112.71 66.0174 114.292 66.1387 115.873 66.2601C115.915 67.8303 115.956 69.4041 115.997 70.9744Z" fill="#191919"/>
<path d="M20.4372 96.7905C22.8415 96.7977 25.2459 96.8084 27.6502 96.8155C28.729 96.8191 29.02 97.0867 29.1561 98.2002C27.394 100.52 25.3629 101.205 22.5536 100.434C21.4812 100.138 20.7124 99.5313 20.453 98.3857C20.4467 97.854 20.4435 97.3223 20.4372 96.7905Z" fill="#0A0A0A"/>
<path d="M109.565 84.7032C109.632 82.9831 109.695 81.2629 109.761 79.5464H109.815H109.869C109.897 79.6891 109.929 79.8283 109.939 79.864C110.843 79.6213 111.767 79.5999 112.704 79.6784C113.741 79.7641 114.915 80.3458 115.823 79.55C115.617 81.2201 115.415 82.8867 115.209 84.5569C114.064 84.4819 110.967 83.8574 110.119 84.7639C110.052 84.3963 110.008 84.15 109.935 83.7432C109.765 84.1822 109.663 84.4462 109.562 84.7103L109.565 84.7032Z" fill="#232323"/>
<path d="M7.19438 80.3672C7.27347 82.0302 7.35256 83.6968 7.42849 85.3598C7.38736 85.3598 7.34623 85.3598 7.30511 85.3598C7.35889 84.8923 7.18805 84.6818 6.69137 84.7068C5.09691 84.7817 3.4993 84.821 1.90484 84.8781C1.74666 84.2392 1.59165 83.604 1.43347 82.9652C1.37652 81.9874 1.31958 81.0096 1.26263 80.0282C1.36387 79.8925 1.4651 79.7534 1.6391 79.5178C1.7087 79.8997 1.75616 80.1709 1.79095 80.3672C3.63217 80.2601 5.35317 80.2387 7.19438 80.3672Z" fill="#232323"/>
<path d="M115.873 66.2598C114.292 66.1385 112.71 66.0172 111.027 65.8887C111.017 65.9137 110.941 66.0921 110.869 66.2563C110.499 66.1599 110.16 66.0707 109.818 65.9815C109.793 65.1179 109.765 64.2542 109.739 63.3906C109.812 62.7161 109.882 62.1629 110.075 61.5027C111.637 62.3913 113.706 61.699 115.408 61.467C115.532 62.7018 115.658 63.9366 115.782 65.1678C115.798 65.3427 115.817 65.5175 115.832 65.696C115.845 65.8851 115.858 66.0707 115.87 66.2598H115.873Z" fill="#232323"/>
<path d="M5.39113 47.2352C5.15702 47.2423 4.92292 47.2388 4.68881 47.2566C4.04027 47.303 3.65431 47.0746 3.73024 46.343C4.16682 41.9249 5.33102 37.7138 7.25449 33.7204C7.31143 33.6027 7.38736 33.4956 7.45379 33.385C7.96946 33.8418 7.05518 35.4762 6.94446 36.008C6.71668 37.0857 6.54584 38.1671 6.22632 39.252C5.49553 41.7287 4.89444 44.2446 4.15416 46.7142C4.2554 46.7713 4.35663 46.8284 4.45787 46.8855C5.78658 45.3616 6.24214 42.2925 6.76097 40.3333C7.34623 38.1242 8.63698 34.9623 8.37124 32.6641C8.48829 32.6569 8.60851 32.6534 8.72556 32.6462C8.95018 32.7533 9.17163 32.8604 9.39624 32.9674C8.65913 37.6674 6.95711 42.3639 5.71065 46.9497C5.60309 47.0461 5.49869 47.1424 5.39113 47.2388V47.2352Z" fill="#191919"/>
<path d="M96.585 96.1409C94.8419 96.1517 93.0797 96.2302 91.3366 96.1695C90.1914 96.1302 89.1759 95.6592 88.4419 96.7762C87.9041 96.6763 87.439 96.587 86.974 96.4978C86.838 96.1267 86.7051 95.7555 86.5691 95.3844C86.6829 95.338 86.7937 95.2951 87.1005 95.1738C87.2049 94.4315 90.4128 93.9961 90.9918 93.964C92.9247 93.8534 94.6963 93.8284 96.585 94.2424C96.585 94.8776 96.585 95.5093 96.5819 96.1445L96.585 96.1409Z" fill="#191919"/>
<path d="M32.2944 79.8674C32.0191 80.2065 31.842 80.5919 31.7597 81.0273C31.3991 80.6882 31.1396 80.4384 30.8771 80.1922C30.8771 77.3551 30.8612 74.5179 30.8866 71.6808C30.896 70.3746 30.9815 69.072 31.0321 67.7659C31.2124 67.6374 31.3927 67.5125 31.5699 67.384C31.785 67.7623 32.0476 68.1013 32.3513 68.4083C32.364 71.5345 32.3798 74.6607 32.3798 77.7869C32.3798 78.4792 32.3228 79.1751 32.2944 79.8674Z" fill="#191919"/>
<path d="M1.26263 80.0243C1.31958 81.0022 1.37652 81.9836 1.43347 82.9614C-0.138841 79.8816 0.0414837 75.7704 0.00668415 72.3623C-0.0249518 69.1005 0.000356464 64.9893 1.38285 62.0237C1.33223 63.287 1.28478 64.5503 1.23416 65.8172C1.20885 66.0956 1.18354 66.3704 1.15823 66.6488C1.1266 66.6951 1.12344 66.7415 1.15191 66.7879L1.14558 67.1377L1.12027 68.2368C1.12027 68.351 1.12027 68.4652 1.12027 68.5794C1.12027 71.4879 1.12343 74.3929 1.1266 77.3014C1.14242 77.6226 1.1614 77.9402 1.17721 78.2614C1.1962 78.4791 1.21518 78.6968 1.23416 78.918C1.24365 79.2856 1.25631 79.6568 1.2658 80.0243H1.26263Z" fill="#FEC91A"/>
<path d="M84.6867 68.2479C85.1676 68.0302 85.6485 67.8161 86.1293 67.5984C86.1293 71.6882 86.1325 75.7779 86.1356 79.8712C85.6674 79.8712 85.1961 79.8712 84.7279 79.8712C84.7152 75.9992 84.6994 72.1235 84.6867 68.2515V68.2479Z" fill="#191919"/>
<path d="M115.412 61.4673C113.706 61.6992 111.641 62.3916 110.078 61.503C109.885 62.1596 109.815 62.7128 109.742 63.3908C109.629 61.5137 109.511 59.6401 109.398 57.7629C109.67 58.1484 109.945 58.5373 110.312 59.0584C110.533 58.5873 110.676 58.284 110.783 58.0484C111.773 59.2832 113.159 58.7086 114.64 58.5623C114.896 59.5295 115.155 60.4966 115.412 61.4637V61.4673Z" fill="#191919"/>
<path d="M115.823 79.5465C114.912 80.3458 113.741 79.7641 112.704 79.6749C111.767 79.5964 110.843 79.6178 109.939 79.8605C109.929 79.8212 109.901 79.6821 109.869 79.5429C109.837 79.3323 109.806 79.1182 109.774 78.9077C109.774 78.6864 109.78 78.4651 109.784 78.2439C110.151 76.9912 110.315 76.8556 111.669 76.8735C113.089 76.8913 114.507 76.9341 115.927 76.9663C115.892 77.8263 115.858 78.6864 115.826 79.5465H115.823Z" fill="#191919"/>
<path d="M3.57839 56.6636C4.93874 55.9285 6.32123 55.6858 7.74801 56.4745C7.69423 57.2275 7.64361 57.9805 7.58983 58.7335C7.55187 59.0047 7.51074 59.2724 7.47278 59.5436C7.46012 59.8576 7.44431 60.1717 7.43165 60.4857C7.36522 60.0575 7.29561 59.6292 7.25449 59.3723C5.51135 59.3723 3.79984 59.4223 2.05986 59.5329C2.27182 58.4159 2.80647 57.4773 3.57839 56.6636Z" fill="#0A0A0A"/>
<path d="M9.66199 47.0924C8.71607 47.1423 7.77016 47.1923 6.82424 47.2423C7.03937 47.1423 7.25133 47.0424 7.46645 46.9425C9.0008 46.0325 9.21592 42.4459 9.63035 40.7864C10.2156 38.4347 10.8135 36.0615 11.7753 33.8381C11.8259 33.856 11.8765 33.8738 11.9271 33.8952C11.8132 34.7125 11.7183 35.5297 11.576 36.3434C11.5064 36.7395 11.1615 37.1856 11.9081 37.2605C11.2596 39.5303 10.5573 41.7893 9.98468 44.0804C9.74108 45.0511 9.76322 46.0896 9.66515 47.0995L9.66199 47.0924Z" fill="#232323"/>
<path d="M112.577 47.0709C112.362 47.0709 112.15 47.0709 111.935 47.0673C111.191 44.5157 110.423 41.9712 109.72 39.4052C109.337 38.0134 107.48 33.9951 108.423 32.7067C108.641 32.5961 108.857 32.489 109.075 32.3784C109.293 32.8174 109.508 33.2599 109.727 33.6988C109.008 35.1014 110.324 37.8136 110.714 39.2625C111.41 41.8534 112.001 44.4514 112.577 47.0709Z" fill="#232323"/>
<path d="M108.784 47.0817C108.306 47.0745 107.825 47.0638 107.348 47.0567C107.186 42.7885 106.101 38.7986 103.896 35.1371C103.754 34.898 103.671 34.6268 103.561 34.3663C104.165 34.1807 104.772 33.9951 105.377 33.8096C106.345 38.274 107.594 42.6743 108.784 47.0852V47.0817Z" fill="#232323"/>
<path d="M112.577 47.0708C112.004 44.4477 111.41 41.8497 110.714 39.2624C110.325 37.8135 109.005 35.1012 109.727 33.6987C111.479 37.1069 112.485 40.7505 113.08 44.5262C113.197 45.2757 113.267 46.0323 113.358 46.7817C113.096 46.878 112.836 46.9744 112.574 47.0708H112.577Z" fill="#191919"/>
<path d="M109.255 88.5645C109.347 87.4939 109.442 86.4197 109.534 85.3491C109.632 85.7024 109.733 86.0557 109.784 86.2413C111.103 85.7131 112.707 86.0165 114.127 86.0165C114.27 86.3555 114.361 86.5839 114.456 86.8123C113.52 88.8286 111.628 89.4674 109.252 88.5645H109.255Z" fill="#0A0A0A"/>
<path d="M2.05986 59.5329C3.79984 59.4223 5.51134 59.3723 7.25449 59.3723C7.29561 59.6293 7.36205 60.0575 7.43165 60.4858C7.43165 60.55 7.43165 60.6142 7.43165 60.6749C7.41583 60.9854 7.39685 61.2923 7.38103 61.6028C7.37787 61.717 7.37154 61.8312 7.36838 61.9454C6.44777 60.5893 3.04374 61.8811 1.62328 61.435C1.76881 60.7998 1.91433 60.1681 2.05986 59.5329Z" fill="#191919"/>
<path d="M114.64 58.5658C113.159 58.7085 111.773 59.2867 110.783 58.0519C110.676 58.2839 110.53 58.5908 110.312 59.0618C109.942 58.5408 109.67 58.1518 109.398 57.7664C109.353 57.3096 109.309 56.8528 109.265 56.3924C110.809 55.7857 112.283 55.8429 113.656 56.8599C113.985 57.4274 114.314 57.9984 114.64 58.5658Z" fill="#0A0A0A"/>
<path d="M7.3051 85.3561C7.34623 85.3561 7.38736 85.3561 7.42848 85.3561C7.43797 85.4132 7.44747 85.4739 7.45696 85.531C7.50441 85.845 7.5487 86.1591 7.59615 86.4731C7.64677 87.169 7.70055 87.8685 7.75117 88.5644C5.60309 89.3852 3.77136 88.8891 2.80014 87.2297C2.98679 85.6095 6.20733 86.3197 7.30194 86.3197V85.3525L7.3051 85.3561Z" fill="#0A0A0A"/>
<path d="M8.3744 32.6606C8.64331 34.9552 7.3494 38.1207 6.76413 40.3297C6.2453 42.289 5.78974 45.3581 4.46103 46.8819C4.3598 46.8248 4.25856 46.7677 4.15733 46.7106C4.89444 44.2411 5.49869 41.7251 6.22948 39.2484C6.549 38.1635 6.71984 37.0822 6.94762 36.0044C7.06151 35.4727 7.97262 33.8382 7.45696 33.3814C7.50758 33.2744 7.55819 33.1637 7.60881 33.0567C7.86506 32.9246 8.11815 32.7926 8.3744 32.657V32.6606Z" fill="#232323"/>
<path d="M105.918 54.205C105.826 51.0895 105.367 48.0454 104.206 45.1368C104.127 44.9406 104.057 44.7407 103.981 44.5444C104.412 44.8085 104.842 45.069 105.272 45.3331C106.348 49.819 106.813 54.2764 106.984 58.88C106.879 58.334 106.772 57.788 106.664 57.2348C106.474 57.324 106.361 57.3811 106.247 57.4347C106.231 57.06 106.215 56.6852 106.196 56.3105C107.246 56.2891 106.164 54.6261 105.918 54.2085V54.205Z" fill="#191919"/>
<path d="M114.459 86.8121C114.364 86.5837 114.27 86.3553 114.13 86.0163C112.71 86.0163 111.106 85.7129 109.787 86.2411C109.736 86.0555 109.635 85.7022 109.537 85.3489C109.546 85.1348 109.556 84.9207 109.568 84.703C109.67 84.4389 109.774 84.1748 109.942 83.7358C110.014 84.1427 110.059 84.3889 110.125 84.7565C110.97 83.85 114.07 84.4746 115.215 84.5495C114.966 85.3025 114.716 86.0555 114.466 86.8085L114.459 86.8121Z" fill="#191919"/>
<path d="M7.30509 85.3561V86.3233C6.21049 86.3233 2.98994 85.6131 2.80329 87.2333C2.50275 86.4446 2.20537 85.6595 1.90483 84.8708C3.49928 84.8173 5.0969 84.7744 6.69135 84.6995C7.1912 84.6781 7.36204 84.8851 7.30509 85.3526V85.3561Z" fill="#191919"/>
<path d="M106.449 93.7392C106.43 93.8713 106.411 93.9997 106.392 94.1318C106.38 94.2067 106.364 94.2852 106.351 94.3602C106.025 95.859 105.699 97.3543 105.377 98.8532C105.323 99.1101 105.291 99.3707 105.25 99.6276C104.826 99.8667 104.405 100.109 103.981 100.348C104.503 98.4963 105.038 96.6477 105.538 94.7884C105.627 94.4637 105.579 94.0997 105.595 93.7535C105.646 93.5929 105.693 93.4323 105.744 93.2753C105.88 91.9727 106.019 90.6737 106.155 89.3711C106.37 89.6459 106.582 89.9171 106.797 90.1919C106.769 90.5309 106.743 90.87 106.715 91.209C106.696 91.2447 106.683 91.2839 106.68 91.3232C106.661 91.548 106.639 91.7728 106.62 91.9977C106.61 92.1404 106.601 92.2867 106.591 92.4295C106.55 92.8185 106.506 93.211 106.465 93.6C106.452 93.6143 106.427 93.6286 106.427 93.6393C106.427 93.6714 106.44 93.7071 106.449 93.7392Z" fill="#191919"/>
<path d="M11.8955 99.7277C11.5348 98.2181 11.171 96.705 10.8104 95.1954C10.8072 95.1526 10.7914 95.1133 10.7692 95.0776C10.6775 94.3532 10.5889 93.6323 10.4972 92.9078L10.475 92.8401C10.4434 92.4975 10.4149 92.1513 10.3833 91.8087C10.3959 91.7944 10.4244 91.773 10.4212 91.7623C10.4118 91.7266 10.3896 91.6945 10.3738 91.6624C10.2662 90.6381 10.1587 89.6175 10.0511 88.5933C10.146 88.8573 10.2789 89.1179 10.3232 89.3891C10.3865 89.7924 10.3801 90.2063 10.9432 90.2028C10.997 90.7916 11.0508 91.384 11.1014 91.9728C10.1777 92.112 10.997 92.6259 10.8926 92.94C10.9717 92.7259 11.0476 92.5117 11.1267 92.2976C11.2723 93.4253 11.3165 94.578 11.5886 95.6736C11.9809 97.2581 12.5409 98.7998 13.0312 100.359C12.6547 100.149 12.2783 99.9382 11.9018 99.7277H11.8955ZM10.8072 90.8951C10.5541 90.6845 10.4814 90.8737 10.687 91.0914C10.7218 91.0343 10.7598 90.9736 10.8072 90.8951Z" fill="#191919"/>
<path d="M11.1014 52.913C11.0666 53.252 11.0287 53.5875 10.9939 53.9265C10.4719 54.4404 10.3105 55.0828 10.32 55.8001C10.32 55.9571 10.203 56.1177 10.1397 56.2747C10.1397 56.1534 10.1429 56.032 10.1429 55.9143C10.1555 55.7894 10.1682 55.6645 10.184 55.5396C10.3074 52.3134 10.6807 49.1265 11.6329 46.0325C11.7025 45.8076 11.7215 45.565 11.7626 45.3294C12.1802 45.0618 12.601 44.7977 13.0186 44.53C11.9271 47.1637 11.4684 49.9474 11.1141 52.7524C11.0951 52.7667 11.054 52.7845 11.0571 52.7952C11.0666 52.8345 11.0856 52.8737 11.1014 52.913ZM10.5003 53.873C10.5288 53.8801 10.5604 53.8837 10.5889 53.8908C10.6712 53.7766 10.649 53.6731 10.5225 53.5839L10.5003 53.873Z" fill="#191919"/>
<path d="M11.924 33.8918C11.8733 33.874 11.8227 33.8561 11.7721 33.8347C11.4146 33.6991 11.0571 33.567 10.6996 33.4314C10.2662 33.2744 9.83282 33.1174 9.39624 32.9604C9.17162 32.8533 8.95017 32.7462 8.72556 32.6392C8.72556 32.4714 8.72239 32.3037 8.71923 32.136C9.6778 32.4465 10.6395 32.7569 11.5981 33.071C12.3479 33.3529 13.0977 33.6384 13.8506 33.9203C13.7462 34.1202 13.6418 34.3165 13.5406 34.5163C13.0027 34.3093 12.4649 34.0988 11.9271 33.8918H11.924Z" fill="#E4E4E4"/>
<path d="M11.924 33.8916C12.4618 34.0986 12.9996 34.3091 13.5374 34.5161C12.9933 35.4297 12.4491 36.3433 11.905 37.2569C11.1584 37.182 11.5064 36.7323 11.5728 36.3397C11.7152 35.5296 11.8101 34.7088 11.924 33.8916Z" fill="#191919"/>
<path d="M109.075 32.3785C108.857 32.4891 108.641 32.5962 108.423 32.7068C108.053 32.8353 107.686 32.9638 107.316 33.0922C106.838 33.1743 106.361 33.2528 105.88 33.3349C105.905 33.3064 105.911 33.2742 105.892 33.2385C106.009 33.0887 106.098 32.8638 106.25 32.8067C107.11 32.4855 107.983 32.2072 108.853 31.9146C108.926 32.0716 108.999 32.2286 109.072 32.3821L109.075 32.3785Z" fill="#E4E4E4"/>
<path d="M105.895 33.2349C105.914 33.2706 105.908 33.3028 105.883 33.3313C105.854 33.4419 105.826 33.5526 105.797 33.6632C105.658 33.7096 105.516 33.7595 105.377 33.8059C104.772 33.9915 104.165 34.1771 103.561 34.3627C103.425 34.2056 103.289 34.0486 103.153 33.8916C103.823 33.6525 104.485 33.3884 105.165 33.185C105.383 33.1207 105.649 33.21 105.892 33.2314L105.895 33.2349Z" fill="#9EADB5"/>
<path d="M8.3744 32.6604C8.11815 32.7925 7.86506 32.9245 7.60881 33.0601C7.69106 32.8531 7.77332 32.6461 7.86823 32.3999C8.07386 32.507 8.22255 32.5819 8.37124 32.6604H8.3744Z" fill="#191919"/>
<path d="M115.835 65.6961C115.819 65.5213 115.801 65.3464 115.785 65.168C115.801 65.3428 115.819 65.5177 115.835 65.6961Z" fill="#191919"/>
<path d="M27.3686 79.8675C27.3686 80.6205 27.3686 81.3699 27.3655 82.1229C25.0655 82.544 22.7561 82.5833 20.4372 82.2835C20.4214 79.325 20.3961 76.3701 20.3961 73.4116C20.3961 70.6709 20.4214 67.9265 20.4372 65.1857C20.8643 65.0751 21.2914 64.8788 21.7216 64.8717C23.6008 64.8396 25.48 64.861 27.3591 64.8645C27.3591 65.8317 27.3623 66.7952 27.3655 67.7623C27.3655 71.795 27.3655 75.8312 27.3655 79.8639L27.3686 79.8675Z" fill="#0A0A0A"/>
<path d="M20.3613 57.274C20.3866 58.4588 20.4087 59.6436 20.434 60.8249C20.4119 61.3638 20.3866 61.8991 20.3644 62.4379C17.7007 63.166 14.9642 62.4843 12.2815 62.8555C12.0094 62.8947 11.7152 62.7627 11.3798 62.702C11.326 62.4451 11.2659 62.1703 11.1552 61.6493C10.9401 61.9633 10.8135 62.1489 10.687 62.3345C10.7598 60.261 10.8294 58.1876 10.9021 56.1106C11.19 56.8814 11.4779 57.6487 11.8449 58.623C11.9208 58.0627 11.9809 57.6416 12.022 57.3382C14.0784 57.7344 18.6023 58.4802 20.3613 57.2776V57.274Z" fill="#FEFEFE"/>
<path d="M20.3644 62.4379C20.3866 61.899 20.4119 61.3637 20.434 60.8248C22.0854 60.8819 24.8884 60.4073 26.4417 61.0425C27.8337 61.6135 27.3686 63.587 27.3623 64.8682C25.4831 64.8682 23.604 64.8432 21.7248 64.8753C21.2945 64.8825 20.8675 65.0788 20.4404 65.1894C20.4151 64.2722 20.3897 63.3551 20.3644 62.4379Z" fill="#191919"/>
<path d="M20.4372 82.2836C22.753 82.5834 25.0655 82.5442 27.3655 82.123C27.3655 83.7076 27.9191 85.417 26.1633 85.8274C24.5625 86.2057 21.8766 86.0808 20.434 85.3527C20.434 84.3285 20.4372 83.3043 20.4404 82.2801L20.4372 82.2836Z" fill="#191919"/>
<path d="M9.82016 76.7735C9.81067 74.461 9.80118 72.1485 9.79169 69.8395C9.80434 69.6753 9.81383 69.5112 9.82649 69.347C9.82649 69.0936 9.83281 68.8403 9.83598 68.5869C9.85496 67.9409 9.87078 67.2914 9.88976 66.6455C9.93088 66.6384 9.97201 66.6348 10.01 66.6276C10.1144 66.5349 10.2726 66.4635 10.3137 66.3493C10.4276 66.0281 10.494 65.6891 10.5763 65.3572C10.5794 67.9695 10.5826 70.5818 10.5889 73.1941C10.5889 73.5117 10.6205 73.8293 10.6364 74.1505V74.1291C10.6364 76.5558 10.6364 78.9861 10.6364 81.4129C10.6364 81.8126 10.6237 82.2123 10.6174 82.612C10.4782 82.3586 10.3358 82.1016 10.2314 81.9089C10.1682 82.3693 10.0986 82.8868 10.029 83.4078L9.8518 81.1773C9.85812 81.1024 9.86129 81.0239 9.86761 80.9489C9.85812 80.2673 9.84863 79.5857 9.83914 78.9076C9.83598 78.2688 9.82965 77.63 9.82649 76.9912C9.82649 76.9199 9.82649 76.8485 9.82332 76.7771L9.82016 76.7735Z" fill="#0A0A0A"/>
<path d="M10.9021 56.1103C10.8293 58.1837 10.7597 60.2571 10.687 62.3341C10.6554 62.9087 10.6237 63.4833 10.5921 64.0614C10.5035 64.0578 10.4149 64.0507 10.3263 64.0471C9.96252 62.2449 10.5162 60.3071 9.9119 58.5727C9.98783 57.809 10.0638 57.0453 10.1428 56.2816C10.2061 56.121 10.3263 55.964 10.3232 55.8069C10.3137 55.0896 10.475 54.4472 10.997 53.9333C10.9654 54.6614 10.9337 55.3894 10.9053 56.1174L10.9021 56.1103Z" fill="#232323"/>
<path d="M9.84863 81.1735C9.90874 81.9158 9.96568 82.6616 10.0258 83.4039C10.0732 83.8786 9.8866 84.4888 10.6617 84.5495C10.6712 84.81 10.6807 85.0741 10.6901 85.3346C10.3928 85.7986 10.3137 86.2518 10.7534 86.6765C10.8167 87.8506 10.8768 89.0247 10.9401 90.1988C10.3801 90.1988 10.3833 89.7848 10.32 89.3851C10.2757 89.1103 10.1428 88.8534 10.0479 88.5893C9.94987 86.2625 9.36777 83.4432 9.84863 81.1699V81.1735Z" fill="#232323"/>
<path d="M10.6617 84.5497C9.8866 84.489 10.0732 83.8788 10.0258 83.4041C10.0954 82.8831 10.1682 82.3656 10.2283 81.9053C10.3358 82.098 10.475 82.3549 10.6142 82.6083C10.6206 82.7189 10.6269 82.8296 10.6332 82.9402C10.6332 83.0473 10.6364 83.1508 10.6395 83.2578C10.6459 83.6896 10.6522 84.1215 10.6617 84.5533V84.5497Z" fill="#191919"/>
<path d="M10.5763 65.3534C10.4908 65.6853 10.4276 66.0244 10.3137 66.3455C10.2726 66.4597 10.1144 66.5311 10.01 66.6239C10.0606 66.0922 10.1144 65.5569 10.165 65.0251C10.3042 65.0215 10.4402 65.018 10.5794 65.0144C10.5794 65.1286 10.5794 65.2392 10.5763 65.3534Z" fill="#232323"/>
<path d="M10.5794 65.0144C10.4402 65.018 10.3042 65.0215 10.165 65.0251C10.2188 64.6968 10.2694 64.372 10.3232 64.0437C10.4118 64.0473 10.5003 64.0544 10.5889 64.058C10.5858 64.3756 10.5826 64.6932 10.5763 65.0144H10.5794Z" fill="#0A0A0A"/>
<path d="M10.7534 86.6802C10.3137 86.252 10.3928 85.7987 10.6901 85.3384C10.7123 85.7845 10.7313 86.2341 10.7534 86.6802Z" fill="#191919"/>
<path d="M11.1236 92.3011C11.0445 92.5152 10.9685 92.7293 10.8895 92.9434C10.9939 92.6294 10.1745 92.1119 11.0983 91.9763C11.1077 92.0834 11.1141 92.194 11.1236 92.3011Z" fill="#232323"/>
<path d="M10.6426 83.2578C10.6426 83.1507 10.6395 83.0472 10.6364 82.9402C10.6364 83.0472 10.6395 83.1507 10.6426 83.2578Z" fill="#232323"/>
<path d="M20.4435 92.1403C20.4878 92.176 20.5353 92.2117 20.5796 92.2473L20.4435 92.2937C20.4435 92.2402 20.4435 92.1902 20.4435 92.1367V92.1403Z" fill="#191919"/>
<path d="M20.4404 95.0454C20.4846 95.0811 20.5321 95.1168 20.5764 95.1525C20.5321 95.1667 20.4846 95.1846 20.4404 95.1989C20.4087 95.1489 20.4087 95.0989 20.4404 95.0454Z" fill="#0A0A0A"/>
<path d="M10.6364 74.1254V74.1468C10.6551 74.1397 10.6739 74.1325 10.6957 74.1218C10.677 74.1218 10.6582 74.1218 10.6395 74.1218L10.6364 74.1254Z" fill="#232323"/>
<path d="M89.7928 67.9193C89.7928 67.384 89.7928 66.8451 89.7959 66.3098C90.6628 66.3633 91.5327 66.3919 92.3964 66.4775C93.7915 66.6132 95.2088 66.0886 96.5882 66.6381C96.5882 71.5309 96.5913 76.4236 96.5945 81.3163C95.4872 81.4805 94.3863 81.6875 93.2727 81.7945C92.118 81.9052 90.957 81.9159 89.7991 81.973C89.7991 81.4876 89.7991 81.0058 89.7991 80.5205C89.5397 76.4093 89.3435 72.0198 89.7991 67.9229L89.7928 67.9193Z" fill="#0A0A0A"/>
<path d="M106.196 56.3066C106.212 56.6813 106.228 57.0561 106.247 57.4308C106.262 57.7555 106.278 58.0803 106.291 58.405C106.297 58.5121 106.304 58.6156 106.31 58.7226C106.332 59.3151 106.351 59.9075 106.373 60.5034C106.367 61.417 106.361 62.3306 106.354 63.2442C104.617 63.7974 103.26 63.8973 101.457 63.8366C99.8941 63.7831 98.1225 63.5119 96.6546 64.0543C96.6325 63.9473 96.6103 63.8438 96.5882 63.7367C96.5882 62.8231 96.5882 61.906 96.5882 60.9924C96.6135 59.1616 96.6356 57.3308 96.6609 55.4965C99.35 55.55 102.039 55.6321 104.728 55.6321C105.108 55.6321 105.487 55.2324 105.867 55.0183C105.933 55.286 106 55.55 106.066 55.8177C105.918 55.9605 105.766 56.1032 105.617 56.246C105.785 56.2745 105.949 56.303 106.117 56.3316L106.161 56.3423L106.193 56.3138L106.196 56.3066Z" fill="#FEFEFE"/>
<path d="M89.7991 81.9694C90.957 81.9159 92.1212 81.9016 93.2727 81.791C94.3831 81.6839 95.4872 81.4769 96.5945 81.3127C96.5945 81.4234 96.5945 81.534 96.5945 81.6446C96.5439 81.6589 96.4964 81.6732 96.4458 81.691C96.4964 81.7267 96.5439 81.7624 96.5945 81.7981C96.5945 83.5753 96.5945 85.349 96.5945 87.1262C95.56 87.4759 94.4654 87.5116 93.3866 87.4902C92.6653 87.4759 90.5615 87.6936 90.03 87.3261C88.9544 86.5838 89.4511 83.0329 89.8054 81.9658L89.7991 81.9694Z" fill="#191919"/>
<path d="M96.5913 60.9853C96.5913 61.8989 96.5913 62.8161 96.5913 63.7297C96.1832 64.265 96.1896 64.8003 96.5882 65.3356V66.6346C95.2152 66.0815 93.7947 66.6096 92.3996 66.474C91.5359 66.3884 90.6659 66.3598 89.7991 66.3063C89.6757 65.3106 89.1474 61.2566 90.0459 60.5749C90.5552 60.1895 92.3932 60.5749 93.0196 60.5999C94.2503 60.6427 95.386 60.7712 96.5913 60.9853Z" fill="#191919"/>
<path d="M107.126 63.9084C107.123 70.2964 107.12 76.688 107.117 83.076C107.012 81.9554 106.908 80.8348 106.803 79.7142C106.639 80.6671 106.788 81.545 106.408 82.4479C106.436 77.7122 106.465 72.9801 106.493 68.2444C107.287 67.4164 107.031 65.0218 107.123 63.9048L107.126 63.9084Z" fill="#0A0A0A"/>
<path d="M106.408 82.4478C106.784 81.5413 106.639 80.667 106.803 79.7141C106.908 80.8347 107.012 81.9553 107.117 83.0759C107.094 84.068 107.075 85.0636 107.053 86.0557C107.031 86.4519 107.009 86.848 106.984 87.2441C106.949 87.6866 106.917 88.1327 106.883 88.5753C106.658 88.5753 106.433 88.5824 106.209 88.586C106.275 86.5411 106.342 84.4926 106.408 82.4478Z" fill="#191919"/>
<path d="M107.126 63.9083C107.034 65.0217 107.287 67.4163 106.497 68.2478C106.497 67.709 106.493 67.1701 106.49 66.6312C106.487 66.203 106.481 65.7783 106.478 65.35L106.449 64.0475C106.449 63.8369 106.443 63.6228 106.443 63.4122C106.414 63.3551 106.386 63.3016 106.361 63.2445C106.367 62.3309 106.373 61.4173 106.38 60.5037C106.535 60.3467 106.75 60.2182 106.835 60.0291C106.949 59.7792 106.962 59.483 107.019 59.2083C107.057 60.7749 107.094 62.3416 107.132 63.9083H107.126Z" fill="#191919"/>
<path d="M106.209 88.5859C106.433 88.5859 106.658 88.5788 106.883 88.5752C106.854 89.1141 106.826 89.6494 106.797 90.1883C106.582 89.9135 106.37 89.6422 106.155 89.3675C106.171 89.1069 106.19 88.8464 106.206 88.5859H106.209Z" fill="#232323"/>
<path d="M96.585 65.3391C96.1864 64.8038 96.1832 64.2685 96.5882 63.7332C96.6103 63.8402 96.6325 63.9437 96.6546 64.0508C96.6325 64.479 96.6071 64.9108 96.585 65.3391Z" fill="#0A0A0A"/>
<path d="M105.747 93.2715C105.696 93.4321 105.649 93.5927 105.598 93.7497C105.649 93.5891 105.696 93.4285 105.747 93.2715Z" fill="#232323"/>
<path d="M96.5913 81.8019C96.5407 81.7662 96.4933 81.7305 96.4426 81.6948C96.4933 81.6806 96.5407 81.6663 96.5913 81.6484C96.5913 81.6984 96.5913 81.7519 96.5913 81.8019Z" fill="#0A0A0A"/>
<path d="M97.7642 22.7322C97.7423 22.7215 97.7205 22.7072 97.6986 22.6965C97.7205 22.7108 97.7423 22.7215 97.7642 22.7358V22.7322Z" fill="#6D7D85"/>
<path d="M1.12343 77.3016C1.12343 74.3931 1.12027 71.4882 1.1171 68.5797C1.62961 70.1142 5.52083 69.2149 6.85903 69.2149C6.97608 68.7652 7.06783 68.4191 7.15957 68.0693C7.1659 71.4204 7.17223 74.7714 7.17856 78.1189C6.01119 77.8762 1.43979 78.6114 1.12343 77.2981V77.3016Z" fill="#0A0A0A"/>
<path d="M7.15957 68.0728C7.06783 68.419 6.97608 68.7687 6.85903 69.2184C5.52083 69.2184 1.62961 70.1177 1.1171 68.5831C1.1171 68.4689 1.1171 68.3548 1.1171 68.2406C1.12659 67.873 1.13292 67.5054 1.14241 67.1378C1.14241 67.02 1.14874 66.9058 1.14874 66.7881C1.16139 66.7738 1.1867 66.7595 1.1867 66.7488C1.18354 66.7167 1.16772 66.6846 1.15823 66.6489C1.18354 66.3705 1.20885 66.0957 1.23416 65.8174C1.3259 66.0565 1.42081 66.292 1.49357 66.474C3.2462 66.474 5.55563 66.9451 7.17539 66.2849C7.16906 66.8809 7.1659 67.4768 7.15957 68.0728Z" fill="#191919"/>
<path d="M1.12344 77.3015C1.4398 78.6148 6.0112 77.8761 7.17857 78.1223C7.1849 78.8717 7.18806 79.6176 7.19439 80.367C5.35317 80.235 3.63218 80.2564 1.79096 80.367C1.75616 80.1708 1.70554 79.8995 1.63911 79.5177C1.46511 79.7532 1.36388 79.8888 1.26264 80.028C1.25315 79.6604 1.2405 79.2893 1.23101 78.9217C1.21203 78.704 1.19304 78.4863 1.17406 78.2651C1.15824 77.9439 1.13926 77.6263 1.12344 77.3051V77.3015Z" fill="#191919"/>
<path d="M10.3232 64.0439C10.2694 64.3722 10.2188 64.697 10.165 65.0253C10.1144 65.5571 10.0606 66.0924 10.01 66.6241C9.96886 66.6312 9.92773 66.6384 9.88977 66.6419C9.88028 66.4921 9.87079 66.3386 9.8613 66.1887C9.81385 65.2394 9.71261 64.2902 9.72843 63.3409C9.75057 61.7492 9.84864 60.1576 9.91192 58.5659C10.5162 60.3039 9.96253 62.2417 10.3263 64.0403L10.3232 64.0439Z" fill="#191919"/>
<path d="M9.86098 66.1921C9.87035 66.342 9.87973 66.4955 9.8891 66.6454C9.87035 67.2913 9.85473 67.9408 9.83598 68.5868C9.84535 67.7874 9.8516 66.9915 9.86098 66.1921Z" fill="#232323"/>
<path d="M9.83598 78.9004C9.84535 79.582 9.85473 80.2636 9.8641 80.9417C9.85473 80.2601 9.84535 79.5784 9.83598 78.9004Z" fill="#232323"/>
<path d="M9.82607 69.3433C9.81356 69.5074 9.80106 69.6716 9.79169 69.8357C9.80419 69.6716 9.81669 69.5074 9.82607 69.3433Z" fill="#232323"/>
<path d="M9.82016 76.7734C9.82016 76.8448 9.82016 76.9162 9.82329 76.9876C9.82329 76.9162 9.82329 76.8448 9.82016 76.7734Z" fill="#232323"/>
<path d="M10.4747 92.8401L10.4966 92.9079L10.4466 92.8793L10.4747 92.8401Z" fill="#232323"/>
<path d="M10.769 95.0776C10.7909 95.1133 10.8034 95.1526 10.8097 95.1954C10.7503 95.1704 10.7378 95.1312 10.769 95.0776Z" fill="#232323"/>
<path d="M10.3736 91.6587C10.3892 91.6908 10.4111 91.7229 10.4205 91.7586C10.4205 91.7693 10.3955 91.7907 10.383 91.805C10.3517 91.7586 10.3486 91.7087 10.3736 91.6587Z" fill="#232323"/>
<path d="M107.009 59.2046C106.952 59.4794 106.939 59.7756 106.826 60.0254C106.74 60.2146 106.528 60.343 106.37 60.5001C106.348 59.9077 106.329 59.3152 106.307 58.7193C106.364 58.6764 106.421 58.6336 106.478 58.5908C106.414 58.5266 106.351 58.4659 106.288 58.4016C106.272 58.0769 106.256 57.7521 106.243 57.4274C106.357 57.3739 106.471 57.3168 106.661 57.2275C106.769 57.7843 106.873 58.3267 106.981 58.8727C106.99 58.9834 107 59.094 107.009 59.201V59.2046Z" fill="#232323"/>
<path d="M109.777 78.9075C109.809 79.118 109.84 79.3321 109.872 79.5427H109.818H109.765C109.771 79.3321 109.774 79.118 109.78 78.9075H109.777Z" fill="#0A0A0A"/>
<path d="M106.351 94.3602C106.364 94.2853 106.379 94.2068 106.392 94.1318C106.379 94.2103 106.364 94.2853 106.351 94.3602Z" fill="#232323"/>
<path d="M106.68 91.3195C106.686 91.2803 106.696 91.241 106.714 91.2053L106.736 91.2731L106.68 91.3195Z" fill="#232323"/>
<path d="M106.449 93.739C106.443 93.7069 106.43 93.6712 106.427 93.6391C106.427 93.6248 106.452 93.6141 106.464 93.5999C106.489 93.6498 106.483 93.6962 106.449 93.739Z" fill="#232323"/>
<path d="M109.812 69.0684C109.825 69.1219 109.837 69.179 109.85 69.2325C109.825 69.1968 109.796 69.1647 109.777 69.1255C109.771 69.1148 109.799 69.0862 109.809 69.0684H109.812Z" fill="#232323"/>
<path d="M11.1009 52.9128C11.0853 52.8735 11.0665 52.8343 11.0571 52.795C11.0571 52.7843 11.0946 52.7665 11.1134 52.7522C11.1103 52.8057 11.104 52.8593 11.1009 52.9128Z" fill="#232323"/>
<path d="M31.0289 67.7694C30.9783 69.0756 30.8961 70.3782 30.8834 71.6843C30.8613 74.5215 30.8771 77.3586 30.8739 80.1957C30.6714 82.9651 30.4658 85.7344 30.2633 88.5002C30.1589 88.5002 30.0545 88.4966 29.9501 88.493C29.5294 85.3704 29.444 82.2228 29.4218 79.0716C29.4218 75.2995 29.4218 71.5273 29.4218 67.7587C29.4123 63.9652 29.5231 60.1752 29.8932 56.403C30.0134 56.3995 30.1336 56.3959 30.2538 56.3923C30.5101 60.1859 30.7663 63.9794 31.0258 67.773L31.0289 67.7694Z" fill="#0A0A0A"/>
<path d="M29.425 67.7554C29.425 71.5275 29.425 75.2997 29.425 79.0682C28.7385 79.3359 28.0551 79.6 27.3686 79.8676C27.3686 75.835 27.3686 71.7987 27.3686 67.7661C28.0551 67.7661 28.7385 67.7589 29.425 67.7554Z" fill="#191919"/>
<path d="M86.1356 79.871C86.1356 75.7812 86.1325 71.6914 86.1293 67.5981C86.2274 63.8724 86.3476 60.1502 86.9708 56.4565C87.5972 60.2572 87.5593 64.0865 87.5877 67.9157C87.5877 72.0091 87.5846 76.106 87.5814 80.1993C87.5719 82.9758 87.4201 85.7451 87.0721 88.493C86.9582 88.493 86.8411 88.493 86.7272 88.4966C86.5311 85.6202 86.3318 82.7438 86.1356 79.8674V79.871Z" fill="#0A0A0A"/>
<path d="M87.5846 80.1994C87.5846 76.1061 87.5877 72.0092 87.5909 67.9159C88.328 67.5447 89.062 67.5697 89.7959 67.9194C89.3404 72.0163 89.5365 76.4059 89.7959 80.517C89.0683 80.3422 88.2648 80.7026 87.5846 80.1994Z" fill="#191919"/>
<path d="M106.073 55.8141C106.006 55.5464 105.94 55.2823 105.873 55.0147C105.889 54.7435 105.905 54.4722 105.921 54.2046C106.171 54.6257 107.253 56.2852 106.199 56.3066L106.168 56.3351L106.123 56.3244C106.107 56.1531 106.092 55.9818 106.073 55.8105V55.8141Z" fill="#232323"/>
<path d="M96.585 51.1356C96.5376 51.0999 96.4901 51.0643 96.4426 51.0286C96.4901 51.0143 96.5376 51 96.585 50.9822C96.6166 51.0321 96.6166 51.0857 96.585 51.1356Z" fill="#0A0A0A"/>
<path d="M105.797 33.6632C105.826 33.5526 105.854 33.4419 105.883 33.3313C106.361 33.2492 106.838 33.1707 107.319 33.0886C106.981 34.9943 108.436 37.8243 108.955 39.6872C109.635 42.1389 110.331 44.5799 110.824 47.0745C110.4 47.0745 109.977 47.078 109.553 47.0816C108.724 44.687 108.151 42.196 107.525 39.7407C107.034 37.8172 106.829 35.3512 105.801 33.6596L105.797 33.6632Z" fill="#0A0A0A"/>
<path d="M110.821 47.0783C110.328 44.5838 109.632 42.1392 108.952 39.691C108.436 37.8282 106.977 34.9946 107.316 33.0925C107.686 32.964 108.053 32.8355 108.423 32.707C107.48 33.9989 109.341 38.0173 109.72 39.4055C110.423 41.9679 111.188 44.516 111.935 47.0676C111.565 47.0712 111.191 47.0747 110.821 47.0783Z" fill="#191919"/>
<path d="M105.797 33.6633C106.826 35.3549 107.031 37.8209 107.522 39.7444C108.148 42.2033 108.721 44.6907 109.549 47.0853C109.293 47.0853 109.04 47.0817 108.784 47.0782C107.594 42.6708 106.342 38.2706 105.377 33.8061C105.516 33.7597 105.658 33.7097 105.797 33.6633Z" fill="#191919"/>
<path d="M9.39625 32.9602C9.82966 33.1172 10.2631 33.2743 10.6996 33.4313C10.1175 37.9671 8.48513 42.478 7.46329 46.9389C7.24816 47.0388 7.0362 47.1388 6.82108 47.2387C6.50472 47.2387 6.18836 47.2387 5.872 47.2387C5.81822 47.1388 5.76127 47.0388 5.70749 46.9425C6.95395 42.3567 8.65913 37.6602 9.39308 32.9602H9.39625Z" fill="#0A0A0A"/>
<path d="M5.71064 46.9424C5.76443 47.0423 5.82137 47.1422 5.87515 47.2386C5.71381 47.2386 5.55246 47.235 5.39112 47.2314C5.49868 47.1351 5.60308 47.0387 5.71064 46.9424Z" fill="#232323"/>
<path d="M105.883 27.7355C105.905 27.7462 105.927 27.7605 105.948 27.7712C105.927 27.7569 105.908 27.7462 105.886 27.7319L105.883 27.7355Z" fill="#87959E"/>
<path d="M1.17406 78.2617C1.19281 78.4794 1.21156 78.6971 1.23031 78.9184C1.21156 78.7007 1.19281 78.483 1.17406 78.2617Z" fill="#0A0A0A"/>
<path d="M1.15789 66.6453C1.16726 66.6774 1.18289 66.7095 1.18601 66.7452C1.18601 66.7559 1.16414 66.7737 1.14851 66.7844C1.12038 66.7345 1.12351 66.6881 1.15789 66.6453Z" fill="#232323"/>
<path d="M7.46329 46.9424C8.48513 42.4815 10.1175 37.9671 10.6996 33.4348C11.0571 33.5704 11.4146 33.7025 11.7721 33.8381C10.8104 36.065 10.2125 38.4346 9.62719 40.7864C9.21592 42.4458 8.99763 46.036 7.46329 46.9424Z" fill="#191919"/>
<path d="M10.8072 90.8949C10.7566 90.9734 10.7218 91.0341 10.687 91.0912C10.4814 90.8735 10.5573 90.6843 10.8072 90.8949Z" fill="#232323"/>
<path d="M10.5003 53.8728L10.5225 53.5837C10.649 53.673 10.6712 53.7765 10.5889 53.8907C10.5604 53.8835 10.5288 53.8799 10.5003 53.8728Z" fill="#232323"/>
<path d="M106.073 55.8145C106.088 55.9858 106.104 56.1571 106.123 56.3284C105.956 56.2998 105.791 56.2712 105.623 56.2427C105.772 56.1 105.924 55.9572 106.073 55.8145Z" fill="#E4E4E4"/>
<path d="M106.291 58.4053C106.354 58.4695 106.417 58.5302 106.481 58.5944C106.424 58.6372 106.367 58.6801 106.31 58.7229C106.304 58.6158 106.297 58.5123 106.291 58.4053Z" fill="#191919"/>
</svg>
